<?xml version="1.0" encoding="utf-8"?>
<!-- Generator: Adobe Illustrator 19.2.1, SVG Export Plug-In . SVG Version: 6.00 Build 0)  -->
<svg version="1.1" id="Layer_1" xmlns="http://www.w3.org/2000/svg" xmlns:xlink="http://www.w3.org/1999/xlink" x="0px" y="0px"
	 viewBox="0 0 174.3 89.2" style="enable-background:new 0 0 174.3 89.2;" xml:space="preserve">
<style type="text/css">
	.st0{fill:#FFFFFF;}
</style>
<g id="XMLID_107_">
	<g id="XMLID_304_">
		<g id="XMLID_305_">
			<g id="XMLID_441_">
				<g id="XMLID_563_">
					<path id="XMLID_564_" class="st0" d="M26.4,49.1c-19.3-8.9-17-28.9-17-38.2h34.2C43.5,20.3,45.7,40.2,26.4,49.1z M9.4,9.4
						l-1.5,1.5c0,1.1,0,2.5-0.1,3.2c-0.1,11,0.6,28,18.4,36.2c9.4-4.4,16.6-11.9,18.4-23.5C45.7,20.1,45,13.7,45,9.4H9.4z"/>
				</g>
				<g id="XMLID_552_">
					<path id="XMLID_104_" class="st0" d="M19.1,33.9c-1.4,1.5-2.7,2.9-3.2,3.4c-0.1,0.1-0.1,0.2-0.1,0.3c0.1,0.1,0.2,0.2,0.3,0.2
						s0.1,0.1,0.3-0.1c0.1-0.1,1.6-1.5,3.3-3.2c0,0-0.2-0.1-0.3-0.2C19.3,34.1,19.1,33.9,19.1,33.9z"/>
					<g id="XMLID_560_">
						<path id="XMLID_103_" class="st0" d="M20,33.5c0.3,0.3,0.9,0.7,0.9,0.7l-0.3,0.3c-0.1,0.1-0.6-0.1-1-0.5s-0.7-0.8-0.6-0.9
							l0.3-0.3C19.4,32.8,19.6,33.2,20,33.5z"/>
					</g>
					<g id="XMLID_553_">
						<g id="XMLID_557_">
							<g id="XMLID_558_">
								<path id="XMLID_102_" class="st0" d="M35.6,37.3c0.3-0.3,0.3-0.5,0.3-0.5l0.3,0.1c0.1,0.1,0,0.5-0.3,0.7
									c-0.3,0.3-0.7,0.4-0.8,0.3L35,37.5C35,37.5,35.3,37.5,35.6,37.3z"/>
							</g>
						</g>
						<g id="XMLID_554_">
							<g id="XMLID_555_">
								<path id="XMLID_101_" class="st0" d="M35.1,36.7c0.2-0.2,0.2-0.4,0.2-0.4l0.2,0.1c0.1,0.1,0,0.3-0.2,0.5s-0.5,0.3-0.6,0.2
									V37C34.7,37,34.9,36.9,35.1,36.7z"/>
							</g>
						</g>
					</g>
				</g>
				<g id="XMLID_550_">
					<path id="XMLID_100_" class="st0" d="M36.1,21.2l-0.4,0.3c-0.5,0.2-1.6-0.7-2.5-1.5c-0.6-0.5-1.8-1.8-1.4-2.4l0.2-0.2
						c-0.1-0.1-0.2-0.1-0.3-0.2c-0.1-0.1-0.2-0.1-0.4-0.1c-0.1,0-0.3,0.1-0.3,0.2c0,0.2,0.1,0.6,0.3,0.9c0.2,0.4,0.9,1.5,2.4,2.6
						c0.7,0.5,1.5,0.9,2,1.1c0.1,0,0.5,0.1,0.6,0c0.2-0.2,0-0.4-0.1-0.7C36.2,21.3,36.1,21.2,36.1,21.2z"/>
				</g>
				<path id="XMLID_99_" class="st0" d="M35.4,17.7"/>
				<path id="XMLID_98_" class="st0" d="M34.6,17.4"/>
				<path id="XMLID_543_" class="st0" d="M20.6,15.6c0,0.1,0,0.2,0,0.4c0,0.4,0.3,3.4,2.1,5.5c1.5,1.9,6,7.2,6.7,8.1
					c0.7,0.8,5.1,6,5.7,6.6l0.1,0.1c0,0-0.1,0.1-0.2,0.2c-0.1,0.1-0.3,0.1-0.3,0.1l-0.1-0.1c-0.2-0.2-7.8-7.8-8.6-8.6
					c-0.7-0.7-4.7-4.5-6.3-5.6c-1.4-0.9-2-1.4-3.6-1.5c0,0-1.1,0-1.2-0.1v-0.1c0.7-0.3,2.2-1.1,3.3-2.3c1.6-1.6,2.2-2.7,2.3-2.8
					C20.5,15.6,20.6,15.5,20.6,15.6z M21.7,22.1c-1.6-1.6-2.2-1.9-2.9-2.3c-0.4-0.2-0.7-0.3-0.9-0.2c-0.3,0.1-0.8,0.3-1.1,0.6
					c-0.2,0.2-0.2,0.3-0.1,0.3c0.1,0.1,0.9,0.2,1.7,0.6c1.3,0.7,3.7,2.4,9,7.8c2.7,2.8,6.9,7.1,6.9,7.1l0.1-0.1c0,0-6.1-6.9-10.9-12
					C22.8,23.2,22.2,22.6,21.7,22.1z"/>
				<path id="XMLID_95_" class="st0" d="M36,21.1"/>
				<path id="XMLID_539_" class="st0" d="M16.9,18.8c-0.7,0.6-1.6,1.1-2.3,1.4c-0.5,0.2-1.2,0-0.7-1c0.1-0.3,0.4-0.6,0.7-1
					c0.9-1.2,2.6-2.7,4.2-3.6c0.5-0.3,0.9-0.4,1.1-0.4c0.4,0,0.4,0.4,0.3,0.7C20.1,15.6,18.9,17.2,16.9,18.8z M17.4,17.9
					c0.2-0.2,0.8-0.8,1.3-1.4c0.6-0.7,0.9-1.3,0.9-1.3s0.1-0.2,0.1-0.3s-0.1-0.1-0.2-0.2c-0.1-0.1-1.4,0.6-2,1.1
					c-0.1,0.1-0.2,0.3-0.3,0.6C17.2,16.6,17.7,17.1,17.4,17.9C17.3,17.9,17.4,17.9,17.4,17.9z"/>
				<path id="XMLID_92_" class="st0" d="M20.6,15.8"/>
				<g id="XMLID_535_">
					<path id="XMLID_91_" class="st0" d="M25.8,28.4c-0.3,0.3-5.3,5.1-5.3,5.1c0.1,0.1,0.3,0.2,0.3,0.2s4.6-4.4,4.9-4.7
						c0.1-0.1,0.3-0.3,0.4-0.3L25.8,28.4z"/>
					<path id="XMLID_90_" class="st0" d="M35.2,22.5c0.1,0,0.1,0,0.2,0c0.1,0,0.2,0,0.2,0s0.1-0.1,0-0.1c-0.2,0-0.7-0.1-1.1-0.4
						c-0.3,0.1-0.8,0.2-1.3,0.5c-0.7,0.3-2.3,1.3-5.5,4.2L28,27c1.1-1,2.6-2.3,3.4-2.8c1.4-0.9,2.5-1.4,3.2-1.5
						C34.6,22.6,34.9,22.5,35.2,22.5z"/>
				</g>
				<g id="XMLID_532_">
					<path id="XMLID_89_" class="st0" d="M32,20.2c-0.9-0.9-1.2-1.6-1.3-2.1l0,0c0,0,0,0-0.1,0c0,0,0,0,0,0.1
						c-0.1,0.9,0,1.3-0.4,2.3c-0.3,0.8-0.9,1.8-1.7,2.8c-0.5,0.5-1.3,1.4-2,2.3l0.5,0.6c0.1-0.1,0.2-0.2,0.4-0.4
						c2.5-2.6,4.6-4.2,5.3-4.8C32.5,20.7,32.3,20.4,32,20.2z"/>
					<path id="XMLID_88_" class="st0" d="M24.8,27.5c-1,1.2-2.1,2.3-2.4,2.7c-0.3,0.3-2.5,2.7-2.5,2.7S20,33,20,33.1
						c0.1,0.1,0.2,0.2,0.2,0.2s4.7-4.9,5.1-5.2L24.8,27.5z"/>
				</g>
				<path id="XMLID_87_" class="st0" d="M32.9,17v-0.1c-0.2-0.1-0.4-0.1-0.5,0c-0.3,0.3,0.4,1.5,1.5,2.6c1.2,1.1,2.4,1.7,2.7,1.3
					c0.1-0.1,0.1-0.4-0.1-0.7C34.8,20.3,32.9,18,32.9,17z"/>
				<path id="XMLID_528_" class="st0" d="M38.1,17.4c-0.2,0.2-0.4,0.6-0.6,0.8c0.2-0.2,0.3-0.6,0.1-1.6c-0.1-0.7-0.2-1-0.3-1.2
					c-0.1-0.1-0.1-0.1-0.2,0c-0.1,0.1-0.3,0.5-0.3,0.5c0,0.1,0,0-0.3-1c-0.2-0.7-0.3-1.1-0.3-1.4c0-0.1,0-0.2,0-0.3s0-0.1-0.3,0
					c-0.1,0-1,0.7-1.4,1.6c-0.2,0.5-0.2,1-0.3,0.7c0-0.5,0-0.5-0.1-0.5c-0.3,0.1-1.3,0.6-1.3,2c0,1.2,2.2,3.7,4,3.1
					c0,0,1.4-0.3,1.4-1.5C38.3,17.3,38.1,17.4,38.1,17.4z M37.7,18.9c-0.1,0.1-0.3,0.4-0.7,0.6s-1,0.2-1.3,0.1
					c-1.3-0.4-2.1-1.8-2.1-1.8c-1.1-1.7,0.4-2.4,0.5-2.4c0,0-0.1,0.6-0.1,0.9c0.1,0.3,0.3,0.6,0.3,0.8c0.1,0.4,0,0.6-0.1,0.8
					c0,0.1,0.1,0,0.1,0s0,0,0.1-0.1c0.2-0.1,0.4-0.4,0.3-0.6c-0.1-0.5-0.5-0.9-0.1-1.9c0.3-0.7,0.9-1.3,1-1.3
					c0.1-0.1,0.2-0.2,0.2-0.1c0,0.1,0.1,0.6,0.2,0.9c0.1,0.3,0.4,1,0.3,1.8c-0.1,0.9-1.5,1.9-1.7,1.9c-0.1,0-0.2,0.1-0.2,0.1
					c-0.1,0.1,0,0.1,0.1,0.1s0.7-0.1,1.2-0.5c0.4-0.3,0.8-0.7,0.9-1c0.3-0.5,0.4-1.1,0.4-1.2c0-0.1,0.1-0.1,0.1,0
					c0,0.1,0.1,0.4,0.2,0.6c0,0.1,0.1,0.4,0.1,0.8c0,0.7-0.2,1-0.6,1.3c-0.2,0.2-0.5,0.2-0.7,0.3H36c0,0-0.1,0,0,0.1h0.1
					c0.2,0.1,0.7,0.1,1-0.1c0.1-0.1,0.3-0.2,0.6-0.5c0.1-0.1,0.2-0.3,0.2-0.2C37.8,18.4,37.8,18.7,37.7,18.9z"/>
			</g>
			<g id="XMLID_306_">
				<g id="XMLID_307_">
					<path id="XMLID_409_" class="st0" d="M118.3,11.4c5.9,0,9.6,5.4,9.6,10.9c0,5.6-3.5,9.1-8,9.1c-6,0-9.6-5.4-9.6-11
						C110.3,15.6,113.2,11.4,118.3,11.4z M118.7,32.3c6.7,0,11.4-4.4,11.4-11.2c0-6.3-4.7-10.7-10.9-10.7c-6.2,0-11.1,4.6-11.1,10.9
						C108.1,27.7,112.1,32.3,118.7,32.3z"/>
					<path id="XMLID_314_" class="st0" d="M136.2,13c0-1.1,0.6-1.1,1.7-1.1c2.9,0,5.6,1.2,5.6,4.8s-2.8,4.2-4.1,4.2
						c-1.4,0-3.2,0.1-3.2-0.4V13z M142,21.1c2.1-0.8,3.7-2.8,3.7-5.1c0-5.7-6.5-5.1-7-5.1c-1.5,0-3.2,0.1-4.9,0.1
						c-1.5,0-1.4-0.1-1.9-0.1c-0.4,0-0.6,0.2-0.6,0.4c0,1,2.5-0.2,2.5,2.6v14.9c0,2.2-2.1,1.8-2.1,2.6c0,0.2,0.1,0.3,0.3,0.3
						c1.1,0,2.2-0.1,3.3-0.1c2.4,0,3.1,0.1,3.4,0.1c0.2,0,0.5,0.1,0.5-0.2c0-1-3.1-0.1-3.1-2.6v-6.2c0-0.3-0.2-0.8,0.8-0.8
						c3.3,0,2.9-0.1,3.9,1.6l3.3,5.1c1.1,1.7,2.3,3.2,4.4,3.2c0.3,0,2.6,0,2.6-0.4c0-0.7-2.1,0.4-4.2-2.9L142,21.1z"/>
					<path id="XMLID_312_" class="st0" d="M150.6,12.8c-0.8-1.3-2.2-0.9-2.2-1.4c0-0.2,0.2-0.4,0.4-0.4c0.8,0,1.3,0.1,3.3,0.1
						c1,0,1.8-0.1,2.1-0.1c0.2,0,0.6,0,0.6,0.3c0,0.5-1.4,0.5-1.4,1.4c0,0.5,0.4,0.9,0.5,1.2l3.5,5.7c0.2,0.4,0.4,0.5,0.6,0.5
						c0.1,0,0.3-0.2,0.6-0.6l3-4.9c0.2-0.3,0.6-0.8,0.6-1.6c0-1.4-2.2-0.8-2.2-1.5c0-0.4,0.3-0.4,0.6-0.4c0.7,0,1.4,0.1,2.1,0.1
						c0.8,0,1.7-0.1,2.5-0.1c0.2,0,0.3,0.2,0.3,0.4c0,0.3-0.5,0.4-0.7,0.6c-0.8,0.5-1.2,1.3-1.6,2l-4.1,6.4
						c-0.5,0.7-0.7,0.9-0.7,1.3V29c0,2.6,2.4,1.7,2.4,2.6c0,0.3-0.3,0.3-0.7,0.3s-2.1-0.1-3.2-0.1c-1.3,0-2.4,0.1-2.6,0.1
						c-0.3,0-0.4,0-0.4-0.4c0-0.8,2.3-0.1,2.3-2.1v-7.1c0-0.6-0.4-1.1-0.7-1.5L150.6,12.8z"/>
					<path id="XMLID_310_" class="st0" d="M104.7,29c0.1,2.5,2.3,1.4,2.3,2.4c0,0.3-0.4,0.3-0.7,0.3c-0.6,0-1.6-0.1-2.8-0.1
						c-0.9,0-1.8,0.1-2.5,0.1c-0.3,0-0.3-0.1-0.3-0.3c0-0.9,1.9-0.2,1.8-2.4l-0.8-11.4c0-0.7-0.1-1.1-0.3-1.1
						c-0.2,0-0.5,0.3-0.8,0.9l-6.1,12.4c-0.2,0.3-0.6,1.5-0.9,1.5s-0.5-0.6-0.6-0.9l-6.2-13.1c-0.1-0.2-0.2-0.3-0.4-0.3
						c-0.1,0-0.2,0.1-0.2,0.4l-0.9,10.3c-0.1,3.9,2.6,2.6,2.6,3.7c0,0.3-0.3,0.3-0.7,0.3c-0.4,0-1.7-0.1-2.6-0.1
						c-1.5,0-2,0.1-2.6,0.1c-0.2,0-0.3-0.1-0.3-0.4c0-1,1.9,0.2,2.1-2.9c0.4-4.8,0.7-7.9,0.7-11c0-6.9-2.3-5.3-2.3-6.3
						c0-0.3,0.2-0.3,0.5-0.3c0.5,0,1.1,0.1,1.6,0.1s1-0.1,1.6-0.1c0.4,0,0.5,0.5,0.6,0.8l7,14.9c0.3,0.6,0.4,0.9,0.6,0.9
						c0.1,0,0.4-0.6,0.9-1.6l7-14c0.2-0.3,0.4-1,0.8-1c0.3,0,1.2,0.1,1.4,0.1c0.7,0,0.9-0.1,1.4-0.1c0.2,0,0.3,0.2,0.3,0.4
						c0,0.9-2.3-0.3-2.2,3.2L104.7,29z"/>
					<path id="XMLID_308_" class="st0" d="M69.1,19.5c0,1-0.1,1,1.1,1h3.2c3,0,2.3-2.4,3-2.4c0.2,0,0.3,0.3,0.3,0.6c0,1,0,2,0,3
						c0,0.8,0,1.5,0,2.3c0,0.3-0.1,0.4-0.3,0.4c-0.9,0,0.1-2.6-2.4-2.6h-4.3c-0.6,0-0.5,0.5-0.5,0.9v5.4c0,1.7-0.2,2.4,2.2,2.4
						c6.8,0,7.8-3,8.1-3c0.2,0,0.2,0.3,0.2,0.4c0,1.1-0.8,2.1-1.5,2.9c-0.9,1.1-1.6,1-2.9,1c-2.2,0-4.4-0.2-6.7-0.1
						c-1.2,0-2.4,0.1-3.6,0.1c-0.3,0-0.4-0.1-0.4-0.3c0.1-0.4,0.4-0.3,1.3-0.8c0.8-0.4,0.8-1.2,0.8-2.6V14.7c0-1.3,0-2.7-1.6-3
						c-0.2-0.1-0.9-0.1-0.9-0.5c0-0.2,0.2-0.4,1-0.4c5.5,0,7,0.1,8.3,0.1c0.6,0,3.3-0.1,4.2-0.1c0.2,0,0.3,0.3,0.3,0.6
						c0,3.3-0.4,3.5-0.6,3.5c-0.7,0-0.2-1.4-0.7-2.1c-0.8-1-3.8-0.8-5-0.8c-2.8,0-2.8-0.1-2.8,1.9v5.6H69.1z"/>
				</g>
			</g>
		</g>
	</g>
	<g id="XMLID_277_">
		<path id="XMLID_302_" class="st0" d="M68.4,47c0,0.8-0.1,1.3,0.9,1.3c3.4,0,3.2-1.8,3.7-1.8c0.1,0,0.2,0,0.2,0.3
			c0,1.1-0.8,2.2-1.9,2.2c-2.1,0-2.8-0.1-3.5-0.1c-0.4,0-1,0.1-1.7,0.1c-0.2,0-0.3-0.1-0.3-0.1c0-0.6,1,0.1,1-1.6v-6.5
			c0-1.2-1.5-0.8-1.5-1.3c0-0.1,0.1-0.2,0.4-0.2c0.5,0,1.3,0.1,1.9,0.1c1.2,0,1.3-0.1,1.5-0.1c0.3,0,0.4,0,0.4,0.2c0,0.5-1,0-1,1.1
			L68.4,47L68.4,47z"/>
		<path id="XMLID_300_" class="st0" d="M77.6,47.3c0,1.7,1.5,1.1,1.5,1.5c0,0.1-0.1,0.2-0.4,0.2c-0.5,0-1-0.1-2.1-0.1
			C76,49,75.4,49,75.1,49c-0.1,0-0.2-0.1-0.2-0.2c0-0.5,1-0.1,1-1.4v-6.5c0-1.2-1.5-0.9-1.5-1.3c0-0.2,0.3-0.2,0.5-0.2
			c0.5,0,1.1,0.1,1.5,0.1c0.5,0,1-0.1,1.8-0.1c0.4,0,0.5,0,0.5,0.2c0,0.5-1,0-1,1.3v6.4H77.6z"/>
		<path id="XMLID_296_" class="st0" d="M82.5,41.4c0-1.9-1.4-1.1-1.4-1.8c0-0.2,0.2-0.2,0.2-0.2c0.1,0,0.2,0.1,0.8,0.1
			c1.2,0,2.3-0.1,3.5-0.1c3.3,0,3.4,2,3.4,2.3c0,0.9-0.5,1.6-1.5,1.9l0,0c1.7,0.4,2.2,1.2,2.2,2.4c0,1.8-1.3,3-3.5,3
			c-2,0-2.7-0.1-3.4-0.1c-0.3,0-0.7,0.1-1,0.1s-0.5,0-0.5-0.2c0-0.5,1.2-0.1,1.2-1.4C82.5,47.4,82.5,41.4,82.5,41.4z M84.2,42.8
			c0,0.7,0.1,0.7,0.9,0.8h0.8c1,0,1.4-0.5,1.4-1.5c0-1.3-1-2.1-2.2-2.1c-0.9,0-1,0.5-1,1.3L84.2,42.8L84.2,42.8z M84.2,46.8
			c0,1.3,0.4,1.7,1.7,1.7c1.3,0,2-0.9,2-2.2c0-0.8-0.4-2-2.9-2c-0.8,0-0.8,0.3-0.8,1.1C84.2,45.4,84.2,46.8,84.2,46.8z"/>
		<path id="XMLID_293_" class="st0" d="M92.7,41.1c0-1.5-1.5-1-1.5-1.5c0-0.1,0.1-0.2,0.3-0.2c0.6,0,0.7,0.1,1.6,0.1
			s1.8-0.1,2.8-0.1c3,0,3.3,1.9,3.3,2.6c0,0.9-0.4,1.4-0.8,1.7s-0.8,0.4-0.8,0.6c0,0.1,1.1,2.1,2,3.8c0.1,0.2,0.4,0.2,0.5,0.2
			s0.3-0.1,0.4-0.1s0.2,0.1,0.2,0.2c0,0.4-0.9,0.7-1.4,0.7c-1.1,0-1.5-0.9-1.9-1.7l-1.1-2.2c-0.3-0.6-0.5-0.7-1.1-0.7
			c-0.7,0-0.6,0.1-0.6,0.6v2.4c0,1.5,1.4,0.9,1.4,1.4c0,0.1-0.1,0.2-0.4,0.2C95,49,94.7,49,94.1,49c-0.7,0-1.4,0-2.1,0
			c-0.1,0-0.4,0-0.4-0.2c0-0.4,1.1,0,1.1-1.7V41.1z M94.3,43.5c0,0.3,0.5,0.3,0.9,0.3c2.1,0,2.2-0.8,2.2-1.6c0-1.3-0.8-2.3-2.1-2.3
			c-0.5,0-0.9,0-0.9,0.8L94.3,43.5L94.3,43.5z"/>
		<path id="XMLID_290_" class="st0" d="M104.6,45.7c-0.2,0-0.5,0.1-0.8,1c-0.1,0.3-0.3,0.7-0.3,1.1c0,1,1.5,0.8,1.5,1.1
			s-0.4,0.2-0.7,0.2c-0.4,0-0.8-0.1-1.3-0.1c-0.4,0-0.8,0.1-1.2,0.1c-0.2,0-0.4,0-0.4-0.1c0-0.3,0.7-0.2,1-1l3.7-8.3
			c0.1-0.2,0.2-0.5,0.3-0.5c0.1,0,0.1,0,0.3,0.4l3.7,8.3c0.4,1,1.2,0.4,1.2,0.9c0,0.2-0.1,0.2-0.5,0.2c-0.5,0-0.9-0.1-1.8-0.1
			c-0.6,0-1.1,0.1-1.5,0.1c-0.2,0-0.4,0-0.4-0.2c0-0.4,1-0.2,1-1.1c0-0.3-0.1-0.5-0.2-0.9c-0.4-1.1-0.5-1.2-0.9-1.2L104.6,45.7
			L104.6,45.7z M106.9,44.9c0.2,0,0.4,0,0.4-0.1c0-0.2-0.1-0.3-0.1-0.5l-1.1-2.5c-0.1-0.1,0-0.1-0.1-0.1c0,0-0.1,0-0.2,0.2l-1,2.4
			c-0.1,0.2-0.1,0.3-0.1,0.5c0,0.1,0.2,0.1,0.4,0.1C105.1,44.9,106.9,44.9,106.9,44.9z"/>
		<path id="XMLID_287_" class="st0" d="M114,41.1c0-1.5-1.5-1-1.5-1.5c0-0.1,0.1-0.2,0.3-0.2c0.6,0,0.7,0.1,1.6,0.1s1.8-0.1,2.8-0.1
			c3,0,3.3,1.9,3.3,2.6c0,0.9-0.4,1.4-0.8,1.7s-0.8,0.4-0.8,0.6c0,0.1,1.2,2.1,2.1,3.8c0.1,0.2,0.4,0.2,0.5,0.2s0.3-0.1,0.4-0.1
			s0.2,0.1,0.2,0.2c0,0.4-0.9,0.7-1.4,0.7c-1.1,0-1.5-0.9-1.9-1.7l-1.1-2.2c-0.3-0.6-0.6-0.7-1.2-0.7c-0.7,0-0.6,0.1-0.6,0.6v2.4
			c0,1.5,1.4,0.9,1.4,1.4c0,0.1-0.1,0.2-0.4,0.2c-0.2,0-0.6-0.1-1.2-0.1c-0.7,0-1.4,0.1-2.1,0.1c-0.2,0-0.4,0-0.4-0.2
			c0-0.4,1.1,0,1.1-1.7v-6.1H114z M115.7,43.5c0,0.3,0.5,0.3,0.9,0.3c2.1,0,2.2-0.8,2.2-1.6c0-1.3-0.8-2.3-2.1-2.3
			c-0.5,0-0.9,0-0.9,0.8L115.7,43.5L115.7,43.5z"/>
		<path id="XMLID_285_" class="st0" d="M126.6,47.3c0,1.7,1.5,1.1,1.5,1.5c0,0.1-0.1,0.2-0.4,0.2c-0.5,0-1-0.1-2.1-0.1
			c-0.6,0-1.2,0.1-1.5,0.1c-0.1,0-0.2-0.1-0.2-0.2c0-0.5,1-0.1,1-1.4v-6.5c0-1.2-1.5-0.9-1.5-1.3c0-0.2,0.3-0.2,0.5-0.2
			c0.5,0,1.1,0.1,1.5,0.1c0.5,0,1-0.1,1.8-0.1c0.4,0,0.5,0,0.5,0.2c0,0.5-1,0-1,1.3v6.4H126.6z"/>
		<path id="XMLID_283_" class="st0" d="M133.1,42.9c0,0.6,0,0.7,0.6,0.7h0.9c1.2,0,1.2-1.3,1.5-1.3c0.1,0,0.2,0,0.3,0.3l0.1,2.4
			c0,0.2,0.1,0.7-0.2,0.7c-0.4,0-0.1-1.4-1.5-1.4h-1c-0.6,0-0.6,0.2-0.6,1V47c0,0.8-0.1,1.3,0.9,1.3c3.4,0,3.2-1.8,3.7-1.8
			c0.1,0,0.1,0,0.1,0.3c0,1.1-0.8,2.2-1.9,2.2c-2.1,0-2.9-0.1-3.6-0.1c-0.4,0-1,0.1-1.7,0.1c-0.2,0-0.3-0.1-0.3-0.1
			c0-0.6,1,0.1,1-1.6v-6.4c0-1.2-1.5-0.8-1.5-1.3c0-0.1,0.1-0.2,0.3-0.2c0.6,0,1.5,0.1,3.6,0.1c1,0,1.9-0.1,3.1-0.1
			c0.2,0,0.3,0.1,0.3,0.3l0.1,1.4c0,0.2,0.1,0.6-0.2,0.6c-0.6,0,0.4-1.6-2.2-1.6c-1.7,0-1.7,0-1.7,1v1.8H133.1z"/>
		<path id="XMLID_281_" class="st0" d="M140.2,46.2c0-0.2-0.2-0.6,0.2-0.6c0.2,0,0.2,0.1,0.3,0.3c0.4,1.3,1.3,2.5,2.8,2.5
			c1.1,0,1.9-0.7,1.9-1.7c0-1.2-0.9-1.3-3.1-2.3c-1.2-0.5-2-1.1-2-2.5c0-1.6,1.1-2.7,2.7-2.7c1.1,0,1.7,0.5,2.1,0.5
			c0.2,0,0.5-0.2,0.7-0.2s0.2,0.2,0.2,0.5l0.1,1.8c0,0.3,0,0.5-0.3,0.5s-0.5-2.5-2.9-2.5c-0.9,0-1.5,0.5-1.5,1.4s0.8,1.1,2.6,1.9
			c1.5,0.6,2.4,1.2,2.4,3s-1.3,3-3,3c-0.8,0-1.5-0.3-2.3-0.5c-0.3-0.1-0.3-0.2-0.4-0.5L140.2,46.2z"/>
		<path id="XMLID_278_" class="st0" d="M154.4,42.7c0-0.3-0.3-0.5-0.3-1.3c0-1.3,1-2.1,2.3-2.1c0.9,0,1.7,0.5,1.9,0.5
			s0.2-0.2,0.4-0.2c0.1,0,0.1,0.1,0.1,0.3c0,0.7,0.1,1.4,0.2,2.1c0,0.1,0,0.2-0.2,0.2c-0.1,0-0.2-0.1-0.3-0.3
			c-0.3-1.1-1.1-2.1-2.3-2.1c-0.6,0-1,0.4-1,1c0,1.9,4.5,5.8,4.9,5.8c0.1,0,0.5-0.6,0.5-1.4c0-1.7-1.6-1-1.6-1.5
			c0-0.1,0.1-0.2,0.3-0.2s0.5,0.1,1.4,0.1c0.7,0,0.9-0.1,1.1-0.1c0.1,0,0.2,0,0.2,0.2c0,0.3-0.5,0.1-0.5,0.6c-0.3,2-0.8,2.6-0.8,2.7
			c0,0.5,1.5,1.3,1.8,1.3c0.5,0,0.5-0.1,0.7-0.1c0.1,0,0.2,0,0.2,0.2s-0.7,0.9-1.7,0.9c-0.8,0-1.8-0.7-2.2-1.1
			c-0.8,0.7-2.3,1.1-3.4,1.1c-3.1,0-4.1-2.1-4.1-3.3C152.3,43.4,154.4,42.8,154.4,42.7z M159.2,47.8c0-0.3-3.2-2.2-4.3-4.2
			c-0.1-0.2-0.3-0.4-0.4-0.4c-0.3,0-1,0.4-1,1.4c0,1.5,1.9,3.7,4,3.7C158.1,48.3,159.2,48,159.2,47.8z"/>
	</g>
	<g id="XMLID_215_">
		<path id="XMLID_275_" class="st0" d="M68.3,62.8c0,1.5,1.4,0.9,1.4,1.3c0,0.1-0.1,0.2-0.4,0.2c-0.5,0-0.9,0-1.9,0
			c-0.5,0-1.1,0-1.4,0c-0.1,0-0.1-0.1-0.1-0.1c0-0.4,0.9-0.1,0.9-1.3V57c0-1.1-1.4-0.8-1.4-1.2c0-0.2,0.3-0.2,0.4-0.2
			c0.5,0,1,0,1.4,0s0.9,0,1.6,0c0.4,0,0.4,0,0.4,0.2c0,0.4-0.9,0-0.9,1.1V62.8z"/>
		<path id="XMLID_273_" class="st0" d="M72.3,58c0-2.4-1.4-1.6-1.4-2.1c0-0.1,0.1-0.2,0.2-0.2c0.2,0,0.5,0,0.7,0c0.3,0,0.6,0,1.3,0
			c0.4,0,0.2,0.1,0.5,0.3l4.9,5.4c0.2,0.2,0.3,0.3,0.4,0.3s0.1-0.1,0.1-0.5v-4.1c0-1.1-1.5-0.9-1.5-1.3c0-0.1,0-0.2,0.2-0.2
			s0.6,0,1.4,0s1.2,0,1.3,0c0.2,0,0.2,0.1,0.2,0.2c0,0.4-1,0.1-1,1.4V64c0,0.3,0,0.4-0.1,0.4c-0.2,0-0.2-0.1-0.3-0.2l-5.9-6.4
			c-0.1-0.1-0.2-0.2-0.2-0.2c-0.1,0-0.1,0.1-0.1,0.2V62c0,2.4,1.6,1.5,1.6,2.1c0,0.2-0.3,0.2-0.5,0.2c-0.6,0-1,0-1.4,0s-0.7,0-1.1,0
			c-0.1,0-0.4,0.1-0.4-0.1c0-0.5,1.2-0.3,1.2-1.5L72.3,58L72.3,58z"/>
		<path id="XMLID_271_" class="st0" d="M84.7,58.8c0,0.5,0,0.6,0.5,0.6H86c1.1,0,1.1-1.1,1.3-1.1c0.1,0,0.2,0,0.2,0.3l0.1,2.2
			c0,0.2,0.1,0.6-0.2,0.6c-0.4,0-0.1-1.3-1.3-1.3h-0.9c-0.6,0-0.5,0.1-0.5,0.9v1.8c0,1.4,1.4,1.1,1.4,1.4c0,0.2-0.3,0.2-0.6,0.2
			c-0.5,0-0.9,0-1.5,0c-0.4,0-0.9,0-1.6,0c-0.2,0-0.2-0.1-0.2-0.1c0-0.6,0.9,0.1,0.9-1.4V57c0-1.1-1.4-0.7-1.4-1.2
			c0-0.1,0.1-0.2,0.3-0.2c0.5,0,1.4,0,3.3,0c0.9,0,1.7,0,2.8,0c0.2,0,0.2,0.1,0.2,0.2V57c0,0.2,0.1,0.6-0.2,0.6
			c-0.6,0,0.4-1.4-2-1.4c-1.5,0-1.5,0-1.5,0.9L84.7,58.8L84.7,58.8z"/>
		<path id="XMLID_268_" class="st0" d="M94.3,55.5c2.4,0,4.2,1.6,4.2,4.2c0,1.7-0.7,4.7-4.7,4.7c-2.5,0-4.1-1.7-4.1-4.1
			C89.7,57.5,91.4,55.5,94.3,55.5z M94.2,63.8c2.1,0,2.8-1.7,2.8-3.7c0-2.7-1.5-4.1-3.1-4.1c-2.1,0-2.7,1.7-2.7,3.5
			C91.2,61.3,92,63.9,94.2,63.8z"/>
		<path id="XMLID_257_" class="st0" d="M101,57.2c0-1.4-1.3-0.9-1.3-1.4c0-0.1,0.1-0.2,0.3-0.2c0.6,0,0.7,0,1.4,0c0.8,0,1.7,0,2.5,0
			c2.7,0,2.9,1.7,2.9,2.3c0,0.8-0.4,1.2-0.7,1.5c-0.4,0.3-0.7,0.4-0.7,0.5s1,1.8,1.9,3.4c0.1,0.2,0.3,0.2,0.4,0.2s0.2-0.1,0.4-0.1
			c0.1,0,0.2,0.1,0.2,0.2c0,0.4-0.8,0.6-1.3,0.6c-1,0-1.4-0.8-1.7-1.5l-1-1.9c-0.3-0.5-0.5-0.6-1.1-0.6s-0.6,0.1-0.6,0.5v2.1
			c0,1.3,1.2,0.8,1.2,1.2c0,0.1-0.1,0.2-0.4,0.2c-0.2,0-0.5,0-1.1,0c-0.7,0-1.3,0-1.9,0c-0.1,0-0.4,0-0.4-0.2c0-0.4,1,0,1-1.5
			C101,62.5,101,57.2,101,57.2z M102.5,59.3c0,0.3,0.5,0.3,0.8,0.3c1.9,0,1.9-0.7,1.9-1.4c0-1.2-0.7-2.1-1.9-2.1
			c-0.5,0-0.8,0-0.8,0.7V59.3z"/>
		<path id="XMLID_255_" class="st0" d="M111.1,62.2c-0.1,2.1,1.3,1.4,1.3,1.9c0,0,0,0.2-0.3,0.2c-0.4,0-0.7,0-1.3,0
			c-0.6,0-1,0-1.2,0s-0.2-0.1-0.2-0.2c0-0.4,1-0.1,1.1-1.4l0.2-4.9c0.1-2-1.2-1.4-1.2-2c0-0.1,0.1-0.2,0.1-0.2c0.2,0,0.3,0,0.7,0
			c0.3,0,0.7,0,1.1,0c0.1,0,0.3,0,0.4,0.4l2.7,5.9c0,0.1,0.1,0.2,0.2,0.2s0.2-0.2,0.2-0.3l2.8-5.9c0-0.1,0.1-0.2,0.3-0.2
			c0.3,0,0.5,0,0.7,0s0.5,0,0.8,0s0.4,0,0.4,0.1c0,0.4-1.2,0-1.2,1.4l0.2,5.4c0.1,1.6,1.2,1.1,1.2,1.5c0,0.2-0.2,0.2-0.6,0.2
			s-0.7,0-1.1,0c-0.8,0-1.1,0-1.4,0s-0.6,0-0.6-0.2c0-0.4,1,0,0.9-1.4l-0.2-3.7c0-0.4,0-0.6-0.1-0.6c0,0-0.2,0.2-0.4,0.6l-2.3,4.8
			c-0.1,0.2-0.1,0.3-0.3,0.3c-0.2,0-0.2-0.2-0.3-0.3l-2.4-5.3c0-0.1-0.1-0.2-0.1-0.2c-0.1,0-0.1,0.2-0.1,0.3L111.1,62.2z"/>
		<path id="XMLID_248_" class="st0" d="M123.9,61.3c-0.2,0-0.5,0-0.7,0.9c-0.1,0.2-0.3,0.7-0.3,1c0,0.9,1.3,0.7,1.3,1
			c0,0.3-0.4,0.2-0.6,0.2c-0.4,0-0.8,0-1.2,0c-0.4,0-0.7,0-1.1,0c-0.2,0-0.4,0-0.4-0.1c0-0.3,0.6-0.2,0.9-0.9l3.3-7.4
			c0.1-0.2,0.1-0.4,0.3-0.4c0.1,0,0.1,0,0.3,0.4l3.3,7.5c0.4,0.9,1.1,0.4,1.1,0.8c0,0.2-0.1,0.2-0.4,0.2c-0.4,0-0.8,0-1.6,0
			c-0.5,0-1,0-1.3,0c-0.2,0-0.4,0-0.4-0.1c0-0.4,0.9-0.2,0.9-1c0-0.3-0.1-0.5-0.2-0.8c-0.4-1-0.5-1.1-0.8-1.1h-2.4V61.3z M126,60.6
			c0.2,0,0.4,0,0.4-0.1c0-0.2-0.1-0.3-0.1-0.5l-1-2.2c-0.1-0.1,0-0.1-0.1-0.1c0,0-0.1,0-0.1,0.1L124,60c-0.1,0.1-0.1,0.3-0.1,0.5
			c0,0.1,0.2,0.1,0.4,0.1H126z"/>
		<path id="XMLID_241_" class="st0" d="M133.4,57c0-0.6-0.1-0.7-0.6-0.7h-1c-1.4,0-1,1.6-1.6,1.6c-0.3,0-0.2-0.3-0.2-0.4l0.2-1.6
			c0-0.1,0-0.3,0.2-0.3c1.1,0,1.9,0,3.7,0s2.3,0,3.4,0c0.2,0,0.2,0.2,0.2,0.3L138,57c0,0.1,0.2,0.6-0.2,0.6c-0.5,0-0.1-1.4-1.5-1.3
			h-0.9c-0.5,0-0.4,0.1-0.4,0.7v5.5c0,1.5,1.6,1.2,1.6,1.5c0,0.3-0.2,0.3-0.6,0.3c-0.5,0-0.9,0-1.7,0s-1.2,0-1.7,0
			c-0.2,0-0.4,0-0.4-0.3c0-0.5,1.4,0.1,1.4-1.3V57H133.4z"/>
		<path id="XMLID_237_" class="st0" d="M142,62.8c0,1.5,1.4,0.9,1.4,1.3c0,0.1-0.1,0.2-0.4,0.2c-0.5,0-0.9,0-1.9,0
			c-0.5,0-1.1,0-1.4,0c-0.1,0-0.1-0.1-0.1-0.1c0-0.4,0.9-0.1,0.9-1.3V57c0-1.1-1.4-0.8-1.4-1.2c0-0.2,0.3-0.2,0.4-0.2
			c0.5,0,1,0,1.4,0s0.9,0,1.6,0c0.4,0,0.4,0,0.4,0.2c0,0.4-0.9,0-0.9,1.1V62.8z"/>
		<path id="XMLID_232_" class="st0" d="M149,55.5c2.4,0,4.2,1.6,4.2,4.2c0,1.7-0.7,4.7-4.7,4.7c-2.5,0-4.1-1.7-4.1-4.1
			C144.4,57.5,146,55.5,149,55.5z M148.9,63.8c2.1,0,2.8-1.7,2.8-3.7c0-2.7-1.5-4.1-3.1-4.1c-2.1,0-2.7,1.7-2.7,3.5
			S146.7,63.9,148.9,63.8z"/>
		<path id="XMLID_229_" class="st0" d="M155.5,58c0-2.4-1.4-1.6-1.4-2.1c0-0.1,0.1-0.2,0.2-0.2c0.2,0,0.5,0,0.7,0c0.3,0,0.6,0,1.3,0
			c0.4,0,0.2,0.1,0.5,0.3l4.9,5.4c0.2,0.2,0.3,0.3,0.4,0.3c0.1,0,0.1-0.1,0.1-0.5v-4.1c0-1.1-1.5-0.9-1.5-1.3c0-0.1,0-0.2,0.2-0.2
			s0.6,0,1.4,0c0.8,0,1.2,0,1.3,0c0.2,0,0.2,0.1,0.2,0.2c0,0.4-1,0.1-1,1.4V64c0,0.3,0,0.4-0.1,0.4c-0.2,0-0.2-0.1-0.3-0.2l-5.9-6.4
			c-0.1-0.1-0.2-0.2-0.2-0.2c-0.1,0-0.1,0.1-0.1,0.2V62c0,2.4,1.6,1.5,1.6,2.1c0,0.2-0.3,0.2-0.5,0.2c-0.6,0-1,0-1.4,0s-0.7,0-1.1,0
			c-0.1,0-0.4,0.1-0.4-0.1c0-0.5,1.2-0.3,1.2-1.5L155.5,58L155.5,58z"/>
	</g>
	<g id="XMLID_108_">
		<path id="XMLID_209_" class="st0" d="M67.1,71.9c0-0.5-0.1-0.5-0.5-0.5h-0.5c-1.1,0-0.8,1.3-1.2,1.3c-0.2,0-0.1-0.2-0.1-0.3
			l0.2-1.3c0-0.1,0-0.2,0.2-0.2c0.9,0,1.2,0,2.6,0s2,0,2.9,0c0.1,0,0.1,0.1,0.2,0.2L71,72c0,0.1,0.1,0.5-0.1,0.5
			c-0.4,0-0.1-1.1-1.2-1h-0.8c-0.4,0-0.5,0-0.5,0.5v4.3c0,1.2,1.2,0.9,1.2,1.2c0,0.2-0.2,0.2-0.5,0.2c-0.4,0-0.7,0-1.3,0
			c-0.6,0-1,0-1.3,0c-0.2,0-0.3,0-0.3-0.2c0-0.4,1.1,0.1,1.1-1.1v-4.5H67.1z"/>
		<path id="XMLID_207_" class="st0" d="M76.7,73.3c0,0.4,0,0.5,0.4,0.5h0.6c0.8,0,0.9-0.9,1-0.9s0.2,0,0.2,0.2l0.1,1.7
			c0,0.1,0.1,0.5-0.2,0.5c-0.3,0,0-1-1-1h-0.7c-0.4,0-0.4,0.1-0.4,0.7v1.2c0,0.6,0,0.9,0.7,0.9c2.4,0,2.2-1.3,2.6-1.3
			c0,0,0.1,0,0.1,0.2c0,0.7-0.6,1.5-1.3,1.5c-1.5,0-2,0-2.5,0c-0.3,0-0.7,0-1.2,0c-0.1,0-0.2,0-0.2-0.1c0-0.4,0.7,0.1,0.7-1.1V72
			c0-0.9-1.1-0.6-1.1-0.9c0-0.1,0.1-0.2,0.2-0.2c0.4,0,1.1,0,2.5,0c0.7,0,1.3,0,2.2,0c0.1,0,0.2,0.1,0.2,0.2V72
			c0,0.1,0.1,0.4-0.2,0.4c-0.4,0,0.3-1.1-1.5-1.1c-1.2,0-1.2,0-1.2,0.7C76.7,72,76.7,73.3,76.7,73.3z"/>
		<path id="XMLID_205_" class="st0" d="M90,72.9c0,0.1,0,0.3-0.1,0.3c-0.2,0-0.2-0.2-0.3-0.3c-0.5-0.9-1.3-1.7-2.4-1.7
			c-1.4,0-2.2,1.3-2.2,2.6c0,1.3,0.8,3.2,2.6,3.2c1.5,0,2.1-1.3,2.4-1.3c0,0,0.1,0,0.1,0.1c0,0.4-1,1.8-3.1,1.8
			c-2.8,0-3.2-2.4-3.2-3.2c0-1.6,1-3.7,3.4-3.7c1.2,0,1.9,0.6,2.2,0.6c0.2,0,0.2-0.3,0.3-0.3c0,0,0.1,0,0.1,0.1L90,72.9z"/>
		<path id="XMLID_165_" class="st0" d="M100.7,76.3c0,1.2,1,0.9,1,1.2c0,0.1-0.1,0.1-0.2,0.1c-0.3,0-0.9,0-1.3,0c-0.3,0-0.7,0-1.2,0
			c-0.1,0-0.2,0-0.2-0.1c0-0.3,0.7-0.1,0.7-1v-1.7c0-0.4,0-0.5-0.4-0.5h-2.6c-0.4,0-0.5,0.1-0.5,0.5v1.5c0,1.2,1.2,0.8,1.2,1.2
			c0,0.1,0,0.1-0.3,0.1c-0.4,0-0.7,0-1.4,0c-0.4,0-0.8,0-1.3,0c-0.1,0-0.2,0-0.2-0.1c0-0.4,0.8,0,0.8-1.2V72c0-1-1.1-0.6-1.1-1
			c0-0.1,0.3-0.2,0.5-0.2c0.3,0,0.6,0,1.1,0c0.6,0,1,0,1.2,0c0.1,0,0.2,0,0.2,0.1c0,0.3-0.7,0-0.7,0.9v1.5c0,0.3,0,0.4,0.2,0.4H99
			c0.3,0,0.3-0.2,0.3-0.4V72c0-1.1-1.1-0.7-1.1-1c0-0.2,0.1-0.2,0.2-0.2c0.4,0,0.6,0,1.2,0c0.5,0,0.9,0,1.3,0c0.2,0,0.2,0,0.2,0.1
			c0,0.4-0.7,0-0.7,0.9v4.5H100.7z"/>
		<path id="XMLID_162_" class="st0" d="M106.6,72.7c0-1.8-1.1-1.2-1.1-1.7c0-0.1,0-0.2,0.2-0.2s0.4,0,0.5,0c0.2,0,0.5,0,1,0
			c0.3,0,0.2,0.1,0.4,0.2l3.8,4.2c0.1,0.1,0.2,0.2,0.3,0.2c0.1,0,0.1-0.1,0.1-0.4v-3c0-0.9-1.2-0.7-1.2-1c0-0.1,0-0.2,0.2-0.2
			s0.4,0,1.1,0c0.6,0,0.9,0,1,0c0.2,0,0.2,0.1,0.2,0.1c0,0.3-0.8,0.1-0.8,1.1v5.4c0,0.2,0,0.3-0.1,0.3s-0.2-0.1-0.2-0.1l-4.6-5
			c-0.1-0.1-0.1-0.1-0.2-0.1s-0.1,0.1-0.1,0.2v3.2c0,1.8,1.2,1.2,1.2,1.6c0,0.1-0.2,0.1-0.4,0.1c-0.5,0-0.8,0-1.1,0
			c-0.3,0-0.6,0-0.8,0c-0.1,0-0.3,0-0.3-0.1c0-0.4,0.9-0.2,0.9-1.2V72.7z"/>
		<path id="XMLID_124_" class="st0" d="M120.4,70.8c1.9,0,3.3,1.2,3.3,3.2c0,1.3-0.6,3.7-3.6,3.7c-1.9,0-3.2-1.3-3.2-3.2
			C116.9,72.4,118.2,70.8,120.4,70.8z M120.4,77.3c1.6,0,2.2-1.3,2.2-2.9c0-2.1-1.2-3.2-2.4-3.2c-1.6,0-2.1,1.3-2.1,2.7
			C118.1,75.3,118.7,77.3,120.4,77.3z"/>
		<path id="XMLID_118_" class="st0" d="M129.7,76.2c0,0.6,0,0.9,0.7,0.9c2.4,0,2.2-1.3,2.6-1.3c0,0,0.1,0,0.1,0.2
			c0,0.7-0.6,1.5-1.3,1.5c-1.5,0-2,0-2.5,0c-0.3,0-0.7,0-1.2,0c-0.1,0-0.2,0-0.2-0.1c0-0.4,0.7,0.1,0.7-1.1v-4.5
			c0-0.8-1.1-0.6-1.1-0.9c0-0.1,0.1-0.2,0.3-0.2c0.4,0,0.9,0,1.3,0c0.8,0,0.9,0,1.1,0c0.2,0,0.2,0,0.2,0.1c0,0.4-0.7,0-0.7,0.7
			L129.7,76.2L129.7,76.2z"/>
		<path id="XMLID_113_" class="st0" d="M140.1,70.8c1.9,0,3.3,1.2,3.3,3.2c0,1.3-0.6,3.7-3.6,3.7c-1.9,0-3.2-1.3-3.2-3.2
			C136.6,72.4,137.9,70.8,140.1,70.8z M140.1,77.3c1.6,0,2.2-1.3,2.2-2.9c0-2.1-1.2-3.2-2.4-3.2c-1.6,0-2.1,1.3-2.1,2.7
			C137.8,75.3,138.4,77.3,140.1,77.3z"/>
		<path id="XMLID_111_" class="st0" d="M153.6,73.1c0,0.1-0.1,0.2-0.2,0.2c-0.2,0-0.2-2.1-2.7-2.1c-0.9,0-2.2,0.6-2.2,3
			c0,1.3,0.7,3,2.2,3c1.7,0,1.7-0.8,1.7-1.4c0-1.5-1.1-0.8-1.1-1.2c0-0.3,0.3-0.2,0.5-0.2c0.5,0,0.9,0,1.3,0c0.4,0,0.7,0,1,0
			c0,0,0.1,0,0.1,0.1c0,0.4-0.7-0.1-0.7,1.1c0,0.4,0,0.7,0,0.8c0,0.2,0,0.2-0.1,0.2c-0.9,0.5-2,0.9-3,0.9c-2.8,0-3.2-2.4-3.2-3.2
			c0-1.6,1-3.7,3.4-3.7c1.3,0,2.1,0.6,2.4,0.6c0.2,0,0.2-0.3,0.4-0.3c0.1,0,0.1,0.2,0.1,0.4v1.8H153.6z"/>
		<path id="XMLID_109_" class="st0" d="M158.7,71.7c-0.4-0.7-1-0.4-1-0.8c0-0.1,0.1-0.1,0.3-0.1s0.4,0,0.9,0c0.4,0,0.8,0,1.4,0
			c0.1,0,0.2,0.1,0.2,0.1c0,0.2-0.5,0.1-0.5,0.5c0,0.1,0,0.2,0.1,0.4l0.9,1.8c0.2,0.3,0.2,0.4,0.3,0.4s0.1-0.1,0.2-0.3l0.9-1.6
			c0.2-0.3,0.2-0.5,0.2-0.5c0-0.6-0.9-0.4-0.9-0.7c0-0.1,0.1-0.1,0.2-0.1c0.1,0,0.3,0,0.8,0c0.7,0,0.8,0,1.1,0c0.1,0,0.2,0,0.2,0.1
			c0,0.3-0.4,0.1-1,1.1l-1.3,2.4c-0.1,0.2-0.1,0.3-0.1,0.6v1.4c0,1.2,1.2,0.5,1.2,1c0,0.1-0.1,0.1-0.3,0.1c-0.1,0-0.2,0-1.4,0
			c-0.9,0-1.1,0-1.4,0c-0.2,0-0.3,0-0.3-0.1c0-0.4,1,0.1,1-1.1v-1.2c0-0.3,0-0.4-0.2-0.6L158.7,71.7z"/>
	</g>
</g>
</svg>
