<svg id="emory_university" data-name="emory university" xmlns="http://www.w3.org/2000/svg" viewBox="0 0 344.5 89.37"><defs><style>.cls-1{fill:#fff;}</style></defs><title>EU_hz_280</title><path class="cls-1" d="M138.57,80.24c0,4.38,2.85,6.38,6.54,6.38,5.15,0,6.32-3.4,6.32-6.63V71.12c0-2.78-2.54-1.65-2.54-2.67a0.34,0.34,0,0,1,.27-0.27c1.07,0,2.13.09,3.2,0.09,0.52,0,1-.09,1.51-0.09a0.37,0.37,0,0,1,.35.3c0,0.75-1.62.15-1.62,2.66v8.49c0,1.35.33,8.11-7.63,8.11-7.2,0-8.56-4-8.56-8.25V70.26c0-1.61-2.22-1-2.22-1.82a0.68,0.68,0,0,1,.6-0.27c0.71,0,1.4.09,2.13,0.09s1.75-.09,2.6-0.09c0.14,0,.88-0.06.88,0.27,0,0.75-1.83,0-1.83,2v9.83Z" transform="translate(-7.66 -5)"/><path class="cls-1" d="M164.61,73.58c0-5.71-3.32-4.11-3.32-5.13a0.43,0.43,0,0,1,.41-0.27c0.44,0,.85.09,1.29,0.09s0.85-.09,1.26-0.09a1.33,1.33,0,0,1,.71.63L178,83.37a0.86,0.86,0,0,0,.33.3c0.05,0,.08-0.08.08-0.3V71.91c0-3.6-3-2.55-3-3.46a0.26,0.26,0,0,1,.3-0.27c0.82,0,1.62.09,2.5,0.09s2.1-.09,2.76-0.09a0.24,0.24,0,0,1,.27.24c0,0.71-1.62.21-1.62,2.22V86.52c0,0.8,0,1.18-.25,1.18a1.76,1.76,0,0,1-1-.77l-11.8-13.28a1.53,1.53,0,0,0-.57-0.52c-0.11,0-.19.08-0.19,0.63V85c0,2.47,2.41,1.51,2.41,2.25a0.3,0.3,0,0,1-.3.36c-0.66,0-1.43-.1-2.77-0.1-1,0-2.38.1-2.57,0.1s-0.36-.17-0.36-0.3c0-1,2.41.25,2.41-3.58V73.58Z" transform="translate(-7.66 -5)"/><path class="cls-1" d="M192.35,70.53c0-2-2.22-1.45-2.22-2,0-.25.05-0.3,0.27-0.3,1,0,2,.09,3,0.09,0.84,0,1.7-.09,2.54-0.09,0.45,0,.53.05,0.53,0.27,0,0.66-2,0-2,2.08v14.7c0,1.86,2.44,1.23,2.44,2.05,0,0.2-.08.28-0.54,0.28-0.63,0-1.81-.1-3-0.1-1.67,0-2.25.1-2.63,0.1s-0.58-.14-0.58-0.41c0-.79,2.14.11,2.14-2.6v-14Z" transform="translate(-7.66 -5)"/><path class="cls-1" d="M205.53,70.3c-0.69-1.65-2.11-1.12-2.11-1.73a0.35,0.35,0,0,1,.38-0.39c0.85,0,1.7.09,2.52,0.09s1.78-.09,2.16-0.09a0.37,0.37,0,0,1,.38.28c0,0.39-1.12.42-1.12,1.4a3,3,0,0,0,.25,1.07l4.8,11.29c0.6,1.45.8,2.08,1.1,2.08a1,1,0,0,0,.49-0.77l4.77-11.76a4,4,0,0,0,.38-1.87c0-1.26-1.75-.74-1.75-1.38a0.33,0.33,0,0,1,.41-0.36c0.6,0,1.2.09,1.8,0.09,1.32,0,1.73-.09,2.11-0.09s0.47,0.11.47,0.36c0,0.61-.77-0.08-1.54,1.76l-6.82,16.15c-0.3.68-.5,1.59-0.91,1.59s-0.77-1.15-1-1.72Z" transform="translate(-7.66 -5)"/><path class="cls-1" d="M255.07,70.08c0-1.07.58-1,1.57-1,2.69,0,5.25,1.13,5.25,4.46a3.58,3.58,0,0,1-3.82,3.89c-1.29,0-3,.13-3-0.38v-7Zm5.41,7.56a5.3,5.3,0,0,0,3.46-4.74c0-5.28-6.06-4.72-6.5-4.72-1.43,0-3,.09-4.58.09-1.4,0-1.26-.09-1.75-0.09a0.47,0.47,0,0,0-.55.32c0,0.93,2.36-.19,2.36,2.43V84.87c0,2.08-2,1.7-2,2.38a0.28,0.28,0,0,0,.27.3c1,0,2.09-.09,3.13-0.09,2.27,0,2.9.09,3.15,0.09s0.46,0.05.46-.22c0-.94-2.86-0.09-2.86-2.45V79.13c0-.28-0.16-0.77.72-0.77,3.08,0,2.66-.09,3.65,1.45l3,4.79c1,1.56,2.11,3,4.11,3,0.24,0,1.78,0,1.78-.33,0-.66-1.34.36-3.31-2.66Z" transform="translate(-7.66 -5)"/><path class="cls-1" d="M273.68,82.69c-0.1-.55,0-0.85.3-0.85s0.39,0.33.54,0.91a5.85,5.85,0,0,0,5.75,4.11c2.63,0,5.19-1.46,5.19-4.33,0-5.28-11.17-2.32-11.17-9.47,0-3.48,2.93-5.16,6.1-5.16a9.76,9.76,0,0,1,4.63,1c0.25,0,.3-0.3.58-0.3a0.34,0.34,0,0,1,.33.39l0.4,3.72c0,0.22,0,.41-0.3.41a1.09,1.09,0,0,1-.57-0.82,5.28,5.28,0,0,0-5.27-3.56c-2.18,0-4.49,1-4.49,3.56,0,5.15,11.17,2.14,11.17,9.7,0,2.3-1.6,5.75-7.86,5.75-2,0-4.54-1-4.64-1.52Z" transform="translate(-7.66 -5)"/><path class="cls-1" d="M297.33,70.53c0-2-2.22-1.45-2.22-2,0-.25.06-0.3,0.28-0.3,1,0,2,.09,3,0.09,0.85,0,1.7-.09,2.54-0.09,0.44,0,.53.05,0.53,0.27,0,0.66-2,0-2,2.08v14.7c0,1.86,2.44,1.23,2.44,2.05,0,0.2-.08.28-0.55,0.28-0.63,0-1.81-.1-3-0.1-1.67,0-2.25.1-2.62,0.1s-0.58-.14-0.58-0.41c0-.79,2.14.11,2.14-2.6v-14Z" transform="translate(-7.66 -5)"/><path class="cls-1" d="M316.22,70.94c0-.2.11-1.23-0.27-1.26h-4.47c-1.7,0-1.76.41-2.26,1.92-0.09.27-.1,0.63-0.46,0.63a0.33,0.33,0,0,1-.28-0.33l0.31-2.65c0-.33,0-1.06.49-1.06,2.14,0,4.26.09,7.79,0.09,5,0,7.48-.09,8-0.09s0.78,0.16.81,0.79L326,71.15c0,0.27.06,0.61-.31,0.61-1,0,.47-2.08-2.33-2.08h-3.93c-1.23,0-1.09-.11-1.09,1.34V85c0,2.3,2.22,1.4,2.22,2.25a0.26,0.26,0,0,1-.25.33c-0.66,0-1.42-.1-2.22-0.1-3.07,0-3.58.1-3.75,0.1s-0.33-.08-0.33-0.36c0-.66,2.17-0.38,2.17-2V70.94Z" transform="translate(-7.66 -5)"/><path class="cls-1" d="M333.2,69.9c-0.71-1.18-2.06-.85-2.06-1.31a0.42,0.42,0,0,1,.36-0.41c0.74,0,1.26.09,3.12,0.09,0.91,0,1.64-.09,1.92-0.09s0.52,0,.52.28c0,0.46-1.28.49-1.28,1.29a2.22,2.22,0,0,0,.48,1.12l3.32,5.29a0.85,0.85,0,0,0,.54.49,1,1,0,0,0,.52-0.55l2.82-4.57A2.58,2.58,0,0,0,344,70c0-1.34-2.05-.77-2.05-1.42,0-.36.27-0.41,0.58-0.41,0.65,0,1.34.09,2,.09s1.59-.09,2.38-0.09a0.34,0.34,0,0,1,.3.32,0.92,0.92,0,0,1-.65.53,5.17,5.17,0,0,0-1.54,1.89l-3.83,6a2.39,2.39,0,0,0-.66,1.23v6.71c0,2.38,2.25,1.61,2.25,2.46,0,0.25-.24.28-0.63,0.28s-2-.1-3-0.1c-1.23,0-2.22.1-2.47,0.1s-0.41,0-.41-0.33c0-.76,2.12-0.05,2.12-2V78.6a2.79,2.79,0,0,0-.63-1.39Z" transform="translate(-7.66 -5)"/><path class="cls-1" d="M233.24,76c0,0.94-.05.94,1,0.94h3c2.84,0,2.11-2.2,2.76-2.2a0.46,0.46,0,0,1,.29.52c0,1-.05,1.89-0.05,2.78,0,0.71.05,1.42,0.05,2.15a0.29,0.29,0,0,1-.29.36c-0.84,0,.08-2.41-2.21-2.41h-4c-0.58,0-.5.46-0.5,0.87v5c0,1.61-.22,2.27,2.08,2.27,6.3,0,7.23-2.82,7.59-2.82a0.32,0.32,0,0,1,.22.34,4.3,4.3,0,0,1-1.38,2.64c-0.87,1-1.47.92-2.67,0.92-2.08,0-4.15-.15-6.23-0.1-1.09,0-2.24.1-3.34,0.1-0.24,0-.41-0.05-0.41-0.27s0.33-.27,1.2-0.7c0.71-.33.77-1.1,0.77-2.37V71.55c0-1.24,0-2.56-1.48-2.79-0.22-.05-0.82-0.11-0.82-0.41s0.17-.33,1-0.33c5.16,0,6.59.08,7.74,0.08,0.55,0,3.05-.08,3.9-0.08,0.22,0,.28.28,0.28,0.61,0,3-.39,3.27-0.55,3.27-0.66,0-.21-1.32-0.66-1.94-0.7-.94-3.54-0.77-4.63-0.77-2.63,0-2.57-.11-2.57,1.73V76Z" transform="translate(-7.66 -5)"/><path class="cls-1" d="M248.81,10.19c12.89,0,21,11.69,21,23.71,0,12.22-7.73,19.94-17.39,19.94-13.08,0-21.08-11.82-21.08-24C231.36,19.37,237.71,10.19,248.81,10.19Zm0.86,45.66c14.73,0,25-9.59,25-24.45C274.62,17.72,264.26,8,250.79,8s-24.23,10-24.23,23.73C226.56,45.66,235.32,55.85,249.67,55.85Z" transform="translate(-7.66 -5)"/><path class="cls-1" d="M288,13.15c0-2.5,1.34-2.37,3.66-2.37,6.3,0,12.26,2.63,12.26,10.46s-6.16,9.11-8.93,9.11c-3,0-7,.31-7-0.9V13.15Zm12.65,17.7c4.51-1.78,8.11-6.09,8.11-11.09,0-12.39-14.21-11.11-15.23-11.11-3.35,0-7,.26-10.68.26a35.48,35.48,0,0,1-4.11-.26,1.1,1.1,0,0,0-1.27.77c0,2.18,5.51-.45,5.51,5.71V47.78c0,4.88-4.69,4-4.69,5.59a0.67,0.67,0,0,0,.64.71c2.44,0,4.86-.26,7.29-0.26,5.32,0,6.79.26,7.38,0.26s1.09,0.13,1.09-.51c0-2.19-6.67-.19-6.67-5.72V34.28c0-.64-0.39-1.8,1.66-1.8,7.2,0,6.24-.19,8.55,3.4l7.13,11.25c2.45,3.66,4.94,6.94,9.62,6.94,0.58,0,5.66,0,5.66-.77,0-1.55-4.64.84-9.25-6.24Z" transform="translate(-7.66 -5)"/><path class="cls-1" d="M319.34,12.69c-1.67-2.76-4.81-2-4.81-3.08a1,1,0,0,1,.84-1c1.73,0,2.94.28,7.3,0.28,2.11,0,3.85-.28,4.49-0.28,0.45,0,1.21.07,1.21,0.64,0,1.09-3,1.15-3,3a5.23,5.23,0,0,0,1.15,2.63l7.73,12.39a2,2,0,0,0,1.28,1.16c0.31,0,.7-0.45,1.2-1.28l6.6-10.72a6,6,0,0,0,1.35-3.53c0-3.14-4.8-1.8-4.8-3.33,0-.84.63-1,1.34-1,1.53,0,3.14.28,4.67,0.28,1.86,0,3.71-.28,5.57-0.28a0.83,0.83,0,0,1,.71.77c0,0.71-1.08,1-1.54,1.22-1.72,1-2.56,2.82-3.59,4.43l-9,14c-1,1.6-1.54,1.93-1.54,2.89V47.67c0,5.58,5.26,3.78,5.26,5.78,0,0.58-.58.64-1.47,0.64s-4.69-.28-7-0.28c-2.87,0-5.18.28-5.75,0.28s-1-.06-1-0.77c0-1.8,4.93-.13,4.93-4.69V33.1A6.71,6.71,0,0,0,330,29.83Z" transform="translate(-7.66 -5)"/><path class="cls-1" d="M219.25,48.15c0.32,5.38,5.06,3,5.06,5.25,0,0.64-.84.64-1.54,0.64-1.22,0-3.46-.29-6-0.29-2,0-4,.29-5.55.29a0.58,0.58,0,0,1-.71-0.58c0-1.92,4-.51,4-5.25l-1.74-24.85c0-1.6-.32-2.5-0.71-2.5s-1,.58-1.68,1.92l-13.27,27c-0.32.57-1.35,3.2-2,3.2s-1.09-1.41-1.29-1.86L180.15,22.59a0.65,0.65,0,1,0-1.21.26l-1.87,22.49c-0.33,8.52,5.75,5.7,5.75,8,0,0.64-.7.71-1.61,0.71s-3.71-.29-5.6-0.29c-3.33,0-4.42.29-5.66,0.29a0.65,0.65,0,0,1-.64-0.77c0-2.18,4.09.45,4.54-6.22,0.78-10.47,1.54-17.27,1.54-24.07,0-15.08-5-11.49-5-13.67,0-.57.5-0.71,1.09-0.71,1.15,0,2.3.28,3.53,0.28s2.29-.28,3.42-0.28c0.9,0,1,1.09,1.35,1.8L195.12,43c0.72,1.35,1,1.92,1.42,1.92s1-1.35,2-3.47l15.3-30.68c0.37-.7.89-2.24,1.65-2.18s2.68,0.28,3,.28c1.48,0,2.05-.28,3.08-0.28a0.72,0.72,0,0,1,.64.77c0,2.05-5.13-.7-4.87,6.93Z" transform="translate(-7.66 -5)"/><path class="cls-1" d="M141.32,27.36c0,2.18-.12,2.18,2.43,2.18h6.91c6.64,0,4.93-5.14,6.45-5.14a1.06,1.06,0,0,1,.7,1.22c0,2.25-.08,4.43-0.08,6.46,0,1.67.08,3.34,0.08,5.07a0.68,0.68,0,0,1-.7.83c-2,0,.19-5.65-5.16-5.65h-9.47c-1.35,0-1.15,1.1-1.15,2.06V46.21c0,3.79-.51,5.33,4.86,5.33,14.76,0,16.93-6.61,17.76-6.61,0.44,0,.51.64,0.51,0.77,0,2.31-1.66,4.56-3.19,6.23-2.05,2.33-3.46,2.21-6.26,2.21-4.86,0-9.72-.39-14.58-0.27-2.55.07-5.24,0.27-7.79,0.27-0.58,0-1-.14-1-0.65,0.12-.78.77-0.65,2.82-1.69,1.66-.77,1.79-2.57,1.79-5.58V17c0-2.89,0-6-3.46-6.49-0.51-.13-1.92-0.25-1.92-1,0-.51.38-0.77,2.24-0.77,12.07,0,15.4.27,18.09,0.27,1.28,0,7.14-.27,9.13-0.27,0.51,0,.63.64,0.63,1.41,0,7.13-.89,7.64-1.28,7.64-1.54,0-.52-3.08-1.54-4.56-1.65-2.18-8.29-1.8-10.85-1.8-6.14,0-6-.26-6,4V27.36Z" transform="translate(-7.66 -5)"/><path class="cls-1" d="M48,91.63C6,72.15,11,28.67,11,8.34l74.5,0.07C85.5,28.74,90.18,72.24,48,91.63ZM11,5L7.8,8.37c0,2.43-.09,5.49-0.11,7-0.31,23.88,1.31,61,40.17,79C68.43,84.84,84,68.47,88.07,43.08,90.45,28.38,89,14.42,89,5Z" transform="translate(-7.66 -5)"/><path class="cls-1" d="M32.13,58.38l-6.92,7.41a0.47,0.47,0,0,0-.11.65,2.34,2.34,0,0,0,.6.54,0.51,0.51,0,0,0,.64-0.22c0.13-.15,3.41-3.31,7.29-7a4,4,0,0,1-.73-0.5A8.06,8.06,0,0,1,32.13,58.38Z" transform="translate(-7.66 -5)"/><path class="cls-1" d="M34.13,57.53a12.22,12.22,0,0,0,2,1.45l-0.68.66c-0.26.28-1.22-.16-2.15-1s-1.47-1.74-1.21-2l0.76-.69A9.2,9.2,0,0,0,34.13,57.53Z" transform="translate(-7.66 -5)"/><path class="cls-1" d="M68.17,65.74a2,2,0,0,0,.64-1.19l0.68,0.33a1.56,1.56,0,0,1-.6,1.61,1.68,1.68,0,0,1-1.68.61l-0.36-.73A2,2,0,0,0,68.17,65.74Z" transform="translate(-7.66 -5)"/><path class="cls-1" d="M67.14,64.65a2,2,0,0,0,.54-0.85l0.44,0.3a1,1,0,0,1-.44,1.09,1.21,1.21,0,0,1-1.22.45l-0.26-.48A2.61,2.61,0,0,0,67.14,64.65Z" transform="translate(-7.66 -5)"/><path class="cls-1" d="M69.22,30.64l-0.79.7c-1.08.42-3.55-1.47-5.48-3.16-1.3-1.14-3.9-4-3.16-5.16l0.33-.33-0.59-.34a1.4,1.4,0,0,0-.83-0.15,0.56,0.56,0,0,0-.58.42,4.22,4.22,0,0,0,.66,2,20.87,20.87,0,0,0,5.28,5.76,15.81,15.81,0,0,0,4.42,2.37,1.52,1.52,0,0,0,1.33-.09c0.34-.34,0-0.94-0.3-1.51A3.23,3.23,0,0,0,69.22,30.64Z" transform="translate(-7.66 -5)"/><path class="cls-1" d="M67.64,23.13" transform="translate(-7.66 -5)"/><path class="cls-1" d="M66,22.41" transform="translate(-7.66 -5)"/><path class="cls-1" d="M35.43,18.5c0,0.24,0,.51,0,0.79,0,0.79.72,7.33,4.5,12C43.18,35.4,53,47.13,54.59,49S65.71,62,66.92,63.46L67,63.61a1.42,1.42,0,0,1-.42.54,1.31,1.31,0,0,1-.63.27s-0.25-.25-0.29-0.3c-0.35-.41-17-17.08-18.65-18.66S36.85,35.58,33.3,33.31c-3.07-2-4.46-3.06-7.83-3.34a20.78,20.78,0,0,1-2.56-.2A0.13,0.13,0,0,1,23,29.61a27.69,27.69,0,0,0,7.28-4.92,21.94,21.94,0,0,0,4.91-6.16C35.22,18.44,35.43,18.42,35.43,18.5Zm2.35,14.13c-3.46-3.44-4.78-4.24-6.34-4.91a4.3,4.3,0,0,0-1.86-.52,8.27,8.27,0,0,0-2.33,1.26c-0.46.41-.41,0.6-0.17,0.73a23.75,23.75,0,0,1,3.61,1.38c2.81,1.5,8.08,5.17,19.57,17,5.84,6,15,15.38,15,15.38l0.23-.19s-13.37-15-23.8-26.08C40.25,35.13,38.94,33.78,37.78,32.62Z" transform="translate(-7.66 -5)"/><path class="cls-1" d="M68.94,30.51" transform="translate(-7.66 -5)"/><path class="cls-1" d="M27.49,25.5a20.43,20.43,0,0,1-5.11,3.14c-1.06.43-2.56-.05-1.48-2.1a16.65,16.65,0,0,1,1.43-2.24,31.07,31.07,0,0,1,9.08-7.83,6.45,6.45,0,0,1,2.48-.92c0.86,0.05.91,0.78,0.75,1.46C34.28,18.53,31.77,21.91,27.49,25.5Zm1.06-2a42.76,42.76,0,0,0,2.94-3.12,15.55,15.55,0,0,0,1.88-2.75A1.68,1.68,0,0,0,33.53,17a0.66,0.66,0,0,0-.34-0.38,13.63,13.63,0,0,0-4.46,2.48,3.85,3.85,0,0,0-.58,1.2c-0.12.38,0.88,1.44,0.22,3.06C28.29,23.58,28.5,23.6,28.55,23.55Z" transform="translate(-7.66 -5)"/><path class="cls-1" d="M35.4,18.93" transform="translate(-7.66 -5)"/><path class="cls-1" d="M46.79,46.41L35.26,57.47a7.78,7.78,0,0,0,.61.49s9.95-9.56,10.69-10.25c0.2-.19.64-0.59,0.8-0.73Z" transform="translate(-7.66 -5)"/><path class="cls-1" d="M67.22,33.6l0.46,0a1.19,1.19,0,0,0,.41-0.08c0.09-.07.15-0.17,0-0.18a7.34,7.34,0,0,1-2.48-.77,18.9,18.9,0,0,0-2.92,1c-1.56.7-5,2.75-12,9.17l0.55,0.64a83.61,83.61,0,0,1,7.44-6.21,23,23,0,0,1,6.91-3.32A12.22,12.22,0,0,1,67.22,33.6Z" transform="translate(-7.66 -5)"/><path class="cls-1" d="M60.4,28.5A10.55,10.55,0,0,1,57.55,24l0-.1a0.07,0.07,0,0,0-.11,0,0.82,0.82,0,0,0,0,.13c-0.17,2.07,0,2.94-.85,5a23.36,23.36,0,0,1-3.77,6.06c-1,1.19-2.75,3.14-4.34,5l1.12,1.32c0.11-.13.46-0.5,0.87-0.93A85.92,85.92,0,0,1,62.06,30.05,21.26,21.26,0,0,1,60.4,28.5Z" transform="translate(-7.66 -5)"/><path class="cls-1" d="M44.56,44.37c-2.26,2.55-4.52,5.05-5.18,5.78s-5.49,5.92-5.49,5.92a2.22,2.22,0,0,0,.27.38c0.15,0.17.41,0.4,0.41,0.4S44.92,46.25,45.71,45.44Z" transform="translate(-7.66 -5)"/><path class="cls-1" d="M62.28,21.49c0-.08,0-0.15,0-0.23a1.16,1.16,0,0,0-1.17.11c-0.68.73,0.82,3.22,3.35,5.57s5.13,3.65,5.81,2.92a1.55,1.55,0,0,0-.17-1.61C66.44,28.67,62.28,23.84,62.28,21.49Z" transform="translate(-7.66 -5)"/><path class="cls-1" d="M73.68,22.43c-0.36.41-1,1.37-1.33,1.69,0.4-.35.62-1.2,0.19-3.43a12.19,12.19,0,0,0-.7-2.6c-0.12-.29-0.29-0.22-0.5,0a8.54,8.54,0,0,0-.68,1.08c0,0.19,0,0-.73-2.25A10.36,10.36,0,0,1,69.29,14c0-.27,0-0.55,0-0.75s-0.09-.18-0.55,0a7.88,7.88,0,0,0-3,3.48c-0.46,1.17-.5,2.14-0.57,1.55-0.14-1.15-.12-1.14-0.23-1.1a4.3,4.3,0,0,0-2.89,4.26c0,2.58,4.85,8,8.79,6.81,0,0,3-.57,3-3.26S73.68,22.43,73.68,22.43Zm-1,3.34a3.58,3.58,0,0,1-1.55,1.35,4.71,4.71,0,0,1-2.83.27,9.45,9.45,0,0,1-4.65-3.86c-2.29-3.71.78-5.29,1-5.34a5,5,0,0,0-.12,2,12.13,12.13,0,0,0,.75,1.72A1.71,1.71,0,0,1,65,23.6c-0.1.14,0.17,0.06,0.23,0a2.09,2.09,0,0,1,.18-0.15,1.4,1.4,0,0,0,.69-1.32C65.87,21,65,20.29,66,17.93A9.93,9.93,0,0,1,68.13,15c0.22-.15.36-0.33,0.37-0.18s0.25,1.22.38,1.91a10.31,10.31,0,0,1,.75,4c-0.17,1.94-3.35,4.07-3.79,4.21a1.75,1.75,0,0,0-.42.23c-0.11.11,0.05,0.13,0.13,0.15a6.21,6.21,0,0,0,2.6-1,7.64,7.64,0,0,0,2.07-2.15,12.67,12.67,0,0,0,.88-2.63c0.09-.22.18-0.21,0.21-0.09s0.25,1,.34,1.4a8.68,8.68,0,0,1,.19,1.65A3.09,3.09,0,0,1,69,25.82l-0.2,0c-0.08,0-.16,0,0,0.13L69,26.07a2.7,2.7,0,0,0,2.16-.21,7.3,7.3,0,0,0,1.25-1,1.06,1.06,0,0,1,.51-0.44A2.27,2.27,0,0,1,72.7,25.77Z" transform="translate(-7.66 -5)"/></svg>