<?xml version="1.0" encoding="utf-8"?>
<!-- Generator: Adobe Illustrator 19.2.1, SVG Export Plug-In . SVG Version: 6.00 Build 0)  -->
<svg version="1.1" id="Capa_1" xmlns="http://www.w3.org/2000/svg" xmlns:xlink="http://www.w3.org/1999/xlink" x="0px" y="0px"
	 viewBox="0 0 438.5 438.5" style="enable-background:new 0 0 438.5 438.5;" xml:space="preserve">
<style type="text/css">
	.st0{opacity:0.95;}
	.st1{fill:#4F3205;}
</style>
<g class="st0">
	<path class="st1" d="M322.6,42.8C294.1,14.3,259.6,0,219.3,0c-40.4,0-74.8,14.3-103.4,42.8c-28.5,28.5-42.8,63-42.8,103.4
		c0,20.7,3.1,37.8,9.4,51.1l104.2,221c2.9,6.3,7.3,11.2,13.3,14.8c6,3.6,12.4,5.4,19.3,5.4c6.9,0,13.3-1.8,19.3-5.4
		c6-3.6,10.5-8.6,13.6-14.8l103.9-221c6.3-13.3,9.4-30.4,9.4-51.1C365.4,105.8,351.2,71.4,322.6,42.8z M270.9,197.9
		c-14.3,14.3-31.5,21.4-51.7,21.4s-37.4-7.1-51.7-21.4c-14.3-14.3-21.4-31.5-21.4-51.7c0-20.2,7.1-37.4,21.4-51.7
		c14.3-14.3,31.5-21.4,51.7-21.4c20.2,0,37.4,7.1,51.7,21.4c14.3,14.3,21.4,31.5,21.4,51.7S285.2,183.6,270.9,197.9z"/>
</g>
</svg>
