<?xml version="1.0" encoding="utf-8"?>
<!-- Generator: Adobe Illustrator 19.2.1, SVG Export Plug-In . SVG Version: 6.00 Build 0)  -->
<svg version="1.1" id="Layer_1" xmlns="http://www.w3.org/2000/svg" xmlns:xlink="http://www.w3.org/1999/xlink" x="0px" y="0px"
	 viewBox="0 0 179.9 73.9" style="enable-background:new 0 0 179.9 73.9;" xml:space="preserve">
<style type="text/css">
	.st0{fill-rule:evenodd;clip-rule:evenodd;fill:#FFFFFF;}
	.st1{fill:#FFFFFF;}
</style>
<g>
	<path class="st0" d="M59.5,37.9c0-0.2-0.1-0.4-0.1-0.6l0,0l0,0c-0.2-0.5-0.5-0.6-0.7-0.5c-0.3,0.1-0.6,0.6-0.8,1l-0.1,0
		c0,0,0-0.1,0-0.1h0c0,0,0,0.1,0,0.1c0,0.1-0.1,0.2-0.2,0.2c-0.1,0.1-0.2,0.1-0.3,0.2c0,0,0,0-0.1,0c0.1-1,0.1-2.7,0.1-5
		c0-0.9,0-1.8,0-2.8c0-1.3-0.1-2.6-0.3-4c-0.2-1.5-0.5-3-0.8-4.4l0,0C53.9,12.9,48,6.9,41,3.9c-4.1-1.7-8.5-2.4-12.9-2
		c-4.4,0.4-8.6,1.8-12.3,4.3C9.4,10.5,4.6,17.8,3.9,28.3c-0.2,2.6,0.1,5.4,0.1,8.1v0c0,0.5,0.1,1.1,0.1,1.6l-0.2,0
		c0-0.1-0.1-0.1-0.1-0.2c-0.2-0.3-0.3-0.5-0.7-0.6c-0.4-0.1-0.6,0-0.7,0.1c0,0,0,0,0,0l-0.1,0l0,0.1c0,0,0,0-0.1,0
		c-0.1,0.1-0.2,0.3-0.3,0.3h0c-0.1,0-0.2,0.1-0.2,0.2c0,0.1-0.1,0.1-0.1,0.2c0,0.1,0,0.1,0,0.2c-0.1,0.1-0.2,0.2-0.2,0.5
		c0,0.1,0,0.1,0.1,0.1c0,0.1-0.1,0.2-0.1,0.3c0,0.2,0.1,0.3,0.2,0.4c0.1,0.1,0.3,0.1,0.4,0.1c0.2,0,0.5,0,0.7,0
		c0.1,0.1,0.1,0.2,0.2,0.4c0,0.1,0.1,0.3,0.2,0.4c0,0.1,0.1,0.2,0.2,0.3c0.1,0.2,0.3,0.5,0.4,0.7c-0.2-0.2-0.4-0.3-0.7-0.2l0,0l0,0
		c-0.4,0.3-0.1,0.7,0.1,1.1c0,0.1,0.1,0.1,0.1,0.2c0,0,0,0.1,0.1,0.2C2.9,42.9,3,43,3,43.1c-0.1,0.1-0.2,0.1-0.3,0.2
		c-0.1,0.1-0.1,0.2-0.1,0.3c0,0.1,0.1,0.2,0.1,0.3c0.1,0.2,0.4,0.4,0.6,0.4c0.1,0.2,1,2.7,1.4,3.9C4.9,48.6,5,48.8,5,48.9
		c0.1,0.2,0.1,0.3,0.2,0.5c0.1,0.3,0.3,0.6,0.3,1c-0.4-0.2-0.8-0.3-1.1-0.3c-0.1,0-0.3,0-0.3-0.1c-0.6-0.4-1.2-0.4-1.5-0.1
		c-0.1,0.1-0.3,0.2-0.3,0.3c-0.1,0.1-0.1,0.3-0.1,0.4c0,0.2,0.1,0.3,0.2,0.4c0,0.1,0,0.2,0.1,0.3c-0.2,0.4-0.1,0.6,0,0.8
		c0.1,0.1,0.1,0.1,0.2,0.3c0.1,0.5,0.2,0.5,0.4,0.5h0c0,0,0,0.1,0,0.1l0,0.1l0,0c0.2,0,0.3-0.1,0.3-0.1c0,0,0,0,0.1,0l0.1,0
		c0.1,0,0.1-0.1,0.1-0.1c0,0,0,0,0,0c0,0,0,0,0,0c0,0,0,0.1,0,0.1c0,0.2,0.1,0.3,0.9,0.2l0.1,0c0.3,0,0.5,0,0.6,0.2c0,0-0.1,0-0.1,0
		c-0.2,0-0.4,0.1-0.5,0.2c-0.2,0.2-0.2,0.3,0,0.5c0.1,0.1,0.3,0.2,0.6,0.3c-0.1,0-0.2,0-0.2,0c-0.1,0-0.2,0.1-0.3,0.2
		c-0.1,0.1-0.1,0.2-0.1,0.3c0,0.2,0.1,0.4,0.4,0.7l0,0l0,0c-0.1,0-0.1,0-0.2,0c-0.3,0-0.5,0.1-0.8,0.2l0,0c-0.5,0.3-1,0.5-1,1.2
		c0,0.2,0.1,0.5,0.3,0.6c0.2,0.2,0.5,0.4,0.7,0.4c0.2,0,0.3,0.1,0.4,0.1c0.1,0,0.1,0.1,0.2,0.1h0c0.1,0,0.2,0,0.5-0.2l0.1,0
		c0.1,0,0.2-0.1,0.2-0.1c0,0,0.1,0,0.1,0c0.2,0.1,1,0.7,1.6,0.5c0.1,0,0.3-0.1,0.3-0.1c0.1-0.1,0.3-0.1,0.6-0.1c0.7,0,1.4,0.5,2,1
		c0.1,0.1,0.2,0.1,0.3,0.2c0,0-0.1,0-0.1,0.1c-0.1,0.1-0.3,0.2-0.3,0.2h0c-0.6,0-0.8,0.3-0.9,0.5c0,0.1-0.1,0.1-0.1,0.1
		c0,0,0,0-0.1,0c0,0,0,0-0.1,0c-0.2,0.1-0.2,0.2-0.3,0.3c-0.1,0.1-0.1,0.2-0.1,0.3c0,0,0,0,0,0c0,0-0.1,0.1-0.2,0.2
		c0,0.1,0,0.1,0,0.2c0,0.1,0,0.1,0,0.2c0,0.1,0,0.3,0.1,0.4c0,0,0.1,0.1,0.2,0.1c0,0,0,0,0.1,0.1c-0.1,0.2-0.3,0.3-0.4,0.5
		c-0.1,0.1-0.1,0.1-0.2,0.2l-0.1,0.1l0.2,0.1c0.1,0.1,0.1,0,0.2,0c0.1,0,0.2,0,0.3,0h0c0.1,0,0.2,0.1,0.4,0c0,0,0.1,0,0.1,0
		c0,0.1,0,0.1,0,0.2c0,0,0,0.1,0,0.1c0.1,0.1,0.2,0.2,0.3,0.2c0.1,0,0.3,0.1,0.4,0c0.1,0,0.1,0,0.2-0.1l0,0c0.1-0.1,0.2-0.2,0.3-0.2
		c0,0.2,0.1,0.4,0.4,0.6c0.3,0.2,0.7,0.4,1.1,0.5c0.1,0,0.2,0.1,0.3,0.1c0.3,0.2,0.6,0.3,1.4-0.2c0.1-0.1,0.3-0.2,0.4-0.2
		c0.2,0,0.3-0.1,0.6-0.1c0.5,0,0.5,0,0.6,0.1c0.1,0,0.2,0.1,0.3,0.2c0.2,0.1,0.5,0.1,0.7,0.1c0.5,0,1.1,0,2.4,0.8
		c0.1,0.1,0.1,0.1,0.2,0.1c-0.9,0.5-0.8,0.9-0.7,1.4c0,0.2,0.1,0.4,0,0.5c0,0,0,0-0.1,0c-0.1,0.1-0.3,0.3-0.3,0.4
		c0,0.1,0,0.2,0.1,0.2l0,0c0,0,0,0.1,0,0.1l0,0l0,0.1c0.1,0.2,0.2,0.3,0.4,0.3h0h0c0.6,0,0.8,0,0.9,0.2c0.1,0.1,0.2,0.2,0.4,0.2
		c0.4,0.1,0.7,0,1-0.1c0.2-0.1,0.4-0.2,0.6-0.1c0.1,0,0.2,0.1,0.3,0.1c0.4,0.2,0.7,0.4,1.2,0.4h0h0c0.4,0,0.7,0,0.8-0.2
		c0.2-0.2,0.2-0.5,0.3-0.5H24l0.1,0.5l0,0.1l0.1,0l1.3,0.1c0,0.1,0,0.1,0,0.1c0,0.3,0,0.3,1.3,0.4l0.3,1.2l0,0l0,0l0,0
		c0,0.1,0,0.1,0.1,0.1c0,0,0.1,0,0.1,0v0l0.1,0.1l0,0.1h0c0.4,0,0.6,0.1,0.8,0.2c0.1,0.1,0.3,0.2,0.5,0.2c0.3,0.1,1,0.1,1.5,0.1
		c0.1,0,0.3,0,0.4,0c0.1,0,0.2,0,0.3,0c0.5,0,1,0,1.4-0.2c0.1-0.1,0.2,0,0.3-0.1c0.3-0.2,0.5-0.2,0.9-0.2h0l0-0.1l0.1-0.1
		c0.3-0.1,0.4-0.1,0.4-0.5l0,0l0,0c0-0.1,0-0.4,0-0.6c0-0.2,0.1-0.4,0.1-0.5c0.1-0.1,0.3-0.2,0.4-0.2c0.1,0,0.3,0,0.4-0.1
		c0.1,0,0.1-0.1,0.2-0.1c0.1-0.1,0.2-0.2,0.9-0.2c0.4,0,0.6,0.1,0.9,0.1c0.1,0,0.1,0,0.3,0.1l0.1,0l0.1,0c0.1-0.1,0.2-0.2,0.2-0.2
		c0,0,0-0.1,0.1-0.1c0,0,0.1,0,0.1-0.1c0.1,0,0.1-0.1,0.1-0.1c0,0,0-0.1,0.1-0.1c0.2,0.1,0.5,0.2,0.8,0.3c0.2,0,0.4,0.1,0.5,0
		c0.2,0,0.3-0.1,0.3-0.2c0.2,0.2,0.4,0.3,0.6,0.3c0.2,0,0.3,0,0.4,0c0.1,0,0.2-0.1,0.3-0.2c0-0.1,0.1-0.1,0.1-0.2
		c0.1,0,0.2-0.1,0.4-0.3c0.2,0,0.3,0.1,0.4,0.1c0.4,0.2,0.7,0.3,1-0.4c0-0.1,0-0.2,0-0.3c0,0-0.1,0-0.1,0l0,0c0,0,0,0,0,0
		c0.2-0.1,0.3-0.3,0.3-0.5c0-0.2,0-0.3-0.1-0.5c-0.2-0.4-0.4-0.5-0.6-0.7c-0.1-0.1-0.1-0.1-0.2-0.1c1-0.7,1.8-1.1,2.6-1.2
		c0.8-0.2,1.7-0.2,2.9-0.1c0.1,0,0.2,0,0.3-0.1c0,0,0,0,0,0c0,0,0.1,0,0.1,0c0.1,0.1,0.2,0.1,0.4,0.2c0.2,0,0.4,0,0.6-0.1
		c0.2-0.1,0.3-0.2,0.4-0.4c0.1,0,0.4,0,0.6-0.2c0.3-0.2,0.4-0.6,0.5-0.8c0.1,0,0.2,0,0.3-0.1c0.2,0,0.4-0.1,0.6-0.2
		c0.1,0,0.1-0.1,0.2-0.1c0.2-0.1,0.5-0.1,0.6-0.4c0.1-0.1,0-0.3,0-0.4c0,0,0,0,0,0l0,0l0,0l0,0c-0.1-0.2-0.1-0.4-0.3-0.5
		c0.1-0.1,0.1-0.1,0.1-0.2c0-0.2,0-0.4-0.2-0.5c-0.1,0-0.1-0.1-0.2-0.1c0-0.1-0.1-0.2-0.1-0.3c-0.1-0.1-0.2-0.2-0.3-0.3
		c0-0.1-0.1-0.2-0.2-0.2c0-0.1-0.1-0.1,0-0.3c0.1-0.2,0.4-0.4,0.8-0.6c0.5-0.3,1.1-0.5,1.5-0.5c0.4-0.1,0.8,0,1.1,0
		c0.3,0.1,0.6,0.1,1,0c0.3-0.1,0.4-0.2,0.5-0.4c0.1-0.1,0.1-0.3,0.8-0.4c0,0,0.1,0.1,0.2,0.1c0.1,0,0.2,0,0.2,0
		c0.3-0.1,0.5-0.3,0.4-0.9c0-0.1-0.1-0.3-0.2-0.3c-0.1-0.1-0.1-0.1-0.2-0.1c0-0.2-0.1-0.5-0.3-0.8c-0.2-0.3-0.5-0.6-0.7-0.7
		c0,0,0,0-0.1,0l0,0c-0.3-0.1-0.6-0.1-1-0.1c-0.2,0-0.4,0.1-0.7,0.1c0.2-0.2,0.5-0.4,0.9-0.7l0,0l0,0c0.1-0.1,0.2-0.1,0.3-0.1
		c0.1,0,0.1-0.1,0.2-0.1c0.5-0.3,0.8-0.5,0.9-0.7c0.1-0.1,0.2-0.2,0.4-0.3c0.5-0.1,0.5-0.2,0.6-0.4c0-0.1,0.1-0.1,0.4-0.3l0,0l0,0
		c0.1,0,0.1-0.1,0.1-0.1c0,0,0-0.1,0-0.1l0,0v0c0,0,0-0.1,0-0.1c0.1-0.4,0-0.7-0.2-1c-0.1-0.2-0.3-0.3-0.6-0.4c0-0.1,0-0.2,0-0.3
		c-0.2-0.6-0.8-0.5-1.3-0.3c-0.2,0.1-0.4,0.2-0.6,0.2c-0.1,0-0.2,0.1-0.2,0.1c0.2-0.8,0.2-1,0.3-1.5c0-0.2,0.1-0.4,0.2-0.7
		c0.2-0.6,0.3-1.1,0.4-1.6c0.3-1.4,0.7-2.8,1.4-4.1c0.3-0.6,0.1-0.7-0.1-0.9c0,0-0.1,0-0.1-0.1l0.2-0.3c0.2-0.3,0.2-0.4,0.1-0.6
		c0-0.1,0-0.2,0-0.3l0-0.1c0.2-0.3,0.2-0.3,0.2-0.3c0.1,0,0.2,0,0.6-0.3C59.8,39.1,59.6,38.5,59.5,37.9 M56.5,50.4
		c0.4-0.1,0.8-0.2,0.9,0.1c0,0,0,0,0,0c0,0,0,0-0.1,0.1l-0.1,0.1c-0.3,0.2-1.1,0.3-1.5,0.7c-0.3,0.4-0.8,0.9-1.2,1.6
		c0.3-0.3,1-1.4,1.3-1.5c0.6-0.6,1.9-0.7,2.3,0c0.1,0.2,0.1,0.3,0,0.6c0,0,0,0,0,0c-0.8,0.5-0.8-0.2-1.7-0.3c-0.6,0-1,0.3-1.2,0.6
		c-0.2,0.2-0.3,0.2-0.1,0.3c0-0.1,0.4-0.3,0.5-0.4c0.9-0.6,2.1,0,1.8,0.3l-1.4,0c-0.4,0.1-2.1,1.7-2.5,2.2L53.3,55
		c0.2-0.2,0.5-0.5,0.7-0.7c0.6-0.5,1.6-1.5,2.5-1.3c-0.9,0.9-0.2,0.1-1.1,0.8c-0.2,0.2-0.5,0.3-1.2,0.8c-0.5,0.4-1.2,1-1.6,1.3
		l-1.8,2.3l1.3-2.2c0.4-0.7,0.9-1.5,1.3-2.2c0.4-0.7,0.9-1.6,1.4-2.2c0.3-0.4,0.7-0.8,1.2-1.1C56.2,50.5,56.4,50.4,56.5,50.4
		 M47.5,64.1l-1.7-0.3c-0.5,0.1-1.2,0.5-1.7,0.5c1.1-0.7,1.4-1.1,2.6-1.2L46.6,63c0,0,0,0,0,0c0,0.1-0.1-0.1,0,0c0,0,0,0,0,0
		l2.1,0.4c-0.2-0.2-0.1-0.2-0.3-0.3c-0.1-0.1-0.2-0.1-0.4-0.2c-0.3-0.1-0.6-0.1-1-0.1l1-0.9c0.4-0.4,0.4-0.6,1.2-0.7
		c0.6-0.1,1.7,0.1,2.3,0.5c0.1,0.1,0.8,0.4,0.6,0.7c-0.3,0.1-0.5,0-0.8-0.1c-0.1,0-0.1,0.2-0.3,0.3c-0.1,0.1-0.9,0.2-1.1,0.2
		c-0.5,0-0.4-0.3-1.6-0.2c0.5,0,1.5,0.2,1.8,0.7c0.1,0.3-0.1,0.4-0.5,0.4c-0.6-0.1-0.2,0-0.5,0.2c-0.4,0.2-1,0-1.3-0.1l0,0.3
		C47.6,64.1,47.5,64.1,47.5,64.1 M11.7,62.7c0,0,0,0.1,0,0.1c0,0,0,0.1,0,0.1c-0.1,0-0.2,0-0.3,0c-0.1,0-0.2,0-0.3,0
		C11.3,62.8,11.5,62.8,11.7,62.7C11.7,62.8,11.7,62.7,11.7,62.7 M11.3,63.8c0,0,0.1-0.1,0.2-0.1C11.4,63.7,11.4,63.7,11.3,63.8
		c-0.1-0.1-0.1-0.1-0.1-0.1c-0.1,0-0.1-0.1-0.2-0.1c-0.1-0.1-0.1-0.1-0.2-0.2c0-0.1,0-0.1,0.1-0.2l0.7,0c0.6,0.1,1.3,0,1.7,0
		c0.2,0,0.4,0,0.4,0l0.4,0.1L13.9,63c-0.1-0.2-0.4-0.1-0.7-0.1h0c-0.1,0-0.2,0-0.3,0c-0.1,0-0.2,0-0.2,0c-0.2,0-0.4,0-0.4,0
		c0,0-0.1,0-0.1-0.1c0,0,0,0,0,0c0,0,0,0,0,0c0,0,0,0,0,0c0-0.1,0.1-0.1,0.1-0.2c0,0,0-0.1,0-0.1c0,0,0,0,0-0.1c0,0-0.1-0.1-0.2-0.1
		c-0.1,0-0.2,0-0.3,0c-0.4,0-1,0.1-1.3,0.5c-0.1,0.1-0.3,0.3-0.5,0.4c-0.1,0.1-0.3,0.1-0.3,0.1c0,0-0.1-0.1-0.1-0.1
		c0-0.1,0-0.1,0-0.2c0,0,0,0,0,0l0,0c0-0.1,0-0.1,0-0.1c0,0,0,0,0,0c0.9-2.2,5.8,0.7,5,0.2c-0.8-0.4-2.2-1.2-3.1-1.2
		c-0.8,0-1.5,0.1-1.8,0.7c-0.1-0.1-0.2,0-0.3,0.1c0,0-0.1,0.1-0.1,0.1c0,0-0.1,0.1-0.1,0.1L9,62.8l0,0l0,0c0,0.1-0.1,0.1-0.1,0.1
		c-0.1,0-0.2,0-0.3,0c0,0,0,0,0,0c0,0,0,0,0.1-0.1c0.1,0,0.1-0.1,0.2-0.2c0,0,0,0,0-0.1c0.1-0.1,0.1-0.2,0.2-0.3l0-0.1L9,62.1
		c1.1-1.6,4-0.4,4.6-0.1c0,0-0.3-0.2-0.4-0.2c0,0-0.1,0-0.1,0c-0.2-0.1-0.3-0.1-0.4-0.2c-0.1,0-0.2-0.1-0.4-0.1
		c-0.2-0.1-0.5-0.1-0.8-0.2l-0.2,0C10.7,61,9.1,61.2,8.9,62c-0.1-0.1-0.1,0-0.2-0.1c0,0,0,0,0-0.1c0,0,0,0,0,0v0l0,0l0,0
		c0,0,0-0.1,0-0.1c0,0,0-0.1,0-0.1c0,0,0.2-0.3,0.2-0.3c0-0.1,0-0.4,0.3-0.4c0.4-0.2,0.2-0.5,0.8-0.6c0.4-0.1,0.6-0.6,0.8-0.4
		c0.6,0.3,1,0.8,1.5,1.1c-0.3-0.6-2.1-2.3-2.3-2.4c-0.9-0.7-0.3-0.4-1-0.5c-0.3,0-0.3-0.2-0.4-0.2c-1-0.2-0.6-0.3-1.9,0.1
		c-0.5-0.2-0.4-0.2-1-0.3C6,57.7,6,57.6,6,57.5c-0.1,0-0.2,0-0.2,0c0.2-0.2,0.4-0.4,0.6-0.5c-0.5-0.3-0.5,0.3-0.8,0.5l-1,0.4
		c0,0,0,0,0,0c0,0,0,0,0,0c0,0,0,0-0.1,0c0,0,0.1-0.1-0.3-0.2l-0.5-0.1c-0.2-0.4,0.6-0.8,0.9-0.8c0.5-0.2,1.2-0.3,1.8-0.2
		c1.1,0.2,2.1,0.8,2.5,1.4L9.1,58l0-0.2c-0.3-0.1-0.2-0.1-0.3-0.4c-0.2-0.1-0.2,0-0.2-0.2l-0.2-0.4c0.1,0,0.1,0.1,0.3,0.1
		c-0.1-0.2,0,0-0.1-0.1c0,0,0,0,0,0c-0.2-0.3-0.3-0.5-0.7-1.1c-0.3-0.4-1.8-2.3-2-2.4c-0.5-0.3-1.1-0.4-1.8-0.3c0,0,0-0.1-0.1-0.1
		c0.2-0.4,0.7-0.4,1.2-0.2L6.3,53c-0.1-0.5-0.9-1-1.5-1.1c-0.6,0-1.2,0.2-1.8,0.7c-0.2-0.4,0.1-0.7,0.3-0.9c-0.2,0-0.6,0-0.6-0.1
		c0-0.3,0.6-0.3,1.1-0.3c-0.2-0.2-0.9-0.2-1.1-0.1c0,0,0,0,0,0c0-0.5,0.2-0.5,0.5-0.6c0.2,0,0.3,0,0.7,0c-0.3-0.1-1.1-0.3-1.4,0
		c0,0-0.1,0-0.1-0.1c0,0,0-0.1,0.1-0.2c0-0.1,0.1-0.1,0.2-0.2C3,50,3.4,50,3.9,50.3l0,0l0,0c0.1,0,0.2,0.1,0.4,0.1
		c0.3,0,0.7,0.1,1,0.3c0.1,0.1,0.2,0.3,0.4,0.5c0.2,0.3,0.4,0.4,0.6,0.7c0.1,0.2,0.3,0.6,0.4,0.9c0.6,1.2,1.1,2.1,1.8,3.2
		c0.3,0.5,0.7,0.9,1,1.5c0.2,0.3,0.3,0.4,0.5,0.7c0.2,0.3,0.4,0.5,0.6,0.7c0.8,0.9,1.7,1.6,2.6,2.4c-0.1-0.2-1.7-1.8-2-2.2
		c-1.1-1.2-2.7-3.5-3.5-4.9c-0.5-0.8-0.9-2-1.3-2.9c-1-2.8-1.7-5.2-2.5-8c-0.1-0.4-0.1-0.9-0.2-1.3c0-0.4-0.3-0.8-0.5-1.2
		c-0.1-0.1-0.1-0.2-0.2-0.3C3.1,40.3,3.1,40.1,3,40c-0.1-0.2-0.1-0.4-0.2-0.5c-0.1-0.4-0.1-0.3-1.1-0.2c0,0-0.1-0.1-0.1-0.1
		c0,0,0,0,0,0c0,0,0-0.1,0.1-0.2l0,0c0,0,0,0,0,0l0.2-0.2l-0.2-0.1l0,0c0,0,0,0,0,0c0,0,0,0,0-0.1c0,0,0.1-0.1,0.1-0.1
		c0,0,0-0.1,0-0.1c0,0,0-0.1,0-0.2c0.1-0.1,0.1-0.1,0.2-0.1l0.2,0.1l-0.1-0.4c0,0,0-0.1,0-0.1c0.4,0.1,1.5,1.9,1.4,1.9
		c1.5,3,1.3,4,2,6.8c0.1,0.2,0.1,0.4,0.2,0.6c0.1,0.3,0.1,0.4,0.3,0.7c0-0.4-0.3-1.5-0.4-2c-0.4-1.7-0.3-2.1-0.9-3.9
		c-0.3-1.1-0.3-0.7-0.2-1.9c-0.2-0.1-0.1-0.1-0.5,0.1c-0.3-1.2-1.5-2-1.3-2.5c0.1-0.2,0.4-0.1,0.6,0.2c0,0.1,0.1,0.1,0.1,0.2
		c0,0.1,0.1,0.2,0.2,0.2l0,0c0,0,0,0.1,0,0.1l1.5,2.5c0.5-0.7-0.4-1.6,1.8-1.6c1.7,0,1.4,0,3,0.4l-0.2,0c-0.3-0.3-1.8,0-2.3-0.1
		c-0.2-0.1-1-0.2-1.4,0c-0.4,0.2-0.4,0.7-0.3,0.8c0,0,0.3-0.4,0.6-0.6c0.2-0.1,0.6,0,0.8,0c-0.5,0.8,0.1,0.7,0.3,2.3
		c0.8-0.3-0.1-1.4,0.3-2l2-0.2c-0.1,0.8-1.4,0.6-2,3.2c-0.1,0.4-0.2,0.8-0.2,1.2c0,0.2,0,0.2,0.1,0.4c0.6-2.7,0.6-2.3,2.6-4.1
		c0.3,0.7-0.7,1.7-1,2L8,44.7c0.1-0.2,0.3-0.5,0.4-0.6c0.1-0.1,0.3-0.3,0.5-0.3c0.1,0-0.1-0.1,0.3,0.1c0.1,0.3,0,0.4-0.4,0.8
		c0.3-0.1,0.4-0.2,0.6-0.4c0.3-0.3,0.1-0.3,0.5-0.4l0.1,0l0-0.2c0,0,0,0,0,0c0,0,0,0-0.1,0l-0.1,0c-0.4-0.1-0.3-0.1-0.8-0.2l1.2-1.4
		c0.2-1,0.3-1,0.1-2.1c-0.2-0.6-0.6-0.7-1.2-0.9c0.1-0.1,0-0.1,0.2-0.2c0,0,0.1-0.1,0.2-0.1c0.1-0.5,0,0.2,0.5-0.7l0.4-0.1
		c0.6,1.5,2.3,6.2,2.4,6.3c0,0-0.3,0.2-0.3,0.2c-0.2,0.2-0.3,0.2-0.4,0.6c0,0.1-0.1,0.3-0.1,0.4c0,0.1,0,0.2,0.1,0.3
		c0,0.1,0.1,0.1,0.1,0.1c-0.6,0.6-0.9,0.8-1.3,1.2l-0.3-0.2c0.7-0.5,0.4-0.5,0.5-0.7c0-0.2-0.3-0.5-0.4-0.5c-0.6-0.1-0.2,0-0.8-0.7
		l0.1-0.1c0.2-0.1,0.2-0.1,0.3-0.3L10,44.1c-0.1,0.4,0,0-0.2,0.2C9.2,45,9.5,44.6,8.9,45c-0.8,0.6-1.2,3-0.5,3.6l0.3-0.1
		c-0.1-0.3-0.2-0.4-0.1-0.7c0.1-0.1,0.2,0,0.3,0c-0.2-0.3-0.2-0.6,0-1c0.8,0,0.5-0.1,1.4-0.5c0,0.5-0.3,0.5-0.6,1l0.5-0.1
		c0.3-0.1,0.2-0.1,0.2,0c0,0.4-0.4,0.5-0.7,0.5l0,0.3c-1,0.3-1,0.9-0.8,1.9C9,50.5,9.1,51,9.3,51.5c0.3,1.4,1.6,4.7,2.3,5.8
		c0.3,0.5,1.3,1.9,1.8,2.2c-0.5-0.6-1.8-2-1.6-2.7l0.4,0.2c0.3,0.2,0,0,0.4,0.1c0.2,0.1,0,0.2,0.4,0.3l0.1,0c0.3,2.1,0,1.5,1.3,2.6
		c1.6,1.5,3.4,3.7,5.1,4.9c0.3,0.2,0.9,0.6,1.2,0.7l-1.8-0.8l-3-2.4c-0.5-0.4-0.9-0.9-1.4-1.3c-1.1-1-3-2.9-3.9-4.1
		c-0.4-0.5-0.7-1.1-1.1-1.5c0.8,1.5,0.7,1.4,1.8,2.7c0.9,1.2,1.5,1.4,2.3,2.4c0.3,0.3,2,1.8,2.5,2.2c0.5,0.4,2.2,1.6,2.5,2.1
		c-0.4-0.2-1.7-0.9-2.1-1l0.4,0.4c-1.9-0.2-0.9,0-1.9-0.5c-0.5-0.2-1.4,0-2.1,0.1l0.2,0.1c0.1,0,0,0,0.1,0.1l-1,0.3c0,0,0,0-0.1,0
		l0.1-0.1c0,0,0,0,0,0c0,0,0.1-0.1,0.2-0.1c-0.5,0-1.1-0.1-1,0C11.4,63.9,11.4,63.8,11.3,63.8 M5.3,53.3C5.3,53.3,5.3,53.3,5.3,53.3
		C5.3,53.3,5.3,53.3,5.3,53.3 M4.8,53.8L4.8,53.8C4.8,53.8,4.8,53.8,4.8,53.8 M3.4,57.1c0-0.2,0.1-0.4,0.2-0.5
		c0.2-0.1,0.4-0.2,0.6-0.3C4.6,56,4.9,56,5.2,56c0.1,0,0.2,0,0.3,0l0.3,0.1l-0.1-0.3c0-0.1-0.2-0.2-0.4-0.4c-0.1,0-0.1-0.1-0.1-0.1
		c0,0,0,0-0.1-0.1c-0.1-0.1-0.2-0.3,0-0.5c0.1,0,0.2,0,0.3,0l0.2,0.1C5.8,55,6,55.1,6.2,55.2c0,0,0.1,0.1,0.1,0.1
		c0.1,0.1,0.5,0.1,0.5,0c0,0,0,0,0,0c0.2-0.1,0.2-0.2,0-0.4c-0.1-0.1-0.4-0.3-1-0.6c-0.1-0.1-0.3-0.1-0.5-0.2
		c-0.2-0.1-0.4-0.2-0.5-0.2c0,0,0.1-0.1,0.2-0.1c0.1,0,0.2,0,0.3-0.1c0.1,0,0.2-0.1,0.2-0.1c0,0,0,0,0,0c0.4,0.1,0.9,0.3,1.2,0.7
		c0.1,0.6,1.1,1.2,1.2,1.9l0,0.7c-0.2,0-0.2,0-0.1-0.3c-0.5,0.1,0,0.2-0.9-0.1l-1-0.3l0.3,0.2c-2.3,0-2.3,0.8-2.7,1c0,0-0.1,0-0.1,0
		C3.4,57.2,3.4,57.1,3.4,57.1 M3.4,43.2c-0.1-0.2-0.1-0.4-0.2-0.5c0,0,0-0.1-0.1-0.2c0-0.1-0.1-0.1-0.1-0.2
		c-0.1-0.2-0.2-0.5-0.2-0.6c0.4,0.1,0.4,0.3,0.6,0.8c0.5,0.9,1.1,2.4,1.2,3.4l-0.1-0.2c0,0-0.1-0.1-0.1-0.2l-0.4-1
		c-0.3-0.8-0.4-0.6-0.9-0.7c0,0-0.1-0.1-0.1-0.1C3,43.7,3,43.7,3,43.6c0,0,0-0.1,0-0.1c0-0.1,0.1-0.1,0.2-0.1l0.2,0c0,0,0,0,0,0
		c0,0,0,0,0,0l0,0L3.4,43.2z M57.4,38.4c0.1,0,0.1,0,0.2-0.1c0.1-0.1,0.1-0.1,0.1-0.2v0l0,0l0,0v0l0.1,0l0.1-0.1
		c0.2-0.3,0.5-0.7,0.7-0.8c0.1,0,0.1,0,0.2,0.1c0,0,0,0,0,0c0.1,0.4-0.2,0.6-0.3,0.9c0.3,0,0.4,0,0.5,0.3c-0.2,0.2-1.2-0.1-1.8,1.1
		c-0.3,0.6-0.9,2.2-0.9,3c0.2-0.4,0.2-0.5,0.3-1c0.1-0.3,0.2-0.6,0.3-1c0.9-2.7,2.3-1.8,1.9-1.5c-0.2,0.1-0.8,0-1.2,0.7
		c-0.2,0.5-0.1,0.6,0,0.9C57.3,41.1,57,41.2,57,42l0.2-0.2c0.3-0.2,0.4-0.2,0.6,0c0,0,0,0,0,0c-0.3,0.6-0.5,0.9-0.8,1.6
		c-0.7,1.8-0.9,4-1.5,5.4c-0.9,2.5-1.8,4.2-3,6.3c-1.3,2.4-2,3.5-3.9,5.4c-0.8,0.8-1.5,1.3-2.5,2.1c-0.4,0.3-0.8,0.7-1.3,1
		c-0.1,0.1-1.3,0.8-1.4,0.9c-0.4,0-1.4,0.6-1.9,0.7c1.3-0.8,2.4-1.6,3.7-2.4c-4.6,2.6-6.6,3.3-7.2,3.2c3.3-1.6,3.5-1.9,6.6-4.2
		c4.3-3.2,7.4-7.1,9.1-12.4c0.7-2.3,1.1-4.2,1.4-6.6c0.1-0.8,0.3-2-0.4-2.1l-0.2,3.6c-0.1,0.6-0.4,2.7-0.6,3.1
		c-0.2,1.5-1.3,4.2-1.8,5.3c-1.7,3.4-3.4,5.3-6.2,7.8c-0.5,0.5-3.5,2.9-4,3.1l1.2-1.4c0.4-0.4,0.9-0.8,1.3-1.3
		c1.5-1.7,3.6-4,4.2-6.2c0.2-0.7,0.4-1.6,0.2-2.3c-0.2-1.3-0.6-1.3-1-1.5c-0.2-0.6,0.9-0.4,1.2-0.2c0.4,0.3,0.6,0.7,0.6,1.4
		c0,1.3-0.9,2.6-0.9,3.1c0.5-1.1,1.8-3.4,0.7-4.6c-0.4-0.4-0.8-0.5-1.6-0.5c-0.1-0.1,0-0.3-0.1-0.3c-0.3,0-0.5-0.2-0.4-0.4
		c1.7,0.1,1.5,0,2.6,1.4c-0.2-0.5-0.4-0.9-0.8-1.3c-0.5-0.4-1.1-0.2-1.4-0.5c-0.2-0.2,0.1-0.4,0.4-0.3c-0.7-0.3-0.2-0.5,0.4-0.3
		c-0.1-0.1-0.8-0.3-0.7-0.5c0.3-0.6,2.3,1.4,2.2,1.7c0.1,1,0.3,2.1,0.4,3.1c0.4-0.3,0.8-1.8,0.9-2.5c0.1-0.8,0.1-2.2,0.1-3.2
		c0.7-0.1,0.5,1.4,0.5,2.2c0,0.8-0.2,1.7-0.4,2.4c-0.4,1.4-1.2,2.8-1.8,3.7c-1.8,2.5-3.1,3.8-5.2,6c0.4-0.2,0.4-0.4,0.8-0.6
		c0-0.2,0,0,0.1-0.2l1.3-1.3c2.1-2.1,5.2-6,5.4-9.1c0.1-0.8,0.2-2.1,0.1-2.9c-0.1-0.5-0.3-0.7-0.5-0.9c-0.4-0.4-0.8-0.6-0.4-0.8
		c-0.4-0.3-0.9-0.4-1.4-0.5c-0.2-0.8,1.3-0.4,1.6,0.1c-0.1-0.3-1.4-0.9-1.6-0.6c0.4-0.6,1-0.4,1.5,0c0.5,0.3,0.8,0.6,1,1
		c-0.1-0.5-0.3-0.9-0.8-1.2c1.4-0.2,1.9,2.1,1.5,3c-0.1,0.2-0.2,0.2-0.4,0.4c0,0.9-0.1,2.1-0.3,2.9c0.6-0.9,0.3-2.5,0.6-2.9
		c0.3-0.3,0.3-0.3,0.3-0.9c0-1.2-0.7-3.1-2.2-2.6c0.1-0.3,0.1-0.3,0.3-0.4c0.2-0.1,0.5-0.6,1.2-0.2c0.4,0.3,0.1,0.2,0.6,0.5
		c0.1-0.3,0.1-0.2-0.1-0.4c-0.6-0.7-0.7-0.5-1-0.8l-0.9-1.3c1.2-0.4,1.2-0.8,1.9,0.3c0.8,1.2,0.6,2.2,0.8,3.6c0.3-6-2.1-3.5-3.3-5.4
		c0-0.4,0-1.2,0.7-0.6c0.5,0.6,1.1,1,1.8,1.4c-0.5-0.3-1.2-0.7-1.1-1.1c0.3,0,0.8,0.2,1,0.2c-0.4-0.2-1.4-0.4-1.6-0.6
		c0.8-0.5,1.7,0.2,2.1,0.2c0.2,0.6,0.3,1.2,0.4,1.7c0-0.4,0-0.7,0.2-1.1c0.2,0,0.3,0.1,0.4,0.3c-0.1-0.2-0.1-0.4,0-0.3
		c0.4,0,0.8,0.3,1.2,0.5c-0.5-0.4-0.8-0.8-0.8-1.2l0.8,0c1,0.7,0,4.6-0.2,5.8c-0.2,1-0.4,1.9-0.6,2.8L54.1,50
		c-0.1,0.2-0.2,0.4-0.1,0.6c0.1-0.3,0.8-2.4,1-3.1c0.3-1.1,0.6-2.2,0.8-3.4c0.2-1.3,0.4-4.1,1.2-5.2C57.1,38.8,57.3,39.1,57.4,38.4
		L57.4,38.4z M55.6,58.1c-0.7,0.1-1.3-0.6-2.4-0.2l-1.9,0.9l1-0.8c1.4-1,3-1,3.4-0.5C55.7,57.6,55.7,58.1,55.6,58.1 M50.9,60.1
		C50.9,60.1,51,60.1,50.9,60.1c-0.2,0.2-0.8,0.1-1.9,0.7c-0.3,0.2-0.5,0.4-0.8,0.6c-0.3,0.2-0.5,0.5-0.8,0.6
		c0.4-0.4,1.9-1.7,2.5-1.8C50.2,59.9,50.5,59.9,50.9,60.1 M42.5,67.3c0.1,0.3,0.2,0.4,0,0.7c-0.4,0-1.6-0.8-2.2-0.9
		c-0.6-0.2-2-0.3-2.7-0.4c2.5-0.4,1.7-0.5,4.4,0.3c-0.1-0.1-0.6-0.5-0.7-0.6c-0.1-0.1-0.3-0.2-0.4-0.2c-0.1,0-0.1-0.1-0.2-0.1
		l-0.3-0.1C41.4,65.6,43.8,66.9,42.5,67.3 M37,65.9c-0.4,0.2-0.4,0.1-0.4,0c0.5-0.1,2.1-1.6,2.3-1.9c0.3-0.3,1.6-2.1,1.7-2.5
		c0.1-0.3,0.6-0.5,0.8,0c0,1-0.4,1.8-1.9,2.8C39.4,64.4,37.5,65.6,37,65.9 M37.1,66.7C37.1,66.7,36.9,66.7,37.1,66.7
		C37.1,66.6,37.4,66.7,37.1,66.7 M38,68.2c-0.2,0.3-0.1-0.1-0.6,0.6l-0.8-0.3c0.2-0.4,0-0.9,0-1.3c0.1,0,0.1,0.1,0.1,0.1L38,68.2
		L38,68.2z M34.9,68.6l-0.1,0.3c-0.9,0.1-7.4,0.1-8.4,0.1l-0.1-1.5c0.4-0.1,1.7,0.1,2.2,0.1c1.5,0.1,5.3,0.1,6.3-0.7l0.1,0
		L34.9,68.6z M25.2,67.1c-0.9,0-0.5-0.1-1.2,0.2v0.6c-0.7-0.8-0.8,0.8-1.1,0.9c-0.5,0-0.8-0.1-1.7-0.5c0.3-0.4,0.8-0.3,1.2-0.4
		c0.3-0.6-0.2-0.7-0.9-0.7c0.2-0.3,0.2-0.5,0-0.5h-0.4c0-0.7,0-0.4-0.4-0.7l0.3-0.7l0.7,0.4l-0.2,0.2c-0.3,0.3-0.3,0.3-0.1,0.6
		c0.4,0.1,1.4,0.6,2.4,0.5c0.4,0,0.1-0.1,0.4-0.2c0,0,0.1,0,0.2,0c0.6,0,0.3-0.1,0.7-0.1c0,0,0.9,0.2,1.2,0.1l0.6-0.3
		c0.4,0.3,0.7,0.4,1.4,0.5c0.9,0.1,0.4-0.1,1.5,0.1c-0.8,0-1.4,0-2.1-0.1c-0.2,0-0.7,0-1-0.1l-0.9,0.1
		C25.6,67.1,25.6,67.1,25.2,67.1 M25.8,68.7c-0.3,0-1,0.1-1.2,0c-0.2-0.2-0.1-0.9,0-1.2l1.2,0L25.8,68.7z M20.1,68.6
		c0.2-0.1,0.5-0.4,0.6-0.5c-0.4,0.2-0.8,0.2-1.3,0.2c0.5-0.2,0.9-0.4,1.1-0.7c-0.2,0-1,0.3-1.5,0.4c0.3-1.1,1.1-0.9,2.4-1.1
		c-0.2,0.3-0.3,0.2-0.4,0.6c0.4,0,1,0,1.3,0.2c-0.6,0.3-0.3-0.1-1.2,0.4L20.1,68.6z M19.7,66.8c0.2-0.3,0.4-0.2,0.8-0.2v0.1
		C20.2,66.6,20,66.7,19.7,66.8 M14.9,60c-0.2,0-0.1,0-0.2-0.1C15.1,59.9,14.8,59.8,14.9,60 M14.7,58.6c-0.4-0.7-0.8-0.4-1.1-0.7
		l1,0.1c0.4,0,0.7-0.4,0.2-0.6c-0.1,0.4,0,0.1-0.1,0.3l-0.4,0C14.4,57.2,14.6,57,15,57c0.6,0,0.5-0.1,0.8,0.1l0.1,1.5
		c0.2,1.1,1,2.4,1.5,3.2c1.2,1.8,3,2.7,3.3,3.1c-1.9-1.2-2.5-1.4-4-3.1C15,59.8,15.4,59.8,14.7,58.6 M10.7,47.6
		c0.3-0.5,1.1-1.1,1.5-1.6c0,0,0,0,0.1,0c0.4,0.2,0.3,0.8,0.2,1.1c-0.2,0-0.8,0-0.8,0.1c-0.1,0.1-0.1,0.3,0,0.3
		c0.5-0.1,5.1-0.2,5.4-0.2c1.1,0.3,0.6,1.2,0.2,1.9l-5.4,0c1.3,1.3,5.2-0.2,6.3,0.8c0.3,0.3,0.2,1-0.2,1.3c-0.5,0.3-4.3,0.1-5.1,0.1
		c1,1.1,4.2,0.1,4.8,0.6c0.2,0.3,0.3,1.4-1.1,1.4l-2.8,0.1c0.6,0.8,2.8-0.1,3.4,0.4c0.1,0.1,0.4,0.7,0.2,0.9c-0.4,0.8-2.4,0.5-3.2,1
		c0.2,0.1,0.8,0.1,1,0.1c0.5,0.1,0.4,0.3,0.2,0.9c-0.2,0.1-0.6,0.1-0.7,0.2c-0.2,0.1-0.3,0.3-0.4,0.5l-0.4-0.2l-0.9-0.5
		C11.3,56.2,9.4,49.5,10.7,47.6 M11.7,56.5l-0.2,0.1c-0.1-0.3-0.3-0.4-0.3-0.8L11.7,56.5z M11,55.6C11,55.6,11,55.6,11,55.6L11,55.6
		z M10.9,55L10.9,55C10.8,55,10.8,55.2,10.9,55C10.8,54.9,10.9,55,10.9,55 M10,51.5c0.2,0.5,0.4,1.8,0.5,2.3
		c0.5,2.3-0.3-0.8-0.7-1.5c-0.3-0.6-1.1-3.4-0.5-3.8l0.4-0.2C9.5,49.1,9.7,50.6,10,51.5 M8.6,37.9l-0.1,0.2c0.4,0.3-0.1-0.1,0.8,0.1
		c-0.1,0.2-0.1,0.2-0.1,0.5c-0.4,0.1-0.6,0-0.7-0.3L8,37.9l0.2-0.2l0-0.3c-0.5-0.1-0.8-0.1-0.6-0.5c0.1-0.2,0.1-0.2,0.2-0.3
		c0.4-0.3,1.4-1.2,1.7-1.1c0.1-0.2-0.1-0.1,0.1-0.2l-0.2,0l-1.2,0.4c0,0,0-0.1,0,0c0,0,0-0.1,0-0.2C8.7,35.1,11,35,12,31.9
		c-0.3,1.3-0.6,2.6-0.9,3.9C10.1,37,9.9,37,8.6,37.9 M10.7,36.7C10.7,36.7,10.7,36.7,10.7,36.7L10.7,36.7z M10.6,37.1
		c-0.1,0.2,0,0.3-0.3,0.5v-0.5H10.6z M6.8,32.6l0,6.4l-0.4,0c-0.3-7-0.7-12.7,1.7-19.6c0.4-1,0.9-1.9,1.3-2.9
		C13.7,9.9,17.5,7,25.6,4.8c6.2-1.1,14,0.8,19.4,4.6c3,2.1,5.5,5.2,7,8.5c0.2,0.4,0.8,1.5,0.8,1.8l0.8,2.6c0.1,0.2,0.1,0.2,0.2,0.5
		c0.1,0.8,0.2,1.5,0.4,2.3l0.4,3.7c0.1,0.3,0.1,0.9,0.1,1.2c0.1,1.6,0.1,7.6,0,9.4c0,0.3-0.1,0.3-0.1,0.6c-0.2,0.7-0.6,0-0.7,0
		l0-3.5c0-1.8,0-3.5,0.1-5.3c0,0,0.1-0.1,0.1-0.1c0-0.1,0-0.1-0.1-0.1c0-3.4-0.2-6.8-1.4-10C45.2,1.6,20-0.3,10,16.8
		c-1.5,2.6-2.8,6-3.1,9.6C6.7,28.4,6.9,30.6,6.8,32.6 M5.3,33.5c0,1.1,0,4.1,0,5L5.1,40c-0.2,0-0.3-0.1-0.4-0.2c0-0.3,0-0.8,0-1.7v0
		l0,0c0-3.2-0.2-6.4-0.2-9.5c0.2-2.8,0.8-7.4,2.1-9.9c1.1-2.6,2.6-5.4,4.4-7.4c1.8-2.1,4-3.9,6.3-5.2C32.7-2.8,51,5,55.5,22.2
		c0.3,1.4,0.5,2.8,0.6,4.3c0.4,4,0.4,8.4,0.2,12.5l0,0.8c0,0.1-0.1,0.2-0.2,0.3c-0.2-0.3-0.2-0.4-0.5-0.6l-0.2-0.2
		c0-3.6,0.1-10.8-0.2-14c-0.1-1.2-0.8-3.7-0.8-4c-0.2-0.2-0.3-0.7-0.4-1c-0.8-2.3-1.6-3.8-2.9-5.8c-2.8-4.5-7.6-8.1-12.6-9.8
		C34.8,3.4,30.7,3,26.7,3.6c-1.8,0.3-3.3,0.7-4.9,1.2c-3.7,1.3-6.6,3.4-9.4,6c-0.5,0.5-1,1.1-1.5,1.7c-0.5,0.6-1.6,2.1-2,2.9l-0.6,1
		c0,0.2-0.9,1.9-1,2.3C4.9,24.2,5.3,27.7,5.3,33.5 M7.7,23.6c0.6-2.4,1-3.7,2.2-6l0.8-1.4c0.6-1,0.9-1.3,1.6-2.2
		c0.1-0.2,0.2-0.3,0.3-0.4c4.3-4.8,8.6-6.8,14.8-7.9c0.7-0.1,2.8-0.2,3.6-0.2c5.4,0.3,9.8,2.1,14.2,5.5c2.1,1.9,3,3,4.6,5.2
		c0.5,0.7,1.2,2.1,1.6,3c0.5,0.9,0.9,2.4,1.2,3.3c0.3,1,0.4,1.5,0.5,2.5c0.1,0.4,0.2,0.9,0.2,1.4l0.1,4.2c0,0.1,0,0.2,0,0.2
		l-0.8-0.1c0,0,0-0.1,0-0.2c0-0.4-0.1-0.9-0.2-1c-0.1,0-0.1,0-0.1,0.1l-0.2,1c-0.1,0-0.2,0-0.3-0.1c-0.2-0.1-0.5-0.2-0.7-0.1
		c-0.1,0-0.1,0.1-0.1,0.2c0,0.1,0.2,0.2,0.5,0.3c0.1,0.1,0.3,0.2,0.4,0.3c0,0.1,0,0.2-0.1,0.3c-0.2,0.3-0.3,0.7-0.3,0.8v0
		c0,0,0,0,0.1,0l0.7-0.6c0,0,0.1,0.1,0.1,0.1c0.3,0.3,0.7,0.8,0.8,0.7c0.1,0,0.1-0.1,0-0.2l-0.5-1c0.1,0,0.3-0.1,0.4-0.1
		c0.1,0,0.2,0,0.3-0.1c0,0,0,0.1,0,0.1v8.1c-0.7,0-2.4-0.2-3.1,0c-0.4,0.1-0.5,0.8-0.3,1.2c0.1,0.3,0.6,0.6,0.9,0.8
		c-0.1,0.3-0.2,0.2-0.3,0.5c-0.1,0.6,0.3,1,0.6,1.5c-0.1,0.2-0.7,0.6-0.9,0.6c-0.8,0.1-0.2-0.1-1.2,0.3c-0.9-1.7-2.9-4.4-4.4-1.5
		c-3.5,6.6-2.7,1.5-6.6,4.1c-0.2,0.1-0.3,0.1-0.4,0.2l-0.8,0.6c-0.2,0.2-0.3,0.3-0.4,0.4c-0.5-0.3-1-0.9-0.9-1.4
		c0.1-0.8,0.5-2,1.4-2.5c2-1.2,3.8,0.2,5.1-1c0.1-0.1,0.3-0.4,0.4-0.6c0.1-0.5,0.1-1.2,0-1.7c0.6-0.4,0.7-1.2,0.7-1.5
		c-0.1-0.2-0.8-0.4-1.2-0.4c-0.1,0-0.1,0-0.2,0c0.1,0,0.1,0,0.2,0c0.7,0,1.4,0,1.5-0.2c0.1-0.2,0.3-1,0.2-1.5
		c1.2-0.1,2.8-0.3,1.8-2.1c-0.3-0.5-0.7-2-0.9-2.7c-0.6-1.7-0.6-3.1-0.7-4.8c0.3-0.2,0.6-0.3,1.1-0.4c1.2-0.3,1.9-0.5,3.1-0.6
		l0.1-0.3c0.7,0,1.6-0.4,1.9-0.3c0,0,0.1,0,0.1,0l-0.1,0.9c-0.1,0-0.2,0-0.3,0c-0.3,0-0.5-0.1-0.7,0c-0.1,0-0.1,0.1-0.1,0.2
		c0,0.1,0.2,0.2,0.5,0.3c0.1,0.1,0.3,0.1,0.5,0.2c0,0.1-0.1,0.2-0.1,0.3c-0.1,0.3-0.3,0.7-0.2,0.8c0.1,0,0.1,0,0.2,0l0.6-0.7
		c0,0,0.1,0.1,0.1,0.1c0.3,0.3,0.8,0.7,0.9,0.6c0.1,0,0.1-0.1,0-0.2l-0.6-0.9c0.1,0,0.3-0.1,0.4-0.2c0.3-0.1,0.7-0.3,0.7-0.4
		c0-0.1-0.1-0.1-0.2-0.1L51,26.9c0,0,0-0.1,0-0.2c-0.1-0.2-0.1-0.6-0.2-0.7c0,0,0.1,0,0.2,0c0.4-0.2,1.6-0.4,2.1-0.5
		c0.2-0.5-0.1-0.6-0.4-0.8c-0.8-0.5-2.6-1.3-3.7-1.9c-1-0.5-1.8-1-2.8-1.5l0.3-0.8c-0.3-0.4-1-0.6-1.6-0.9L41,17.5
		c-0.5-0.2-1.8-0.9-2.2-1c-0.5-0.2-0.4-0.2-0.6-0.7c-0.2-0.5-2.1-1.3-2.7-1.5c-0.7-0.3-1-0.4-1.7-0.6c-0.7-0.2-0.3-0.1-1-0.3L33,13
		c0.6,0,1.6,0.4,2.2,0.6c0.2,0.1,0.3,0.1,0.5,0.2l1.5,0.6c0.2,0.1,0.4,0.1,0.6,0c0.7-0.4,0.3-0.5,0.8-0.7c0.9-0.4,1.8-0.4,2.7-0.3
		l0.2-0.3c0-0.5-0.4-1-0.7-1.2c-0.2-0.1-0.2-0.1-0.3-0.1c-0.4-0.2-0.4-0.3-1-0.5c-0.9-0.2-0.6-0.4-1.4-0.5c-0.8-0.1-0.2-0.5-1.5-0.4
		c-1,0.1-0.3-0.3-1.3-0.5c-0.6-0.1-0.2-0.2-0.8-0.2c-0.6,0-0.5-0.1-0.8-0.2c-0.2-0.1-0.7,0-0.8,0c-0.1,0-0.2-0.1-0.3-0.1
		c-0.2,0-0.3,0-0.5,0c-0.5,0-0.8-0.3-1.4,0l-0.2,0.1c-1.1-0.8-1.5,0.1-3.4,0.4c-0.3,0-0.2,0-0.3,0.1c-0.7,0.2-0.3-0.2-1.2,0.4
		c-0.6-0.3-1.1-0.1-1.5,0.4c-0.6,0.6-0.9-0.2-1.5,0.7c-0.3,0.4-0.4,0.1-0.9,0.7c-0.1,0.2,0,0.1-0.2,0.2c-0.2,0.1-0.4,0.1-0.6,0.2
		c-0.3,0.1-0.7,0.3-0.8,0.6c-0.1,0.3,0.1,0.2-0.3,0.4c-0.2,0.1-0.3,0.1-0.5,0.2c-0.1,0.1-0.4,0.2-0.5,0.3c-0.1,0.2-0.1,0.3-0.3,0.5
		c-0.4,0.5-1,1-1.6,1.2c-0.4,0.1-0.6,0.3-0.9,0.6c-0.1,0.1-0.2,0.2-0.3,0.4c-0.1,0.3-0.1,0.2-0.2,0.6c-0.1,0.6-0.2,0.4-0.3,0.7
		c-0.5,1-0.5-0.1-1.1,1.4c-0.1,0.2-0.2,0.3-0.3,0.5c-0.2,0.3-0.4,0.5-0.4,1.1c-0.2,0.4-0.3,0.4-0.4,0.7c-0.2,0.6-0.2,0.4-0.3,1
		c-0.2,0.8-0.1,0.6-1.1,1.5c-0.6,0.6-0.4,0.6,0,1.1c-1.2,0.1-1.2,1.1-1,1.3c0.1,0.2,0.3,0.2,0.5,0.3c-0.5,0.1-1,0.3-1.2,0.6
		c-0.4,0.6,0,0.8,0.4,1.1c-0.2,0.1-0.3,0.1-0.5,0.2c-0.2,0.1-0.4,0.2-0.6,0.3c-0.4,0.2-0.5,0.6-0.4,1c-0.2,0.1-0.4,0.3-0.5,0.6
		c-0.1,0.3,0.2,0.6,0.4,0.9c-0.8,0-0.7,0.7-0.8,1c-0.1,0.1-0.4,0.4-0.1,1.1c0.1,0.3,0.2,0.2,0.1,0.4c-0.2,0.7,0,0.2-0.2,0.9
		C7.1,32.2,6.9,26.5,7.7,23.6 M51.3,30.5c0.3,0,0.8,0.3,1.1,0.4l0.2-1c0,0.3,0,0.8,0,1l1,0c-0.3,0.1-0.7,0.1-1,0.2L53,32
		c-0.2-0.3-0.4-0.7-0.6-0.9l-0.7,0.7c0.1-0.1,0.1-0.2,0.2-0.3c0.1-0.1,0.3-0.3,0.3-0.5C52,30.8,51.6,30.7,51.3,30.5 M49.7,45.7
		c-0.7,0.5-0.6,0.4-0.8,2c-0.6-0.1-1.1-0.5-1.5-0.1c0,0.2,0,0.8-0.1,0.9l-2.1,0.2c-1.4,0-2.8,0.3-4.4,0.2c-0.7,0.1-3.1-0.6-3.4-0.7
		c-0.1,0-0.1-0.1-0.2-0.2c0.2-0.5,2.5-1.7,3.3-1.6c0.7,0,1.4,0.5,2.3,0.1c1.8-0.7,2-4.8,4.1-4.4c0.7,0,2.5,2.4,2.5,2.7
		C49.5,45.3,49.2,44.9,49.7,45.7 M49.9,45.9c0.2,0,0.4,0.4,0.4,0.6c0.1-0.1,0.1-0.3,0.2-0.3l0.2,2.7l0.3,0.1c0.1,0.5,0,1.1-0.1,1.6
		c-0.1,0.4-0.2,1-0.4,1.3c0-1.6-0.1-1.7-0.7-3.1l0.4,0.1C50.1,48.4,48.9,46,49.9,45.9 M47.4,50.4c0.1,0.1-0.4,0.4-0.1,0.8
		c0.2,0.2,1,0.2,1.1,1.4l0,1.2l-0.5-0.1c0.2-0.4,0.2-1.4-0.5-2c-0.5-0.4-0.4-0.2-1-0.2c-0.5,0.1-0.2,0.7-0.6,0.7H45c0,0,0.1,0.2,0,0
		c0.3,0,0.4,0,0.5-0.4c0-0.7-0.6-0.3-1-0.8c-0.1-0.2-0.1-0.1-0.3-0.3c-0.8-0.6-1.5-0.4-2-0.7c-0.2-0.2-0.2-0.2-0.5-0.3
		c-0.5-0.2-0.4-0.2-1.1-0.1l-0.3-0.3c0.6,0,0.3,0.1,1.3,0c0.2,0,0.1,0,0.4,0c0.4,0,0.4-0.1,0.8-0.1c0.4,0,2.2-0.1,2.6-0.2l1.8-0.1
		c0,0.5,0,0-0.2,0.3C46.8,49.8,47.3,50.2,47.4,50.4 M45.7,54.6c-0.3,0-0.4,0.1-0.5-0.2c-0.2-0.6-0.2-1.4,0.4-1.6
		C45.7,53.4,45.8,54,45.7,54.6 M45.1,54.6c0,0.9-0.9,0.7-1.2,0.8c-1,0.1-0.8,2.1-1.5,2.4c0-0.2,0.2-0.6,0.1-0.7c0,0-0.7,0.2-1,0.3
		c0.3-0.4,0.2-0.2,0.5-0.7c0.2-0.4,0.4-0.2,0.6-0.6c0.2-0.3,0.1-0.5,0.4-0.8c0.2-0.2,0.4-0.3,0.6-0.5c-0.2-0.9-0.5-1.2,0.3-1.6
		c0.6-0.1,0.5,0.1,1,0.2c0.1-0.3,0.1-0.5,0.4-0.6C44.7,53.4,45.1,53.9,45.1,54.6 M40.6,60.6c-0.5-0.5,0,1-0.7,0.9l0.3-0.4l-0.4-0.6
		l-0.3,0.3l0,0.2c-0.4-0.1-0.2-0.2-0.3-0.5c-0.1-0.2-0.2-0.2-0.3-0.4c-0.2,0-0.1-0.1-0.2,0.1c0.2,0.7,0.1,0.4,0,0.5
		c-0.1-0.3-0.3-0.6-0.6-0.8c-0.2,0.4-0.2,0.8-0.3,1.2l-0.1-1c0-0.1,0.4-0.9,0.1-0.9l0-0.2l-0.2,0c0,0,0.1,0.1-0.4,0
		c0.2-0.1,0.4-0.2,0.4-0.4c0.1-0.4,0-0.3,0.1-0.7c-0.7-0.1,0.1,1-1.1,0.9c-0.2,0-0.4-0.1-0.5-0.1c0.1,0,0.3-0.1,0.5-0.1
		c0.4-0.2,0.5-0.2,0.4-0.8l-0.2-0.1l-0.2,0.6l-0.7,0.3c-0.1,0-0.2,0-0.3,0.1c-0.2-0.1-0.3-0.1-0.4-0.4c-0.1-0.3,0.4-0.7,0.2-1.3
		c0.3,0.1,0.4-0.1,0.5-0.2c0,0.8,0.1,0.6-0.3,1.2c0.3,0,0.4,0,0.5-0.5c0.1-0.3,0.1-0.6,0.1-1l0.2-0.2c-0.1-0.1,0,0-0.2-0.1
		c-0.3,0.2-2.1-0.9-2.7-1.2c-0.9-0.4-1.8-0.9-2.8-1.3c-0.9-0.4-1.8-0.9-2.8-1.3c-0.6-0.3-2.4-1.2-2.9-1.2L23,50.3
		c0.5-0.5,0.4,0.1,0.5-1c0.3,0.2,3,1.3,3.5,1.6c2,0.9,5.5,2.5,7.2,3.4c2.5,1.3,2,1.4,4,1.4C38.1,55,38,55.2,38,53.5
		c0-1.1-0.3-2.7-1.1-3.6c-0.5-0.5-1-1.1-1.1-1.4c0.2-0.1,0.4-0.2,0.5-0.4c0.3,0.1,0.9,0.6,1.5,1.4c1.1,1.6,1.1,1.9,1.3,4.2
		c0.1,1-0.1,0.8-0.2,1.1c0,0.2,0,0.8,0.4,0.9l0.1-0.9l0.1,0.3l0.6-0.4l0.8,0.3l0.1,0l0-0.6l0.3-0.1l0-0.2l-0.2,0l0-0.4
		c2.3-0.1,1.7,1.6,0.8,1.6c-0.5,0-0.1-0.1-0.6-0.2c-0.3,0.4-0.9,0.3-1.1-0.1l-0.3,1.1c0.2,0.1,0.2,0,0.3,0.1l0.2-0.7
		c1,0.3,1,0.1,1.1,0.5l-0.1,0c0,0-0.1,0-0.1,0l-0.2,0.1l0.2,0.5L40.7,57l0.2,0.3l-0.1,0.4c0.2,0.2,0.2,0.5,0.2,0.7l-0.5-0.2
		l-0.3,0.5l-0.9-0.1c-0.1,0.2-0.3,0.9-0.2,1.1l0.2-0.6c0.1-0.1,0-0.1,0.1-0.1c0.3-0.2,0.3-0.1,0.6-0.1c0.4-0.1,0.2-0.4,1.1-0.4
		c0.1,0,0.3,0,0.3,0c0.5,0,0.4,0.5-0.1,0.3L41,58.7l0.3,0.7l-0.2,0.2l-0.2,0.1c0,0.6,0.6,0.1,0.5,1c-0.3,0.1-0.5,0.2-0.6,0.3
		l-0.1-0.1C40.7,60.8,40.8,60.8,40.6,60.6 M37.7,61L37,60.6c0.1-0.1,0.4-0.3,0.6-0.5C37.6,60.7,37.6,60.5,37.7,61 M36.5,60.7
		c0.4,0.2,0.9,0.4,1,0.5c-0.9-0.1-1.3-0.1-2.3-0.1c-2.2,0-1.5-0.4-2.6-1.1c-0.8-0.5-2.1-0.3-3,0c-1.7,0.6-1.7,1-3.5,1.4
		c-1.1,0.2-2,0.1-2.8-0.6c-0.4-0.3-0.2-0.2-0.5-0.5l-0.1-0.1c-0.2-0.7-0.4-0.7-0.3-1.6c0.2-1.6,1.7-2.7,3.5-2.6
		c1,0.1,1.8,1.1,1.7,2.2c-0.4,1.5-0.8,1.4-2,1.3c0.4-0.2,0.9-0.7,0.9-1.2c0.1-0.7-0.6-1.3-1.2-1.3c-0.7,0-1.4,0.6-1.6,1.1
		c-0.2,0.6,0.1,1.5,0.8,1.7c0,0,0.1,0,0.1,0c0.1,0.1,0.1,0.2,0.2,0.2c1,0.3,2,0,2.9-0.5c0.8-0.4,1.9-1,3-1.1c1.5-0.2,2,0.1,3.1,0.7
		c1.5,0.9,1,0.8,2.9,0.4c-0.1,0.1-0.3,0.4,0.1,0.4c0.2,0,0.2,0,0.2-0.3c0,0,0,0,0-0.1l0-0.1c0.5,0,0.8-0.3,1.2-0.1
		C37.6,60,36.6,60.3,36.5,60.7 M36.7,62.3c-0.2-0.1-0.4-0.6-0.4-0.8c0.2,0,0.3,0,0.4,0.1C36.8,61.9,36.9,62.1,36.7,62.3 M32.1,67.3
		h-0.5c0.2-0.3,0.2-0.2,0.1-0.7l0.2-0.2l0.6,0.1C32.3,66.7,32,66.7,32,67L32.1,67.3z M31.7,65.6l-0.1,0.7c-0.3,0-0.2-0.2-0.3-0.8
		c-0.1-0.3-0.1-0.7-0.1-1l0.9-1.3l-0.6,1.3c0.2-0.2,0.6-0.8,0.8-1c0.4-0.7,1-0.9,1.2-0.7c0.1,0.4-0.6,0.5-0.8,0.6
		c0.5,0.1,0.7,0.1,0.7,0.5c-0.6,0.1-1.1,0.2-1.3,0.6c-0.6,1.1,1.1,1.9,1.5,0.6c0.3-0.8-0.1-1.3-0.1-1.6c0.1-0.2,0.4-0.4,0.6-0.2
		c0.1,0.1,0.2,0.4,0.2,0.7c0.2,1.7-1.1,2.2-1.5,2.1L31.7,65.6z M23.6,66.1c0.1,0,0.3,0.1,0.4,0.2c0.3,0.1,0.2,0.1,0.4,0.3
		c-0.4,0-1.8-0.3-2.1-0.5C22.6,66.1,23.4,66,23.6,66.1 M23,65.4c0.3,0,0.4,0.2,0.5,0.4h-0.4C23.1,65.5,23.1,65.5,23,65.4 M24.2,66
		l-0.3-0.1C24,65.9,24.1,66,24.2,66l0.4,0.1c0,0,0.1,0,0.1,0c-0.5-0.2-0.9-0.5-1.2-0.8c-0.8-0.7,0-0.4-1.3-0.8
		c0.2-0.1,0.5-0.1,0.6-0.4c0.1-0.3-0.2-0.5-0.4-0.5c-0.6-0.2-1-0.3-0.6-1c1.2-0.1,1.6,1.8,2.1,2.4c0.7,0.9,1.8,1.2,2.8,1.6l-2-0.5
		C24.3,66.2,24.3,66.1,24.2,66 M22.1,63.9c0.3,0,0.3-0.1,0.3,0.2C22.2,64.2,22.2,64.1,22.1,63.9 M16.3,58.3l0.5-1L16.7,57l-0.6,0.7
		c-0.5-1.1,0.9-1.5,1.6-0.9c0.4,0.4,0,0.9-0.3,1.1C17.2,58,17,58,16.8,58.1C16.5,58.2,16.5,58.3,16.3,58.3 M16.4,58.7
		c-0.1,0.2-0.1,0.2-0.1,0.5c0,0,0-0.1,0,0s0,0,0,0c-0.1-0.2-0.1-0.2-0.1-0.4H16.4z M15.9,56.6c-0.2,0.1,0,0-0.2,0.1l0.1-0.8l0.7-0.1
		c-0.2,0.2-0.2,0.1-0.3,0.3c-0.1,0.2,0,0.3-0.2,0.5C15.9,56.6,16,56.6,15.9,56.6 M17.1,56.1c-0.1,0.1,0.2,0.1-0.6,0.1
		c0.1-0.2,0-0.2,0.3-0.3C17.1,55.9,17,56,17.1,56.1 M16.9,55.6L16.9,55.6C16.9,55.6,16.9,55.6,16.9,55.6 M18.1,53.1l0.3-1.3l0.5,0.3
		c0.1,1.4-1.1,2-1.6,1.7C17.4,53.7,17.9,53.3,18.1,53.1 M17.8,51.7l0.4-0.1c-0.1,0.2,0,0-0.1,0.2L18,52L17.8,51.7z M17.2,36.5
		c-0.7-2.2-0.9-3.5-1.4-5.5c-0.1-0.6-0.8-2.2-0.7-2.8c0-0.3,0.2-1.1,0.3-1.5c0.1-0.4,0.2-1,0.4-1.3l0.4-1.3c0.1-0.4,0.3-0.8,0.4-1.3
		c0.4-1.1,0.5-1.4,1.1-2.4c0.6-1.1,1.4-2.1,2.2-3c0.2,0.2,0.4,0.4,0.6,0.7c-0.4,0.3-1.4,1.7-1.8,2.2c-0.6,0.9-0.3,0.5-0.7,1.3
		c-0.1,0.1-0.2,0.3-0.2,0.4c-0.5,0.9-0.8,2.2-0.8,3.3c0,1.6,0.4,2.5,1.1,3.8l0.5,0.5c0.5,0.5,1.4,1.1,2.1,1.1h0.6
		c0,0.7,0.1,0.9,0.5,1.3c-0.4,0.7-0.1,0.5,0,1c0.1,0.4,0.1,1.5-0.2,2.1c-0.3,0.7-0.4,0.8-0.8,1.6l0,0.1c-0.1,0.2-0.2,0.1-0.2,0.3
		v0.3c-0.7,0-0.2-0.1-0.4,0.4l-1.5,2l0.4,0.3c-0.1,0.2-0.3,0.7-0.5,0.9c0,0-0.2,0.1-0.3,0.2l-0.9,1c0,0.4,0.2,0.7,0,0.9l-0.1,0.3
		c0,0,0.1-0.1,0.2-0.1l0.4,0.7l-0.6-0.2c0-0.1,0-0.2,0-0.2l-0.2,0.5c-0.5,0-0.5,0.4-0.7,1.1h-0.1l-0.4-0.8c0.2-1,1.6-5.6,1.9-6.3
		C17.5,37.8,17.4,37.4,17.2,36.5 M12.9,27.6c0,0.2-0.1,0.4-0.1,0.6l-0.6,0.8c-0.3,0.5-1.8,1.9-2.3,2l-1.6,0.1c0-0.3,0-0.4,0.2-0.6
		c0.1-0.1,0.2-0.1,0.3-0.1c0.1,0,0.1,0,0.2,0c0,0,0,0,0.1,0l0.3-0.1c-0.1,0-0.5,0-0.7-0.3c-0.1-0.7,1-0.6,1.9-1.3
		c1.1-0.8,0.8-0.5,1.8-1.4c-1.5,0.5-0.6,0.6-2.5,0.8c-0.1-0.7,0.5-0.7,1-0.9c1.2-0.1,2.2-1.2,2.7-2.3c-0.1,0.3-0.1,0.7-0.2,1
		c-0.9,0.7-0.6,0.3-0.7,1.5c0,0.2-0.1,0.4-0.2,0.6c-0.6,0.7-1.4,1.3-2.1,1.9C10.6,30.2,12.7,28.3,12.9,27.6 M11.7,31.5
		c-0.2,1.1-2.5,3.1-3.5,3.6l-0.2,0.1l0,0.4l-0.4,0.2l0.2,0.4l-0.5,0.3c-0.2-0.6,0.3-1.5,0.3-1.6l-0.1-0.2c0-0.5,0.1-0.6,0.1-0.7
		c0,0,0.1,0,0.2,0c0.8,0,1.6-0.3,1.9-0.9c0,0.1-1.7,0.7-2.1,0.6c0,0,0,0,0-0.1c-0.3-0.6,0-0.6,0.2-1.3c0.2-0.7,0.6-0.4,2.1-1
		c1.7-0.7,1.9-1.4,2.7-2.7c0,0,0,0,0-0.1c-0.1,0.6-0.2,1.1-0.3,1.7l-0.4,0.9c-0.4,0.1-0.2-0.1-0.5,0.2c-0.5,0.3-1,0.7-1,1.2
		C11,32.7,10.7,32.3,11.7,31.5 M7.1,37.4v-0.6c0.2,0.1,0.2,0,0.2,0.3C7.3,37.5,7.2,37.3,7.1,37.4 M10.5,26.4
		c-0.1-0.9,0.7-0.5,1.6-1.3c0.2-0.2,0.1-0.1,0.4-0.3c0.5-0.3,0.8-0.6,1.1-1.1c-0.1,0.4-0.1,0.7-0.2,1.1C10.8,26.3,13,26.4,10.5,26.4
		 M12.1,24.8L11.3,25c0-0.4,0.3-0.2,1.1-1.1c0.5-0.5,0.2-1.1,0.6-1.6c0.2-0.4,0.8-0.6,1.3-0.8l1.5-0.6c0,0.2-0.2,0.2-0.4,0.7
		c-0.1,0.3-0.2,0.5-0.3,0.9c-0.3,0.8-0.2,0.9-0.8,1c-0.2,0-0.2,0-0.3,0.1l0-0.2l-0.1-0.7l-0.1,0.7l-0.1,0.4
		C13.3,23.7,12.2,24.8,12.1,24.8 M20.2,13.2c0.2-0.4,0.1-0.3,0.7-0.5c1.3-0.4,0.4-0.3,1-0.6c0.7-0.4,0.5-0.3,1,0.1
		c0.2,0.1,0.4,0.1,0.6,0.3c0.7,0.5,0.4,0.5,0.1,0.5c-0.4,0.2-0.6,0.3-0.9,0.5c-0.9,0.6-1.4,1-1.5,1c-0.4,0-0.7-0.1-1.1,0
		c0.3,0.1,0.5,0.3,0.5,0.4c0,0.1-0.5,0.6-0.8,0.6c-0.3,0-1.4-0.1-1.8-0.2l0,0l0,0c0,0,0.1-0.1,0.2-0.2c1.2-0.6,0-0.8,1.8-1.5
		c0.2,0.2,0.8,0.4,1.3,0.4C20.7,13.8,20.4,13.5,20.2,13.2 M25.6,10.5c0-0.2,0.3-0.2,0.6-0.2c0.4,0,0.2,0,0.5-0.1
		c0.1,0,0.9-0.2,1-0.2c0.6,0,0.9,0.8,1.1,1.4c-0.2,0-0.3,0-0.5,0.1c-0.2,0-0.8,0.1-1.3,0.3c-0.7,0.2-1.1,0.2-1.6,0.5
		c-1.3,0.4-0.7,0.4-1.5-0.1c-0.4-0.2-1.1-0.4-1.2-0.7c2-0.6,0.7-0.2,1.8-0.9c0.3-0.2,0.7-0.1,1,0.1c0.1,0.1,0.4,0.8,0.5,0.9
		C26.1,11.3,25.7,10.9,25.6,10.5 M30.4,9.7c0.4-0.1,0.3-0.4,1-0.1c0.5,0.2,0.5-0.1,0.9,0c0.1,0,0.1,0,0.1,0c0,0,0,0,0,0
		c-0.3,0.2-0.5,0.4-0.8,0.7c-0.2,0.3-0.3,0.7-0.4,1c-0.7,0-1,0-1.4-0.1c0-0.1-0.1-0.8-0.3-0.8c0.1,0.3,0.1,0.9-0.1,0.9
		c-0.1,0-0.2,0-0.4,0c0.1-0.4-0.5-1.6-0.7-1.6c0.3-0.1,0.3,0.1,1.1-0.1c0.4-0.1,0.6,0.1,0.8,0.5C30.3,10.2,30.5,9.7,30.4,9.7
		 M35.1,12.1L34.8,12c0-0.2,0-0.3,0.2-0.4c-0.2,0-0.4,0.2-0.5,0.3l-0.4-0.1c0.1-0.4,0.4-0.5,0.7-0.7c0.6-0.3,2-0.6,2.4-0.3
		c0.4,0.4,0.2,0.1,1.1,0.4c-0.2,0.1-0.3,0.2-0.5,0.2c-1.4,0.5-1.3,0.6-2.1,0.7c0,0,0,0-0.2,0c-0.2-0.1,0.1-0.5,0.5-0.8
		C35.8,11.3,35.1,12,35.1,12.1 M34.9,10.7c-1.4,0.8-1,0.8-1.3,1l-1-0.2c0.8-1.4,0.5-0.4-0.9-0.1c0-0.5,0.1-0.9,0.4-1.1
		c0.8-0.7,0.8-0.7,1.5-0.4c0.2,0.1,1.4,0.2,1.8,0.5L34.9,10.7z M17.9,15.7c0.5,0.1,1,0.1,1.5,0.1L18.3,17c-0.5,0.6-0.3,0.5-0.6,0.7
		c-0.5,0.6-0.8,0.2-1.3,0.2c-0.7-0.1-1.1,0.5-1.2,0.2c0.5,0,0.2-0.6,0.9-1.5c0.3-0.4,0.9-0.6,1.4-1C17.6,15.6,17.5,15.6,17.9,15.7
		L17.9,15.7L17.9,15.7z M17.1,18.3C17.1,18.3,17.1,18.3,17.1,18.3c-0.1,0.4-0.3,0.7-0.5,0.9c-0.1,0.1-0.1,0.1-0.2,0.2l0,0
		c-0.1-0.1-0.3-0.1-0.5,0c-0.2,0-0.6,0.1-0.7,0.1c0.2,0.5,1.4-0.3,1,0.5c-0.1,0.2-0.2,0.3-0.3,0.4c-0.2,0.3-0.1,0.1-0.4,0.2L14,21.2
		c-0.5,0.1-0.7,0.4-0.9,0.6l0.4-1.1c0.5-0.5,0.7-1.6,1.3-2c0.1-0.1,0.2-0.1,0.2-0.2C15.9,18.4,16.1,18.2,17.1,18.3 M14.3,23.8
		l-0.2,0.3c0-0.1-0.1-0.3-0.1-0.4L14.3,23.8z M14.6,23.9l-0.3,1.3c-0.1-0.3-0.1-0.6-0.2-1L14.6,23.9z M16.2,20.7
		c1.8-2.9,2.5-4.2,5.3-5.9c1.6-1.3,3.5-1.9,5.4-2.5c2.1-0.4,3-0.6,5.5-0.4c1.8,0.4,3.5,1.2,5.1,1.5c0.4,0.1,0.2-0.1,0.2-0.2
		c-0.4-0.2-0.9-0.5-1.2-0.6l0.1-0.1c0,0,0,0,0,0l0.4-0.3c0.3-0.1,1-0.2,1.3-0.6c0.2-0.3,0.4,0,0.7,0.1c0.3,0.1,0.5,0.1,0.7,0.2
		c0.2,0.1,0.3,0.2,0.6,0.3c0.4,0.2,0.7,0.4,0.9,0.9c-1.9-0.2-1.1-0.1-2.4,0.2c-1,0.2-0.5,0.2-0.9,0.7c-0.4,0.4-0.5,0.2-1,0
		c-0.7-0.3-1.4-0.6-2.3-0.9c-0.4-0.1-0.8-0.3-1.2-0.3c-0.2,0-0.5-0.1-0.7-0.1c-0.4-0.1-0.7-0.1-1,0.3c-0.2-1.1-3.9-0.1-4.4,0.1
		c-0.3,0.1-2.7,0.9-3.4,1.4c-0.1,0.2,0,0.5,0.1,0.8c-1.2,1-1.4,1.2-2.3,2.2c1.3-1.1,3-2.4,4.7-2.5c1,0.1,1,0.6,0.6,1.4
		c-0.4,0.8-0.3,1.1,0.4,1.6c0.1-0.1,0.2-0.1,0.2-0.4c-0.7-0.5-0.1-0.8-0.1-1.2l0.1-0.5c0.3-0.2,0.3-0.1,0.2-0.5
		c0.1-0.4,0.2-0.1,0.2-0.5c0-0.1,0.1-0.1,0.1-0.2c0-0.1,0-0.1,0.2-0.1c0.2,0,0.2,0,0.3-0.2c0-0.1,0-0.3,0.1-0.3
		c0.3-0.1,0.1-0.2,0.3-0.3c0.1,0.1,0.1,0.1,0.2,0.2c0,0.1,0.1,0.2,0.1,0.3c0.2,0,0.1-0.7,0.5-0.9c0.2-0.1,0.2-0.1,0.4-0.3l0.2,0.1
		c0.2,0,0.2-0.2,0.3-0.2c0.8-0.1,0.4,0.6,1,0.5c0-0.5,0.5-0.4,0.8-0.3l-0.2,0.6l0.1,0.2c0,0,0,0,0,0c0.4,0.1,0.3,0.2,0.5,0.6
		c0.3,0.7,1.6,1.3,1.6,1.6c0,0,0,0.1,0,0.1c0,0,0,0.1-0.1,0.1c0,0,0,0,0,0.1c0,0-0.1,0.1-0.1,0.1c-0.5,0.4-0.8-0.6-1.3-0.6
		c-0.2,0,0,0-0.1,0.1c0.3,0.4,0.4,0.4,0.7,0.6c0.1,0.1,0.1,0.1,0.1,0.1c-0.1,0-0.2,0-0.2,0c-0.2,0-0.4,0-0.5,0c0,0,0,0-0.1-0.1
		c-0.3-0.6-1.3-0.4-1.7-0.7l0,0c-0.2-0.1-0.2-0.1-0.3,0c0,0,0,0,0,0h0c0,0,0,0,0,0c0,0.1-0.1,0.2-0.1,0.3c0,0.1,0,0.2-0.1,0.3
		c0,0,0,0.1,0,0.1c0,0.2,0,0.5,0,0.6c0.2,0.5,0.6,0.3,1.1,1l0.1,0.2c0.5-0.1,0.9-0.9,1.3-1.1c0.4-0.2,0.6,0.1,0.8,0.3
		c0.5,0.3,1.2,0.2,1.3,0.3c0.1,0,0.1,0.1,0.1,0.1c0.1,0.1,0.2,0.1,0.3,0.2c0.2,0.1,0.7,0.2,0.9,0.2h0c0,0-0.7,0.6-0.8,0.6
		c-0.7-0.6-0.5-0.4-0.9-0.4c-0.2,0-0.2-0.2-1.1-0.2c0.4,0.4,0.2,0.2,0.5,0.3c0.3,0.2,0.7,1.4,0.7,1.5l-1,0.1l0.2-0.8l-0.4-0.5
		c0-0.3-0.1-0.6-0.5-0.7c-1.4,1.3-1.3,4.1-2.6,2.6c-0.8-0.2-1-0.2-1.3-1.2c-0.1,0.4,0.2,1.2,0.5,1.4c-0.5,0.5-1.3,0.9-1.9,1.3
		c-1,0.7-1.8,0.2-2.3,0.4c-0.3,0.1-0.3,0.1-0.5,0.1c0.3-0.3,0.6-1.4,0.7-1.8c-0.3,0.6-1.4,2.5-1.8,3c-0.6,0.5-1.6,0.4-2,0.8
		c-0.1,0.1-0.3,0.4-0.3,0.6c-0.2,0.6-0.3,1-0.3,1.6c-0.3,0.3-0.6,0.5-0.7,0.9l-0.1,0.4c-0.4-0.1-0.8-0.2-0.7-0.6
		c0.1-0.2,0.4-0.3,0.5-0.3c0.3-0.3,0.3-0.5,0.2-0.6c0-0.2,0.3-0.6,0.4-0.7c0.3-0.5,0.3-1.7,0.4-1.8c0.4-0.3,0.5-0.1,1-0.7
		c0.7-0.7-0.1-0.7,0.2-1.8c0.1-0.3-0.1-0.6-0.4-0.5c-0.1,0-0.2,0-0.2,0.1c-0.2,0-0.5,0.3-0.6,0.4c-1.1,2.5-0.3,1.6-0.6,3
		c-0.1,0.4-0.3,0.8-0.5,1.4c-0.1,0.3-0.1,0.8-0.4,0.8c-0.3,0-0.8-0.3-0.4-0.5c0.1,0,0.1-0.1,0.1-0.2c0.3-0.5-1.3-0.1-1.4-0.5
		c0,0,1.2,0,1.5-0.2c0.7-0.2,0.4-2.2,0.9-3.4c1.2-1.7,2.2-1.9,4.2-2c-0.6-0.6-3.5,0.3-4.3,1.3c0,0-0.1-0.1-0.1-0.1c0,0,0,0,0,0
		c-0.1-0.1-0.2-0.2-0.4-0.1c-0.6,0-0.7,0.6-1,1c0,0-0.5,0.7-0.8,0.8c-0.8,0.3,0.4-1.6,0.4-1.6c0.2-0.4,1-1.6,1.3-1.9
		c0.2-0.3,1-1.4,1-1.5c0-0.3-0.3-0.7-0.8-0.9c0.4-0.5,1.1-1.2,2.7-2.2c-4.6,1.7-6.9,8.2-7.9,12.8c-0.1-0.4-0.2-0.8-0.2-1.2
		c-0.1-0.4-0.1-0.5-0.2-0.8C15,24.2,15.5,22.1,16.2,20.7 M29.8,12.9c-0.2,0-0.2,0-0.3-0.1C29.7,12.8,29.7,12.8,29.8,12.9 M27.6,15.2
		c0-0.1-0.1-0.3-0.1-0.4c-0.2-0.2-0.5-0.3-0.8-0.4c-0.3,0-0.7,0.1-1,0.1c0.4-0.2,1-0.3,1.2-0.3c0.5-0.1,0.9-0.2,1.4-0.3
		c0.1,0,0.2-0.1,0.2,0.3c0,0.1,0,0.1,0,0.1c0,0,0,0-0.1,0c-0.4,0-0.4,0.1-0.5,0.3c0,0-0.1,0-0.1,0.1C27.5,14.6,27.8,14.9,27.6,15.2
		 M28.2,13.7c-0.1,0-0.3,0-0.4,0c-0.3,0-0.5,0.1-0.8,0.2l-1.7,0.6c-0.3,0.1-0.7,0.5-1,0.5h-0.3c0-0.7-0.1-0.3,0.4-0.6
		c1.4-0.8,3.4-1.2,5-1.5c-0.2,0.3-0.2,0.1-0.5,0.3c-0.2,0.1-0.2,0.3-0.5,0.4C28.4,13.6,28.4,13.7,28.2,13.7 M45.6,21.2
		c0.5,0.5,2.2,1.3,2.3,1.5c0.2,0,4.5,2.2,4.8,2.4L52,25.3c-0.2,0.1-0.5,0.1-0.7,0.2c-0.5,0.1-1,0.2-1.5,0.3c-1,0.2-2,0.4-3.1,0.5
		c-5.7,0.6-8.8,2-13.5,4.5c-0.5,0.3-1.9,1-2.4,1.2l-1.1-1.8c-0.4-0.6-0.7-1.2-1.4-1.4c-0.4-0.1-0.9-0.1-1.3,0.1
		c-0.7,0.3-0.8,2.5-0.9,3.4c-0.2,1.6-0.5,3.3-0.9,4.8c-0.1,0.5-1.1,4.2-1.3,4.4l-2.7-0.7c-1.6-0.4-1.4-0.5-2.4-0.9
		c0.4-0.5,0.6-1,1-1l0.2,0.1c0.5,0.2,3.2,0.8,3.6,0.8c0.3-1,0.8-2.1,1-3c0.2-1,0.6-2.4,0.7-3.4c0.2-1.3,0.5-3.1,0.4-4.5L24.2,30
		c-0.2,0.2-1.3,1-1.5,1.1c-0.1,0.2,0,0-0.1,0.2c-0.1,0.1-0.1,0.1-0.1,0.1c-0.3,0.2-0.6,0.5-0.8,0.5c-0.2-1,0-0.8,1-1.5
		c0.4-0.4,1.5-1.2,2-1.6c1.1-0.9,3.9-2.8,5.2-3.7c1.7-1.2,5.6-4.2,6.9-5.3c1-0.9,1.4-1.6,1.6-2.9c-0.2,0-0.2,0-0.3,0
		c0,0.7-0.4,1.3-0.8,1.7c-0.5,0.6-1.1,1.3-1.8,1.6L35.2,20L35,19.6c-0.1-0.1,0,0-0.1-0.1l-0.1-0.3c0-0.1-0.1-0.3-0.1-0.4l0.6,0.1
		c0.2,0.2,0.3,0.3,0.7,0.2c0.4-0.1,0.8-0.5,0.9-0.8c0.1-0.2,0-0.2-0.3-0.2c-0.4,0-0.8-0.1-1.1-0.3c0,0-0.1-0.1-0.2-0.1
		c-0.3-0.2-0.9,0.1-1.4-0.4l0,0l0-0.2l0-0.2h0c-0.2,0-0.5-0.1-0.8,0c-0.2,0.1-0.8,0.7-1,0.9c0,0,0,0.1-0.1,0.1
		c0-0.1-1.1-0.8-1.2-0.8c0-0.1,0-0.3,0-0.5c0-0.1,0-0.1,0-0.1c0-0.1,0-0.1,0-0.2c0.2-0.5,0-0.2,0.3-0.1c0.1,0,0.2,0.1,0.3,0.1l0,0
		c0.1,0,0.1,0,0.2,0c0.2,0,0.3,0.1,0.5,0.1c0.2,0,0.4,0.3,0.6,0.4c0,0,0.1,0.1,0.1,0.1c0.1,0,0.3,0,0.5,0c0.2,0,0.3,0,0.3-0.2v0
		c0,0,0.1,0,0.1,0c0.5,0.1,0.9-0.2,0.9-0.7c0-0.4-0.7-0.9-1-1.1c-0.3-0.3-0.4-0.4-0.5-0.9c1.6,0.5,2.8,0.9,4.1,1.7
		c0.3,0.2,0.5,0.2,0.6,0.6c0.1,0.6,0.2,0.5,0.6,0.4c0.8,0.2,4.7,2.2,5.8,2.7c0.6,0.3,1.4,0.6,1.9,0.9L45.8,21
		c-0.6-0.5-1.8-1.8-2.6-1.1C42.8,21.1,43.8,19.3,45.6,21.2 M50.6,26.2c0.1,0.3,0,0.7,0.1,1l1-0.2c-0.3,0.1-0.7,0.1-1,0.3l0.7,0.9
		c-0.2-0.2-0.5-0.6-0.7-0.8l-0.6,0.8c0.1-0.3,0.3-0.6,0.5-0.9c-0.3-0.1-0.8-0.2-1.1-0.3c0.3,0,0.8,0.2,1.1,0.2L50.6,26.2z
		 M45.2,26.7C45.2,26.7,45.2,26.7,45.2,26.7L45.2,26.7z M44.9,26.8C44.9,26.8,44.9,26.8,44.9,26.8L44.9,26.8z M42.2,35.1
		c-1.2,0.7-0.3,1.9,0.2,1.9c0.5,0,1-0.5,1.6-0.2c-0.9,0.3,0.1,0.6-0.6,1.7c-0.7-0.3-0.4,0.1-1.3,0.3c-0.2,0.1-1.4,0-1.5,0
		c0.2,0.5,1.2,0.8,1.7,0.8c0.7,0.1,1,0.1,0.6,0.6c-1.5,0.1,0.2,0.9-0.7,2.2c-0.7,0.8-1.9,0.4-3.6,0.7c-4.3,0.7-3.3,4.6-3.1,8.2
		l0.1,0.3c0.3,0,0.3-0.3,0.3-0.7c0.1-0.5,0.1-0.6,0.3-0.8c0.8,0.3,1.5,2.6,1.3,3.4c0.1,0.1,0.1,0.2,0.1,0.4l0,1.5
		c-0.2-0.1-0.8-0.4-1.7-0.7c-0.7-1.2-0.7-0.8-1.1-1.8c-0.5-1.1-0.2-2.4-0.1-2.5c-0.2-0.4-0.5-0.4-0.7-0.2c-0.1,0.2,0,1.7,0.5,2.9
		c0.2,0.6,0.8,1.2,1.2,1.5c-3.8-1.7-11.8-5.4-12.5-5.9c0.4-0.5,0.4,0.1,0.4-0.9c0.3-0.2,0.8-0.8,0.9-1.2c0.3-0.3,0.2-0.7,0.3-1.2
		c0.1-0.4,0.3-0.6,0.6-0.8c0.5-0.5,0.8-1,1.2-1.6c0.6-0.9,0.6-0.4,1-1.8c0.4-1.3,0-2,0.2-2.5l-0.1-2.6c0.2-0.1,0.4-0.4,0.5-0.3
		c0.3,0.3,0.9,0.9,1.5,1.5c0.1,0.1,0.2,0.1,0.3,0.2c0.1,0.7,1.1,2.1,2,2.4c-0.9-0.8-1.3-1.7-1.1-2.1c0.3,0,0.6-0.2,0.9-0.5
		c-0.5,0.5-1.4,0.2-1.9-0.2c-0.6-0.5-1.1-1-1.2-1.5l0.6-0.1c0.2-0.1,0.1-0.2,0.4-0.2c0.3,0.3,0.8,1,1.3,0.7c0.2-0.1,0.1-0.2,0.1-0.4
		C31,35.2,31,35.2,30.9,35c-0.1-0.1-0.1-0.2-0.1-0.4l1.7-0.7c0.8-0.1,1.4,0.2,1.7-0.5c0.1-0.3,0-0.2,0.2-0.4c0.2-0.2,0.1,0,0.3-0.3
		c0.4-1,0.7-1.4,1.7-1.8c0,0,0,0,0,0c0,0,0,0,0,0c0.1-0.2,0.1-0.4,0.3-0.5c0.1-0.3,0.2-0.2,0.3-0.5c0.3-0.6,0.1-0.8,1.5-1.2l1.4-0.6
		c1.2-0.5,2-0.6,3.1-0.9c0.2-0.1,0.9-0.1,1,0.2c-0.4,2.5-0.2,3.6,1.2,7.3c0.3,0.8,0.7,1.8-0.3,1.9c-0.5,0-0.6-0.2-1-0.4
		c-0.5-0.2-1,0.5-1.5,0.1c0,0-0.2-0.2-0.2-0.3c-0.1-0.3,0.2-0.6,0.5-0.6L42.2,35.1z M23.2,51.2C23.2,51.2,23.2,51.2,23.2,51.2
		c0,0.1,0,0.1,0,0.1c0,0,0,0.1,0,0c0,0,0,0,0,0c0,0.3-0.4,0.9-0.4,1.1c0.2-0.1,0.5-0.7,0.7-0.9l0.3-0.7c0.1,0,1.2,0.6,1.3,0.7
		c0,0.2-0.1,0.5-0.2,0.6c-0.7,0.9-0.9,1.5-2.3,1c-0.5-0.1-0.8-0.6-1-0.9c-0.2-0.4-0.2-0.8-0.1-1.2c0,0,0,0,0,0l-0.1,0.1
		c-1.1,0.7-1.4,0.5-2.8,0.2l0.4-0.8c0.3,0,2.3-0.1,2.3-0.1l0.2,0c-0.2-0.4-0.2-0.2,0.1-1c0.2,0,0.3,0,0.4-0.1c0.3,0,0.6,0.1,0.6,0.3
		c-0.1,0.4-0.1,0.3-0.3,0.5c0.5,0,0.8,0,1.2,0.3L23.2,51.2z M26.6,53.9c0.3-0.1,0.5-0.7,0.6-1l0.1-0.3l3,1.3c0,0.4,0,0.4-0.2,0.5
		c0,0.3-0.3,0.7-0.2,0.9c0.2-0.1,0.2-0.3,0.3-0.4l0.4-0.8l1.4,0.6c-0.1,0.2-0.1,0.3-0.2,0.5c-0.1,0.2-0.2,0.5-0.3,0.7
		c-0.6,0.7-0.9,0.7-2,0.5c-0.8-0.2-1.1-0.6-1.1-1.6c0-0.6,0.1-0.9,0.1-1.4l-0.1-0.1c0,0.1-0.1,0.2-0.1,0.3L28.4,54
		c0,0.1,0,0.1-0.1,0.2c0,0,0,0.1,0,0.1c-0.1,0.1,0,0.1-0.1,0.1c-0.3,0.7-2,0.7-2.8-0.1c-0.2-0.2-0.6-0.9-0.4-1.2l0.1-0.4l0.3-0.9
		c0.2,0,1.3,0.5,1.5,0.6c0,0.2-0.1,0.6-0.3,0.8C26.7,53.6,26.5,53.7,26.6,53.9 M33.7,57c0.1-0.3,0.1-0.5,0.1-0.6l0.1-0.6l1.3,0.6
		c0,0.2-0.1,0.4-0.2,0.8c-0.2,0.7-1.4,1.1-2,0.7c-0.6-0.3-1.2-1-0.9-2l0.2-1c0.4,0.1,0.9,0.4,1.2,0.6c0.1,0.4,0,0.9,0,1.4
		C33.6,57.1,33.5,57,33.7,57 M35.3,59.5c-0.6-0.1-1.2-0.3-1.8-0.6c-0.8-0.5,0.4-0.3,0.5-0.3l0.9-0.4L35.3,59.5z M31.1,57.6
		c0.3-0.1,0.4-0.4,0.6-0.8c0.1,0.1,0.1,0.2,0.2,0.4c0.1,0.5,0.2,0.5,0.6,1c-1.3-0.3-1.1-0.1-2.4,0l-0.6-1c0.9,0.1,1.1,0.2,1.8-0.1
		c-0.1,0.2-0.1,0.2-0.1,0.3C31,57.5,31,57.5,31.1,57.6 M28.3,55.4c0.1,0.3,0.2,0.5,0.3,0.9c0.4,0.7,0.6,0.6,0,1.3
		c-0.3,0.3-0.3,0.3-0.6,0.3c-0.2-0.6-0.2-0.7-0.7-1.4c-0.5-0.7-0.9-0.6-1.9-0.8c0-0.4,0-0.3,0.4-0.2c0.9,0.2,1.1,0.2,1.9-0.1
		l-0.2,1.1L28.3,55.4z M29.1,57.7l0.2,0.6c-0.4,0.2-1,0.6-1.4,0.7l0-0.4C28.7,58.2,28.4,58.7,29.1,57.7 M21.2,57.7
		c-0.2-0.5,0.1-0.9-0.4-1.3l-1.5-0.2c0.1-0.2,0,0,0.2-0.2c0.4-0.3,0.3-0.2,0.6-0.9l1.6,0.1c-0.1,0.5-0.4,0.6-0.4,1l0.7-0.8
		c0.5,1.3,0.8,0.9,0.6,1.4C22.1,57.7,22,57.5,21.2,57.7 M22.1,58.1c0,0.3,0,0.8-0.4,0.9c-0.5,0.1-0.6-0.4-0.5-0.8L22.1,58.1z
		 M20.5,53.9l0.6-1.2c0.2,0.1,0.2,0.2,0.4,0.4l0.5,0.4c-0.2,1.4-1.3,1.4-2.1,1c-0.4-0.2-0.7-0.5-0.8-0.8l0.2-1.7l1.4-0.2l-0.5,1.9
		C20.4,54,20.3,53.9,20.5,53.9 M22.4,53.8c0.8-0.1,0.2,0.2,1.6-0.1c0,0.5-0.3,1.2-0.2,1.4l0.7-1.3c0.3,1,0.5,1.2,0.7,1.5
		c-0.1,0.7-1.9,1-2.4,0.7C22.3,55.5,21.9,54.7,22.4,53.8 M18.6,50.6v-0.3l1.2,0.1c-0.3,0-0.3,0-0.6,0.1
		C18.7,50.5,18.9,50.4,18.6,50.6 M21,49.7l-1.4-0.4c-0.5-0.2-0.4-0.9-0.2-1.3c0.3-0.5,0.5-0.3,0.5-1.2c0-0.7,0.2-0.9,0.5-1.4
		c0.2-0.1,0.4-0.4,0.9-0.6c0.4-0.1,0.8-0.1,1.2-0.2c0.8-0.2,1.3-0.7,1.6-1.2c0.4-0.7,0.5-1.5,0.5-2.4c0.1-1,0.2-1,0.4-1.7
		c0.2-0.5,0.2-0.4,0.3-0.5l-0.5,3.8c0,0.2-0.1,0.4-0.3,0.6l0.5-0.4c0.5-1,0.8-1.9,0.9-3.3c0-1.6-0.4-3-0.2-3.8
		c0.2-1,0.7-1.5,1.8-1.2c0.3,0.1,0.6,0.1,0.7,0.3c-0.2,0.1-0.2,0.1-0.4,0.1c-0.1,0-0.2,0-0.3,0c-0.2,0-0.4,0-0.6,0
		c-0.4,0.1-0.6,0.3-0.7,0.7c-0.3,1.9,1.8,3.5-0.2,6.7c-0.5,0.8-1.9,2.5-2.8,2.7c-0.9,0.2-1.6-0.1-2.3,0.4c-0.5,0.3-0.8,1.2-0.7,2
		c0,0,0,0,0,0L19.9,48c-0.1,0.1-0.3,0.3-0.3,0.5c-0.1,0.5,0.3,0.8,0.8,0.9L20.1,49c-0.2-0.3-0.1-0.7,0-0.9c0.7,1.7,0.5,0.9,1.3,1.4
		l-0.6,0C21,49.8,21,49.6,21,49.7 M19.9,45.6l0.5-0.4c0.1-0.2,0.3-0.4,0.5-0.5l0.9-0.8c0.5-0.2,0.8-0.5,1-0.9
		c0.4-0.6,0.4-0.9,0.6-1.2l0.6,0.4c0,0.3-0.1,0.6-0.2,0.8c-0.7,1.5-2.1,1.3-2.9,1.7l-0.5,0.5c0,0,0,0.1,0,0.1c0,0,0,0,0,0.1
		c0,0,0,0,0,0.1C20,45.7,20,46,19.7,46.3L19.5,44c0.2-0.3,0.3-0.5,0.6-0.7c0.2-0.2,0.6-0.3,0.9-0.5c1.3-0.5,1-0.8,1.4-1.3l0.6,0.2
		l-0.4,1.3c-0.3,0.5-1.9,0.4-2.4,1.2C19.9,44.5,19.6,45.3,19.9,45.6 M24.3,41.3L24.3,41.3l0,0.4C24.1,41.5,24.1,41.7,24.3,41.3
		 M25.2,38c0-0.3,0.1-0.7,0.3-0.9l0.1,0.9H25.2z M28,29.2c-0.1,0.3-0.3,0.4-0.5,0.6c-0.2,0.2-0.3,0.4-0.7,0.4
		C26.8,29.5,27.2,29.2,28,29.2 M27,29.1L27,29.1C27.1,29.1,27,29.1,27,29.1 M27.2,30.6c0.7-0.4,0.8-1.1,1.5-0.8l-0.5,0.4
		c-0.3,0.2-0.9,1.2-1.5,0.9C26.8,30.7,26.8,30.8,27.2,30.6 M28.3,29.4v-0.3c0.2,0.1,0.3,0.1,0.4,0.3H28.3z M27.2,31.2
		c0.3-0.1,0.4-0.2,0.6-0.4c0.3-0.3,0.8-0.8,1.3-0.5l-0.3,0.2c-0.5,0.3-1.3,1.6-2.2,1.1C26.6,31.2,26.8,31.3,27.2,31.2 M29,29.8
		L29,29.8C29,29.8,29,29.9,29,29.8C29,29.6,29.1,29.8,29,29.8 M29.4,30.9c-0.5,0.5-0.7,0.7-1.3,0.6C28.2,31.3,28.9,30.5,29.4,30.9
		 M26.9,32c0.4-0.1,0.6-0.1,1-0.2c1.2-0.2,1.4-0.6,1.7-0.5l-0.7,0.5c-0.2,0.2-0.4,0.5-0.6,0.6c-0.3,0.1-0.7-0.1-1-0.1
		c-0.6,0-0.5,0.1-0.9,0.3C26.4,32.1,26.5,32.1,26.9,32 M30.2,32.1l-1.3,0.6c0.1-0.1,0,0,0.1-0.2C29.4,32.2,29.8,31.9,30.2,32.1
		 M29.8,31C29.8,30.9,29.9,31,29.8,31L29.8,31C29.8,31,29.8,31.2,29.8,31 M30,31.7c0-0.1,0.1-0.1,0.1-0.3l0.2,0.3H30z M29.1,32.8
		c1.3-0.3,1.5-0.9,3.2-0.8c1.3,0.1,0.8-0.6,1.2-0.8c0.4-0.2,0.2,0.9-0.4,1.1c-0.9,0.3-1.2-0.6-2.5,0.3c-0.4,0.3-0.3,0.1-0.3,0.5
		c-1.3,0.4-0.9,0.3-2.3,0.3c-1.4-0.1-1.3,0.5-1.9,0.6C26.2,32.3,27.7,33.1,29.1,32.8 M32.1,31.7l0.9-0.5c-0.1,0.3,0,0.3-0.3,0.4
		C32.5,31.8,32.4,31.7,32.1,31.7 M35.4,30.8c0.1,0,0.3,0,0.3,0c-0.8,0.3-1.7,0.8-1.5,2c0,0.5-1.6-0.1-2.7,0.6
		c-0.3,0.2-1,1.3-2.4,1.4c-0.5,0-1.5-0.4-1.9-0.7c0.2-0.1,0.2-0.1,0.5-0.1c0.2,0,0.4,0,0.6,0.1c1.8,0.3,1.8-0.2,2.7-0.9
		c0.8-0.6,1.1-0.3,2.1-0.4c0.9-0.1,0.7-0.9,0.8-1.7C34.7,30.5,35,30.8,35.4,30.8 M34.7,30.3c0.1,0,0.2-0.1,0.3-0.1
		c0,0.3,0,0.1-0.1,0.2C34.8,30.4,34.7,30.3,34.7,30.3 M35.4,30.3c0.1-0.3,1-0.6,1.4-0.6c0,0.3-0.2,0.5-0.5,0.6
		C36,30.4,35.6,30.4,35.4,30.3 M34,33.2c-0.8,0.8-0.4,0.4-1.8,0.4c-0.3,0.1-0.5,0.3-0.9,0.3c0.1-0.1,0.4-0.3,0.5-0.4
		c0.3-0.4-0.2-0.4,1.4-0.2C33.6,33.3,33.7,33.3,34,33.2 M28.6,33.8L28.6,33.8l1.1-0.1v0.1c-0.3,0-0.3,0.1-0.5,0.1
		C29,33.8,28.9,33.8,28.6,33.8 M29.8,33.6L29.8,33.6C29.8,33.6,29.8,33.6,29.8,33.6 M31.2,32.6L31.2,32.6
		C31.2,32.6,31.2,32.6,31.2,32.6 M31.3,32.5C31.4,32.4,31.6,32.6,31.3,32.5C31.4,32.5,31.2,32.6,31.3,32.5 M26.8,34.1
		C26.7,34.1,26.7,34.2,26.8,34.1C26.7,34,27,34,26.8,34.1 M27.2,38.2c-0.4-0.6-0.8-2.7,0.4-2.8C27.3,36.3,27.7,37.4,27.2,38.2
		 M22.5,47.3l0.9,0.6c-0.5,0.6-0.4,0.4-0.4,0.8l-0.3,0c0-0.2-0.3-0.1-0.3-0.5c0-0.4,0.2-0.3,0.2-0.6C22.5,47.3,22.6,47.5,22.5,47.3
		 M23.2,47.1c0.5-0.1,0.6-1.1,0.5-1.7c0.6-0.3,0.4-0.3,0.7-0.4l0,1.1c-0.3,0.3-0.1,0.4-0.5,0.8c-0.1,0.1-0.2,0.2-0.4,0.2
		C23.2,47.3,23.2,47.1,23.2,47.1 M22.3,49.3c-1.1-0.2-1.9,0.3-1.8-1.7c0.4-0.7,0.1-0.4,0.8-1l1-0.8c0,0.1,0.1,0.2,0.1,0.3l0.3-0.3
		l0.8-0.2c0.4,1.6-1,1.3-1.5,1.5c-1,0.5-0.5,1.8,0.7,1.7c0.1,0.1,0,0,0.2,0.1c0.8,0.4,0.4,1,0.1,1.2C22.7,49.6,22.9,49.4,22.3,49.3
		 M22.3,47.3c-0.2,0.1-0.1,0-0.2,0.2c-0.2,0.1-0.2,0.2-0.3,0.4l-0.1,0.3c-0.2-0.2-0.2-0.5-0.1-0.7c0.1-0.2,0.3-0.2,0.5-0.3
		C22.4,47.3,22.3,47.1,22.3,47.3 M44,27c0.4-0.1,0.3-0.2,0.7-0.1C44.3,27,44.2,27.1,44,27 M18.6,44.1c-0.3-0.2-1-1.3,0.2-1.9
		c0.8-0.4,0.8-0.3,1.3-1c0.2-0.3,0.1-0.3,0.5-0.2l-1.2,1.5c-0.3,0.1-0.6,0.3-0.8,0.6C18.2,43.6,18.5,43.8,18.6,44.1 M17.8,42.3
		l-0.2,0.3c0-0.7,0.3-0.8,0.7-1.1c1-0.7,0.4-0.1,0.9-0.9l0.5,0.2l-0.8,1.1C18.7,41.9,18.2,41.9,17.8,42.3 M20,40.7L20,40.7
		C20,40.7,20,40.7,20,40.7 M22,33.2c0.5-0.2,1.3-0.7,1.9-0.8l-1.2,5.4l-1.9-0.5l1-1.8C22.3,34.6,21.9,34,22,33.2 M23.8,32.1
		C23.9,32,24.1,32.2,23.8,32.1C23.9,32.1,23.7,32.2,23.8,32.1 M22.9,38.4c0.5-1.8,1.6-5.1,1.4-6.9l-1.2,0.7c-0.2,0.1-1,0.6-1.2,0.6
		l-0.1-0.2c0.5-0.4,3.1-2.4,3.3-2.4l0,0.6l-0.1,0.5c-0.1,0.9-0.4,3.2-0.5,3.9l-1.1,4L22,38.9c-0.5-0.2-1.5-0.3-2-0.6l0.3-0.5
		C20.5,37.9,22.6,38.5,22.9,38.4 M23.5,30.8L23.5,30.8C23.5,30.8,23.5,30.8,23.5,30.8 M24.7,29.9L24.7,29.9
		C24.7,29.9,24.7,29.9,24.7,29.9 M25.1,31.8L25.1,31.8C25.1,31.8,25.1,31.8,25.1,31.8 M25.3,29.5C25.3,29.5,25.3,29.5,25.3,29.5
		c0,0-0.1,0.1-0.1-0.1C25.2,29.4,25.4,29.3,25.3,29.5C25.3,29.5,25.3,29.5,25.3,29.5C25.4,29.6,25.3,29.6,25.3,29.5 M17.8,25.9
		c0,0,0,0.3,0.3,0.4c0.4,0.1,0.5,0.1,0.9,0.1c-0.1,0,0,0.1-0.1,0.1c0,0-0.1,0.1-0.1,0.1c0,0.1,0,0.2,0,0.2c0,0.1,0,0.2,0.1,0.2
		c0,0.1,0.1,0.1,0.2,0.2c0.1,0.1,0.3,0.1,0.5,0.1c0.2,0,0.3,0,0.3-0.1c0.1,0,0.2-0.1,0.5-0.9c0.2-0.5,0.4-1,0.4-1.4
		c0-0.1,0-0.2,0-0.2c0,0.1,0,0.1,0,0.2c0,0.2,0,0.4-0.1,0.6c0,0.2-0.1,0.3-0.2,0.4c-0.1,0.1-0.1,0.3-0.2,0.4c0,0.1-0.1,0.2-0.1,0.2
		c-0.1,0.2-0.1,0.3-0.1,0.4c0,0.1,0,0.2-0.2,0.4c-0.1,0.1-0.3,0.3-0.4,0.5h0.1c-0.1,0.2-0.1,0.3-0.1,0.4v0l-0.1,0
		c0.3,0.3,0.8,0.5,1.1,0.3c0.2-0.3,0-0.5,0.3-0.8c0.1-0.3,0.5-0.6,0.6-1c0.2-0.9-0.1-0.3,0.3-1.3c0.3,0.1,0.7,0.3,0.8,0.4
		c0.4,0.1,0.5,0.4,0.8,0.7c0.3,0.3,0.6,0.1,1,0.4c0.3,0.2,0.6,0.2,0.9-0.1c0.1-0.1,0.1-0.2,0.2-0.3c0.1-0.2,0.3-0.5,0.2-0.7
		c-0.3,0.1-1-0.1-1.3-0.3c-0.5-0.4-0.8-0.4-1.2-0.9c1-0.6,1.1-0.3,1.6-1.1c0.3-0.5,0.8-0.4,1.2-0.5c1.1-0.1,1.4,0.1,2.8-0.9
		c0.3-0.2,0.6-0.4,0.8-0.6c0.3-0.2,0.6-0.6,0.8-0.7c0.8,0.5,1.4,1.1,1.8-0.1c0.1-0.2,0,0,0.1-0.2c0.3-0.5,0.5-1.1,0.7-1.8
		c0.3-0.7,0.6,0.4,0.9,0.7c0,0.2-0.2,0.6,0,0.7c0.3,0.1,0.8,0,0.8,0.1l-0.2,0.4c-0.1,0.1-0.5,0.4-0.7,0.5c-0.9,0.7-2.4,1.8-3.4,2.4
		c-0.3,0.2-0.5,0.3-0.7,0.4c-0.6,0.4-5.9,4.3-5.9,4.3c-0.1,0.1,0,0-0.1,0.1c-0.3,0.3-1.9,1.5-2.4,1.8c-0.5,0.3-0.7,0.1-1.3-0.1
		c-1.7-0.8-2.2-2.4-2.5-4.3c-0.1-0.7-0.3-2.3,0-2.9c0.1,1.2,1.3,0,1.6-0.6c0.4-0.8,0.7-1.1,1-0.8c0.1,0.1,0.1,0.1,0.2,0.1
		c0,0.1-0.4,0.7-0.5,0.9c-0.3,0.8,0,2.4-0.4,2.6c-0.2,0.1-0.5,0.2-0.7,0.3c-0.2,0.1-0.4,0.1-0.5,0.1C18,25.6,17.9,25.9,17.8,25.9
		L17.8,25.9L17.8,25.9z M22.1,23.4c-0.3,0.3-1,0.6-1.1,1c0,0.1,0,0.1-0.1,0.2c0,0,0,0,0,0.1c0-0.2,0-0.4,0-0.6c0-0.2-0.1-0.3,0-0.5
		c0-0.1,0.1-0.3,0.1-0.5l0.5-1c0.2-0.2,0.2-0.3,0.4-0.4c0.3-0.1,0.4-0.1,0.3,0.1C21.8,23.2,22.6,22.6,22.1,23.4 M22.1,25.2l0.5-0.3
		c0.7,0.5,0.9,0.6,1.4,0.9c0.5,0.4,1.1,0.3,1.7,0.3c-1.1,1.4-0.5,0.6-1.5,0.4c-0.4-0.1-0.3-0.2-0.6-0.5c-0.1-0.1-0.9-0.5-1.1-0.6
		C22.3,25.4,22.2,25.4,22.1,25.2 M33.9,16.7L33.9,16.7C33.9,16.7,33.9,16.7,33.9,16.7 M16.5,45.1c0.2-0.5,0-0.5,0.5-0.8
		c2,0.3,1.3,2.3-0.2,2.7C16.6,47,16.3,47,15.7,47C15.5,45.4,16.1,46.1,16.5,45.1 M18.4,44.6h0.3c0,0.7,0.2,1.2-0.1,1.8
		c-0.1,0.2-0.3,0.4-0.4,0.6c-0.1,0.5,0,0.2-0.2,0.9c-0.1-0.2,0.1-0.1-0.5-0.8C18.5,46.5,18.9,45.3,18.4,44.6 M18.3,47.9
		c0.1-0.3,0.1-0.4,0.2-0.8c0.1-0.5,0.5-0.6,0.6-1.2c0.1-1.1-0.5-2.3,0.2-3.1c0.3-0.3,0.7-0.5,1-0.8c0.6-0.5,0-0.2,0.9-0.8
		c0.3,0.5-0.8,1.1-1.2,1.4c1.3-0.5,1-0.6,1.9-1.2c0,1.6-2.8,0.5-2.6,3.1c0,0.6,0.2,1.5,0.1,2c-0.1,0.4-0.6,0.8-0.8,1.2
		c-0.6,1.3,0.1,2.2,1.4,2.1l-0.9-0.4c-0.5-0.3-1-1.6,0.5-2.5c-0.4,0.7-1,1.4-0.6,2.2c0.4,0.8,1.3,0.4,2,0.9c0,0.3,0.1,0.2-0.1,0.3
		c0,0,0,0,0,0c0,0,0,0,0,0l-0.2,0.2l-0.6-0.4c-0.2,0-1.5-0.1-1.6-0.2C17.7,49.6,18.1,48.5,18.3,47.9 M17.8,54.1
		c0.1-0.1,0.4-0.3,0.6-0.3l0.1,0l-0.1,1.1l0.4-0.5l0.7,0.6c0,0.4-0.1,0.6-0.4,0.7c-0.6,0.3-0.7,0-0.9,0.3L17.4,56l-0.1-0.2
		C17.9,55.2,17.8,55.2,17.8,54.1 M18.1,56.4C18.1,56.4,18.1,56.3,18.1,56.4L18.1,56.4z M17.5,56.3C17.5,56.3,17.5,56.3,17.5,56.3
		L17.5,56.3z M18,62.3c-0.3-0.2-1.3-2-1.4-2.3c0.9,0.6,0.6,0.6,1.2,0.3C17.8,61.5,17.7,61.1,18,62.3 M17.5,60.1l0-0.2
		c-0.3-0.1-0.6,0-0.8-0.3c0.1-0.5-0.1-0.7,0.3-1.1c0.2-0.2,0.8-0.5,1.1-0.3l0.1,0.3c0,0.2,0.1,0.6,0,0.8C18,59.6,17.6,60,17.5,60.1
		 M17.9,57.9c0.1-0.6,0.6-0.3-0.1-1.3l0.5,0.5c0.2,0.1,0.8,0.2,1,0.5c0.2,0.2,0.5,0.8,0.3,1.1l-1-0.1C18,57.7,18.5,58.4,17.9,57.9
		 M19.5,57.1c-0.3-0.2-0.5,0-0.8-0.3c-0.2-0.2-0.2-0.5-0.3-0.7c0.1-0.2,0-0.2,0.2,0.1c0.7,1.2,1.9-0.7,2,1.6c0.1,1.7,1.1,1,1.5,1.7
		c0.1,0.2,0.2,0.6,0.4,0.8l0,0.3L21,59.9C19.5,59.1,20.5,57.6,19.5,57.1 M23.3,62c0.7-0.7,0.5-0.2,1.9,0.1l-1.3-0.2
		c0.2,0.2,0.3,0.2,0.3,0.6c-0.1,0.4-0.2,0.4,0,0.8c0.1,0.3,0.6,0.9,0.7,1.2c0.2,0.4,0.5,0.8,0.8,1c0.1,0.2,0.3,0.3,0.5,0.4
		c0.2,0.2,0.4,0.2,0.6,0.4c-1.1-0.1-2.4-1.9-2.9-2.7c-0.5-0.8-0.9-0.7-1.6-1.2l-0.7-1.8c0.2,0,0.7,0.3,1,0.4l0.4,0.4
		c0.1,0,0.1,0.1,0.2,0.2l0.1,0.1c0,0,0,0.1,0,0.1l0,0h0c0,0,0-0.1,0-0.1c0,0,0,0,0-0.1l-0.2-0.2c-0.1,0-0.2-0.1-0.4-0.2
		C22.8,61.5,23,61.6,23.3,62 M24.8,64.1l0.7,0.3l-0.4,0.1C25,64.3,24.9,64.2,24.8,64.1 M21.5,62.4c-0.1,0.1-0.1,0-0.1-0.1
		C21.5,62.3,21.6,62.3,21.5,62.4 M26.2,65.7L26,65.2L25.2,65l0.3-0.3l0.1,0.3c1.1,0,0.1-0.9-0.3-1.1c-0.1,0-0.9-0.2-1-0.8
		c0-0.2,0-0.2,0.2-0.4l1.9,1.7c-0.1-0.5-0.5-1.1-0.7-1.5l0.4-0.4c0-0.1,0-0.2,0.1-0.2c0.1-0.1,0.2-0.1,0.2-0.1l0.1-0.1
		c0,0.1-0.1,0.1-0.1,0.1L26,62.3c0,0.4,0.2,0.9,0.4,1.3c-0.1-1-0.3-0.4,0.1-1.4c0.1,0.1,0.1-0.1,0.2,0.2c0.1,0.5-0.3-0.3-0.2,0.9
		c0,0,0-0.1,0,0l0.1-0.2c0.1-0.3-0.1-0.1,0.5-0.5l-0.3,0.6c0.1,0.1-0.1,0,0.2,0.1c-0.4,0.5,0.1,0.5-0.4,1.8c0.3,1.3,3.1,2.5,3.3,0.2
		c-0.3,0.2-0.3,0.4-0.6,0.6c-1.4,0.6-1.8-0.4-2.2-1.1l0.2-0.1c0-0.5,0.1-0.8-0.2-1.3c0.3-0.2,0.2-0.2,0.6,0c0.2,0.4-0.1,1,0,1.5
		c0.1,0.3,0.5,0.7,0.9,0.8c0.5,0.1,0.9-0.4,0.9-0.8c0.1-0.7-0.1-0.9-0.6-1.1c-0.2,0.2-0.4,0.3-0.8,0.3c-0.1-0.2,0.2-0.4,0.3-0.7
		c-0.3-0.1-0.5-0.3-0.6-0.5c0.6-0.6,1.8,0.8,1.8,1.3c0,0,0.3,0.1,0-0.5c-0.3-0.6-0.5-0.7-0.9-1.2c1.6,0.2,2,3.1,1,4.1
		c-0.5,0.5-1.8,0.4-2.3,0c-0.4-0.3-0.5-0.5-0.8-0.7C26.3,65.5,26.5,65.8,26.2,65.7 M26.7,61.8l0.2,0.3c-0.3,0-0.2,0-0.3,0
		C26.5,61.8,26.5,61.9,26.7,61.8 M31.4,60.3c0.3,0,0.3-0.2,0.7,0c0.1,0.1,0.2,0.2,0.3,0.3c0.3,0.4,0.7,0.5,1.1,0.7
		c0.3,0.2,0.5,0.3,0.7,0.4l0.2,1.5c-0.5-0.4-1-0.6-0.8-1.2c0-0.1,0.1-0.2,0.2-0.3l-2.7-1.4C31.5,60.2,31.2,60.3,31.4,60.3
		 M32.7,60.5L32.7,60.5C32.7,60.5,32.7,60.5,32.7,60.5 M32.4,62.3c-0.1,0.1-0.8,0.9-0.8,0.2c0-0.6,1-1.4,1.9-0.7
		C33,62,32.7,62,32.4,62.3 M33.3,62.2v0.3c-0.8,0-0.5,0.3-1,0.5C32.3,62.6,32.8,62.4,33.3,62.2 M31.1,62.4c0.1-0.3,0.2-0.6,0.4-0.8
		c0.3-0.4,0.4-0.3,0.8-0.2c-0.3,0.3-1.2,1.1-0.7,1.5c0.1,0.1,0.2,0.1,0.4,0.1c0.1,0,0.1,0,0.1,0c0,0,0,0,0,0
		C31.6,63.6,30.9,63.3,31.1,62.4 M31.3,63.6c-0.1,0.3-0.2,0.3-0.2,0.6c-0.1,0.2-0.2,1.8-0.2,2.1c-0.1,0-0.2,0.2-0.2-0.6
		c0-1.2-0.3-1.9-0.3-2.2l0.6,0.3L31.3,63.6z M31.4,61.1c-0.4,0.5-0.2,0.2-0.5,0.6c-0.3-0.3-0.5-0.4-0.5-0.6l0.2-0.1
		c0.2-0.1,0.1-0.1,0.3-0.1C31,60.9,31.3,61,31.4,61.1 M29.8,61.2l0.2,0.1c0,0,0,0,0.1,0c0.2,0.1,0.3,0.1,0.4,0.3
		c0.7,1.1,0,2.2-0.7,1.4l0.2-0.1c0.5-0.1,0.5-0.5,0.2-0.9c-0.1-0.2-0.2-0.3-0.4-0.4c-0.4-0.3-0.2-0.2-0.3-0.4
		c-0.6,0.2-0.9,0.3-1.5,0.3c0.1-0.1,0-0.1,0.3-0.3c0.1-0.1,0.2-0.1,0.4-0.2c1.1-0.5,0.7-0.8,1.2-0.9c0.1,0,0.7,0.1,0.7,0.1
		L29.8,61.2z M28.4,61.8c1.4-0.8,2,0.4,1.9,0.8c-0.1,0.6-0.7-0.2-0.9-0.3C29.1,62,28.7,61.9,28.4,61.8 M28.5,62.2L28.5,62.2
		C28.5,62.2,28.5,62.2,28.5,62.2 M28.2,61.9l-0.4,0.1l0.3,0.3l-0.8,0.4c0.1-0.3,0.1-0.2,0-0.3l-0.1-0.1
		C27.3,62.2,27.6,61.4,28.2,61.9 M27.7,61.3c0,0.1-0.3,0.3-0.3,0.3l-0.4,0C27.4,61.5,27.4,61.4,27.7,61.3
		C27.7,61.3,27.7,61.3,27.7,61.3 M29,64.5c-0.2,0.4-0.3,0.4-0.9,0.4L28,64.3h0.5C28.6,64.3,29.3,63.9,29,64.5 M29.3,64.6
		c0.2,1-0.9,1.1-1.1,0.6C29.2,65.3,28.9,64.9,29.3,64.6 M30.4,66.4c0.4,0.1,0,0.2,0.7,0l0.4,0.6l-1.5,0C30,66.7,30.2,66.6,30.4,66.4
		 M32.6,65.3c0.4-0.1,0.4-0.4,0.7-0.8c0.1,0.1,0-0.2,0.1,0.2c0,0.2,0,0.6-0.2,0.8c-0.3,0.2-0.7,0.1-0.9,0
		C32.5,65.3,32.3,65.4,32.6,65.3 M32.4,65c0-0.2,0-0.3,0.2-0.4c0.1-0.1,0.2-0.2,0.4-0.2C32.9,64.8,32.7,65,32.4,65 M24.8,57.6
		c0.6-0.2,0.9,0.3,1,0.8c0.1,0.9-0.6,0.9-0.9,1C23.6,60,23.7,57.9,24.8,57.6 M37.2,48.4c0.3,0,0.4,0.1,0.5,0.2
		c-0.1,0.1-0.1,0.1-0.1,0.3L37.2,48.4z M42.9,50.8c-0.4-0.4-0.7-0.4-0.4-0.4c0.4,0,0.8,0,0.9,0.6l0,0.3L42.6,51
		C42.9,50.9,43,50.9,42.9,50.8 M43.7,52.9c0,0-0.2,0.2-0.2,0.2c-0.2,0.1-0.2,0.1-0.4,0.1l-0.5-0.9c0-0.3,0.4-0.2,0.2-0.3l-0.6-0.3
		l0-0.4C42.8,51.5,43.9,51.8,43.7,52.9 M44.4,52.6c-0.2-0.1-0.3-0.4-0.3-0.5c0.6,0.4,0.9,0.4,0.4,1.1l-0.4-0.1
		C44,52.9,44.6,52.7,44.4,52.6 M44.2,51.8l-0.5-0.1c0.4-0.2,0.3-0.2,0.2-0.3l-0.4-0.3l0.2-0.1C44.2,51.1,44.5,51.3,44.2,51.8
		 M42.8,53.8C42.8,53.8,42.8,53.8,42.8,53.8L42.8,53.8z M40.5,52.4c0,0,0.1-0.1,0.1-0.1c0-0.1,0.1-0.2,0.1-0.3c0,0,0-0.1,0-0.1
		c0.1,0,0.2-0.1,0.4,0c0.8,0,1.3,0.8,1.3,1.6c-0.4,0.1-0.9,0-1.2-0.1c-0.3-0.1-0.3-0.2-0.4-0.4l0.2-0.3
		C40.5,52.4,40.5,52.4,40.5,52.4 M42.3,51l-0.3-0.1c-0.6-0.5-0.4-0.6-0.6-0.7c-0.2-0.1-0.3-0.1-0.4-0.4c0.5,0,0.8,0.1,1.1,0.5
		C42.2,50.6,42.3,50.7,42.3,51 M41.4,51.8c-0.4-0.1-0.9-0.1-0.9-0.2v0c0-0.1,0-0.2-0.1-0.3l0,0C40,50.8,40,50.8,40,50.7
		C40.7,50.6,41.8,51.1,41.4,51.8 M39.6,53.4l-0.3,0c-0.1-0.2-0.1-0.4-0.1-0.6l0.5,0l0.4-0.1c0.3,0.4,0.6,1.6,0,1.8
		c-0.2,0.1-0.4,0-0.6,0c-0.3-0.1-0.3-0.1-0.3-0.4c0-0.2,0-0.3,0-0.5l0.3-0.1L39.6,53.4z M38.8,50c-0.3,0-0.3,0-0.4-0.1
		c0-0.1,0-0.2,0-0.2c0.1,0,0,0,0.1,0c0,0,0.1,0,0.1,0h0c0.1,0,0.2,0,0.3,0.1l0,0c0.1,0,0.1,0,0.1,0c0.5,0,0.6,0.5,0.6,0.9
		c-0.5,0.1-1,0.1-1-0.5c0.1,0,0.3,0,0.5,0C39,50.1,38.9,50,38.8,50 M39,51.1c0.3,0,0.6-0.1,0.9,0c0.3,0.3,0.5,1,0.1,1.4
		c-0.1,0.1,0,0.1-0.3,0.1c-0.2,0-0.3,0-0.4-0.1c-0.1-0.4-0.1-0.6-0.2-0.9C38.9,51.4,38.9,51.3,39,51.1 M40.1,50.4
		C40.1,50.3,40.1,50.3,40.1,50.4c0-0.1,0-0.2-0.1-0.2c-0.1-0.1-0.1-0.1-0.2-0.2c-0.1-0.1-0.1-0.1-0.2-0.2l0,0c0,0-0.1-0.1-0.1-0.2
		c0,0,0-0.2,0-0.2c0,0,0,0,0,0c0,0,0,0,0-0.1c0,0,0,0,0-0.1c0,0,0,0.1,0,0.1c0,0,0,0.1,0,0.1h0c0,0,0-0.1-0.1-0.1
		c0,0-0.1-0.1-0.1-0.1c0,0-0.1-0.1-0.2-0.1c0.1,0,0.1,0,0.1,0c0.4,0.2,1.3,0.8,1.5,1.4L40.1,50.4z M39.2,49.2c0.1,0,0.2,0.4,0,0.4
		c-0.1,0-0.1,0-0.2,0l0,0v0l0,0c0,0-0.2,0-0.3-0.1l0,0c-0.2,0-0.2-0.1-0.4,0l0,0l0,0l0,0l0-0.1c0.1-0.1,0.1-0.1,0.1-0.2
		C38.1,49,38.2,49,38,48.8c0.3,0,0.4,0.2,0.7,0.2c0.2,0,0.2,0,0.2,0c0,0,0.1,0,0.1,0C39.1,49.2,39.1,49.2,39.2,49.2 M41.9,55.8
		c0.3,0,0.3,0,0.5-0.1c0,0.4-0.2,0.6-0.5,0.7C42,56.1,42,56.1,41.9,55.8 M41.2,58.3l0.2-0.4c0.3,0.1,0.2,0.1,0.3,0.2L41.2,58.3z
		 M41.6,60.8c0,0.2,0,0.2,0,0.4c-0.2-0.1-0.1-0.2-0.3-0.2C41.5,60.7,41.5,60.7,41.6,60.8 M41.8,61.2c0-0.5-0.4-1.2,0.1-1.4l-0.1-0.2
		c0.3,0.1,0.5,0.2,0.6,1.1c0-0.7-0.1-1-0.6-1.2l0,0l0,0c0.2-0.2,0.3-0.2,0.4-0.3c0,0,0.1-0.1,0.1-0.1c0.3,0,0.5,0.6,0.5,0.6
		c0-0.3-0.1-0.5-0.4-0.7c0.1-0.1,0.2-0.1,0.5,0.2c0.5,0.4,0.4,0.9,0.2,1.4c-0.3,0.6-1.1,2.1-1.7,2.3L41.8,61.2z M42.3,58.4
		c0.2,0.2-0.1,0.3-0.2,0.4C42.1,58.6,42,58.5,42.3,58.4C42.2,58.4,42.2,58.4,42.3,58.4C42.2,58.4,42.2,58.4,42.3,58.4 M43.3,59.2
		c-0.2-0.3-0.5-0.3-0.6-0.6l0.8,0.4l-0.8-0.8c0.7-0.9,0.4-0.6,1.2-0.3c-0.6-1.4-0.4-1,0.2-1.2l-0.8-0.1l0.1-0.6l1,0.3L43.6,56
		c0.2-0.4,1.1-0.5,1.2,0.1c0.3,1.3-1,4-1.4,4.2L43.3,59.2z M7.4,37.5c0,0,0,0,0.4,0.4c0.4,0.3,0.1,0.2,0.4,0.5
		c0.2,0.2,0.4,0.3,0.6,0.6c-0.6,0-0.6-0.1-1.3-0.1V37.5z M12.5,30.6c0.1-0.3,0.1-0.6,0.2-0.9c0-0.1,0.1-0.2,0.1-0.2l0-0.1
		c0.1-0.4,0.2-0.8,0.3-1.2c0,0,0-0.1,0-0.1c0.3-1.3,0.5-2.6,0.8-4c0.2,0.8,0.3,1.7,0.5,2.5c0.1,0.6,0.2,1.2,0.4,1.7c0,0,0,0.1,0,0.2
		c0.2,1.5,0.8,3.1,1.1,4.7c0.4,2.1,1.3,4.5,1.3,4.8c0,0.1-0.2,0.4-0.2,0.5c-0.1,0.2-0.2,0.5-0.3,0.8c-0.5,1.6-1,3.2-1.2,4.8
		c-0.1,0-0.1,0-0.2,0h0c0,0,0,0-0.1,0c-0.3,0-0.5,0-0.7,0c-0.1,0-0.2,0-0.3,0c-0.1,0-0.2,0-0.4,0c-0.3,0-0.5,0-0.8,0l-2.1-6.3
		C11.5,35.5,12,33,12.5,30.6 M14.6,44.4c0.6,0,1.8,0.2,1.2,1.1l-0.2,0.2c0,0,0,0,0,0c0,0,0,0,0,0c-1,0.1-1.9,0.1-3,0.1
		c-0.1,0-0.2-0.1-0.2-0.1c-0.2-0.1-0.3-0.2-0.3-0.4c0-0.1,0-0.3,0.1-0.3C12.5,44.2,14.1,44.5,14.6,44.4 M15.5,47c-0.1,0-0.2,0-0.4,0
		c-0.8,0-1.8,0-2.5,0.1c0.1-0.3,0.1-0.6,0.1-1c0.9,0,1.9,0,2.8-0.1C15.4,46.4,15.4,46.7,15.5,47 M17.7,49.3c-0.3-0.2-0.1,0-0.1-0.3
		C17.7,49.2,17.7,49.1,17.7,49.3 M14.2,58.2c0.3,0.2,0.5,0.8,0.5,1.3c-0.5-0.5-0.6-0.3-1.2-0.5C13.1,58.3,13.8,57.9,14.2,58.2
		 M20.4,64.1c-0.9-0.3-1.6-1-2-1.9c-0.2-0.5-0.3-1.1-0.3-1.7c0.1-2,2.1-1.5,1.9-0.7c-0.1,0.7-1.1,0.6-1.3,0.6
		c0.3,0.2,0.1,0.1,0.3,0.2c-0.1,0.5-0.1,0.3,0,0.6c0.2,0.4,0,0.2,0.5,1.1c0.5,0.7,0.4,1.4,1,1.4l-0.7-1.9c0-0.7,0.8-1.5,1.4-1.2
		l-0.3,1.1c-0.2,0.3-0.3,0.7,0,1.1l0.4-0.2l0.3,1c0.1,0.3,0.4,0.6,0.5,0.8c-0.3-0.3-1-0.9-1.2-1.2c-0.1-0.2-0.2-0.3-0.4-0.4
		c0.8,1.2,1.4,2.5,2.5,3.1c-0.5,0-1.1-0.4-1.4-0.6C21,64.6,21.2,64.4,20.4,64.1 M19.2,61.7c-0.1-0.3-0.4-1.1,0.4-1
		c-0.2,0.6-0.2,0.6-0.2,1.2C19.2,61.7,19.4,62,19.2,61.7 M20.7,62.4c0-0.3,0-0.6,0.3-0.7C21.1,62.1,21.2,62.4,20.7,62.4 M32.4,67
		c0.9-0.5,1.6-0.1,2.3-1.9c0.2-0.6,0.4-1.2,0.3-1.9c0-0.5-0.2-0.9-0.2-1.2c0-0.1,0.2,0.1,0.2,0c0-0.2-0.2-0.4-0.3-0.6
		c0.2-0.5,0.6,0.5,1.1,0.6c0.3-0.4-0.9-0.7-0.6-0.9c0.2-0.1,1.2,0.4,1.3,0.8c-0.4,0.4-0.6,1.2-0.5,1.3c0,0,0.5-0.5,0.6-0.7
		c0.5-0.1,0.7,0.2,0.5,0.7c-0.2,0.1-0.8,0.2-1.3,0.9l-0.8,1.4c0.3-0.1,0.1,0,0.2-0.2c0,0,0,0,0,0c0.3-0.4,2-1.5,2.1-2.3l-0.2-1.4
		c0.3-0.3,0.6-0.4,0.8,0c0.1,0.1,0.2,0.3,0.2,0.5l-0.4,0l0,0.3c0.7,0.4,0.5-0.6,0.6-0.9c0.3-0.7,0.7-0.7,1.1-0.3
		c-0.2,0.3-0.5,0.7-0.6,1c0.3-0.1,0.6-0.6,0.9-0.5c-0.2,0.3-0.7,0.6-0.4,0.8l0.2,0.1c-0.6,0.5-1.3,1.6-2.2,2.5
		c-0.2,0.2-0.8,0.6-0.9,0.7l-0.1,0v0v0v0v0c0,0.1-0.3,0.2-0.5,0.3c-0.1,0-0.2,0.1-0.2,0.1c-0.4,0.2-0.2,0.1-0.3,0
		c0.3,0,2.2-1.7,2.4-2.2l0.3-1.1c-0.4,0.1-0.1,0.7-1.7,1.9c-0.1,0.1-0.6,0.4-0.7,0.5c-0.2,0.4,0.2,0-0.2,0.3
		c-0.1,0.1-0.3,0.2-0.4,0.2C33.9,66.6,33.7,66.6,32.4,67 M36.5,66.8C36.5,66.8,36.4,66.9,36.5,66.8C36.5,66.7,36.7,66.9,36.5,66.8
		 M35.2,67.2c0.3-0.1,0.7-0.2,1.1-0.2l0,1.3l-1.1,0L35.2,67.2z M38.2,65.6c0.3-0.2,0.5-0.3,0.7-0.4c0.5-0.3,1-0.6,1.4-0.9
		c1.1-0.8,1.6-1.3,2.4-2.4c0.9-1.2,2.8-4.1,2.5-5.8c0-0.3-0.2-0.6-0.2-0.9c0.5-0.4,0.1-0.2,0.4-0.4c0.4,0.9,0.3,0.8,0.4,1.6l0.4-4.2
		c1,0.1,1.3,1.3,1.2,1.8c-0.1,0.4-0.3,0.9-0.5,1.3c-0.2,0.5-0.6,0.9-0.4,1.1c0.2-0.3,0.8-1.3,0.9-1.6c0.1-0.2,0.1-0.5,0.2-0.6
		c0.2-0.2,0.5-0.1,0.5,0.2c0.1,0.9-3,5.1-3.5,5.7c-0.4,0.5-1.9,2.2-2.3,2.7c-0.9,1-3.9,3.2-5.1,3.3C37.6,65.8,37.7,65.8,38.2,65.6
		 M39.2,66l0.6-0.3l0.1,0.3H39.2z M40.6,65.5l0.3-0.1c0.2-0.1,0.2-0.1,0.3-0.1c0,0.1,0,0.1,0.1,0.2l0.2,0.2L40.6,65.5z M7.5,40
		C7.5,40,7.4,39.9,7.5,40L7.5,40z M9.9,39.9c0.1,0,0.2,0,0.3-0.1l0,0c0,0.3,0,0.2,0.1,0.5H9.9C10,40.2,10,40.1,9.9,39.9 M9,46.8
		c0-0.2-0.1-0.2,0.1-0.3l0.2-0.1c0.3-0.2,0.4-0.4,0.4-0.4c0.3-0.2,0.8-0.1,0.9,0.3c-1,0.1-0.6,0.1-0.9,0.3c-0.1,0-0.3,0-0.4,0.1
		C9.1,46.8,9.4,46.7,9,46.8 M9.1,45.8c0.2-0.3,0.2-0.6,0.7-0.5l-0.3,0.4c-0.5,0.6-0.5,0.8-1,0.8L9.1,45.8z M8.9,45.5L8.9,45.5
		C8.9,45.6,8.9,45.5,8.9,45.5 M19.5,65.7C19.5,65.8,19.5,65.8,19.5,65.7c-0.6,0.1-1,0.4-1,1c0,0.4,0,0.5-0.1,0.7c0-0.2,0-0.4,0-0.6
		c-0.1-0.3-0.1-0.7,0.5-1c0,0,0.1,0,0.1,0c0,0,0,0,0.1,0l0.2-0.1C19.4,65.7,19.5,65.7,19.5,65.7 M18,67.9L18,67.9c0,0.1,0,0.2,0,0.2
		h0C18,68,18.1,68,18,67.9c0,0.1,0.1-0.1,0.2-0.1c0.1,0,0.1-0.1,0.1-0.1c0.4-0.2,0.4-0.4,0.4-0.8c0-1,1.5-0.9,2.1-0.4
		C18.2,65.8,20,67.9,18,67.9C18.1,67.9,18.1,67.9,18,67.9 M25.8,68.8l0.3-0.1l0.3,0.5c2.1,0,4.2,0,6.3,0c0.8,0,0.7,0,1.5-0.1
		l-0.3,0.4c-0.3-0.1-6.1,0.1-7.8-0.1l-0.1-0.2c0,0,0-0.2-0.1-0.3L25.8,68.8L25.8,68.8C25.8,68.7,25.8,68.8,25.8,68.8 M32.2,70.9
		c-1.6,0-3.1,0-4.7,0l-0.2-1l6.4-0.1l-0.1,0.9C33,70.8,32.9,70.9,32.2,70.9 M32.4,71.2c-0.2,0.2-0.5,0.3-0.8,0.3
		c-0.5,0-2.3,0.1-2.7-0.1l-0.3-0.2C30,71.2,31,71.3,32.4,71.2 M38.6,68.2l-1.1-0.9c-0.1-0.1-0.2-0.1-0.2-0.1L37,67
		c1.1,0,1.7,0.2,2.7,0.6L38.9,67c1.1,0,1.6,0.4,2.4,0.9c-0.1,0.2-0.4,0.4-0.7,0.3c0,0.1,0.2,0.2,0.2,0.3c0,0,0,0,0,0
		c-0.1,0-0.1,0-0.2,0c-0.2,0-0.4-0.1-0.7-0.4l-0.3-0.3l0,0.4c0,0,0,0.1,0,0.1c0,0-0.1,0.1-0.1,0.1c-0.1,0-0.2,0-0.3,0
		C38.9,68.4,38.8,68.3,38.6,68.2 M51.8,61.1C51.8,61.1,51.8,61.1,51.8,61.1c0,0-0.1,0-0.1,0.1l-0.2,0.1l0,0c-0.6,0-2-0.3-2.2-0.4
		l2,0l0,0.1l0.3,0c0.1,0,0.2,0,0.2,0c0,0,0,0,0,0C51.8,61.1,51.8,61.1,51.8,61.1 M51,60.3l0.1,0c0,0,0,0,0,0c0.1,0,0.2,0.1,0.2,0.2
		c0,0,0,0.1,0.1,0.1c-0.1,0.2-0.6,0.2-0.9-0.2C50.6,60.4,50.8,60.3,51,60.3L51,60.3z M53.4,57.1l-1.1,0.5c0.2-0.3,1.3-1.2,1.7-1.3
		c0.9-0.4,2.5-0.3,2.7-0.1c0.1,0.1,0.1,0.2,0.1,0.3l0,0l-0.1,0.1c0,0,0,0-0.1,0c0,0,0,0,0,0l0,0.1l0.3,0c0.1,0,0.2,0,0.2,0.1
		c0.1,0,0.1,0.1,0.1,0.2c0,0.1,0,0.2,0,0.2c0,0,0,0-0.1,0.1l-0.2,0C56.4,57.3,54.6,56.6,53.4,57.1 M55.5,55.5c-1.2,0-3.6,2-4.4,2.9
		L50,59.7l1.6-2.2c0.2-0.3,0.7-0.7,1-1c0.3-0.3,0.2-0.5,0.9-0.7v0l0.5-0.3c0.3-0.1,0.7-0.3,1.1-0.3c0.3,0,0.6,0,0.8,0c0,0,0,0,0,0
		c0.1,0.1,0.3,0.2,0.4,0.4C56.6,56,55.6,56,55.5,55.5 M5.6,57.7L5.6,57.7L5.6,57.7z"/>
	<path class="st0" d="M21.2,47L21,47.5l0.6-0.8C21.5,46.9,21.3,46.9,21.2,47"/>
	<polygon class="st0" points="39.6,53.4 39.6,53.4 39.6,53.4 	"/>
	<path class="st0" d="M52.6,55.9l0.7-0.9C51.9,56.4,52,56.4,52.6,55.9"/>
	<path class="st0" d="M22.3,46l-0.6,0.8C22,46.6,22.3,46.4,22.3,46"/>
	<path class="st0" d="M22.8,44.8l0.1-0.1c0.1,0,0.1,0,0.2-0.1c0.2-0.1,0.2-0.1,0.4-0.2c0.4-0.2,0.8-0.8,1.1-1.2L22.8,44.8
		C22.8,44.8,22.8,44.8,22.8,44.8"/>
	<path class="st0" d="M17.2,43.5c0,0-0.1,0.1-0.1,0.2L17.2,43.5z"/>
	<path class="st0" d="M53.7,41.4c0,0.2,0,0.3,0,0.5C53.7,41.7,53.7,41.6,53.7,41.4"/>
	<path class="st0" d="M20.3,45.3C20.3,45.3,20.3,45.3,20.3,45.3"/>
	<path class="st0" d="M22.8,44.8L22.8,44.8C22.8,44.8,22.8,44.8,22.8,44.8"/>
	<path class="st0" d="M45.2,51.1c-0.1-0.1-0.4-0.2-0.5-0.2c-0.3,0-0.2,0-0.2,0.1c0.4,0,0.6,0.2,0.8,0.3
		C45.3,51.2,45.3,51.2,45.2,51.1"/>
	<path class="st0" d="M31.9,18.9c-0.5,0.2-0.3,0.1-0.5,0.4l0.1,0.6C31.7,19.7,31.9,19.1,31.9,18.9"/>
	<path class="st0" d="M39.2,23.8c0.4,0.3,0.5,0.3,1,0.1c-0.1-0.2-0.8-0.5-1-1l-0.3-1.7C38.2,21.4,38.3,23,39.2,23.8"/>
	<path class="st0" d="M40.8,58.9c-0.6,0-0.2,0.1-0.6,0.2c-0.2,0.1-0.2,0-0.3,0c-0.2,0-0.1,0-0.3,0.1c0,0.2,0,0.3,0.1,0.5l0.3-0.1
		c0.1-0.2,0.2-0.3,0.5-0.3l0.3,0C41,59.1,41,59.2,40.8,58.9"/>
	<path class="st0" d="M42.7,29.4c-0.6,0-0.6-0.2-1.3,0c-0.3,0.1-0.8,0.4-1,0.6c-0.4,0.1-0.5,0.2-1,0.4c-0.5,0.2-0.2,0-1.3,0.4
		c0.2,0.7,0.7,1.1,1.3,1.4c-2.1-1.6,0.3-1.1,1.1-2c0.5,0,1.5-0.4,1.5,0c-0.4,0-1.3,0.1-1.8,0.5c-0.3,0.2-0.6,0.4-0.9,0.6
		c0.6-0.2,1.2-0.6,1.9-0.8l-0.2,0.9c-0.2,0-0.4,0.1-0.5,0.1c0.3,0.1,0.6,0.2,1,0.1c0.2,0.1,0,0.4,0,0.5c0.6-0.7,0.5-0.6,0.6-1.2
		c0.1-0.1,0.2-0.2,0.3-0.3C42.8,30.4,43,29.8,42.7,29.4"/>
	<path class="st0" d="M39.7,26.4c-1.5,0.4-4.1,1.6-5.5,2.2l-2.1,1c-0.7-1.4-1.1-2.4-2.5-3.3c-0.4-0.2-0.9,0.2-1.2,0.5
		c0.2,0.1,0.1,0.1,0.3,0.2c1.6,0.4,2.2,2.2,3,3.6c0.2,0,3.7-1.8,4.3-2.1c1.6-0.7,1.8-0.8,3.5-1.4c0.6-0.3,0.9-0.3,1.2-0.4
		c0.2,0,0.6-0.3,1.2-0.4c2.9-0.8,6.1-0.8,9.3-1.5c-0.1-0.2-0.2-0.3-0.4-0.4c-0.3-0.1-0.4,0-0.7,0c-1.3,0.4-2.6,0.5-3.9,0.7
		C43.4,25.3,42.1,25.7,39.7,26.4"/>
	<path class="st0" d="M47.1,22.5c-0.1-0.3-0.1-0.3-0.4-0.4C46.7,22.3,46.8,22.5,47.1,22.5"/>
	<path class="st0" d="M39.9,24.4c-0.6,0.2-2.5,0.9-3.1,1.2c-0.5,0.2-1,0.4-1.5,0.6c-0.5,0.2-1.2,0.4-1.4,0.8c2-0.8,7-2.8,8.7-3
		c1.4-0.2,2-0.4,3.4-0.3c-0.2,0.1-0.2,0.1-0.5,0.2c-2.8,0.4-7,1.5-9.5,2.6c-0.5,0.2-1,0.4-1.5,0.6c-0.4,0.2-1.1,0.6-1.5,0.7
		l-0.9-1.2c-0.5-0.6-0.9-0.8-1-1.1c2.2-1,4.4-2.1,6.2-3.7c0.3-0.3,1.5-1.3,1.9-1.4c0.2-0.3,1.9-1.2,2-1.7l-1.9-0.3l-0.3,0.4
		c0,0,0,0,0,0c-0.1,0.7-1.1,1.9-1.6,2.2c-2,1.6-4.8,3.4-7.3,4.1c0.2,0.4,0.1,0.2,0.4,0.4c0.3,0.2,0.8,0.7,1.1,1c0.8,1,0.7,1,1.2,1.7
		c0.7-0.4,0.5-0.2,1-0.4c2.2-1,4.2-1.9,6.6-2.5c1.4-0.4,2.8-0.7,4.3-0.9c0.8-0.1,4.1-0.6,4.5-0.7L49,23.5c-0.2-0.1-1.1,0.1-1.4,0.1
		c-0.1,0.1-0.2,0.1-0.4,0.1c-0.2,0-0.3,0-0.4,0c0.7-0.5,0.9-0.8,0.8-1.1c-0.6,0.6-1.1,0.3-2.3,0.2c0.6,0.4,0.4,0.3,1.1,0.4
		c0.2,0.1,0.2,0,0.3,0.2l-0.8,0c-1.3-0.3-3.1-0.1-4.4,0.4C41,24,40.5,24.2,39.9,24.4 M39.9,19l0.7,0.1c-0.2,0.3-1.1,0.8-1.2,0.8
		C39.4,19.7,39.8,19.1,39.9,19"/>
	<path class="st0" d="M43.8,53.7c-0.7,0.4,0.1,1.5,0.7,1C45.2,54.2,44.5,53.3,43.8,53.7 M44.3,54.5c-0.2,0-0.2,0-0.3-0.1
		C43.7,53.6,44.6,53.9,44.3,54.5"/>
	<path class="st0" d="M47,31c0.1,0,0.1-0.1,0-0.2L46.4,30c0.1,0,0.3-0.1,0.4-0.2c0.3-0.1,0.7-0.3,0.7-0.4c0-0.1-0.1-0.1-0.2-0.1
		l-1.1,0.1c0,0,0-0.1,0-0.2c-0.1-0.4-0.2-0.9-0.3-0.9c-0.1,0-0.1,0-0.1,0.1l-0.1,1c-0.1,0-0.2,0-0.3,0c-0.3,0-0.5-0.1-0.7,0
		c-0.1,0-0.1,0.1-0.1,0.2c0,0.1,0.2,0.2,0.5,0.3c0.1,0.1,0.3,0.1,0.5,0.2c0,0.1-0.1,0.2-0.1,0.3c-0.1,0.3-0.3,0.7-0.2,0.8
		c0.1,0,0.1,0,0.2,0l0.6-0.7c0,0,0.1,0.1,0.1,0.1C46.4,30.7,46.9,31.1,47,31 M46,29.9l-0.5,0.8c0-0.1,0.1-0.2,0.2-0.3
		c0.1-0.1,0.2-0.3,0.3-0.5c-0.3-0.2-0.8-0.2-1.1-0.4c0.2,0,0.8,0.2,1.1,0.3l0-1.1c0.1,0.3,0,0.7,0.1,1l1-0.2c-0.1,0-0.2,0.1-0.3,0.1
		c-0.2,0.1-0.5,0.1-0.7,0.2l0.6,0.8C46.5,30.5,46.1,30,46,29.9"/>
	<path class="st0" d="M50.3,34c0-0.1-0.1-0.1-0.2,0l-0.9,0.4c0-0.1-0.1-0.2-0.1-0.3c-0.1-0.2-0.2-0.5-0.3-0.6
		c-0.1-0.1-0.2-0.1-0.2,0c-0.1,0.1,0,0.3,0,0.6c0,0.2,0,0.3,0,0.5c-0.1,0-0.2,0-0.3,0c-0.4,0-0.8,0.1-0.8,0.2c0,0.1,0,0.1,0.1,0.1
		l0.9,0.2c0,0,0,0.1,0,0.2c-0.1,0.4-0.2,1-0.1,1.1c0.1,0,0.1,0,0.2-0.1l0.5-0.9c0.1,0.1,0.2,0.2,0.3,0.3c0.3,0.2,0.6,0.5,0.6,0.4
		c0.1,0,0.1-0.1,0-0.2l-0.6-0.9c0,0,0.1-0.1,0.1-0.1C49.9,34.5,50.3,34.1,50.3,34 M49.8,35.6c-0.2-0.2-0.5-0.5-0.8-0.7l-0.4,1
		c0.1-0.3,0.3-0.7,0.4-1L48,34.8c0.3,0,0.6,0.1,0.9,0c0-0.4-0.2-0.8-0.2-1.1c0.2,0.2,0.2,0.8,0.3,1.1l0.9-0.5
		c-0.2,0.2-0.7,0.5-0.8,0.6L49.8,35.6z"/>
	<path class="st0" d="M49.2,38.6l-1,0.1c0-0.1,0-0.2,0-0.3c0-0.3,0-0.5-0.1-0.7c-0.1-0.1-0.1-0.1-0.2-0.1c-0.1,0.1-0.1,0.3-0.2,0.5
		c0,0.2-0.1,0.3-0.1,0.5c-0.1,0-0.2,0-0.3-0.1c-0.4-0.1-0.8-0.1-0.8,0c0,0.1,0,0.1,0.1,0.2l0.9,0.4c0,0,0,0.1-0.1,0.1
		c-0.2,0.4-0.5,0.9-0.4,1c0,0,0.1,0,0.2,0l0.7-0.8c0.1,0.1,0.2,0.2,0.2,0.4c0.2,0.3,0.4,0.6,0.5,0.6c0.1,0,0.1-0.1,0.1-0.2l-0.3-1
		c0,0,0.1-0.1,0.2-0.1c0.3-0.2,0.8-0.4,0.8-0.5C49.3,38.6,49.2,38.6,49.2,38.6 M47.9,39.1l0.4,0.9c0-0.1-0.1-0.2-0.1-0.2
		c-0.1-0.2-0.2-0.5-0.4-0.6L47.1,40c0.2-0.3,0.5-0.6,0.6-0.9l-0.9-0.4c0.2,0.1,0.7,0.3,0.9,0.3c0.1-0.4,0.1-0.8,0.1-1.2
		C47.9,38.2,47.9,38.8,47.9,39.1l1-0.4C48.6,38.9,48.2,39,47.9,39.1"/>
	<path class="st0" d="M37.3,56.2c0.3-0.1,0.2,0,0.2-0.3c-0.6,0-0.2,0.1-1.1,0c0.1,0.3,0,0.1,0.2,0.3C36.8,56.2,36.9,56.3,37.3,56.2"
		/>
	<path class="st0" d="M38.8,55.8l-0.3-1c-0.4,0.2,0,0.6,0.1,0.8C38.7,55.8,38.6,55.7,38.8,55.8"/>
	<path class="st0" d="M38.7,57.1c0,0.2,0,0.5,0.1,0.7l-0.5,0.2c-0.3,0.1-0.1,0-0.2,0.2c0.5,0.3,0.1,0,0.5,0c0,0,0.2,0,0.3,0l0.2,0.2
		l0.5-0.4C39.5,57.5,39.2,57.3,38.7,57.1"/>
	<path class="st0" d="M37.3,22.5c-0.5,0.5-1.3,1-2,1.4c-0.5,0.3-0.9,0.5-1.5,0.8c-0.2,0.1-1.4,0.7-1.5,0.8c0.9,0.6,1,0.5,1.1,1.4
		c0.3,0,2.3-1,2.7-1.2c0.4-0.2,2.4-1.1,2.6-1.2c-0.8-1.2-0.7-1-0.8-2.5C37.4,22.3,37.7,22.2,37.3,22.5 M33.9,26.4
		c-0.1-0.3-0.3-0.6-0.5-0.8c0.2-0.2,0.5-0.3,0.7-0.4l0.4,0.9L33.9,26.4z M35.1,25.9c-0.1-0.1-0.4-0.7-0.5-0.9l0.5-0.2l0.4,0.9
		L35.1,25.9z M36.1,25.4l-0.6-1l0.6-0.4l0.6,1C36.6,25.3,36.4,25.4,36.1,25.4 M36.6,24.4c-0.2-0.6,0.4-1,0.8-1.1l0.6,1.2
		C37.7,24.9,36.8,25,36.6,24.4"/>
	<path class="st0" d="M10.2,55.4c0-0.2-1.1-2.7-1.3-3.3c-0.6-1.8-1.9-5.5-2.1-7.4c-0.3-2.4,0.5-2.7-0.1-3.6c-0.1-0.2,0,0-0.1-0.3
		l-0.1-0.2C5.9,41,6,41.8,6.1,42.5c0.3,3.7,1,6.4,2.4,9.8C8.8,53,9.7,55.2,10.2,55.4"/>
	<path class="st0" d="M44.8,21.5c-0.2,0.4-0.8-0.2-0.9-0.2l-0.2,0.2c0.2,0.1,0.4,0.1,0.7,0.2c0.2,0,0.2,0.1,0.3,0.1l0.4,0.1
		c0.6-0.7-0.5-1.5-1.2-1.2c-0.2,0.1-0.5,0.3-0.5,0.5l0.8-0.2C44.4,21.2,44.6,21.4,44.8,21.5"/>
	<path class="st0" d="M36.6,57.1c-0.1,0.2-0.1,0.6-0.2,1.1c0.6-0.1,0.2-0.3,0.4-0.5l0-0.3l0.9-0.4l-0.2-0.3
		C37.1,56.7,36.8,56.9,36.6,57.1"/>
	<path class="st0" d="M40.4,57.9l-0.1-0.4l0.2-0.1c-0.1-0.5-0.2,0-0.2-0.5c-0.1-0.1,0.1-0.1-0.2-0.1c-0.1,0.2-0.5,0.2-0.3,0.6
		C39.8,57.6,40.1,57.9,40.4,57.9"/>
	<path class="st0" d="M22.3,62c0.2,0.2,0.1,0.4,0.5,0.5c-0.2-0.6-0.3-0.8-0.8-1C22,61.7,22.2,61.8,22.3,62"/>
	<path class="st0" d="M41,56l-0.2-0.1c-0.1,0.1-0.4,0.5-0.4,0.6C40.8,56.4,40.9,56.3,41,56"/>
	<polygon class="st0" points="45.7,32.3 45.7,32.2 45.6,32.2 	"/>
	<path class="st0" d="M38.2,56.6c0,0,0.2,0,0.1-0.1c-0.1-0.1-0.1-0.1-0.2-0.1c-0.1-0.1-0.1-0.1-0.2-0.3c0,0,0,0,0,0c0,0,0,0,0,0
		c0,0-0.2,0-0.2,0.1c0,0,0,0,0,0c0,0,0,0,0,0c0.1,0.2,0.2,0.3,0.3,0.3C38.1,56.5,38.1,56.5,38.2,56.6"/>
	<path class="st0" d="M42.2,56.6c-0.1,0-0.1,0.1-0.1,0.1c0,0.1,0,0.1,0.1,0.1C42.2,56.8,42.3,56.8,42.2,56.6
		C42.3,56.7,42.2,56.6,42.2,56.6"/>
	<path class="st0" d="M50.7,62c-0.3-0.3-1.1-0.5-1.9-0.1C50.3,61.5,50.3,61.9,50.7,62"/>
	<path class="st0" d="M54.4,56.6c-0.4,0.1,1-0.3,2.4,0.4C56.8,56.7,55.5,56.2,54.4,56.6"/>
	<path class="st0" d="M15.9,38.2c0.6,0,0.3,0,0.6-0.1c0,0,0,0,0-0.1c0,0-0.3-0.1-0.6-0.1c-0.3,0-0.7,0-1,0.1c-0.3,0-0.5,0.1-0.6,0.2
		c-0.2,0.2-0.2,1.3-0.2,2.2c0,0.4,0,1,0,1.2C14.6,40.1,14.2,38.5,15.9,38.2"/>
	<path class="st0" d="M14,41.7c0-0.3,0-0.9,0-1.2c0-0.9,0-2.1-0.2-2.2c-0.1-0.1-0.3-0.1-0.6-0.2c-0.3,0-0.7-0.1-1-0.1
		c-0.3,0-0.6,0-0.6,0.1h0c0,0,0,0,0,0.1C14.6,38.4,13.2,38.3,14,41.7"/>
	<path class="st0" d="M14.4,35.3c0,0.9,0,2.1,0.2,2.2c0.1,0.1,0.3,0.1,0.6,0.2c0.3,0,0.7,0.1,1,0.1c0.3,0,0.6,0,0.6-0.1
		c0,0,0,0,0-0.1c-0.4-0.1-1.9-0.1-2-0.2c0,0-0.2-2.8-0.3-3.4C14.4,34.3,14.4,34.9,14.4,35.3"/>
	<path class="st0" d="M21,18.3c-0.6,0.7-1.5,1.9-2,2.8l-0.5,1.1l0.5-0.9c0.2-0.4,2.6-3.3,2.7-3.2c0.4,0,0.6,0,1,0
		c-0.3,0.1-1.1,0.9-1.8,2.2c0.7-1.1,2.1-2,2.1-2c0.3,0.2,0.5,0.3,0.8,0.5c-0.5,0.2-1,0.9-1.2,1.4c0.4-0.4,1-1.1,1.6-1.1l0,0
		C24.7,19.6,25,20,25,20l0.7,0c0-0.2-2.2-2.8-4.3-2.1C21.4,17.9,21,18.2,21,18.3"/>
	<path class="st0" d="M42,18.9c-0.1,0.3,0.3,0.5,0.6,0.7c-0.3,0.1-0.6,0.1-1,0.1c-1.1,0-2.1,0-2.2,2c0,0.7,0.5,1.3,1.2,1.6
		c0.3,0.1,0.5,0.2,0.8,0.3c0.3,0,0.6,0,0.8-0.1c0.5-0.2,0.9-0.6,1-1.4c0.1-0.8-0.2-1.3-0.7-1.6c-0.1,0-0.2-0.1-0.2-0.1
		c0.1-0.1,0.2-0.2,0.3-0.3c0.1-0.1,0.2-0.2,0.2-0.3c0.1,0,0.2-0.1,0.3-0.1l0.1-0.1L43,19.5C42.9,19.4,42.4,19.4,42,18.9 M41.7,20
		h0.1c0,0,0,0.1,0,0.1c0,0-0.1,0.1-0.1,0.3c-0.1,0-0.2,0-0.3,0c0-0.1,0-0.2,0-0.2c0-0.1,0-0.1,0-0.2C41.4,20,41.5,20,41.7,20
		 M41.8,21.9c-0.1,0-0.1,0-0.2,0c-0.1-0.1-0.3-0.2-0.3-0.3c0-0.2,0.1-0.3,0.2-0.4c0.1,0,0.2,0,0.3,0c0.1,0,0.3,0.1,0.4,0.2
		c0.1,0.1,0.1,0.2,0.2,0.3c-0.1,0-0.1,0-0.2,0c0,0,0,0,0-0.1c0-0.1-0.1-0.1-0.1-0.2c-0.1,0-0.2-0.1-0.3-0.1
		C42,21.6,42.2,21.9,41.8,21.9 M41.3,20.7c0,0.1,0,0.2,0,0.3c-0.1,0.1-0.1,0.1-0.2,0.2c-0.1-0.1-0.2-0.1-0.2-0.1
		c0,0-0.1-0.1-0.1-0.1c0-0.1,0.1-0.1,0.2-0.2C41.1,20.7,41.2,20.7,41.3,20.7C41.3,20.7,41.3,20.7,41.3,20.7 M41.2,21.9
		c0.1,0.1,0.1,0.1,0.2,0.2c-0.1,0.1-0.1,0.2-0.1,0.3l0,0.1c-0.2-0.1-0.4-0.2-0.5-0.4c0,0,0.1,0,0.1,0C40.9,22,41.1,22,41.2,21.9
		 M42.1,20.9C42.1,20.9,42,20.9,42.1,20.9c-0.1,0-0.1,0-0.1,0c-0.2,0-0.3,0-0.4,0c0-0.1,0-0.1,0-0.1c0,0,0-0.1,0-0.1
		c0.1,0,0.1,0,0.2,0c0.2,0,0.4,0,0.6,0.1C42.2,20.8,42.1,20.8,42.1,20.9 M41.1,20c0,0,0,0.1,0,0.2c0,0,0,0.2,0,0.3
		c-0.1,0-0.2,0.1-0.3,0.1c0,0,0,0-0.1,0.1c0-0.1,0-0.2,0-0.3c0-0.1,0-0.3,0-0.4C40.8,20,41,20,41.1,20 M40.7,21.1
		C40.7,21.1,40.7,21.2,40.7,21.1c0.1,0.1,0.2,0.3,0.3,0.3c0,0,0,0.1,0,0.1c0,0.1,0,0.1,0,0.2c-0.1,0-0.2,0.1-0.3,0.1
		c-0.1,0-0.1,0-0.2,0C40.6,21.6,40.6,21.3,40.7,21.1 M40.5,20.1c0,0.1,0,0.2,0,0.2c0,0.1-0.1,0.4,0,0.6c0,0,0,0.1-0.1,0.1
		c0-0.1-0.2-0.2-0.2-0.3c-0.1-0.1-0.2-0.2-0.2-0.2C40.1,20.3,40.3,20.2,40.5,20.1 M39.9,20.7c0,0,0.1,0.1,0.2,0.2
		c0,0,0.2,0.3,0.3,0.3c0,0.1,0,0.2,0,0.3c-0.1-0.1-0.2-0.1-0.3-0.2c-0.1,0-0.2-0.1-0.2-0.1C39.8,21.1,39.9,20.9,39.9,20.7
		 M39.8,21.7c0-0.1,0-0.2,0-0.2c0,0,0.1,0,0.2,0.1c0,0,0.3,0.2,0.4,0.2c0,0.1,0,0.2,0,0.3c-0.1,0-0.2,0-0.3,0c-0.1,0-0.2,0-0.3,0
		C39.8,21.8,39.8,21.8,39.8,21.7 M39.8,22.1c0,0,0.1,0,0.2,0c0,0,0.3,0.1,0.5,0.1c0.1,0.1,0.1,0.2,0.2,0.2c-0.1,0-0.2,0-0.3,0
		c-0.1,0-0.3,0-0.3,0.1C40,22.4,39.9,22.3,39.8,22.1 M41,23.2c-0.1,0-0.2-0.1-0.2-0.1c-0.2-0.1-0.4-0.2-0.5-0.4c0.1,0,0.1,0,0.2,0
		c0.1,0,0.4,0,0.6,0c0,0,0.1,0,0.1,0.1c0,0,0.1,0,0.1,0.1c-0.1,0.1-0.1,0.2-0.2,0.3C41.1,23.1,41.1,23.1,41,23.2 M41.9,23.2
		c0,0,0,0.1,0,0.1c-0.1,0-0.2,0-0.4,0c-0.1,0-0.2,0-0.3-0.1c0,0,0-0.1,0.1-0.1c0,0,0.2-0.2,0.3-0.3c0,0,0.1,0,0.1,0
		c0.1,0,0.2,0,0.3,0C41.9,23,41.9,23.2,41.9,23.2 M41.7,22.6c-0.1,0-0.2,0-0.3-0.1c0,0,0,0,0,0c0-0.1,0.1-0.2,0.1-0.3
		c0.1,0,0.2,0,0.3,0c0,0,0,0,0,0c0,0.1,0.1,0.2,0.2,0.3c0,0,0,0.1,0,0.1C41.9,22.6,41.8,22.6,41.7,22.6 M42.1,22.1
		c0.1-0.1,0.1-0.1,0.2-0.2c0.1,0,0.2,0,0.2,0l0,0c0,0.1,0,0.2-0.1,0.3c0,0.1-0.1,0.2-0.2,0.2c0,0,0,0,0-0.1
		C42.1,22.3,42.1,22.2,42.1,22.1C42.1,22.1,42.1,22.1,42.1,22.1 M42.2,23.2c0,0-0.1,0-0.1,0L42.2,23.2c-0.1-0.1,0.1-0.3,0.1-0.5
		c0.1,0,0.2-0.1,0.3-0.2l0,0c0.1,0.1,0.1,0.2,0.2,0.3C42.6,23,42.4,23.2,42.2,23.2 M42.8,22.6c-0.1-0.1-0.1-0.1-0.1-0.2
		c0,0,0-0.1,0-0.1c0,0,0,0,0,0c0-0.1,0.1-0.2,0.1-0.3c0.1,0,0.1,0.1,0.2,0.1C42.9,22.3,42.9,22.5,42.8,22.6 M42.9,21.4
		c0.1,0.1,0.1,0.3,0.1,0.5c-0.1,0-0.1,0-0.2-0.1l-0.1,0c0-0.1,0-0.3-0.1-0.4C42.7,21.5,42.8,21.5,42.9,21.4 M42.4,20.8
		c0.2,0.1,0.3,0.2,0.4,0.4c-0.1,0-0.2,0.1-0.2,0.1l-0.1,0c0,0-0.1-0.1-0.1-0.1c-0.1-0.1-0.1-0.1-0.2-0.2
		C42.3,21,42.4,20.9,42.4,20.8 M42.4,20c0,0-0.3,0.2-0.3,0.4c-0.1,0-0.1,0-0.2,0c0-0.1,0-0.1,0.1-0.2c0-0.1,0-0.1,0.1-0.2
		C42.1,20,42.3,19.9,42.4,20C42.4,20,42.4,20,42.4,20"/>
	<path class="st0" d="M32.4,14.8c0-0.3-0.1-0.2-0.5-0.3c0,0,0,0,0,0C31.8,14.7,32.2,14.9,32.4,14.8"/>
	<path class="st0" d="M34.1,16c0.1,0,0.2,0,0.2,0c0-0.1,0-0.1-0.1-0.2c-0.1,0-0.2,0-0.2,0.1C34,15.9,34,16,34.1,16"/>
	<path class="st0" d="M30.7,15c-0.4,0.1-0.8,1.2-0.3,1.7c-0.2-0.4-0.1-1.5,0.2-1.4c0,0.1,0,0.2,0.1,0.3l0,0
		C30.7,15.5,30.8,14.9,30.7,15"/>
	<path class="st0" d="M28.6,16.8c0-0.2-0.1-0.4-0.4-0.4C28.3,16.6,28.4,16.7,28.6,16.8"/>
	<path class="st0" d="M24.3,17.4c0.1-0.3-0.2-0.5-0.5-0.4C24,17.1,24.3,17.2,24.3,17.4"/>
	<path class="st0" d="M24.9,17c0.3,0.1,0.5,0.2,0.5,0.4C25.5,17.1,25.2,17,24.9,17"/>
	<path class="st0" d="M25.8,18.1c0.3,0.1,0.5,0.2,0.5,0.4C26.4,18.2,26.1,18.1,25.8,18.1"/>
	<path class="st0" d="M24.5,18.4c0.2-0.5-0.4-0.7-0.8-0.8C24.3,17.8,24.5,18.3,24.5,18.4"/>
	<path class="st0" d="M27,18.4c0.2-0.5-0.4-0.7-0.8-0.8C26.8,17.8,27,18.3,27,18.4"/>
	<path class="st0" d="M28,17C28.1,17.8,28.8,17,28,17"/>
	<path class="st0" d="M27.4,18.1c0-0.1-0.1-0.2-0.3-0.3c0,0.1,0.2,0.4,0.2,0.5C27.4,18.3,27.4,18.2,27.4,18.1"/>
	<path class="st0" d="M28.4,16.1c0-0.1-0.1-0.2-0.2-0.2C28.3,16,28.3,16,28.4,16.1"/>
	<path class="st0" d="M26.6,15.7c0.1,0.1,0.2,0.2,0.2,0.4c0.3,0.2,0.2-0.3,0-0.6c-0.2-0.2-0.5-0.3-0.9-0.3c-0.7,0.1-1.8,0.6-2.2,1.3
		C24.6,15.9,25.9,14.9,26.6,15.7"/>
	<path class="st0" d="M28.9,15.8c0.2-0.5,0.7-0.7,0.9-1.1c0-0.1,0.1-0.2,0.2-0.4c0.1-0.2,0.2-0.3,0.3-0.4c0.1-0.1,0.2-0.2,0.4-0.2
		c0.5-0.3,0.4-0.4-0.1-0.2c-0.2,0.1-0.3,0.2-0.4,0.3c-0.1,0.1-0.2,0.2-0.3,0.4c-0.1,0.2-0.2,0.3-0.2,0.4c-0.1,0.3-0.6,0.5-0.9,1
		C28.6,16.1,28.7,16.6,28.9,15.8"/>
</g>
<g>
	<path class="st1" d="M75,29.5c-0.7,0-0.9,0.2-1,0.7c0,0.3-0.1,0.8-0.1,1.8v0.9c0,1.3-0.2,2.3-0.8,2.9c-0.5,0.5-1.3,0.8-2,0.8
		c-0.7,0-1.3-0.2-1.8-0.5c-0.7-0.5-1-1.3-1-2.7v-2.8c0-1-0.1-1-1-1.1v-0.3h2.9v0.3c-0.9,0.1-1,0.1-1,1.1v2.5c0,1.8,0.7,2.8,2.1,2.8
		c1.6,0,2.1-1.4,2.1-3.2V32c0-1,0-1.5-0.1-1.8c-0.1-0.4-0.3-0.6-1.1-0.6v-0.3H75V29.5z"/>
	<path class="st1" d="M80.9,31.6c-0.5,0-0.7,0.1-0.8,0.5c0,0.3-0.1,0.7-0.1,1.4v3h-0.4l-3.4-4.1h0v1.8c0,0.8,0,1.2,0.1,1.4
		c0,0.3,0.2,0.4,0.9,0.5v0.3h-2.2v-0.3c0.5,0,0.7-0.1,0.8-0.5c0-0.3,0.1-0.7,0.1-1.5v-1.5c0-0.9-0.2-1.1-0.9-1.2v-0.3h1.5l3.2,3.6h0
		v-1.4c0-0.8,0-1.1-0.1-1.4c0-0.4-0.2-0.5-0.9-0.5v-0.3h2.2V31.6z"/>
	<path class="st1" d="M81.7,36.4v-0.3c0.7-0.1,0.8-0.1,0.8-0.9v-2.7c0-0.8-0.1-0.9-0.8-0.9v-0.3h2.5v0.3c-0.7,0.1-0.8,0.1-0.8,0.9
		v2.7c0,0.8,0.1,0.9,0.8,0.9v0.3H81.7z"/>
	<path class="st1" d="M90.7,31.6c-0.6,0.1-0.7,0.2-1.1,0.9c-0.3,0.6-1,2.4-1.7,4.1h-0.3c-0.6-1.5-1.4-3.3-1.8-4.3
		c-0.2-0.6-0.4-0.6-0.9-0.7v-0.3h2.4v0.3l-0.3,0.1c-0.3,0.1-0.3,0.1-0.2,0.5c0.2,0.5,0.8,1.9,1.3,3.2c0.4-1,1-2.5,1.2-3.1
		c0.1-0.4,0.1-0.5-0.3-0.5l-0.2,0v-0.3h2V31.6z"/>
	<path class="st1" d="M95.9,35.1c-0.1,0.3-0.2,1.2-0.3,1.4h-4.3v-0.3c0.8-0.1,0.8-0.1,0.8-0.9v-2.7c0-0.8-0.1-0.9-0.8-0.9v-0.3h4
		c0,0.2,0,0.8,0.1,1.3l-0.3,0c-0.1-0.3-0.2-0.5-0.3-0.7c-0.1-0.2-0.3-0.3-0.9-0.3h-0.6c-0.3,0-0.3,0-0.3,0.3v1.6h0.8
		c0.7,0,0.7-0.1,0.8-0.6H95v1.7h-0.3c-0.1-0.6-0.2-0.6-0.8-0.6h-0.8v1.3c0,0.4,0.1,0.6,0.2,0.7c0.1,0.1,0.4,0.1,0.9,0.1
		c0.6,0,0.9-0.1,1.1-0.3c0.1-0.2,0.3-0.4,0.4-0.8L95.9,35.1z"/>
	<path class="st1" d="M102,36.5h-0.3c-0.9,0-1.2-0.2-1.6-0.7c-0.2-0.4-0.6-0.9-0.7-1.2c-0.2-0.3-0.3-0.4-0.8-0.4h-0.2v1
		c0,0.8,0.1,0.8,0.8,0.9v0.3h-2.5v-0.3c0.7-0.1,0.8-0.1,0.8-0.9v-2.8c0-0.8-0.1-0.8-0.8-0.9v-0.3h2.5c0.6,0,1,0.1,1.3,0.3
		c0.3,0.2,0.6,0.6,0.6,1.1c0,0.7-0.5,1.1-1.1,1.3c0.1,0.2,0.5,0.8,0.7,1.2c0.3,0.4,0.4,0.6,0.6,0.8c0.2,0.2,0.4,0.3,0.6,0.4
		L102,36.5z M98.9,33.9c0.3,0,0.6,0,0.8-0.2c0.3-0.2,0.4-0.5,0.4-0.9c0-0.8-0.5-1.1-1.2-1.1c-0.5,0-0.5,0.1-0.5,0.4v1.8H98.9z"/>
	<path class="st1" d="M105.7,32.7c-0.2-0.7-0.5-1.2-1.2-1.2c-0.5,0-0.8,0.4-0.8,0.8c0,0.6,0.4,0.8,1,1l0.2,0.1
		c0.7,0.3,1.4,0.7,1.4,1.6c0,0.9-0.8,1.6-1.9,1.6c-0.7,0-1.2-0.3-1.5-0.4c-0.1-0.2-0.2-0.8-0.3-1.4l0.3-0.1c0.2,0.6,0.7,1.5,1.5,1.5
		c0.5,0,0.9-0.4,0.9-0.9c0-0.6-0.5-0.9-0.9-1l-0.2-0.1c-0.6-0.3-1.4-0.7-1.4-1.5c0-0.9,0.7-1.6,1.9-1.6c0.5,0,0.9,0.1,1.1,0.2
		c0.1,0.3,0.1,0.7,0.2,1.3L105.7,32.7z"/>
	<path class="st1" d="M107.1,36.4v-0.3c0.7-0.1,0.8-0.1,0.8-0.9v-2.7c0-0.8-0.1-0.9-0.8-0.9v-0.3h2.5v0.3c-0.7,0.1-0.8,0.1-0.8,0.9
		v2.7c0,0.8,0.1,0.9,0.8,0.9v0.3H107.1z"/>
	<path class="st1" d="M113.1,31.3c1,0,1.8,0.2,2.3,0.7c0.4,0.4,0.7,1,0.7,1.7c0,1.9-1.5,2.8-3.4,2.8h-2.2v-0.3
		c0.7-0.1,0.8-0.1,0.8-0.9v-2.7c0-0.8-0.1-0.9-0.7-0.9v-0.3H113.1z M112.2,35.2c0,0.7,0.2,0.9,0.8,0.9c1.3,0,2-0.9,2-2.2
		c0-1.6-0.9-2.2-2.1-2.2c-0.3,0-0.5,0.1-0.6,0.1c-0.1,0.1-0.1,0.2-0.1,0.5V35.2z"/>
	<path class="st1" d="M120,36.4v-0.3l0.2,0c0.3,0,0.4-0.1,0.2-0.5l-0.3-0.8h-1.8c-0.1,0.2-0.2,0.5-0.3,0.8c-0.1,0.4,0,0.5,0.3,0.6
		l0.3,0v0.3h-2v-0.3c0.5-0.1,0.7-0.1,1.1-0.9l1.6-4l0.3-0.1l1.7,4.3c0.3,0.7,0.5,0.7,1,0.8v0.3H120z M119.2,32.4L119.2,32.4l-0.8,2
		h1.5L119.2,32.4z"/>
	<path class="st1" d="M125.6,31.3c1,0,1.8,0.2,2.3,0.7c0.4,0.4,0.7,1,0.7,1.7c0,1.9-1.5,2.8-3.4,2.8H123v-0.3
		c0.7-0.1,0.8-0.1,0.8-0.9v-2.7c0-0.8-0.1-0.9-0.7-0.9v-0.3H125.6z M124.7,35.2c0,0.7,0.2,0.9,0.8,0.9c1.3,0,2-0.9,2-2.2
		c0-1.6-0.9-2.2-2.1-2.2c-0.3,0-0.5,0.1-0.6,0.1c-0.1,0.1-0.1,0.2-0.1,0.5V35.2z"/>
	<path class="st1" d="M134.1,35.1c-0.1,0.3-0.2,1.2-0.3,1.4h-4.3v-0.3c0.8-0.1,0.8-0.1,0.8-0.9v-2.7c0-0.8-0.1-0.9-0.8-0.9v-0.3h4
		c0,0.2,0,0.8,0.1,1.3l-0.3,0c-0.1-0.3-0.2-0.5-0.3-0.7c-0.1-0.2-0.3-0.3-0.9-0.3h-0.6c-0.3,0-0.3,0-0.3,0.3v1.6h0.8
		c0.7,0,0.7-0.1,0.8-0.6h0.3v1.7h-0.3c-0.1-0.6-0.2-0.6-0.8-0.6h-0.8v1.3c0,0.4,0.1,0.6,0.2,0.7c0.1,0.1,0.4,0.1,0.9,0.1
		c0.6,0,0.9-0.1,1.1-0.3c0.1-0.2,0.3-0.4,0.4-0.8L134.1,35.1z"/>
	<path class="st1" d="M142.2,30.9c-0.1-0.4-0.2-0.7-0.3-0.9c-0.2-0.3-0.4-0.4-1.3-0.4h-0.8c-0.3,0-0.4,0-0.4,0.4v2.7h1.2
		c1,0,1.1-0.1,1.2-0.8h0.3v2.2h-0.3c-0.1-0.8-0.2-0.9-1.2-0.9h-1.2v2c0,1,0.1,1,1.1,1.1v0.3h-3v-0.3c0.9-0.1,1-0.1,1-1.1v-4.5
		c0-1-0.1-1-0.9-1.1v-0.3h4.9c0,0.4,0.1,1.1,0.1,1.6L142.2,30.9z"/>
	<path class="st1" d="M147.8,35.1c-0.1,0.3-0.2,1.2-0.3,1.4h-4.3v-0.3c0.8-0.1,0.8-0.1,0.8-0.9v-2.7c0-0.8-0.1-0.9-0.8-0.9v-0.3h4
		c0,0.2,0,0.8,0.1,1.3l-0.3,0c-0.1-0.3-0.2-0.5-0.3-0.7c-0.1-0.2-0.3-0.3-0.9-0.3h-0.6c-0.3,0-0.3,0-0.3,0.3v1.6h0.8
		c0.7,0,0.7-0.1,0.8-0.6h0.3v1.7h-0.3c-0.1-0.6-0.2-0.6-0.8-0.6H145v1.3c0,0.4,0.1,0.6,0.2,0.7c0.1,0.1,0.4,0.1,0.9,0.1
		c0.6,0,0.9-0.1,1.1-0.3c0.1-0.2,0.3-0.4,0.4-0.8L147.8,35.1z"/>
	<path class="st1" d="M151.2,31.3c1,0,1.8,0.2,2.3,0.7c0.4,0.4,0.7,1,0.7,1.7c0,1.9-1.5,2.8-3.4,2.8h-2.2v-0.3
		c0.7-0.1,0.8-0.1,0.8-0.9v-2.7c0-0.8-0.1-0.9-0.7-0.9v-0.3H151.2z M150.3,35.2c0,0.7,0.2,0.9,0.8,0.9c1.3,0,2-0.9,2-2.2
		c0-1.6-0.9-2.2-2.1-2.2c-0.3,0-0.5,0.1-0.6,0.1c-0.1,0.1-0.1,0.2-0.1,0.5V35.2z"/>
	<path class="st1" d="M159.6,35.1c-0.1,0.3-0.2,1.2-0.3,1.4h-4.3v-0.3c0.8-0.1,0.8-0.1,0.8-0.9v-2.7c0-0.8-0.1-0.9-0.8-0.9v-0.3h4
		c0,0.2,0,0.8,0.1,1.3l-0.3,0c-0.1-0.3-0.2-0.5-0.3-0.7c-0.1-0.2-0.3-0.3-0.9-0.3h-0.6c-0.3,0-0.3,0-0.3,0.3v1.6h0.8
		c0.7,0,0.7-0.1,0.8-0.6h0.3v1.7h-0.3c-0.1-0.6-0.2-0.6-0.8-0.6h-0.8v1.3c0,0.4,0.1,0.6,0.2,0.7c0.1,0.1,0.4,0.1,0.9,0.1
		c0.6,0,0.9-0.1,1.1-0.3c0.1-0.2,0.3-0.4,0.4-0.8L159.6,35.1z"/>
	<path class="st1" d="M165.7,36.5h-0.3c-0.9,0-1.3-0.2-1.6-0.7c-0.2-0.4-0.6-0.9-0.7-1.2c-0.2-0.3-0.3-0.4-0.8-0.4h-0.2v1
		c0,0.8,0.1,0.8,0.8,0.9v0.3h-2.5v-0.3c0.7-0.1,0.8-0.1,0.8-0.9v-2.8c0-0.8-0.1-0.8-0.8-0.9v-0.3h2.5c0.6,0,1,0.1,1.3,0.3
		c0.3,0.2,0.6,0.6,0.6,1.1c0,0.7-0.5,1.1-1.1,1.3c0.1,0.2,0.5,0.8,0.7,1.2c0.3,0.4,0.4,0.6,0.6,0.8c0.2,0.2,0.4,0.3,0.6,0.4
		L165.7,36.5z M162.6,33.9c0.3,0,0.6,0,0.8-0.2c0.3-0.2,0.4-0.5,0.4-0.9c0-0.8-0.5-1.1-1.2-1.1c-0.5,0-0.5,0.1-0.5,0.4v1.8H162.6z"
		/>
	<path class="st1" d="M169.6,36.4v-0.3l0.2,0c0.3,0,0.4-0.1,0.2-0.5l-0.3-0.8h-1.8c-0.1,0.2-0.2,0.5-0.3,0.8c-0.1,0.4,0,0.5,0.3,0.6
		l0.3,0v0.3h-2v-0.3c0.5-0.1,0.7-0.1,1.1-0.9l1.6-4l0.3-0.1l1.7,4.3c0.3,0.7,0.5,0.7,1,0.8v0.3H169.6z M168.8,32.4L168.8,32.4
		l-0.8,2h1.5L168.8,32.4z"/>
	<path class="st1" d="M177.1,35c-0.1,0.3-0.2,1.2-0.3,1.5h-4.2v-0.3c0.8-0.1,0.8-0.1,0.8-0.9v-2.8c0-0.8-0.1-0.8-0.8-0.9v-0.3h2.5
		v0.3c-0.8,0.1-0.8,0.1-0.8,0.9v2.9c0,0.4,0.1,0.6,0.2,0.7c0.2,0.1,0.4,0.1,0.8,0.1c0.5,0,0.8-0.1,1-0.3c0.2-0.2,0.3-0.4,0.4-0.8
		L177.1,35z"/>
	<path class="st1" d="M70,44.7c1,0,1.8,0.2,2.3,0.7c0.4,0.4,0.7,1,0.7,1.7c0,1.9-1.5,2.8-3.4,2.8h-2.2v-0.3c0.7-0.1,0.8-0.1,0.8-0.9
		v-2.7c0-0.8-0.1-0.9-0.7-0.9v-0.3H70z M69.1,48.6c0,0.7,0.2,0.9,0.8,0.9c1.3,0,2-0.9,2-2.2c0-1.6-0.9-2.2-2.1-2.2
		c-0.3,0-0.5,0.1-0.6,0.1c-0.1,0.1-0.1,0.2-0.1,0.5V48.6z"/>
	<path class="st1" d="M79.7,47.2c0,1.9-1.4,2.8-2.8,2.8c-1.8,0-2.8-1.3-2.8-2.6c0-2,1.6-2.8,2.8-2.8C78.6,44.5,79.7,45.7,79.7,47.2
		 M75.2,47.1c0,1.5,0.8,2.5,1.9,2.5c0.8,0,1.6-0.6,1.6-2.2c0-1.3-0.7-2.5-1.8-2.5C76,44.9,75.2,45.6,75.2,47.1"/>
	<path class="st1" d="M89.8,49.9c-0.1,0-0.3,0-0.4,0c-0.8,0-1.3-0.3-1.8-1c-0.4-0.5-0.8-1.2-1.1-1.8c-0.2-0.3-0.4-0.4-0.9-0.4h-0.4
		v1.8c0,0.9,0.1,1,1,1.1v0.3h-2.9v-0.3c0.9-0.1,1-0.1,1-1.1V44c0-0.9-0.1-1-1-1.1v-0.3H86c0.8,0,1.4,0.1,1.8,0.4
		c0.5,0.3,0.7,0.8,0.7,1.5c0,1-0.6,1.6-1.4,1.9c0.2,0.4,0.7,1.1,1,1.6c0.4,0.6,0.6,0.9,0.9,1.2c0.3,0.3,0.6,0.5,0.8,0.5L89.8,49.9z
		 M85.7,46.3c0.6,0,0.9-0.1,1.2-0.3c0.4-0.3,0.6-0.8,0.6-1.4c0-1.2-0.8-1.7-1.6-1.7c-0.3,0-0.5,0-0.6,0.1c-0.1,0.1-0.1,0.2-0.1,0.5
		v2.8H85.7z"/>
	<path class="st1" d="M90.3,49.8v-0.3c0.7-0.1,0.8-0.1,0.8-0.9v-2.7c0-0.8-0.1-0.9-0.8-0.9v-0.3h2.5V45C92.1,45,92,45.1,92,45.9v2.7
		c0,0.8,0.1,0.9,0.8,0.9v0.3H90.3z"/>
	<path class="st1" d="M99.3,47.2c0,1.9-1.4,2.8-2.8,2.8c-1.8,0-2.8-1.3-2.8-2.6c0-2,1.6-2.8,2.8-2.8C98.2,44.5,99.3,45.7,99.3,47.2
		 M94.8,47.1c0,1.5,0.8,2.5,1.9,2.5c0.8,0,1.6-0.6,1.6-2.2c0-1.3-0.7-2.5-1.8-2.5C95.6,44.9,94.8,45.6,94.8,47.1"/>
	<path class="st1" d="M105.3,44.7c1,0,1.8,0.2,2.3,0.7c0.4,0.4,0.7,1,0.7,1.7c0,1.9-1.5,2.8-3.4,2.8h-2.2v-0.3
		c0.7-0.1,0.8-0.1,0.8-0.9v-2.7c0-0.8-0.1-0.9-0.7-0.9v-0.3H105.3z M104.5,48.6c0,0.7,0.2,0.9,0.8,0.9c1.3,0,2-0.9,2-2.2
		c0-1.6-0.9-2.2-2.1-2.2c-0.3,0-0.5,0.1-0.6,0.1c-0.1,0.1-0.1,0.2-0.1,0.5V48.6z"/>
	<path class="st1" d="M113.8,48.5c-0.1,0.3-0.2,1.1-0.3,1.4h-4.3v-0.3c0.8-0.1,0.8-0.1,0.8-0.9v-2.7c0-0.8-0.1-0.9-0.8-0.9v-0.3h4
		c0,0.2,0,0.8,0.1,1.3l-0.3,0c-0.1-0.3-0.2-0.5-0.3-0.7c-0.1-0.2-0.3-0.3-0.9-0.3h-0.6c-0.3,0-0.3,0-0.3,0.3v1.6h0.8
		c0.7,0,0.7-0.1,0.8-0.6h0.3V48h-0.3c-0.1-0.6-0.2-0.6-0.8-0.6H111v1.3c0,0.4,0.1,0.6,0.2,0.7c0.1,0.1,0.4,0.1,0.9,0.1
		c0.6,0,0.9-0.1,1.1-0.3c0.1-0.2,0.3-0.4,0.4-0.8L113.8,48.5z"/>
	<path class="st1" d="M120.1,42.9c-0.9,0.1-0.9,0.1-0.9,1.1v4.2c0,1.4-0.2,2.2-1,2.9c-0.4,0.3-0.7,0.6-1,0.6l-0.1-0.3
		c0.6-0.3,0.9-0.8,1.1-1.5c0.1-0.5,0.1-1.2,0.1-2.1V44c0-0.9-0.1-1-1-1.1v-0.3h2.9V42.9z"/>
	<path class="st1" d="M123.7,49.8v-0.3l0.2,0c0.3,0,0.4-0.1,0.2-0.5l-0.3-0.8H122c-0.1,0.2-0.2,0.5-0.3,0.8c-0.1,0.4,0,0.5,0.3,0.6
		l0.3,0v0.3h-2v-0.3c0.5-0.1,0.7-0.1,1.1-0.9l1.6-4l0.3-0.1l1.7,4.3c0.3,0.7,0.5,0.7,1,0.8v0.3H123.7z M122.9,45.7L122.9,45.7
		l-0.8,2h1.5L122.9,45.7z"/>
	<path class="st1" d="M132.5,45c-0.5,0-0.7,0.1-0.8,0.5c0,0.3-0.1,0.7-0.1,1.4v3h-0.4l-3.4-4.1h0v1.8c0,0.8,0,1.2,0.1,1.4
		c0,0.3,0.2,0.4,0.9,0.5v0.3h-2.2v-0.3c0.5,0,0.7-0.1,0.8-0.5c0-0.3,0.1-0.7,0.1-1.5v-1.5c0-0.9-0.2-1.1-0.9-1.2v-0.3h1.5l3.2,3.6h0
		v-1.4c0-0.8,0-1.1-0.1-1.4c0-0.4-0.2-0.5-0.9-0.5v-0.3h2.2V45z"/>
	<path class="st1" d="M137.8,48.5c-0.1,0.3-0.2,1.1-0.3,1.4h-4.3v-0.3c0.8-0.1,0.8-0.1,0.8-0.9v-2.7c0-0.8-0.1-0.9-0.8-0.9v-0.3h4
		c0,0.2,0,0.8,0.1,1.3l-0.3,0c-0.1-0.3-0.2-0.5-0.3-0.7c-0.1-0.2-0.3-0.3-0.9-0.3h-0.6c-0.3,0-0.3,0-0.3,0.3v1.6h0.8
		c0.7,0,0.7-0.1,0.8-0.6h0.3V48h-0.3c-0.1-0.6-0.2-0.6-0.8-0.6h-0.8v1.3c0,0.4,0.1,0.6,0.2,0.7c0.1,0.1,0.4,0.1,0.9,0.1
		c0.6,0,0.9-0.1,1.1-0.3c0.1-0.2,0.3-0.4,0.4-0.8L137.8,48.5z"/>
	<path class="st1" d="M138.6,49.8v-0.3c0.7-0.1,0.8-0.1,0.8-0.9v-2.7c0-0.8-0.1-0.9-0.8-0.9v-0.3h2.5V45c-0.7,0.1-0.8,0.1-0.8,0.9
		v2.7c0,0.8,0.1,0.9,0.8,0.9v0.3H138.6z"/>
	<path class="st1" d="M147.2,49.9H147c-0.9,0-1.2-0.2-1.6-0.7c-0.2-0.4-0.6-0.9-0.7-1.2c-0.2-0.3-0.3-0.4-0.8-0.4h-0.2v1
		c0,0.8,0.1,0.8,0.8,0.9v0.3H142v-0.3c0.7-0.1,0.8-0.1,0.8-0.9v-2.8c0-0.8-0.1-0.8-0.8-0.9v-0.3h2.5c0.6,0,1,0.1,1.3,0.3
		c0.3,0.2,0.6,0.6,0.6,1.1c0,0.7-0.5,1.1-1.1,1.3c0.1,0.2,0.5,0.8,0.7,1.2c0.3,0.4,0.4,0.6,0.6,0.8c0.2,0.2,0.4,0.3,0.6,0.4
		L147.2,49.9z M144.1,47.3c0.3,0,0.6,0,0.8-0.2c0.3-0.2,0.4-0.5,0.4-0.9c0-0.8-0.5-1.1-1.2-1.1c-0.5,0-0.5,0.1-0.5,0.4v1.8H144.1z"
		/>
	<path class="st1" d="M153.4,47.2c0,1.9-1.4,2.8-2.8,2.8c-1.8,0-2.8-1.3-2.8-2.6c0-2,1.6-2.8,2.8-2.8
		C152.2,44.5,153.4,45.7,153.4,47.2 M148.8,47.1c0,1.5,0.8,2.5,1.9,2.5c0.8,0,1.6-0.6,1.6-2.2c0-1.3-0.7-2.5-1.8-2.5
		C149.6,44.9,148.8,45.6,148.8,47.1"/>
</g>
</svg>
