<svg id="Layer_1" data-name="Layer 1" xmlns="http://www.w3.org/2000/svg" viewBox="0 0 311.39 53.94"><defs><style>.cls-1{fill:#fff;}</style></defs><title>Untitled-1</title><path class="cls-1" d="M228.71,26.66c0-2.93.82-3.64,3.53-3.7V20.51H217.17V23c2.72,0.06,3.49.77,3.49,3.7V50.12c0,2.92-.77,3.64-3.49,3.64v2.36h15.07V53.76c-2.71,0-3.53-.72-3.53-3.64V39.77H240.9V50.12c0,2.92-.82,3.64-3.53,3.64v2.36h15.06V53.76c-2.72,0-3.55-.72-3.55-3.64V26.66c0-2.93.83-3.64,3.55-3.7V20.51H237.37V23c2.71,0.06,3.53.77,3.53,3.7v9.27H228.71V26.66Z" transform="translate(-3.1 -2.75)"/><path class="cls-1" d="M279.39,48.39V29.53h-1.24l-9.42,1.8v2.25c2.5,0.1,3.07.61,3.07,4.35V49.88a6.81,6.81,0,0,1-4.61,1.9c-2.35,0-3.28-1.39-3.28-4.16V29.53h-1.23l-9.42,1.8v2.25c2.51,0.1,3,.61,3,4.35V49.42c0,5.07,2.92,7.27,7.33,7.27a10.57,10.57,0,0,0,8.61-4.15,8.84,8.84,0,0,0,1.38,4.15h0.77l8.19-1.85v-2.1c-2.62-.21-3.18-0.61-3.18-4.36" transform="translate(-3.1 -2.75)"/><path class="cls-1" d="M295.33,50.18V23.59a10.58,10.58,0,0,0-.93-5.07h-0.77l-9.27,1.38v2.25c2.67,0.11,3.38.62,3.38,4.36V50.23c0,2.92-.56,3.54-3.17,3.59v2.3H298.5v-2.3c-2.66,0-3.17-.72-3.17-3.64" transform="translate(-3.1 -2.75)"/><path class="cls-1" d="M311.31,50.18V23.59a10.6,10.6,0,0,0-.92-5.07h-0.77l-9.27,1.38v2.25c2.66,0.11,3.38.62,3.38,4.36V50.23c0,2.92-.56,3.54-3.18,3.59v2.3h13.94v-2.3c-2.66,0-3.18-.72-3.18-3.64" transform="translate(-3.1 -2.75)"/><path class="cls-1" d="M139,22.48S138.67,25,138.65,25s0.19,0-8.42,0h-8.5s-0.31-2.47-.33-2.47H139m1.51-9.63s-0.48-2.67-2.39-2c0,0-2.1.92-.63,4a1.21,1.21,0,0,1,1.17-.9s1.72,0.2.87,2.35c0,0-.66,1.52-2,1.17,0,0-1.93-.17-1.93-3,0,0-1.32,2.5-2.85,2.29a1.73,1.73,0,0,1-1.86-2,2.08,2.08,0,0,1,1.52-1.87,1.14,1.14,0,0,1,1.36,1.39s3.78-3.2.31-5.16a2.43,2.43,0,0,0-2.79.8A3.29,3.29,0,0,0,132,8.09s0.62-1.91-1.77-3.22h0c-2.39,1.31-1.78,3.22-1.78,3.22a3.3,3.3,0,0,0,.72,1.83,2.43,2.43,0,0,0-2.8-.8c-3.47,2,.32,5.16.32,5.16A1.14,1.14,0,0,1,128,12.89a2.09,2.09,0,0,1,1.53,1.87,1.75,1.75,0,0,1-1.87,2c-1.52.22-2.84-2.29-2.84-2.29,0,2.83-1.93,3-1.93,3-1.34.35-2-1.17-2-1.17-0.85-2.15.87-2.35,0.87-2.35a1.2,1.2,0,0,1,1.17.9c1.47-3.08-.63-4-0.63-4-1.91-.71-2.39,2-2.39,2-1.22-3.18-3.71-2.35-3.71-2.35a32.17,32.17,0,0,1,5,9.76h18a32.31,32.31,0,0,1,5-9.76S141.73,9.67,140.51,12.85ZM121.25,27h9v2.5h-9A1.25,1.25,0,0,1,121.25,27Zm19.22,1.25a1.23,1.23,0,0,1-1.25,1.25h-9V27h9A1.22,1.22,0,0,1,140.47,28.28Z" transform="translate(-3.1 -2.75)"/><path class="cls-1" d="M57.6,22.64a1.34,1.34,0,1,1,0-2.67H69.92a1.34,1.34,0,1,1,0,2.67H57.6m2,4.41h8.25a1.34,1.34,0,1,0,0-2.67H59.64a1.34,1.34,0,1,0,0,2.67m2,4.41h4.2a1.34,1.34,0,1,0,0-2.67h-4.2a1.34,1.34,0,1,0,0,2.67M56.75,18.23s-1.92-1.61-.31-5.39a6.5,6.5,0,0,0,3.94,2.54s1.05-4,3.75-4.55a4.19,4.19,0,0,0,1.61,4.62s2.23-3.16,5.05-3.13c0,0-1.55,1.61-.65,3.1,0,0,.83,1.74-0.16,2.82A5.23,5.23,0,0,0,73,17.11s1.93-1.12,1-5.3c0,0-.46-2.85,4-3.88A11.24,11.24,0,0,0,67.75,9.4s-2.49-3.66,2.61-6.63c0,0-8.56-.74-12.31,7.47,0,0-3.15-1.55-1.08-5.49a8.76,8.76,0,0,0-5.33,9s0.13,4.43,5.11,4.43" transform="translate(-3.1 -2.75)"/><path class="cls-1" d="M103.49,16.19a1.18,1.18,0,0,1-.37-1.52,2.28,2.28,0,0,0-.34-1.88,1.32,1.32,0,0,0-1.72-.28l-0.06.08a1.29,1.29,0,0,0-.76-1.69,2,2,0,0,0-2.07.42,1.19,1.19,0,0,1-1.56-.1,2.26,2.26,0,0,0-1.89-.27,1.34,1.34,0,0,0-.81,1.55l0,0.06a1.28,1.28,0,0,0-1.82.22,2,2,0,0,0-.24,2.1,1.18,1.18,0,0,1-.59,1.44A2.29,2.29,0,0,0,90.47,18a1.32,1.32,0,0,0,1.23,1.24l0.09,0a1.3,1.3,0,0,0-.38,1.81,2,2,0,0,0,1.93.87,1.19,1.19,0,0,1,1.21,1,2.25,2.25,0,0,0,1.37,1.34,1.32,1.32,0,0,0,1.55-.79v-0.1a1.29,1.29,0,0,0,1.61.92,2,2,0,0,0,1.42-1.56,1.19,1.19,0,0,1,1.33-.83,2.28,2.28,0,0,0,1.69-.9,1.32,1.32,0,0,0-.27-1.73l-0.09,0A1.29,1.29,0,0,0,104.53,18,2,2,0,0,0,103.49,16.19ZM101,18.57a3.76,3.76,0,0,1-3.53,2.56h0a3.77,3.77,0,0,1-3.52-2.57h0a3.78,3.78,0,0,1,1.36-4.14h0a3.77,3.77,0,0,1,4.36,0h0A3.78,3.78,0,0,1,101,18.58l1.64,0.53Zm-5.23-1.13a1.76,1.76,0,1,1,1.76,1.76,1.76,1.76,0,0,1-1.76-1.76m15.37-1.76a2.52,2.52,0,0,0-2.87-1.74,2.66,2.66,0,0,0,1.28-3.08,3.26,3.26,0,0,0-3.81-2.09A2.65,2.65,0,0,1,104,8.45L103.63,9,104,8.44a2.15,2.15,0,0,1-.84-1.51,3.26,3.26,0,0,0-3.17-3,2.52,2.52,0,0,0-2.54,2.19A2.64,2.64,0,0,0,95,4a3.27,3.27,0,0,0-3.17,3A2.64,2.64,0,0,1,91,8.44h0a2.16,2.16,0,0,1-1.69.33,3.27,3.27,0,0,0-3.82,2.1,2.52,2.52,0,0,0,1.3,3.09,2.65,2.65,0,0,0-2.84,1.74,3.26,3.26,0,0,0,1.85,3.93,2.64,2.64,0,0,1,1.17,1.26h0a2.17,2.17,0,0,1-.21,1.72,3.26,3.26,0,0,0,.81,4.27,2.53,2.53,0,0,0,3.34-.28,2.65,2.65,0,0,0,.77,3.24,3.27,3.27,0,0,0,4.32-.55,2.65,2.65,0,0,1,1.56-.71v0a2.16,2.16,0,0,1,1.56.74,3.26,3.26,0,0,0,4.31.54,2.52,2.52,0,0,0,.76-3.26,2.65,2.65,0,0,0,3.32.28,3.29,3.29,0,0,0,.81-4.28,2.67,2.67,0,0,1-.21-1.7l-0.78-.26,0.79,0.26a2.13,2.13,0,0,1,1.18-1.26A3.26,3.26,0,0,0,111.12,15.69Zm-3.72,2.75a2,2,0,0,1-2,1.55h0a2,2,0,0,1,.72,2.46,2.48,2.48,0,0,1-2.83,1.26,1.32,1.32,0,0,0-1.56,1.13s-0.24,2.09-2.08,2.31a1.93,1.93,0,0,1-2.1-1.46v0h0a2,2,0,0,1-2.12,1.46,2.49,2.49,0,0,1-2.07-2.31,1.31,1.31,0,0,0-1.56-1.13,2.61,2.61,0,0,1-2.83-1.26A1.94,1.94,0,0,1,89.66,20h0a2,2,0,0,1-2-1.57,2.48,2.48,0,0,1,1.55-2.68,1.32,1.32,0,0,0,.6-1.84s-1-1.83.32-3.09a2,2,0,0,1,2.56-.05v0h0a2,2,0,0,1,.86-2.43,2.48,2.48,0,0,1,3,.65,1.32,1.32,0,0,0,1.93,0s1.42-1.56,3-.65a1.94,1.94,0,0,1,.84,2.42h0a2,2,0,0,1,2.58.07,2.49,2.49,0,0,1,.32,3.08,1.32,1.32,0,0,0,.59,1.84S107.77,16.61,107.4,18.43Z" transform="translate(-3.1 -2.75)"/><path class="cls-1" d="M189.12,8.26c-0.47-2.24-2-2.42-2.6-2.41,0,0,0,.79,0,0.79a0.81,0.81,0,1,1-.75.83,0.82,0.82,0,0,1,.75-0.83s0-.79,0-0.79a1.62,1.62,0,0,0-1.92,1.61,5.94,5.94,0,0,1-1.42.74,1.18,1.18,0,0,0-.34.77,0.76,0.76,0,0,0,0,.35c1.81-.75,2.21-0.36,2.21-0.36l0.32,0.25a4.89,4.89,0,0,1,.57,1.91c-0.36,2.54-2.51,2.6-2.15,6.22,0.23,5.9,8.21,7.43,8.21,7.43,0.45,0.89-.56,2.87-0.56,2.87-0.13.3-.38,0.3-1.38,0.14-0.5-.1-0.84-0.19-0.84-0.19-1.63-.57-1,1.2-1,1.2h6c0.45-1.62-.65-1.13-0.65-1.13-1.08.56-1,0-1,0a7.49,7.49,0,0,1,1.16-2.92C179.76,16.3,189,13.77,189,13.77s-6.33,3.14,7.83,10.84a55.18,55.18,0,0,0,4.8,2.81c0.82,0.53,1,.21,1,0.21a0.74,0.74,0,0,0-.26-0.65l-3.3-4.1c4.34,2.77,6.27,4.21,6.27,4.21,2,0.87,5.07-1.9,1.13-3.58C190,14.62,189.12,8.26,189.12,8.26" transform="translate(-3.1 -2.75)"/><path class="cls-1" d="M172.79,11.9a4.74,4.74,0,0,0-5,2.24s-1.69,2.14-2,6.64h-1.74a28.13,28.13,0,0,1,.88-5.63s0.44-1.73,1-4.63a8.79,8.79,0,0,0-.26-4.37s-1-2.91-2.8-2.79c-1.82-.12-2.8,2.79-2.8,2.79a8.7,8.7,0,0,0-.26,4.37c0.54,2.9,1,4.63,1,4.63a28.92,28.92,0,0,1,.89,5.63H160c-0.28-4.5-2-6.64-2-6.64a4.74,4.74,0,0,0-5-2.24,4.5,4.5,0,0,0-3.55,4.41c-0.05,3.13,1.84,4.19,1.84,4.19a5.23,5.23,0,0,0,3.42.71,8.76,8.76,0,0,1-.9-1.11,1.58,1.58,0,0,1,.6-2.14,2.05,2.05,0,0,1,2.32.44A5.07,5.07,0,0,1,158,20.78h-1.33a1.31,1.31,0,0,0-1.18,1.41,1.24,1.24,0,0,0,1.18,1.41H158a1.34,1.34,0,0,1-1.44,1.29c-1.28,0-2.14-1.73-2.14-1.73a2.72,2.72,0,0,0,2.17,4.48c3.33,0,3.47-4,3.47-4h1.7c-0.36,4.52-2.51,5.3-2.51,5.3,0.92,2.28,3.7,2.14,3.7,2.14s2.78,0.14,3.71-2.14c0,0-2.15-.78-2.5-5.3h1.69s0.14,4.05,3.47,4A2.74,2.74,0,0,0,172,25.43a2.7,2.7,0,0,0-.6-2.27s-0.85,1.71-2.13,1.73a1.35,1.35,0,0,1-1.45-1.29h1.3a1.24,1.24,0,0,0,1.19-1.41,1.31,1.31,0,0,0-1.19-1.41h-1.33a5,5,0,0,1,1.24-2.38,2,2,0,0,1,2.33-.44,1.58,1.58,0,0,1,.6,2.14,8.47,8.47,0,0,1-.9,1.11,5.26,5.26,0,0,0,3.43-.71s1.89-1.06,1.83-4.19A4.49,4.49,0,0,0,172.79,11.9Z" transform="translate(-3.1 -2.75)"/><path class="cls-1" d="M200.45,48.61h1.26c1.82,0,2.14.15,2.2,1.86h1.64V45.09h-1.64c-0.06,1.76-.41,1.85-2.23,1.85h-1.23V40.71h2.87c2,0,2.39.31,3.15,2.86h1.79l-0.35-4.71H194.26v1.31c1.89,0,2.27.47,2.27,2.26V52.6c0,1.8-.38,2.24-2.27,2.27v1.26h8.87V54.87c-2.08,0-2.68-.38-2.68-2.27v-4Z" transform="translate(-3.1 -2.75)"/><path class="cls-1" d="M184.52,38.51c-5,0-8.27,3.08-8.27,9.12,0,5.66,3.1,8.87,8.27,8.87s8.27-3.2,8.27-8.87C192.79,41.59,189.52,38.51,184.52,38.51Zm0,16.27c-2.61,0-4-2-4-7.36,0-4.63,1.09-7,4-7s4.09,2.32,4.09,6.89C188.61,52.73,187.29,54.78,184.52,54.78Z" transform="translate(-3.1 -2.75)"/><path class="cls-1" d="M159.15,49.86V52.6c0,1.8-.37,2.24-2.36,2.27v1.26h8.65V54.87c-2,0-2.36-.47-2.36-2.27V49.86l4.21-7.77c0.79-1.42,1.14-1.79,2.36-2V38.86h-6v1.28c1.23,0,1.67.32,1.67,0.79a2.3,2.3,0,0,1-.32.94l-2.86,5.79H162l-3-5.76a2,2,0,0,1-.28-0.91c0-.53.57-0.81,1.79-0.85V38.86h-8v1.28c1.16,0.16,1.54.57,2.36,2Z" transform="translate(-3.1 -2.75)"/><path class="cls-1" d="M140.92,52.6c0,1.8-.38,2.24-2.36,2.27v1.26h8.68V54.87c-2,0-2.36-.47-2.36-2.27v-12h1.29c1.89,0,2.3.85,2.87,3.56h1.86l-0.28-5.34H134.94l-0.16,5.34h1.86c0.44-2.64.73-3.56,2.84-3.56h1.45v12Z" transform="translate(-3.1 -2.75)"/><path class="cls-1" d="M130.85,42.44c0-1.79.37-2.24,2.23-2.26V38.86h-8.42v1.31c1.88,0,2.26.47,2.26,2.26V52.6c0,1.8-.38,2.24-2.26,2.27v1.26h8.42V54.87c-1.85,0-2.23-.47-2.23-2.27V42.44Z" transform="translate(-3.1 -2.75)"/><path class="cls-1" d="M115.25,56.5c4.44,0,7-2,7-5.56,0-2.8-1.82-4.44-5-5.16L115,45.24c-1.76-.41-2.32-1.17-2.32-2.51,0-1.58,1-2.49,2.86-2.49s2.9,1,3.18,2.86h2.64v-3.4a11.9,11.9,0,0,0-5.57-1.2c-3.55,0-6.48,1.79-6.48,5.38,0,2.86,1.73,4.37,4.43,5l2.36,0.53c1.76,0.41,2.73,1,2.73,2.74,0,1.95-1.44,2.76-3.34,2.76-2.39,0-3.37-1-3.61-3.37h-2.67v3.53a10.86,10.86,0,0,0,6,1.44" transform="translate(-3.1 -2.75)"/><path class="cls-1" d="M105.47,53.33c-0.66-1.13-1-1.89-1.48-2.55a5.47,5.47,0,0,0-3.55-2.33V48.32c3.11-.1,5.47-1.26,5.47-4.53,0-3.93-2.86-4.93-6.86-4.93H90.38v1.31c1.88,0,2.26.47,2.26,2.26V52.6c0,1.8-.38,2.24-2.26,2.27v1.26H99V54.87c-1.86,0-2.46-.38-2.46-2.27V48.7c1.76,0,2.48.72,3.68,2.9,0.66,1.26,1.39,2.73,2.17,4.53h5.41V54.84A2.24,2.24,0,0,1,105.47,53.33Zm-7-6.32H96.57V40.71H98c2.9,0,3.84.88,3.84,3.08C101.89,46.25,101,47,98.42,47Z" transform="translate(-3.1 -2.75)"/><path class="cls-1" d="M73.68,56.12H88V50.81H86.13c-0.25,3-1,3.52-3.21,3.52H79.86v-6.2h1c1.82,0,2.13.15,2.2,1.76h1.67V44.74H83.1c-0.07,1.63-.41,1.73-2.23,1.73h-1V40.71h2.86c2,0,2.4.31,3.15,2.86h1.79l-0.35-4.71H73.68v1.31c1.88,0,2.26.47,2.26,2.26V52.6c0,1.8-.37,2.24-2.26,2.27v1.26Z" transform="translate(-3.1 -2.75)"/><path class="cls-1" d="M64.9,56.28l5-14.06c0.57-1.6,1-1.92,2.23-2.08V38.86H65.81v1.28c1.42,0,1.92.35,1.92,1a2.74,2.74,0,0,1-.18.89L65,49.92a21.59,21.59,0,0,0-.72,2.93H64.11a23.87,23.87,0,0,0-.73-3L60.74,42c-0.37-1.2-.28-1.8,1.7-1.86V38.86H54.59v1.28c1.15,0.16,1.54.5,2.14,2.08l5.16,14.06h3Z" transform="translate(-3.1 -2.75)"/><path class="cls-1" d="M50.74,42.44c0-1.79.37-2.24,2.23-2.26V38.86H44.55v1.31c1.88,0,2.27.47,2.27,2.26V52.6c0,1.8-.38,2.24-2.27,2.27v1.26H53V54.87c-1.86,0-2.23-.47-2.23-2.27V42.44Z" transform="translate(-3.1 -2.75)"/><path class="cls-1" d="M26.59,52.6c0,1.8-.38,2.24-2.27,2.27v1.26h6.79V54.87c-1.86,0-2.23-.47-2.23-2.27V48a44.76,44.76,0,0,0-.32-5.37h0.15a25.91,25.91,0,0,0,2.62,4.63l6.06,8.87h2.92V42.44c0-1.79.38-2.24,2.24-2.26V38.86H35.78v1.31c1.89,0,2.26.47,2.26,2.26v3.12a51.78,51.78,0,0,0,.32,5.63H38.16a20.87,20.87,0,0,0-2.08-3.9l-5.57-8.42H24.33v1.31c1.88,0,2.27.47,2.27,2.26V52.6Z" transform="translate(-3.1 -2.75)"/><path class="cls-1" d="M13.3,56.5C18.52,56.5,21,54,21,49V38c0-1.79.41-2.29,2.17-2.32V34.36H16.19v1.32c2,0,2.42.53,2.42,2.32V49c0,3.81-1.48,5.22-4.56,5.22-3.44,0-4.67-1.51-4.67-5.38V38c0-1.79.44-2.29,2.43-2.32V34.36H3.1v1.32c1.8,0,2.24.53,2.24,2.32V49.23c0,4.94,2.51,7.26,8,7.26" transform="translate(-3.1 -2.75)"/></svg>