<svg id="Layer_1" data-name="Layer 1" xmlns="http://www.w3.org/2000/svg" viewBox="0 0 513.03 166.74"><defs><style>.cls-1{fill:#790016;}.cls-2{fill:#4d4e53;}</style></defs><g id="Shape_1" data-name="Shape 1"><polygon class="cls-1" points="83.36 127.33 44.02 166.74 46.65 166.74 83.36 129.84 120.04 166.74 122.68 166.74 83.36 127.33"/></g><g id="Shape_2" data-name="Shape 2"><polygon class="cls-1" points="83.5 121.57 38.47 166.74 41.52 166.74 83.49 124.45 125.46 166.74 128.47 166.74 83.5 121.57"/></g><g id="Shape_3" data-name="Shape 3"><polygon class="cls-1" points="116.75 155.19 119.81 158.17 125.33 155.19 116.75 155.19"/></g><g id="Shape_4" data-name="Shape 4"><polygon class="cls-1" points="111.66 150.1 114.38 153.72 127.81 153.72 133.08 150.1 111.66 150.1"/></g><g id="Shape_5" data-name="Shape 5"><polygon class="cls-1" points="106.76 145.16 110.25 148.61 127.98 148.61 127.98 145.16 106.76 145.16"/></g><g id="Shape_6" data-name="Shape 6"><polygon class="cls-1" points="101.79 140.19 105.14 143.66 127.98 143.66 127.98 140.19 101.79 140.19"/></g><g id="Shape_7" data-name="Shape 7"><polygon class="cls-1" points="96.54 135.24 99.84 138.7 127.98 138.7 127.98 135.24 96.54 135.24"/></g><g id="Shape_8" data-name="Shape 8"><polygon class="cls-1" points="91.64 130.29 94.97 133.75 127.98 133.75 127.98 130.29 91.64 130.29"/></g><g id="Shape_9" data-name="Shape 9"><polygon class="cls-1" points="93.69 125.32 92.73 126.92 88.21 126.92 89.93 128.79 126.66 128.79 129.87 125.32 93.69 125.32"/></g><g id="Shape_10" data-name="Shape 10"><polygon class="cls-1" points="144.03 135.24 144.03 138.7 145.56 138.7 148.51 135.24 144.03 135.24"/></g><g id="Shape_11" data-name="Shape 11"><polygon class="cls-1" points="144.03 130.29 144.03 133.75 149.67 133.75 152.18 130.29 144.03 130.29"/></g><g id="Shape_12" data-name="Shape 12"><polygon class="cls-1" points="141.79 125.32 145.08 128.79 153.19 128.79 155.36 125.32 141.79 125.32"/></g><g id="Shape_13" data-name="Shape 13"><polygon class="cls-1" points="137.19 120.37 140.43 123.84 156.21 123.84 158.05 120.37 137.19 120.37"/></g><g id="Shape_14" data-name="Shape 14"><polygon class="cls-1" points="96.54 120.37 94.73 123.84 131.53 123.84 134.37 120.37 96.54 120.37"/></g><g id="Shape_15" data-name="Shape 15"><polygon class="cls-1" points="99.63 115.61 97.7 118.88 158.79 118.88 160.25 115.61 99.63 115.61"/></g><g id="Shape_16" data-name="Shape 16"><polygon class="cls-1" points="147.23 130.29 136.57 118.88 136.46 118.78 135.31 118.6 134.89 118.88 124.21 130.29 124.14 130.4 126.29 130.43 126.38 130.29 135.92 120.25 145.45 130.29 145.56 130.41 147.33 130.47 147.23 130.29"/></g><g id="Rectangle_1" data-name="Rectangle 1"><rect class="cls-1" x="129.68" y="130.63" width="3.74" height="3.84"/></g><g id="Rectangle_1_copy" data-name="Rectangle 1 copy"><rect class="cls-1" x="134.15" y="130.63" width="3.74" height="3.84"/></g><g id="Rectangle_1_copy_2" data-name="Rectangle 1 copy 2"><rect class="cls-1" x="138.63" y="130.63" width="3.74" height="3.84"/></g><g id="Rectangle_1_copy_3" data-name="Rectangle 1 copy 3"><rect class="cls-1" x="129.68" y="135.17" width="3.74" height="3.84"/></g><g id="Rectangle_1_copy_4" data-name="Rectangle 1 copy 4"><rect class="cls-1" x="134.15" y="135.17" width="3.74" height="3.84"/></g><g id="Rectangle_1_copy_5" data-name="Rectangle 1 copy 5"><rect class="cls-1" x="138.63" y="135.17" width="3.74" height="3.84"/></g><g id="Rectangle_1_copy_6" data-name="Rectangle 1 copy 6"><rect class="cls-1" x="129.69" y="139.7" width="3.74" height="3.84"/></g><g id="Rectangle_1_copy_7" data-name="Rectangle 1 copy 7"><rect class="cls-1" x="134.17" y="139.7" width="3.74" height="3.84"/></g><g id="Rectangle_1_copy_8" data-name="Rectangle 1 copy 8"><rect class="cls-1" x="138.64" y="139.7" width="3.74" height="3.84"/></g><g id="Rectangle_1_copy_9" data-name="Rectangle 1 copy 9"><rect class="cls-1" x="129.68" y="144.24" width="3.74" height="3.84"/></g><g id="Rectangle_1_copy_10" data-name="Rectangle 1 copy 10"><rect class="cls-1" x="134.15" y="144.24" width="3.74" height="3.84"/></g><g id="Rectangle_1_copy_11" data-name="Rectangle 1 copy 11"><rect class="cls-1" x="138.63" y="144.24" width="3.74" height="3.84"/></g><g id="Shape_3_copy" data-name="Shape 3 copy"><polygon class="cls-1" points="41.48 155.19 47 158.17 50.07 155.19 41.48 155.19"/></g><g id="Shape_4_copy" data-name="Shape 4 copy"><polygon class="cls-1" points="33.73 150.1 39.01 153.72 52.44 153.72 55.16 150.1 33.73 150.1"/></g><g id="Shape_5_copy" data-name="Shape 5 copy"><polygon class="cls-1" points="38.83 145.16 38.83 148.61 56.57 148.61 60.05 145.16 38.83 145.16"/></g><g id="Shape_6_copy" data-name="Shape 6 copy"><polygon class="cls-1" points="38.83 140.19 38.83 143.66 61.67 143.66 65.02 140.19 38.83 140.19"/></g><g id="Shape_7_copy" data-name="Shape 7 copy"><polygon class="cls-1" points="38.83 135.24 38.83 138.7 66.97 138.7 70.27 135.24 38.83 135.24"/></g><g id="Shape_8_copy" data-name="Shape 8 copy"><polygon class="cls-1" points="38.83 130.29 38.83 133.75 71.85 133.75 75.17 130.29 38.83 130.29"/></g><g id="Shape_9_copy" data-name="Shape 9 copy"><polygon class="cls-1" points="74.08 126.92 73.13 125.32 36.95 125.32 40.16 128.79 76.88 128.79 78.61 126.92 74.08 126.92"/></g><g id="Shape_10_copy" data-name="Shape 10 copy"><polygon class="cls-1" points="18.3 135.24 21.25 138.7 22.78 138.7 22.78 135.24 18.3 135.24"/></g><g id="Shape_11_copy" data-name="Shape 11 copy"><polygon class="cls-1" points="14.64 130.29 17.14 133.75 22.78 133.75 22.78 130.29 14.64 130.29"/></g><g id="Shape_12_copy" data-name="Shape 12 copy"><polygon class="cls-1" points="11.46 125.32 13.62 128.79 21.74 128.79 25.02 125.32 11.46 125.32"/></g><g id="Shape_13_copy" data-name="Shape 13 copy"><polygon class="cls-1" points="8.76 120.37 10.6 123.84 26.39 123.84 29.63 120.37 8.76 120.37"/></g><g id="Shape_14_copy" data-name="Shape 14 copy"><polygon class="cls-1" points="70.27 120.37 32.44 120.37 35.28 123.84 72.08 123.84 70.27 120.37"/></g><g id="Shape_15_copy" data-name="Shape 15 copy"><polygon class="cls-1" points="67.18 115.61 6.57 115.61 8.03 118.88 69.11 118.88 67.18 115.61"/></g><g id="Shape_16_copy" data-name="Shape 16 copy"><polygon class="cls-1" points="42.6 130.29 31.93 118.88 31.5 118.6 30.35 118.78 30.25 118.88 19.59 130.29 19.48 130.47 21.25 130.41 21.37 130.29 30.89 120.25 40.44 130.29 40.52 130.43 42.67 130.4 42.6 130.29"/></g><g id="Rectangle_1_copy_12" data-name="Rectangle 1 copy 12"><rect class="cls-1" x="33.4" y="130.63" width="3.74" height="3.84"/></g><g id="Rectangle_1_copy_13" data-name="Rectangle 1 copy 13"><rect class="cls-1" x="28.92" y="130.63" width="3.74" height="3.84"/></g><g id="Rectangle_1_copy_14" data-name="Rectangle 1 copy 14"><rect class="cls-1" x="24.45" y="130.63" width="3.74" height="3.84"/></g><g id="Rectangle_1_copy_15" data-name="Rectangle 1 copy 15"><rect class="cls-1" x="33.4" y="135.17" width="3.74" height="3.84"/></g><g id="Rectangle_1_copy_16" data-name="Rectangle 1 copy 16"><rect class="cls-1" x="28.92" y="135.17" width="3.74" height="3.84"/></g><g id="Rectangle_1_copy_17" data-name="Rectangle 1 copy 17"><rect class="cls-1" x="24.45" y="135.17" width="3.74" height="3.84"/></g><g id="Rectangle_1_copy_18" data-name="Rectangle 1 copy 18"><rect class="cls-1" x="33.38" y="139.7" width="3.74" height="3.84"/></g><g id="Rectangle_1_copy_19" data-name="Rectangle 1 copy 19"><rect class="cls-1" x="28.91" y="139.7" width="3.74" height="3.84"/></g><g id="Rectangle_1_copy_20" data-name="Rectangle 1 copy 20"><rect class="cls-1" x="24.43" y="139.7" width="3.74" height="3.84"/></g><g id="Rectangle_1_copy_21" data-name="Rectangle 1 copy 21"><rect class="cls-1" x="33.4" y="144.24" width="3.74" height="3.84"/></g><g id="Rectangle_1_copy_22" data-name="Rectangle 1 copy 22"><rect class="cls-1" x="28.92" y="144.24" width="3.74" height="3.84"/></g><g id="Rectangle_1_copy_23" data-name="Rectangle 1 copy 23"><rect class="cls-1" x="24.45" y="144.24" width="3.74" height="3.84"/></g><g id="Shape_17" data-name="Shape 17"><polygon class="cls-1" points="64.69 111.36 18.17 111.36 18.17 113.82 65.91 113.82 64.69 111.36"/></g><g id="Rectangle_4" data-name="Rectangle 4"><rect class="cls-1" x="6.24" y="105.78" width="14.77" height="0.6"/></g><g id="Rectangle_5" data-name="Rectangle 5"><rect class="cls-1" x="19.06" y="106.38" width="3.61" height="7.44"/></g><g id="Rectangle_7" data-name="Rectangle 7"><rect class="cls-1" x="5.8" y="108.77" width="2.81" height="5.05"/></g><g id="Rectangle_8" data-name="Rectangle 8"><rect class="cls-1" x="5.01" y="104.89" width="2.75" height="4.45"/></g><g id="Rectangle_9" data-name="Rectangle 9"><rect class="cls-1" x="7.36" y="103.39" width="1.25" height="2.74"/></g><g id="Rectangle_10" data-name="Rectangle 10"><rect class="cls-1" x="18.17" y="103.27" width="1.52" height="2.83"/></g><g id="Rectangle_11" data-name="Rectangle 11"><rect class="cls-1" x="7.75" y="102.07" width="11.32" height="1.91"/></g><g id="Rectangle_6" data-name="Rectangle 6"><rect class="cls-1" x="18.17" y="108.77" width="5.46" height="5.05"/></g><g id="Rectangle_3" data-name="Rectangle 3"><rect class="cls-1" x="9.84" y="108.18" width="7.14" height="2.08"/></g><g id="Rectangle_3_copy" data-name="Rectangle 3 copy"><rect class="cls-1" x="9.84" y="111.45" width="7.14" height="2.08"/></g><g id="Shape_17_copy" data-name="Shape 17 copy"><polygon class="cls-1" points="102.11 111.36 100.89 113.82 148.63 113.82 148.63 111.36 102.11 111.36"/></g><g id="Rectangle_4_copy" data-name="Rectangle 4 copy"><rect class="cls-1" x="145.79" y="105.78" width="14.77" height="0.6"/></g><g id="Rectangle_5_copy" data-name="Rectangle 5 copy"><rect class="cls-1" x="144.14" y="106.38" width="3.61" height="7.44"/></g><g id="Rectangle_7_copy" data-name="Rectangle 7 copy"><rect class="cls-1" x="158.18" y="108.77" width="2.81" height="5.05"/></g><g id="Rectangle_8_copy" data-name="Rectangle 8 copy"><rect class="cls-1" x="159.04" y="104.89" width="2.75" height="4.45"/></g><g id="Rectangle_9_copy" data-name="Rectangle 9 copy"><rect class="cls-1" x="158.18" y="103.39" width="1.25" height="2.74"/></g><g id="Rectangle_10_copy" data-name="Rectangle 10 copy"><rect class="cls-1" x="147.11" y="103.27" width="1.52" height="2.83"/></g><g id="Rectangle_11_copy" data-name="Rectangle 11 copy"><rect class="cls-1" x="147.73" y="102.07" width="11.32" height="1.91"/></g><g id="Rectangle_6_copy" data-name="Rectangle 6 copy"><rect class="cls-1" x="143.16" y="108.77" width="5.46" height="5.05"/></g><g id="Rectangle_3_copy_2" data-name="Rectangle 3 copy 2"><rect class="cls-1" x="149.82" y="108.18" width="7.14" height="2.08"/></g><g id="Rectangle_3_copy_3" data-name="Rectangle 3 copy 3"><rect class="cls-1" x="149.82" y="111.45" width="7.14" height="2.08"/></g><g id="Ellipse_1" data-name="Ellipse 1"><path class="cls-1" d="M137.36,190.73a5.85,5.85,0,1,0,5.85,5.85A5.85,5.85,0,0,0,137.36,190.73Z" transform="translate(-53.99 -51.7)"/></g><g id="Shape_18" data-name="Shape 18"><path class="cls-1" d="M130.34,196.58A7.81,7.81,0,0,1,133,190.7s-4,1.9-4,5.88,4,5.9,4,5.9A7.88,7.88,0,0,1,130.34,196.58Z" transform="translate(-53.99 -51.7)"/></g><g id="Shape_18_copy" data-name="Shape 18 copy"><path class="cls-1" d="M141.8,190.7a7.91,7.91,0,0,1,0,11.78s4-1.92,4-5.9S141.8,190.7,141.8,190.7Z" transform="translate(-53.99 -51.7)"/></g><g id="Ellipse_1_copy" data-name="Ellipse 1 copy"><path class="cls-1" d="M137.46,152.34a5.85,5.85,0,1,0,5.85,5.85A5.85,5.85,0,0,0,137.46,152.34Z" transform="translate(-53.99 -51.7)"/></g><g id="Shape_18_copy_2" data-name="Shape 18 copy 2"><path class="cls-1" d="M137.46,149.83c-4,0-5.9,4-5.9,4a7.91,7.91,0,0,1,11.78,0S141.44,149.83,137.46,149.83Z" transform="translate(-53.99 -51.7)"/></g><g id="Shape_18_copy_3" data-name="Shape 18 copy 3"><path class="cls-1" d="M137.46,165.26a7.89,7.89,0,0,1-5.9-2.62s1.92,4,5.9,4,5.88-4,5.88-4A7.82,7.82,0,0,1,137.46,165.26Z" transform="translate(-53.99 -51.7)"/></g><g id="Rectangle_12" data-name="Rectangle 12"><rect class="cls-1" x="77.93" y="70.36" width="10.82" height="1"/></g><g id="Rectangle_12_copy" data-name="Rectangle 12 copy"><rect class="cls-1" x="77.93" y="72.04" width="10.82" height="1"/></g><g id="Rectangle_12_copy_2" data-name="Rectangle 12 copy 2"><rect class="cls-1" x="77.93" y="73.72" width="10.82" height="1"/></g><g id="Shape_19" data-name="Shape 19"><polygon class="cls-1" points="93.49 94.16 93.49 125.01 97.43 119.66 97.43 98.06 94.36 96.59 94.36 95.66 98.22 97.44 98.22 118.17 99.24 116.35 99.24 96.82 93.49 94.16"/></g><g id="Shape_20" data-name="Shape 20"><polygon class="cls-1" points="100.59 68.02 100.59 113.82 102.58 111.36 102.58 66.84 100.59 68.02"/></g><g id="Shape_21" data-name="Shape 21"><polygon class="cls-1" points="98.22 74.19 99.24 73.06 93.49 70.38 93.49 90.84 98.22 92.29 98.22 91.76 94.36 89.86 94.36 89 97.62 90.59 97.62 74.79 94.36 73.19 94.36 72.29 98.22 74.19"/></g><g id="Shape_22" data-name="Shape 22"><polygon class="cls-1" points="98.62 73.06 98.09 74.04 98.16 74.16 98.22 74.19 98.22 91.77 98.03 91.84 93.49 90.7 93.49 90.86 99.24 93.54 99.24 73.06 98.62 73.06"/></g><g id="Shape_23" data-name="Shape 23"><polygon class="cls-1" points="101.08 112.09 100.59 112.51 98.22 116.38 91.68 127.07 93.49 127.75 94.75 125.38 101.84 113.82 102.2 113.21 101.08 112.09"/></g><g id="Shape_19_copy" data-name="Shape 19 copy"><polygon class="cls-1" points="67.5 96.82 67.5 116.35 68.52 118.17 68.52 97.44 72.38 95.66 72.38 96.59 69.31 98.06 69.31 119.66 73.25 125.01 73.25 94.16 67.5 96.82"/></g><g id="Shape_20_copy" data-name="Shape 20 copy"><polygon class="cls-1" points="64.16 66.84 64.16 111.36 66.15 113.82 66.15 68.02 64.16 66.84"/></g><g id="Shape_21_copy" data-name="Shape 21 copy"><polygon class="cls-1" points="67.5 73.06 68.52 74.19 72.38 72.29 72.38 73.19 69.12 74.79 69.12 90.59 72.38 89 72.38 89.86 68.52 91.76 68.52 92.29 73.25 90.84 73.25 70.38 67.5 73.06"/></g><g id="Shape_22_copy" data-name="Shape 22 copy"><polygon class="cls-1" points="68.71 91.84 68.52 91.77 68.52 74.19 68.58 74.16 68.65 74.04 68.12 73.06 67.5 73.06 67.5 93.54 73.25 90.86 73.25 90.7 68.71 91.84"/></g><g id="Shape_23_copy" data-name="Shape 23 copy"><polygon class="cls-1" points="68.52 116.38 66.15 112.51 65.66 112.09 64.54 113.21 64.9 113.82 72 125.38 73.25 127.75 75.06 127.07 68.52 116.38"/></g><g id="Rectangle_12_copy_3" data-name="Rectangle 12 copy 3"><rect class="cls-1" x="77.93" y="75.4" width="10.82" height="1"/></g><g id="Rectangle_12_copy_4" data-name="Rectangle 12 copy 4"><rect class="cls-1" x="77.93" y="77.07" width="10.82" height="1"/></g><g id="Rectangle_12_copy_5" data-name="Rectangle 12 copy 5"><rect class="cls-1" x="77.93" y="78.77" width="10.82" height="1"/></g><g id="Rectangle_12_copy_6" data-name="Rectangle 12 copy 6"><rect class="cls-1" x="77.93" y="80.45" width="10.82" height="1"/></g><g id="Rectangle_12_copy_7" data-name="Rectangle 12 copy 7"><rect class="cls-1" x="77.93" y="82.13" width="10.82" height="1"/></g><g id="Rectangle_12_copy_8" data-name="Rectangle 12 copy 8"><rect class="cls-1" x="77.93" y="83.81" width="10.82" height="1"/></g><g id="Rectangle_12_copy_9" data-name="Rectangle 12 copy 9"><rect class="cls-1" x="77.93" y="85.48" width="10.82" height="1"/></g><g id="Rectangle_12_copy_10" data-name="Rectangle 12 copy 10"><rect class="cls-1" x="77.93" y="87.16" width="10.82" height="1"/></g><g id="Rectangle_12_copy_11" data-name="Rectangle 12 copy 11"><rect class="cls-1" x="77.93" y="88.84" width="10.82" height="1"/></g><g id="Shape_24" data-name="Shape 24"><polygon class="cls-1" points="92.58 59.02 73.83 59.02 62.34 65.13 62.34 68.11 73.81 62.02 92.66 62.02 104.18 67.97 104.18 65.04 92.58 59.02"/></g><g id="Shape_25" data-name="Shape 25"><polygon class="cls-1" points="98.62 57.27 94.33 54.96 72.02 54.96 69.31 56.28 60.36 61.07 61.91 62.6 72.51 56.9 94.17 56.9 105.01 62.72 106.32 61.41 98.62 57.27"/></g><g id="Shape_26" data-name="Shape 26"><path class="cls-1" d="M135.54,91.1c-2.54.94-3.37,4.73-4.16,9.58s-2.69,7-2.69,7l1,0s.25-.3,1.6-2.08,1.57-5.51,2.39-9.6,2.95-5,2.95-5S138.07,90.16,135.54,91.1Z" transform="translate(-53.99 -51.7)"/></g><g id="Shape_26_copy" data-name="Shape 26 copy"><path class="cls-1" d="M131.76,90.66c-3,.85-4.3,5.13-5.65,10.64s-3.72,7.85-3.72,7.85l1.18.06s.32-.32,2-2.23,2.3-6.2,3.61-10.82S133,90.54,133,90.54,134.75,89.8,131.76,90.66Z" transform="translate(-53.99 -51.7)"/></g><g id="Shape_26_copy_2" data-name="Shape 26 copy 2"><path class="cls-1" d="M143.42,100.69c-.79-4.86-1.63-8.65-4.16-9.59s-1.12-.06-1.12-.06,2.12.91,3,5,1,7.84,2.39,9.61,1.6,2.07,1.6,2.07l1,0S144.21,105.54,143.42,100.69Z" transform="translate(-53.99 -51.7)"/></g><g id="Shape_26_copy_3" data-name="Shape 26 copy 3"><path class="cls-1" d="M148.69,101.3c-1.35-5.51-2.65-9.79-5.65-10.65s-1.29,0-1.29,0,2.52.85,3.84,5.47,1.9,8.91,3.61,10.82,2,2.24,2,2.24l1.18-.07S150,106.8,148.69,101.3Z" transform="translate(-53.99 -51.7)"/></g><g id="Rectangle_13" data-name="Rectangle 13"><rect class="cls-1" x="79.05" y="45.61" width="9.06" height="0.94"/></g><g id="Rectangle_14" data-name="Rectangle 14"><rect class="cls-1" x="77.28" y="52.06" width="12.15" height="1.35"/></g><path class="cls-1" d="M220.89,132.63c0-1-.07-2-.14-2.94-.08-1.14-.17-2.27-.29-3.41s-.25-2.18-.41-3.27c-.25-1.67-.54-3.33-.89-5-.54-2.58-1.19-5.12-2-7.63a83.62,83.62,0,0,0-56.83-55.52c-2.4-.68-4.82-1.26-7.27-1.72-1-.2-2.09-.36-3.14-.53-.63-.1-1.28-.18-1.92-.26-.87-.11-1.75-.21-2.63-.3-.7-.07-1.41-.11-2.11-.16-1.28-.11-2.55-.16-3.83-.19-.8,0-1.61,0-2.41,0-1.57,0-3.14.08-4.71.15-.59,0-1.18.07-1.76.12-1,.1-2,.19-2.93.31s-2,.24-3,.4c-1.41.22-2.82.48-4.22.77A82.53,82.53,0,0,0,92,65.17,83.68,83.68,0,0,0,58.87,107a85.15,85.15,0,0,0-2.75,9.37c-.35,1.51-.66,3-.92,4.56-.15.89-.28,1.78-.4,2.68-.1.69-.19,1.4-.27,2.1s-.13,1.13-.18,1.7-.1,1.41-.16,2.11c-.11,1.21-.15,2.43-.18,3.65-.06,2.61,0,5.22.18,7.82.1,1.3.21,2.59.36,3.87s.32,2.57.53,3.85c.31,1.94.7,3.86,1.15,5.77a83.45,83.45,0,0,0,3.43,11h.69c.18-.52.35-1,.54-1.56a2.52,2.52,0,0,0,.16-1c0-1.49,0-3-.07-4.47a3.13,3.13,0,0,1,0-.53.13.13,0,0,1,.11-.12,1,1,0,0,1,.17,0h.47c.2,0,.27-.08.28-.3v-1.12a.57.57,0,0,1,.17-.42c.19-.19.39-.38.58-.58a.47.47,0,0,1,.37-.14h8.78a.44.44,0,0,1,.32.13c.21.2.41.41.62.62a.44.44,0,0,1,.13.32v.94c0,.7-.07.57.51,1,.16.14.34.27.5.4a.29.29,0,0,1,.13.25c0,.1,0,.2,0,.3,0,1.65,0,3.3-.07,4.95a2.71,2.71,0,0,0,0,.29c0,.45,0,.48.44.48h40.59a.19.19,0,0,0,.15-.15,5.88,5.88,0,0,0-.11-.94c0-.26-.08-.3-.34-.3H109.2c-.68,0-.53.07-1-.44a40.21,40.21,0,0,1-10.66-21.51c-.19-1.24-.34-2.49-.41-3.74a41.44,41.44,0,0,1,.06-6c.11-1.23.27-2.46.48-3.68a39,39,0,0,1,1.61-6.2,40.49,40.49,0,0,1,27.3-25.61L127.7,96l1-.78a2.65,2.65,0,0,0,.55-.61c.39-.59.8-1.17,1.18-1.76a1.9,1.9,0,0,1,.63-.6l.23-.14.34-.36a7.89,7.89,0,0,1,4.51-2.24,6.77,6.77,0,0,1,1-.13V83.84c0-.06,0-.12,0-.18a.23.23,0,0,0-.21-.23h-4.8a.9.9,0,0,1-.89.59,1,1,0,0,1,0-2,.93.93,0,0,1,.95.77h4.74a.21.21,0,0,0,.2-.18c0-.16,0-.32,0-.48V73c0-.13,0-.27,0-.41a.27.27,0,0,0-.11-.2l-.15-.09-3-1.62a1.11,1.11,0,0,0-.56-.14h-2.94c-.14,0-.22.07-.23.21s0,0,0,.06-.12.12-.18.06c-.86-.83-.84-.56,0-1.4,0,0,.07,0,.12,0s0,.19.07.27a.25.25,0,0,0,.13.12.47.47,0,0,0,.17,0h3.18a1.21,1.21,0,0,0,.56-.16l2.49-1.34c.51-.27.46-.24.46-.77V61.09c0-.1,0-.2,0-.29a1,1,0,1,1,.68,0v.4c0,2,0,4,0,6.07,0,.78-.06.73.73.73h9.13a.35.35,0,0,1,.11,0s.06.07.05.09a1.37,1.37,0,0,1-.13.2l-1.56,1.61a.7.7,0,0,0-.24.32c0,.12.11.2.19.28l1.52,1.56.16.18c.05,0,.07.13,0,.15a.33.33,0,0,1-.1.06H138.5l-.53,0a.19.19,0,0,0-.16.15c0,.16,0,.31,0,.47,0,3,0,6,0,9v.35c0,.18.09.27.25.27h4.52a.92.92,0,0,1,.95-.78,1,1,0,0,1,0,2,.9.9,0,0,1-.89-.59h-4.28c-.55,0-.55,0-.55.56,0,1.8,0,3.61,0,5.42a10.35,10.35,0,0,1,1.41.2,7.06,7.06,0,0,1,2.27.84,7.41,7.41,0,0,1,1.8,1.34l0,0,.44.23c.16.08.31.17.47.24a.81.81,0,0,1,.33.33l.15.32,1.18,2.3.46.9a.85.85,0,0,0,.24.33l.87.69s0,0,.06,0a.18.18,0,0,0,0-.09c0-.09-.06-.19-.09-.28s-.11-.25-.16-.38-.1-.18,0-.27.15,0,.23,0c1.29.34,2.56.73,3.81,1.19A40.17,40.17,0,0,1,169,110.1a40,40,0,0,1,8.4,19.5c.13.93.24,1.87.3,2.81a41.29,41.29,0,0,1,.06,4.59c-.08,1.31-.19,2.62-.37,3.92a36.16,36.16,0,0,1-.89,4.5,40.25,40.25,0,0,1-9.68,17.49l-.57.58-.19,0h-1.17c-.79,0-.71-.07-.75.67l0,.35c0,.33,0,.38.35.38h36.35c.18,0,.25-.08.25-.25s0-.35,0-.53v-4.77c0-.18,0-.35,0-.53a.35.35,0,0,1,.11-.26l.39-.36.29-.3c0-.47.09-.94.13-1.41s.07-.51.41-.79l.46-.37a.47.47,0,0,1,.37-.13h.47l4.78,0,3.12,0a1.89,1.89,0,0,1,.58,0,.74.74,0,0,1,.12.13l.68,1.3a1.31,1.31,0,0,1,.15.51c0,.17,0,.35.05.53a.18.18,0,0,0,.14.17l.78.26c.17.06.23.13.23.3l-.09,2.12a.62.62,0,0,1-.11.32c-.16.25-.3.51-.46.76a.68.68,0,0,0-.11.5l.09,1c0,.54.09,1.09.13,1.64a.5.5,0,0,0,.18.36l.54.44h.11l.16,0,.16,0a.57.57,0,0,1,.18,0h.11s0,0,.05,0a82.54,82.54,0,0,0,3.3-10.43c.39-1.6.74-3.21,1-4.83.19-1.08.36-2.17.52-3.26.11-.69.19-1.4.28-2.1s.13-1.13.18-1.69.1-1.34.16-2c.09-1.12.15-2.23.18-3.35C220.94,136.12,220.94,134.37,220.89,132.63Z" transform="translate(-53.99 -51.7)"/><path class="cls-2" d="M271.82,114.32q0,7.79-4.59,12.52t-12.78,4.74q-7.83,0-12.1-4.38c-2.85-2.92-4.27-6.86-4.27-11.85q0-7.77,4.61-12.31t12.75-4.54q7.83,0,12.1,4.24T271.82,114.32Zm-26.18.29q0,7.2,2.42,11a7.93,7.93,0,0,0,7.13,3.81A7.54,7.54,0,0,0,262,126c1.48-2.31,2.22-6,2.22-10.89q0-7-2.34-10.73a7.94,7.94,0,0,0-7.24-3.74c-3.17,0-5.46,1.16-6.9,3.47S245.64,109.92,245.64,114.61Z" transform="translate(-53.99 -51.7)"/><path class="cls-2" d="M304.16,99.25c2.07.06,3.94.09,5.6.09,1.49,0,3.23,0,5.24-.09l.14,1.14-3.08.88a.71.71,0,0,0-.54.74c0,1,0,2.24,0,3.74v17.93c0,1.77,0,3.26,0,4.48a.72.72,0,0,0,.6.69l2.93.84.09,1.12c-2.15,0-4.52-.06-7.13-.06s-4.66,0-6.37.06l-.11-1.12,2.59-.79a.78.78,0,0,0,.56-.81c0-1.17.07-2.64.07-4.41v-14.4c0-.78,0-2.27.06-4.48-.51,1.29-1.05,2.63-1.62,4l-8.95,21.94-2,.17-8.55-21.3c-.51-1.22-1-2.58-1.57-4.08,0,2.13,0,3.54,0,4.21v13.93c0,1.77,0,3.24.05,4.41a.76.76,0,0,0,.58.81l2.47.79.07,1.12c-1.77,0-3.3-.06-4.61-.06s-3,0-5.06.06l-.11-1.12,3-.84a.74.74,0,0,0,.61-.69c0-1.22,0-2.71,0-4.48V105.75c0-1.5,0-2.75,0-3.74a.73.73,0,0,0-.54-.74l-3-.88-.07-1.14c2.49.06,4.35.09,5.6.09,1.71,0,3.45,0,5.24-.09l7.85,19.82c.34.85.65,1.66.92,2.43l.95-2.43Z" transform="translate(-53.99 -51.7)"/><path class="cls-2" d="M353.06,114.32q0,7.79-4.59,12.52t-12.77,4.74q-7.83,0-12.1-4.38c-2.85-2.92-4.28-6.86-4.28-11.85q0-7.77,4.61-12.31t12.76-4.54q7.81,0,12.1,4.24T353.06,114.32Zm-26.18.29q0,7.2,2.43,11a7.92,7.92,0,0,0,7.13,3.81,7.56,7.56,0,0,0,6.85-3.46c1.47-2.31,2.21-6,2.21-10.89q0-7-2.34-10.73a7.94,7.94,0,0,0-7.24-3.74q-4.74,0-6.89,3.47T326.88,114.61Z" transform="translate(-53.99 -51.7)"/><path class="cls-2" d="M367.64,115.33v8.35c0,1.77,0,3.25,0,4.43a.76.76,0,0,0,.59.79l2.6.79.07,1.12c-1.86,0-4.05-.06-6.59-.06s-4.93,0-7,.06l-.11-1.12,3-.84a.72.72,0,0,0,.6-.69c0-1.22.05-2.71.05-4.48V105.75c0-1.5,0-2.75-.05-3.74a.71.71,0,0,0-.54-.74l-3-.88-.07-1.14c2.09.06,4.39.09,6.93.09s4.83,0,6.66-.09l.13,1.14-2.67.77a.71.71,0,0,0-.59.69c0,1.08,0,2.35,0,3.81V113H381v-7.29c0-1.46,0-2.73,0-3.81a.71.71,0,0,0-.59-.69l-2.63-.77-.07-1.14q2.87.09,6.75.09t6.86-.09l.11,1.14-3.06.88a.76.76,0,0,0-.56.74c0,1,0,2.24,0,3.74v17.93c0,1.77,0,3.26,0,4.48a.77.77,0,0,0,.63.69l2.93.84.06,1.12q-3.21-.06-7.1-.06t-6.51.06l-.11-1.12,2.7-.79a.76.76,0,0,0,.59-.79c0-1.18,0-2.66,0-4.43v-8.35Z" transform="translate(-53.99 -51.7)"/><path class="cls-2" d="M394.52,99.25q3.12.09,6.92.09t6.93-.09l.11,1.14-2.92.84a.7.7,0,0,0-.59.67q0,.81,0,1.74c0,.63,0,1.3,0,2v12.4q0,6.14,1.84,8.49t6,2.35c2.71,0,4.75-.83,6.1-2.49s2-4.34,2-8.06V105.66c0-.72,0-1.39,0-2s0-1.2-.05-1.74a.69.69,0,0,0-.58-.67l-2.79-.79-.07-1.19c2,.06,3.72.09,5.17.09s3.05,0,5.09-.09l.11,1.14-3.06.88a.72.72,0,0,0-.56.74c0,.51,0,1.08,0,1.69s0,1.3,0,2v11.43q0,7.74-3.18,11.1t-9.26,3.37q-6.9,0-10.18-3.21t-3.29-10.27V105.75c0-.75,0-1.43,0-2s0-1.18,0-1.69a.73.73,0,0,0-.54-.74l-3-.88Z" transform="translate(-53.99 -51.7)"/><path class="cls-2" d="M436.76,128.07a.73.73,0,0,0,.56.78l2.88.79.07,1.17c-2,0-3.69-.06-5-.06s-3,0-5.06.06l-.11-1.12,3-.84a.74.74,0,0,0,.61-.69c0-1.22,0-2.71,0-4.48V105.75c0-1.5,0-2.75,0-3.74a.73.73,0,0,0-.54-.74l-3-.88-.07-1.14q3.15.09,4.83.09c1.47,0,2.87,0,4.19-.09l15,18.74c.6.75,1.21,1.54,1.84,2.38,0-1,0-2,0-3V105.66c0-1.46,0-2.71-.05-3.76a.7.7,0,0,0-.58-.67l-2.88-.79-.07-1.19q3.1.09,5,.09t5-.09l.12,1.14-3.06.88a.71.71,0,0,0-.54.74c-.05,1-.07,2.24-.07,3.74v25l-2.59.24-17.72-22.21c-.53-.67-1.13-1.47-1.82-2.4,0,1.11,0,2.13,0,3.06v14.24C436.71,125.45,436.73,126.91,436.76,128.07Z" transform="translate(-53.99 -51.7)"/><path class="cls-2" d="M471.57,130.75q-2.9,0-6,.06l-.11-1.12,3-.84a.73.73,0,0,0,.61-.69c0-.6,0-1.27,0-2s0-1.56,0-2.46V105.75c0-.75,0-1.43,0-2s0-1.18,0-1.69a.71.71,0,0,0-.54-.74l-3-.88-.07-1.14q3.15.09,6,.09,2.43,0,4.65-.12c1.49-.07,3-.11,4.61-.11q8.4,0,12.62,3.59t4.23,10.65q0,8.33-4.69,12.93t-13.19,4.6c-1.56,0-2.95,0-4.16-.07S473,130.75,471.57,130.75Zm4.32-2.3a15.92,15.92,0,0,0,2.12.26c.69,0,1.38,0,2.09,0a8.63,8.63,0,0,0,7.42-3.44q2.55-3.43,2.54-10.48,0-6.87-2.43-10.18c-1.61-2.22-4.16-3.32-7.64-3.32-1.29,0-2.66.06-4.1.18Z" transform="translate(-53.99 -51.7)"/><path class="cls-2" d="M512.2,123.68c0,.9,0,1.71,0,2.42s0,1.36,0,2,.19.77.52.87l2.34.77.07,1.12q-2.5-.06-6.19-.06-3.93,0-7,.06l-.11-1.12,3-.84a.73.73,0,0,0,.61-.69c0-.6,0-1.27,0-2s0-1.56,0-2.46V105.75c0-.75,0-1.43,0-2s0-1.18,0-1.69a.71.71,0,0,0-.54-.74l-3-.88-.07-1.14q3.15.09,6.46.09c.46,0,1,0,1.73,0l2.52-.08,2.26-.06,1.43,0q5.78,0,8.67,1.94a6.38,6.38,0,0,1,2.89,5.65,8,8,0,0,1-1.77,5.41,11.2,11.2,0,0,1-5.18,3.16q1.89,2.79,2.91,4.52c.68,1.16,1.37,2.29,2.06,3.41s1.31,2.1,1.88,3a13.07,13.07,0,0,0,1.58,2,8.9,8.9,0,0,0,.78.59,6.36,6.36,0,0,0,.77.43,5.56,5.56,0,0,0,.87.3c.31.08.65.16,1,.23l.09,1.15a35.91,35.91,0,0,1-5,.32,11.15,11.15,0,0,1-3.14-.3,5.07,5.07,0,0,1-1.6-.83,8.92,8.92,0,0,1-1.9-2.11c-.58-.87-1.19-1.86-1.84-3s-1.3-2.26-2-3.49-1.39-2.44-2.14-3.64l-.56-.86a2,2,0,0,0-.42-.5,1.35,1.35,0,0,0-.45-.25,2.34,2.34,0,0,0-.6-.1l-.94,0Zm0-9.47q1.18.06,2.16.06a6.07,6.07,0,0,0,4.67-1.6c1-1.08,1.49-2.75,1.49-5s-.48-3.82-1.43-4.83a5.84,5.84,0,0,0-4.44-1.52c-.35,0-.72,0-1.12,0s-.84.07-1.33.13Z" transform="translate(-53.99 -51.7)"/><path class="cls-2" d="M567,114.32q0,7.79-4.59,12.52t-12.77,4.74q-7.83,0-12.1-4.38c-2.85-2.92-4.28-6.86-4.28-11.85q0-7.77,4.61-12.31t12.76-4.54q7.82,0,12.1,4.24T567,114.32Zm-26.18.29q0,7.2,2.43,11a7.93,7.93,0,0,0,7.13,3.81,7.56,7.56,0,0,0,6.85-3.46c1.48-2.31,2.21-6,2.21-10.89q0-7-2.34-10.73a7.93,7.93,0,0,0-7.24-3.74q-4.74,0-6.89,3.47T540.83,114.61Z" transform="translate(-53.99 -51.7)"/><path class="cls-1" d="M251.72,165.35c0,.75,0,1.43,0,2s0,1.17,0,1.67c0,.31.23.53.66.64l2.11.65,0,.81q-2.41-.06-4.65-.06c-1.51,0-3.06,0-4.64.06l-.08-.81,2.31-.69a.61.61,0,0,0,.5-.58q0-.75,0-1.68c0-.62,0-1.3,0-2.05V150.14c0-.64,0-1.21,0-1.72s0-1,0-1.39a.63.63,0,0,0-.45-.64l-2.32-.73,0-.81c1.61.05,3.16.08,4.65.08s3.05,0,4.65-.08l.07.81-2.32.69a.61.61,0,0,0-.49.58q0,.66,0,1.44c0,.52,0,1.08,0,1.7Z" transform="translate(-53.99 -51.7)"/><path class="cls-1" d="M278.16,150.2v15.15c0,1.47,0,2.7,0,3.67a.61.61,0,0,0,.47.64l2.23.66,0,.84q-2.34-.06-3.84-.06c-1,0-2.27,0-3.88.06l-.08-.81,2.31-.69a.61.61,0,0,0,.5-.58c0-1,0-2.26,0-3.73V150.14c0-1.25,0-2.29,0-3.11a.63.63,0,0,0-.45-.64l-2.32-.73,0-.81c1.61.05,2.89.08,3.83.08.56,0,1.13,0,1.7-.08l15.75,19.67V150.07c0-1.22,0-2.26,0-3.14a.62.62,0,0,0-.49-.58l-2.21-.63,0-.87c1.6.05,2.89.08,3.88.08s2.28,0,3.84-.08l.08.81-2.36.73a.63.63,0,0,0-.45.64c0,.82,0,1.86,0,3.11v21l-1.57.15Z" transform="translate(-53.99 -51.7)"/><path class="cls-1" d="M330.72,146.56a11.46,11.46,0,0,0-3.62-.66,6.08,6.08,0,0,0-4,1.2,4.08,4.08,0,0,0-1.47,3.34,4.24,4.24,0,0,0,.52,2.14,5.44,5.44,0,0,0,1.39,1.61,11,11,0,0,0,2,1.24c.74.36,1.5.72,2.29,1.07s1.7.77,2.51,1.19a11.4,11.4,0,0,1,2.2,1.47,6.51,6.51,0,0,1,1.58,2,6.16,6.16,0,0,1,.59,2.76,6.44,6.44,0,0,1-2.92,5.7,13.21,13.21,0,0,1-7.54,2,24.85,24.85,0,0,1-6.6-1l-.11-.15.92-6.38.84-.13,1.31,5.33a11.06,11.06,0,0,0,4.07.78,6.89,6.89,0,0,0,4.36-1.23,4.75,4.75,0,0,0,1.06-5.64,5.06,5.06,0,0,0-1.36-1.56,11.82,11.82,0,0,0-1.94-1.2l-2.25-1c-.88-.38-1.72-.78-2.55-1.22a12.29,12.29,0,0,1-2.24-1.53,6.37,6.37,0,0,1-1.6-2.14,6.81,6.81,0,0,1-.6-2.95,5.91,5.91,0,0,1,2.84-5.25,12.58,12.58,0,0,1,7-1.86,29.17,29.17,0,0,1,6.2.7l.13.13-1.1,5.85-.75.13Z" transform="translate(-53.99 -51.7)"/><path class="cls-1" d="M362.23,171.1q-2.31,0-5.1.06l-.07-.81,2.77-.82a.59.59,0,0,0,.49-.58c0-.95,0-2.17,0-3.64V146.6h-6.62l-1.67,5-.75.13-.49-6.72.14-.15q4.61.08,8.82.08h5q4.2,0,8.86-.08l.12.15-1.18,6.59-.75.13-1.2-5.12H364v18.71c0,1.47,0,2.69,0,3.64a.59.59,0,0,0,.48.58l2.78.82,0,.81C365.43,171.12,363.72,171.1,362.23,171.1Z" transform="translate(-53.99 -51.7)"/><path class="cls-1" d="M397.68,165.35c0,.75,0,1.43,0,2s0,1.17,0,1.67c0,.31.23.53.65.64l2.12.65,0,.81q-2.41-.06-4.65-.06t-4.65.06l-.07-.81,2.3-.69a.63.63,0,0,0,.51-.58q0-.75,0-1.68v-19c0-.52,0-1,0-1.39a.64.64,0,0,0-.45-.64l-2.33-.73,0-.81c1.61.05,3.16.08,4.64.08s3.05,0,4.65-.08l.08.81-2.33.69a.59.59,0,0,0-.48.58q0,.66,0,1.44c0,.52,0,1.08,0,1.7Z" transform="translate(-53.99 -51.7)"/><path class="cls-1" d="M429.53,171.1q-2.31,0-5.1.06l-.08-.81,2.78-.82a.6.6,0,0,0,.49-.58c0-.95,0-2.17,0-3.64V146.6H421l-1.67,5-.75.13-.49-6.72.13-.15q4.62.08,8.83.08h5c2.79,0,5.75,0,8.86-.08l.11.15-1.18,6.59-.75.13-1.2-5.12h-6.61v18.71c0,1.47,0,2.69,0,3.64a.59.59,0,0,0,.48.58l2.78.82,0,.81Q431.77,171.1,429.53,171.1Z" transform="translate(-53.99 -51.7)"/><path class="cls-1" d="M457.8,144.85c1.61.05,3.16.08,4.65.08s3.05,0,4.65-.08l.07.81-2.32.69a.6.6,0,0,0-.49.58q0,.66,0,1.44c0,.52,0,1.08,0,1.7v10.25q0,5.37,1.71,7.44t5.49,2.07q3.84,0,5.57-2.14c1.14-1.42,1.72-3.8,1.72-7.14V150.07c0-.62,0-1.18,0-1.7s0-1-.05-1.44a.61.61,0,0,0-.48-.58l-2.2-.63,0-.87c1.58.05,2.94.08,4.08.08s2.41,0,4-.08l.07.81-2.36.73a.63.63,0,0,0-.45.64c0,.41,0,.87,0,1.39s0,1.08,0,1.72v9.62q0,6.15-2.5,9.09t-7.88,3c-3.51,0-6.11-.89-7.78-2.66s-2.51-4.51-2.51-8.24V150.14c0-.64,0-1.21,0-1.72s0-1,0-1.39a.63.63,0,0,0-.45-.64l-2.32-.73Z" transform="translate(-53.99 -51.7)"/><path class="cls-1" d="M512.33,171.1q-2.31,0-5.1.06l-.08-.81,2.78-.82a.6.6,0,0,0,.49-.58c0-.95,0-2.17,0-3.64V146.6h-6.61l-1.67,5-.75.13-.49-6.72.13-.15q4.62.08,8.83.08h5c2.79,0,5.75,0,8.86-.08l.11.15-1.18,6.59-.75.13-1.2-5.12h-6.61v18.71c0,1.47,0,2.69,0,3.64a.59.59,0,0,0,.48.58l2.78.82,0,.81C515.53,171.12,513.81,171.1,512.33,171.1Z" transform="translate(-53.99 -51.7)"/><path class="cls-1" d="M545.9,144.93h4.56q4.2,0,8.86-.08l.11.15-1.08,5.8-.75.13-1.16-4.33h-8.66v10.31h1.7c1.3,0,2.75,0,4.35,0a.63.63,0,0,0,.64-.49l.65-2.53,1,0c0,1.75-.06,3-.06,3.88s0,2.08.06,3.82l-1,.08-.67-2.57a.61.61,0,0,0-.58-.51l-4.41,0h-1.68v6.82q0,2.08,0,4.11h9l2.29-4.77.84-.15-.41,6.53-.13.13c-3.24,0-6.22-.06-9-.06H546q-2.26,0-4.65.06l-.08-.81,2.31-.69a.61.61,0,0,0,.5-.58q0-.75,0-1.68c0-.62,0-1.3,0-2.05V150.14c0-.64,0-1.21,0-1.72s0-1,0-1.39a.64.64,0,0,0-.44-.64l-2.33-.73,0-.81C542.87,144.9,544.41,144.93,545.9,144.93Z" transform="translate(-53.99 -51.7)"/></svg>