<svg id="Layer_1" data-name="Layer 1" xmlns="http://www.w3.org/2000/svg" viewBox="0 0 58.45 20.81"><defs><style>.cls-1{fill:#53575a;}</style></defs><title>Rice_Wordmark_425_Gray</title><path class="cls-1" d="M42.78,27.16a10.16,10.16,0,0,1-3.21-7.86,10.62,10.62,0,0,1,3-7.25c1.59-1.59,4-2.83,8.09-2.83a22.59,22.59,0,0,1,3.85.31,21.69,21.69,0,0,0,2.71.4c.29,0,.34.13.34.29s-.08.53-.13,1.49,0,2.34-.08,2.73-.08.56-.24.56-.21-.19-.21-.56a3.66,3.66,0,0,0-1.11-2.7,8.83,8.83,0,0,0-5.31-1.52c-3.53,0-5.18,1-6.11,1.94C42.41,14,42,16.38,42,19.09a9.58,9.58,0,0,0,9.58,9.71c2,0,3.55-.24,4.61-1.33a5,5,0,0,0,1-2.23c0-.29.1-.39.26-.39s.19.18.19.39a26.75,26.75,0,0,1-.59,3.4c-.16.51-.21.56-.69.77a15.2,15.2,0,0,1-4.77.61C47.55,30,44.87,29,42.78,27.16Z" transform="translate(-13.36 -9.22)"/><path class="cls-1" d="M62.36,17.28c0-4.14,0-4.88,0-5.73S62,10.22,61.17,10a4.43,4.43,0,0,0-.9-.08c-.11,0-.22-.05-.22-.16s.14-.21.43-.21c1.19,0,2.86.08,3,.08s5.46,0,6.07,0a8.23,8.23,0,0,0,1.15-.13c.13,0,.23-.14.37-.14s.1.11.1.24-.13.51-.21,1.25c0,.27-.08,1.43-.13,1.75,0,.13-.08.29-.19.29s-.21-.13-.21-.34a2.94,2.94,0,0,0-.16-1c-.19-.42-.45-.74-1.88-.9-.45,0-3.35-.08-3.64-.08-.11,0-.16.08-.16.27v7.32c0,.19,0,.27.16.27.35,0,3.61,0,4.22-.06s1-.1,1.25-.37.29-.34.4-.34.13.05.13.21-.13.61-.21,1.49c-.06.53-.11,1.51-.11,1.69s0,.51-.19.51-.18-.11-.18-.24a2.64,2.64,0,0,0-.11-.88c-.1-.37-.34-.82-1.38-.92-.71-.08-3.34-.14-3.79-.14a.17.17,0,0,0-.19.19V22c0,.91,0,4,0,4.54.08,1.83.48,2.18,3.08,2.18a7.67,7.67,0,0,0,2.55-.29c.69-.3,1-.83,1.19-1.91,0-.3.11-.4.24-.4s.16.21.16.4A24.25,24.25,0,0,1,71.46,29c-.18.69-.39.69-1.43.69-4,0-5.78-.16-6.55-.16-.14,0-1.81.08-2.6.08-.3,0-.43,0-.43-.21s0-.16.21-.16a3.67,3.67,0,0,0,.8-.11c.53-.1.66-.69.77-1.46.13-1.11.13-3.21.13-5.76Z" transform="translate(-13.36 -9.22)"/><path class="cls-1" d="M32.18,29.12a2.68,2.68,0,0,1-1-.17,6.67,6.67,0,0,1-2.3-1.66c-1.54-1.65-3.34-4-5.52-6.8,2.39-2.2,3.21-4.16,3.21-6.13a4.63,4.63,0,0,0-1.83-3.61,8.2,8.2,0,0,0-4.85-1.16c-.83,0-2.84.08-3.14.08-.13,0-1.8-.08-3-.08-.3,0-.43.05-.43.21s.11.16.21.16a4.53,4.53,0,0,1,.91.08c.87.18,1.08.61,1.14,1.51s.05,1.59.05,5.73V22c0,2.55,0,4.65-.13,5.76-.11.77-.24,1.36-.77,1.46a3.67,3.67,0,0,1-.8.11c-.16,0-.21.08-.21.16s.13.21.42.21c.8,0,2.47-.08,2.5-.08s1.8.08,3.26.08c.29,0,.43-.08.43-.21s-.06-.16-.22-.16A10.08,10.08,0,0,1,19,29.17c-.8-.1-.95-.69-1-1.46-.14-1.11-.14-3.21-.14-5.76v-.63c0-.14.06-.22.19-.22l3.26.06a.43.43,0,0,1,.35.16c.53.69,1.78,2.46,2.89,3.92,1.51,2,2.44,3.3,3.58,3.91a5.44,5.44,0,0,0,2.84.5h.78c.8,0,2.47-.08,2.6-.08s1.81.08,3.27.08c.29,0,.42-.08.42-.21s0-.16-.21-.16a9.9,9.9,0,0,1-1.19-.11c-.8-.1-1-.69-1-1.46C35.4,26.6,35.4,24.5,35.4,22V17.28c0-4.14,0-4.88.05-5.73s.27-1.38,1-1.51a3,3,0,0,1,.7-.08.18.18,0,0,0,.18-.18c0-.14-.14-.19-.43-.19-.79,0-2.46.08-2.6.08s-1.8-.08-2.68-.08c-.29,0-.42.05-.42.21s.1.16.21.16a3.36,3.36,0,0,1,.82.1c.59.14.85.59.91,1.49s.05,1.59.05,5.73V22c0,2.55,0,4.65-.13,5.76a3.53,3.53,0,0,1-.25,1,.69.69,0,0,1-.61.39Zm-9.42-9.29a3.4,3.4,0,0,1-2,.5A7.33,7.33,0,0,1,18,19.91a.36.36,0,0,1-.19-.32V10.91A.3.3,0,0,1,18,10.6a7.89,7.89,0,0,1,1.77-.16c2.84,0,4.59,2,4.59,5.3C24.37,17.76,23.68,19.19,22.76,19.83Z" transform="translate(-13.36 -9.22)"/></svg>