<?xml version="1.0" encoding="utf-8"?>
<!-- Generator: Adobe Illustrator 19.2.1, SVG Export Plug-In . SVG Version: 6.00 Build 0)  -->
<svg version="1.1" id="Layer_1" xmlns="http://www.w3.org/2000/svg" xmlns:xlink="http://www.w3.org/1999/xlink" x="0px" y="0px"
	 viewBox="0 0 100 100" style="enable-background:new 0 0 100 100;" xml:space="preserve">
<style type="text/css">
	.st0{fill:#FFFFFF;}
	.st1{fill-rule:evenodd;clip-rule:evenodd;fill:#FFFFFF;}
</style>
<path class="st0" d="M50.2,0.9c13.7,0,26,5.5,35,14.5c9,9,14.5,21.3,14.5,35c0,13.7-5.5,26-14.5,35c-9,9-21.3,14.5-35,14.5
	c-13.7,0-26-5.5-35-14.5c-9-9-14.5-21.3-14.5-35c0-13.7,5.5-26,14.5-35C24.1,6.4,36.5,0.9,50.2,0.9L50.2,0.9z M82.5,18.1
	C74.2,9.9,62.8,4.8,50.2,4.8c-12.6,0-24,5.1-32.3,13.4C9.6,26.4,4.5,37.8,4.5,50.4c0,12.6,5.1,24,13.4,32.3
	c8.3,8.3,19.7,13.4,32.3,13.4c12.6,0,24-5.1,32.3-13.4c8.3-8.3,13.4-19.7,13.4-32.3C95.8,37.8,90.7,26.4,82.5,18.1L82.5,18.1z"/>
<path class="st1" d="M53.9,40.3v-4.1c0-1.9,1.3-2.4,2.2-2.4c0.9,0,5.7,0,5.7,0v-8.7H54c-8.7,0-10.6,6.4-10.6,10.6v4.6h-5v6.1v4h5.1
	c0,11.5,0,25.3,0,25.3h10.1c0,0,0-14,0-25.3H61l0.3-4l0.6-6.1H53.9z"/>
</svg>
