<?xml version="1.0" encoding="utf-8"?>
<!-- Generator: Adobe Illustrator 19.2.1, SVG Export Plug-In . SVG Version: 6.00 Build 0)  -->
<svg version="1.1" id="Layer_1" xmlns="http://www.w3.org/2000/svg" xmlns:xlink="http://www.w3.org/1999/xlink" x="0px" y="0px"
	 viewBox="0 0 100 100" style="enable-background:new 0 0 100 100;" xml:space="preserve">
<style type="text/css">
	.st0{fill:#FFFFFF;}
	.st1{fill-rule:evenodd;clip-rule:evenodd;fill:#FFFFFF;}
</style>
<path class="st0" d="M50.1,0.9c13.7,0,26.1,5.5,35,14.5c9,9,14.5,21.3,14.5,35c0,13.7-5.5,26-14.5,35c-8.9,9-21.3,14.5-35,14.5
	c-13.7,0-26-5.5-35-14.5c-9-9-14.5-21.3-14.5-35c0-13.7,5.5-26,14.5-35C24,6.4,36.4,0.9,50.1,0.9L50.1,0.9z M82.4,18.1
	C74.1,9.9,62.7,4.8,50.1,4.8c-12.6,0-24,5.1-32.3,13.4C9.6,26.4,4.4,37.8,4.4,50.4c0,12.6,5.1,24,13.4,32.3
	c8.3,8.3,19.7,13.4,32.3,13.4c12.6,0,24-5.1,32.3-13.4c8.3-8.3,13.4-19.7,13.4-32.3C95.7,37.8,90.6,26.4,82.4,18.1L82.4,18.1z"/>
<path class="st1" d="M37.4,50.4c0-7,5.7-12.7,12.7-12.7c7,0,12.7,5.7,12.7,12.7c0,7-5.7,12.7-12.7,12.7
	C43.1,63.1,37.4,57.4,37.4,50.4L37.4,50.4z M63.2,25.6H37c-6.4,0-11.7,5.3-11.7,11.7v26.2c0,6.4,5.3,11.7,11.7,11.7h26.2
	c6.5,0,11.7-5.3,11.7-11.7V37.3C74.9,30.9,69.7,25.6,63.2,25.6L63.2,25.6z M37,28.5h26.2c4.9,0,8.8,3.9,8.8,8.8v26.2
	c0,4.9-3.9,8.8-8.8,8.8H37c-4.9,0-8.8-3.9-8.8-8.8V37.3C28.2,32.5,32.2,28.5,37,28.5L37,28.5z M65.8,32.2c-1.4,0-2.6,1.2-2.6,2.6
	c0,1.4,1.2,2.6,2.6,2.6c1.4,0,2.6-1.2,2.6-2.6C68.4,33.4,67.2,32.2,65.8,32.2L65.8,32.2z M66.1,50.4c0-8.8-7.2-16-16-16
	c-8.8,0-16,7.2-16,16c0,8.9,7.2,16,16,16C58.9,66.4,66.1,59.3,66.1,50.4L66.1,50.4z"/>
</svg>
