<?xml version="1.0" encoding="utf-8"?>
<!-- Generator: Adobe Illustrator 22.0.0, SVG Export Plug-In . SVG Version: 6.00 Build 0)  -->
<svg version="1.1" id="Layer_1" xmlns="http://www.w3.org/2000/svg" xmlns:xlink="http://www.w3.org/1999/xlink" x="0px" y="0px"
	 viewBox="0 0 100 100" style="enable-background:new 0 0 100 100;" xml:space="preserve">
<style type="text/css">
	.st0{fill:#FFFFFF;}
	.st1{font-family:'Helvetica';}
	.st2{font-size:56px;}
</style>
<path class="st0" d="M49.9,0.9c13.7,0,26,5.6,35,14.5c9,9,14.5,21.4,14.5,35c0,13.7-5.5,26-14.5,35c-9,8.9-21.3,14.5-35,14.5
	s-26-5.6-35-14.5c-9-9-14.5-21.4-14.5-35c0-13.7,5.5-26.1,14.5-35S36.2,0.9,49.9,0.9L49.9,0.9z M82.2,18.2
	C73.9,9.9,62.5,4.8,49.9,4.8s-24,5.1-32.3,13.4C9.4,26.4,4.3,37.8,4.3,50.5c0,12.6,5.1,24,13.4,32.3S37.4,96.2,50,96.2
	s24-5.1,32.3-13.4s13.4-19.7,13.4-32.3C95.6,37.8,90.5,26.4,82.2,18.2L82.2,18.2z"/>
<text transform="matrix(1 0 0 1 33.6299 71.0288)" class="st0 st1 st2">1</text>
</svg>
