<?xml version="1.0" encoding="utf-8"?>
<!-- Generator: Adobe Illustrator 22.0.0, SVG Export Plug-In . SVG Version: 6.00 Build 0)  -->
<svg version="1.1" id="Capa_1" xmlns="http://www.w3.org/2000/svg" xmlns:xlink="http://www.w3.org/1999/xlink" x="0px" y="0px"
	 viewBox="0 0 612 612" style="enable-background:new 0 0 612 612;" xml:space="preserve">
<style type="text/css">
	.st0{fill:#FFFFFF;}
</style>
<g>
	<g>
		<path class="st0" d="M612,306C612,137,475,0,306,0S0,137,0,306s137,306,306,306S612,475,612,306z M27.8,306
			C27.8,152.4,152.4,27.8,306,27.8S584.2,152.4,584.2,306S459.6,584.2,306,584.2S27.8,459.6,27.8,306z"/>
		<g>
			<g id="favorite">
				<path class="st0" d="M306,476.2l-22.5-22.5C200,379.8,145.4,330,145.4,269c0-49.8,38.6-88.3,88.3-88.3
					c27.3,0,54.6,12.9,72.3,33.7c17.7-20.9,45-33.7,72.3-33.7c49.8,0,88.3,38.6,88.3,88.3c0,61-54.6,110.8-138.1,184.7L306,476.2z"
					/>
			</g>
		</g>
	</g>
</g>
</svg>
