<?xml version="1.0" encoding="utf-8"?>
<!-- Generator: Adobe Illustrator 19.2.1, SVG Export Plug-In . SVG Version: 6.00 Build 0)  -->
<svg version="1.1" id="Layer_1" xmlns="http://www.w3.org/2000/svg" xmlns:xlink="http://www.w3.org/1999/xlink" x="0px" y="0px"
	 viewBox="0 0 100 100" style="enable-background:new 0 0 100 100;" xml:space="preserve">
<style type="text/css">
	.st0{fill:#FFFFFF;}
	.st1{fill-rule:evenodd;clip-rule:evenodd;fill:#FFFFFF;}
</style>
<path class="st0" d="M49.9,0.9c13.7,0,26,5.6,35,14.5c9,9,14.5,21.4,14.5,35c0,13.7-5.5,26-14.5,35c-9,8.9-21.3,14.5-35,14.5
	s-26-5.6-35-14.5c-9-9-14.5-21.4-14.5-35c0-13.7,5.5-26.1,14.5-35C23.9,6.5,36.2,0.9,49.9,0.9L49.9,0.9z M82.2,18.2
	C73.9,9.9,62.5,4.8,49.9,4.8s-24,5.1-32.3,13.4C9.4,26.4,4.3,37.8,4.3,50.5c0,12.6,5.1,24,13.4,32.3c8.3,8.3,19.7,13.4,32.3,13.4
	s24-5.1,32.3-13.4c8.3-8.3,13.4-19.7,13.4-32.3C95.6,37.8,90.5,26.4,82.2,18.2L82.2,18.2z"/>
<path class="st1" d="M74.7,39.9c0,0-0.5-3.6-2-5.2c-1.9-2.1-4.1-2.1-5-2.2c-7.1-0.5-17.7-0.5-17.7-0.5h-0.1c0,0-10.6,0-17.7,0.5
	c-1,0.1-3.2,0.2-5.1,2.2c-1.5,1.6-2,5.2-2,5.2s-0.5,4.3-0.5,8.5V49v3.5c0,4.3,0.5,8.5,0.5,8.5s0.5,3.6,2,5.3c1.9,2.1,4.4,2,5.6,2.2
	c4,0.4,17.2,0.5,17.2,0.5s10.6-0.1,17.7-0.5c1-0.1,3.1-0.1,5-2.2c1.5-1.6,2-5.3,2-5.3s0.5-4.2,0.5-8.5v-3.3v-0.8
	C75.2,44.2,74.7,39.9,74.7,39.9L74.7,39.9z M58.4,49.9l-13.7,7.4V45.9v-3.5l6.2,3.4L58.4,49.9z"/>
</svg>
