<svg width="220" height="98" xmlns="http://www.w3.org/2000/svg"><g fill="none" fill-rule="evenodd"><path fill="#000" d="M31.645 38.25L18.548 54.486 5.374 38.25H0v39.531h5.676V47.022l12.332 15.28h1.05l12.19-15.28v30.76h5.705V38.25zM45.547 38.25h22.659v5.044H51.269v12.072h16.365v5.073H51.27v12.298H68.75v5.044H45.547zM76.484 38.25h5.598v34.38h17.606v5.151H76.483zM107.422 38.25h5.598v34.38h17.605v5.151h-23.203zM155.243 43.72c-4.482 0-8.165 1.438-11.05 4.317-2.885 2.88-4.327 6.554-4.327 11.026 0 4.337 1.447 7.944 4.342 10.823 2.894 2.878 6.517 4.318 10.867 4.318 4.369 0 8.016-1.468 10.938-4.404 2.922-2.937 4.384-6.593 4.384-10.968 0-4.26-1.462-7.844-4.384-10.752-2.922-2.907-6.512-4.36-10.77-4.36m-.223-5.47c6.05 0 11.09 1.967 15.114 5.901 4.025 3.934 6.038 8.866 6.038 14.796s-2.031 10.838-6.094 14.724c-4.062 3.887-9.185 5.829-15.366 5.829-5.903 0-10.82-1.942-14.752-5.83-3.932-3.885-5.898-8.754-5.898-14.607 0-6.007 1.98-10.978 5.94-14.912 3.96-3.934 8.966-5.901 15.018-5.901M214.527 38h5.426v39.531h-4.912l-26.673-30.445v30.445H183V38h4.626l26.901 30.704z"/><path fill="#DB3737" d="M31.343 38.25h6.47v1.84L19.463 62.314H18.41l-3.941-3.603z"/><g fill="#222224"><path d="M3.574 9.753V2.46H1.585a.247.247 0 0 1-.247-.247V1.147c0-.13.104-.247.247-.247h5.681c.143 0 .247.117.247.247v1.066c0 .13-.104.247-.247.247H5.277v7.293c0 .13-.117.247-.247.247H3.821a.256.256 0 0 1-.247-.247zm5.882 0V1.147c0-.13.117-.247.247-.247h1.209c.143 0 .247.117.247.247v3.445h4.238V1.147c0-.13.104-.247.247-.247h1.196c.13 0 .247.117.247.247v8.606c0 .13-.117.247-.247.247h-1.196a.247.247 0 0 1-.247-.247V6.165h-4.238v3.588c0 .13-.104.247-.247.247H9.703a.256.256 0 0 1-.247-.247zm10.341 0V1.147c0-.13.104-.247.247-.247h5.291c.143 0 .247.117.247.247v1.066c0 .13-.104.247-.247.247h-3.848v2.132h3.211c.13 0 .247.117.247.247v1.079a.247.247 0 0 1-.247.247h-3.211V8.44h3.848c.143 0 .247.117.247.247v1.066c0 .13-.104.247-.247.247h-5.291a.247.247 0 0 1-.247-.247zM1.247 27c-.195 0-.299-.169-.221-.338l4.043-8.749c.039-.078.104-.143.221-.143h.13c.13 0 .182.065.221.143l4.004 8.749c.078.169-.026.338-.221.338H8.293c-.195 0-.286-.078-.377-.26l-.637-1.404H3.392l-.637 1.404a.392.392 0 0 1-.377.26H1.247zm2.782-3.107h2.613l-1.3-2.86h-.039l-1.274 2.86zm7.26 2.86v-8.749c0-.13.117-.234.247-.234h.195c.091 0 .156.026.221.091l5.304 5.655h.026v-5.369c0-.13.104-.247.247-.247h1.196c.13 0 .247.117.247.247v8.749c0 .13-.117.234-.247.234h-.182a.285.285 0 0 1-.221-.091l-5.33-5.876h-.026v5.59c0 .13-.104.247-.247.247h-1.183a.256.256 0 0 1-.247-.247zm10.393 0v-8.606c0-.13.104-.247.234-.247h3.081c2.509 0 4.563 2.041 4.563 4.537A4.569 4.569 0 0 1 24.997 27h-3.081c-.13 0-.234-.117-.234-.247zm1.677-1.339h1.482c1.69 0 2.925-1.196 2.925-2.977 0-1.768-1.235-2.964-2.925-2.964h-1.482v5.941zm8.378 1.339v-8.606c0-.13.104-.247.247-.247h3.718c1.56 0 2.834 1.248 2.834 2.795 0 1.196-.793 2.171-1.924 2.626l1.781 3.302c.091.169 0 .377-.221.377h-1.365a.223.223 0 0 1-.208-.117l-1.729-3.445h-1.443v3.315c0 .13-.117.247-.247.247h-1.196a.247.247 0 0 1-.247-.247zm1.703-4.706h2.119c.689 0 1.287-.598 1.287-1.326 0-.689-.598-1.261-1.287-1.261H33.44v2.587zm7.377 4.706v-8.606c0-.13.104-.247.247-.247h5.291c.143 0 .247.117.247.247v1.066c0 .13-.104.247-.247.247h-3.848v2.132h3.211c.13 0 .247.117.247.247v1.079a.247.247 0 0 1-.247.247h-3.211v2.275h3.848c.143 0 .247.117.247.247v1.066c0 .13-.104.247-.247.247h-5.291a.247.247 0 0 1-.247-.247zm9.626.195l-2.457-8.736c-.052-.182.052-.312.234-.312h1.196c.104 0 .208.091.234.182l1.352 5.187h.052l2.067-5.356c.026-.078.091-.143.221-.143h.234c.13 0 .195.065.221.143l2.08 5.356h.052l1.326-5.187c.026-.091.13-.182.234-.182h1.196c.182 0 .286.13.234.312l-2.457 8.736a.25.25 0 0 1-.234.182h-.208c-.117 0-.195-.065-.221-.143l-2.327-5.889h-.065l-2.301 5.889c-.039.078-.091.143-.221.143h-.208a.25.25 0 0 1-.234-.182zm15.625 0l-2.457-8.736c-.052-.182.052-.312.234-.312h1.196c.104 0 .208.091.234.182l1.352 5.187h.052l2.067-5.356c.026-.078.091-.143.221-.143h.234c.13 0 .195.065.221.143l2.08 5.356h.052l1.326-5.187c.026-.091.13-.182.234-.182h1.196c.182 0 .286.13.234.312l-2.457 8.736a.25.25 0 0 1-.234.182h-.208c-.117 0-.195-.065-.221-.143l-2.327-5.889h-.065l-2.301 5.889c-.039.078-.091.143-.221.143h-.208a.25.25 0 0 1-.234-.182zm9.392-1.04c0-.676.559-1.248 1.235-1.248s1.248.572 1.248 1.248c0 .663-.572 1.235-1.248 1.235a1.251 1.251 0 0 1-1.235-1.235zM132.105 96.753v-8.606c0-.13.104-.247.247-.247h5.291c.143 0 .247.117.247.247v1.066c0 .13-.104.247-.247.247h-3.848v2.444h3.211c.13 0 .247.117.247.247v1.066c0 .13-.117.247-.247.247h-3.211v3.289c0 .13-.117.247-.247.247h-1.196a.247.247 0 0 1-.247-.247zm7.208-4.29c0-2.6 2.067-4.693 4.667-4.693 2.6 0 4.68 2.093 4.68 4.693a4.65 4.65 0 0 1-4.68 4.667 4.639 4.639 0 0 1-4.667-4.667zm1.69 0a2.985 2.985 0 0 0 2.977 2.977c1.638 0 2.99-1.339 2.99-2.977s-1.352-3.003-2.99-3.003c-1.638 0-2.977 1.365-2.977 3.003zm9.743 1.196v-5.512c0-.13.117-.247.247-.247h1.235c.143 0 .247.117.247.247v5.421c0 1.105.754 1.872 1.885 1.872s1.898-.767 1.898-1.859v-5.434c0-.13.104-.247.247-.247h1.235c.13 0 .247.117.247.247v5.512c0 1.976-1.573 3.471-3.627 3.471-2.041 0-3.614-1.495-3.614-3.471zm9.86 3.094v-8.749c0-.13.117-.234.247-.234h.195c.091 0 .156.026.221.091l5.304 5.655h.026v-5.369c0-.13.104-.247.247-.247h1.196c.13 0 .247.117.247.247v8.749c0 .13-.117.234-.247.234h-.182a.285.285 0 0 1-.221-.091l-5.33-5.876h-.026v5.59c0 .13-.104.247-.247.247h-1.183a.256.256 0 0 1-.247-.247zm10.393 0v-8.606c0-.13.104-.247.234-.247h3.081c2.509 0 4.563 2.041 4.563 4.537A4.569 4.569 0 0 1 174.314 97h-3.081c-.13 0-.234-.117-.234-.247zm1.677-1.339h1.482c1.69 0 2.925-1.196 2.925-2.977 0-1.768-1.235-2.964-2.925-2.964h-1.482v5.941zM179.988 97c-.195 0-.299-.169-.221-.338l4.043-8.749c.039-.078.104-.143.221-.143h.13c.13 0 .182.065.221.143l4.004 8.749c.078.169-.026.338-.221.338h-1.131c-.195 0-.286-.078-.377-.26l-.637-1.404h-3.887l-.637 1.404a.392.392 0 0 1-.377.26h-1.131zm2.782-3.107h2.613l-1.3-2.86h-.039l-1.274 2.86zm8.144 2.86V89.46h-1.989a.247.247 0 0 1-.247-.247v-1.066c0-.13.104-.247.247-.247h5.681c.143 0 .247.117.247.247v1.066c0 .13-.104.247-.247.247h-1.989v7.293c0 .13-.117.247-.247.247h-1.209a.256.256 0 0 1-.247-.247zm5.882 0v-8.606c0-.13.117-.247.247-.247h1.209c.13 0 .247.117.247.247v8.606c0 .13-.117.247-.247.247h-1.209a.256.256 0 0 1-.247-.247zm3.88-4.29c0-2.6 2.067-4.693 4.667-4.693 2.6 0 4.68 2.093 4.68 4.693a4.65 4.65 0 0 1-4.68 4.667 4.639 4.639 0 0 1-4.667-4.667zm1.69 0a2.985 2.985 0 0 0 2.977 2.977c1.638 0 2.99-1.339 2.99-2.977s-1.352-3.003-2.99-3.003c-1.638 0-2.977 1.365-2.977 3.003zm9.834 4.29v-8.749c0-.13.117-.234.247-.234h.195c.091 0 .156.026.221.091l5.304 5.655h.026v-5.369c0-.13.104-.247.247-.247h1.196c.13 0 .247.117.247.247v8.749c0 .13-.117.234-.247.234h-.182a.285.285 0 0 1-.221-.091l-5.33-5.876h-.026v5.59c0 .13-.104.247-.247.247h-1.183a.256.256 0 0 1-.247-.247z"/></g></g></svg>
