<?xml version="1.0" encoding="utf-8"?>
<!-- Generator: Adobe Illustrator 25.2.1, SVG Export Plug-In . SVG Version: 6.00 Build 0)  -->
<svg version="1.1" id="Layer_1" xmlns="http://www.w3.org/2000/svg" xmlns:xlink="http://www.w3.org/1999/xlink" x="0px" y="0px"
	 viewBox="0 0 98.7 29.6" style="enable-background:new 0 0 98.7 29.6;" xml:space="preserve">
<style type="text/css">
	.st0{fill:#FFFFFF;}
</style>
<g>
	<g>
		<path class="st0" d="M42.6,8.4h6.5l-3.5-5.6l-6.3,10h-2.9l7.7-12.1C44.5,0.3,45.1,0,45.7,0c0.6,0,1.2,0.3,1.5,0.8l7.7,12.1H52
			l-1.4-2.2h-6.6L42.6,8.4 M72.6,10.6V0.1h-2.4v11.5c0,0.3,0.1,0.6,0.4,0.8c0.2,0.2,0.6,0.4,0.9,0.4h11.1l1.4-2.2L72.6,10.6
			 M32.1,8.7c2.4,0,4.3-1.9,4.3-4.3s-1.9-4.3-4.3-4.3H21.4v12.7h2.4V2.4h8.1c1.1,0,2.1,0.9,2.1,2.1c0,1.1-0.9,2.1-2.1,2.1l-6.9,0
			l7.3,6.4h3.5L31,8.7L32.1,8.7 M6.4,12.8h7.4c3.5,0,6.3-2.8,6.3-6.4c0-3.5-2.8-6.4-6.4-6.4H6.4C2.9,0.1,0,3,0,6.5
			C0,10,2.9,12.8,6.4,12.8 M13.6,10.6H6.5c-2.3,0-4.1-1.9-4.1-4.1c0-2.3,1.8-4.1,4.1-4.1h7.1c2.3,0,4.1,1.8,4.1,4.1
			C17.7,8.8,15.9,10.6,13.6,10.6 M60,12.8h7.6l1.4-2.2h-8.8c-2.3,0-4.1-1.9-4.1-4.1c0-2.3,1.8-4.1,4.1-4.1h7.2l1.4-2.2H60
			c-3.5,0-6.4,2.8-6.4,6.4C53.6,10,56.5,12.8,60,12.8 M89.9,10.6c-1.9,0-3.5-1.3-4-3h10.4l1.4-2.2H86c0.5-1.7,2.1-3,4-3h7.2l1.4-2.2
			h-8.8c-3.5,0-6.3,2.9-6.3,6.4s2.8,6.4,6.3,6.4h7.6l1.4-2.2L89.9,10.6"/>
	</g>
	<g>
		<path class="st0" d="M1.4,29.4v-6.3H0.1v-0.6l1.3-0.4v-0.8c0-1.6,0.8-2.5,2.4-2.5c0.2,0,0.4,0,0.5,0.1v1c-0.1,0-0.3,0-0.5,0
			c-0.4,0-0.7,0.1-0.9,0.3c-0.2,0.2-0.3,0.6-0.3,1.1v0.8h1.7v1H2.6v6.3C2.6,29.4,1.4,29.4,1.4,29.4z"/>
		<path class="st0" d="M8.4,29.6c-1.1,0-2-0.3-2.6-1C5.3,27.9,5,27,5,25.8c0-1.2,0.3-2.1,0.9-2.8s1.5-1,2.6-1c1.1,0,2,0.3,2.6,1
			s0.9,1.6,0.9,2.8s-0.3,2.1-0.9,2.8C10.4,29.3,9.5,29.6,8.4,29.6z M8.4,28.6c0.7,0,1.3-0.2,1.6-0.7c0.4-0.5,0.6-1.2,0.6-2.1
			s-0.2-1.6-0.6-2.1C9.7,23.2,9.2,23,8.4,23c-0.7,0-1.2,0.2-1.6,0.7c-0.4,0.5-0.6,1.2-0.6,2.1s0.2,1.6,0.6,2.1S7.7,28.6,8.4,28.6z"
			/>
		<path class="st0" d="M13.6,29.4v-7.3h0.9l0.2,1.4c0.5-0.9,1.2-1.4,2-1.4c0.2,0,0.4,0,0.5,0v1.1h-0.3c-0.5,0-1,0.2-1.3,0.5
			s-0.6,0.7-0.7,1.3v4.4L13.6,29.4L13.6,29.4z"/>
		<path class="st0" d="M22.3,29.4V19.3h3.5c2.4,0,3.5,1,3.5,3c0,1.6-0.8,2.5-2.4,2.9l2.8,4.3h-1.5l-2.6-4l-2.1-0.3v4.4H22.3z
			 M23.5,24.2h1.5c1,0,1.8-0.2,2.2-0.4c0.4-0.3,0.6-0.8,0.6-1.5c0-0.5-0.1-0.9-0.3-1.2s-0.5-0.5-0.9-0.6s-1-0.2-1.7-0.2h-1.5
			L23.5,24.2L23.5,24.2z"/>
		<path class="st0" d="M36.2,29.1c-0.3,0.2-0.6,0.3-1,0.4s-0.9,0.1-1.4,0.1c-1.2,0-2-0.3-2.6-1s-0.9-1.6-0.9-2.9
			c0-1.2,0.3-2.2,0.8-2.8c0.6-0.6,1.4-1,2.4-1c2,0,3,1.1,3,3.4v0.8h-5c0.1,0.8,0.3,1.4,0.7,1.8c0.4,0.4,1,0.6,1.7,0.6
			c0.4,0,0.8,0,1.2-0.1c0.4-0.1,0.8-0.2,1.2-0.4L36.2,29.1L36.2,29.1z M33.6,23c-0.6,0-1.1,0.2-1.4,0.5c-0.3,0.4-0.5,0.9-0.6,1.6
			h3.8c0-0.8-0.1-1.3-0.4-1.7C34.7,23.2,34.2,23,33.6,23z"/>
		<path class="st0" d="M37.9,29.1V28c0.4,0.2,0.8,0.3,1.2,0.4s0.7,0.1,1.1,0.1c1.2,0,1.8-0.4,1.8-1.1c0-0.3-0.1-0.5-0.3-0.7
			s-0.5-0.3-0.9-0.4L39.7,26c-0.7-0.2-1.2-0.4-1.5-0.8C38,25,37.8,24.5,37.8,24c0-0.6,0.2-1.1,0.8-1.5c0.5-0.4,1.2-0.5,2-0.5
			c0.5,0,0.9,0,1.3,0.1c0.4,0.1,0.7,0.2,1,0.3v1.1c-0.7-0.3-1.4-0.4-2.2-0.4c-1.1,0-1.6,0.3-1.6,0.9c0,0.3,0.1,0.5,0.2,0.6
			c0.2,0.2,0.5,0.3,0.9,0.4l1.2,0.3c0.7,0.2,1.2,0.5,1.5,0.8c0.3,0.3,0.5,0.8,0.5,1.3c0,0.7-0.3,1.2-0.8,1.6s-1.3,0.6-2.2,0.6
			c-0.5,0-0.9,0-1.3-0.1C38.6,29.4,38.2,29.2,37.9,29.1z"/>
		<path class="st0" d="M50.4,29.1c-0.3,0.2-0.6,0.3-1,0.4s-0.9,0.1-1.4,0.1c-1.2,0-2-0.3-2.6-1c-0.6-0.7-0.9-1.6-0.9-2.9
			c0-1.2,0.3-2.2,0.8-2.8s1.4-1,2.4-1c2,0,3,1.1,3,3.4v0.8h-5c0.1,0.8,0.3,1.4,0.7,1.8c0.4,0.4,1,0.6,1.7,0.6c0.4,0,0.8,0,1.2-0.1
			c0.4-0.1,0.8-0.2,1.2-0.4L50.4,29.1L50.4,29.1z M47.7,23c-0.6,0-1.1,0.2-1.4,0.5c-0.3,0.4-0.5,0.9-0.6,1.6h3.8
			c0-0.8-0.1-1.3-0.4-1.7C48.8,23.2,48.3,23,47.7,23z"/>
		<path class="st0" d="M57,29.4l-0.2-1.2c-0.6,0.9-1.4,1.3-2.4,1.3c-0.7,0-1.3-0.2-1.8-0.6s-0.7-1-0.7-1.7c0-0.8,0.3-1.4,0.8-1.8
			s1.3-0.6,2.2-0.6h1.7v-0.5c0-0.5-0.1-0.9-0.3-1.1S55.7,23,55.1,23c-0.3,0-0.7,0-1.1,0.1c-0.4,0.1-0.8,0.2-1.4,0.4v-1
			c0.3-0.2,0.8-0.3,1.2-0.4s0.9-0.1,1.3-0.1c1.8,0,2.8,0.8,2.8,2.5v5H57z M54.5,28.6c0.4,0,0.8-0.1,1.2-0.4c0.4-0.2,0.7-0.6,0.9-1
			v-1.4h-1.6c-0.6,0-1.1,0.1-1.4,0.3c-0.3,0.2-0.5,0.6-0.5,1.1c0,0.4,0.1,0.8,0.4,1C53.8,28.5,54.1,28.6,54.5,28.6z"/>
		<path class="st0" d="M59.9,29.4v-7.3h0.8l0.2,1.4c0.5-0.9,1.2-1.4,2-1.4c0.2,0,0.3,0,0.5,0v1.1h-0.3c-0.5,0-1,0.2-1.3,0.5
			c-0.4,0.3-0.6,0.7-0.7,1.3v4.4L59.9,29.4L59.9,29.4z"/>
		<path class="st0" d="M70,28v1c-0.6,0.3-1.3,0.5-2.2,0.5c-1.1,0-2-0.3-2.6-1s-0.9-1.6-0.9-2.9c0-1.2,0.3-2.1,0.9-2.8s1.5-1,2.6-1
			c0.7,0,1.3,0.2,1.9,0.5v1C69.1,23.2,68.6,23,68,23c-1.6,0-2.4,0.9-2.4,2.7c0,1,0.2,1.7,0.6,2.2s0.9,0.7,1.7,0.7c0.3,0,0.6,0,1-0.1
			C69.2,28.3,69.6,28.2,70,28z"/>
		<path class="st0" d="M71.5,29.4V18.9h1.3v4.3c0.3-0.4,0.6-0.7,1.1-0.9c0.4-0.2,0.9-0.3,1.4-0.3c0.8,0,1.5,0.2,1.9,0.8
			c0.4,0.5,0.7,1.2,0.7,2.2v4.5h-1.3V25c0-1.3-0.6-1.9-1.7-1.9c-0.5,0-0.9,0.1-1.3,0.4s-0.7,0.7-0.9,1.2v4.8L71.5,29.4L71.5,29.4z"
			/>
	</g>
</g>
</svg>
