<svg id="Layer_1" data-name="Layer 1" xmlns="http://www.w3.org/2000/svg" viewBox="0 0 328.93 253.13"><defs><style>.cls-1{fill:#fff;}</style></defs><g id="Shape_1" data-name="Shape 1"><polygon class="cls-1" points="164.52 127.33 125.18 166.74 127.81 166.74 164.52 129.84 201.2 166.74 203.84 166.74 164.52 127.33"/></g><g id="Shape_2" data-name="Shape 2"><polygon class="cls-1" points="164.65 121.57 119.63 166.74 122.68 166.74 164.65 124.45 206.62 166.74 209.63 166.74 164.65 121.57"/></g><g id="Shape_3" data-name="Shape 3"><polygon class="cls-1" points="197.91 155.2 200.97 158.17 206.49 155.2 197.91 155.2"/></g><g id="Shape_4" data-name="Shape 4"><polygon class="cls-1" points="192.82 150.1 195.53 153.72 208.96 153.72 214.24 150.1 192.82 150.1"/></g><g id="Shape_5" data-name="Shape 5"><polygon class="cls-1" points="187.92 145.16 191.4 148.61 209.14 148.61 209.14 145.16 187.92 145.16"/></g><g id="Shape_6" data-name="Shape 6"><polygon class="cls-1" points="182.95 140.19 186.3 143.66 209.14 143.66 209.14 140.19 182.95 140.19"/></g><g id="Shape_7" data-name="Shape 7"><polygon class="cls-1" points="177.7 135.24 181 138.7 209.14 138.7 209.14 135.24 177.7 135.24"/></g><g id="Shape_8" data-name="Shape 8"><polygon class="cls-1" points="172.8 130.29 176.13 133.75 209.14 133.75 209.14 130.29 172.8 130.29"/></g><g id="Shape_9" data-name="Shape 9"><polygon class="cls-1" points="174.84 125.32 173.89 126.92 169.37 126.92 171.09 128.79 207.81 128.79 211.03 125.32 174.84 125.32"/></g><g id="Shape_10" data-name="Shape 10"><polygon class="cls-1" points="225.19 135.24 225.19 138.7 226.72 138.7 229.67 135.24 225.19 135.24"/></g><g id="Shape_11" data-name="Shape 11"><polygon class="cls-1" points="225.19 130.29 225.19 133.75 230.83 133.75 233.34 130.29 225.19 130.29"/></g><g id="Shape_12" data-name="Shape 12"><polygon class="cls-1" points="222.95 125.32 226.24 128.79 234.35 128.79 236.52 125.32 222.95 125.32"/></g><g id="Shape_13" data-name="Shape 13"><polygon class="cls-1" points="218.34 120.37 221.58 123.84 237.37 123.84 239.21 120.37 218.34 120.37"/></g><g id="Shape_14" data-name="Shape 14"><polygon class="cls-1" points="177.7 120.37 175.89 123.84 212.69 123.84 215.53 120.37 177.7 120.37"/></g><g id="Shape_15" data-name="Shape 15"><polygon class="cls-1" points="180.79 115.61 178.86 118.88 239.95 118.88 241.41 115.61 180.79 115.61"/></g><g id="Shape_16" data-name="Shape 16"><polygon class="cls-1" points="228.39 130.29 217.73 118.88 217.62 118.78 216.47 118.6 216.05 118.88 205.37 130.29 205.3 130.4 207.45 130.43 207.53 130.29 217.08 120.25 226.6 130.29 226.72 130.41 228.49 130.47 228.39 130.29"/></g><g id="Rectangle_1" data-name="Rectangle 1"><rect class="cls-1" x="210.83" y="130.63" width="3.74" height="3.84"/></g><g id="Rectangle_1_copy" data-name="Rectangle 1 copy"><rect class="cls-1" x="215.31" y="130.63" width="3.74" height="3.84"/></g><g id="Rectangle_1_copy_2" data-name="Rectangle 1 copy 2"><rect class="cls-1" x="219.79" y="130.63" width="3.74" height="3.84"/></g><g id="Rectangle_1_copy_3" data-name="Rectangle 1 copy 3"><rect class="cls-1" x="210.83" y="135.17" width="3.74" height="3.84"/></g><g id="Rectangle_1_copy_4" data-name="Rectangle 1 copy 4"><rect class="cls-1" x="215.31" y="135.17" width="3.74" height="3.84"/></g><g id="Rectangle_1_copy_5" data-name="Rectangle 1 copy 5"><rect class="cls-1" x="219.79" y="135.17" width="3.74" height="3.84"/></g><g id="Rectangle_1_copy_6" data-name="Rectangle 1 copy 6"><rect class="cls-1" x="210.85" y="139.7" width="3.74" height="3.84"/></g><g id="Rectangle_1_copy_7" data-name="Rectangle 1 copy 7"><rect class="cls-1" x="215.33" y="139.7" width="3.74" height="3.84"/></g><g id="Rectangle_1_copy_8" data-name="Rectangle 1 copy 8"><rect class="cls-1" x="219.8" y="139.7" width="3.74" height="3.84"/></g><g id="Rectangle_1_copy_9" data-name="Rectangle 1 copy 9"><rect class="cls-1" x="210.83" y="144.24" width="3.74" height="3.84"/></g><g id="Rectangle_1_copy_10" data-name="Rectangle 1 copy 10"><rect class="cls-1" x="215.31" y="144.24" width="3.74" height="3.84"/></g><g id="Rectangle_1_copy_11" data-name="Rectangle 1 copy 11"><rect class="cls-1" x="219.79" y="144.24" width="3.74" height="3.84"/></g><g id="Shape_3_copy" data-name="Shape 3 copy"><polygon class="cls-1" points="122.64 155.2 128.16 158.17 131.23 155.2 122.64 155.2"/></g><g id="Shape_4_copy" data-name="Shape 4 copy"><polygon class="cls-1" points="114.89 150.1 120.17 153.72 133.6 153.72 136.31 150.1 114.89 150.1"/></g><g id="Shape_5_copy" data-name="Shape 5 copy"><polygon class="cls-1" points="119.99 145.16 119.99 148.61 137.73 148.61 141.21 145.16 119.99 145.16"/></g><g id="Shape_6_copy" data-name="Shape 6 copy"><polygon class="cls-1" points="119.99 140.19 119.99 143.66 142.83 143.66 146.18 140.19 119.99 140.19"/></g><g id="Shape_7_copy" data-name="Shape 7 copy"><polygon class="cls-1" points="119.99 135.24 119.99 138.7 148.13 138.7 151.43 135.24 119.99 135.24"/></g><g id="Shape_8_copy" data-name="Shape 8 copy"><polygon class="cls-1" points="119.99 130.29 119.99 133.75 153.01 133.75 156.33 130.29 119.99 130.29"/></g><g id="Shape_9_copy" data-name="Shape 9 copy"><polygon class="cls-1" points="155.24 126.92 154.29 125.32 118.11 125.32 121.32 128.79 158.04 128.79 159.77 126.92 155.24 126.92"/></g><g id="Shape_10_copy" data-name="Shape 10 copy"><polygon class="cls-1" points="99.46 135.24 102.41 138.7 103.94 138.7 103.94 135.24 99.46 135.24"/></g><g id="Shape_11_copy" data-name="Shape 11 copy"><polygon class="cls-1" points="95.8 130.29 98.3 133.75 103.94 133.75 103.94 130.29 95.8 130.29"/></g><g id="Shape_12_copy" data-name="Shape 12 copy"><polygon class="cls-1" points="92.62 125.32 94.78 128.79 102.89 128.79 106.18 125.32 92.62 125.32"/></g><g id="Shape_13_copy" data-name="Shape 13 copy"><polygon class="cls-1" points="89.92 120.37 91.76 123.84 107.55 123.84 110.79 120.37 89.92 120.37"/></g><g id="Shape_14_copy" data-name="Shape 14 copy"><polygon class="cls-1" points="151.43 120.37 113.6 120.37 116.44 123.84 153.24 123.84 151.43 120.37"/></g><g id="Shape_15_copy" data-name="Shape 15 copy"><polygon class="cls-1" points="148.34 115.61 87.73 115.61 89.19 118.88 150.27 118.88 148.34 115.61"/></g><g id="Shape_16_copy" data-name="Shape 16 copy"><polygon class="cls-1" points="123.76 130.29 113.08 118.88 112.66 118.6 111.51 118.78 111.41 118.88 100.74 130.29 100.64 130.47 102.41 130.41 102.53 130.29 112.05 120.25 121.6 130.29 121.68 130.43 123.83 130.4 123.76 130.29"/></g><g id="Rectangle_1_copy_12" data-name="Rectangle 1 copy 12"><rect class="cls-1" x="114.56" y="130.63" width="3.74" height="3.84"/></g><g id="Rectangle_1_copy_13" data-name="Rectangle 1 copy 13"><rect class="cls-1" x="110.08" y="130.63" width="3.74" height="3.84"/></g><g id="Rectangle_1_copy_14" data-name="Rectangle 1 copy 14"><rect class="cls-1" x="105.6" y="130.63" width="3.74" height="3.84"/></g><g id="Rectangle_1_copy_15" data-name="Rectangle 1 copy 15"><rect class="cls-1" x="114.56" y="135.17" width="3.74" height="3.84"/></g><g id="Rectangle_1_copy_16" data-name="Rectangle 1 copy 16"><rect class="cls-1" x="110.08" y="135.17" width="3.74" height="3.84"/></g><g id="Rectangle_1_copy_17" data-name="Rectangle 1 copy 17"><rect class="cls-1" x="105.6" y="135.17" width="3.74" height="3.84"/></g><g id="Rectangle_1_copy_18" data-name="Rectangle 1 copy 18"><rect class="cls-1" x="114.54" y="139.7" width="3.74" height="3.84"/></g><g id="Rectangle_1_copy_19" data-name="Rectangle 1 copy 19"><rect class="cls-1" x="110.07" y="139.7" width="3.74" height="3.84"/></g><g id="Rectangle_1_copy_20" data-name="Rectangle 1 copy 20"><rect class="cls-1" x="105.59" y="139.7" width="3.74" height="3.84"/></g><g id="Rectangle_1_copy_21" data-name="Rectangle 1 copy 21"><rect class="cls-1" x="114.56" y="144.24" width="3.74" height="3.84"/></g><g id="Rectangle_1_copy_22" data-name="Rectangle 1 copy 22"><rect class="cls-1" x="110.08" y="144.24" width="3.74" height="3.84"/></g><g id="Rectangle_1_copy_23" data-name="Rectangle 1 copy 23"><rect class="cls-1" x="105.6" y="144.24" width="3.74" height="3.84"/></g><g id="Shape_17" data-name="Shape 17"><polygon class="cls-1" points="145.85 111.36 99.33 111.36 99.33 113.82 147.07 113.82 145.85 111.36"/></g><g id="Rectangle_4" data-name="Rectangle 4"><rect class="cls-1" x="87.4" y="105.78" width="14.77" height="0.6"/></g><g id="Rectangle_5" data-name="Rectangle 5"><rect class="cls-1" x="100.21" y="106.38" width="3.61" height="7.44"/></g><g id="Rectangle_7" data-name="Rectangle 7"><rect class="cls-1" x="86.96" y="108.77" width="2.81" height="5.05"/></g><g id="Rectangle_8" data-name="Rectangle 8"><rect class="cls-1" x="86.17" y="104.89" width="2.75" height="4.45"/></g><g id="Rectangle_9" data-name="Rectangle 9"><rect class="cls-1" x="88.52" y="103.39" width="1.25" height="2.74"/></g><g id="Rectangle_10" data-name="Rectangle 10"><rect class="cls-1" x="99.33" y="103.27" width="1.52" height="2.83"/></g><g id="Rectangle_11" data-name="Rectangle 11"><rect class="cls-1" x="88.91" y="102.07" width="11.32" height="1.91"/></g><g id="Rectangle_6" data-name="Rectangle 6"><rect class="cls-1" x="99.33" y="108.77" width="5.46" height="5.05"/></g><g id="Rectangle_3" data-name="Rectangle 3"><rect class="cls-1" x="91" y="108.18" width="7.14" height="2.08"/></g><g id="Rectangle_3_copy" data-name="Rectangle 3 copy"><rect class="cls-1" x="91" y="111.45" width="7.14" height="2.08"/></g><g id="Shape_17_copy" data-name="Shape 17 copy"><polygon class="cls-1" points="183.27 111.36 182.04 113.82 229.79 113.82 229.79 111.36 183.27 111.36"/></g><g id="Rectangle_4_copy" data-name="Rectangle 4 copy"><rect class="cls-1" x="226.94" y="105.78" width="14.77" height="0.6"/></g><g id="Rectangle_5_copy" data-name="Rectangle 5 copy"><rect class="cls-1" x="225.29" y="106.38" width="3.61" height="7.44"/></g><g id="Rectangle_7_copy" data-name="Rectangle 7 copy"><rect class="cls-1" x="239.34" y="108.77" width="2.81" height="5.05"/></g><g id="Rectangle_8_copy" data-name="Rectangle 8 copy"><rect class="cls-1" x="240.2" y="104.89" width="2.75" height="4.45"/></g><g id="Rectangle_9_copy" data-name="Rectangle 9 copy"><rect class="cls-1" x="239.34" y="103.39" width="1.25" height="2.74"/></g><g id="Rectangle_10_copy" data-name="Rectangle 10 copy"><rect class="cls-1" x="228.27" y="103.27" width="1.52" height="2.83"/></g><g id="Rectangle_11_copy" data-name="Rectangle 11 copy"><rect class="cls-1" x="228.89" y="102.07" width="11.32" height="1.91"/></g><g id="Rectangle_6_copy" data-name="Rectangle 6 copy"><rect class="cls-1" x="224.32" y="108.77" width="5.46" height="5.05"/></g><g id="Rectangle_3_copy_2" data-name="Rectangle 3 copy 2"><rect class="cls-1" x="230.98" y="108.18" width="7.14" height="2.08"/></g><g id="Rectangle_3_copy_3" data-name="Rectangle 3 copy 3"><rect class="cls-1" x="230.98" y="111.45" width="7.14" height="2.08"/></g><g id="Ellipse_1" data-name="Ellipse 1"><path class="cls-1" d="M228.43,245.7a5.85,5.85,0,1,0,5.85,5.85A5.85,5.85,0,0,0,228.43,245.7Z" transform="translate(-63.9 -106.67)"/></g><g id="Shape_18" data-name="Shape 18"><path class="cls-1" d="M221.41,251.55a7.81,7.81,0,0,1,2.63-5.88s-4,1.9-4,5.88,4,5.9,4,5.9A7.88,7.88,0,0,1,221.41,251.55Z" transform="translate(-63.9 -106.67)"/></g><g id="Shape_18_copy" data-name="Shape 18 copy"><path class="cls-1" d="M232.87,245.67a7.91,7.91,0,0,1,0,11.78s4-1.92,4-5.9S232.87,245.67,232.87,245.67Z" transform="translate(-63.9 -106.67)"/></g><g id="Ellipse_1_copy" data-name="Ellipse 1 copy"><path class="cls-1" d="M228.53,207.31a5.86,5.86,0,1,0,5.85,5.85A5.85,5.85,0,0,0,228.53,207.31Z" transform="translate(-63.9 -106.67)"/></g><g id="Shape_18_copy_2" data-name="Shape 18 copy 2"><path class="cls-1" d="M228.53,204.8c-4,0-5.9,4-5.9,4a7.91,7.91,0,0,1,11.78,0S232.51,204.8,228.53,204.8Z" transform="translate(-63.9 -106.67)"/></g><g id="Shape_18_copy_3" data-name="Shape 18 copy 3"><path class="cls-1" d="M228.53,220.23a7.89,7.89,0,0,1-5.9-2.62s1.92,4,5.9,4,5.88-4,5.88-4A7.82,7.82,0,0,1,228.53,220.23Z" transform="translate(-63.9 -106.67)"/></g><g id="Rectangle_12" data-name="Rectangle 12"><rect class="cls-1" x="159.09" y="70.36" width="10.82" height="1"/></g><g id="Rectangle_12_copy" data-name="Rectangle 12 copy"><rect class="cls-1" x="159.09" y="72.04" width="10.82" height="1"/></g><g id="Rectangle_12_copy_2" data-name="Rectangle 12 copy 2"><rect class="cls-1" x="159.09" y="73.72" width="10.82" height="1"/></g><g id="Shape_19" data-name="Shape 19"><polygon class="cls-1" points="174.65 94.16 174.65 125.01 178.59 119.66 178.59 98.06 175.52 96.59 175.52 95.66 179.38 97.44 179.38 118.17 180.4 116.35 180.4 96.82 174.65 94.16"/></g><g id="Shape_20" data-name="Shape 20"><polygon class="cls-1" points="181.75 68.02 181.75 113.82 183.74 111.36 183.74 66.84 181.75 68.02"/></g><g id="Shape_21" data-name="Shape 21"><polygon class="cls-1" points="179.38 74.19 180.4 73.06 174.65 70.38 174.65 90.84 179.38 92.29 179.38 91.76 175.52 89.86 175.52 89 178.78 90.59 178.78 74.79 175.52 73.19 175.52 72.29 179.38 74.19"/></g><g id="Shape_22" data-name="Shape 22"><polygon class="cls-1" points="179.78 73.06 179.25 74.04 179.32 74.16 179.38 74.19 179.38 91.77 179.19 91.85 174.65 90.7 174.65 90.86 180.4 93.54 180.4 73.06 179.78 73.06"/></g><g id="Shape_23" data-name="Shape 23"><polygon class="cls-1" points="182.24 112.09 181.75 112.51 179.38 116.38 172.84 127.07 174.65 127.75 175.9 125.38 183 113.82 183.36 113.21 182.24 112.09"/></g><g id="Shape_19_copy" data-name="Shape 19 copy"><polygon class="cls-1" points="148.66 96.82 148.66 116.35 149.68 118.17 149.68 97.44 153.54 95.66 153.54 96.59 150.47 98.06 150.47 119.66 154.4 125.01 154.4 94.16 148.66 96.82"/></g><g id="Shape_20_copy" data-name="Shape 20 copy"><polygon class="cls-1" points="145.32 66.84 145.32 111.36 147.31 113.82 147.31 68.02 145.32 66.84"/></g><g id="Shape_21_copy" data-name="Shape 21 copy"><polygon class="cls-1" points="148.66 73.06 149.68 74.19 153.54 72.29 153.54 73.19 150.28 74.79 150.28 90.59 153.54 89 153.54 89.86 149.68 91.76 149.68 92.29 154.4 90.84 154.4 70.38 148.66 73.06"/></g><g id="Shape_22_copy" data-name="Shape 22 copy"><polygon class="cls-1" points="149.87 91.85 149.68 91.77 149.68 74.19 149.74 74.16 149.81 74.04 149.28 73.06 148.66 73.06 148.66 93.54 154.4 90.86 154.4 90.7 149.87 91.85"/></g><g id="Shape_23_copy" data-name="Shape 23 copy"><polygon class="cls-1" points="149.68 116.38 147.31 112.51 146.82 112.09 145.7 113.21 146.06 113.82 153.15 125.38 154.4 127.75 156.22 127.07 149.68 116.38"/></g><g id="Rectangle_12_copy_3" data-name="Rectangle 12 copy 3"><rect class="cls-1" x="159.09" y="75.4" width="10.82" height="1"/></g><g id="Rectangle_12_copy_4" data-name="Rectangle 12 copy 4"><rect class="cls-1" x="159.09" y="77.07" width="10.82" height="1"/></g><g id="Rectangle_12_copy_5" data-name="Rectangle 12 copy 5"><rect class="cls-1" x="159.09" y="78.77" width="10.82" height="1"/></g><g id="Rectangle_12_copy_6" data-name="Rectangle 12 copy 6"><rect class="cls-1" x="159.09" y="80.45" width="10.82" height="1"/></g><g id="Rectangle_12_copy_7" data-name="Rectangle 12 copy 7"><rect class="cls-1" x="159.09" y="82.13" width="10.82" height="1"/></g><g id="Rectangle_12_copy_8" data-name="Rectangle 12 copy 8"><rect class="cls-1" x="159.09" y="83.81" width="10.82" height="1"/></g><g id="Rectangle_12_copy_9" data-name="Rectangle 12 copy 9"><rect class="cls-1" x="159.09" y="85.48" width="10.82" height="1"/></g><g id="Rectangle_12_copy_10" data-name="Rectangle 12 copy 10"><rect class="cls-1" x="159.09" y="87.16" width="10.82" height="1"/></g><g id="Rectangle_12_copy_11" data-name="Rectangle 12 copy 11"><rect class="cls-1" x="159.09" y="88.84" width="10.82" height="1"/></g><g id="Shape_24" data-name="Shape 24"><polygon class="cls-1" points="173.74 59.02 154.99 59.02 143.5 65.13 143.5 68.11 154.97 62.02 173.81 62.02 185.34 67.97 185.34 65.04 173.74 59.02"/></g><g id="Shape_25" data-name="Shape 25"><polygon class="cls-1" points="179.78 57.27 175.49 54.96 153.18 54.96 150.47 56.28 141.52 61.07 143.07 62.6 153.67 56.9 175.33 56.9 186.17 62.72 187.48 61.41 179.78 57.27"/></g><g id="Shape_26" data-name="Shape 26"><path class="cls-1" d="M226.61,146.07c-2.54,1-3.37,4.74-4.16,9.59s-2.7,7-2.7,7l1,0s.25-.3,1.6-2.07,1.57-5.52,2.39-9.61,2.94-5,2.94-5S229.14,145.13,226.61,146.07Z" transform="translate(-63.9 -106.67)"/></g><g id="Shape_26_copy" data-name="Shape 26 copy"><path class="cls-1" d="M222.83,145.63c-3,.85-4.3,5.14-5.65,10.64s-3.72,7.85-3.72,7.85l1.18.07s.32-.33,2-2.24,2.3-6.2,3.61-10.82,3.82-5.61,3.82-5.61S225.82,144.77,222.83,145.63Z" transform="translate(-63.9 -106.67)"/></g><g id="Shape_26_copy_2" data-name="Shape 26 copy 2"><path class="cls-1" d="M234.49,155.66c-.79-4.86-1.63-8.65-4.16-9.59s-1.12-.06-1.12-.06,2.12.91,2.95,5,1,7.84,2.39,9.61,1.6,2.07,1.6,2.07l1,0S235.28,160.51,234.49,155.66Z" transform="translate(-63.9 -106.67)"/></g><g id="Shape_26_copy_3" data-name="Shape 26 copy 3"><path class="cls-1" d="M239.76,156.27c-1.35-5.51-2.65-9.79-5.65-10.65s-1.29,0-1.29,0,2.52.85,3.84,5.47,1.9,8.91,3.61,10.82,2,2.24,2,2.24l1.18-.06S241.1,161.77,239.76,156.27Z" transform="translate(-63.9 -106.67)"/></g><g id="Rectangle_13" data-name="Rectangle 13"><rect class="cls-1" x="160.21" y="45.61" width="9.06" height="0.94"/></g><g id="Rectangle_14" data-name="Rectangle 14"><rect class="cls-1" x="158.44" y="52.06" width="12.15" height="1.35"/></g><path class="cls-1" d="M312,187.6c0-1-.07-2-.14-2.94-.08-1.14-.17-2.27-.29-3.41s-.25-2.18-.41-3.27c-.25-1.67-.54-3.33-.89-5-.54-2.57-1.19-5.12-2-7.63a83.39,83.39,0,0,0-23-36.44,83.41,83.41,0,0,0-33.84-19.08c-2.4-.68-4.82-1.26-7.27-1.72-1-.2-2.09-.36-3.14-.52-.63-.1-1.28-.19-1.92-.27-.88-.11-1.75-.21-2.63-.3-.7-.07-1.41-.1-2.12-.16-1.27-.11-2.54-.16-3.82-.19-.8,0-1.61,0-2.41,0-1.57,0-3.14.08-4.71.15-.59,0-1.18.07-1.76.13-1,.09-2,.18-2.93.3s-2,.25-3,.4c-1.41.22-2.82.48-4.22.77a81.93,81.93,0,0,0-10,2.73,83.15,83.15,0,0,0-18.42,9A83.68,83.68,0,0,0,149.94,162a83,83,0,0,0-2.75,9.37c-.35,1.51-.66,3-.92,4.56-.15.89-.28,1.78-.41,2.68-.09.7-.18,1.4-.26,2.1s-.13,1.13-.18,1.7-.1,1.41-.16,2.11c-.11,1.22-.15,2.43-.18,3.65-.06,2.61,0,5.22.18,7.83.1,1.29.21,2.58.36,3.87s.32,2.57.53,3.84c.31,1.94.7,3.87,1.15,5.78a83.77,83.77,0,0,0,3.43,11h.69c.18-.52.35-1,.54-1.56a2.44,2.44,0,0,0,.16-1c0-1.5-.05-3-.08-4.48a4.7,4.7,0,0,1,0-.53.13.13,0,0,1,.11-.12.86.86,0,0,1,.17,0h.47c.2,0,.27-.08.27-.29s0-.36,0-.53v-.59a.54.54,0,0,1,.17-.43c.19-.19.39-.38.58-.58a.47.47,0,0,1,.37-.14H163a.44.44,0,0,1,.32.13c.2.21.41.41.62.62a.44.44,0,0,1,.13.32v.94c0,.71-.07.57.5,1l.51.4a.33.33,0,0,1,.13.26,1.4,1.4,0,0,1,0,.29c0,1.65,0,3.3-.07,4.95v.29c0,.46,0,.48.44.48h40.58a.17.17,0,0,0,.15-.15,4.92,4.92,0,0,0-.1-.94c0-.26-.08-.29-.34-.3h-5.59c-.68,0-.53.06-1-.45a40.23,40.23,0,0,1-10.66-21.5c-.19-1.25-.34-2.49-.41-3.75a40.06,40.06,0,0,1,.06-6c.11-1.23.26-2.46.48-3.68a39,39,0,0,1,1.61-6.2,40.49,40.49,0,0,1,27.3-25.61l1.13-.32,1-.78a3.2,3.2,0,0,0,.55-.61c.39-.59.8-1.17,1.18-1.76a1.9,1.9,0,0,1,.63-.6l.23-.13c.11-.13.22-.25.34-.37a8,8,0,0,1,4.51-2.24,6.77,6.77,0,0,1,1-.13v-5.27c0-.1,0-.2,0-.3v-.18a.23.23,0,0,0-.22-.23h-4.79a.9.9,0,0,1-.89.59,1,1,0,0,1,0-2,.91.91,0,0,1,.94.77H228a.21.21,0,0,0,.2-.18c0-.16,0-.32,0-.47q0-4.57,0-9.13v-.41a.29.29,0,0,0-.11-.21l-.15-.09c-1-.54-2-1.07-3-1.62a1.22,1.22,0,0,0-.56-.14h-2.94c-.14,0-.23.07-.23.22s0,0,0,0-.11.13-.17.07c-.86-.84-.85-.57,0-1.41,0,0,.07,0,.12,0a2.86,2.86,0,0,0,.07.28.28.28,0,0,0,.13.11.47.47,0,0,0,.17,0h3.18a1.21,1.21,0,0,0,.56-.16c.83-.45,1.65-.9,2.49-1.34.51-.27.45-.24.45-.76q0-3.24,0-6.48v-.29a1,1,0,1,1,.68,0c0,.13,0,.26,0,.4v6.07c0,.78,0,.73.74.73h9.13a.2.2,0,0,1,.11,0s.06.07,0,.1a1,1,0,0,1-.12.19l-1.56,1.61a.8.8,0,0,0-.25.32c0,.13.12.2.2.28l1.52,1.57.16.17c.05.06.06.13,0,.15a.15.15,0,0,1-.1.06h-9.19l-.52,0a.19.19,0,0,0-.16.15c0,.16,0,.31,0,.47v9c0,.12,0,.24,0,.35s.08.27.24.27h4.53a.92.92,0,0,1,.94-.78,1,1,0,0,1,0,2,.9.9,0,0,1-.88-.59h-4.28c-.55,0-.56,0-.56.56v5.42a12.35,12.35,0,0,1,1.42.2,7.4,7.4,0,0,1,2.27.84,7.19,7.19,0,0,1,1.8,1.35l0,0,.44.23.47.25a.66.66,0,0,1,.32.32l.16.32c.4.77.79,1.54,1.18,2.31l.46.89a.94.94,0,0,0,.23.33l.88.7h.05s0-.06,0-.09l-.09-.28c0-.12-.11-.25-.16-.38s-.1-.18,0-.27.15,0,.23,0a39.13,39.13,0,0,1,3.81,1.2A40.07,40.07,0,0,1,260,165.07a39.57,39.57,0,0,1,7.44,14.77,40,40,0,0,1,1,4.73c.13.93.24,1.87.3,2.81a39.06,39.06,0,0,1,0,4.59c-.07,1.31-.18,2.62-.36,3.93a36.9,36.9,0,0,1-.89,4.5,40.28,40.28,0,0,1-9.68,17.48l-.57.58-.19,0h-1.17c-.79,0-.71-.07-.75.67l0,.35c0,.33,0,.38.35.38h36.35c.18,0,.25-.08.25-.25s0-.35,0-.53v-5.3a.37.37,0,0,1,.12-.26l.39-.36c.1-.09.19-.19.29-.3,0-.47.09-.94.13-1.41s.07-.51.41-.79l.45-.37a.53.53,0,0,1,.38-.13h.47l4.78,0,3.12,0a1.89,1.89,0,0,1,.58,0,.67.67,0,0,1,.11.14c.24.43.46.86.69,1.3a1.31,1.31,0,0,1,.15.5c0,.18,0,.35.05.53a.21.21,0,0,0,.13.18l.79.25c.17.06.23.13.23.3l-.09,2.12a.68.68,0,0,1-.11.33c-.16.24-.3.5-.47.75a.72.72,0,0,0-.1.5l.09,1c0,.55.09,1.09.13,1.64a.45.45,0,0,0,.18.36l.54.44h.11a.41.41,0,0,1,.16,0,.39.39,0,0,1,.16,0,.47.47,0,0,1,.17,0h.17a83.58,83.58,0,0,0,3.3-10.43c.39-1.61.74-3.22,1-4.84.19-1.08.36-2.17.52-3.25.11-.7.19-1.4.27-2.11.07-.56.13-1.13.19-1.69s.1-1.33.16-2c.09-1.11.15-2.23.18-3.35C312,191.09,312,189.35,312,187.6Z" transform="translate(-63.9 -106.67)"/><path class="cls-1" d="M97.64,302.32q0,7.8-4.59,12.53t-12.78,4.73q-7.83,0-12.1-4.38T63.9,303.36q0-7.78,4.61-12.32t12.75-4.53q7.83,0,12.1,4.24T97.64,302.32Zm-26.19.3q0,7.2,2.43,11A7.93,7.93,0,0,0,81,317.44,7.54,7.54,0,0,0,87.86,314q2.22-3.47,2.22-10.89,0-7-2.34-10.72a7.93,7.93,0,0,0-7.24-3.75q-4.75,0-6.9,3.48T71.45,302.62Z" transform="translate(-63.9 -106.67)"/><path class="cls-1" d="M130,287.25c2.07.06,3.94.09,5.6.09,1.49,0,3.23,0,5.24-.09l.14,1.15-3.08.87a.73.73,0,0,0-.54.75c0,1-.05,2.23-.05,3.73v17.93c0,1.77,0,3.27.05,4.48a.73.73,0,0,0,.6.7l2.93.83.09,1.13c-2.15-.05-4.52-.07-7.13-.07s-4.66,0-6.37.07l-.11-1.13,2.59-.79a.77.77,0,0,0,.56-.81c0-1.16.06-2.64.06-4.41v-14.4c0-.77,0-2.27.07-4.47-.51,1.29-1,2.62-1.62,4l-8.95,21.94-2,.18-8.55-21.31c-.51-1.21-1-2.57-1.58-4.07,0,2.13,0,3.53,0,4.21v13.92c0,1.77,0,3.25.05,4.41a.76.76,0,0,0,.58.81l2.47.79.07,1.13c-1.77-.05-3.3-.07-4.61-.07s-3,0-5.06.07l-.11-1.13,3-.83a.75.75,0,0,0,.61-.7c0-1.21,0-2.71,0-4.48V293.75c0-1.5,0-2.74,0-3.73a.75.75,0,0,0-.54-.75l-3-.87-.06-1.15c2.49.06,4.35.09,5.6.09,1.71,0,3.45,0,5.24-.09L120,307.07c.34.86.65,1.67.92,2.43.3-.76.62-1.57,1-2.43Z" transform="translate(-63.9 -106.67)"/><path class="cls-1" d="M178.88,302.32q0,7.8-4.59,12.53t-12.77,4.73q-7.83,0-12.11-4.38t-4.27-11.84q0-7.78,4.61-12.32t12.76-4.53q7.81,0,12.1,4.24T178.88,302.32Zm-26.18.3q0,7.2,2.43,11a7.92,7.92,0,0,0,7.13,3.81,7.56,7.56,0,0,0,6.85-3.46q2.2-3.47,2.21-10.89,0-7-2.34-10.72a7.93,7.93,0,0,0-7.24-3.75q-4.74,0-6.89,3.48T152.7,302.62Z" transform="translate(-63.9 -106.67)"/><path class="cls-1" d="M193.45,303.34v8.34c0,1.77,0,3.25.05,4.44a.76.76,0,0,0,.58.78l2.61.79.07,1.13q-2.79-.07-6.59-.07t-7,.07l-.11-1.13,3-.83a.74.74,0,0,0,.6-.7c0-1.21.05-2.71.05-4.48V293.75c0-1.5,0-2.74-.05-3.73a.73.73,0,0,0-.54-.75l-3-.87-.07-1.15c2.09.06,4.39.09,6.93.09s4.83,0,6.66-.09l.13,1.15-2.68.76a.72.72,0,0,0-.58.7c0,1.08-.05,2.35-.05,3.8V301h13.41v-7.29c0-1.45,0-2.72,0-3.8a.72.72,0,0,0-.59-.7l-2.63-.76-.07-1.15c1.91.06,4.15.09,6.75.09s4.82,0,6.86-.09l.11,1.15-3.06.87a.78.78,0,0,0-.56.75c0,1,0,2.23,0,3.73v17.93c0,1.77,0,3.27,0,4.48a.78.78,0,0,0,.63.7l2.92.83.07,1.13q-3.21-.07-7.11-.07t-6.5.07l-.11-1.13,2.7-.79a.75.75,0,0,0,.59-.78c0-1.19,0-2.67,0-4.44v-8.34Z" transform="translate(-63.9 -106.67)"/><path class="cls-1" d="M220.33,287.25q3.13.09,6.93.09t6.93-.09l.11,1.15-2.92.83a.7.7,0,0,0-.59.67c0,.54,0,1.12,0,1.75s0,1.29,0,2v12.4c0,4.09.61,6.93,1.84,8.49s3.23,2.35,6,2.35,4.75-.82,6.1-2.48,2-4.35,2-8.07V293.66q0-1.08,0-2c0-.63,0-1.21,0-1.75a.7.7,0,0,0-.58-.67l-2.79-.79-.07-1.19c2,.06,3.72.09,5.17.09s3.05,0,5.09-.09l.11,1.15-3.06.87a.74.74,0,0,0-.56.75c0,.51,0,1.07,0,1.68s0,1.3,0,2.05v11.43q0,7.74-3.18,11.11t-9.26,3.36q-6.9,0-10.19-3.21T224,306.17V293.75c0-.75,0-1.43,0-2.05s0-1.17,0-1.68a.75.75,0,0,0-.54-.75l-3-.87Z" transform="translate(-63.9 -106.67)"/><path class="cls-1" d="M262.58,316.07a.73.73,0,0,0,.56.79l2.88.79.06,1.17c-2-.05-3.68-.07-5-.07s-3,0-5.06.07l-.11-1.13,3-.83a.75.75,0,0,0,.61-.7c0-1.21,0-2.71,0-4.48V293.75c0-1.5,0-2.74,0-3.73a.75.75,0,0,0-.54-.75l-3-.87-.06-1.15q3.15.09,4.83.09c1.47,0,2.87,0,4.19-.09L279.89,306c.6.75,1.22,1.55,1.85,2.39,0-1-.05-2-.05-3V293.66c0-1.45,0-2.71,0-3.76a.71.71,0,0,0-.59-.67l-2.88-.79-.06-1.19q3.11.09,5,.09t5-.09l.11,1.15-3.06.87a.73.73,0,0,0-.53.75c-.05,1-.07,2.23-.07,3.73v25L282,319l-17.72-22.21c-.53-.68-1.13-1.48-1.82-2.41,0,1.11,0,2.13,0,3.06v14.24C262.53,313.45,262.55,314.92,262.58,316.07Z" transform="translate(-63.9 -106.67)"/><path class="cls-1" d="M297.39,318.75q-2.89,0-6,.07l-.11-1.13,3-.83a.75.75,0,0,0,.61-.7c0-.6,0-1.27,0-2s0-1.57,0-2.47V293.75c0-.75,0-1.43,0-2.05s0-1.17,0-1.68a.75.75,0,0,0-.54-.75l-3-.87-.07-1.15q3.15.09,6,.09c1.62,0,3.17,0,4.65-.11s3-.12,4.61-.12q8.4,0,12.62,3.59t4.23,10.66q0,8.33-4.69,12.92t-13.19,4.6c-1.56,0-2.95,0-4.16-.06S298.85,318.75,297.39,318.75Zm4.32-2.3a14.43,14.43,0,0,0,2.12.26c.69,0,1.38.06,2.09.06a8.66,8.66,0,0,0,7.42-3.44q2.55-3.45,2.54-10.49,0-6.85-2.43-10.18t-7.64-3.32c-1.29,0-2.66.06-4.1.18Z" transform="translate(-63.9 -106.67)"/><path class="cls-1" d="M338,311.68c0,.9,0,1.71,0,2.42s0,1.36,0,1.95.19.77.52.88l2.34.76.06,1.13q-2.49-.07-6.18-.07-3.93,0-7,.07l-.11-1.13,3-.83a.74.74,0,0,0,.61-.7q0-.9,0-2c0-.74,0-1.57,0-2.47V293.75c0-.75,0-1.43,0-2.05s0-1.17,0-1.68a.73.73,0,0,0-.54-.75l-3-.87-.07-1.15q3.15.09,6.45.09l1.74,0,2.52-.08,2.26-.07c.6,0,1.08,0,1.42,0q5.79,0,8.68,1.93a6.38,6.38,0,0,1,2.89,5.65,8,8,0,0,1-1.77,5.41,11.12,11.12,0,0,1-5.18,3.16c1.25,1.86,2.23,3.37,2.91,4.52s1.37,2.3,2.06,3.41,1.31,2.11,1.87,3a13.84,13.84,0,0,0,1.59,2,8.69,8.69,0,0,0,.78.58,4.46,4.46,0,0,0,.77.43,5.56,5.56,0,0,0,.87.3l1,.24.09,1.15a36,36,0,0,1-5,.31,11.8,11.8,0,0,1-3.15-.29,5.23,5.23,0,0,1-1.59-.83A8.77,8.77,0,0,1,347,316c-.58-.87-1.19-1.85-1.84-3s-1.31-2.25-2-3.48-1.4-2.45-2.15-3.65c-.22-.34-.4-.63-.55-.85a1.9,1.9,0,0,0-.42-.51,2,2,0,0,0-.45-.25,2.87,2.87,0,0,0-.6-.1l-.94,0Zm0-9.47c.79.05,1.51.07,2.16.07a6.07,6.07,0,0,0,4.67-1.61q1.48-1.6,1.49-5t-1.43-4.82a5.8,5.8,0,0,0-4.44-1.52c-.35,0-.72,0-1.12,0s-.84.08-1.33.14Z" transform="translate(-63.9 -106.67)"/><path class="cls-1" d="M392.83,302.32q0,7.8-4.59,12.53t-12.77,4.73q-7.83,0-12.1-4.38t-4.28-11.84q0-7.78,4.61-12.32t12.76-4.53q7.82,0,12.1,4.24T392.83,302.32Zm-26.18.3q0,7.2,2.43,11a7.92,7.92,0,0,0,7.13,3.81,7.56,7.56,0,0,0,6.85-3.46q2.2-3.47,2.21-10.89,0-7-2.34-10.72a7.92,7.92,0,0,0-7.24-3.75q-4.74,0-6.89,3.48T366.65,302.62Z" transform="translate(-63.9 -106.67)"/><path class="cls-1" d="M77.54,353.35c0,.75,0,1.43,0,2s0,1.16,0,1.66c0,.32.23.53.66.64l2.11.66,0,.8c-1.61,0-3.16-.05-4.65-.05s-3.06,0-4.65.05l-.07-.8,2.31-.7a.61.61,0,0,0,.5-.58q0-.75,0-1.68c0-.61,0-1.3,0-2v-15.2c0-.64,0-1.22,0-1.73s0-1,0-1.39a.63.63,0,0,0-.45-.63l-2.32-.74,0-.8c1.61.05,3.16.07,4.65.07s3,0,4.65-.07l.07.8-2.32.7a.59.59,0,0,0-.49.58c0,.44,0,.91,0,1.43s0,1.09,0,1.7Z" transform="translate(-63.9 -106.67)"/><path class="cls-1" d="M104,338.2v15.15c0,1.48,0,2.7,0,3.68a.59.59,0,0,0,.47.63l2.23.66,0,.84c-1.56,0-2.84-.05-3.84-.05s-2.27,0-3.88.05l-.08-.8,2.31-.7a.61.61,0,0,0,.5-.58c0-1,0-2.25,0-3.73v-15.2c0-1.25,0-2.29,0-3.12a.63.63,0,0,0-.45-.63L99,333.66l0-.8c1.61.05,2.89.07,3.83.07.56,0,1.13,0,1.7-.07l15.75,19.67V338.07c0-1.21,0-2.26,0-3.13a.61.61,0,0,0-.49-.58l-2.21-.64,0-.86c1.6.05,2.89.07,3.88.07s2.28,0,3.84-.07l.08.8-2.36.74a.63.63,0,0,0-.45.63c0,.83,0,1.87,0,3.12v21l-1.57.15Z" transform="translate(-63.9 -106.67)"/><path class="cls-1" d="M156.54,334.56a11.76,11.76,0,0,0-3.62-.65,6.07,6.07,0,0,0-3.95,1.2,4.06,4.06,0,0,0-1.47,3.33,4.21,4.21,0,0,0,.52,2.14,5.41,5.41,0,0,0,1.38,1.61,10.55,10.55,0,0,0,2,1.24c.74.36,1.5.72,2.29,1.07s1.7.77,2.51,1.19a11.4,11.4,0,0,1,2.2,1.47,6.55,6.55,0,0,1,1.58,2,6.15,6.15,0,0,1,.59,2.75,6.47,6.47,0,0,1-2.92,5.71,13.21,13.21,0,0,1-7.54,2,24.45,24.45,0,0,1-6.6-1l-.11-.15.92-6.37.84-.14,1.31,5.33a11.08,11.08,0,0,0,4.07.79,6.85,6.85,0,0,0,4.36-1.24,4.23,4.23,0,0,0,1.56-3.53,4.39,4.39,0,0,0-.5-2.11,5.18,5.18,0,0,0-1.36-1.56,11.79,11.79,0,0,0-1.94-1.19c-.73-.36-1.48-.71-2.25-1.06s-1.73-.78-2.55-1.22a12.29,12.29,0,0,1-2.24-1.53,6.43,6.43,0,0,1-1.6-2.13,6.86,6.86,0,0,1-.6-3,5.91,5.91,0,0,1,2.84-5.25,12.66,12.66,0,0,1,7-1.85,29.8,29.8,0,0,1,6.2.69l.13.13-1.1,5.85-.75.13Z" transform="translate(-63.9 -106.67)"/><path class="cls-1" d="M188.05,359.11c-1.54,0-3.24,0-5.1.05l-.07-.8,2.77-.83a.6.6,0,0,0,.49-.58c0-.95,0-2.16,0-3.64V334.6h-6.62l-1.67,5-.75.13-.49-6.71.13-.15q4.62.08,8.83.07h5q4.2,0,8.86-.07l.12.15-1.19,6.58-.74.13-1.2-5.12h-6.62v18.71c0,1.48,0,2.69,0,3.64a.59.59,0,0,0,.48.58l2.78.83,0,.8C191.25,359.13,189.54,359.11,188.05,359.11Z" transform="translate(-63.9 -106.67)"/><path class="cls-1" d="M223.5,353.35c0,.75,0,1.43,0,2s0,1.16,0,1.66c0,.32.23.53.65.64l2.12.66,0,.8c-1.62,0-3.16-.05-4.65-.05s-3.06,0-4.65.05l-.08-.8,2.31-.7a.63.63,0,0,0,.51-.58c0-.5,0-1.06,0-1.68s0-1.3,0-2v-15.2c0-.64,0-1.22,0-1.73s0-1,0-1.39a.65.65,0,0,0-.45-.63l-2.33-.74,0-.8c1.62.05,3.17.07,4.65.07s3,0,4.65-.07l.08.8-2.33.7a.58.58,0,0,0-.48.58c0,.44,0,.91,0,1.43s0,1.09,0,1.7Z" transform="translate(-63.9 -106.67)"/><path class="cls-1" d="M255.35,359.11c-1.54,0-3.24,0-5.1.05l-.08-.8,2.78-.83a.6.6,0,0,0,.49-.58c0-.95,0-2.16,0-3.64V334.6h-6.61l-1.67,5-.75.13L244,333l.13-.15q4.62.08,8.83.07h5c2.79,0,5.75,0,8.86-.07l.11.15-1.18,6.58-.75.13-1.2-5.12h-6.61v18.71c0,1.48,0,2.69,0,3.64a.6.6,0,0,0,.49.58l2.78.83,0,.8C258.55,359.13,256.84,359.11,255.35,359.11Z" transform="translate(-63.9 -106.67)"/><path class="cls-1" d="M283.62,332.86c1.61.05,3.16.07,4.65.07s3,0,4.64-.07l.08.8-2.32.7a.59.59,0,0,0-.49.58c0,.44,0,.91,0,1.43s0,1.09,0,1.7v10.26q0,5.35,1.71,7.43t5.49,2.07c2.56,0,4.42-.71,5.56-2.14s1.73-3.8,1.73-7.14V338.07c0-.61,0-1.18,0-1.7s0-1-.05-1.43a.6.6,0,0,0-.48-.58l-2.2-.64,0-.86c1.58.05,2.94.07,4.08.07s2.41,0,4-.07l.07.8-2.36.74a.63.63,0,0,0-.45.63c0,.41,0,.88,0,1.39s0,1.09,0,1.73v9.61c0,4.1-.83,7.14-2.5,9.1s-4.3,2.94-7.88,2.94-6.11-.88-7.78-2.65-2.51-4.52-2.51-8.24V338.15c0-.64,0-1.22,0-1.73s0-1,0-1.39a.63.63,0,0,0-.45-.63l-2.32-.74Z" transform="translate(-63.9 -106.67)"/><path class="cls-1" d="M338.15,359.11c-1.54,0-3.24,0-5.1.05l-.08-.8,2.78-.83a.6.6,0,0,0,.49-.58c0-.95,0-2.16,0-3.64V334.6h-6.61l-1.67,5-.75.13-.49-6.71.13-.15q4.62.08,8.83.07h5c2.79,0,5.75,0,8.86-.07l.11.15-1.18,6.58-.75.13-1.2-5.12H340v18.71c0,1.48,0,2.69,0,3.64a.6.6,0,0,0,.49.58l2.78.83,0,.8C341.35,359.13,339.63,359.11,338.15,359.11Z" transform="translate(-63.9 -106.67)"/><path class="cls-1" d="M371.72,332.93h4.56c2.79,0,5.75,0,8.86-.07l.11.15-1.08,5.79-.75.13-1.16-4.33H373.6v10.31h1.7l4.35,0a.66.66,0,0,0,.64-.49l.65-2.53,1,0c0,1.75-.06,3-.06,3.88s0,2.09.06,3.83l-1,.07-.67-2.57a.62.62,0,0,0-.58-.5c-1.63,0-3.09,0-4.41,0H373.6v6.82q0,2.08,0,4.11h9l2.29-4.76.84-.15-.41,6.52-.13.13q-4.86,0-9-.05H371.8c-1.52,0-3.07,0-4.65.05l-.08-.8,2.31-.7a.61.61,0,0,0,.5-.58q0-.75,0-1.68c0-.61,0-1.3,0-2v-15.2c0-.64,0-1.22,0-1.73s0-1,0-1.39a.63.63,0,0,0-.45-.63l-2.32-.74,0-.8C368.68,332.91,370.23,332.93,371.72,332.93Z" transform="translate(-63.9 -106.67)"/></svg>