<svg id="Layer_1" data-name="Layer 1" xmlns="http://www.w3.org/2000/svg" viewBox="0 0 98.2 36"><defs><style>.cls-1{fill:#fff;}</style></defs><title>Rice_Logo_Reverse_White</title><path class="cls-1" d="M99.3,34.3c-.16,0-.22.1-.27.39a5,5,0,0,1-1,2.23C97,38,95.42,38.25,93.43,38.25a9.58,9.58,0,0,1-9.58-9.71c0-2.71.45-5.07,2.39-6.93.93-.9,2.57-1.94,6.1-1.94a8.81,8.81,0,0,1,5.31,1.52,3.66,3.66,0,0,1,1.11,2.7c0,.37,0,.56.22.56s.21-.16.24-.56,0-1.85.08-2.73.13-1.27.13-1.49-.05-.26-.35-.29a21.56,21.56,0,0,1-2.7-.4,22.67,22.67,0,0,0-3.85-.32c-4.09,0-6.5,1.25-8.1,2.84a10.62,10.62,0,0,0-3,7.25,10.16,10.16,0,0,0,3.21,7.85c2.1,1.89,4.78,2.87,8.76,2.87a15.22,15.22,0,0,0,4.78-.61c.48-.21.53-.26.69-.77a28.23,28.23,0,0,0,.58-3.4C99.48,34.48,99.43,34.3,99.3,34.3Z" transform="translate(-15.51 -13.05)"/><path class="cls-1" d="M113.55,35.52c-.14,0-.19.1-.24.4-.19,1.08-.51,1.61-1.2,1.91a7.67,7.67,0,0,1-2.55.29c-2.6,0-3-.35-3.07-2.18,0-.56,0-3.63,0-4.54V29.07a.17.17,0,0,1,.18-.19c.45,0,3.08.06,3.8.13,1,.11,1.27.56,1.38.93a2.89,2.89,0,0,1,.1.88c0,.13.06.24.19.24s.18-.29.18-.51.06-1.16.11-1.69c.08-.88.21-1.33.21-1.49s0-.21-.13-.21-.21.13-.4.34-.61.32-1.25.37-3.87.06-4.21.06c-.14,0-.16-.08-.16-.27V20.34c0-.19.05-.27.16-.27.29,0,3.18,0,3.63.08,1.43.16,1.7.48,1.89.9a2.89,2.89,0,0,1,.15,1c0,.21.06.34.22.34s.16-.16.18-.29c.06-.32.11-1.48.14-1.75.08-.74.21-1.06.21-1.25s0-.24-.11-.24-.24.11-.37.14a8,8,0,0,1-1.14.13c-.61,0-5.89,0-6.08,0s-1.8-.08-3-.08c-.29,0-.42.05-.42.21s.1.16.21.16a4.37,4.37,0,0,1,.9.08c.88.18,1.09.61,1.14,1.51s.06,1.59.06,5.73V31.4c0,2.55,0,4.65-.14,5.76-.1.77-.23,1.36-.77,1.46a4.18,4.18,0,0,1-.79.11c-.16,0-.21.08-.21.16s.13.21.42.21c.8,0,2.47-.08,2.6-.08.77,0,2.55.16,6.56.16,1,0,1.24,0,1.43-.69s.34-2.36.34-2.57S113.7,35.52,113.55,35.52Z" transform="translate(-15.51 -13.05)"/><path class="cls-1" d="M79.65,38.73c-.23,0-.82-.06-1.19-.11-.8-.1-1-.69-1-1.46-.14-1.11-.14-3.21-.14-5.76V26.73c0-4.14,0-4.88.06-5.73s.26-1.38,1-1.51a3,3,0,0,1,.7-.08.17.17,0,0,0,.17-.18c0-.14-.14-.19-.42-.19-.8,0-2.47.08-2.6.08S74.37,19,73.5,19c-.29,0-.43.05-.43.21s.11.16.22.16a3.41,3.41,0,0,1,.82.1c.58.14.85.59.9,1.49s0,1.59,0,5.73V31.4c0,2.55,0,4.65-.13,5.76a3.53,3.53,0,0,1-.25,1,.65.65,0,0,1-.6.38,2.47,2.47,0,0,1-1-.16,6.58,6.58,0,0,1-2.3-1.66c-1.54-1.65-3.35-4-5.52-6.8,2.39-2.2,3.21-4.16,3.21-6.13a4.66,4.66,0,0,0-1.83-3.61A8.25,8.25,0,0,0,61.81,19c-.82,0-2.84.08-3.13.08-.13,0-1.81-.08-3-.08-.29,0-.42.05-.42.21s.1.16.21.16a4.37,4.37,0,0,1,.9.08c.88.18,1.09.61,1.14,1.51s.05,1.59.05,5.73V31.4c0,2.55,0,4.65-.13,5.76-.1.77-.24,1.36-.77,1.46a4.29,4.29,0,0,1-.79.11c-.16,0-.22.08-.22.16s.14.21.43.21c.79,0,2.47-.08,2.49-.08s1.81.08,3.27.08c.29,0,.42-.08.42-.21s0-.16-.21-.16-.82-.06-1.19-.11c-.8-.1-1-.69-1-1.46-.13-1.11-.13-3.21-.13-5.76v-.63c0-.14.05-.22.18-.22l3.27.06a.4.4,0,0,1,.34.16c.53.69,1.78,2.46,2.9,3.92,1.51,2,2.44,3.29,3.58,3.91a5.42,5.42,0,0,0,2.84.5h.78c.79,0,2.47-.08,2.6-.08s1.8.08,3.26.08c.29,0,.43-.08.43-.21S79.81,38.73,79.65,38.73Zm-15-9.45a3.46,3.46,0,0,1-2,.5,7.33,7.33,0,0,1-2.79-.42.35.35,0,0,1-.18-.32V20.36A.33.33,0,0,1,59.9,20a8.89,8.89,0,0,1,1.78-.15c2.84,0,4.59,2,4.59,5.3C66.27,27.21,65.58,28.64,64.65,29.28Z" transform="translate(-15.51 -13.05)"/><path class="cls-1" d="M39.47,18.06a.44.44,0,0,0,.44-.3s0-.06,0,0a.36.36,0,0,1-.24.09.37.37,0,0,1-.34-.34.34.34,0,0,1,.09-.24,0,0,0,0,0,0-.06.45.45,0,0,0-.3.44A.45.45,0,0,0,39.47,18.06Z" transform="translate(-15.51 -13.05)"/><path class="cls-1" d="M37.05,18.06a.44.44,0,0,0,.44-.3s0-.06-.05,0a.37.37,0,0,1-.25.09.36.36,0,0,1-.33-.34.38.38,0,0,1,.08-.24,0,0,0,0,0,0-.06.48.48,0,0,0-.31.44A.46.46,0,0,0,37.05,18.06Z" transform="translate(-15.51 -13.05)"/><path class="cls-1" d="M22.07,18.06a.44.44,0,0,0,.44-.3s0-.06-.05,0a.35.35,0,0,1-.58-.25.34.34,0,0,1,.09-.24,0,0,0,0,0,0-.06.48.48,0,0,0-.31.44A.46.46,0,0,0,22.07,18.06Z" transform="translate(-15.51 -13.05)"/><path class="cls-1" d="M44.44,15.06a49.62,49.62,0,0,0-14-2c-.91,0-1.82,0-2.72.07a50.13,50.13,0,0,0-11.3,1.94,1.25,1.25,0,0,0-.88,1.2v12.8A21.22,21.22,0,0,0,28.76,48.73a4.38,4.38,0,0,0,3.3,0A21.23,21.23,0,0,0,45.32,29.06V16.26A1.26,1.26,0,0,0,44.44,15.06Zm-2.8,4.68a3.51,3.51,0,0,1,.46.88,12.61,12.61,0,0,1,.42,1.64,0,0,0,0,1,0,0s0,0,0,0h0a3,3,0,0,1-.78-.63,3.54,3.54,0,0,1-.35-.51,2.83,2.83,0,0,1-.23-.57.21.21,0,0,0-.21-.16h0a.1.1,0,0,0-.05,0,0,0,0,0,0,0,.06,3.16,3.16,0,0,0,.67,1.33,3.21,3.21,0,0,0,.83.69.75.75,0,0,1,.38.53h0l0,.2a0,0,0,0,1,0,0s0,0,0,0h0A4.26,4.26,0,0,1,41.9,23a3.79,3.79,0,0,1-.86-.74,3.75,3.75,0,0,1-.67-1.12.23.23,0,0,0-.21-.15h-.07a.08.08,0,0,0,0,0,.08.08,0,0,0,0,.07,4.22,4.22,0,0,0,.77,1.35,3.9,3.9,0,0,0,.93.79,4.41,4.41,0,0,0,.65.33.72.72,0,0,1,.46.53c0,.05,0,.1,0,.15s0,0,0,0,0,0,0,0h0a4.66,4.66,0,0,1-1.35-.54,4.83,4.83,0,0,1-1.12-.94,4.63,4.63,0,0,1-.81-1.37,4.53,4.53,0,0,1-.3-1.63,1.62,1.62,0,0,1,0-.22.09.09,0,0,1,.09-.09h.23a1.87,1.87,0,0,0,.62-.1,1.91,1.91,0,0,0,.54-.3.15.15,0,0,1,.11,0,.16.16,0,0,1,.09,0A3.26,3.26,0,0,1,41.64,19.74Zm-.07,4.51-.06.09c0,.08-.09.15-.13.22a.1.1,0,0,1-.07,0h0a7.24,7.24,0,0,1-.94-.36l0,0a0,0,0,0,1,0,0,4.9,4.9,0,0,0,.26-.67s0,0,0,0h0a4.23,4.23,0,0,0,.86.59A.12.12,0,0,1,41.57,24.25Zm-1.89.66h.13A.16.16,0,0,1,40,25l0,.16v0H39.9l-.12,0h0l-.11-.06a.12.12,0,0,0-.14,0l-.06,0-.09.05H39a.05.05,0,0,1-.05-.08v0a0,0,0,0,0,0-.05.22.22,0,0,0-.28.13h0a.07.07,0,0,1-.06,0h-.1a.06.06,0,0,1-.06-.08l0-.07h0a.25.25,0,0,1,.23-.16h.18a.62.62,0,0,0,.53-.29,4.89,4.89,0,0,0,.37-.72.06.06,0,0,1,.09,0,.41.41,0,0,0,.11.07.21.21,0,0,1,.07.27l-.08.14a3.17,3.17,0,0,1-.23.36l-.07.11A.06.06,0,0,0,39.68,24.91Zm-.85.31h0Zm-1.15-.17a.23.23,0,0,0-.28.13h0a.07.07,0,0,1-.06,0h-.1a.05.05,0,0,1-.05-.08l0-.07a.25.25,0,0,1,.24-.16h.17a.62.62,0,0,0,.53-.29,4,4,0,0,0,.34-.65.06.06,0,0,1,.09,0l.11.06a.21.21,0,0,1,.07.27c0,.08-.09.16-.14.24a.66.66,0,0,1-.21.2.56.56,0,0,0-.22.26l0,.11,0,.09h0s0,0,0,0h-.31a.06.06,0,0,1-.06-.08v0A0,0,0,0,0,37.68,25.05Zm-.07.17Zm1.64-1.54s0-.09,0-.14,0,0,.05,0l.18.14a0,0,0,0,1,0,0l0,.12s0,0,0,0l-.19-.12A0,0,0,0,1,39.25,23.68Zm.54-.17a4.16,4.16,0,0,1-.39-.32,4.65,4.65,0,0,1-.76-.9.22.22,0,0,0-.18-.1.2.2,0,0,0-.11,0,.07.07,0,0,0,0,.06.06.06,0,0,0,0,.07,4.71,4.71,0,0,0,.57.76.53.53,0,0,1,.14.28.58.58,0,0,1,0,.32l0,.09s0,0,0,0h0a4.35,4.35,0,0,1-.93-.68,4.55,4.55,0,0,1-.74-.89,4.6,4.6,0,0,1-.71-2.45c0-.08,0-.16,0-.24a.1.1,0,0,1,.1-.09h0l.3,0h.65a.09.09,0,0,0,.08-.08.22.22,0,0,0-.22-.22H37l-.24,0a.28.28,0,0,1-.23-.25,1,1,0,0,1,.07-.47l0,0h0a.93.93,0,0,0,.46.12,1,1,0,0,0,.41-.09h0s0,0,0,0a.76.76,0,0,0,.06.2l.45.95a.28.28,0,0,0,.24.15.26.26,0,0,0,.24-.15l.45-.95a.53.53,0,0,0,.07-.2s0,0,0,0h0a.93.93,0,0,0,.4.09,1,1,0,0,0,.47-.12h0l0,0a1,1,0,0,1,.07.47.28.28,0,0,1-.24.25l-.23,0h-.51a.22.22,0,0,0-.22.22.09.09,0,0,0,.08.08s0,0,0,0,0,0,0,0a2.62,2.62,0,0,0,0,.28,4.83,4.83,0,0,0,.32,1.73A4.6,4.6,0,0,0,40.16,23h0a.72.72,0,0,1,.13.28.61.61,0,0,1,0,.3l-.06.16,0,0h0Zm-4-4.25a.09.09,0,0,1,.14-.07l.05,0a.45.45,0,0,1,.24.42v.16a4.87,4.87,0,0,0,.56,2.28.07.07,0,0,1,0,.09.06.06,0,0,1-.08,0,3,3,0,0,1-.34-.45,3.8,3.8,0,0,1-.57-2A3.4,3.4,0,0,1,35.83,19.26Zm-.3-1a.33.33,0,0,1,0-.24.34.34,0,0,1,.13-.2,1.06,1.06,0,0,1,.44-.21h0s0,0,0,0a.85.85,0,0,0,.12.38.33.33,0,0,1,0,.29,1.23,1.23,0,0,0-.08.56s0,0,0,0h-.05A1.61,1.61,0,0,1,35.53,18.31Zm.86-.71a.67.67,0,1,1,.67.67A.67.67,0,0,1,36.39,17.6Zm1.39.75a.49.49,0,0,1,.49-.49.5.5,0,0,1,.5.49.59.59,0,0,1-.05.22l-.39.81a.06.06,0,0,1-.11,0l-.39-.81h0A.59.59,0,0,1,37.78,18.35Zm1-.75a.67.67,0,1,1,.67.67A.67.67,0,0,1,38.81,17.6Zm1.5.47a.85.85,0,0,0,.12-.38,0,0,0,0,1,0,0h0a1,1,0,0,1,.44.2.34.34,0,0,1,.13.21.35.35,0,0,1,0,.25,1.62,1.62,0,0,1-.58.64h0s0,0,0,0a1.24,1.24,0,0,0-.09-.56A.37.37,0,0,1,40.31,18.07Zm.46-1.44h0a.19.19,0,0,1,.14.08,1.56,1.56,0,0,1,.27.89v0a0,0,0,0,1,0,0h0a1.16,1.16,0,0,0-.53-.27.42.42,0,0,1-.26-.21,1.18,1.18,0,0,0-.19-.25l0,0,0,0a.91.91,0,0,1,.58-.23Zm-1.51-.34a.85.85,0,0,1,.42-.22h.17a.58.58,0,0,1,.19,0,1.85,1.85,0,0,1,.45.21s0,0,0,0,0,0,0,0a1.24,1.24,0,0,0-.5.25.31.31,0,0,1-.21.07h-.08a.65.65,0,0,0-.2,0,1,1,0,0,0-.47.12h0a.05.05,0,0,1,0,0s0,0,0,0A1.31,1.31,0,0,1,39.26,16.29Zm-1.57-.08h0a1.78,1.78,0,0,1,.45.37.16.16,0,0,0,.11.05.17.17,0,0,0,.12-.05,1.49,1.49,0,0,1,.45-.37h0l0,0a.08.08,0,0,1,0,0,1.07,1.07,0,0,0-.13.21,2.05,2.05,0,0,0-.18.51,2.24,2.24,0,0,0,0,.58,0,0,0,0,1,0,0h0a.75.75,0,0,0-.42,0h0a0,0,0,0,1,0,0A2.78,2.78,0,0,0,38,17a2.05,2.05,0,0,0-.18-.51,1.1,1.1,0,0,0-.14-.21s0,0,0,0Zm-1.63.08a1.85,1.85,0,0,1,.45-.21.55.55,0,0,1,.18,0h.18a1,1,0,0,1,.42.22,1.48,1.48,0,0,1,.3.45,0,0,0,0,1,0,0s0,0,0,0h0a.94.94,0,0,0-.47-.12.71.71,0,0,0-.2,0h-.07a.36.36,0,0,1-.22-.07,1.13,1.13,0,0,0-.5-.25l0,0A.05.05,0,0,1,36.06,16.29Zm-.42.42a.16.16,0,0,1,.14-.08h0a.91.91,0,0,1,.59.23.05.05,0,0,1,0,.06.92.92,0,0,0-.19.25.42.42,0,0,1-.27.21,1.27,1.27,0,0,0-.53.27h0s0,0,0,0v0A1.57,1.57,0,0,1,35.64,16.71Zm-11.4,3a3.18,3.18,0,0,1,.45.88,11.15,11.15,0,0,1,.43,1.64,0,0,0,0,1,0,0s0,0,0,0h0a3,3,0,0,1-.78-.63,3.54,3.54,0,0,1-.35-.51,2.83,2.83,0,0,1-.23-.57.22.22,0,0,0-.22-.16h0l-.06,0a.13.13,0,0,0,0,.06,3.18,3.18,0,0,0,.68,1.33,3.21,3.21,0,0,0,.83.69.71.71,0,0,1,.37.53h0l0,.2a0,0,0,0,1,0,0l0,0h0A4.26,4.26,0,0,1,24.5,23,3.81,3.81,0,0,1,23,21.11a.23.23,0,0,0-.21-.15h-.07a.1.1,0,0,0-.05,0,.08.08,0,0,0,0,.07,4.22,4.22,0,0,0,.77,1.35,3.9,3.9,0,0,0,.93.79,4.41,4.41,0,0,0,.65.33.74.74,0,0,1,.46.53c0,.05,0,.1,0,.15s0,0,0,0l0,0h0a4.71,4.71,0,0,1-1.34-.54A4.83,4.83,0,0,1,23,22.8a4.63,4.63,0,0,1-.81-1.37,4.53,4.53,0,0,1-.3-1.63v-.22a.11.11,0,0,1,.1-.09h.23a1.77,1.77,0,0,0,.61-.1,1.83,1.83,0,0,0,.55-.3.14.14,0,0,1,.1,0,.12.12,0,0,1,.09,0A3.08,3.08,0,0,1,24.24,19.74Zm-.08,4.51a.41.41,0,0,1-.05.09,1.64,1.64,0,0,1-.14.22.07.07,0,0,1-.06,0h0a7.24,7.24,0,0,1-.94-.36l0,0v0a3.91,3.91,0,0,0,.27-.67s0,0,0,0h0a4.23,4.23,0,0,0,.86.59A.12.12,0,0,1,24.16,24.25Zm-1.89.66h.14a.17.17,0,0,1,.16.12l0,.16v0H22.5l-.13,0h0l-.11-.06a.12.12,0,0,0-.14,0l-.06,0-.09.05h-.41a.05.05,0,0,1,0-.08v0a0,0,0,0,0,0-.05.22.22,0,0,0-.28.13h0a.08.08,0,0,1-.06,0h-.1a.06.06,0,0,1-.06-.08l0-.07h0a.25.25,0,0,1,.23-.16h.18a.63.63,0,0,0,.53-.29,6.1,6.1,0,0,0,.37-.72.05.05,0,0,1,.08,0l.12.07a.21.21,0,0,1,.07.27l-.08.14a3.17,3.17,0,0,1-.23.36l-.07.11A.06.06,0,0,0,22.27,24.91Zm-.85.31Zm-1.14-.17a.23.23,0,0,0-.28.13h0a.07.07,0,0,1-.06,0h-.1a.06.06,0,0,1-.06-.08l0-.07a.25.25,0,0,1,.23-.16h.18a.62.62,0,0,0,.53-.29,5,5,0,0,0,.34-.65s.05,0,.09,0l.11.06a.21.21,0,0,1,.07.27c-.05.08-.09.16-.15.24a.55.55,0,0,1-.2.2.56.56,0,0,0-.22.26l0,.11,0,.09h0a.07.07,0,0,1-.05,0h-.31c-.05,0-.08,0-.06-.08v0A0,0,0,0,0,20.28,25.05Zm-.07.17Zm1.64-1.54s0-.09,0-.14,0,0,.05,0l.18.14a0,0,0,0,1,0,0s0,.08,0,.12a0,0,0,0,1-.05,0l-.19-.12A0,0,0,0,1,21.85,23.68Zm.54-.17a4.16,4.16,0,0,1-.39-.32,4.7,4.7,0,0,1-.77-.9.21.21,0,0,0-.18-.1.19.19,0,0,0-.1,0,.1.1,0,0,0-.05.06.1.1,0,0,0,0,.07,4.71,4.71,0,0,0,.57.76.62.62,0,0,1,.14.28.58.58,0,0,1,0,.32.36.36,0,0,1,0,.09,0,0,0,0,1,0,0h0a4.11,4.11,0,0,1-.93-.68,4.55,4.55,0,0,1-.74-.89,4.6,4.6,0,0,1-.71-2.45,1.93,1.93,0,0,1,0-.24.09.09,0,0,1,.09-.09h0l.3,0h.64a.09.09,0,0,0,.09-.08.22.22,0,0,0-.22-.22h-.51l-.24,0a.3.3,0,0,1-.24-.25,1,1,0,0,1,.08-.47l0,0h0a.93.93,0,0,0,.46.12.9.9,0,0,0,.4-.09h0a.05.05,0,0,1,0,0,.76.76,0,0,0,.06.2l.45.95a.28.28,0,0,0,.24.15.27.27,0,0,0,.24-.15l.45-.95a.8.8,0,0,0,.07-.2,0,0,0,0,1,0,0h0a.94.94,0,0,0,.86,0h0s0,0,0,0a1,1,0,0,1,.08.47.28.28,0,0,1-.24.25l-.23,0h-.51a.22.22,0,0,0-.22.22.08.08,0,0,0,.08.08h0s0,0,0,0a2.62,2.62,0,0,0,0,.28,4.83,4.83,0,0,0,.32,1.73A4.77,4.77,0,0,0,22.75,23h0a.72.72,0,0,1,.13.28.61.61,0,0,1,0,.3,1.11,1.11,0,0,1-.07.16s0,0,0,0h0Zm-4-4.25a.09.09,0,0,1,.14-.07l.05,0a.47.47,0,0,1,.24.42v.16a4.87,4.87,0,0,0,.56,2.28.07.07,0,0,1,0,.09.08.08,0,0,1-.09,0A3.72,3.72,0,0,1,19,21.7a3.8,3.8,0,0,1-.57-2A3.4,3.4,0,0,1,18.43,19.26Zm-.3-1a.33.33,0,0,1,0-.24.37.37,0,0,1,.12-.2,1.1,1.1,0,0,1,.45-.21h0s0,0,0,0a.85.85,0,0,0,.12.38.33.33,0,0,1,0,.29,1.4,1.4,0,0,0-.09.56s0,0,0,0,0,0,0,0h0A1.61,1.61,0,0,1,18.13,18.31ZM19,17.6a.67.67,0,1,1,.67.67A.67.67,0,0,1,19,17.6Zm1.39.75a.49.49,0,1,1,1,0,.44.44,0,0,1-.05.22l-.38.81c0,.05-.09.05-.11,0l-.39-.81h0A.59.59,0,0,1,20.38,18.35Zm1-.75a.67.67,0,1,1,.67.67A.67.67,0,0,1,21.41,17.6Zm1.5.47a1.21,1.21,0,0,0,.12-.38,0,0,0,0,1,0,0h0a1,1,0,0,1,.44.2.34.34,0,0,1,.13.21.35.35,0,0,1,0,.25A1.65,1.65,0,0,1,23,19h0s0,0,0,0a1.4,1.4,0,0,0-.09-.56A.37.37,0,0,1,22.91,18.07Zm.46-1.44h0a.16.16,0,0,1,.13.08,1.49,1.49,0,0,1,.28.89v0a0,0,0,0,1,0,0h0a1.16,1.16,0,0,0-.53-.27.4.4,0,0,1-.26-.21,1,1,0,0,0-.2-.25s0,0,0,0,0,0,0,0a.91.91,0,0,1,.58-.23Zm-1.51-.34a.85.85,0,0,1,.42-.22h.17a.5.5,0,0,1,.18,0,1.75,1.75,0,0,1,.46.21s0,0,0,0,0,0,0,0a1.24,1.24,0,0,0-.5.25.34.34,0,0,1-.22.07h-.07a.65.65,0,0,0-.2,0,1,1,0,0,0-.47.12h0l0,0s0,0,0,0A1.19,1.19,0,0,1,21.86,16.29Zm-1.57-.08h0a1.78,1.78,0,0,1,.45.37.16.16,0,0,0,.11.05.17.17,0,0,0,.12-.05,1.58,1.58,0,0,1,.44-.37h0s0,0,0,0,0,0,0,0a1.07,1.07,0,0,0-.13.21,2.05,2.05,0,0,0-.18.51,2.24,2.24,0,0,0,0,.58s0,0,0,0h0a.75.75,0,0,0-.42,0h0a0,0,0,0,1,0,0,2.78,2.78,0,0,0-.05-.58,1.7,1.7,0,0,0-.17-.51,1.1,1.1,0,0,0-.14-.21s0,0,0,0Zm-1.63.08a1.85,1.85,0,0,1,.45-.21.55.55,0,0,1,.18,0h.18a1,1,0,0,1,.42.22,1.29,1.29,0,0,1,.29.45s0,0,0,0l0,0h0a.94.94,0,0,0-.47-.12.68.68,0,0,0-.2,0h-.07a.34.34,0,0,1-.22-.07,1.13,1.13,0,0,0-.5-.25l0,0A.05.05,0,0,1,18.66,16.29Zm-.42.42a.16.16,0,0,1,.14-.08h0a.94.94,0,0,1,.59.23,0,0,0,0,1,0,.06.92.92,0,0,0-.19.25.44.44,0,0,1-.27.21,1.27,1.27,0,0,0-.53.27h0s0,0,0,0v0A1.57,1.57,0,0,1,18.24,16.71Zm9,21a0,0,0,0,1,0,0v0a1.49,1.49,0,0,1,.28-.89.16.16,0,0,1,.13-.08h.05a.91.91,0,0,1,.58.23l0,0v0a1,1,0,0,0-.2.25.4.4,0,0,1-.26.21,1.26,1.26,0,0,0-.53.26Zm5.2-.27a.44.44,0,0,1-.27-.21A.92.92,0,0,0,32,37,0,0,0,0,1,32,37a.94.94,0,0,1,.59-.23h0a.16.16,0,0,1,.14.08,1.57,1.57,0,0,1,.28.89v0s0,0,0,0h0A1.38,1.38,0,0,0,32.45,37.49Zm.45.69a.36.36,0,0,1,0,.25,1.73,1.73,0,0,1-.59.64h0s0,0,0,0a1.4,1.4,0,0,0-.09-.56.33.33,0,0,1,0-.29.89.89,0,0,0,.12-.38s0,0,0,0h0a1,1,0,0,1,.44.2A.36.36,0,0,1,32.9,38.18Zm-.57-1.71a1.13,1.13,0,0,0-.5.25.34.34,0,0,1-.22.07h-.07a.68.68,0,0,0-.2,0,.94.94,0,0,0-.47.12h0l0,0s0,0,0,0a1.35,1.35,0,0,1,.29-.44,1,1,0,0,1,.42-.22h.18a.55.55,0,0,1,.18,0,1.54,1.54,0,0,1,.45.21.05.05,0,0,1,0,0Zm-1,.57a.67.67,0,1,1-.67.67A.67.67,0,0,1,31.34,37Zm-.6-.67a1.64,1.64,0,0,0-.14.22,1.7,1.7,0,0,0-.17.51,2.78,2.78,0,0,0-.05.58,0,0,0,0,1,0,0h0l-.21,0-.21,0h0v0a2.24,2.24,0,0,0,0-.58,2.05,2.05,0,0,0-.18-.51,1.59,1.59,0,0,0-.13-.22s0,0,0,0,0,0,0,0h0a1.58,1.58,0,0,1,.44.37.17.17,0,0,0,.12.05.16.16,0,0,0,.11-.05,1.78,1.78,0,0,1,.45-.37h0s0,0,0,0S30.75,36.36,30.74,36.37Zm-.12,2.09a.5.5,0,0,1-.05.21l-.39.82s-.08,0-.11,0l-.38-.81h0a.38.38,0,0,1-.05-.21.49.49,0,0,1,1,0Zm-1-.75a.67.67,0,1,1-.67-.67A.67.67,0,0,1,29.59,37.71Zm-.15-.83,0,0h0a1,1,0,0,0-.47-.12.65.65,0,0,0-.2,0h-.07a.34.34,0,0,1-.22-.07,1.24,1.24,0,0,0-.5-.25s0,0,0,0,0,0,0,0a1.54,1.54,0,0,1,.45-.21.58.58,0,0,1,.19,0h.17a.85.85,0,0,1,.42.22,1.23,1.23,0,0,1,.3.44S29.44,36.87,29.44,36.88Zm-2.05,1.54a.38.38,0,0,1,0-.24.39.39,0,0,1,.13-.2,1,1,0,0,1,.45-.21h0a0,0,0,0,1,0,0,1.29,1.29,0,0,0,.12.38.37.37,0,0,1,0,.29A1.4,1.4,0,0,0,28,39s0,0,0,0h0A1.54,1.54,0,0,1,27.39,38.42Zm1.25,3.86a.06.06,0,0,1-.08,0,3.72,3.72,0,0,1-.33-.45,3.81,3.81,0,0,1-.57-2,3.15,3.15,0,0,1,0-.44.09.09,0,0,1,.14-.07l.05,0a.47.47,0,0,1,.23.43v.16a4.88,4.88,0,0,0,.57,2.28A.07.07,0,0,1,28.64,42.28Zm.82,3ZM30,45.2l0,.09h0a.07.07,0,0,1-.06,0H29.6a.05.05,0,0,1-.05-.08v0a0,0,0,0,0,0-.05.21.21,0,0,0-.28.13h0a.08.08,0,0,1-.06,0h-.1a.06.06,0,0,1-.06-.08l0-.07A.25.25,0,0,1,29.3,45h.18a.63.63,0,0,0,.53-.29,5,5,0,0,0,.34-.65.05.05,0,0,1,.08,0l.11.06a.2.2,0,0,1,.08.27l-.15.24a.55.55,0,0,1-.2.2.51.51,0,0,0-.22.26Zm.67.13Zm1.19-1-.08.15a3.17,3.17,0,0,1-.23.36l-.08.11s0,.09.05.09h.13a.17.17,0,0,1,.17.12l0,.16s0,0,0,0h-.11l-.12,0h0l-.11-.06a.12.12,0,0,0-.14,0l-.06,0-.09,0h-.41a.06.06,0,0,1-.06-.08l0,0a.05.05,0,0,0,0-.05.2.2,0,0,0-.27.13h0s0,0-.06,0h-.1a.05.05,0,0,1,0-.08l0-.07h0a.25.25,0,0,1,.24-.16h.17a.62.62,0,0,0,.53-.29,4.08,4.08,0,0,0,.37-.72.06.06,0,0,1,.09,0l.12.07A.2.2,0,0,1,31.87,44.31Zm-.77-.52a.58.58,0,0,0,0-.14,0,0,0,0,1,.06,0l.18.15s0,0,0,0,0,.08,0,.12a0,0,0,0,1-.05,0l-.19-.12A.08.08,0,0,1,31.1,43.79Zm1-.11-.06.16,0,0h0l-.36-.24c-.14-.1-.27-.21-.4-.32a4.65,4.65,0,0,1-.76-.9.22.22,0,0,0-.18-.1.23.23,0,0,0-.11,0,.09.09,0,0,0,0,.06.17.17,0,0,0,0,.07,4.77,4.77,0,0,0,.58.76.62.62,0,0,1,.14.28.58.58,0,0,1,0,.32l0,.09s0,0,0,0h0a4.11,4.11,0,0,1-.93-.68,4.22,4.22,0,0,1-.74-.89,4.51,4.51,0,0,1-.71-2.45,1.93,1.93,0,0,1,0-.24.09.09,0,0,1,.09-.09h0l.29,0h.65a.08.08,0,0,0,.08-.08.22.22,0,0,0-.22-.22H28.8l-.23,0a.28.28,0,0,1-.24-.25,1,1,0,0,1,.08-.47s0,0,0,0h0a.94.94,0,0,0,.86,0h0a0,0,0,0,1,0,0,.8.8,0,0,0,.07.2l.45,1a.27.27,0,0,0,.24.15.28.28,0,0,0,.24-.15l.45-1a.76.76,0,0,0,.06-.2.05.05,0,0,1,0,0h0a.9.9,0,0,0,.4.09.93.93,0,0,0,.46-.12h0s0,0,0,0a1,1,0,0,1,.08.47.3.3,0,0,1-.24.25l-.24,0h-.51a.22.22,0,0,0-.22.22.09.09,0,0,0,.09.08h0v.3A4.83,4.83,0,0,0,32,43.1h0a.49.49,0,0,1,.13.27A.54.54,0,0,1,32.12,43.68Zm1.3.68-.05.09-.14.22a.08.08,0,0,1-.06,0h0a6.73,6.73,0,0,1-.94-.36l0,0v0a6.69,6.69,0,0,0,.27-.67s0,0,0,0h0a5.12,5.12,0,0,0,.87.59A.12.12,0,0,1,33.42,44.36Zm1.32,0,0,0h0a4.53,4.53,0,0,1-2.46-1.48,4.67,4.67,0,0,1-.82-1.37,4.74,4.74,0,0,1-.29-1.63v-.22a.1.1,0,0,1,.1-.09h.22a1.87,1.87,0,0,0,.62-.1,2,2,0,0,0,.55-.3.13.13,0,0,1,.1,0l.09,0a2.66,2.66,0,0,1,.68.66,3.21,3.21,0,0,1,.46.88,12.56,12.56,0,0,1,.43,1.64,0,0,0,0,1,0,0h0a3.13,3.13,0,0,1-.77-.63,2.89,2.89,0,0,1-.35-.51A2.35,2.35,0,0,1,33,40.7a.22.22,0,0,0-.22-.16h0a.1.1,0,0,0-.05,0,.13.13,0,0,0,0,.06A3.18,3.18,0,0,0,33.32,42a2.85,2.85,0,0,0,.83.68.77.77,0,0,1,.37.54h0a1.18,1.18,0,0,0,0,.2s0,0,0,0l0,0h0a3.68,3.68,0,0,1-.75-.35,3.63,3.63,0,0,1-.87-.74,3.52,3.52,0,0,1-.66-1.12.24.24,0,0,0-.21-.15H32a.1.1,0,0,0-.05,0,.06.06,0,0,0,0,.06,3.83,3.83,0,0,0,.77,1.36,3.72,3.72,0,0,0,.93.79,3.61,3.61,0,0,0,.65.33.77.77,0,0,1,.46.53l0,.15S34.74,44.37,34.74,44.37Zm6.2-3.77-.41.58L30.41,31.06,20.29,41.18l-.41-.58c-.41-.61-.79-1.23-1.14-1.87L30.41,27.06,42.08,38.73A19.07,19.07,0,0,1,40.94,40.6Zm1.8-3.21L30.41,25.06,18.08,37.39a19.54,19.54,0,0,1-1-3L30.41,21.06,43.8,34.44A20.75,20.75,0,0,1,42.74,37.39Z" transform="translate(-15.51 -13.05)"/><path class="cls-1" d="M29.29,37.83a.34.34,0,0,1-.24.09.37.37,0,0,1-.34-.34.34.34,0,0,1,.09-.24,0,0,0,0,0,0-.06.45.45,0,0,0-.3.44.45.45,0,0,0,.45.45.45.45,0,0,0,.44-.3A0,0,0,0,0,29.29,37.83Z" transform="translate(-15.51 -13.05)"/><path class="cls-1" d="M31.33,38.17a.45.45,0,0,0,.44-.3,0,0,0,0,0-.06,0,.34.34,0,0,1-.24.09.35.35,0,0,1-.33-.34.33.33,0,0,1,.08-.24s0-.07,0-.06a.47.47,0,0,0-.3.44A.45.45,0,0,0,31.33,38.17Z" transform="translate(-15.51 -13.05)"/><path class="cls-1" d="M19.65,18.06a.44.44,0,0,0,.44-.3s0-.06-.05,0a.37.37,0,0,1-.25.09.36.36,0,0,1-.33-.34.33.33,0,0,1,.08-.24s0-.07,0-.06a.47.47,0,0,0-.3.44A.46.46,0,0,0,19.65,18.06Z" transform="translate(-15.51 -13.05)"/></svg>