<svg id="Layer_1" data-name="Layer 1" xmlns="http://www.w3.org/2000/svg" viewBox="0 0 196.4 72"><defs><style>.cls-1{fill:#002169;}.cls-2{fill:#fff;}</style></defs><title>Rice_Logo_280_Blue</title><path class="cls-1" d="M143.62,58.11c-5.15-4.62-6.42-10.67-6.42-15.71a21.19,21.19,0,0,1,5.94-14.49c3.19-3.19,8-5.68,16.19-5.68a46.31,46.31,0,0,1,7.7.63,47,47,0,0,0,5.41.8c.58.05.69.26.69.58s-.16,1.06-.26,3c-.11,1.75-.11,4.67-.16,5.46s-.16,1.12-.48,1.12-.43-.37-.43-1.12a7.34,7.34,0,0,0-2.23-5.41c-1.85-1.59-5.94-3-10.61-3-7.06,0-10.35,2.07-12.21,3.88C142.88,31.83,142,36.56,142,42A19.18,19.18,0,0,0,161.14,61.4c4,0,7.11-.48,9.23-2.66a9.87,9.87,0,0,0,2-4.46c.11-.58.22-.79.54-.79s.37.37.37.79a55.26,55.26,0,0,1-1.17,6.8c-.32,1-.43,1.11-1.38,1.54-2.12.85-6.16,1.22-9.55,1.22C153.17,63.84,147.81,61.88,143.62,58.11Z" transform="translate(-5.29 -11)"/><path class="cls-1" d="M182.79,38.36c0-8.28,0-9.76-.11-11.46s-.53-2.66-2.28-3a10.48,10.48,0,0,0-1.8-.16c-.22,0-.43-.1-.43-.32s.27-.42.85-.42c2.39,0,5.73.16,6,.16s10.93,0,12.15-.05a14.26,14.26,0,0,0,2.28-.27c.27,0,.48-.27.75-.27s.21.22.21.48-.27,1-.43,2.5c0,.53-.15,2.86-.26,3.5-.05.27-.16.58-.37.58s-.43-.26-.43-.69a5.81,5.81,0,0,0-.31-1.91c-.38-.85-.91-1.48-3.77-1.8-.91-.11-6.69-.16-7.28-.16-.21,0-.31.16-.31.53V40.22c0,.37.05.53.31.53.69,0,7.22,0,8.44-.11s2-.21,2.5-.74.58-.69.8-.69.26.11.26.43-.26,1.22-.42,3c-.11,1.06-.22,3-.22,3.39s0,1-.37,1-.37-.21-.37-.47a5.5,5.5,0,0,0-.21-1.76c-.21-.74-.69-1.64-2.76-1.85-1.44-.16-6.69-.27-7.59-.27a.33.33,0,0,0-.37.37V47.7c0,1.81-.06,8,0,9.08.16,3.66.95,4.35,6.15,4.35a15.35,15.35,0,0,0,5.1-.58c1.38-.59,2-1.65,2.39-3.82.1-.59.21-.8.48-.8s.31.43.31.8a51,51,0,0,1-.69,5.15c-.37,1.38-.79,1.38-2.86,1.38-8,0-11.57-.32-13.11-.32-.27,0-3.61.16-5.2.16-.59,0-.85-.11-.85-.43,0-.16.1-.32.42-.32a7.79,7.79,0,0,0,1.59-.21c1.06-.21,1.33-1.38,1.54-2.92.27-2.23.27-6.42.27-11.52Z" transform="translate(-5.29 -11)"/><path class="cls-1" d="M122.43,62a5.16,5.16,0,0,1-1.94-.34,12.9,12.9,0,0,1-4.6-3.32c-3.08-3.29-6.69-8-11-13.59,4.78-4.4,6.42-8.33,6.42-12.26a9.3,9.3,0,0,0-3.66-7.22c-2.81-2-6.37-2.33-9.71-2.33-1.65,0-5.68.16-6.27.16-.26,0-3.61-.16-6-.16-.59,0-.85.11-.85.42s.21.32.42.32a10.6,10.6,0,0,1,1.81.16c1.75.37,2.17,1.22,2.28,3s.1,3.18.1,11.46V47.7c0,5.1,0,9.29-.26,11.52-.21,1.54-.48,2.71-1.54,2.92a8,8,0,0,1-1.59.21c-.32,0-.43.16-.43.32,0,.32.27.43.85.43,1.59,0,4.94-.16,5-.16.27,0,3.61.16,6.53.16.58,0,.85-.16.85-.43s-.11-.32-.43-.32A22,22,0,0,1,96,62.14c-1.6-.21-1.92-1.38-2.07-2.92-.27-2.23-.27-6.42-.27-11.52V46.43c0-.27.11-.43.37-.43l6.53.11a.86.86,0,0,1,.69.32c1.06,1.38,3.56,4.94,5.79,7.85,3,4,4.88,6.59,7.16,7.81,1.38.74,2.71,1,5.68,1h1.56c1.59,0,4.93-.16,5.2-.16s3.61.16,6.53.16c.58,0,.85-.16.85-.43s-.11-.32-.43-.32a22.39,22.39,0,0,1-2.39-.21c-1.59-.21-1.91-1.38-2.07-2.92-.26-2.23-.26-6.42-.26-11.52V38.36c0-8.28,0-9.76.11-11.46.1-1.86.53-2.76,2-3a8.24,8.24,0,0,1,1.4-.16.34.34,0,0,0,.35-.35c0-.29-.28-.39-.85-.39-1.59,0-4.93.16-5.2.16S123,23,121.27,23c-.58,0-.85.11-.85.42s.21.32.42.32a7.42,7.42,0,0,1,1.65.21c1.17.27,1.7,1.17,1.8,3s.11,3.18.11,11.46V47.7c0,5.1,0,9.29-.26,11.52a7.15,7.15,0,0,1-.5,2.05,1.38,1.38,0,0,1-1.21.76ZM103.58,43.46a6.9,6.9,0,0,1-4,1A14.8,14.8,0,0,1,94,43.62a.7.7,0,0,1-.37-.64V25.62a.63.63,0,0,1,.42-.63,16.07,16.07,0,0,1,3.56-.32c5.68,0,9.18,4,9.18,10.61C106.81,39.32,105.43,42.18,103.58,43.46Z" transform="translate(-5.29 -11)"/><path class="cls-1" d="M64.91,43A42.45,42.45,0,0,1,38.39,82.36a8.83,8.83,0,0,1-6.59,0A42.44,42.44,0,0,1,5.29,43V17.41A2.48,2.48,0,0,1,7.05,15a98.68,98.68,0,0,1,22.61-3.87c1.8-.1,3.61-.15,5.44-.15a99,99,0,0,1,28,4,2.48,2.48,0,0,1,1.77,2.39Z" transform="translate(-5.29 -11)"/><path class="cls-2" d="M34.53,60.83a1,1,0,0,0-.88,1.42h0l.77,1.63a.12.12,0,0,0,.22,0l.77-1.63a1,1,0,0,0-.88-1.42Z" transform="translate(-5.29 -11)"/><path class="cls-2" d="M30.5,64.39a.93.93,0,0,0-.47-.84l-.1-.06a.19.19,0,0,0-.29.14c0,.3-.05.6-.05.9a7.63,7.63,0,0,0,1.8,4.89.16.16,0,0,0,.17,0,.14.14,0,0,0,.06-.19,9.84,9.84,0,0,1-1.12-4.55Z" transform="translate(-5.29 -11)"/><polygon class="cls-2" points="27.91 64.56 27.92 64.56 27.91 64.56 27.91 64.56"/><path class="cls-2" d="M35.22,74.17l.29-.49a.4.4,0,0,0-.15-.54L35.14,73a.13.13,0,0,0-.18,0,8.76,8.76,0,0,1-.67,1.29,1.22,1.22,0,0,1-1.06.58h-.35a.51.51,0,0,0-.47.32l0,.15a.12.12,0,0,0,.1.16h.21a.14.14,0,0,0,.12-.09h0a.44.44,0,0,1,.56-.25.07.07,0,0,1,0,.1l0,.07a.12.12,0,0,0,.11.17h.62a.12.12,0,0,0,.11-.08h0l.07-.18.08-.22a1,1,0,0,1,.44-.51A1.38,1.38,0,0,0,35.22,74.17Z" transform="translate(-5.29 -11)"/><polygon class="cls-2" points="30.35 64.56 30.35 64.56 30.35 64.56 30.35 64.56"/><path class="cls-2" d="M37.64,72.86a.12.12,0,0,0-.18,0,8.9,8.9,0,0,1-.74,1.44,1.21,1.21,0,0,1-1.06.58h-.35a.51.51,0,0,0-.47.32h0l-.05.15a.12.12,0,0,0,.11.16h.2a.13.13,0,0,0,.12-.09h0a.43.43,0,0,1,.55-.25.09.09,0,0,1,0,.1l0,.07a.13.13,0,0,0,.11.17h.73l.08,0h0l.19-.08.12-.07a.24.24,0,0,1,.28,0,.53.53,0,0,0,.22.12h0a.64.64,0,0,0,.24,0H38l0,0a.07.07,0,0,0,0-.05l-.09-.31a.33.33,0,0,0-.32-.25h-.26a.11.11,0,0,1-.1-.18l.15-.22a7.21,7.21,0,0,0,.46-.71l.16-.29a.38.38,0,0,0-.14-.52Z" transform="translate(-5.29 -11)"/><path class="cls-2" d="M38.23,58.89a.09.09,0,0,0,0,.06,2.12,2.12,0,0,1,.38.51.82.82,0,0,0,.53.41,2.66,2.66,0,0,1,1.06.54h.05a.07.07,0,0,0,.07-.07v0a3.18,3.18,0,0,0-.55-1.79.4.4,0,0,0-.28-.16h-.09a1.78,1.78,0,0,0-1.17.47A.05.05,0,0,0,38.23,58.89Z" transform="translate(-5.29 -11)"/><path class="cls-2" d="M38.91,60.43a.08.08,0,0,0-.07.07,1.74,1.74,0,0,1-.24.76.7.7,0,0,0-.05.58A2.8,2.8,0,0,1,38.73,63a.06.06,0,0,0,0,.06l0,0h0A3.25,3.25,0,0,0,40,61.76a.72.72,0,0,0,.06-.5.7.7,0,0,0-.26-.42,2.05,2.05,0,0,0-.88-.41Z" transform="translate(-5.29 -11)"/><path class="cls-2" d="M36,58.69h0a1.84,1.84,0,0,1,.94-.25,1.75,1.75,0,0,1,.4,0h.15a.68.68,0,0,0,.43-.15,2.48,2.48,0,0,1,1-.5.09.09,0,0,0,.06-.06.08.08,0,0,0,0-.07,3.39,3.39,0,0,0-.9-.43,1.5,1.5,0,0,0-.37,0l-.35,0a1.71,1.71,0,0,0-.84.44,2.35,2.35,0,0,0-.59.89,0,0,0,0,0,0,.06S36,58.69,36,58.69Z" transform="translate(-5.29 -11)"/><path class="cls-2" d="M33.58,58.07a3.91,3.91,0,0,1,.35,1A4.44,4.44,0,0,1,34,60.26s0,0,0,.05a.05.05,0,0,0,.05,0h0a1.5,1.5,0,0,1,.84,0h0a.05.05,0,0,0,.05,0s0,0,0-.05a4.44,4.44,0,0,1,.09-1.16,3.91,3.91,0,0,1,.35-1,3,3,0,0,1,.27-.42.07.07,0,0,0,0-.08.07.07,0,0,0-.06,0h0a3.13,3.13,0,0,0-.89.73.3.3,0,0,1-.46,0,3.13,3.13,0,0,0-.89-.73h0a.07.07,0,0,0-.06,0,.07.07,0,0,0,0,.08A3,3,0,0,1,33.58,58.07Z" transform="translate(-5.29 -11)"/><path class="cls-2" d="M31.13,58.33a.68.68,0,0,0,.43.15h.15a1.81,1.81,0,0,1,.4,0,1.84,1.84,0,0,1,.94.25h0s0,0,.06,0a.06.06,0,0,0,0-.06,2.49,2.49,0,0,0-.6-.89,1.71,1.71,0,0,0-.84-.44l-.35,0a1.5,1.5,0,0,0-.37,0,3.39,3.39,0,0,0-.9.43.08.08,0,0,0,0,.07.09.09,0,0,0,.06.06A2.48,2.48,0,0,1,31.13,58.33Z" transform="translate(-5.29 -11)"/><path class="cls-2" d="M30.42,59.46A2.12,2.12,0,0,1,30.8,59a.09.09,0,0,0,0-.06.05.05,0,0,0,0,0,1.78,1.78,0,0,0-1.17-.47h-.09a.4.4,0,0,0-.28.16,3.18,3.18,0,0,0-.55,1.79v0a.07.07,0,0,0,.07.07h0a2.66,2.66,0,0,1,1.06-.54A.82.82,0,0,0,30.42,59.46Z" transform="translate(-5.29 -11)"/><path class="cls-2" d="M30.26,63l.06,0a.06.06,0,0,0,0-.06,2.8,2.8,0,0,1,.18-1.12.7.7,0,0,0-.05-.58,2,2,0,0,1-.24-.76.07.07,0,0,0-.07-.07h0a2.2,2.2,0,0,0-.9.42.82.82,0,0,0-.25.42.69.69,0,0,0,.07.47A3.12,3.12,0,0,0,30.23,63Z" transform="translate(-5.29 -11)"/><path class="cls-2" d="M38.3,71.1h0a9.73,9.73,0,0,1-2.37-6.38c0-.19,0-.38,0-.56a.09.09,0,0,0,0,0h0a.18.18,0,0,1-.17-.17.44.44,0,0,1,.44-.43h1a2.49,2.49,0,0,0,.47,0,.55.55,0,0,0,.47-.5A2.1,2.1,0,0,0,38,62s0-.05-.07-.05h0a1.86,1.86,0,0,1-.92.24,1.84,1.84,0,0,1-.8-.18h0a.07.07,0,0,0-.07.06,1.44,1.44,0,0,1-.13.4l-.9,1.9a.53.53,0,0,1-1,0l-.9-1.9a1.44,1.44,0,0,1-.13-.4A.07.07,0,0,0,33,62h0a1.91,1.91,0,0,1-.81.18,1.86,1.86,0,0,1-.92-.24h0a.06.06,0,0,0-.06.05,2,2,0,0,0-.15.94.55.55,0,0,0,.47.5,2.56,2.56,0,0,0,.47,0h1a.44.44,0,0,1,.44.43.17.17,0,0,1-.16.17h-1.3a3.81,3.81,0,0,1-.59,0h0a.2.2,0,0,0-.2.18c0,.16,0,.32,0,.49a9.11,9.11,0,0,0,1.42,4.9,8.71,8.71,0,0,0,1.47,1.78,9.5,9.5,0,0,0,1.87,1.36h0s0,0,.07,0,0-.12.07-.19a1.13,1.13,0,0,0,.06-.63,1.22,1.22,0,0,0-.28-.57,9.48,9.48,0,0,1-1.15-1.52.17.17,0,0,1,0-.14.18.18,0,0,1,.08-.11.43.43,0,0,1,.22-.06.39.39,0,0,1,.35.2,9.35,9.35,0,0,0,1.53,1.79,7.19,7.19,0,0,0,.79.65c.23.17.47.32.72.47h0a.08.08,0,0,0,.07,0l.12-.33a1.12,1.12,0,0,0,0-.6,1.27,1.27,0,0,0-.26-.55Z" transform="translate(-5.29 -11)"/><path class="cls-2" d="M39.3,72.11a0,0,0,0,0,0,0,.08.08,0,0,0-.07,0,10.42,10.42,0,0,1-.54,1.34v.06l0,0a15.43,15.43,0,0,0,1.88.72h0a.14.14,0,0,0,.12-.07c.1-.14.19-.29.28-.44l.11-.19A.25.25,0,0,0,41,73.3,9.32,9.32,0,0,1,39.3,72.11Z" transform="translate(-5.29 -11)"/><path class="cls-2" d="M42.77,72.21a7.18,7.18,0,0,1-1.3-.65,8,8,0,0,1-3.4-4.29.15.15,0,0,1,0-.13.14.14,0,0,1,.09-.08.34.34,0,0,1,.14,0,.45.45,0,0,1,.42.29,7.23,7.23,0,0,0,1.33,2.25,7.53,7.53,0,0,0,1.72,1.47,7.17,7.17,0,0,0,1.51.71h0a.07.07,0,0,0,.06,0,.11.11,0,0,0,0-.06c0-.13,0-.26-.07-.4h0a1.5,1.5,0,0,0-.75-1.06,6.26,6.26,0,0,1-1.66-1.37,6.48,6.48,0,0,1-1.36-2.66.16.16,0,0,1,0-.13.18.18,0,0,1,.1-.07h.1a.44.44,0,0,1,.42.32,6,6,0,0,0,.47,1.15,5.36,5.36,0,0,0,.7,1,5.54,5.54,0,0,0,1.55,1.26h0l0,0a.07.07,0,0,0,0-.06,25.33,25.33,0,0,0-.85-3.29,6.65,6.65,0,0,0-.92-1.75,5.53,5.53,0,0,0-1.37-1.32.28.28,0,0,0-.18-.06.37.37,0,0,0-.2.07,3.87,3.87,0,0,1-1.09.6,3.76,3.76,0,0,1-1.24.21h-.45a.18.18,0,0,0-.19.18c0,.14,0,.29,0,.44A9,9,0,0,0,37.12,68,9.19,9.19,0,0,0,41,72.59a9.48,9.48,0,0,0,2.69,1.08h0a.09.09,0,0,0,.06,0,.06.06,0,0,0,0-.06c0-.1,0-.2-.07-.3A1.53,1.53,0,0,0,42.77,72.21Z" transform="translate(-5.29 -11)"/><path class="cls-2" d="M37,72.78l.09-.24a.08.08,0,0,0,0-.09l-.36-.28a.06.06,0,0,0-.11,0c0,.09-.06.19-.1.28a.08.08,0,0,0,0,.1l.38.23A.07.07,0,0,0,37,72.78Z" transform="translate(-5.29 -11)"/><path class="cls-2" d="M37,59a1.34,1.34,0,1,0,1.34,1.34A1.34,1.34,0,0,0,37,59Zm0,2.26a.92.92,0,0,1-.9-.9.93.93,0,0,1,.61-.88c.07,0,.12.06.08.11a.7.7,0,0,0,.5,1.16.73.73,0,0,0,.48-.16c.06,0,.14,0,.11.07A.91.91,0,0,1,36.93,61.24Z" transform="translate(-5.29 -11)"/><path class="cls-2" d="M32.11,59a1.34,1.34,0,1,0,1.34,1.34A1.34,1.34,0,0,0,32.11,59Zm0,2.26a.92.92,0,0,1-.29-1.78c.06,0,.12.06.07.11a.75.75,0,0,0-.17.49.7.7,0,0,0,.67.67.74.74,0,0,0,.49-.16.07.07,0,0,1,.11.07A.91.91,0,0,1,32.09,61.24Z" transform="translate(-5.29 -11)"/><path class="cls-2" d="M16,20.61a1,1,0,0,0-1,1,1.09,1.09,0,0,0,.1.44h0l.78,1.63a.12.12,0,0,0,.21,0L16.9,22a1,1,0,0,0,.1-.44A1,1,0,0,0,16,20.61Z" transform="translate(-5.29 -11)"/><path class="cls-2" d="M12,24.17a.92.92,0,0,0-.48-.84l-.09-.06a.19.19,0,0,0-.29.14c0,.3-.05.6-.05.9a7.46,7.46,0,0,0,1.14,4,7.55,7.55,0,0,0,.66.91.14.14,0,0,0,.17,0,.14.14,0,0,0,.06-.19A9.73,9.73,0,0,1,12,24.5C12,24.39,12,24.28,12,24.17Z" transform="translate(-5.29 -11)"/><polygon class="cls-2" points="9.4 24.34 9.41 24.34 9.4 24.34 9.4 24.34"/><path class="cls-2" d="M16.7,34c.11-.16.2-.33.29-.49a.4.4,0,0,0-.14-.54l-.23-.13a.12.12,0,0,0-.17.06,9.89,9.89,0,0,1-.67,1.29,1.26,1.26,0,0,1-1.06.58h-.36a.49.49,0,0,0-.46.31l-.06.15a.12.12,0,0,0,.11.16h.21a.14.14,0,0,0,.12-.09h0a.44.44,0,0,1,.56-.25.08.08,0,0,1,0,.1l0,.07a.13.13,0,0,0,.12.17h.62a.12.12,0,0,0,.11-.08h0l.07-.18.09-.22a1,1,0,0,1,.43-.51A1.1,1.1,0,0,0,16.7,34Z" transform="translate(-5.29 -11)"/><polygon class="cls-2" points="11.83 24.34 11.84 24.34 11.83 24.34 11.83 24.34"/><path class="cls-2" d="M19.12,32.64a.11.11,0,0,0-.17,0,9.79,9.79,0,0,1-.74,1.44,1.23,1.23,0,0,1-1.06.59H16.8a.5.5,0,0,0-.47.31h0l0,.15a.12.12,0,0,0,.1.16h.21a.14.14,0,0,0,.12-.09h0a.44.44,0,0,1,.56-.25.07.07,0,0,1,0,.1l0,.07a.12.12,0,0,0,.11.17h.73l.08,0h0l.19-.08.12-.07a.24.24,0,0,1,.28,0,.53.53,0,0,0,.22.12h0a.7.7,0,0,0,.25.05h.18a.05.05,0,0,0,0,0s0,0,0,0L19.41,35a.33.33,0,0,0-.32-.24h-.27a.12.12,0,0,1-.09-.19l.15-.21c.16-.23.31-.47.46-.72l.16-.29a.39.39,0,0,0-.15-.52Z" transform="translate(-5.29 -11)"/><path class="cls-2" d="M19.72,18.67a.14.14,0,0,0,0,.06,1.92,1.92,0,0,1,.39.51.8.8,0,0,0,.53.41,2.66,2.66,0,0,1,1.06.54h0a.07.07,0,0,0,.08-.07v0a3.11,3.11,0,0,0-.56-1.79.37.37,0,0,0-.27-.16h-.09a1.78,1.78,0,0,0-1.17.47A.05.05,0,0,0,19.72,18.67Z" transform="translate(-5.29 -11)"/><path class="cls-2" d="M20.4,20.21a.07.07,0,0,0-.07.07,2,2,0,0,1-.24.76.72.72,0,0,0-.05.59,2.55,2.55,0,0,1,.17,1.11.08.08,0,0,0,0,.06l.06,0h0a3.27,3.27,0,0,0,1.18-1.27.78.78,0,0,0,.06-.5.75.75,0,0,0-.26-.42,2.22,2.22,0,0,0-.89-.41Z" transform="translate(-5.29 -11)"/><path class="cls-2" d="M17.46,18.47h0a1.81,1.81,0,0,1,.94-.25,1.67,1.67,0,0,1,.39,0l.15,0a.72.72,0,0,0,.44-.16,2.48,2.48,0,0,1,1-.5.09.09,0,0,0,.06-.06.07.07,0,0,0,0-.07,3.25,3.25,0,0,0-.9-.43,1.37,1.37,0,0,0-.36,0l-.35,0a1.74,1.74,0,0,0-.85.44,2.61,2.61,0,0,0-.59.89.08.08,0,0,0,0,.07A.07.07,0,0,0,17.46,18.47Z" transform="translate(-5.29 -11)"/><path class="cls-2" d="M15.07,17.85a3.91,3.91,0,0,1,.35,1A4.92,4.92,0,0,1,15.51,20a0,0,0,0,0,0,.05.05.05,0,0,0,.05,0h0a1.79,1.79,0,0,1,.84,0h0a.05.05,0,0,0,.05,0,.08.08,0,0,0,0-.05,4.92,4.92,0,0,1,.08-1.16,4.33,4.33,0,0,1,.36-1,4.28,4.28,0,0,1,.26-.42.06.06,0,0,0,0-.08.08.08,0,0,0-.06,0h0a3.13,3.13,0,0,0-.89.73.3.3,0,0,1-.46,0,3,3,0,0,0-.9-.73h0a.1.1,0,0,0-.07,0,.12.12,0,0,0,0,.08A3,3,0,0,1,15.07,17.85Z" transform="translate(-5.29 -11)"/><path class="cls-2" d="M12.62,18.11a.67.67,0,0,0,.43.16l.15,0a1.75,1.75,0,0,1,.4,0,1.84,1.84,0,0,1,.94.25h0a.09.09,0,0,0,.07,0s0,0,0-.07a2.47,2.47,0,0,0-.59-.89,1.71,1.71,0,0,0-.84-.44l-.35,0a1.5,1.5,0,0,0-.37,0,3.39,3.39,0,0,0-.9.43.06.06,0,0,0,0,.07.09.09,0,0,0,.06.06A2.48,2.48,0,0,1,12.62,18.11Z" transform="translate(-5.29 -11)"/><path class="cls-2" d="M11.91,19.24a2.12,2.12,0,0,1,.38-.51.09.09,0,0,0,0-.06s0,0,0-.05a1.8,1.8,0,0,0-1.17-.47H11a.4.4,0,0,0-.28.16,3.18,3.18,0,0,0-.55,1.79v0a.06.06,0,0,0,.07.07h.05a2.66,2.66,0,0,1,1.06-.54A.85.85,0,0,0,11.91,19.24Z" transform="translate(-5.29 -11)"/><path class="cls-2" d="M11.75,22.82l.05,0a.08.08,0,0,0,0-.06A2.43,2.43,0,0,1,12,21.63.72.72,0,0,0,12,21a1.74,1.74,0,0,1-.24-.76.08.08,0,0,0-.07-.07h0a2.14,2.14,0,0,0-.9.42.76.76,0,0,0-.25.42.8.8,0,0,0,.06.48,3.23,3.23,0,0,0,1.18,1.28Z" transform="translate(-5.29 -11)"/><path class="cls-2" d="M19.79,30.88h0a9.73,9.73,0,0,1-2.37-6.38c0-.19,0-.38,0-.56a.05.05,0,0,0,0,0s0,0,0,0a.17.17,0,0,1-.16-.17.44.44,0,0,1,.44-.43h1a2.56,2.56,0,0,0,.47,0,.54.54,0,0,0,.47-.5,2,2,0,0,0-.15-.94.07.07,0,0,0-.06-.05h0a1.86,1.86,0,0,1-.92.24,1.91,1.91,0,0,1-.81-.18h0a.07.07,0,0,0-.07.06,1.44,1.44,0,0,1-.13.4l-.91,1.9a.5.5,0,0,1-.47.3.52.52,0,0,1-.48-.3l-.9-1.9a1.47,1.47,0,0,1-.14-.4.07.07,0,0,0-.07-.06h0a1.84,1.84,0,0,1-.8.18,1.87,1.87,0,0,1-.93-.24h0a.08.08,0,0,0-.07.05,2,2,0,0,0-.15.94.56.56,0,0,0,.48.5,2.42,2.42,0,0,0,.47,0h1a.44.44,0,0,1,.44.43.18.18,0,0,1-.17.17H13.37a4,4,0,0,1-.6-.05h0a.19.19,0,0,0-.19.18c0,.16,0,.32,0,.49a9.24,9.24,0,0,0,2.89,6.69,9.28,9.28,0,0,0,1.87,1.35h0a.08.08,0,0,0,.07,0,1.67,1.67,0,0,0,.08-.2,1.13,1.13,0,0,0,.06-.63,1.15,1.15,0,0,0-.28-.56,9.56,9.56,0,0,1-1.15-1.53.17.17,0,0,1,0-.14.31.31,0,0,1,.09-.11.39.39,0,0,1,.21-.06.41.41,0,0,1,.36.2,9,9,0,0,0,1.53,1.79,7.19,7.19,0,0,0,.79.65,5.94,5.94,0,0,0,.72.47h0s.06,0,.07,0S20,32.14,20,32a1.22,1.22,0,0,0,0-.6,1.27,1.27,0,0,0-.26-.55Z" transform="translate(-5.29 -11)"/><path class="cls-2" d="M20.79,31.89a.06.06,0,0,0-.05,0,.09.09,0,0,0-.07.05,9.11,9.11,0,0,1-.53,1.34.06.06,0,0,0,0,.06l0,0a14.27,14.27,0,0,0,1.88.72h0a.15.15,0,0,0,.12-.07c.1-.14.19-.29.28-.44l.1-.19a.23.23,0,0,0-.09-.31A9.59,9.59,0,0,1,20.79,31.89Z" transform="translate(-5.29 -11)"/><path class="cls-2" d="M24.26,32a7.18,7.18,0,0,1-1.3-.65,8,8,0,0,1-3.41-4.29.2.2,0,0,1,0-.13.16.16,0,0,1,.1-.08.32.32,0,0,1,.14,0,.43.43,0,0,1,.41.29,7.46,7.46,0,0,0,1.34,2.25,7.13,7.13,0,0,0,1.72,1.47,7.21,7.21,0,0,0,1.51.72h0a.09.09,0,0,0,.06,0,.06.06,0,0,0,0-.06l-.06-.4h0A1.48,1.48,0,0,0,24.06,30a6.34,6.34,0,0,1-3-4,.2.2,0,0,1,0-.13.21.21,0,0,1,.11-.07h.09a.44.44,0,0,1,.43.33,5.6,5.6,0,0,0,.47,1.14,5.82,5.82,0,0,0,.69,1,6,6,0,0,0,1.56,1.27h0a.07.07,0,0,0,.06,0,.14.14,0,0,0,0-.06,24.16,24.16,0,0,0-.86-3.29,6.11,6.11,0,0,0-.92-1.75,5.67,5.67,0,0,0-1.36-1.32A.28.28,0,0,0,21.2,23a.35.35,0,0,0-.2.07,3.79,3.79,0,0,1-1.1.6,3.65,3.65,0,0,1-1.23.21h-.45a.2.2,0,0,0-.2.18c0,.15,0,.29,0,.44a9,9,0,0,0,.6,3.25,8.89,8.89,0,0,0,1.63,2.74,9.36,9.36,0,0,0,2.23,1.88,9.09,9.09,0,0,0,2.69,1.08h0l.06,0s0,0,0-.06-.05-.2-.07-.3A1.53,1.53,0,0,0,24.26,32Z" transform="translate(-5.29 -11)"/><path class="cls-2" d="M18.47,32.56l.09-.23s0-.07,0-.1a3.44,3.44,0,0,1-.36-.28.06.06,0,0,0-.11,0l-.1.28a.09.09,0,0,0,0,.1l.38.23A.06.06,0,0,0,18.47,32.56Z" transform="translate(-5.29 -11)"/><path class="cls-2" d="M18.44,18.76a1.35,1.35,0,1,0,1.34,1.34A1.34,1.34,0,0,0,18.44,18.76Zm0,2.26a.92.92,0,0,1-.29-1.78.07.07,0,0,1,.07.11.75.75,0,0,0-.17.49.7.7,0,0,0,.67.67.69.69,0,0,0,.49-.16c0-.05.14,0,.11.07A.91.91,0,0,1,18.42,21Z" transform="translate(-5.29 -11)"/><path class="cls-2" d="M13.6,18.76a1.35,1.35,0,1,0,1.34,1.34A1.35,1.35,0,0,0,13.6,18.76Zm0,2.26a.92.92,0,0,1-.89-.9.91.91,0,0,1,.6-.88c.07,0,.13.06.08.11a.7.7,0,0,0,.5,1.16.65.65,0,0,0,.48-.16.07.07,0,0,1,.12.07A.92.92,0,0,1,13.57,21Z" transform="translate(-5.29 -11)"/><path class="cls-2" d="M50.82,20.61a1,1,0,0,0-1,1,1,1,0,0,0,.1.44h0l.77,1.63a.12.12,0,0,0,.22,0L51.71,22a1.09,1.09,0,0,0,.1-.44A1,1,0,0,0,50.82,20.61Z" transform="translate(-5.29 -11)"/><path class="cls-2" d="M46.79,24.17a.91.91,0,0,0-.47-.84l-.1-.06a.18.18,0,0,0-.28.14,6.8,6.8,0,0,0-.06.9,7.55,7.55,0,0,0,1.14,4,6.67,6.67,0,0,0,.67.91.13.13,0,0,0,.16,0,.15.15,0,0,0,.07-.19,9.73,9.73,0,0,1-1.13-4.55Z" transform="translate(-5.29 -11)"/><polygon class="cls-2" points="44.2 24.34 44.21 24.34 44.2 24.34 44.2 24.34"/><path class="cls-2" d="M51.51,34l.29-.49a.4.4,0,0,0-.15-.54l-.22-.13a.11.11,0,0,0-.17.06,11.37,11.37,0,0,1-.68,1.29,1.25,1.25,0,0,1-1.06.58h-.35a.5.5,0,0,0-.47.31l-.05.15a.12.12,0,0,0,.1.16H49a.14.14,0,0,0,.12-.09h0a.44.44,0,0,1,.56-.25.08.08,0,0,1,0,.1l0,.07a.12.12,0,0,0,.11.17h.62a.11.11,0,0,0,.11-.08h0l.07-.18.08-.22a1,1,0,0,1,.44-.51A1.27,1.27,0,0,0,51.51,34Z" transform="translate(-5.29 -11)"/><polygon class="cls-2" points="46.64 24.34 46.64 24.34 46.64 24.34 46.64 24.34"/><path class="cls-2" d="M53.93,32.64a.12.12,0,0,0-.18,0A8.9,8.9,0,0,1,53,34.13a1.22,1.22,0,0,1-1.06.59H51.6a.5.5,0,0,0-.47.31h0l-.05.15a.12.12,0,0,0,.11.16h.2a.13.13,0,0,0,.12-.09h0a.43.43,0,0,1,.55-.25.09.09,0,0,1,0,.1l0,.07a.13.13,0,0,0,.11.17h.74l.07,0h0l.19-.08.12-.07a.24.24,0,0,1,.28,0,.53.53,0,0,0,.22.12h0a.64.64,0,0,0,.24.05h.18a.05.05,0,0,0,0,0,.06.06,0,0,0,0,0L54.22,35a.35.35,0,0,0-.33-.24h-.26a.12.12,0,0,1-.1-.19l.15-.21c.16-.23.32-.47.46-.72l.16-.29a.39.39,0,0,0-.14-.52Z" transform="translate(-5.29 -11)"/><path class="cls-2" d="M54.52,18.67a.09.09,0,0,0,0,.06,2.12,2.12,0,0,1,.38.51.82.82,0,0,0,.53.41,2.66,2.66,0,0,1,1.06.54h0a.07.07,0,0,0,.07-.07v0a3.18,3.18,0,0,0-.55-1.79.4.4,0,0,0-.28-.16h-.09a1.8,1.8,0,0,0-1.17.47A.05.05,0,0,0,54.52,18.67Z" transform="translate(-5.29 -11)"/><path class="cls-2" d="M55.2,20.21a.08.08,0,0,0-.07.07,1.74,1.74,0,0,1-.24.76.72.72,0,0,0,0,.59A2.57,2.57,0,0,1,55,22.74a.08.08,0,0,0,0,.06l.05,0h0a3.25,3.25,0,0,0,1.17-1.27.72.72,0,0,0,.06-.5.7.7,0,0,0-.26-.42,2.17,2.17,0,0,0-.88-.41Z" transform="translate(-5.29 -11)"/><path class="cls-2" d="M52.26,18.47h0a1.84,1.84,0,0,1,.94-.25,1.75,1.75,0,0,1,.4,0l.15,0a.69.69,0,0,0,.43-.16,2.48,2.48,0,0,1,1-.5.09.09,0,0,0,.06-.06.08.08,0,0,0,0-.07,3.39,3.39,0,0,0-.9-.43A1.5,1.5,0,0,0,54,17l-.35,0a1.71,1.71,0,0,0-.84.44,2.35,2.35,0,0,0-.59.89.06.06,0,0,0,0,.07A.09.09,0,0,0,52.26,18.47Z" transform="translate(-5.29 -11)"/><path class="cls-2" d="M49.87,17.85a3.91,3.91,0,0,1,.35,1A4.44,4.44,0,0,1,50.31,20s0,0,0,.05a.05.05,0,0,0,.05,0h0a1.79,1.79,0,0,1,.84,0h0a.05.05,0,0,0,.05,0s0,0,0-.05a4.44,4.44,0,0,1,.09-1.16,3.91,3.91,0,0,1,.35-1,3,3,0,0,1,.27-.42.12.12,0,0,0,0-.08.1.1,0,0,0-.07,0h0a3.13,3.13,0,0,0-.89.73.3.3,0,0,1-.46,0,3.13,3.13,0,0,0-.89-.73h0a.07.07,0,0,0-.06,0,.08.08,0,0,0,0,.08A3,3,0,0,1,49.87,17.85Z" transform="translate(-5.29 -11)"/><path class="cls-2" d="M47.42,18.11a.7.7,0,0,0,.44.16l.14,0a1.81,1.81,0,0,1,.4,0,1.84,1.84,0,0,1,.94.25h0a.07.07,0,0,0,.06,0,.08.08,0,0,0,0-.07,2.49,2.49,0,0,0-.6-.89A1.71,1.71,0,0,0,48,17l-.35,0a1.5,1.5,0,0,0-.37,0,3.39,3.39,0,0,0-.9.43.08.08,0,0,0,0,.07.09.09,0,0,0,.06.06A2.48,2.48,0,0,1,47.42,18.11Z" transform="translate(-5.29 -11)"/><path class="cls-2" d="M46.71,19.24a2.12,2.12,0,0,1,.38-.51.09.09,0,0,0,0-.06.05.05,0,0,0,0-.05,1.78,1.78,0,0,0-1.17-.47h-.09a.37.37,0,0,0-.27.16A3.11,3.11,0,0,0,45,20.1v0a.07.07,0,0,0,.07.07h0a2.66,2.66,0,0,1,1.06-.54A.82.82,0,0,0,46.71,19.24Z" transform="translate(-5.29 -11)"/><path class="cls-2" d="M46.55,22.82l.06,0a.06.06,0,0,0,0-.06,2.72,2.72,0,0,1,.18-1.11.72.72,0,0,0,0-.59,2,2,0,0,1-.24-.76.07.07,0,0,0-.07-.07h0a2.2,2.2,0,0,0-.9.42.82.82,0,0,0-.25.42.73.73,0,0,0,.07.48,3.1,3.1,0,0,0,1.18,1.28Z" transform="translate(-5.29 -11)"/><path class="cls-2" d="M54.59,30.88h0a9.73,9.73,0,0,1-2.37-6.38c0-.19,0-.38,0-.56,0,0,0,0,0,0a0,0,0,0,0,0,0,.18.18,0,0,1-.17-.17.44.44,0,0,1,.44-.43h1a2.49,2.49,0,0,0,.47,0,.54.54,0,0,0,.47-.5,1.85,1.85,0,0,0-.14-.94s0-.05-.07-.05h0a1.88,1.88,0,0,1-1.72.06h0a.07.07,0,0,0-.07.06,1.44,1.44,0,0,1-.13.4l-.9,1.9a.52.52,0,0,1-.48.3.53.53,0,0,1-.48-.3l-.9-1.9a1.44,1.44,0,0,1-.13-.4.07.07,0,0,0-.07-.06h0a1.91,1.91,0,0,1-.81.18,1.86,1.86,0,0,1-.92-.24h0a.06.06,0,0,0-.06.05,2,2,0,0,0-.15.94.54.54,0,0,0,.47.5,2.56,2.56,0,0,0,.47,0h1a.44.44,0,0,1,.44.43.17.17,0,0,1-.16.17h-1.3a3.81,3.81,0,0,1-.59-.05h0a.18.18,0,0,0-.19.18c0,.16,0,.32,0,.49a9.11,9.11,0,0,0,1.42,4.9,9.41,9.41,0,0,0,1.47,1.79,9.88,9.88,0,0,0,1.87,1.35h0a.1.1,0,0,0,.07,0c0-.07,0-.13.07-.2a1.13,1.13,0,0,0,.06-.63,1.07,1.07,0,0,0-.28-.56,9.56,9.56,0,0,1-1.15-1.53.17.17,0,0,1,0-.14.21.21,0,0,1,.08-.11.43.43,0,0,1,.22-.06.42.42,0,0,1,.36.2,9,9,0,0,0,1.52,1.79,8.27,8.27,0,0,0,.79.65,6.84,6.84,0,0,0,.72.47h0a.07.07,0,0,0,.07,0l.12-.33a1.11,1.11,0,0,0,0-.6,1.17,1.17,0,0,0-.26-.55Z" transform="translate(-5.29 -11)"/><path class="cls-2" d="M55.59,31.89a0,0,0,0,0,0,0,.08.08,0,0,0-.07.05,10.42,10.42,0,0,1-.54,1.34v.06l0,0a15.43,15.43,0,0,0,1.88.72h0A.17.17,0,0,0,57,34l.27-.44.11-.19a.24.24,0,0,0-.09-.31A9.32,9.32,0,0,1,55.59,31.89Z" transform="translate(-5.29 -11)"/><path class="cls-2" d="M60,33.06A1.5,1.5,0,0,0,59.06,32a7.18,7.18,0,0,1-1.3-.65,8.13,8.13,0,0,1-1.87-1.59,7.94,7.94,0,0,1-1.53-2.7.15.15,0,0,1,0-.13.14.14,0,0,1,.09-.08.34.34,0,0,1,.14,0,.45.45,0,0,1,.42.29,7.23,7.23,0,0,0,1.33,2.25,7.38,7.38,0,0,0,1.73,1.47,6.9,6.9,0,0,0,1.5.72h0a.07.07,0,0,0,.06,0,.11.11,0,0,0,0-.06c0-.13,0-.26-.07-.4h0A1.52,1.52,0,0,0,58.86,30a6.43,6.43,0,0,1-1.66-1.37A6.35,6.35,0,0,1,55.85,26a.13.13,0,0,1,0-.13.18.18,0,0,1,.1-.07h.1a.44.44,0,0,1,.42.33A6.23,6.23,0,0,0,57,27.22a5.87,5.87,0,0,0,.7,1,5.76,5.76,0,0,0,1.55,1.27h0a.05.05,0,0,0,0,0,.07.07,0,0,0,0-.06,25.76,25.76,0,0,0-.85-3.29,6.65,6.65,0,0,0-.92-1.75,5.67,5.67,0,0,0-1.36-1.32A.33.33,0,0,0,56,23a.37.37,0,0,0-.2.07,3.87,3.87,0,0,1-1.09.6,3.76,3.76,0,0,1-1.24.21H53a.19.19,0,0,0-.19.18c0,.15,0,.29,0,.44a9.14,9.14,0,0,0,2.22,6,9.36,9.36,0,0,0,2.23,1.88A9.15,9.15,0,0,0,60,33.45h0a.07.07,0,0,0,.06,0,.06.06,0,0,0,0-.06C60,33.26,60,33.16,60,33.06Z" transform="translate(-5.29 -11)"/><path class="cls-2" d="M53.28,32.56l.09-.23a.1.1,0,0,0,0-.1L53,32a.06.06,0,0,0-.11,0c0,.09-.06.19-.1.28a.08.08,0,0,0,0,.1l.38.23A.07.07,0,0,0,53.28,32.56Z" transform="translate(-5.29 -11)"/><path class="cls-2" d="M53.24,18.76a1.35,1.35,0,1,0,1.34,1.34A1.34,1.34,0,0,0,53.24,18.76Zm0,2.26a.92.92,0,0,1-.9-.9.93.93,0,0,1,.61-.88c.07,0,.13.06.08.11a.7.7,0,0,0,.5,1.16.68.68,0,0,0,.48-.16c.06-.05.14,0,.11.07A.91.91,0,0,1,53.22,21Z" transform="translate(-5.29 -11)"/><path class="cls-2" d="M48.4,18.76a1.35,1.35,0,1,0,1.34,1.34A1.34,1.34,0,0,0,48.4,18.76Zm0,2.26a.92.92,0,0,1-.29-1.78.07.07,0,0,1,.07.11.75.75,0,0,0-.17.49.7.7,0,0,0,.67.67.69.69,0,0,0,.49-.16c.05-.05.14,0,.11.07A.91.91,0,0,1,48.38,21Z" transform="translate(-5.29 -11)"/><path class="cls-2" d="M35.1,39,11.76,62.35A41,41,0,0,0,14,66.09c.27.39.54.78.82,1.16L35.1,47,55.33,67.25c.28-.38.56-.77.83-1.16a41,41,0,0,0,2.28-3.74Z" transform="translate(-5.29 -11)"/><path class="cls-2" d="M35.1,27,8.33,53.78a39.73,39.73,0,0,0,2.11,5.89L35.1,35,59.76,59.67a40.9,40.9,0,0,0,2.11-5.89Z" transform="translate(-5.29 -11)"/></svg>