<?xml version="1.0" encoding="utf-8"?>
<!-- Generator: Adobe Illustrator 19.2.1, SVG Export Plug-In . SVG Version: 6.00 Build 0)  -->
<svg version="1.1" id="Layer_1" xmlns="http://www.w3.org/2000/svg" xmlns:xlink="http://www.w3.org/1999/xlink" x="0px" y="0px"
	 viewBox="0 0 516.5 134.9" style="enable-background:new 0 0 516.5 134.9;" xml:space="preserve">
<style type="text/css">
	.st0{fill:#FFFFFF;}
</style>
<g id="uTodc4.tif">
	<g>
		<path class="st0" d="M166.3,40c0-5.9,0-11.4,0-16.9c0-1.3-0.2-2.6-0.4-3.9c-0.5-3.2-2.7-4.7-5.6-5.2c-0.9-0.2-1.8-0.3-2.7-0.4
			c-0.6-0.1-1-0.2-1-1c0-0.8,0.5-0.8,1-0.8c8.6,0,17.2,0,25.7,0c0.5,0,1.1-0.1,1.1,0.8c0,0.8-0.5,1-1.1,1.1
			c-1.1,0.2-2.1,0.4-3.2,0.6c-2.9,0.6-4.4,2.6-4.8,5.4c-0.2,1.4-0.3,2.8-0.3,4.2c0,10-0.1,20,0,30c0,3.5,0.5,7,1.5,10.4
			c2.2,7.6,7,12.3,15,13.4c8,1.1,14.9-1.3,19.5-8.3c2.2-3.4,3.2-7.3,3.7-11.3c1.5-10.7,1-21.4,0.4-32.2c-0.1-1.8-0.3-3.7-0.6-5.5
			c-0.4-2.8-2-4.6-4.6-5.6c-1.6-0.6-3.3-1-5-1.2c-0.6-0.1-1.2-0.1-1.2-1c0-1,0.7-0.8,1.3-0.8c7.8,0,15.6,0,23.5,0
			c0.6,0,1.2-0.2,1.2,0.8c0,0.9-0.5,0.9-1.1,1c-1.4,0.2-2.7,0.5-3.9,1c-2.5,1-3.9,2.9-4.5,5.5c-1.1,5.6-1.4,11.2-1.5,16.8
			c-0.2,6.2,0.2,12.4-0.4,18.6c-0.5,5.2-1.6,10.2-4.2,14.7c-4.3,7.6-11.2,11.3-19.5,12.4c-4.1,0.5-8.2,0.1-12.2-1.1
			c-9.5-2.8-14.1-9.6-15.5-19.1C165.8,54.9,166.5,47.2,166.3,40z"/>
		<path class="st0" d="M264.4,82.8c-8.7,0-16.7-1.6-23.7-6.5c-9.1-6.3-13.7-15.2-14.4-26.1c-0.8-10.8,2.2-20.4,9.8-28.3
			c5.7-6,12.9-9.4,21-10.9c9.4-1.8,18.6-0.6,27.7,1.7c0.8,0.2,1,0.6,1.1,1.3c0.5,4.6,1.1,9.2,1.6,13.7c0.1,0.5,0.6,1.3-0.6,1.5
			c-1,0.2-1.2-0.4-1.5-1.1c-1.7-4.6-4-8.8-8.1-11.8c-4.8-3.5-10.4-4.2-16.1-3.7c-11.6,1.1-18.9,7.7-22.3,18.5
			c-3.9,12.1-3.1,24,2.8,35.3c7.2,13.9,21.8,16.2,32,11.9c4.1-1.7,7.1-4.9,9.7-8.4c1.6-2.2,3.1-4.6,4.4-7c0.4-0.7,0.8-0.8,1.5-0.6
			c1.1,0.3,0.4,0.9,0.3,1.4c-1.4,4.8-2.8,9.7-4.4,14.4c-0.4,1.1-0.9,1.7-2.2,2C276.7,81.6,270.5,82.8,264.4,82.8z"/>
		<path class="st0" d="M382.9,72.3c2.4-6.6,4.9-13,7.3-19.6c1.6-4.4,3.3-8.7,4.4-13.2c0.1-0.6,0.3-1.2,0.3-1.8
			c0.2-2.2-0.4-3-2.6-3.5c-0.7-0.2-1.4-0.3-2.1-0.4c-0.5-0.1-0.7-0.2-0.6-0.7c0-0.5,0.4-0.6,0.8-0.5c0.2,0,0.4,0,0.6,0
			c10.3,0,20.6,0,30.9,0c0.3,0,0.6,0,1,0c0.4,0,0.6,0.3,0.6,0.6c0,0.3-0.1,0.5-0.4,0.6c-0.6,0.1-1.2,0.2-1.8,0.3
			c-2.9,0.5-4.1,1.9-4.3,4.8c-0.3,4.1-0.2,8.1-0.2,12.2c0,7.4-0.2,14.8,0.1,22.1c0.2,4.5,0.9,5.3,5.4,6.3c0.5,0.1,1.4-0.1,1.2,0.9
			c-0.1,0.8-0.9,0.5-1.3,0.5c-5.6,0-11.2,0-16.8,0c-0.5,0-1.2,0.3-1.3-0.6c-0.1-0.9,0.7-0.7,1.1-0.8c0.7-0.2,1.4-0.3,2.1-0.4
			c1.9-0.5,2.9-1.8,3.2-3.7c0.2-1.1,0.3-2.3,0.3-3.4c0-10.2,0-20.4,0-30.6c0-1.1-0.1-2.3-0.3-3.4c-0.4-2.9-3.6-4.6-6.7-3.8
			c-2.2,0.6-3.6,2.1-4.6,4c-2.2,3.9-3.9,8-5.5,12.1c-4,10.1-7.9,20.1-11.8,30.2c-0.2,0.6-0.2,1.5-1.2,1.5c-1,0-0.9-0.9-1.1-1.5
			c-5.1-13.4-10.4-26.7-15.8-40c-0.3-0.7-0.6-1.4-0.9-2.1c-1-2.4-2.7-4-5.4-4.4c-0.4-0.1-1.2,0.1-1.2-0.8c0.1-0.9,0.8-0.6,1.2-0.6
			c5.1,0,10.2,0,15.3,0c0.5,0,1.2-0.3,1.3,0.5c0.1,0.9-0.7,0.7-1.1,0.9c-4.6,1.2-4.7,1.3-3,5.8c4.1,10.4,8.2,20.7,12.3,31.1
			C382.2,71.4,382.3,71.9,382.9,72.3z"/>
		<path class="st0" d="M305.1,11.7c4.2,0,8.5,0,12.7,0c0.5,0,1.2-0.4,1.3,0.7c0.1,0.9-0.4,1.1-1.2,1.1c-0.4,0-0.9,0.1-1.3,0.2
			c-5.4,1.1-6.9,2.7-7,8.2c-0.3,15.3-0.1,30.5-0.1,45.8c0,1.9,0,3.8,0.3,5.7c0.4,2.8,1.9,4.7,4.7,5.3c1.2,0.3,2.3,0.5,3.5,0.7
			c0.7,0.1,0.9,0.3,0.9,1c0,0.8-0.4,0.9-1,0.9c-8.6,0-17.3,0-25.9,0c-0.6,0-0.9-0.1-0.9-0.8c0-0.6,0.1-1,0.8-1.1
			c1.1-0.1,2.2-0.3,3.3-0.6c3.3-0.8,4.6-2.4,5-5.8c0.3-2.3,0.3-4.5,0.3-6.8c0-14.1,0-28.1,0-42.2c0-1.5-0.1-3-0.4-4.5
			c-0.5-3.3-2.2-4.9-5.7-5.6c-0.8-0.2-1.7-0.3-2.6-0.4c-0.7-0.1-0.9-0.3-0.9-1c0-0.8,0.5-0.8,1.1-0.8
			C296.7,11.7,300.9,11.7,305.1,11.7z"/>
		<path class="st0" d="M333.1,32.6c3.8,0.2,8.5-0.3,13,0.5c5,0.9,8.9,3.3,10.1,8.6c1.3,5.6-0.6,10.1-5.1,13.6
			c-1.1,0.9-2.3,1.6-3.6,2.1c-0.7,0.3-0.7,0.6-0.4,1.2c4,6.8,8.3,13.5,13.7,19.4c1,1.1,2.2,1.9,3.7,2.3c0.4,0.1,0.9,0.1,0.7,0.8
			c-0.2,0.6-0.6,0.4-0.9,0.4c-6.1,0.1-11.2-1.7-14.6-7.3c-2.2-3.7-4.5-7.4-6.7-11.1c-1.9-3.2-4.8-4.5-8.4-3.6
			c-0.6,0.2-0.6,0.5-0.6,0.9c0.1,4.9-0.2,9.8,0.2,14.6c0.2,2.5,1.4,3.7,4.1,4.3c0.4,0.1,0.9,0.1,1.3,0.2c0.4,0.1,1.2-0.1,1.1,0.8
			c-0.1,0.9-0.8,0.5-1.3,0.5c-5.6,0-11.3,0-16.9,0c-0.5,0-1.2,0.3-1.3-0.6c-0.1-0.9,0.7-0.7,1.1-0.8c4.2-0.6,5.6-1.5,5.7-6.9
			c0.1-10.6,0-21.3,0-31.9c0-0.7,0-1.4-0.2-2.1c-0.5-3.2-1.3-4-4.5-4.6c-0.6-0.1-1.8,0.2-1.8-0.9c0.1-1.1,1.2-0.5,1.9-0.6
			C326.4,32.6,329.3,32.6,333.1,32.6z M333.9,46.4c0,3.3,0.1,6.6,0,9.9c0,1.3,0.4,1.7,1.7,1.6c1.8-0.1,3.6-0.1,5.4-0.3
			c3.8-0.3,6.4-2.3,8-5.8c0.7-1.6,1-3.2,1.1-4.9c0.3-5.9-1.9-10.9-8.3-12.4c-1.9-0.4-3.9-0.4-5.8-0.3c-1.6,0.1-2,0.8-2,2.3
			C333.9,39.8,333.9,43.1,333.9,46.4z"/>
		<path class="st0" d="M435,41.6c-0.4,0.3-0.3,0.7-0.3,1c0,8.4,0,16.7,0.1,25.1c0,2.3,0.3,4.6,0.7,7c0.4,2.8,2,4.1,5.4,4.8
			c0.7,0.2,2.1-0.3,2,0.9c-0.1,1.3-1.4,0.6-2.1,0.6c-4.8,0.1-9.6,0.1-14.3,0c-0.5,0-1.3,0.4-1.4-0.6c-0.1-1,0.8-0.8,1.3-0.9
			c4-0.9,5.1-2.2,5.5-6.3c1.2-10.8,0.5-21.7,0.6-32.5c0-3.3-2.2-5.5-6.2-6.6c-0.7-0.2-1.9,0-1.8-0.9c0.1-1.2,1.3-0.6,2-0.6
			c2.4-0.1,4.9,0,7.3-0.1c1.1,0,1.8,0.3,2.5,1.1c9.8,11.8,19.6,23.5,29.3,35.3c0.3,0.4,0.7,0.8,1.1,1.2c0.5-0.3,0.3-0.8,0.3-1.2
			c0-8.2,0.2-16.4-0.3-24.6c-0.1-2.1-0.4-4.1-0.7-6.1c-0.4-2.7-2.5-3.6-4.8-4.2c-0.6-0.2-1.3-0.3-1.9-0.4c-0.4-0.1-0.7-0.2-0.7-0.7
			c0-0.6,0.4-0.6,0.8-0.6c1,0,2.1,0,3.1,0c4.3,0,8.6,0,12.9,0c0.4,0,1-0.3,1.2,0.5c0.2,0.9-0.6,0.7-1,0.9c-4.4,1.1-5.2,2.1-5.8,6.6
			c-0.4,3.4-0.6,6.9-0.6,10.4c-0.1,9.6,0,19.2,0,28.8c0,0.5,0.4,1.3-0.3,1.6c-0.8,0.3-1.3-0.3-1.7-0.9
			c-10.2-12.5-20.5-24.9-30.7-37.3C435.9,42.6,435.5,42.1,435,41.6z"/>
		<path class="st0" d="M337.2,95.3c-58.9,0-117.9,0-176.8,0c-0.5,0-1,0-1.5,0c-0.6,0-0.7-0.3-0.7-0.8c0-0.5,0.1-0.8,0.7-0.8
			c0.4,0,0.8,0,1.1,0c46.6,0,93.1,0,139.7,0c71.6,0,143.2,0.1,214.8,0.1c0.7,0,2-0.7,2,0.7c0,1.5-1.3,0.8-2,0.8
			C455.4,95.3,396.3,95.3,337.2,95.3z"/>
		<path class="st0" d="M494.1,81c-5.4,0-10.8,0-16.1,0c-0.5,0-1.2,0.3-1.3-0.5c-0.1-1,0.7-0.7,1.2-0.9c0.4-0.1,0.9-0.1,1.3-0.2
			c3.3-0.7,4.4-1.9,4.5-5.3c0.4-11.6,0.4-23.2,0-34.8c-0.1-3.4-1.2-4.5-4.6-5.2c-0.3-0.1-0.6-0.2-1-0.2c-0.4,0-0.7-0.1-0.7-0.7
			c0-0.5,0.3-0.6,0.8-0.6c0.2,0,0.4,0,0.7,0c9.8,0,19.6,0,29.3,0c1.3,0,1.6,0.4,1.6,1.6c0.1,2.8,0.4,5.5,0.6,8.3
			c0,0.5,0.3,1.1-0.6,1.2c-0.8,0.1-0.7-0.5-0.9-0.9c-2.6-7-4.5-8.3-12.1-8.3c-1.6,0-3.3,0.1-4.9,0c-1.6-0.1-2.1,0.6-2.1,2.1
			c0,4.5,0,9,0,13.5c0,1.5-0.7,3.5,0.3,4.4c0.8,0.7,2.8,0.2,4.3,0.2c1.9,0,3.9-0.1,5.8-0.2c2.3,0,3.6-1.1,4.3-3.3
			c0.2-0.7,0.5-1.3,0.6-2c0.1-0.6,0.3-0.9,0.9-0.8c0.7,0.1,0.5,0.6,0.5,1c0,4.3,0,8.6,0,12.9c0,0.1,0,0.1,0,0.2
			c0,0.3,0.1,0.8-0.5,0.8c-0.5,0-0.8-0.1-0.9-0.7c-0.1-0.7-0.4-1.4-0.6-2c-0.9-2.5-1.8-3.4-4.5-3.5c-3.1-0.1-6.2,0-9.3-0.1
			c-0.6,0-1,0.1-1,0.9c0.1,5.6-0.3,11.3,0.3,16.9c0.3,2.7,1.2,3.7,3.9,4.1c3.5,0.5,6.9,0.5,10.3-0.4c2.4-0.6,4.3-1.9,5.4-4
			c0.9-1.6,1.8-3.2,2.7-4.8c0.2-0.4,0.5-0.7,1-0.6c0.7,0.1,0.5,0.6,0.4,1c-0.7,3.4-1.5,6.8-2.2,10.1c-0.2,1-0.9,0.8-1.5,0.8
			C504.9,81,499.5,81,494.1,81z"/>
		<path class="st0" d="M394.4,108.2c1.9-0.3,3.4-0.5,4.5,1.2c0.9,1.4,2.2,2.7,3.3,4s2.2,2.7,3.6,4.2c0-2.8,0-5.4,0-7.9
			c0-1.1-1.3-0.9-2.2-1.6c1.9,0,3.5,0,5.1,0c-2.1,0.6-1.8,2.3-1.8,3.8c0,2.6,0,5.2,0,7.8c0,0.4,0.3,1.1-0.3,1.3
			c-0.5,0.1-0.8-0.5-1.1-0.8c-2.5-3-5-6-7.8-9.4c0.1,3.1-0.1,5.7,0.2,8.4c0.1,0.5,0.1,0.5,1.8,1.6c-0.3,0.5-0.9,0.3-1.3,0.3
			c-1.5,0.1-3,0.1-4.5,0.1c-1.4,0-2.5-0.5-3.3-1.7c-0.7-1.1-1.4-2.2-2-3.3c-0.4-0.7-1.1-1-1.8-0.8c-0.8,0.2-0.3,0.9-0.4,1.4
			c-0.1,0.4,0,0.8,0,1.1c-0.1,1.3,0,2.5,1.6,3c-1.7,0-3.4,0-5.1,0c2.2-0.7,1.6-2.6,1.6-4.1c0-1.8,0-3.6,0-5.4c0-1.3,0.4-2.9-1.9-3.1
			c2.7-0.1,5.2-0.5,7.7,0c1.2,0.3,1.9,1.2,2.1,2.4c0.2,1.4-0.2,2.6-1.3,3.3c-1.2,0.7-1,1.3-0.3,2.2c0.9,1.2,1.6,2.6,2.7,3.7
			c0.6,0.6,1.2,0.8,2.1,0.5c1-0.3,1.2-1,1.2-1.8c0-2.7,0-5.3,0.1-8C396.8,109,395.5,108.9,394.4,108.2z M386.3,111.7
			c0,0.4,0,0.8,0,1.1c0.1,0.6-0.4,1.5,0.3,1.7c0.8,0.3,1.8,0.1,2.6-0.4c1.2-0.9,1.6-3.2,0.6-4.4c-0.8-1-2-1.2-3.1-0.9
			c-0.9,0.3-0.2,1.3-0.4,2C386.2,111.1,386.3,111.4,386.3,111.7z"/>
		<path class="st0" d="M166.6,111c0-1.6,0-2.9,0-4.2c0-1.2-0.2-2.2-1.7-2.2c-0.4,0-0.7-0.1-0.6-0.5c0-0.3,0.4-0.4,0.6-0.4
			c1.9,0,3.8,0,5.7,0c0.3,0,0.7,0.1,0.7,0.5c0,0.4-0.3,0.4-0.6,0.4c-1.4,0-1.6,0.9-1.6,2.1c0,2.9-0.1,5.8,0.1,8.6
			c0.2,3.1,1.9,4.7,4.7,4.7c2.6,0,4.3-1.7,4.7-4.6c0.4-3.1,0.3-6.2,0-9.2c-0.1-1.2-1-1.4-1.9-1.5c-0.3,0-0.7-0.1-0.6-0.5
			c0.1-0.3,0.4-0.3,0.6-0.3c1.7,0,3.4,0,5,0c0.3,0,0.7,0,0.7,0.5c0,0.4-0.3,0.4-0.6,0.4c-1.5,0.1-1.7,1-1.7,2.2
			c-0.1,2.6-0.1,5.2-0.3,7.8c-0.3,5-3.9,7.7-8.8,6.6c-2.4-0.5-3.8-2-4.3-4.3C166.5,114.8,166.7,112.7,166.6,111z"/>
		<path class="st0" d="M310.9,112.6c0-5.5,4.2-9.4,10.1-9.3c0.5,0,1.1,0.1,1.6,0.1c3.3,0.5,3.5,0.7,3.5,4.1c0,0.3,0.1,0.6-0.3,0.6
			c-0.3,0.1-0.4-0.1-0.6-0.4c-2.1-3.3-3.1-3.8-6.4-3.2c-2.7,0.5-4.4,2.3-5.1,5.4c-0.5,2.2-0.3,4.4,0.6,6.5c1,2.5,3,3.8,5.6,4
			c2.5,0.2,4.2-1,5.4-3.2c0.2-0.4,0.3-1.2,0.9-0.9c0.6,0.3,0,0.8,0,1.3c-0.3,2.6-1.7,3.6-4.3,3.7c-3.1,0.2-6.1-0.1-8.5-2.2
			C311.7,117.4,310.8,115.1,310.9,112.6z"/>
		<path class="st0" d="M188.5,121c-1.8,0.1-3.4,0.2-5.1-0.2c2.3-0.6,1.8-2.4,1.8-3.9c0.1-1.6,0-3.1,0-4.7c0-1.6,0.4-3.5-2.2-3.8
			c1.8-0.4,3.2-0.6,4.4,1.1c2,2.8,4.4,5.3,6.8,8.2c0.2-2.9,0.1-5.4,0-8c-0.1-1.2-1.4-0.7-2.1-1.6c1.8,0,3.4,0,5,0
			c-2.1,0.6-1.8,2.3-1.8,3.8c0,2.7,0,5.3,0,8c0,0.4,0.2,1-0.3,1.1c-0.5,0.1-0.7-0.4-1-0.7c-2.5-3-4.9-6-7.6-9
			c-0.1,2.7-0.4,5.4,0,8.1C186.6,120.5,187.8,120,188.5,121z"/>
		<path class="st0" d="M455.8,108.1c2.2,0,4.3,0,6.5,0c1.4,0,2.5,0.7,2.9,2.2c0.4,1.5,0.1,2.9-1.2,3.7c-1.2,0.7-1,1.3-0.3,2.2
			c1.2,1.6,2.1,3.5,4,4.6c-1.6,0.6-2.9,0.2-3.9-1.2c-0.7-1-1.3-2.1-2-3.2c-0.3-0.5-0.6-1-1.3-1.1c-0.7-0.1-1.3-0.1-1.2,0.9
			c0.1,0.5,0,1.1,0,1.6c-0.1,1.3,0,2.5,1.8,2.8c-1.8,0.5-3.6,0.3-5.5,0.1c2.3-0.5,1.9-2.2,1.9-3.7c0-1.9,0-3.8,0-5.7
			C457.6,110,457.7,108.6,455.8,108.1z M459.3,111.8c0,0.7,0,1.4,0,2.1c0,0.4-0.1,0.8,0.5,0.8c1.3,0.1,2.5-0.1,3.2-1.4
			c0.7-1.2,0.7-2.5-0.3-3.6c-0.8-0.9-1.9-1.1-3-0.8c-1,0.3-0.3,1.3-0.5,2C459.2,111.1,459.3,111.4,459.3,111.8z"/>
		<path class="st0" d="M241.3,121c-2.2,0.3-3.5-0.2-4.5-1.6c-0.7-1-1.3-2.1-2-3.2c-0.4-0.7-1-1.1-1.7-0.9c-0.9,0.2-0.3,1-0.5,1.5
			c-0.1,0.2,0,0.4,0,0.6c0,2.3,0,2.3,2,3.5c-2.1,0.2-3.9,0.2-5.8-0.2c2.5-0.4,1.9-2.2,1.9-3.7c0-1.9,0-3.8,0-5.7
			c0-1.3,0.3-2.8-1.8-3.2c2.6-0.1,5-0.5,7.4,0.1c1.2,0.3,2,1.1,2.1,2.4c0.2,1.4-0.1,2.7-1.4,3.4c-1,0.6-1,1.1-0.4,2
			C238.1,117.8,239,119.7,241.3,121z M236.7,111.6c0-1.2-0.4-2-1.4-2.5c-1.7-0.9-2.6-0.4-2.6,1.5c0,0.8,0,1.5,0,2.3
			c0,1.8,1,2.4,2.6,1.4C236.3,113.7,236.7,112.7,236.7,111.6z"/>
		<path class="st0" d="M500.8,108.1c-2.2,0.5-1.8,2.2-1.8,3.7c0,2.6,0,5.2,0,7.8c0,0.5,0.4,1.2-0.3,1.4c-0.6,0.2-0.9-0.6-1.2-1
			c-2.5-2.9-4.9-5.9-7.6-9.1c0,2.9,0,5.5,0,8.1c0,0.8,0.1,0.8,2.2,1.8c-1.9,0-3.5,0-5.1,0c2.3-0.9,1.7-2.9,1.8-4.6
			c0.1-1.5,0-2.9,0-4.4c0-1.6,0.1-3.3-2.2-3.6c1.6-0.3,3-0.7,4.2,0.9c2.2,2.9,4.6,5.6,7.1,8.5c0-2.7-0.1-5,0-7.4
			c0.1-1.5-1.2-1.5-2.5-2.2C497.6,108.1,499.2,108.1,500.8,108.1z"/>
		<path class="st0" d="M374.5,121.3c-3.8,0-6.5-2.8-6.4-6.6c0-4,2.9-6.9,6.8-6.9c3.7,0,6.5,2.9,6.5,6.7
			C381.3,118.5,378.5,121.3,374.5,121.3z M379.1,114.9c0.1-1.4-0.2-2.9-1-4.2c-0.9-1.5-2.2-2.3-3.9-2.2c-1.8,0.1-3,1.1-3.6,2.8
			c-0.6,1.7-0.6,3.5-0.1,5.2c0.8,2.6,2.7,4.2,4.9,3.9c2.3-0.3,3.7-2.3,3.7-5.1C379.1,115.3,379.1,115.1,379.1,114.9z"/>
		<path class="st0" d="M217.8,120.6c2.4-0.2,2-1.9,2-3.5c0-2,0-4,0-6c0-1.2,0.2-2.6-1.8-2.6c0.3-0.7,0.8-0.5,1.2-0.5
			c2,0,3.9,0,5.9,0c2,0,2.5,1,1.7,3c-1.6-2.3-1.6-2.3-4-2.3c-0.8,0-1.2,0.2-1.1,1.1c0.1,0.6,0,1.2,0,1.8c0,2.1,1,2.7,3,2.1
			c0.8-0.3,0.4-1.2,1.4-1.6c0.2,1.4,0.2,2.7,0,3.9c0,0.1-0.2,0.2-0.4,0.2c-0.3,0-0.3-0.3-0.4-0.4c-0.5-0.9-2.7-1.5-3.4-1.1
			c-0.3,0.2-0.2,0.5-0.2,0.7c0,0.5-0.1,1.1,0,1.6c0.2,1.1-0.8,2.7,1.1,3.1c2.3,0.5,3.5,0,4.5-2c0.1-0.2,0.3-0.3,0.4-0.5
			c0.6,2.4-0.2,3.4-2.4,3.4c-2,0-3.9,0-5.9,0C218.9,121.1,218.3,121.3,217.8,120.6z"/>
		<path class="st0" d="M509.7,112.2c0,1.3,0,2.6,0,4.2c-0.8-0.6-0.7-1.6-1.7-1.8c-2.3-0.3-2.7-0.1-2.7,2.2c0,0.1,0,0.1,0,0.2
			c0.2,1.1-0.5,2.8,1.2,3.1c2.6,0.3,3.9,0.2,4.5-2c0.1-0.2,0.1-0.4,0.4-0.4c0.6,2.2-0.1,3.3-2.3,3.3c-2.1,0-4.1,0-6.2,0
			c-0.4,0-1,0.2-1.5-0.5c2.7-0.3,2-2.3,2.1-3.9c0-1.8,0-3.7,0-5.5c0-1.2,0.2-2.6-2.3-2.6c1.3-0.8,2.1-0.5,2.9-0.5c1.5,0,2.9,0,4.4,0
			c2.4,0,2.7,0.5,1.9,3c-1.6-2.3-1.7-2.4-4.1-2.2c-0.1,0-0.1,0-0.2,0c-1.5,0-0.9,1.2-0.8,1.8c0.2,1.1-1,2.7,0.8,3.1
			C507.5,114,509.1,114.2,509.7,112.2z"/>
		<path class="st0" d="M450.7,103.7c0.9,0,1.8,0,2.8,0c0.3,0,0.6,0,0.6,0.4c0.1,0.5-0.3,0.5-0.6,0.5c-1.3,0-1.6,0.9-1.6,2
			c0,3.9,0,7.8,0,11.7c0,1.1,0.3,2,1.6,2c0.3,0,0.7,0,0.6,0.5c0,0.3-0.3,0.4-0.6,0.4c-1.9,0-3.8,0-5.7,0c-0.3,0-0.6-0.1-0.6-0.4
			c-0.1-0.5,0.3-0.5,0.6-0.5c1.4-0.1,1.7-1,1.7-2.1c0-3.8,0-7.6,0-11.4c0-1.2-0.3-2.2-1.8-2.2c-0.3,0-0.5-0.1-0.5-0.5
			c0-0.3,0.3-0.4,0.6-0.4C448.8,103.7,449.7,103.7,450.7,103.7z"/>
		<path class="st0" d="M428.5,120.9c-1.6,0-3.2,0-4.8,0c2.3-1.1,0.7-2.5,0.3-3.7c-0.5-2-2.3-1-3.4-1c-1.9-0.1-1.3,1.9-1.9,2.9
			c-0.7,1.2,0.9,1,1.4,1.8c-1.6,0-3,0-4.4,0c1.9-0.8,2.1-2.6,2.7-4.2c1.1-2.7,2.1-5.3,3.1-8c0.1-0.4,0.2-1,0.7-0.9
			c0.4,0,0.4,0.6,0.6,0.9c1.1,3.1,2.3,6.2,3.4,9.3c0.4,1.2,0.7,2.4,2.5,2.5C428.6,120.6,428.5,120.8,428.5,120.9z M421.6,110.8
			c-0.4,1.1-0.7,2-1.1,2.9c-0.6,1.3-0.2,1.6,1.1,1.6c1.5,0,1.6-0.4,1.1-1.6C422.3,112.8,422,111.9,421.6,110.8z"/>
		<path class="st0" d="M340.1,120.7c-1.7,0.4-3.3,0.4-5.1,0.2c2.3-1,0.8-2.3,0.5-3.5c-0.5-2.1-2.2-1-3.4-1.1
			c-1.9-0.2-1.3,1.7-1.9,2.7c-0.8,1.4,0.8,1.2,1.4,2c-1.6,0.4-3.1,0.2-4.6,0c1.8-0.7,2.1-2.2,2.6-3.7c1.1-2.8,2.2-5.6,3.3-8.4
			c0.1-0.3,0.1-0.8,0.6-0.9c0.6-0.1,0.6,0.6,0.7,0.9c1.1,3,2.3,6.1,3.4,9.1C338.1,119,338.3,120.4,340.1,120.7z M333.1,110.8
			c-0.5,1.5-0.9,2.7-1.3,3.9c-0.1,0.1-0.1,0.3-0.1,0.5c3.2,0.4,3.2,0.4,2.2-2.5C333.6,112.1,333.4,111.6,333.1,110.8z"/>
		<path class="st0" d="M365.7,112.3c0.4,1.4,0.4,2.7,0,4.2c-0.6-2.1-2.2-1.7-3.6-1.7c-0.3,0-0.7,0-0.7,0.4c-0.1,1.5-0.1,3,0.3,4.5
			c0.2,0.7,1.3,0.3,1.9,1.1c-2,0-3.8,0-5.6,0c2.3-0.9,1.5-2.9,1.6-4.5c0.1-1.8,0-3.6,0-5.4c0-1.2,0.1-2.5-2-2.5
			c0.8-0.7,1.4-0.5,1.9-0.5c1.7,0,3.5,0.1,5.2-0.1c1.8-0.2,2.2,0.6,2.1,2.1c0,0.3,0,0.6-0.1,1c-0.2-0.1-0.5,0-0.5-0.1
			c-1-2.1-1.9-2.8-4-2c-1.9,0.7-0.4,2.7-0.8,4.1c-0.2,0.7,0.2,1.1,1,1C363.6,113.9,365.2,114.5,365.7,112.3z"/>
		<path class="st0" d="M277.6,120.9c-2.1,0-4,0-6,0c0.5-0.9,1.8-0.3,2-1.5c0.2-1.5,0.5-3.1-0.2-4.5c-0.9-1.8-2.1-3.6-3-5.4
			c-0.4-0.7-1.1-0.8-2-1.4c2,0,3.6,0,5.2,0c-2,0.5-1.1,1.5-0.5,2.4c0.6,1.1,1.3,2.2,2,3.5c1-1.5,1.7-3,2.4-4.5
			c0.6-1.3-1.2-0.5-1.3-1.4c1.5,0,3,0,4.3,0c-2.7,2.4-4.8,5.2-5,9.1C275.4,119.5,275.5,119.5,277.6,120.9z"/>
		<path class="st0" d="M217.5,108.3c-1.4,0.4-1.9,1.5-2.4,2.7c-1.2,3-2.4,6-3.6,9c-0.2,0.4-0.1,1.1-0.8,1.1c-0.6,0-0.6-0.6-0.8-1.1
			c-1.2-3-2.3-5.9-3.5-8.9c-0.5-1.2-0.8-2.5-2.3-3c1.6,0,3.2,0,4.8,0c-1.9,0.6-1,1.7-0.6,2.7c0.9,2.4,1.8,4.7,2.9,7.4
			c1.2-3.1,2.2-5.9,3.2-8.7c0.5-1.3-1.2-0.6-1.4-1.5C214.5,108,215.9,108,217.5,108.3z"/>
		<path class="st0" d="M466.6,108.2c1.6,0,3.2,0,4.9,0c-1.7,0.6-1.2,1.6-0.8,2.7c0.9,2.3,1.8,4.7,2.9,7.5c1.2-3.1,2.1-5.8,3.2-8.5
			c0.5-1.2-0.9-0.9-1.4-1.6c1.6,0,3,0,4.4,0c-1.9,0.6-2.1,2.5-2.8,4c-1.1,2.6-2.1,5.3-3.2,8c-0.1,0.4-0.1,1-0.7,0.9
			c-0.6,0-0.6-0.6-0.7-0.9c-1.2-3.1-2.4-6.1-3.6-9.2C468.4,109.8,467.9,108.8,466.6,108.2z"/>
		<path class="st0" d="M265.7,120.9c-1.9,0-3.9,0-5.8,0c2.5-0.5,1.8-2.4,1.9-4c0-2.1,0.1-4.2,0-6.4c0-0.6,0.6-1.6-0.5-1.7
			c-1.1-0.2-2.3-0.2-3,1c-0.2,0.4-0.2,0.9-0.8,1.3c-0.5-1.1-0.1-2.1-0.1-3.1c0-0.4,0.2-0.4,0.7-0.3c3.2,0.5,6.3,0.5,9.5,0
			c0.6-0.1,0.7,0,0.7,0.4c0,0.9,0,1.9,0,2.8c-0.6,0.2-0.5-0.3-0.6-0.5c-0.6-1.4-2-2.1-3.4-1.6c-0.6,0.2-0.4,0.5-0.4,0.9
			c0,3,0.1,6.1,0,9.1c0,1.5,1.1,1.5,2.1,1.7C265.8,120.7,265.7,120.8,265.7,120.9z"/>
		<path class="st0" d="M241.7,117.3c0.5,0.7,0.9,1.4,1.4,2c0.8,1,1.8,1.5,3,1.1c0.9-0.3,1.4-0.9,1.6-1.9c0.2-1.3-0.4-2.2-1.4-2.9
			c-0.9-0.5-1.8-0.9-2.7-1.5c-1.4-0.9-2-2.1-1.6-3.7c0.4-1.6,1.5-2.5,3.1-2.7c0.2,0,0.3,0,0.5-0.1c2.8-0.2,3.3,0.3,3,3.2
			c-0.7,0-0.6-0.7-0.8-1c-0.5-1-1.4-1.6-2.5-1.5c-1,0.1-1.6,0.7-1.8,1.7c-0.2,1.2,0.3,2,1.3,2.6c0.8,0.4,1.6,0.8,2.3,1.2
			c1.9,1,2.6,2.4,2.2,4.3c-0.3,1.7-1.8,2.9-3.7,3.1c-0.4,0-0.8,0-1.1,0C242,121.1,241.3,120.1,241.7,117.3z"/>
		<path class="st0" d="M350,117.7c0.4,2.7-0.1,3.4-2.6,3.4c-2.3,0-4.5,0-6.9-0.2c2.5-0.8,1.7-2.7,1.8-4.3c0-1.8,0-3.6,0-5.4
			c0-1.3,0.2-2.7-1.7-3.1c1.8,0,3.6,0,5.4,0c-2.4,0.3-1.8,2.1-1.8,3.5c0,2.1,0,4.1,0,6.2c0,0.9-0.3,2.1,1,2.2c1.4,0.1,2.9,0.5,3.8-1
			C349.4,118.6,349.3,117.9,350,117.7z"/>
		<path class="st0" d="M302.1,111.9c-0.1,0.1-0.1,0.2-0.2,0.2c-2.3-0.1-2.3,1.6-2.5,3.2c-0.3,2.1-0.7,4.3-1.5,6.3
			c-0.5,1.3-1.1,2.5-2.5,3.1c-0.5,0.2-1,0.3-1.5-0.1c-0.2-0.2-0.2-0.4-0.1-0.7c0.3-0.6,0.8-0.6,1.2-0.4c1,0.3,1.2-0.5,1.4-1.1
			c0.8-2.9,1-5.9,1.5-8.9c0.2-1.3-0.9-0.7-1.3-1c0-0.1,0-0.3,0-0.3c1.8-0.2,1.9-1.7,2.3-2.9c0.6-1.6,1.7-2.6,3.3-3.1
			c0.4-0.1,0.9-0.2,1.3,0c0.4,0.2,1,0.3,0.7,1c-0.2,0.6-0.6,0.7-1.2,0.5c-1.9-0.5-2.1-0.4-2.6,1.5C300,111.3,300,111.3,302.1,111.9z
			"/>
		<path class="st0" d="M256,120.9c-1.7,0-3.5,0-5.2,0c2.3-0.8,1.7-2.8,1.7-4.4c0-1.6,0-3.2,0-4.9c0-1.4,0.3-3-1.8-3.5
			c1.7,0,3.5,0,5.2,0c-2.3,0.7-1.7,2.5-1.7,4.1c0,1.8,0,3.7,0,5.5c0,1.3-0.2,2.8,2,2.8C256.2,120.6,256.1,120.8,256,120.9z"/>
		<path class="st0" d="M485.9,120.8c-1.8,0.4-3.6,0.4-5.5,0c2.2-0.4,1.8-2,1.8-3.3c0-2.1,0-4.2,0-6.4c0-1.2,0.4-2.7-1.6-2.9
			c1.8,0,3.5,0,5.3,0c-2.3,0.4-1.7,2.2-1.7,3.7c0,2,0.1,4,0,6C484,119.3,484.2,120.4,485.9,120.8z"/>
		<path class="st0" d="M414.9,120.9c-1.7,0-3.4,0-5.1,0c2.2-0.6,1.6-2.3,1.6-3.7c0-1.9,0-3.8,0-5.7c0-2.2,0-2.2-1.9-3.4
			c1.9,0,3.7,0,5.4,0c-2.2,0.7-1.6,2.4-1.6,3.9c0,1.8,0,3.7,0,5.5C413.2,119,413.1,120.3,414.9,120.9z"/>
		<path class="st0" d="M351.2,108.2c1.7,0,3.4,0,5.2,0c-2,0.4-1.6,1.9-1.6,3.3c0,2,0,4,0,6c0,1.4-0.5,3,2.1,3.1
			c-0.1,0.1-0.3,0.3-0.4,0.4c-1.7,0-3.5,0-5.2,0c2.1-0.5,1.7-2.1,1.7-3.5c0-2,0-4,0-6C352.8,110,353,108.6,351.2,108.2z"/>
		<path class="st0" d="M203.5,108.2c-2.2,0.4-1.7,2.1-1.7,3.5c0,2.1,0,4.1,0,6.2c0,2,0,2,1.6,2.8c-0.9,0.5-3.2,0.6-5.5,0.1
			c2.6-0.7,1.9-2.7,2-4.3c0.1-1.8,0-3.6,0-5.4c0-1.2,0.2-2.6-1.7-2.9C200,108.2,201.7,108.2,203.5,108.2z"/>
		<path class="st0" d="M295.4,114.2c0,2.6-1.6,5-3.7,5.8c-2.2,0.9-3.7,0-4-2.3c-0.3-2.6,1.3-5.4,3.7-6.3
			C293.7,110.5,295.4,111.6,295.4,114.2z M289.5,116.5c0,0.7,0,1.2,0.2,1.8c0.5,1.3,1.6,1.5,2.5,0.4c1.2-1.5,1.6-3.3,1.4-5.2
			c-0.1-0.7-0.3-1.3-1.1-1.5c-0.7-0.2-1.2,0.2-1.7,0.8C289.9,113.9,289.5,115.2,289.5,116.5z"/>
		<path class="st0" d="M435.8,114.5c-0.5-1.8,0.8-1.4,1.8-1.6c1.8-0.3,1.5,0.9,1.6,1.9c0.2,1.7-0.8,1.5-1.9,1.7
			C435.6,116.7,435.6,115.8,435.8,114.5z"/>
	</g>
</g>
<g id="_x31__color">
	<path class="st0" d="M52.3,102.7c-0.3,1.9-0.5,3-0.6,3.2c-0.6,2.7-0.1,2.9,0.6,0.4c0-0.1,0.2-1,0.5-2.7L52.3,102.7z"/>
	<g>
		<path class="st0" d="M44.6,105.4L44.6,105.4c-0.4,0.3-0.6,0.6-0.6,1c0,0.8,0.5,1.8,0.9,2.6c0,0,0.2,0.4,0.2,0.5
			c0,0.8-2.1,5.7-3,7.8l-0.1,0.3c0,0.1-0.1,0.2-0.1,0.2c0,0.1,0.1,0,0.2,0.1c0.2,0.2,0.4,0.2,0.6,0.2c0.6-0.2,1.7,0.9,2.3,1.5
			c0.4,0.4,0.5,0.2,0.7,0.2c0.2-0.1,0.4-0.2,0.5-0.5l0.1-0.3c0.9-3.2,2-6.7,2.8-6.9c0.1,0,0.2-0.1,0.2-0.1c0.3-0.3,1-0.8,1.3-0.9
			c0.8-0.3,1.3-0.8,1.5-1.4c0.1-0.3,0.1-0.9-0.5-1.6c-0.6-0.7-1.5-1.4-2.5-1.9c-0.2-0.1-2.4-0.9-3.3-1
			C45.3,105.3,44.9,105.3,44.6,105.4z M45.2,106.5L45.2,106.5L45.2,106.5z M45.2,109.5L45.2,109.5C45.2,109.5,45.2,109.5,45.2,109.5
			L45.2,109.5z M46,105.9c0.4,0,2.2,0.4,3.4,1c0.9,0.4,1.6,1.3,2,1.8c0.1,0.2,0.1,0.5-0.1,0.8c-0.3,0.2-0.4,0.3-0.9,0.5
			c-0.6,0.2-1.4,0.9-1.6,1.1c-1.3,0.5-2,2.8-3.3,7.3c-0.4-0.4-1-0.8-1.8-1c2.1-5,2.9-7,2.9-7.8c0-0.1,0-0.2,0-0.2l-0.3-0.7
			c-0.2-0.4-0.8-1.2-0.8-1.8C45.3,105.8,45.6,105.9,46,105.9z M46.4,109.2L46.4,109.2C46.4,109.2,46.4,109.2,46.4,109.2z"/>
	</g>
	<g>
		<path class="st0" d="M35,37.4c-0.6,0.3-0.8-0.2-0.3-0.5C36,36.1,55.5,27.4,57,26.6c0.9-0.4,1.5,0.2,0.5,0.7
			C57.6,27.3,36.2,36.7,35,37.4z"/>
	</g>
	<g>
		<g>
			<path class="st0" d="M57.2,25.1c0,0,0.3,0.3-0.1,0.4c-0.5,0.1-6.7,0.4-7,0.4c-0.2,0-1.8,0.1-2.3,0.1c-1.1-0.1-0.3-0.4,0.2-0.4
				C50,25.3,56.7,24.8,57.2,25.1z"/>
		</g>
	</g>
	<g>
		<path class="st0" d="M98.6,37.3c0.6,0.3,0.8-0.2,0.3-0.5c-1.2-0.7-20.8-9.5-22.3-10.2c-0.9-0.4-1.5,0.2-0.5,0.7
			C76,27.2,97.4,36.7,98.6,37.3z"/>
	</g>
	<g>
		<g>
			<path class="st0" d="M77.1,25.1c0,0-0.3,0.3,0.1,0.4c0.5,0.1,6.6,0.4,6.9,0.4c0.2,0,1.8,0.1,2.2,0.1c1.1-0.1,0.3-0.3-0.2-0.4
				C85.4,25.4,77.9,24.7,77.1,25.1z"/>
		</g>
	</g>
	<g>
		<g>
			<path class="st0" d="M33.7,103.7l-0.1,0.1c-0.2-0.2-0.3-0.2-0.5,0l-3.9,4l1.5,1.4c0.3,0.3,0.4,0.3,0.6,0.2l0.2,0.2l-1.2,1.3
				l-0.2-0.2c0.1-0.2,0-0.3-0.2-0.6l-4.2-4c-0.3-0.3-0.4-0.3-0.6-0.2l-0.2-0.2l1.2-1.2l0.2,0.2c-0.2,0.2-0.1,0.4,0.2,0.6l1.5,1.4
				l3.9-4c0.2-0.2,0.2-0.3,0-0.5l0.1-0.1L33.7,103.7z"/>
		</g>
		<g>
			<path class="st0" d="M24.8,99.1l2.3-1.6c0.2-0.1,0.2-0.3,0-0.6l0.2-0.1l1.5,2.1L28.6,99c-0.2-0.3-0.4-0.3-0.5-0.2l-5.1,3.6
				c-0.2,0.1-0.2,0.3,0,0.6l-0.2,0.1l-1.5-2.1l0.2-0.1c0.2,0.3,0.4,0.3,0.6,0.2l1.9-1.3l-2.1-3L19.9,98c-0.2,0.1-0.2,0.3,0,0.6
				l-0.2,0.1l-1.5-2.1l0.2-0.1c0.2,0.3,0.4,0.3,0.6,0.2l5.1-3.6c0.2-0.1,0.2-0.3,0-0.6l0.2-0.1l1.5,2.1l-0.2,0.1
				c-0.2-0.3-0.4-0.3-0.6-0.2l-2.3,1.6L24.8,99.1z"/>
		</g>
		<g>
			<path class="st0" d="M21.1,89l-1.6-3.6c-0.2-0.4-0.3-0.5-0.5-0.4L19,84.7l1.5-0.7l0.1,0.2c-0.2,0.1-0.2,0.3,0,0.6l2.5,5.6
				l-0.2,0.1c-0.2-0.4-0.3-0.4-0.6-0.4l-5.7,2.5c-0.2,0.1-0.3,0.2-0.1,0.7l-0.2,0.1L14,88.1c-0.2-0.4-0.3-0.5-0.5-0.4l-0.1-0.2
				l1.5-0.7L15,87c-0.1,0.1-0.1,0.3,0,0.6l1.5,3.4l1.7-0.7l-0.9-2c-0.2-0.4-0.3-0.5-0.5-0.4l-0.1-0.2l1.5-0.7l0.1,0.2
				c-0.1,0.1-0.1,0.3,0,0.6l0.9,2L21.1,89z"/>
		</g>
		<g>
			<path class="st0" d="M10,70.4l0.2,0c0.1,0.3,0.1,0.4,0.4,0.4l4.1-0.1c0.9,0,1.5-0.7,1.5-2c0-1.2-0.7-1.9-1.6-1.9l-4.1,0.1
				c-0.2,0-0.3,0.1-0.3,0.4l-0.2,0l-0.1-2.4l0.2,0c0.1,0.4,0.1,0.4,0.4,0.4l4.1-0.1c1.7-0.1,2.8,0.9,2.9,3.4c0.1,2.5-1,3.6-2.6,3.6
				l-4.1,0.1c-0.2,0-0.3,0.1-0.3,0.5l-0.2,0L10,70.4z"/>
		</g>
		<g>
			<path class="st0" d="M17.3,62.5l-0.2,0c0-0.3-0.1-0.4-0.3-0.4l-6.1-1c-0.2,0-0.3,0-0.4,0.3l-0.2,0l0.4-2.8l0.2,0
				c0,0.2,0,0.3,0.1,0.3c0.2,0,4.4-2.3,5-2.4l0,0l-4.3-0.7c-0.2,0-0.3,0-0.4,0.3l-0.2,0l0.4-2.3l0.2,0c0,0.3,0.1,0.4,0.3,0.4l6.1,1
				c0.3,0,0.3,0,0.4-0.2l0.2,0l-0.4,2.5l-0.2,0c0-0.2,0-0.3-0.1-0.3c-0.2,0-4.1,2.3-5.5,2.6l0,0l4.8,0.8c0.2,0,0.3,0,0.4-0.3l0.2,0
				L17.3,62.5z"/>
		</g>
		<g>
			<path class="st0" d="M19.3,52.6l-0.2-0.1c0.1-0.5,0.1-0.6-0.2-0.7L13,49.9c-0.2-0.1-0.3,0-0.5,0.4l-0.2-0.1l0.9-2.7l0.2,0.1
				c-0.1,0.5-0.1,0.6,0.2,0.7l5.9,1.9c0.2,0.1,0.3,0,0.5-0.4l0.2,0.1L19.3,52.6z"/>
		</g>
		<g>
			<path class="st0" d="M21.9,45.8l-0.2-0.1c0.1-0.2,0.1-0.4,0-0.5c-0.2-0.1-4.8-0.2-6.7-0.4c-0.3,0-0.6,0-0.7,0.1l-0.2-0.1l1.1-2.2
				l0.2,0.1c-0.1,0.3-0.1,0.4,0.1,0.4c0.2,0.1,3.7,0.2,5.4,0.4l0,0c-1.3-1.3-3.5-3.9-3.7-3.9c-0.1,0-0.2,0-0.3,0.3l-0.2-0.1l1-2.1
				l0.2,0.1c-0.1,0.3,0.1,0.4,0.3,0.7c1.6,1.8,4.1,4.7,4.5,4.8c0.1,0.1,0.2,0,0.4-0.2l0.2,0.1L21.9,45.8z"/>
		</g>
		<g>
			<path class="st0" d="M25.6,37.1l2.4-3.1c0.2-0.3,0.3-0.4,0.1-0.6l0.1-0.2l1.3,1l-0.1,0.2c-0.2-0.1-0.3,0-0.5,0.3l-3.7,4.9
				L25,39.5c0.2-0.4,0.2-0.5,0-0.7l-5-3.7c-0.2-0.1-0.3-0.1-0.6,0.2l-0.2-0.1l3.6-4.8c0.2-0.3,0.3-0.4,0.1-0.6l0.1-0.2l1.3,1
				l-0.1,0.2c-0.2-0.1-0.3,0-0.5,0.3l-2.2,2.9l1.4,1.1l1.3-1.7c0.2-0.3,0.3-0.4,0.1-0.6l0.1-0.2l1.3,1l-0.1,0.2
				c-0.2-0.1-0.3,0-0.5,0.3L24,35.9L25.6,37.1z"/>
		</g>
		<g>
			<path class="st0" d="M31,32.2l-0.1-0.1c0.2-0.2,0.2-0.3,0-0.5L26.8,27c-0.2-0.2-0.3-0.2-0.5,0l-0.1-0.1l3.2-2.9
				c1.4-1.3,2.8-1.4,3.6-0.5c0.7,0.8,0.8,1.8,0,2.8l2.4,0.7c0.7,0.2,0.9,0.3,1.2,0.1l0.1,0.1l-1.9,1.7l-0.1-0.1
				c0.1-0.1,0.2-0.3,0.1-0.4c0-0.1-0.1-0.1-0.4-0.2l-2.5-0.7l-1.2,1l1.7,1.8c0.2,0.2,0.3,0.2,0.5,0l0.1,0.1L31,32.2z M29.8,27.7
				l1.5-1.3c0.8-0.7,0.9-1.3,0.4-1.7c-0.4-0.5-1-0.4-1.8,0.3l-1.5,1.3L29.8,27.7z"/>
		</g>
		<g>
			<path class="st0" d="M38.1,23.6l0.2,0c0,0.1,0,0.1,0,0.1c0.3,0.4,1.6,0,2.5-0.5c1.3-0.8,1.6-1.5,1.2-2c-0.8-1.3-4.9,2.3-6.2,0.1
				c-0.6-0.9-0.2-2.3,1.7-3.5c0.8-0.5,1.4-0.7,1.9-0.8c0.5-0.1,0.8-0.1,0.9-0.2c0.2-0.1,0.2-0.2,0.3-0.3l0.1,0l-0.2,2.1l-0.2,0.1
				c0,0-0.1-0.1-0.1-0.2c-0.2-0.3-1.1-0.3-2.3,0.4c-0.8,0.5-1,1-0.7,1.4c0.8,1.3,4.8-2.4,6.3,0c0.6,1,0.1,2.6-2.1,4
				c-0.7,0.4-1.4,0.6-1.9,0.8c-0.6,0.1-0.8,0.1-1,0.3c-0.1,0.1-0.1,0.2-0.1,0.3l-0.2,0L38.1,23.6z"/>
		</g>
		<g>
			<path class="st0" d="M46.7,21.5l-0.1-0.2c0.4-0.2,0.5-0.3,0.4-0.6L44.7,15c-0.1-0.2-0.2-0.3-0.7-0.1l-0.1-0.2l2.7-1.1l0.1,0.2
				c-0.4,0.2-0.5,0.3-0.4,0.6l2.3,5.8c0.1,0.2,0.2,0.3,0.7,0.1l0.1,0.2L46.7,21.5z"/>
		</g>
		<g>
			<path class="st0" d="M53.7,18.9l0-0.2c0.2-0.1,0.3-0.2,0.2-0.4l-1.4-5.4l-2,0.5c-0.4,0.1-0.5,0.2-0.5,0.4l-0.2,0.1l-0.4-1.7
				l0.2-0.1c0.1,0.2,0.2,0.2,0.6,0.1l5.6-1.4c0.4-0.1,0.5-0.2,0.5-0.4l0.2-0.1l0.4,1.7l-0.2,0.1c-0.1-0.3-0.3-0.3-0.6-0.2l-2,0.5
				l1.4,5.4c0.1,0.2,0.2,0.3,0.5,0.3l0.1,0.2L53.7,18.9z"/>
		</g>
		<g>
			<path class="st0" d="M65.1,17.2l-2.5,0.2l0-0.2c0.3-0.1,0.4-0.2,0.4-0.4l-0.2-2.5l-2.9-3.6c-0.1-0.1-0.2-0.2-0.4-0.3l0-0.2L62,10
				l0,0.2c-0.3,0-0.4,0.1-0.4,0.2c0,0.1,1.2,1.5,1.9,2.4c0.4-0.9,1.5-2.4,1.5-2.6c0-0.1-0.1-0.2-0.4-0.2l0-0.2l2.5-0.2l0,0.2
				c-0.2,0.1-0.3,0.1-0.4,0.3l-2.4,3.9l0.2,2.5c0,0.2,0.1,0.3,0.4,0.3L65.1,17.2z"/>
		</g>
		<g>
			<path class="st0" d="M85.3,12.7c2.5,0.9,3.3,2.9,2.7,4.9c-0.7,2-2.6,3.1-5.1,2.2c-2.5-0.9-3.3-2.9-2.7-4.9
				C80.9,13,82.8,11.9,85.3,12.7z M83.2,18.7c1.4,0.5,2.6-0.1,3.1-1.7c0.5-1.6,0-2.7-1.4-3.2c-1.4-0.5-2.6,0.1-3.1,1.7
				C81.3,17.1,81.8,18.2,83.2,18.7z"/>
		</g>
		<g>
			<path class="st0" d="M88.3,21.9l0.1-0.2c0.4,0.2,0.5,0.2,0.7-0.1l3-5.4c0.1-0.2,0.1-0.3-0.3-0.6l0.1-0.2l5.2,2.9
				c0.3,0.2,0.4,0.2,0.6,0l0.2,0.1L97.1,20l-0.2-0.1c0.1-0.2,0-0.3-0.3-0.5l-3.2-1.8l-0.9,1.6l2,1.1c0.3,0.2,0.5,0.2,0.6,0l0.2,0.1
				L94.5,22l-0.2-0.1c0-0.2,0-0.3-0.4-0.5l-2-1.1l-1.3,2.3c-0.1,0.2-0.1,0.3,0.3,0.6l-0.1,0.2L88.3,21.9z"/>
		</g>
		<g>
			<path class="st0" d="M112.6,33.6l-2,0.2l-0.1-0.2c0,0,0.1-0.1,0.1-0.1c0.4-0.3,0.2-1.2-0.4-1.9c-1.1-1.3-2.3-1.5-3.7-0.3
				c-1.1,0.9-1.2,2.4-0.3,3.6c0.6,0.7,1.5,1.1,1.9,0.8c0,0,0.1-0.2,0.2-0.2l0.2,0.1l-0.2,2.1l-0.2,0c0-0.1,0-0.2-0.1-0.3
				c-0.3-0.3-1.3-0.1-2.8-1.8c-1.7-2-1.3-4.2,0.2-5.5c2-1.7,4.3-0.8,5.7,0.8c0.5,0.6,0.7,1.1,0.9,1.6c0.1,0.4,0.2,0.7,0.2,0.8
				c0.1,0.1,0.2,0.1,0.3,0.2V33.6z"/>
		</g>
		<g>
			<path class="st0" d="M108.3,39.2l0.2-0.1c0.1,0.2,0.3,0.2,0.5,0.2l6.4-0.7c0.3,0,0.4,0,0.5-0.1c0.1,0,0.1-0.1,0-0.4l0.2-0.1
				l1.4,2.5l-0.2,0.1c-0.1-0.2-0.3-0.3-0.4-0.2c-0.1,0-0.1,0.1-0.4,0.5l-3.9,4.9c-0.2,0.2-0.2,0.3-0.1,0.5l-0.2,0.1l-1.1-2l0.2-0.1
				c0.1,0.2,0.2,0.2,0.3,0.2c0.1,0,0.1-0.1,0.2-0.2l0.8-1.1l-1.5-2.7l-1.2,0.1c-0.1,0-0.2,0-0.3,0.1c-0.1,0.1-0.2,0.2-0.1,0.5
				l-0.2,0.1L108.3,39.2z M113.2,42.2l2-2.4l0,0l-3.1,0.4L113.2,42.2z"/>
		</g>
		<g>
			<path class="st0" d="M119.3,45.9c0.2-0.1,0.3-0.2,0.2-0.6l0.2-0.1l0.9,2.6l-0.2,0.1c-0.2-0.5-0.3-0.5-0.5-0.4l-5.3,1.8l1.2,3.6
				c0.1,0.4,0.2,0.5,0.5,0.4l0.1,0.2l-1.7,0.6l-0.1-0.2c0.2-0.1,0.2-0.3,0-0.6l-1.9-5.6l0.2-0.1c0.2,0.4,0.3,0.4,0.5,0.3L119.3,45.9
				z"/>
		</g>
		<g>
			<path class="st0" d="M115.3,55.7l0.2,0c0.1,0.5,0.2,0.5,0.5,0.5l6.1-1.2c0.2,0,0.3-0.1,0.2-0.6l0.2,0l0.6,2.8l-0.2,0
				c-0.1-0.5-0.2-0.5-0.5-0.5l-6.1,1.2c-0.2,0-0.3,0.1-0.2,0.6l-0.2,0L115.3,55.7z"/>
		</g>
		<g>
			<path class="st0" d="M116.2,60.5l0.2,0c0.1,0.5,0.2,0.5,0.4,0.5l6.2-0.4c0.2,0,0.3-0.1,0.3-0.6l0.2,0l0.4,6
				c0,0.3,0.1,0.5,0.3,0.5l0,0.2l-1.7,0.1l0-0.2c0.2-0.1,0.2-0.2,0.2-0.5l-0.3-3.7l-1.8,0.1l0.2,2.3c0,0.4,0.1,0.5,0.3,0.6l0,0.2
				l-1.7,0.1l0-0.2c0.2-0.1,0.2-0.2,0.2-0.6l-0.2-2.3l-2.6,0.2c-0.2,0-0.3,0.1-0.3,0.6l-0.2,0L116.2,60.5z"/>
		</g>
		<g>
			<path class="st0" d="M123.5,73.8c-0.3,2.6-2.1,3.9-4.2,3.6c-2.1-0.3-3.5-1.9-3.2-4.5c0.3-2.6,2.1-3.9,4.2-3.6
				C122.4,69.5,123.9,71.2,123.5,73.8z M117.3,73c-0.2,1.5,0.6,2.5,2.3,2.7c1.6,0.2,2.7-0.6,2.8-2.1c0.2-1.5-0.6-2.5-2.3-2.7
				C118.5,70.7,117.5,71.5,117.3,73z"/>
		</g>
		<g>
			<path class="st0" d="M115.2,79.2l0.2,0.1c-0.1,0.3,0,0.4,0.2,0.5l5.9,2c0.2,0.1,0.3,0,0.5-0.3l0.2,0.1l-1.4,4
				c-0.6,1.8-1.7,2.6-2.9,2.2c-1-0.3-1.5-1.2-1.3-2.5l-2.4,0.6c-0.7,0.2-1,0.2-1.1,0.5l-0.2-0.1l0.8-2.4l0.2,0.1
				c-0.1,0.2-0.1,0.3,0.1,0.4c0.1,0,0.1,0,0.5-0.1l2.6-0.6l0.5-1.5l-2.3-0.8c-0.2-0.1-0.3,0-0.5,0.3l-0.2-0.1L115.2,79.2z
				 M118.5,82.5l-0.6,1.9c-0.3,1-0.2,1.5,0.4,1.7c0.6,0.2,1.1-0.1,1.4-1.1l0.6-1.9L118.5,82.5z"/>
		</g>
		<g>
			<path class="st0" d="M111.8,88.5l0.2,0.1c-0.1,0.3-0.1,0.4,0.1,0.5l5.4,3.1c0.2,0.1,0.3,0.1,0.5-0.1l0.2,0.1l-1.4,2.4l-0.2-0.1
				c0.1-0.2,0.1-0.3,0.1-0.3c-0.2-0.1-4.9,0.6-5.6,0.4l0,0l3.8,2.2c0.2,0.1,0.3,0.1,0.5-0.1l0.2,0.1l-1.2,2l-0.2-0.1
				c0.1-0.3,0.1-0.4-0.1-0.5l-5.4-3.1c-0.2-0.1-0.3-0.1-0.5,0.1l-0.2-0.1l1.2-2.2l0.2,0.1c-0.1,0.2-0.1,0.3,0,0.4
				c0.2,0.1,4.7-0.7,6-0.5l0,0l-4.2-2.4c-0.2-0.1-0.3-0.1-0.5,0.1l-0.2-0.1L111.8,88.5z"/>
		</g>
		<g>
			<path class="st0" d="M106.3,97l0.1,0.1c-0.3,0.4-0.3,0.5-0.1,0.7l4.8,3.9c0.2,0.1,0.3,0.1,0.6-0.2l0.2,0.1l-1.8,2.2l-0.2-0.1
				c0.3-0.4,0.3-0.5,0.1-0.7l-4.8-3.9c-0.2-0.1-0.3-0.1-0.6,0.2l-0.2-0.1L106.3,97z"/>
		</g>
		<g>
			<path class="st0" d="M103.5,100.6l0.1,0.1c-0.2,0.2-0.1,0.4,0,0.5l2.2,6.1c0.1,0.3,0.1,0.4,0.2,0.4c0.1,0.1,0.1,0.1,0.4-0.1
				l0.1,0.1l-2.1,1.9l-0.1-0.1c0.2-0.2,0.2-0.3,0.1-0.4c-0.1-0.1-0.2-0.1-0.5-0.3l-5.7-2.6c-0.2-0.1-0.3-0.1-0.5,0l-0.1-0.1l1.7-1.6
				l0.1,0.1c-0.1,0.2-0.2,0.3-0.1,0.3c0.1,0.1,0.1,0.1,0.2,0.1l1.3,0.6l2.2-2.1l-0.4-1.2c0-0.1-0.1-0.2-0.1-0.2
				c-0.1-0.1-0.2-0.1-0.5,0.1l-0.1-0.1L103.5,100.6z M101.7,106.2l2.8,1.4l0,0l-1.2-2.9L101.7,106.2z"/>
		</g>
	</g>
	<circle class="st0" cx="15" cy="78.2" r="0.9"/>
	<path class="st0" d="M36.2,110.1c-0.5,0-0.9,0.4-0.9,0.9c0,0.5,0.4,0.9,0.9,0.9c0.5,0,0.9-0.4,0.9-0.9
		C37.1,110.6,36.7,110.1,36.2,110.1z"/>
	<circle class="st0" cx="95.3" cy="111.6" r="0.9"/>
	<circle class="st0" cx="101.2" cy="25.8" r="0.9"/>
	<circle class="st0" cx="73.7" cy="13.8" r="0.9"/>
	<g>
		<path class="st0" d="M52.3,84.9c0.2,0,1.3,0,1.5,0c0.2,0,1.3,0.1,1.9,0.2c0.2,0,0.4,0.7,0.1,0.6c-1.7-0.2-2.6-0.2-2.6-0.2
			L52.3,84.9z"/>
		<path class="st0" d="M58.2,85.2c0.4-0.1,5,0.6,5.3,0.9c0,0,0.2,0.1,0.1,0.4c-0.3,0.5-1.1-0.4-4.3-0.5c-0.6-0.1-1.6,0.1-1.5-0.4
			C57.8,85.4,58,85.3,58.2,85.2z"/>
	</g>
	<g>
		<g>
			<path class="st0" d="M48.9,48c-0.2,0.2-0.2,0.8-0.3,1c-0.1,0.1-0.6,0-0.6-0.1c0,0,0.2-1.2,0.3-1.5c-0.1-0.1,1.3,0.1,1.3,0
				c0.1-0.2-0.3-1.4-0.3-1.5c-0.2,0.1-0.4,1.5-0.4,1.5l-0.6,0c0,0,0.4-2.6,0.9-2.7c0.1,0,0.4-0.1,0.5,0.1c0.1,0.3,1.2,3.7,1.1,4
				c-0.2,0.2-0.7,0.3-0.8,0c0,0,0-0.7-0.2-0.9C49.6,48,49.1,47.9,48.9,48z"/>
		</g>
	</g>
	<g>
		<path class="st0" d="M53.5,51.4c0.2-0.1,0.8-0.1,1,0c0.4,0.2,0.5,0.5-0.2,0.6C53.3,52,53.2,51.6,53.5,51.4z"/>
		<path class="st0" d="M51.9,51.9c0,0.1-1.2,0.2-2.3,0.2c-1.3,0-2.7,0.1-2.6-0.4c0-0.4,0.8-0.4,1.6-0.4C49.3,51.4,51.9,51,51.9,51.9
			z"/>
		<path class="st0" d="M59,51.9c-0.1,0.2-1.2,0.1-1.8,0c-0.8-0.1-1.3,0.1-1.3-0.2c0-0.5,0.7-0.5,1.6-0.5
			C58.2,51.3,59.4,51.3,59,51.9z"/>
		<path class="st0" d="M64.4,53.4c-0.4,0.3-0.5-0.4-2.5-0.8c-0.7-0.2-1.4-0.2-1.6-0.3c-0.3-0.2-0.2-0.6,0.2-0.7
			C61.9,51.5,65.1,52.8,64.4,53.4z"/>
	</g>
	<g>
		<path class="st0" d="M52.3,57.1c-0.1,0.4-1.1,0.2-1.8,0.2c-1.7,0-3.6,0.2-3.6-0.2c-0.1-0.7,2.1-0.5,2.9-0.4
			C51,56.6,52.6,56.4,52.3,57.1z"/>
		<path class="st0" d="M54.9,57c-0.2,0.3-0.7,0.3-1.4,0.2c-0.2,0-0.3,0-0.4-0.2c0-0.5,0.7-0.4,1.5-0.4C54.9,56.6,55,56.8,54.9,57z"
			/>
		<path class="st0" d="M58.2,57.2c-0.2,0.1-2,0.3-2.1-0.1c-0.1-0.4,0.7-0.5,1.6-0.5C58.5,56.6,58.4,57.1,58.2,57.2z"/>
		<path class="st0" d="M64.5,58.4c-0.2,0.2-2.2-0.8-3.2-1c-0.7-0.2-1.2,0-1.8-0.1c-0.4-0.1-0.2-0.5,0.2-0.6
			C60.9,56.4,64.8,58,64.5,58.4z"/>
	</g>
	<g>
		<path class="st0" d="M51.2,59.5c-0.1,0.4-1.1,0.2-1.8,0.2c-1.7,0-2.4,0-2.5-0.6c0-0.4,0.9-0.1,1.7-0.1
			C49.8,59.1,51.4,58.8,51.2,59.5z"/>
		<path class="st0" d="M55.6,59.5c-0.1,0.4-1.2,0.2-1.8,0.2c-1.7,0-1.7,0-1.7-0.3c-0.1-0.3,0.2-0.4,1-0.4
			C54.3,59.1,55.9,58.8,55.6,59.5z"/>
		<path class="st0" d="M58.5,59.6c-0.2,0.3-0.7,0.1-1.5,0.1c-0.2,0-0.3,0-0.4-0.2c0-0.5,0.7-0.4,1.6-0.4
			C58.5,59.1,58.7,59.4,58.5,59.6z"/>
		<path class="st0" d="M64.5,60.9c-0.1,0.6-1.1-0.4-2-0.7c-0.7-0.2-2.2-0.3-2.8-0.3c-0.4-0.1-0.4-0.5,0-0.5
			C61.7,59.1,64.7,60.4,64.5,60.9z"/>
	</g>
	<g>
		<path class="st0" d="M64.7,65.7c0,0.7-1.5-0.2-2.3-0.3c-0.7-0.1-2-0.2-3-0.1c-0.4,0.1-0.4-0.6,0-0.6
			C60.3,64.5,64.8,65.2,64.7,65.7z"/>
		<path class="st0" d="M57.9,64.9c-0.2,0.3-0.9,0.2-1.6,0.2c-0.2,0-0.4-0.1-0.4-0.3c0-0.4,0.4-0.5,1.2-0.5
			C58,64.3,58,64.7,57.9,64.9z"/>
		<path class="st0" d="M51.7,64.7c-0.2,0.3-1.3,0.2-1.9,0.1c-1.7-0.3-3,0.5-3.1-0.2c0-0.5,1.6-0.4,2.4-0.4
			C50.4,64.2,52.1,64,51.7,64.7z"/>
		<path class="st0" d="M54.8,64.8c-0.2,0.4-0.7,0.3-1.3,0.3c-0.2,0-0.4,0-0.4-0.2c0-0.5,0.7-0.5,1.5-0.5
			C54.7,64.4,54.9,64.6,54.8,64.8z"/>
	</g>
	<g>
		<path class="st0" d="M49.4,72.6c-0.1,0.2-2.5,0.3-2.5-0.4c0.2-0.5,0.7-0.2,1.2-0.2C49.3,72,49.6,72.1,49.4,72.6z"/>
		<path class="st0" d="M53.7,72.4c-0.2,0.3-1.2,0.3-1.9,0.2c-0.2,0-0.6,0-0.6-0.2c0-0.5,0.6-0.6,1.4-0.6
			C53.4,71.8,53.8,72.3,53.7,72.4z"/>
		<path class="st0" d="M57.8,72.8c-0.2,0.3-0.9,0.2-1.6,0.1c-0.2,0-1.1,0.1-1.1-0.3c0-0.5,0.3-0.5,1.1-0.5
			C57.2,72.1,58,72.3,57.8,72.8z"/>
		<path class="st0" d="M64.4,73.9c-0.1,0.6-1.8-0.3-2.9-0.4c-0.8-0.1-2.1-0.2-2.2-0.2c-0.4-0.1-0.3-0.7,0-0.7
			C60.7,72.5,64.5,73.1,64.4,73.9z"/>
	</g>
	<g>
		<path class="st0" d="M56.4,43.8c0.1,0.5-1.2,0.2-2,0.3c-1.7,0.2-1.8,0.4-1.7,0C52.9,43.3,56.3,43.1,56.4,43.8z"/>
		<path class="st0" d="M57.3,44.1c-0.1-0.1-0.2-0.2,0-0.5c0.7-0.5,1.8-0.1,1.9,0.1c0.2,0.3-0.1,0.5-0.3,0.5
			C58.7,44.2,57.6,44.3,57.3,44.1z"/>
		<path class="st0" d="M64.3,45.8c-0.2,0.2-1.4-0.7-2.1-0.9c-1-0.4-2.1-0.3-2.1-0.8C60.2,43,65.2,44.9,64.3,45.8z"/>
	</g>
	<g>
		<path class="st0" d="M55.9,49.2c-0.1,0.2-1,0-1.7,0.1c-0.8,0-1.3,0.2-1.4-0.3c0-0.4,0.8-0.3,1.7-0.3
			C55.4,48.7,56.3,48.5,55.9,49.2z"/>
		<path class="st0" d="M56.8,49.3c-0.3-0.1-0.3-0.3,0-0.5c0.8-0.1,1.8,0,2,0c0.4,0.1,0.2,0.5-0.1,0.6C57.1,49.3,57.3,49.3,56.8,49.3
			z"/>
		<path class="st0" d="M64.3,50.8c-0.2,0.1-1-0.4-1.8-0.6c-0.7-0.2-1-0.2-1.2-0.4c-0.3-0.1-0.1-0.5,0-0.6
			C61.5,49.2,65.1,50.2,64.3,50.8z"/>
		<path class="st0" d="M60.7,49.3c-0.1,0.6-0.6,0.4-0.9,0.3c-0.2-0.1-0.2-0.3-0.1-0.5C59.9,48.8,60.7,49.1,60.7,49.3z"/>
	</g>
	<g>
		<path class="st0" d="M53.9,46.5c0.2,0.5-0.7,0.6-0.9,0.5c-0.2-0.1-0.2-0.3-0.1-0.5C53.1,46.3,53.8,46.4,53.9,46.5z"/>
		<path class="st0" d="M55.2,46.8c-0.1-0.1-0.2-0.3,0-0.5c0.7-0.3,2.7-0.1,2.9,0c0.5,0.3,0.2,0.6,0,0.6C56.9,46.8,55.5,47,55.2,46.8
			z"/>
		<path class="st0" d="M62.6,47.6c-0.2,0.2-1.6-0.3-2.3-0.4c-0.8-0.1-1.2-0.2-1.2-0.4c0-0.5,1.1-0.4,2.1-0.2
			C62.2,46.9,63.1,47.2,62.6,47.6z"/>
		<path class="st0" d="M64.4,48c-0.1,0.6-0.6,0.3-0.8,0.2c-0.2-0.1-0.3-0.4-0.1-0.5C63.6,47.5,64.4,47.9,64.4,48z"/>
	</g>
	<g>
		<path class="st0" d="M47.2,53.7c1-0.2,1.7,1,0.2,0.8c-0.5-0.1-0.6-0.2-0.6-0.4C46.9,54,46.9,53.8,47.2,53.7z"/>
		<path class="st0" d="M54.7,54.2c-0.2,0.4-2.3,0.3-3,0.3c-1.7,0-2.3,0-2.5-0.3c0-0.5,1-0.4,1.8-0.4C51.8,53.8,54.9,53.5,54.7,54.2z
			"/>
		<path class="st0" d="M58.3,54.4c-0.1,0.2-0.3,0.1-1,0.1c-0.8,0-1.2,0-1.3-0.3c0-0.4,0.8-0.5,1.6-0.4
			C58.4,53.8,58.4,54.2,58.3,54.4z"/>
		<path class="st0" d="M62.5,55.2c-0.5,0.4-0.8-0.3-1.7-0.4c-0.7-0.1-1.4-0.1-1.9-0.2c-0.4-0.2-0.2-0.6,0.1-0.7
			C61.2,53.8,63,54.8,62.5,55.2z"/>
		<path class="st0" d="M64.1,55.9c-0.1,0.5-0.4,0.5-0.8,0.2c-0.2-0.1-0.3-0.4-0.2-0.6C63.3,55.3,64,55.5,64.1,55.9z"/>
	</g>
	<g>
		<path class="st0" d="M51.9,62c-0.1,0.4-1.5,0-2.2,0c-1.7,0-2.8,0.5-2.8-0.1c0-0.5,1.6-0.4,2.4-0.4C50.5,61.6,52.1,61.4,51.9,62z"
			/>
		<path class="st0" d="M59.7,62c0.3,0.7-2.1,0.3-2.8,0.3c-0.2,0-0.3,0-0.4-0.2c0-0.5,0.7-0.5,1.5-0.5C58.2,61.6,59.6,61.8,59.7,62z"
			/>
		<path class="st0" d="M64.5,63.1c-0.1,0.3-0.9-0.2-1.7-0.5c-0.4-0.2-1.1,0.1-1.6,0c-0.4-0.1-0.6-0.5-0.3-0.7
			C61.4,61.7,64.7,62.5,64.5,63.1z"/>
		<path class="st0" d="M55.3,62.1c-0.2,0.1-2.4,0.3-2.6-0.1c-0.1-0.4,0.7-0.5,1.6-0.5C55.5,61.6,55.6,62,55.3,62.1z"/>
	</g>
	<g>
		<path class="st0" d="M64.1,68.1c-0.2,0.5-1.8-0.3-2.9-0.3c-0.8,0-1.2,0-1.3,0c-0.4-0.1-0.4-0.6,0-0.7
			C61.1,66.9,64.3,67.5,64.1,68.1z"/>
		<path class="st0" d="M56.7,67.4c-0.2,0.3-0.7,0.2-1.3,0.1c-0.2,0-1.1,0.3-1.4,0c-0.1-0.5,1.1-0.6,1.6-0.5
			C56.4,66.9,56.8,67.2,56.7,67.4z"/>
		<path class="st0" d="M52.1,67.4c-0.2,0.4-2.5,0-3.1-0.1c-1.3-0.1-2.1,0.4-2.1-0.3c0.2-0.4,2.3-0.2,2.8-0.2
			C50.9,66.9,52.4,66.8,52.1,67.4z"/>
		<path class="st0" d="M58.9,67.1c0.2,0.5-0.7,0.6-0.9,0.5c-0.2-0.1-0.2-0.3-0.1-0.5C58.1,66.9,58.7,66.9,58.9,67.1z"/>
	</g>
	<g>
		<path class="st0" d="M72.1,43.9c1,0,1.1,0.2,1,0.6c-0.1,0.2-1.3,0.1-1.7,0.1c-1.2,0-1.7,0.8-2.2,0.6c-0.5-0.2-0.2-0.6,0.3-0.8
			C70.1,44.3,71,43.9,72.1,43.9z"/>
		<path class="st0" d="M74.6,43.8c0,0,1.4,0.1,1.7,0.2c0.4,0.2,0.3,0.5,0.2,0.6c-0.1,0.1-2-0.1-2.1-0.2c-0.1-0.1-0.2-0.1-0.2-0.3
			C74.1,44,74.2,43.8,74.6,43.8z"/>
		<path class="st0" d="M86.9,44c0.4,0.1,0.6,0.7,0.2,0.8c-1.5,0.2-1.7,0.1-1.8-0.1C84.9,43.9,86.8,44,86.9,44z"/>
		<path class="st0" d="M81.7,44.3c0,0,1.7,0,2,0.1c0.2,0,0.4,0.3,0.1,0.6c-0.1,0.2-2.3,0.2-2.5-0.5C81.5,44.6,81.4,44.4,81.7,44.3z"
			/>
		<path class="st0" d="M78.1,44.2c0,0,1.5,0.1,1.8,0.2c0.2,0,0.6,0.3,0.3,0.5c-0.1,0.2-2.3,0.3-2.5-0.5
			C77.8,44.5,77.7,44.2,78.1,44.2z"/>
	</g>
	<g>
		<path class="st0" d="M74.4,46.6c0.2-0.5,1.4-0.4,1.8-0.1c0,0,0.1,0.2-0.1,0.4C75.2,47.3,74.2,46.9,74.4,46.6z"/>
		<path class="st0" d="M77.9,46.8c0.4-0.3,1.9,0,1.4,0.6c-0.1,0.1-1.2,0.2-1.6,0C77.7,47.4,77.5,47.1,77.9,46.8z"/>
		<path class="st0" d="M83.1,47.1c0.6,0.7-1.3,0.7-1.5,0.6c-0.2,0-0.7-0.1-0.7-0.3C80.8,46.8,82.7,46.6,83.1,47.1z"/>
		<path class="st0" d="M87.1,46.7c0.3,0.9-1.3,0.8-1.5,0.8c-0.2,0-0.7,0-0.8-0.3C84.8,46.6,86.9,46.2,87.1,46.7z"/>
		<path class="st0" d="M72.1,46c0.4,0,1.2,0,1.2,0.4c-0.3,0.5-1.9,0.4-2.2,0.5c-1.4,0.2-1.7,0.8-2.2,0.6c-0.5-0.2-0.2-0.6,0.3-0.8
			C69.8,46.5,71.1,46,72.1,46z"/>
	</g>
	<g>
		<path class="st0" d="M78.9,49.4c0.1,0.3-0.1,0.4-0.1,0.4c-0.1,0.2-1.5,0.1-1.8-0.4c0-0.1,0-0.5,0.4-0.4
			C77.8,49.1,78.9,48.7,78.9,49.4z"/>
		<path class="st0" d="M80.4,49.1c0.1,0,2.6,0,1.9,0.7c-0.1,0.1-0.3,0.2-0.5,0.2c-0.6,0-1.7-0.1-1.8-0.2c-0.1-0.1-0.1-0.3,0-0.5
			C80.1,49.2,80.2,49.1,80.4,49.1z"/>
		<path class="st0" d="M83.8,49.1c1.8,0.4,3.1-0.2,3.3,0.2c0.2,0.4,0,0.5,0,0.5c-0.2,0.2-3.7,0.3-3.8-0.3
			C83.2,49.3,83.6,49.1,83.8,49.1z"/>
		<path class="st0" d="M75.7,49.1c0.4,0.6-0.9,0.5-1,0.5c-0.2,0-0.5-0.1-0.5-0.3C74.1,48.7,75.4,48.6,75.7,49.1z"/>
		<path class="st0" d="M71.6,48.6c0.4,0,1-0.2,1.2,0.3c-0.3,0.7-1.1,0.3-2.2,0.5c-1.4,0.2-1.4,0.6-1.8,0.3c-0.3-0.3,0-0.5,0.6-0.8
			C69.8,48.8,70.5,48.6,71.6,48.6z"/>
	</g>
	<g>
		<path class="st0" d="M87.1,51.8c-0.2,0.1-1.2,0.4-1.5,0c0,0-0.1-0.5,0.2-0.6c0.2-0.1,0.6,0,0.9,0l0.3-0.1
			C87.3,51.1,87.6,51.7,87.1,51.8z"/>
		<path class="st0" d="M74.9,51.2c0.8-0.1,2.2,0.1,2,0.6c-0.1,0.4-0.5,0.2-0.8,0.2c-0.5,0-2.2,0.1-2-0.5
			C74.1,51.3,74.7,51.3,74.9,51.2z"/>
		<path class="st0" d="M79.6,51.4c0.3,0,0.8,0.6,0.6,0.7c-0.2,0.2-1.8,0.2-2.2,0c0-0.1-0.2-0.4,0-0.5C78.2,51.5,79.2,51.4,79.6,51.4
			z"/>
		<path class="st0" d="M82.9,51.4c0,0,1,0,1,0c0.5,0,0.3,0.6,0.2,0.6c-0.1,0.1-0.9,0.2-1.4,0.2c-0.3,0-1.3,0.1-1.3-0.4
			C81.6,51.2,82.5,51.5,82.9,51.4z"/>
		<path class="st0" d="M71.7,51c0.4,0,1-0.2,1.2,0.3c-0.3,0.8-1.1,0.3-2.2,0.5c-1.4,0.2-1.7,0.6-1.9,0.2c-0.1-0.4,0.1-0.4,0.7-0.6
			C70,51.2,70.7,51,71.7,51z"/>
	</g>
	<g>
		<path class="st0" d="M73.6,54c0.2,0,0.7,0.1,0.9,0.3c0.2,0.2,0.1,0.4,0,0.5c-1.8,0.2-1.7-0.2-1.7-0.2C72.7,54,73.3,54,73.6,54z"/>
		<path class="st0" d="M87.1,54.3c0.8,0.4-0.5,0.8-1.4,0.6c-0.1,0-0.2-0.1-0.3-0.2C85.2,54.2,86.7,54.2,87.1,54.3z"/>
		<path class="st0" d="M77.2,54c0.4,0.1,0.5,0.7,0,0.8c-0.1,0-1.8,0.3-1.8-0.2C75.4,53.7,77.1,54,77.2,54z"/>
		<path class="st0" d="M84.7,54.5c0.1,0.5-0.4,0.5-0.8,0.4c-0.6-0.1-2.3,0.2-2.3-0.3c0.1-0.3,0.8-0.2,1-0.2
			C83.2,54.2,84.6,54.2,84.7,54.5z"/>
		<path class="st0" d="M80.4,54.9c-0.2,0.4-1.9,0.2-1.7-0.4C78.8,54.3,80.6,54,80.4,54.9z"/>
		<path class="st0" d="M70.7,53.8c0.4,0,1.1-0.1,1.2,0.5c-0.5,0.4-1.1,0.1-2.2,0.4c-1,0.2-1.3,0.4-1.2-0.1
			C68.5,54.1,69.7,53.8,70.7,53.8z"/>
	</g>
	<g>
		<path class="st0" d="M73.2,56.7c0,0,1.4-0.2,1.8,0.1c0.1,0.1,0.4,0.3,0.2,0.6C75.1,57.6,73,57.6,73,57C73,57,72.9,56.8,73.2,56.7z
			"/>
		<path class="st0" d="M76.7,57c0.5-0.2,2.1,0.2,1.4,0.8c-0.1,0.1-1.3,0-1.7-0.3C76.4,57.4,76.3,57.2,76.7,57z"/>
		<path class="st0" d="M79.8,57.1c0.4-0.1,1.8,0.2,1.2,0.7c-0.1,0.1-1,0.2-1.3-0.1C79.6,57.6,79.4,57.2,79.8,57.1z"/>
		<path class="st0" d="M83.9,57.3c-0.5,0.1-1.2,0.2-1.2,0.5c0.1,0.3,0.4,0.2,1.5,0.2c0.5,0,2,0.2,2.4,0.1c0.4-0.1,0.4-0.5,0.3-0.5
			C86,57.6,85.2,57.2,83.9,57.3z"/>
		<path class="st0" d="M70.8,56.7c0.4,0,1.1-0.2,1.1,0.4c-0.4,0.5-1,0.3-2.2,0.6c-1,0.2-1.3,0.4-1.2-0.2
			C68.6,57.1,69.8,56.7,70.8,56.7z"/>
	</g>
	<g>
		<g>
			<path class="st0" d="M73.6,60.1c0,0,0.8,0,0.9,0c0.4,0,0.2,0.5,0.2,0.6c0,0.1-0.7,0.2-1.2,0.1c-0.2,0-0.7-0.2-0.7-0.5
				C72.9,60,73.3,60.1,73.6,60.1z"/>
		</g>
		<g>
			<path class="st0" d="M76.4,60.1c0.1,0,2.4,0,1.8,0.6c-0.1,0.1-0.3,0.2-0.4,0.2c-0.6,0-1.5-0.1-1.7-0.2c-0.1-0.1-0.1-0.2,0-0.4
				C76.1,60.2,76.3,60.1,76.4,60.1z"/>
		</g>
		<path class="st0" d="M79.9,60.2c0.4-0.2,1.8,0.4,1.3,0.9c-0.1,0-1.2,0-1.5-0.3C79.6,60.7,79.4,60.4,79.9,60.2z"/>
		<path class="st0" d="M82.9,60.5c0.1,0,2.6,0,1.9,0.7c-0.1,0.1-0.3,0.2-0.5,0.2c-0.6,0-1.7-0.1-1.8-0.2c-0.1-0.1-0.1-0.3,0-0.5
			C82.6,60.6,82.8,60.5,82.9,60.5z"/>
		<path class="st0" d="M70.7,59.9c0.5,0,1.3-0.2,1.2,0.4c-0.4,0.5-0.8,0.3-1.9,0.5c-1,0.2-1.3,0.4-1.2-0.2
			C68.8,60.2,69.7,60,70.7,59.9z"/>
		<path class="st0" d="M86,60.7c0.4-0.1,1.8,0.2,1.2,0.7c-0.1,0.1-1,0.2-1.3-0.1C85.8,61.3,85.6,60.9,86,60.7z"/>
	</g>
	<g>
		<g>
			<path class="st0" d="M77.9,65.5c0.1,0,2.4,0,1.8,0.6c-0.1,0.1-0.3,0.2-0.4,0.2c-0.6,0-1.5-0.1-1.7-0.2c-0.1-0.1-0.1-0.2,0-0.4
				C77.6,65.6,77.7,65.6,77.9,65.5z"/>
		</g>
		<g>
			<path class="st0" d="M81.5,65.9c0.7-0.1,2,0.1,1.8,0.7c-0.1,0.4-0.5,0.1-0.7,0.1c-0.5,0-2,0.2-1.8-0.4
				C80.8,66,81.4,65.9,81.5,65.9z"/>
		</g>
		<path class="st0" d="M84.3,66.6c0,0.4,1.7,0.9,1.7,0.3C86,66.7,84.4,65.8,84.3,66.6z"/>
		<g>
			<path class="st0" d="M76,65.5c0,0-1.2-0.3-1.7-0.2c-0.1,0-0.3,0.3-0.2,0.6c0.1,0.2,2,0.4,2-0.1C76.2,65.8,76.2,65.6,76,65.5z"/>
		</g>
		<path class="st0" d="M71.4,65.2c0.4,0,1.9,0,1.9,0.6c-0.2,0.5-1.4,0-3,0.2c-1,0.1-1.3,0.4-1.2-0.2C69.1,65.5,70.4,65.2,71.4,65.2z
			"/>
	</g>
	<g>
		<path class="st0" d="M83.3,63.3c0.1,0,2.6,0,1.9,0.7c-0.1,0.1-0.3,0.2-0.5,0.2c-0.6,0-1.7-0.1-1.8-0.2c-0.1-0.1-0.1-0.3,0-0.5
			C83,63.4,83.1,63.3,83.3,63.3z"/>
		<path class="st0" d="M81,63.6c-0.2,0.4-1.9,0.2-1.7-0.4C79.4,63,81.2,62.8,81,63.6z"/>
		<g>
			<path class="st0" d="M76.1,62.8c0.1,0,2.4,0,1.8,0.6c-0.1,0.1-0.3,0.2-0.4,0.2c-0.6,0-1.5-0.1-1.7-0.2c-0.1-0.1-0.1-0.2,0-0.4
				C75.8,62.9,76,62.8,76.1,62.8z"/>
		</g>
		<path class="st0" d="M74.2,62.9c0.4,0.6-0.9,0.5-1,0.5c-0.2,0-0.5-0.1-0.5-0.3C72.6,62.5,73.9,62.4,74.2,62.9z"/>
		<path class="st0" d="M71.8,62.6c0.1,0.4-0.2,0.7-1.3,0.6c-0.6,0-1.4,0.8-1.7,0.1c-0.1-0.2,0.1-0.4,0.7-0.6
			C70,62.6,71.7,62.2,71.8,62.6z"/>
	</g>
	<g>
		<path class="st0" d="M75.1,67.9c0.5-0.2,2.3,0.2,1.5,0.8c-0.1,0.1-1.4,0-1.8-0.2C74.8,68.4,74.7,68.1,75.1,67.9z"/>
		<g>
			<path class="st0" d="M78.6,68.4c0.4-0.1,1.8,0.2,1.2,0.7c-0.1,0.1-1.1,0-1.4-0.3C78.3,68.8,78.2,68.5,78.6,68.4z"/>
		</g>
		<g>
			<path class="st0" d="M83,69.1c0.4,0.7-1.1,0.5-1.3,0.5c-0.2-0.1-0.5-0.2-0.5-0.4C81.2,68.6,82.7,68.6,83,69.1z"/>
		</g>
		<path class="st0" d="M85,69.3c-0.4-0.2-1-0.3-1.1,0.2c0,0.2,0.4,0.4,0.7,0.5C85.2,70.2,85.4,69.5,85,69.3z"/>
		<path class="st0" d="M69.4,68.1c0.1-0.1,4.1-0.6,3.9,0.1c0,0.1,0.2,0.3-2,0.4c-0.6,0-2.2,0.3-2.3,0.2
			C68.9,68.7,68.7,68.4,69.4,68.1z"/>
	</g>
	<g>
		<path class="st0" d="M73.9,75.6c0,0,1.4-0.1,1.8,0.2c0.1,0.1,0.4,0.3,0.2,0.6c-0.1,0.2-2.2,0.2-2.2-0.4
			C73.7,75.9,73.6,75.6,73.9,75.6z"/>
		<g>
			<path class="st0" d="M77.8,76.1c0.1,0,2.4,0.1,1.7,0.7c-0.1,0.1-0.3,0.2-0.4,0.2c-0.6,0-1.5-0.2-1.7-0.3c-0.1-0.1-0.1-0.2,0-0.4
				C77.5,76.1,77.6,76.1,77.8,76.1z"/>
		</g>
		<path class="st0" d="M81.9,77.3c-0.6-0.1-1.6-0.4-1.4-0.8c0.2-0.3,0.8,0.1,1,0.1C82.8,76.4,83,77.5,81.9,77.3z"/>
		<path class="st0" d="M85.1,77.6c-0.6,0-1.6-0.2-1.5-0.6c0.1-0.3,0.6-0.1,0.8-0.1C86,76.3,86.2,77.5,85.1,77.6z"/>
		<path class="st0" d="M72.1,75.8c0.1,0.4-0.5,0.3-1.6,0.3c-1,0-1.8,0.9-2,0.3c-0.1-0.2,0.1-0.4,0.7-0.6
			C69.7,75.5,72.1,75.4,72.1,75.8z"/>
	</g>
	<g>
		<g>
			<path class="st0" d="M74.1,73c0,0,0.9,0.1,1,0.1c0.5,0,0.3,0.5,0.2,0.5c-0.1,0.1-0.8,0.1-1.3,0.1c-0.3,0-0.7-0.2-0.8-0.5
				C73.3,72.9,73.8,73,74.1,73z"/>
		</g>
		<g>
			<path class="st0" d="M77.2,73.1c0.1,0,2.4,0.1,1.7,0.7c-0.1,0.1-0.3,0.2-0.5,0.2c-0.6,0-1.5-0.2-1.7-0.3c-0.1-0.1-0.1-0.2,0-0.4
				C76.9,73.2,77.1,73.1,77.2,73.1z"/>
		</g>
		<path class="st0" d="M80.4,73.5c0.4-0.2,2,0,1.5,0.8c-0.2,0.2-1.5,0.1-1.8-0.2C80.1,73.9,80,73.6,80.4,73.5z"/>
		<g>
			<path class="st0" d="M83.1,73.9c0.1,0,1.1-0.1,1.1,0.6c0,0.5-1.3,0.1-1.4,0c-0.1-0.1-0.1-0.2,0-0.4C82.8,74,82.9,73.9,83.1,73.9z
				"/>
		</g>
		<path class="st0" d="M72.6,73.2c0.2,0.4-0.5,0.6-1.5,0.5c-1,0-1.8,0.6-2.1,0c-0.1-0.2,0.8-0.6,2-0.7
			C71.4,73.1,72.4,72.9,72.6,73.2z"/>
	</g>
	<g>
		<g>
			<path class="st0" d="M74.5,70.3c0.1,0,1.7,0,1.3,0.6c-0.1,0.1-0.2,0.2-0.3,0.2c-0.4,0-1.1-0.1-1.2-0.2c-0.1-0.1-0.1-0.2,0-0.4
				C74.3,70.4,74.4,70.3,74.5,70.3z"/>
		</g>
		<path class="st0" d="M77.2,70.5c0.4-0.2,2.8,0.2,2,1c-0.1,0-1.9-0.1-2.3-0.4C76.9,71,76.7,70.7,77.2,70.5z"/>
		<path class="st0" d="M82.3,71.2c0.4,0,2.1,0.3,2,0.9c0,0.1-0.6,0.1-0.9,0c-0.9-0.2-1.4-0.4-2.2-0.4c-0.3,0-0.3-0.3-0.2-0.5
			C81.1,71.1,82.1,71.2,82.3,71.2z"/>
		<path class="st0" d="M72.8,70.7c0.1,0.7-0.9,0.4-1.9,0.3c-1,0-1.8,0.7-2,0.1c-0.1-0.2,0.1-0.4,0.7-0.6
			C70.1,70.3,72.8,70.2,72.8,70.7z"/>
	</g>
	<g>
		<path class="st0" d="M83.8,78.9c0.1,0,2.6,0.1,1.9,0.8c-0.1,0.1-0.3,0.2-0.5,0.2c-0.6,0-1.7-0.2-1.8-0.3c-0.1-0.1-0.1-0.3,0-0.5
			C83.5,79,83.7,78.9,83.8,78.9z"/>
		<path class="st0" d="M82.2,79.4c-0.2,0.4-1.9,0.1-1.7-0.5C80.6,78.7,82.4,78.5,82.2,79.4z"/>
		<g>
			<path class="st0" d="M77.8,78.3c0.1,0,2.3,0.1,1.7,0.7c-0.1,0.1-0.3,0.2-0.4,0.2c-0.6,0-1.5-0.2-1.7-0.3c-0.1-0.1-0.1-0.2,0-0.4
				C77.4,78.4,77.6,78.4,77.8,78.3z"/>
		</g>
		<path class="st0" d="M75.6,78.2c0.4,0.7-0.9,0.5-1.1,0.4c-0.2,0-0.5-0.1-0.5-0.3C74,77.7,75.3,77.7,75.6,78.2z"/>
		<path class="st0" d="M70.9,77.9c0.4,0,1.2-0.2,1.1,0.4c-0.4,0.5-1,0.3-2.2,0.6c-1,0.2-1.3,0.4-1.2-0.2
			C68.7,78.3,69.9,77.9,70.9,77.9z"/>
	</g>
	<g>
		<path class="st0" d="M82.1,81.3c0.1,0,2.6,0,1.9,0.7c-0.1,0.1-0.3,0.2-0.5,0.2c-0.6,0-1.7-0.1-1.8-0.2c-0.1-0.1-0.1-0.3,0-0.5
			C81.7,81.4,81.9,81.4,82.1,81.3z"/>
		<path class="st0" d="M75.4,80.5c-0.6,0-2.9,0-2.9,0.4c0,0.2,0.8,0.3,1,0.3c0.1,0,1.4,0,1.7-0.2c0.4,0.1,0.5,0,1,0
			c0.2,0,0.5,0,0.6-0.1C77.3,80.5,76,80.5,75.4,80.5z"/>
		<path class="st0" d="M69.2,81.1c0,0,1.2-0.4,1.8-0.2c0.2,0,0.3,0.2,0.2,0.5c-0.6,0-1.8,0.2-2,0.4C69.2,81.7,69,81.2,69.2,81.1z"/>
	</g>
	<path class="st0" d="M70.2,83.5c0.4-0.1,1.2-0.2,1.2,0.4c-0.4,0.5,0-0.1-1.1,0.2c-1,0.2-1.4,0.7-1.4,0.1
		C68.9,83.8,69.4,83.6,70.2,83.5z"/>
	<g>
		<path class="st0" d="M54.5,69.5c0.6-0.1,2.1,0.6,0.5,0.8c-0.1,0-1,0-1.1-0.1C53.3,69.6,54.3,69.5,54.5,69.5z"/>
		<path class="st0" d="M52.7,69.9c0,0.4-1.8,0.3-3.1,0.2c-1.6-0.1-2.6,0.1-2.6-0.4c0.1-0.6,1.7-0.2,2.5-0.2
			C50.6,69.6,52.7,69.1,52.7,69.9z"/>
		<path class="st0" d="M62,70.5c-0.1,0.6-2.5-0.2-3.6-0.2c-0.8,0-1.4-0.1-1.5-0.1c-0.4-0.1-0.4-0.6,0-0.7C57.7,69.4,62.1,70,62,70.5
			z"/>
		<path class="st0" d="M64.2,71.7c-0.2,0.3-0.5,0-1.1-0.2c-0.2-0.1-0.5-0.2-0.4-0.5c0.3-0.4,0.8-0.1,1,0.1
			C64.2,71.4,64.3,71.6,64.2,71.7z"/>
	</g>
	<g>
		<path class="st0" d="M60,78.5c0,0.6-2.5-0.3-3.6-0.3c-0.8,0-2.1,0-2.2,0c-0.4-0.1-0.4-0.6,0-0.7C55.4,77.3,60,77.7,60,78.5z"/>
		<path class="st0" d="M52.7,77.9c0,0.3-1.6,0.2-3.1,0.1c-2.6,0-2.7-0.1-2.6-0.5c0.2-0.6,1.6-0.4,2.4-0.4
			C50.7,77.1,52.8,77.1,52.7,77.9z"/>
		<path class="st0" d="M64.3,79.8c-0.2,0.3-1.1-0.3-1.8-0.4c-0.2,0-1-0.1-1-0.4c0-0.4,0.6-0.4,1.5-0.2C63.9,79,64.6,79.4,64.3,79.8z
			"/>
	</g>
	<g>
		<path class="st0" d="M62,76c-0.2,0.8-1.1-0.1-3.6-0.2c-0.8,0-1.4-0.1-1.5-0.1c-0.4-0.1-0.4-0.6,0-0.6C58.1,74.8,62.1,75.4,62,76z"
			/>
		<path class="st0" d="M54.7,74.7c0.7-0.1,2.2,0.6,0.5,0.7c-0.1,0-1,0-1.1-0.1C53.5,74.9,54.5,74.8,54.7,74.7z"/>
		<path class="st0" d="M52.6,75.1c0,0.6-2.8,0.2-3.4,0.2c-1.7-0.1-2.3,0.2-2.3-0.5c0.1-0.6,1.7-0.2,2.5-0.2
			C50.6,74.6,52.7,74.3,52.6,75.1z"/>
		<path class="st0" d="M63.5,76.3c0.6,0.2,1.6,1.6,0.1,0.9c-0.1,0-0.9-0.4-1-0.6C62.4,75.9,63.4,76.3,63.5,76.3z"/>
	</g>
	<g>
		<path class="st0" d="M64,88.5c0.1,0,0.4,0,0.2,0.5c-0.2,0.3-4.5-0.4-4.8-0.5C59,88.4,59,88.3,59,88c0.1-0.3,0.4-0.2,0.5-0.2
			C59.7,87.8,63.9,88.4,64,88.5z"/>
		<path class="st0" d="M57.6,88c-0.2,0.2-2,0.3-2-0.2c0-0.5,0.5-0.3,1.3-0.2C57.8,87.5,57.7,87.7,57.6,88z"/>
	</g>
	<g>
		<path class="st0" d="M61.5,83.7c0,0.4-2.8-0.2-3.9-0.2c-0.8,0-2.1-0.1-2.2-0.1c-0.4-0.1-0.4-0.6,0-0.7
			C56.6,82.5,61.6,82.9,61.5,83.7z"/>
		<path class="st0" d="M54,83.1c-0.2,0.2-4.9,0.2-4.9-0.3c0-0.5,1.6-0.4,2.4-0.3C54.5,82.3,54.1,82.9,54,83.1z"/>
		<path class="st0" d="M63.9,84.6c-0.2,0.2-1.7-0.2-1.5-0.6c0.2-0.4,0.5-0.4,1.2-0.1C64.4,84.1,64.1,84.4,63.9,84.6z"/>
	</g>
	<path class="st0" d="M71.3,87.9c0.4,0,0.7-0.3,0.7,0.3c-0.1,0.4-0.6,0.2-1.8,0.5c-1,0.2-1.3,0.5-1.2-0.1
		C69.1,88.3,70.2,88,71.3,87.9z"/>
	<path class="st0" d="M71.2,85.7c0.4,0,0.9-0.2,0.8,0.4c-0.2,0.3-0.8,0.1-2,0.4c-1,0.2-1.2,0.6-1.2,0C69,86.1,70.2,85.7,71.2,85.7z"
		/>
	<g>
		<g>
			<path class="st0" d="M47.1,44.1C47,44.2,47,44.2,47,45c0,0.4,0,0.9,0,1.6l0,1.7c0,0.3,0,0.6,0,0.8c0,0.3,0,0.6,0,0.8
				c0,0.3,0.4,0.3,1,0.2l0.9-0.1l0.9,0c1.6,0,1.8-0.1,1.9-0.2c0-0.1,0-0.3,0-0.9c-0.1-0.6-0.1-1.4-0.1-2.1c0.1-2.7-0.2-2.8-0.3-2.9
				C50.6,43.6,47.9,44,47.1,44.1z M51.2,44.1c0.1,0.1,0.2,0.6,0.2,1.9c0,0.2,0,0.5,0,0.7c0,0.1,0,0.2,0,0.2c0,0.7,0.1,1.4,0.1,1.9
				c0,0.3,0.1,0.6,0.1,0.7c0,0,0,0,0,0.1c-0.2,0.1-1,0.1-1.7,0.1l-0.9,0L48,49.9c-0.3,0-0.7,0.1-0.7,0c0-0.3,0-0.9,0-1.6l0-1.7v0
				c0-0.5,0-1.2,0-1.6c0-0.3,0-0.5,0-0.6C48.2,44.2,50.6,43.9,51.2,44.1z"/>
		</g>
	</g>
	<path class="st0" d="M48.9,110.9c-1.5,0.4-2.2,2.8-3.7,7.8l-0.6,2c-0.3,1-0.1,2.1,0.6,3c2.8,3.6,13.1,5,22.1,4.7
		c9.3,0.3,21-2.5,22.5-6c0.3-0.7,0.2-1.4-0.4-1.9c-1.5-1.5-2.2-3.8-2.7-5.7c-0.6-2-1-3.5-2.4-3.5h-0.1l-0.1,0
		c-3.4,1-7.3,2.2-8.5,2.5c-0.7,0.1-2.9,0.8-4.3,1c-1.6,0.3-3.3,0.5-4.1,0.6c-3.4,0.1-8.2-1.1-9.2-1.7l0,0l0,0
		C54.7,112.4,49.9,110.7,48.9,110.9z M53.8,113.1L53.8,113.1c1.2,0.7,8.9,2.9,10.6,3c1.2,0.1,5.4,0,7.1-0.3c1.4-0.2,2.5-0.6,3.1-0.7
		c1.4-0.1,8.6-2.3,9.8-2.7c0.4,0.1,0.8,1.6,1.1,2.6c0.6,2,1.3,4.4,3,6.2c0.1,0.1,0.2,0.3,0.2,0.4c0,0.1,0,0.1-0.1,0.2
		c-1,2.2-10.6,5.9-20.3,5.6c-10.2,0.3-20.1-1.3-22.2-4c-0.3-0.4-0.5-1.4-0.5-1.9c0-0.2,0-0.4,0.1-0.6l0.6-2c0.9-3.1,2-6.7,2.8-6.9
		C49.9,112.1,49.9,111.7,53.8,113.1z"/>
	<path class="st0" d="M127.8,63.7c-0.6-3.3-0.6-6.1-0.7-8.3c-0.1-2.3-0.1-4-0.7-5l0,0.1l-4.9-12l0,0.1c-1-3.5-9.5-13.5-10-14.1
		c0,0,0,0,0,0.1l-0.1-0.1c0,0,0,0,0,0c-1-1.6-6.8-5.9-8.4-6.8c-0.1,0-6.4-4.4-6.4-4.4c-2.6-1.9-6.8-3.5-10.3-4.7l-4.1-1.4
		c-5.1-1.8-13-2-14.1-1.9c-0.4,0-2.4,0-2.8,0c-1.1-0.1-9,0.1-13.8,1.9l-3,1.1c-3.8,1.1-7.3,2.1-9.9,4c0,0-7.1,5-7.4,5.2
		c-1.6,0.8-8.9,6.1-9.9,7.7c0,0,0,0,0,0l-0.1,0.1c0,0,0,0,0-0.1c-0.5,0.6-8.1,9.7-9.1,13.2l0-0.1l-5,12.1c0,0,0,0,0,0l0,0.1l0,0
		c-0.5,1-0.4,3-0.5,5.3c-0.1,2.2-0.3,4.7-0.8,8c-0.4,2.6-0.1,4.9,0.2,7.7c0.3,2.8,0.4,6.1,1,8.5c0.4,2.1,1,3.9,1.1,5.2
		c0.7,3.3,2.4,7.6,3.2,8.8c0.6,0.9,1.8,2.5,1.8,2.5c1,1.4,2.2,3,2.9,4.2c0.7,1.2,1,1.9,1.6,2.9c0.8,1.4,1.5,2.7,2.4,3.9
		c0.8,1.2,1.7,2.2,2.9,3.2c0.3,0.2,3,2,4.2,2.9c1.5,1,2,1.3,2.3,1.6l0.9,0.9c2.6,2.6,4.5,4.7,6.2,5.6c0.6,0.4,2.3,0.8,2.9,0.8
		c0.5,0,1-0.1,1.4-0.3c0.7-0.4,1.2-1.1,1.4-2.2c0-0.2,0.5-1.1,0.9-2.1c2.3-5.4,3.1-7.5,3.1-8.4c0-0.1,0-0.2,0-0.2
		c-0.1-0.5-0.4-0.7-0.7-0.9c-1.4-0.8-2.1-1-3.5-2c-1.3-0.9-4.3-3.4-5.7-4.2c-0.9-0.6-1-1.1-2.1-2.2c-1-1-1.9-2-2.8-2.7
		c-1.1-0.9-3.1-3.9-3.8-5c-2.3-3.7-6-11-6.8-18.1c-0.1-0.9-0.1-3.3-0.1-5.4c0-1.8,0-3.3-0.1-4c0.1-1.5,0.5-5.4,0.8-6.4
		c0.3-0.7,0.5-2.3,0.8-3.5c0.2-1.1,0.5-2.7,0.7-3.2c0-0.1,1-3,1.7-4.3c0,0,3.3-6.2,3.3-6.2c0-0.1,1.7-3.5,2.9-4.8l1.3-1.3
		c1.3-1.5,2.7-2.9,4-4c2.1-1.6,5.4-3.8,8.3-5.2l4-2c1.4-0.7,2.2-1.1,3.3-1.5c0.1,0,8-2.5,13.3-2.9c0.1-0.3,0.3-0.6,0.4-0.9
		c-5.4,0.4-12.9,2.4-13.3,2.5c-1.3,0.4-2.1,0.8-3.6,1.6l-5.7,2.8c-3.8,1.8-5.8,3.5-6.8,4.3c-1.4,1.1-2.5,1.9-3.9,3.4l-1.2,1.3
		c-1.4,1.4-3.9,6.3-3.9,6.4l-2.2,3.8c-0.7,1.3-3,7.1-3,7.2c-0.2,0.6-0.5,1.7-0.7,2.8c-0.3,1.2-0.7,2.4-0.8,3.1
		c-0.3,4.6-0.6,6.6-0.6,7.1l0,0l0,0c0.1,0.6-0.2,2.3-0.2,3.7c0.1,2.2,0.1,4.5,0.2,5.5c0.4,4.2,2.8,11.2,5.2,15.2
		c0.1,0.2,1.8,3.9,6.1,8.9c0.6,0.8,2.3,2.2,3.2,3.1c1.2,1.2,1.5,1.8,2.6,2.5c1.3,0.8,2.6,1.7,3.8,2.6c1.4,1,2.8,2,4.3,2.9
		c0,0,0,0,0.1,0c0,0,0,0,0,0c0,0.5-0.8,2.5-1.6,4.4c-0.5,1.3-1.1,2.6-1.4,3.4c-0.7,1.7-0.9,2.1-0.9,2.3c-0.2,0.7-0.4,1.2-0.8,1.4
		c-0.5,0.3-1,0.5-2,0.1c-1.4-0.5-2.5-1.7-3.9-3c-1.2-1.1-2.3-2.2-3.1-3l-1.6-1.3c-0.3-0.3-1.2-1-3.4-2.5c-0.5-0.3-1-0.6-1.5-0.9
		c-0.5-0.4-1.7-1.6-1.9-1.7c-2.2-1.8-2.7-3.1-4.2-5.8c-1.2-2.1-2.9-5.1-3.4-5.7l-1.3-1.7c-2.2-3-4-5.4-4.6-10.5
		c-0.1-1.4-0.6-2.6-1.1-4.7c-0.2-1-0.3-2.6-0.5-3.6c-0.8-4.1-1.5-8.8-0.8-12.8c0.6-3.4,0.5-5.5,0.5-7.8c0.1-2.1,0.1-3.7,0.5-4.4
		L8.4,51l4.3-11.3l0,0c0.5-1.7,3.9-7.2,5.3-9.1c1.3-1.9,4.8-5.6,4.9-5.7l0,0l0,0c0.6-1.1,6.5-5.1,8.3-6l0,0l7.5-5.2
		c2.5-1.8,7.2-3.3,10.6-4.3l2.5-0.8c4.8-1.7,12-2.3,12.9-2.2c0.5,0,2.5,0,3,0c1-0.1,9.5,0.5,14.3,2.2L85.1,9c3.5,1.1,7.5,2.7,10,4.5
		c0,0,8,5.3,8,5.3l0,0c-1-0.5,6.7,3.8,8.3,6.6l0,0l0,0c0.1,0.1,8.6,10.8,9.6,14.2l0,0l4.2,10.7l0,0c0.4,0.7,0.5,3,0.6,5.1
		c0.1,2.3,0.5,5.3,1,8.7c0.9,5-0.7,10.8-1.7,15.6c-0.4,2.1-0.8,3.9-0.9,5.3c-0.6,5.1-2.3,7.5-4.6,10.5l-0.2,0.2
		c-2.1,2.8-3.4,5.1-4.6,7.2c-1.6,2.7-2.8,4.9-5,6.7c-0.3,0.2-1.5,1-2.6,1.8c-2.2,1.5-3.7,2.5-4,2.8c-2.2,2.1-9.3,7.4-10.4,7
		c-1.5-3-2.9-5.1-3.8-6.6c-1.1-1.8-1.6-2.6-1.6-3.1c0-0.3,0.2-0.6,0.5-0.8c0.3-0.2,3.2-2.5,4.5-3.7c0.4-0.4,1.9-1.3,2.8-2
		c1.7-1.4,4.6-4.7,5.4-5.7c2.4-2.9,3.7-5.1,5.5-8c0.7-1.1,1.9-3.1,2.2-3.5c0.9-1.2,1.2-2.1,1.6-3.4c0.2-0.8,0.8-1.6,1-2.2
		c0.8-1.8,1.1-3.9,1.3-5.2c0.1-1,0.1-1.4,0.3-2.5c0.4-2,1.2-4.8,1.2-7.7c0-2.3-0.4-4.2-1.4-7.4c-0.4-1.2-1.2-5.7-1.6-8.5
		c-0.4-2.5-2-5.7-2.1-5.8c-0.6-1-1.7-2.1-2.7-3.3c-1.3-1.6-2.5-3.4-3-4.7c-0.4-1-1.2-2-1.9-2.9l-1-1.4c-0.8-1.2-3.7-3.4-6.7-5.4
		l-0.9-0.7c-0.7-0.6-2.6-1.6-4.7-2.7l-2.6-1.4l0,0l-1.8-0.7c-1.9-0.7-6.7-2.3-8.4-2.6l-0.1,0c-1.9-0.3-3.5-0.6-6-0.7
		c0.1,0.3,0.3,0.7,0.4,1c1.3,0.1,2.1,0.2,3.6,0.4l0.1,0c3.8,0.6,8.2,2.3,10,3c0,0,1.6,0.6,1.7,0.7c0.1,0,2.7,1.1,2.7,1.1
		c1.8,1,3.4,1.9,4.1,2.4c0,0,1,0.7,1,0.7c2,1.4,6.2,4.2,6.9,5.4l1.1,1.5c0.6,0.8,1,1.8,1.3,2.7c0.6,1.5,2,3.2,3.4,4.9
		c1,1.2,1.9,2.3,2.4,3.2c0,0,1.8,2.5,2.1,4.7c0.4,2.8,1.2,7.2,1.5,8.5c2.1,6.9,1.5,10.6,0.7,14.2c-0.2,1.1-0.8,2.7-0.9,3.7
		c-0.1,1.2-0.3,2.7-1.1,4.3c-0.3,0.6-0.9,2-1.1,2.8c-0.4,1.3-0.8,2.6-1.6,3.7c-0.3,0.4-0.8,1.3-1.6,2.5c-1.8,2.8-4.5,7.1-6.8,10
		c-0.8,0.9-2.7,2.5-4.4,3.8c-1,0.8-1.9,1.5-2.3,1.9c-1.2,1.2-4.9,3.7-4.9,3.8l0,0l0,0c-1.8,1.5-0.9,2.9,0.8,5.6
		c1,1.5,2.3,3.6,3.8,6.5c0.2,0.3,0.5,0.6,0.9,0.6c2.7,0.4,11.4-7.2,11.5-7.3c0.3-0.3,1.9-1.7,3.4-2.7c1.3-0.9,2.4-1.6,2.7-1.8
		c2.4-1.9,4.1-4.2,5.7-7c1.2-2,2.5-4.4,4.5-7.1l0.2-0.2c1.9-2.5,4.4-7.5,4.8-11.1c0.1-1.3,0.5-3.1,0.9-5.2
		C127.4,75,128.7,68.9,127.8,63.7z"/>
	<g>
		<path class="st0" d="M70.5,22.3c0,0-0.6-1.4-1.1-2.6c-0.2-0.4-0.3-0.7-0.4-1c-0.1-0.3-0.2-0.6-0.3-0.8c-0.2-0.5-0.9-1.8-1.1-2.5
			c-0.5,0.3-1.2,1.8-1.8,3.3c-0.1,0.3-0.3,0.6-0.4,0.9c-0.5,1.1-0.8,2.2-1,2.7c0,0-1.2,0.2-2.9,0.3c-0.9,0-3.7,0.5-3.7,0.5
			c1.9,2.9,3.6,4.7,4.4,5.5c0,0-1,5.6-0.9,6.2c0.1,0,3-1.5,4-2.1c1-0.5,2.1-0.9,2.2-0.9c0.1,0,2.8,1.1,3.4,1.5
			c1.5,0.9,2.5,1.5,2.9,1.6v-0.1c0,0-1.4-5.9-1.4-6.2c0,0,0.7-0.7,1.2-1.3c0.8-1,1.6-1.7,2.2-2.3c0.5-0.6,1.5-1.7,1.5-1.8
			C77.3,23.2,70.9,22.4,70.5,22.3z M65.8,27.7c0,0-3.5,5.4-3.7,5.8c0,0,1-5.5,1-5.6c-0.2-0.3-2.3-2.2-3.8-4c0.7,0.2,2.8,0.8,2.8,0.8
			c1.5,0.6,2.9,1.1,4.5,1.6C66.3,26.8,65.8,27.7,65.8,27.7z M67.3,21.7c-0.1,1.6-0.1,3.3-0.1,4c-0.7-0.6-2.2-3.2-2.2-3.2
			c0-0.2,0.7-1.8,1.3-3.1c0.2-0.3,0.8-1.9,0.8-1.9c0.1,0.2,0.1,0.6,0.1,0.9c0,0.3,0,0.6,0,1C67.3,20.2,67.3,21,67.3,21.7z
			 M68.1,31.3c-0.1-0.1-0.7-4.2-0.7-4.9l0.1,0.1l4.8,7C71.9,33.4,68.1,31.3,68.1,31.3z M72.1,24.7c-1.7,0.7-3.3,1.3-3.3,1.3
			s4.3-0.2,4.9-0.3c0,0.2-1.3,1.7-1.3,1.7c-0.3,0-4.1-0.9-4.6-1.1c0,0,1.6-3,2.2-3.3l5.7,0.6C75.2,23.7,73.5,24.2,72.1,24.7z"/>
	</g>
	<path class="st0" d="M85,107c-0.8,0.3-1.8,0.8-3,1.9c-0.5,0.5-1.3,1.2-1,1.8c0.4,1,2,1.8,3.5,1.7c0.4,0,0.8,1.6,1.1,2.6
		c0.5,1.6,1.1,3.7,2.3,5.3l0.9,1.3c0,0,0.1-1.3,0.1-1.5c0,0-0.1-0.4,0.4-0.6c0.4-0.2,0.9-0.1,1.2-0.1c0.3,0,0.6-0.1,0.8-0.4
		c0-0.1,0.1-0.2,0.1-0.3c0-0.1,0-0.2-0.1-0.4c-0.9-1.6-1.7-2.8-2.3-3.8c-1.1-1.8-1.6-2.6-1.6-3.1c0-0.3,0.2-0.6,0.5-0.9l0,0l0,0
		c0.2-0.3,1.1-1.4,1.1-2.5c0-0.2,0-0.3-0.1-0.5c-0.1-0.4-0.4-0.8-1.2-1C87,106.2,86.2,106.6,85,107z M81.9,110.4
		c0-0.1,0.1-0.5,0.2-0.6c1.1-1,1.7-1.7,2.4-2c0.5-0.2,1.7-0.8,3-0.5c0.3,0.1,0.3,0.5,0.3,0.5c0,0,0,0.1,0,0.1c0,0.4-0.5,1.3-0.9,1.7
		c-0.6,0.6-0.9,1.1-0.9,1.7c0,1,0.7,2.2,1.8,3.8c0.5,0.8,1.2,1.9,1.9,3.1c-0.2,0.1-0.5,0.1-0.9,0.3l0,0c-0.2,0.1-0.4,0.2-0.6,0.3
		c-0.8-1.4-1.3-2.9-1.7-4.3c-0.6-2-1-3.5-2.4-3.5C83.3,111.3,82.1,110.8,81.9,110.4z"/>
	<g>
		<path class="st0" d="M63.9,81.4C63.8,82,61.4,81,60.3,81c-0.8,0-2.8-0.1-2.9-0.1c-0.4-0.1-0.6-0.5-0.2-0.6
			C58.5,80.1,64,80.9,63.9,81.4z"/>
		<path class="st0" d="M52.5,80.4c0,0.5,0,0-2.4,0c-2.6,0-2.7,0-2.6-0.3c0.2-0.6,1.7-0.2,2.5-0.3C51.2,79.9,52.6,79.6,52.5,80.4z"/>
		<path class="st0" d="M54.1,80.3c0.2-0.2,1.7-0.3,1.6,0.2c0,0.5-0.2,0.3-1,0.3C53.8,80.7,53.9,80.5,54.1,80.3z"/>
	</g>
	<path class="st0" d="M68,0.8c-0.1-0.4-0.4-0.7-0.9-0.8c-0.4-0.1-0.9,0-1.1,0.4c-0.2,0.2-0.6,1-0.2,1.5c0.2,0.4,0.8,0.7,1.3,0.5
		C67.7,2.2,67.9,1.5,68,0.8L68,0.8L68,0.8z"/>
	<path class="st0" d="M63.7,0.2L63.7,0.2L63.7,0.2c-0.4-0.2-0.9-0.1-1.2,0.3c-0.3,0.3-0.4,0.7-0.3,1.1c0.1,0.3,0.4,1.1,1.1,1
		c0.5,0.1,1-0.3,1.2-0.8C64.7,1.1,64.2,0.6,63.7,0.2z"/>
	<path class="st0" d="M61,1.1c-0.1-0.4-0.5-0.7-1-0.7c-0.4,0-0.9,0.1-1.1,0.5c-0.1,0.3-0.5,1,0,1.5c0.2,0.4,0.9,0.6,1.4,0.4
		C60.9,2.4,61,1.8,61,1.1L61,1.1L61,1.1z"/>
	<path class="st0" d="M57.5,1.5L57.5,1.5L57.5,1.5c-0.2-0.4-0.6-0.7-1-0.7c-0.4,0-0.9,0.2-1,0.5c-0.1,0.3-0.5,1,0,1.5
		c0.3,0.4,0.9,0.6,1.4,0.3C57.5,2.9,57.6,2.2,57.5,1.5z"/>
	<path class="st0" d="M54.2,2.2c-0.3-0.6-1-0.6-1.6-0.6l0,0l0,0c-0.4,0.2-0.6,0.6-0.6,1c0,0.4,0.2,0.8,0.6,1
		c0.3,0.1,1.1,0.4,1.5-0.1C54.3,3.3,54.5,2.7,54.2,2.2z"/>
	<path class="st0" d="M50.7,2.9L50.7,2.9L50.7,2.9c-0.2-0.4-0.6-0.6-1.1-0.6c-0.5,0-0.8,0.3-1,0.6c-0.1,0.3-0.4,1.1,0.2,1.5
		c0.3,0.4,1,0.5,1.4,0.1C50.8,4.2,50.8,3.5,50.7,2.9z"/>
	<path class="st0" d="M47.3,3.8L47.3,3.8L47.3,3.8c-0.2-0.4-0.6-0.6-1.1-0.5c-0.4,0-0.8,0.3-1,0.7c-0.1,0.3-0.3,1.1,0.3,1.5
		c0.3,0.3,1,0.4,1.4,0.1C47.5,5.1,47.5,4.5,47.3,3.8z"/>
	<path class="st0" d="M44,5L44,5L44,5c-0.2-0.4-0.7-0.5-1.1-0.5c-0.4,0.1-0.8,0.4-0.9,0.7c-0.1,0.3-0.3,1.1,0.3,1.4
		c0.3,0.3,1,0.4,1.4,0C44.3,6.2,44.2,5.6,44,5z"/>
	<path class="st0" d="M41,7c-0.1-0.7-0.7-1-1.3-1.2l0,0h0c-0.4,0-0.8,0.3-1,0.7c-0.2,0.4-0.2,0.9,0.1,1.2c0.3,0.4,0.8,0.8,1.4,0.5
		C40.7,8,41.1,7.5,41,7z"/>
	<path class="st0" d="M37.6,7.7L37.6,7.7L37.6,7.7c-0.3-0.3-0.7-0.5-1.2-0.3c-0.4,0.1-0.8,0.4-0.8,0.8c0,0.3-0.1,1.1,0.5,1.4
		c0.4,0.3,1,0.3,1.4-0.2C38,9,37.8,8.3,37.6,7.7z"/>
	<path class="st0" d="M34.5,9.3L34.5,9.3L34.5,9.3C34.2,9,33.8,8.9,33.4,9c-0.4,0.1-0.7,0.5-0.8,0.9c0,0.5,0,1.2,0.6,1.4
		c0.4,0.3,1.1,0.2,1.4-0.2C35,10.6,34.8,9.9,34.5,9.3z"/>
	<path class="st0" d="M31.6,11.1L31.6,11.1L31.6,11.1c-0.3-0.3-0.8-0.4-1.2-0.2c-0.4,0.2-0.7,0.5-0.7,0.9c0,0.3,0,1.1,0.6,1.3
		c0.4,0.2,1.1,0.2,1.4-0.3C32,12.3,31.8,11.7,31.6,11.1z"/>
	<path class="st0" d="M28.7,13L28.7,13L28.7,13c-0.3-0.3-0.8-0.3-1.2-0.2c-0.4,0.2-0.7,0.6-0.7,1c0,0.3,0,1.1,0.7,1.3
		c0.4,0.2,1.1,0.1,1.4-0.4C29.2,14.2,29,13.6,28.7,13z"/>
	<path class="st0" d="M25.3,14.9L25.3,14.9L25.3,14.9c-0.4-0.1-0.9,0.1-1.1,0.5c-0.3,0.4-0.3,0.8-0.1,1.2c0.2,0.2,0.6,1,1.3,0.8
		c0.5,0,1-0.4,1-1C26.4,15.6,25.8,15.2,25.3,14.9z"/>
	<path class="st0" d="M23.2,17.4L23.2,17.4L23.2,17.4c-0.4-0.3-0.8-0.3-1.2,0c-0.4,0.2-0.6,0.6-0.6,1c0.1,0.5,0.2,1.1,0.8,1.2
		c0.4,0.2,1.1,0,1.3-0.5C23.9,18.5,23.5,17.9,23.2,17.4z"/>
	<path class="st0" d="M20.6,19.7L20.6,19.7L20.6,19.7c-0.4-0.2-0.8-0.2-1.2,0c-0.4,0.2-0.6,0.6-0.5,1c0.1,0.3,0.2,1.1,0.9,1.2
		c0.4,0.1,1.1,0,1.3-0.6C21.4,20.8,21,20.2,20.6,19.7z"/>
	<path class="st0" d="M18.2,22.2L18.2,22.2L18.2,22.2C17.8,22,17.3,22,17,22.3c-0.4,0.3-0.6,0.7-0.5,1.1c0.1,0.5,0.4,1.1,1,1.1
		c0.4,0.1,1.1-0.1,1.3-0.7C19,23.3,18.6,22.7,18.2,22.2z"/>
	<path class="st0" d="M16.6,25.6c-0.1-0.4-0.4-0.7-0.8-0.9c-0.4-0.1-0.9,0-1.1,0.3c-0.2,0.2-0.7,0.9-0.3,1.4
		c0.2,0.4,0.7,0.8,1.3,0.6C16.3,26.9,16.5,26,16.6,25.6L16.6,25.6L16.6,25.6z"/>
	<path class="st0" d="M13.7,27.6L13.7,27.6L13.7,27.6c-0.4-0.2-0.9-0.1-1.2,0.2c-0.3,0.3-0.5,0.7-0.4,1.1c0.1,0.3,0.4,1.1,1.1,1
		c0.5,0.1,1.1-0.2,1.2-0.8C14.6,28.5,14.2,28,13.7,27.6z"/>
	<path class="st0" d="M12.3,30.9c-0.2-0.4-0.8-0.7-1.4-0.4c-0.7,0.3-0.8,1.1-0.8,1.5l0,0l0,0c0.1,0.4,0.5,0.7,0.9,0.8
		c0.4,0.1,0.9-0.1,1.1-0.4C12.5,31.9,12.7,31.3,12.3,30.9z"/>
	<path class="st0" d="M10.5,33.8c-0.4-0.5-1.1-0.4-1.7-0.2l0,0l0,0c-0.3,0.2-0.5,0.7-0.4,1.1c0.1,0.4,0.4,0.8,0.8,0.9
		c0.3,0.1,1.1,0.2,1.4-0.4C10.9,34.9,10.9,34.2,10.5,33.8z"/>
	<path class="st0" d="M9,37.2c-0.3-0.6-1-0.7-1.6-0.7h0l0,0c-0.4,0.1-0.6,0.5-0.7,1c0,0.5,0.1,0.9,0.5,1.1c0.4,0.2,1.1,0.5,1.5,0
		C9.1,38.3,9.3,37.7,9,37.2z"/>
	<path class="st0" d="M6.6,39.5L6.6,39.5L6.6,39.5c-0.4-0.1-0.9,0.1-1.1,0.5c-0.3,0.4-0.3,0.8-0.1,1.2c0.3,0.4,0.7,0.9,1.3,0.8
		c0.5,0,1-0.4,1-1C7.7,40.2,7,39.7,6.6,39.5z"/>
	<path class="st0" d="M5.8,43c-0.7-0.4-1.4,0.1-1.7,0.4l0,0l0,0c-0.2,0.3-0.2,0.8,0,1.2c0.2,0.4,0.6,0.6,1,0.6
		c0.5-0.1,1.1-0.3,1.2-0.9C6.5,43.9,6.3,43.2,5.8,43z"/>
	<path class="st0" d="M4,46L4,46L4,46c-0.4,0-0.8,0.2-1.1,0.6c-0.2,0.4-0.2,0.8,0,1.2c0.3,0.4,0.8,0.9,1.3,0.6
		c0.5-0.1,0.9-0.5,0.9-1.1C5.2,46.5,4.4,46.2,4,46z"/>
	<path class="st0" d="M4.2,50.5c0-0.7-0.8-1.1-1.2-1.2l0,0h0c-0.4,0-0.8,0.2-1,0.6c-0.2,0.4-0.2,0.9,0.1,1.2
		c0.3,0.4,0.8,0.8,1.4,0.6C3.8,51.6,4.3,51.1,4.2,50.5z"/>
	<path class="st0" d="M3.4,53.9c-0.1-0.7-0.9-1-1.3-1.2l0,0h0c-0.4,0-0.8,0.3-1,0.7c-0.2,0.4-0.1,0.9,0.1,1.2
		c0.3,0.4,0.9,0.8,1.4,0.5C3.1,54.9,3.5,54.4,3.4,53.9z"/>
	<path class="st0" d="M2.8,57.2c-0.1-0.7-0.9-1-1.3-1.1l0,0l0,0c-0.4,0-0.8,0.3-0.9,0.7c-0.2,0.4-0.1,0.9,0.2,1.2
		c0.4,0.3,0.9,0.7,1.4,0.4C2.5,58.3,2.9,57.8,2.8,57.2z"/>
	<path class="st0" d="M2.3,60.6c-0.2-0.7-1-0.9-1.4-1l0,0l0,0c-0.4,0.1-0.8,0.4-0.9,0.8c-0.1,0.4,0,0.9,0.2,1.1
		c0.2,0.2,0.9,0.7,1.4,0.4C2.1,61.7,2.5,61.1,2.3,60.6z"/>
	<path class="st0" d="M1.8,63.5c-0.5-0.5-1.3-0.3-1.7-0.2l0,0l0,0c-0.3,0.3-0.5,0.7-0.4,1.1s0.4,0.8,0.8,0.9
		c0.5,0.1,1.2,0.1,1.4-0.4C2.2,64.5,2.3,63.8,1.8,63.5z"/>
	<path class="st0" d="M2,67.4c-0.2-0.7-1.1-0.8-1.5-0.9l0,0l0,0C0,66.6-0.3,67-0.4,67.4c-0.1,0.4,0,0.9,0.4,1.1
		c0.4,0.3,1,0.6,1.5,0.2C1.9,68.5,2.2,67.9,2,67.4z"/>
	<path class="st0" d="M2.2,70.9c0-0.5-0.4-1-1-1c-0.7-0.1-1.2,0.7-1.4,1l0,0l0,0c-0.1,0.4,0.1,0.8,0.5,1.1c0.4,0.3,0.8,0.3,1.2,0.1
		C1.6,72,2.4,71.5,2.2,70.9z"/>
	<path class="st0" d="M2.3,74.2c-0.3-0.6-0.9-0.7-1.6-0.7h0l0,0C0.3,73.6,0,74,0,74.4c0,0.4,0.1,0.9,0.5,1.1c0.4,0.2,1.1,0.5,1.5,0
		C2.4,75.3,2.6,74.7,2.3,74.2z"/>
	<path class="st0" d="M2.8,77.6c-0.3-0.7-1.2-0.6-1.6-0.6h0l0,0c-0.4,0.2-0.6,0.5-0.7,1c0,0.4,0.2,0.9,0.5,1c0.3,0.1,1,0.5,1.5,0
		C2.9,78.7,3.1,78.1,2.8,77.6z"/>
	<path class="st0" d="M3.4,80.9c-0.4-0.6-1.2-0.6-1.6-0.5l0,0l0,0c-0.4,0.2-0.6,0.6-0.6,1c0,0.5,0.2,0.8,0.6,1
		c0.3,0.1,1.1,0.4,1.5-0.1C3.5,82,3.7,81.4,3.4,80.9z"/>
	<path class="st0" d="M3.7,83.7C3,83.4,2.3,84,2,84.3l0,0l0,0c-0.2,0.4-0.1,0.8,0.1,1.2c0.3,0.4,0.7,0.5,1.1,0.5
		c0.3-0.1,1.1-0.3,1.1-1C4.5,84.5,4.2,83.9,3.7,83.7z"/>
	<path class="st0" d="M4.9,87.2c-0.3-0.3-1-0.5-1.4-0.1c-0.6,0.4-0.5,1.3-0.4,1.7l0,0l0,0c0.2,0.4,0.6,0.6,1.1,0.5
		c0.4,0,0.8-0.3,1-0.7C5.2,88.4,5.5,87.6,4.9,87.2z"/>
	<path class="st0" d="M5.7,90.3c-0.6-0.2-1.1,0.2-1.6,0.7l0,0l0,0c-0.1,0.4,0,0.8,0.3,1.2c0.3,0.3,0.7,0.5,1.1,0.3
		c0.3-0.1,1.1-0.4,1-1.1C6.6,91,6.3,90.4,5.7,90.3z"/>
	<path class="st0" d="M7.6,93.9c-0.5-0.6-1.3-0.3-1.7-0.2l0,0l0,0c-0.3,0.3-0.5,0.7-0.4,1.1c0.1,0.4,0.4,0.8,0.8,0.9
		c0.3,0,1.1,0.2,1.4-0.4C8,94.9,8,94.3,7.6,93.9z"/>
	<path class="st0" d="M9,97L9,97L9,97c-0.3-0.3-0.8-0.4-1.2-0.2c-0.4,0.2-0.7,0.5-0.7,0.9c0,0.3,0,1.1,0.6,1.3
		c0.4,0.2,1.1,0.2,1.4-0.3C9.5,98.2,9.3,97.5,9,97z"/>
	<path class="st0" d="M10.7,99.9c-0.6-0.5-1.4-0.2-1.7,0l0,0l0,0c-0.3,0.3-0.4,0.7-0.3,1.2c0.1,0.4,0.5,0.7,0.9,0.8
		c0.3,0,1.1,0.1,1.4-0.6C11.2,100.9,11.1,100.3,10.7,99.9z"/>
	<path class="st0" d="M12.6,103.4c-0.2-0.2-0.7-0.9-1.3-0.7c-0.5,0-1,0.5-0.9,1.1c0,0.7,0.7,1.2,1.1,1.3l0,0h0
		c0.4,0.1,0.8-0.1,1.1-0.5C12.7,104.2,12.8,103.8,12.6,103.4z"/>
	<path class="st0" d="M14.4,105.6c-0.6-0.4-1.4,0-1.7,0.2l0,0l0,0c-0.3,0.3-0.3,0.8-0.1,1.2c0.2,0.4,0.5,0.7,1,0.7
		c0.3,0,1.1,0,1.3-0.7C15,106.6,14.9,105.9,14.4,105.6z"/>
	<path class="st0" d="M16.7,108.7c-0.2-0.4-0.8-0.7-1.3-0.4c-0.7,0.3-0.8,1.1-0.8,1.5l0,0l0,0c0.1,0.4,0.5,0.7,0.9,0.8
		c0.4,0.1,0.9-0.1,1.1-0.4C16.7,109.9,17.1,109.2,16.7,108.7z"/>
	<path class="st0" d="M18.7,110.9c-0.6-0.3-1.1,0-1.7,0.4l0,0l0,0c-0.2,0.3-0.2,0.8,0,1.2c0.2,0.4,0.6,0.6,1,0.6
		c0.3,0,1.1-0.2,1.2-0.8C19.3,111.8,19.2,111.2,18.7,110.9z"/>
	<path class="st0" d="M21,113.4c-0.7-0.3-1.3,0.2-1.7,0.4l0,0l0,0c-0.2,0.4-0.2,0.8,0.1,1.2c0.2,0.4,0.6,0.6,1,0.5
		c0.3,0,1.1-0.2,1.2-0.9C21.7,114.3,21.5,113.6,21,113.4z"/>
	<path class="st0" d="M23.5,115.8c-0.7-0.3-1.3,0.3-1.6,0.5l0,0l0,0c-0.2,0.4-0.1,0.8,0.1,1.2c0.3,0.4,0.7,0.6,1.1,0.5
		c0.3-0.1,1.1-0.3,1.1-1C24.2,116.6,24,115.9,23.5,115.8z"/>
	<path class="st0" d="M26.7,119c-0.1-0.3-0.3-1.1-1-1.1c-0.5-0.1-1.1,0.1-1.2,0.7c-0.2,0.6,0.1,1.1,0.6,1.6l0,0l0,0
		c0.4,0.2,0.8,0.1,1.2-0.2C26.6,119.8,26.8,119.4,26.7,119z"/>
	<path class="st0" d="M29.2,120.5c-0.3-0.3-0.7-0.5-1.1-0.4c-0.3,0.1-1.1,0.4-1,1.1c-0.1,0.5,0.2,1.1,0.8,1.2
		c0.7,0.2,1.3-0.4,1.6-0.7l0,0l0,0C29.6,121.3,29.5,120.8,29.2,120.5z"/>
	<path class="st0" d="M32.4,123.1c0.1-0.5-0.3-1-0.8-1.1c-0.7-0.2-1.3,0.5-1.5,0.8l0,0l0,0c-0.1,0.4,0,0.8,0.3,1.1
		c0.3,0.3,0.8,0.4,1.1,0.3C31.7,124.1,32.5,123.8,32.4,123.1z"/>
	<path class="st0" d="M35.4,124.9c0-0.5-0.3-1-0.9-1.1c-0.7-0.2-1.3,0.5-1.5,0.9l0,0l0,0c-0.1,0.4,0,0.8,0.4,1.1
		c0.3,0.3,0.8,0.4,1.1,0.2C34.7,125.9,35.5,125.5,35.4,124.9z"/>
	<path class="st0" d="M37.9,125.6c-0.3-0.1-1-0.5-1.5,0c-0.4,0.3-0.6,0.9-0.3,1.4c0.3,0.7,1.2,0.6,1.6,0.6l0,0l0,0
		c0.4-0.2,0.6-0.5,0.7-1C38.5,126.2,38.3,125.8,37.9,125.6z"/>
	<path class="st0" d="M41.5,127.9c0-0.5-0.4-1-1-1c-0.7-0.1-1.1,0.4-1.4,1l0,0l0,0c-0.1,0.4,0.1,0.8,0.5,1.1
		c0.4,0.3,0.8,0.3,1.2,0.1C41.2,128.9,41.7,128.4,41.5,127.9z"/>
	<path class="st0" d="M44.7,128.8c-0.2-0.2-0.6-0.9-1.3-0.7c-0.5,0-1,0.5-1,1c0,0.7,0.5,1,1.1,1.4l0,0l0,0c0.4,0.1,0.8-0.1,1.1-0.5
		C44.8,129.6,44.9,129.2,44.7,128.8z"/>
	<path class="st0" d="M48,130.2c-0.1-0.5-0.5-0.9-1.1-0.9c-0.7,0-1.1,0.8-1.3,1.2l0,0l0,0c0,0.4,0.2,0.8,0.6,1
		c0.4,0.2,0.8,0.2,1.2,0C47.6,131.4,48.2,130.8,48,130.2z"/>
	<path class="st0" d="M51.3,131.1c-0.1-0.5-0.6-0.9-1.1-0.8c-0.7,0-1.1,0.8-1.2,1.2l0,0v0c0,0.4,0.2,0.8,0.6,1
		c0.4,0.2,0.9,0.2,1.2-0.1C50.9,132.3,51.6,131.7,51.3,131.1z"/>
	<path class="st0" d="M54.7,131.8c-0.1-0.4-0.6-0.9-1.2-0.8c-0.7,0.1-1,0.9-1.2,1.3l0,0l0,0c0,0.4,0.3,0.8,0.7,1
		c0.4,0.2,0.9,0.1,1.2-0.1C54.5,132.9,54.9,132.4,54.7,131.8z"/>
	<path class="st0" d="M58,132.7c-0.2-0.7-1-0.9-1.4-1h0h0c-0.4,0.1-0.7,0.4-0.8,0.8c-0.1,0.4,0,0.9,0.3,1.1c0.4,0.3,1,0.6,1.5,0.3
		C57.9,133.8,58.2,133.2,58,132.7z"/>
	<path class="st0" d="M61.5,132.8c-0.2-0.4-0.7-0.8-1.3-0.6c-0.7,0.2-0.9,1-1,1.4l0,0v0c0.1,0.4,0.4,0.8,0.8,0.9
		c0.4,0.1,0.9,0,1.2-0.2C61.4,133.8,61.8,133.3,61.5,132.8z"/>
	<path class="st0" d="M64.4,132.5c-0.4-0.3-1.1-0.2-1.4,0.3c-0.5,0.6-0.1,1.3,0,1.7l0,0l0,0c0.3,0.3,0.7,0.4,1.2,0.2
		c0.4-0.1,0.7-0.5,0.8-0.9C65,133.3,64.9,132.7,64.4,132.5z"/>
	<path class="st0" d="M68.3,133c-0.2-0.4-0.8-0.7-1.3-0.5c-0.7,0.2-0.8,1.1-0.9,1.5l0,0l0,0c0.1,0.4,0.4,0.7,0.9,0.8
		c0.4,0.1,0.9,0,1.1-0.4C68.4,134.1,68.7,133.5,68.3,133z"/>
	<path class="st0" d="M71.8,133.2c-0.3-0.6-1-0.6-1.6-0.6h0l0,0c-0.4,0.2-0.6,0.5-0.7,1c0,0.5,0.2,0.9,0.5,1c0.4,0.2,1.1,0.4,1.5,0
		C71.9,134.3,72.1,133.7,71.8,133.2z"/>
	<path class="st0" d="M75.2,132.5c-0.2-0.4-0.9-0.6-1.4-0.4c-0.7,0.3-0.7,1.2-0.7,1.6v0l0,0c0.1,0.4,0.5,0.7,1,0.7
		c0.4,0,0.9-0.1,1.1-0.5C75.4,133.6,75.6,132.9,75.2,132.5z"/>
	<path class="st0" d="M78.6,132c-0.3-0.4-0.9-0.6-1.4-0.3c-0.7,0.3-0.6,1.2-0.6,1.6v0l0,0c0.2,0.4,0.5,0.6,1,0.7
		c0.4,0,0.8-0.2,1-0.5C78.8,133,79,132.4,78.6,132z"/>
	<path class="st0" d="M82.1,131.6c-0.4-0.6-1.3-0.4-1.7-0.4h0l0,0c-0.4,0.2-0.5,0.6-0.5,1.1c0,0.4,0.3,0.8,0.7,1
		c0.5,0.1,1.1,0.2,1.5-0.3C82.4,132.7,82.5,132.1,82.1,131.6z"/>
	<path class="st0" d="M85.2,130.4c-0.3-0.4-1-0.5-1.4-0.1c-0.5,0.4-0.5,1-0.5,1.7v0l0,0c0.2,0.4,0.6,0.6,1.1,0.5
		c0.5,0,0.8-0.3,1-0.6C85.5,131.6,85.8,130.8,85.2,130.4z"/>
	<path class="st0" d="M88.5,129.4c-0.3-0.3-1-0.4-1.4-0.1c-0.6,0.4-0.4,1.3-0.4,1.7v0l0,0c0.2,0.3,0.6,0.5,1.1,0.5
		c0.4,0,0.8-0.3,1-0.7C88.9,130.6,89.1,129.8,88.5,129.4z"/>
	<path class="st0" d="M91.7,128.2c-0.3-0.3-1-0.4-1.4,0c-0.5,0.4-0.4,1.1-0.3,1.7l0,0l0,0c0.2,0.3,0.7,0.5,1.1,0.4
		c0.4-0.1,0.8-0.4,0.9-0.7C92.1,129.4,92.3,128.5,91.7,128.2z"/>
	<path class="st0" d="M95.5,127.7c-0.1-0.4-0.4-0.8-0.8-0.9c-0.3-0.1-1.1-0.2-1.4,0.4c-0.3,0.3-0.4,1,0.1,1.4
		c0.4,0.5,1.1,0.4,1.7,0.2l0,0l0,0C95.4,128.6,95.6,128.1,95.5,127.7z"/>
	<path class="st0" d="M98,125.3c-0.4-0.3-1-0.3-1.4,0.2c-0.5,0.5-0.2,1.3-0.1,1.7l0,0l0,0c0.3,0.3,0.7,0.4,1.1,0.3
		c0.4-0.1,0.8-0.4,0.8-0.8C98.5,126.4,98.6,125.5,98,125.3z"/>
	<path class="st0" d="M100.9,123.6c-0.4-0.3-1.1-0.2-1.4,0.2c-0.5,0.6-0.2,1.3,0,1.7l0,0l0,0c0.3,0.3,0.7,0.4,1.2,0.3
		c0.4-0.1,0.7-0.5,0.8-0.9C101.5,124.7,101.6,123.8,100.9,123.6z"/>
	<path class="st0" d="M104.6,122.6c-0.2-0.4-0.5-0.7-0.9-0.8c-0.5,0-1.2,0-1.4,0.6c-0.2,0.4-0.2,1.1,0.3,1.4
		c0.5,0.4,1.1,0.2,1.7-0.1l0,0l0,0C104.6,123.5,104.7,123,104.6,122.6z"/>
	<path class="st0" d="M106.6,119.7c-0.4-0.2-1.1-0.1-1.4,0.4c-0.4,0.6,0,1.4,0.2,1.7l0,0l0,0c0.3,0.3,0.8,0.3,1.2,0.1
		c0.4-0.2,0.7-0.6,0.7-1C107.3,120.7,107.3,119.9,106.6,119.7z"/>
	<path class="st0" d="M109.6,117.8c-0.5-0.2-1.1-0.3-1.5,0.1c-0.4,0.3-0.5,0.9-0.2,1.4c0.3,0.6,1,0.6,1.7,0.5h0l0,0
		c0.4-0.2,0.6-0.6,0.6-1C110.2,118.4,110,118,109.6,117.8z"/>
	<path class="st0" d="M112.9,116.3c0-0.4-0.3-0.8-0.7-1c-0.4-0.2-0.9-0.1-1.2,0.1c-0.2,0.2-0.8,0.8-0.5,1.4c0.1,0.5,0.6,0.9,1.2,0.8
		C112.4,117.6,112.7,117,112.9,116.3L112.9,116.3L112.9,116.3z"/>
	<path class="st0" d="M115.2,114.1c-0.1-0.5-0.3-1.1-0.9-1.2c-0.4-0.1-1.1,0-1.3,0.6c-0.3,0.7,0.2,1.3,0.4,1.7l0,0l0,0
		c0.4,0.2,0.8,0.2,1.2-0.1C115.1,114.9,115.3,114.5,115.2,114.1z"/>
	<path class="st0" d="M117.6,111.5c-0.1-0.3-0.3-1.1-1-1.1c-0.4-0.1-1.1,0.1-1.3,0.6c-0.3,0.6,0.1,1.1,0.5,1.7l0,0l0,0
		c0.4,0.2,0.8,0.2,1.2-0.1C117.5,112.3,117.7,111.9,117.6,111.5z"/>
	<path class="st0" d="M119.9,108.7c-0.1-0.4-0.4-0.8-0.8-0.9c-0.3,0-1.1-0.2-1.4,0.4c-0.3,0.4-0.3,1,0.1,1.4
		c0.4,0.5,1.1,0.4,1.7,0.2l0,0l0,0C119.9,109.6,120,109.1,119.9,108.7z"/>
	<path class="st0" d="M121.9,106c-0.1-0.3-0.4-1.1-1.1-1c-0.5-0.1-1.1,0.2-1.2,0.8c-0.2,0.7,0.4,1.3,0.7,1.6l0,0l0,0
		c0.4,0.2,0.8,0.1,1.2-0.2C121.9,106.8,122,106.4,121.9,106z"/>
	<path class="st0" d="M123.9,103c-0.1-0.3-0.5-1-1.1-1c-0.5-0.1-1,0.3-1.1,0.8c-0.2,0.7,0.4,1.3,0.8,1.5l0,0l0,0
		c0.4,0.1,0.8,0,1.2-0.3C123.9,103.9,124,103.4,123.9,103z"/>
	<path class="st0" d="M125.3,99.4c-0.2-0.1-1-0.6-1.5-0.1c-0.4,0.2-0.7,0.8-0.4,1.4c0.3,0.6,0.9,0.7,1.6,0.8h0l0,0
		c0.4-0.1,0.7-0.5,0.7-0.9C125.8,100.1,125.6,99.7,125.3,99.4z"/>
	<path class="st0" d="M127,96.4L127,96.4L127,96.4c-0.3-0.4-0.7-0.5-1.1-0.4c-0.4,0.1-0.8,0.4-0.9,0.8c0,0.3-0.2,1.1,0.4,1.4
		c0.4,0.3,1,0.3,1.4-0.1C127.4,97.7,127.2,96.8,127,96.4z"/>
	<path class="st0" d="M128.7,93.7c-0.2-0.2-0.6-1-1.3-0.8c-0.5,0-1,0.4-1,1c-0.1,0.7,0.4,1.1,1,1.4l0,0l0,0c0.4,0.1,0.8-0.1,1.1-0.5
		C128.9,94.5,128.9,94.1,128.7,93.7z"/>
	<path class="st0" d="M130,90.3c-0.2-0.4-0.6-0.6-1-0.6c-0.3,0-1.1,0.2-1.2,0.9c-0.2,0.4,0,1.1,0.5,1.3c0.7,0.4,1.3-0.1,1.7-0.4l0,0
		l0,0C130.2,91.1,130.2,90.7,130,90.3z"/>
	<path class="st0" d="M131.1,87.1c-0.3-0.4-0.8-0.9-1.3-0.6c-0.5,0.1-0.9,0.5-0.9,1.1c0,0.7,0.8,1.1,1.2,1.3l0,0h0
		c0.4,0,0.8-0.2,1-0.6C131.4,87.9,131.4,87.5,131.1,87.1z"/>
	<path class="st0" d="M132.1,83.7c-0.2-0.2-0.8-0.9-1.4-0.6c-0.5,0.1-0.9,0.6-0.8,1.1c0,0.7,0.6,1,1.2,1.2l0,0l0,0
		c0.4,0,0.8-0.2,1-0.6C132.3,84.5,132.3,84.1,132.1,83.7z"/>
	<path class="st0" d="M132.7,80.2L132.7,80.2L132.7,80.2c-0.3-0.4-0.7-0.5-1.1-0.4c-0.4,0.1-0.8,0.4-0.9,0.8
		c-0.1,0.5-0.1,1.2,0.4,1.4c0.4,0.3,1,0.3,1.4-0.1C133,81.5,132.9,80.8,132.7,80.2z"/>
	<path class="st0" d="M133.6,77c-0.2-0.4-0.8-0.8-1.3-0.6c-0.6,0.2-0.8,0.8-0.9,1.4l0,0l0,0c0.1,0.4,0.4,0.7,0.8,0.8
		c0.4,0.1,0.9,0,1.1-0.3C133.6,78.1,133.9,77.5,133.6,77z"/>
	<path class="st0" d="M133.9,73.4c-0.3-0.4-0.7-0.6-1.1-0.5c-0.5,0.1-1.1,0.3-1.1,0.9c-0.1,0.4,0.1,1.1,0.6,1.3
		c0.6,0.3,1.1-0.1,1.7-0.5l0,0l0,0C134.2,74.3,134.2,73.8,133.9,73.4z"/>
	<path class="st0" d="M134,69.9c-0.4-0.3-1-0.6-1.5-0.3c-0.4,0.2-0.8,0.8-0.6,1.3c0.2,0.7,1,0.9,1.5,0.9l0,0l0,0
		c0.4-0.1,0.7-0.4,0.8-0.8C134.5,70.6,134.3,70.1,134,69.9z"/>
	<path class="st0" d="M134.4,66.9c-0.1-0.4-0.4-0.7-0.9-0.8c-0.4-0.1-0.9,0-1.1,0.3c-0.3,0.4-0.6,1-0.2,1.5c0.2,0.4,0.8,0.7,1.3,0.5
		C134.1,68.2,134.3,67.6,134.4,66.9L134.4,66.9L134.4,66.9z"/>
	<path class="st0" d="M133.9,62.8c-0.4-0.2-1-0.5-1.5-0.1c-0.4,0.2-0.7,0.8-0.4,1.3c0.3,0.7,1.1,0.8,1.5,0.8h0l0,0
		c0.4-0.1,0.7-0.5,0.8-0.9C134.4,63.5,134.3,63.1,133.9,62.8z"/>
	<path class="st0" d="M133.6,59.4c-0.4-0.2-1.1-0.5-1.5,0c-0.4,0.2-0.6,0.9-0.4,1.4c0.3,0.6,0.9,0.7,1.6,0.7h0l0,0
		c0.4-0.1,0.7-0.5,0.7-1C134.1,60,133.9,59.6,133.6,59.4z"/>
	<path class="st0" d="M133,55.9c-0.4-0.2-0.8-0.2-1.2,0c-0.4,0.3-0.8,0.8-0.6,1.3c0.1,0.5,0.5,0.9,1.1,0.9c0.7,0,1-0.6,1.3-1.2l0,0
		l0,0C133.6,56.5,133.4,56.1,133,55.9z"/>
	<path class="st0" d="M132.4,52.4c-0.5-0.2-1.1-0.4-1.5,0.1c-0.4,0.3-0.6,0.9-0.2,1.4c0.3,0.6,1,0.6,1.6,0.5h0l0,0
		c0.4-0.2,0.6-0.6,0.6-1C133,53,132.8,52.6,132.4,52.4z"/>
	<path class="st0" d="M131.5,49c-0.5-0.2-1.1-0.3-1.5,0.2c-0.4,0.3-0.5,1-0.1,1.4c0.4,0.5,1,0.5,1.7,0.5l0,0l0,0
		c0.4-0.2,0.6-0.6,0.5-1.1C132.1,49.6,131.9,49.2,131.5,49z"/>
	<path class="st0" d="M131.2,46.6c0-0.4-0.3-0.8-0.7-1c-0.5-0.1-1.1-0.2-1.5,0.3c-0.3,0.3-0.4,1-0.1,1.4c0.4,0.5,1,0.5,1.7,0.4l0,0
		l0,0C131,47.5,131.2,47.1,131.2,46.6z"/>
	<path class="st0" d="M130,43.3c-0.1-0.4-0.4-0.8-0.7-0.9c-0.5-0.1-1.1-0.2-1.4,0.3c-0.3,0.3-0.4,1,0,1.4c0.5,0.6,1.3,0.4,1.7,0.3
		l0,0l0,0C129.9,44.2,130,43.8,130,43.3z"/>
	<path class="st0" d="M127.7,38.9L127.7,38.9L127.7,38.9c-0.4-0.1-0.9,0-1.2,0.3c-0.3,0.3-0.4,0.8-0.2,1.1c0.2,0.4,0.6,1,1.2,0.9
		c0.5,0,1-0.3,1.1-0.9C128.7,39.8,128.3,39.3,127.7,38.9z"/>
	<path class="st0" d="M127.1,36.9c-0.1-0.4-0.4-0.8-0.8-0.8c-0.5-0.1-1.2-0.1-1.4,0.5c-0.3,0.4-0.3,1,0.2,1.4
		c0.5,0.5,1.1,0.3,1.7,0.1l0,0l0,0C127.1,37.7,127.2,37.3,127.1,36.9z"/>
	<path class="st0" d="M125.4,33.8c-0.1-0.4-0.5-0.7-0.9-0.8c-0.5,0-1.2,0-1.4,0.6c-0.3,0.4-0.2,1.1,0.2,1.4c0.5,0.4,1.1,0.3,1.7,0
		l0,0l0,0C125.5,34.6,125.6,34.2,125.4,33.8z"/>
	<path class="st0" d="M123.6,30.8c-0.2-0.4-0.5-0.7-0.9-0.7c-0.5,0-1.2,0.1-1.3,0.6c-0.2,0.4-0.2,1.1,0.3,1.4
		c0.5,0.4,1.1,0.2,1.7-0.1l0,0l0,0C123.7,31.6,123.7,31.2,123.6,30.8z"/>
	<path class="st0" d="M121.6,27.8c-0.2-0.4-0.6-0.7-1-0.7c-0.5,0-1.2,0.1-1.3,0.7c-0.2,0.4-0.1,1.1,0.4,1.4c0.5,0.4,1.1,0.1,1.7-0.2
		l0,0l0,0C121.7,28.7,121.8,28.3,121.6,27.8z"/>
	<path class="st0" d="M119.4,25c-0.2-0.4-0.6-0.6-1-0.6c-0.5,0-1.1,0.2-1.3,0.8c-0.2,0.4-0.1,1.1,0.4,1.3c0.6,0.4,1.1,0.1,1.7-0.3
		l0,0l0,0C119.6,25.9,119.7,25.4,119.4,25z"/>
	<path class="st0" d="M116.8,21.8L116.8,21.8L116.8,21.8c-0.4-0.3-0.8-0.3-1.2-0.1c-0.4,0.2-0.6,0.6-0.6,1c0.1,0.5,0.2,1.1,0.8,1.2
		c0.4,0.2,1.1,0,1.3-0.5C117.4,22.9,117.1,22.3,116.8,21.8z"/>
	<path class="st0" d="M114.7,19.8c-0.2-0.4-0.7-0.6-1-0.5c-0.5,0.1-1.1,0.3-1.2,0.9c-0.1,0.4,0,1.1,0.6,1.3c0.7,0.3,1.3-0.2,1.7-0.4
		l0,0l0,0C115,20.6,115,20.2,114.7,19.8z"/>
	<path class="st0" d="M112.2,17.4c-0.3-0.4-0.7-0.6-1.1-0.5c-0.5,0.1-1.1,0.4-1.1,1c-0.1,0.4,0.1,1.1,0.7,1.3
		c0.6,0.3,1.1-0.1,1.6-0.5l0,0l0,0C112.5,18.2,112.4,17.7,112.2,17.4z"/>
	<path class="st0" d="M109.6,15.2L109.6,15.2L109.6,15.2c-0.2-0.4-0.6-0.6-1.1-0.6c-0.4,0-0.8,0.3-1,0.6c-0.2,0.5-0.3,1.1,0.2,1.5
		c0.3,0.4,1,0.5,1.4,0.2C109.7,16.4,109.6,15.6,109.6,15.2z"/>
	<path class="st0" d="M106.7,12.9c-0.3-0.3-0.7-0.5-1.1-0.4c-0.5,0.2-1.1,0.5-1,1.1c-0.1,0.5,0.2,1.1,0.8,1.2
		c0.7,0.2,1.3-0.4,1.6-0.7l0,0l0,0C107.1,13.7,107,13.3,106.7,12.9z"/>
	<path class="st0" d="M103.7,10.8L103.7,10.8L103.7,10.8c-0.3-0.3-0.8-0.4-1.2-0.3c-0.4,0.1-0.7,0.5-0.8,0.9c0,0.5,0,1.2,0.6,1.4
		c0.4,0.3,1.1,0.2,1.4-0.3C104.2,12,103.9,11.2,103.7,10.8z"/>
	<path class="st0" d="M101,9.5c-0.3-0.4-0.7-0.9-1.3-0.8c-0.5,0-1,0.4-1,1c-0.1,0.7,0.4,1.1,1,1.4l0,0h0c0.4,0.1,0.8-0.1,1.1-0.5
		C101.2,10.4,101.2,9.9,101,9.5z"/>
	<path class="st0" d="M97.7,7.4c-0.3-0.3-0.8-0.4-1.2-0.2c-0.4,0.2-1,0.6-0.8,1.2c0,0.5,0.4,1,1,1c0.7,0.1,1.2-0.6,1.5-0.9l0,0l0,0
		C98.2,8.1,98,7.7,97.7,7.4z"/>
	<path class="st0" d="M94.5,5.9c-0.4-0.3-0.8-0.3-1.2-0.1C92.9,6,92.4,6.4,92.5,7c0,0.5,0.4,1,1,1c0.7,0.1,1.1-0.4,1.4-1l0,0v0
		C95,6.6,94.9,6.1,94.5,5.9z"/>
	<path class="st0" d="M91.6,5c-0.1-0.4-0.5-0.7-1-0.7c-0.4,0-0.9,0.1-1.1,0.5c-0.2,0.4-0.5,1.1,0,1.5c0.3,0.4,0.9,0.6,1.4,0.3
		C91.5,6.4,91.6,5.7,91.6,5L91.6,5L91.6,5z"/>
	<path class="st0" d="M87.9,3.3c-0.4-0.2-0.8-0.2-1.2,0c-0.4,0.3-0.9,0.8-0.6,1.3c0.1,0.5,0.5,0.9,1.1,0.9c0.7,0,1.1-0.8,1.3-1.2
		l0,0v0C88.5,4,88.3,3.6,87.9,3.3z"/>
	<path class="st0" d="M84.5,2.3c-0.4-0.2-0.8-0.2-1.2,0.1c-0.4,0.3-0.8,0.8-0.6,1.4c0.1,0.5,0.6,0.9,1.2,0.8c0.7,0,1-0.6,1.2-1.2
		l0,0v0C85.2,2.9,84.9,2.5,84.5,2.3z"/>
	<path class="st0" d="M81.5,1.9c-0.2-0.2-0.9-0.7-1.4-0.3c-0.4,0.2-0.8,0.7-0.6,1.3c0.2,0.7,1,0.9,1.4,1l0,0h0
		c0.4-0.1,0.8-0.4,0.9-0.8C81.9,2.6,81.8,2.1,81.5,1.9z"/>
	<path class="st0" d="M78.4,1.8c0-0.4-0.3-0.8-0.7-0.9c-0.4-0.2-0.9-0.1-1.2,0.2C76.1,1.4,75.7,2,76,2.5c0.1,0.4,0.7,0.8,1.2,0.7
		C77.9,3.1,78.2,2.5,78.4,1.8L78.4,1.8L78.4,1.8z"/>
	<path class="st0" d="M74.9,1.3c-0.1-0.4-0.4-0.8-0.8-0.9c-0.4-0.1-0.9,0-1.1,0.2c-0.3,0.4-0.7,0.9-0.4,1.4c0.2,0.4,0.7,0.8,1.3,0.6
		C74.6,2.6,74.8,1.7,74.9,1.3L74.9,1.3L74.9,1.3z"/>
	<path class="st0" d="M71.1,0.5C70.6,0,70,0.3,69.4,0.5l0,0l0,0c-0.3,0.3-0.4,0.8-0.2,1.2c0.2,0.4,0.5,0.7,0.9,0.7
		c0.5,0,1.2-0.1,1.3-0.6C71.7,1.4,71.6,0.8,71.1,0.5z"/>
	<path class="st0" d="M58.9,28.5c-1.9,1.4-8.1,6-14.7,10.9l0.9,0.2C52.4,34.1,59,29.2,59.3,29C60.3,28.2,59.9,27.7,58.9,28.5z"/>
	<path class="st0" d="M24.5,53.9c-0.4,0.3,0,0.8,0.3,0.6c0,0,5.1-3.8,11.4-8.4l-0.1-0.8C30.2,49.6,25.3,53.2,24.5,53.9z"/>
	<path class="st0" d="M22.9,69.1c-0.6,0.6-0.1,1,0.4,0.5c1.9-1.8,7-7.1,12.9-13.1V55C27.5,64.1,23,69,22.9,69.1z"/>
	<path class="st0" d="M59.1,31.2c-2.7,2.8-5.3,5.5-7.8,8l1.4-0.1c4-4.2,6.8-7.2,7-7.3C60.6,30.9,60,30.4,59.1,31.2z"/>
	<path class="st0" d="M58.8,35.6c-0.8,1-1.6,2.1-2.4,3.3h1.2c0.8-1.2,1.4-2.1,1.9-2.8C60.2,35.1,60,33.9,58.8,35.6z"/>
	<path class="st0" d="M28,83.5c-0.8,1.1-0.6,1.7,0.2,0.8c0.2-0.2,3.6-5.5,8.1-12.5v-1.8C31.5,77.6,28.1,83.4,28,83.5z"/>
	<path class="st0" d="M61.5,38c0.6-2.2-0.3-1.8-0.8-0.4c-0.1,0.4-0.3,0.8-0.4,1.3l0.9,0.1C61.3,38.6,61.4,38.3,61.5,38z"/>
	<path class="st0" d="M39.3,99.7c-0.6,1.9,0.4,1.2,0.6,0.6c0.4-1.2,0.8-2.4,1.3-3.6h-0.9C39.7,98.5,39.3,99.6,39.3,99.7z"/>
	<g>
		<path class="st0" d="M66.8,42.6c0-3.2,0-6,0.1-7.9c0-1.4,0.6-2.3,0.7,0c0,2.5,0.1,5.1,0.1,7.9L66.8,42.6z"/>
	</g>
	<path class="st0" d="M64,35.3c-0.2,1.3-0.5,2.6-0.7,4l0.8,0.3c0.2-1.4,0.4-2.8,0.7-4.2C64.9,34,64.2,33.9,64,35.3z"/>
	<path class="st0" d="M70.1,35.3c-0.3-1.4-1-1.3-0.7,0.2c0.2,1.5,0.5,3.1,0.7,4.6l0.8-0.4C70.6,38.2,70.4,36.7,70.1,35.3z"/>
	<path class="st0" d="M82.3,105.8c0-0.1-0.1-0.4-0.2-0.9l-0.5,0.7c0.1,0.3,0.1,0.5,0.1,0.5C82.4,108.7,82.9,108.5,82.3,105.8z"/>
	<path class="st0" d="M73.4,37.5c-0.5-1.4-1.4-1.8-0.8,0.4c0.1,0.3,0.2,0.7,0.3,1l0.9-0.1C73.7,38.3,73.5,37.9,73.4,37.5z"/>
	<path class="st0" d="M95.2,99c0,0-0.3-0.8-0.8-2.2h-0.9c0.3,0.9,0.7,1.8,1,2.7C94.8,100.2,95.8,100.9,95.2,99z"/>
	<path class="st0" d="M106.1,83.4c-0.1-0.1-2.6-4.2-6.3-10.3l-1,0.1c4,6.2,6.9,10.8,7.1,11C106.7,85.1,106.8,84.5,106.1,83.4z"/>
	<path class="st0" d="M75.3,35.6c-1.3-1.7-1.4-0.6-0.7,0.5c0.4,0.6,1.1,1.6,1.8,2.7l1.3,0.1C76.9,37.7,76.1,36.6,75.3,35.6z"/>
	<path class="st0" d="M75.2,28.4c-1-0.8-1.4-0.3-0.4,0.5c0.8,0.6,6.8,5.1,13.7,10.2l0.9-0.2C84.4,35.3,79.4,31.6,75.2,28.4z"/>
	<path class="st0" d="M109.6,53.8c-2.3-1.7-6.7-5-11.9-8.9v0.9c6.4,4.7,11.6,8.6,11.6,8.6C109.6,54.7,110,54.1,109.6,53.8z"/>
	<path class="st0" d="M74.9,31.2c-0.8-0.8-1.4-0.3-0.6,0.5c0.1,0.1,3.1,3.3,7.3,7.7l1.4,0.1C80.5,36.9,77.8,34.1,74.9,31.2z"/>
	<path class="st0" d="M67.6,97.4l-1,0c0,0.9,0,1.8,0,2.6l1,0.3C67.6,99.3,67.6,98.3,67.6,97.4z"/>
	<path class="st0" d="M66.8,110.4c0.1,2.2,0.7,1.6,0.7,0c0,0,0-0.1,0-0.2l-0.7,0C66.8,110.4,66.8,110.4,66.8,110.4z"/>
	<path class="st0" d="M97.7,54.7v1.5c2.9,3,5.5,5.8,7.8,8l0.6-0.7C103.9,61.3,101.1,58.3,97.7,54.7z"/>
	<path class="st0" d="M111.2,69c-0.1-0.1-1.1-1.2-3.1-3.3l-0.2,1c1.3,1.3,2.2,2.2,2.9,2.8C111.3,70,111.8,69.6,111.2,69z"/>
	<path class="st0" d="M95.4,84.8c0-1.5,0-3.1,0-4.8c-0.4,0.3-0.9,0.7-1.3,1c0,1.3,0,2.6-0.1,3.8C94.5,84.9,94.9,84.8,95.4,84.8z"/>
	<path class="st0" d="M97.7,78.4c-0.4,0.1-0.7,0.3-1,0.6c0,2,0,3.9-0.1,5.7c0.4,0,0.7-0.1,1-0.2C97.6,82.4,97.7,80.4,97.7,78.4z"/>
	<path class="st0" d="M90.7,82c-0.3,0-0.6-0.1-0.9-0.1c0,1,0,1.9,0,2.7c0.3,0,0.6,0.1,0.9,0.1C90.7,83.9,90.7,83,90.7,82z"/>
	<path class="st0" d="M92.8,81.7C92.8,81.8,92.8,81.8,92.8,81.7c-0.4,0.2-0.7,0.3-1.1,0.3c0,1,0,1.9,0,2.7c0.4,0,0.7,0,1.1,0.1
		C92.8,83.8,92.8,82.8,92.8,81.7z"/>
	<path class="st0" d="M46.4,92.9c-0.3-0.4-0.5-0.6-0.6-0.7c-0.1-0.1-0.3-0.3-0.5-0.5c-2.1,0-3.5,0-3.5,0.1c0-0.2,0-0.9,0-2.1
		c-0.4-0.2-0.8-0.3-1.2-0.5c0,2.1,0.1,3.4,0.2,3.4C41,92.7,43.3,92.8,46.4,92.9z"/>
	<path class="st0" d="M48.2,95.7c-5.6,0-10.5,0-10.6-0.2c-0.1-0.4-0.2-2.8-0.2-3.4c0-1.1,0-2.4,0-3.8c-0.5-0.1-0.9-0.1-1.3-0.1
		c0,0,0,0-0.1,0c0,5.2,0.1,8.8,0.2,8.9c0.1,0.1,6.1-0.2,12.4-0.4c-0.1-0.2-0.2-0.3-0.3-0.5C48.4,96.1,48.3,95.9,48.2,95.7z"/>
	<path class="st0" d="M47.8,94.9c-0.3-0.4-0.5-0.9-0.8-1.3c-3.9-0.2-6.9-0.3-7-0.5c-0.1-0.1-0.1-1.7-0.2-4.3
		c-0.5-0.2-0.9-0.3-1.3-0.4c0,4,0.1,6.2,0.4,6.3C39,94.9,43,94.9,47.8,94.9z"/>
	<path class="st0" d="M97.3,38.5c-1.2,0.8-6.6-0.2-6.8-0.2c-8.2,2.3-11.1-0.4-17.2,0.2c0,0.1-4.9,1-6,3.8c-0.5-2.6-5.2-3.8-6.2-3.8
		c-14.8,0.3-14.2,0.9-17.4,0.7c-0.3,0-0.5,0-1,0c-1.2,0-4.2,0.1-5,0c-0.3,0-0.8-0.2-1-0.3c-0.6,0-0.7,0.4-0.7,1
		c0,0.8,0,24.3,0.1,40.9c0.5,0,1,0,1.3-0.1c0,0,0.1,0,0.1,0c0-16.5,0-39.9,0-40.2c0.1-0.8,1.3-0.4,1.2,0.5
		c-0.1,16.6-0.3,30.2-0.4,39.6c0.4-0.1,0.8-0.2,1.3-0.3c0.1-15.4,0.4-39.2,0.5-39.5c-0.1-0.6,0.7-0.9,0.7-0.1
		c0.1,0.3-0.2,24.2-0.3,39.4c0.4,0,0.9,0,1.3,0c0.2-14.4,0.6-37.2,0.6-39c0-1.3,0.7-1.2,0.6-0.3c0.1,1.3,0,14.4-0.3,39.4
		c0.4,0,0.7,0.1,1.1,0.2c0.2-23.7-0.1-37.2,0.1-40c0-0.4,0-0.5,0.6-0.5c8.3,0.1,21-3,22.2,3c0,0.2,0.3,38,0.1,49.6
		c-2.9-1.1-5-1.5-10.2-2.2c0.1,0.1,0.1,0.2,0.2,0.3c0.1,0.2,0.2,0.4,0.4,0.5c2.5,0.4,7.3,1.1,8.4,1.9c-0.5,0.3,0.1-0.1-0.7,0.6
		c-0.8-0.5-3.6-1-7-1.3c0.2,0.4,0.4,0.8,0.6,1.2c2.6,0.2,4.7,0.4,5.8,0.7c0.4,0.1-0.4,0.4-0.4,0.4c-1-0.2-2.9-0.4-5.1-0.5
		c0.1,0.3,0.3,0.6,0.4,0.8c1.7,0,2.9,0.1,3.4,0.1c0.3,0,1,0,0.7,0.6c0-0.1-1.5-0.1-3.8-0.1c0.1,0.2,0.3,0.4,0.4,0.7
		c1.8,0,3.1,0,3.5,0.2c1.4,0.5,2.1,1.1,3.8,1.1c1.2,0,2.5-0.3,3.7-1.2c0.2-0.1,1-0.1,2.2-0.1c-0.6-0.3-1.1-0.6-1.6-1
		c-0.1,0-0.2-0.1-0.6-0.6c0,0,0,0,0,0c-0.1-0.1-0.2-0.2-0.2-0.3c-0.1,0-0.1,0-0.1,0c0-0.1,0.1,0.1-0.4-0.4c0.1,0,0.2,0,0.2-0.1
		c-0.1-0.2-0.2-0.4-0.3-0.7c-0.1,0.1-0.3,0.1-0.4,0.2l-0.9-0.5c0.4-0.2,0.8-0.4,1.1-0.6c-0.1-0.4-0.1-0.7,0-1.1
		c-0.9,0.4-1.6,0.8-2.2,1.2c0,0-0.4-49.5-0.1-49.6c0.3-2.9,7.9-3.9,9.3-3.6c1.2,0.3,3.4,0.7,4.3,0.9c0,0,4.3,1,8.2-0.4
		c0,0.7,0,14,0,26.6c0.3-0.1,0.6-0.2,0.9-0.3c0-7.5,0.1-16.4,0.2-26.3c0.3-0.9,1-0.2,1,0.1c0,0.3-0.1,13.1-0.2,26
		c0.2,0,0.4-0.1,0.5-0.1c0.3-0.1,0.6,0,0.7,0.2c0.2-13.3,0.3-25.4,0.4-25.6c0-0.4,1-0.6,0.9,0.3c0.1,0.2-0.1,14.6-0.2,28.4
		c0.3,0.1,0.8,0.1,1.2,0.2c0-14,0-28.5,0-28.8c0.1-0.6,1.1-0.8,1.3,0.3c0.2,0.6,0.1,14.7,0,28.5c0.3-0.1,0.6-0.1,0.9-0.2
		c0.1,0,0.1,0,0.1-0.1c0.1-18.2,0.1-27.7,0.1-29C97.9,39.4,97.9,38.1,97.3,38.5z M70.5,95.7c-1.5,1.6-4.5,1.7-5.8,0.1
		c-0.3-0.3,1.1-2.2,2.8-2.3C69.5,93.5,70.6,95.5,70.5,95.7z"/>
	<path class="st0" d="M80.9,96.5c7.5,0.3,16.6,0.8,16.7,0.6c0-1.6,0-3.1,0-4.6c-0.4,0.1-0.7,0.2-1.1,0.2c0,1.7-0.1,2.8-0.1,3.3
		c-0.4-0.1-9.8-0.4-16.8-0.6C80,95.7,80.4,96,80.9,96.5z"/>
	<path class="st0" d="M76.4,93.1c3.2-0.3,6.6-0.5,9.5-0.6c-1.5-0.3-3-0.8-4.4-1.2c-1.8,0.1-3.7,0.3-5.4,0.5
		C76.2,92.3,76.3,92.7,76.4,93.1z"/>
	<path class="st0" d="M95.2,94.7c0-0.1,0.1-0.7,0.1-1.8c-0.5,0.1-1,0.2-1.4,0.2c0,0.1,0,0.2,0,0.2c-2.1-0.2-10.7,0.2-16.8,0.6
		c0.3,0.3,0.8,0.5,1.2,0.8C85.2,94.8,92.9,94.8,95.2,94.7z"/>
	<path class="st0" d="M38.8,80.2l-0.7,0.2c0,0-1.5,0-1.5,0c-1.1,0.1-3.1,0.4-3.8,1.2c-0.6,0.8-0.4,1.5-0.5,2.7
		c-0.1,0.7-0.2,1.8-0.4,2.3c-0.3,0.9-1.1,1.5-1.6,2.1c-0.5,0.5-0.8,1.3-1.1,2c-0.5,1.3,0.3,3,1,4.5c0.4,0.7,1.3,1.6,2,1.7
		c3,0.5,3.4-1.6,3.9-2.8c0.6-1.6,0.7-2.1,0.5-2.2l-0.3-0.2c0,0-0.6,0.1-0.7,0.1c-0.2,0-1.1,0.1-2.3-0.5l-1.1-0.6
		c-0.6-0.8-0.9-1.2-0.9-1.4c0,0,0-0.1,0.1-0.1c0.6-0.6,3.2-0.5,4.8-0.3l0.1,0l0.1,0c2.1-0.2,6.5,0.5,9.2,3.8l0,0l0,0
		c0.3,0.2,1.3,1.7,1.7,2.4c0,0,0.2,0.3,0.3,0.4c0.1,0.1,0.2,0.5,0.2,0.5l0.2,0.5l0,0.1c0.5,0.8,1.7,2.1,2.2,3l0.5,0.9l0.3,0.6
		c0.9,1.5,1.6,2.8,2.7,4.1c0.8,1.1,2.6,2.2,6.7,4c3.8,1.7,10.8,1.8,17.1-0.3l0,0l0,0c3.8-1.8,5.2-4.3,5.3-4.6c0.2-0.4,2-4.3-0.2-7.1
		c-1-1.1-2.4-1.7-4.1-2.5c-2.3-1.1-3.1-2.1-1.8-4.7l-0.7-0.2c-0.4,0.9-0.6,1.6-0.6,2.3c0,1.9,1.7,2.9,3.3,3.8c1.1,0.6,2.2,1.2,3,2.2
		c0.6,0.8,1.2,1.5,1.2,2.3c0,1.6-1.1,4.2-1.7,5c-0.8,1.1-2,1.9-4.8,3.2c-6,2.1-11.7,1.9-15.2,0.4c-3.8-1.7-6.4-2.9-7.5-4.5
		c-1-1.4-1.7-2.7-2.5-4.2l-0.3-0.6l-0.5-0.9c-0.5-0.9-1-1.8-1.5-2.6c0-0.1-0.5-1.1-0.5-1.1l0-0.1l-0.3-0.4c-0.8-1.1-1.5-2.2-1.9-2.6
		c-1.3-1.6-7-4.2-10-4.1c-3,0.1-2.5-0.3-4,0c0.1-0.2,0.2-0.5,0.3-0.7c0.2-0.7,0.1-1.6,0.2-2.3c0.1-1,0.5-2.1,0.9-2.6
		c0.6-0.7,2-0.5,2.9-0.5l1-0.1l0.7-0.2c3-0.7,6.2-1.5,11.6,2.9l0,0l0.1,0c0.2,0.1,0.8,0.6,1.4,1.1l2.3,1.9c0.5,0.4,1.5,1.8,2.2,3
		l0.6,0.9c0.5,0.8,0.9,1.7,1.2,2.7c0.7,1.7,1.8,3.8,3.4,4.6l1.3,0.7c1.5,0.8,3,1.6,5.1,1.9c4.7,0.6,8.6,0,10.1-1.7
		c0.6-0.7,0.9-1.5,0.7-2.4l-1.1,0.2c0.1,0.6,0,1.1-0.4,1.5c-2.3,1.9-4.1,2.3-8.4,1.7c-1.8-0.2-3.2-0.8-4.6-1.6c0,0-1-0.5-2.3-1.1
		c-1.4-0.6-2.2-1.9-2.8-3.6c-0.4-1-0.5-1.8-1.1-2.7l-1.4-2c-0.9-1.3-1.2-1.9-1.8-2.3l-2.2-1.9c-0.9-0.8-1.6-1.7-1.8-1.8
		C45.1,79.5,41.2,79.7,38.8,80.2z M30.1,93.5c-0.2-0.5-0.2-1.1-0.1-2c0-0.3,0-0.5,0.1-0.7c0.1-0.3,0.3-0.6,0.5-0.8
		c0.3,0.4,0.9,0.8,1.5,1.1l1.2,0.8c0.7,0.5,1.7,0.9,2.5,0.9c-0.2,0.7-0.7,1.8-1.5,2.6c-0.7,0.5-1.2,0.8-2.1,0.6
		C31.6,96,30.6,94.8,30.1,93.5z M37.7,81.4L37.7,81.4L37.7,81.4z M46.4,91.9C46.4,91.9,46.5,91.9,46.4,91.9L46.4,91.9
		C46.4,91.8,46.4,91.9,46.4,91.9z"/>
	<path class="st0" d="M102.1,78.4l-1.5-0.2c2.1,1,3.6,2.8,3.9,5.1c0.4,2.3,0.3,4.2-1.6,5.9c-2.1,2-3,2.7-6.3,3.2l-1.3,0.2
		c-5.7,0.8-11-0.2-14.4-1.8c-3.4-1.5-6.9-2.8-9.3-2.1l0.3,1c2.1-0.6,5.5,0.6,8.8,1.8c3.5,1.3,8.5,2.7,14.5,1.9l1.3-0.2
		c3.5-0.5,4.3-1,6.2-2.8c2.1-1.9,3.4-4.6,3-7.3c-0.4-2.6-2.1-4.7-4.5-5.9L102.1,78.4z"/>
	<path class="st0" d="M102.1,78.2l-1.2,0.2c0.5,0,1.1,0.6,1.3,1.5c0.1,0.6,0.3,2.7-2.3,3.6c-3.4,1.1-3.8,1.3-10.4,0.7
		c-2.5-0.2-3.5-0.6-5-1.3l-1.7-1c-3-1.4-7.1-1.3-9.2-0.4c-1.1,0.5-1.8,0.8-2.3,1.6L71,83.3l0.1,0.3c0.2,0.6,0.7,1.2,0.9,1.7
		c0.2,0.5,0.1,1.4,0.1,1.8c0,0.8-0.7,1.6-0.9,1.9l0.1-0.1c-0.9,0.5-1.1,2-1.2,3.7c0,2.2,1.3,3.8,3.7,4.4c2.2,0.6,2.4,0.6,4,0.5
		l1.3-0.1c1.5-0.1,2.1-0.2,2.9,0.6l0.7-0.8c-1.2-1.1-2.2-1-3.8-0.8l-1.3,0.1c-1.4,0.1-2,0.3-4.1-0.2c-1.9-0.5-2.7-2.2-2.7-3.9
		c0,0,0,0,0,0c0-1.3,0.3-2.1,0.9-2.4c0.5-0.3,1.3-2.1,1.3-3.3c0-0.1,0-0.3,0-0.4c-0.1-0.5-0.3-0.9-0.5-1.4c-0.2-0.4-0.3-0.8-0.5-1.2
		c0.4-0.5,0.6-0.9,1.5-1.3c1.6-0.7,5.2-1.1,8.1,0.3l2.1,0.9c1.5,0.8,2.8,1.4,5.5,1.7c6,0.6,9.2-0.1,10.9-0.8
		c3.4-1.4,3.2-3.8,3.1-4.5c-0.2-1.3-1.2-2.4-2.3-2.4L102.1,78.2z"/>
	<path class="st0" d="M92.9,76c0-1.7,0-3.4,0.1-5.2c-0.4-0.1-0.8-0.2-1.2-0.2c0,2,0,4,0,5.9C92.1,76.4,92.5,76.2,92.9,76z"/>
	<path class="st0" d="M89.8,70.6c0,2.3,0,4.6,0,6.6c0.1,0,0.2,0,0.3,0c0.2,0,0.4-0.1,0.6-0.2c0-2,0-4.2,0-6.5
		C90.4,70.6,90.1,70.6,89.8,70.6z"/>
	<path class="st0" d="M97.7,72.8c-0.3-0.1-0.6-0.2-1-0.3c0,1.1,0,2.2,0,3.3c0.3,0,0.6,0,1,0.1C97.7,74.8,97.7,73.8,97.7,72.8z"/>
	<path class="st0" d="M94.2,71.2c0,1.5,0,3-0.1,4.5c0.4,0,0.8,0,1.2,0c0,0,0.1,0,0.1,0c0-1.2,0-2.5,0-3.8
		C95,71.7,94.5,71.5,94.2,71.2C94.2,71.2,94.2,71.2,94.2,71.2L94.2,71.2L94.2,71.2z"/>
	<path class="st0" d="M107.9,61.2c-0.5,0.3-3,3.3-4.6,5.2c-0.2-0.8-0.4-2.5-0.6-3.6c-0.3-2-1.1-2.9-1.7-4h-0.6l0.1,0.6
		c0.3,3.1-0.3,5.5-0.7,7c-0.4,1.5-0.8,2-1.5,2.4c-0.8,0.4-1.8,0.7-2.7,0.6c-0.5,0-1.6-0.5-2-0.7c0,0.4,0,0.7,0,0.9l0.1,0
		c0.7,0.2,2.4,0.6,4.2,0l0.2-0.1c1-0.3,2.2-0.8,2.8-2.8c0.3-1,0.4-3.9,0.5-5.5c0.9,2,1.4,5.7,1.5,6l0.2,1.1c0,0,0.4-0.4,0.7-0.9
		c2.2-3.1,2.9-4,4.2-5.1c-0.2,1.9-0.6,3.8-1.1,4.9l-0.2,0.4c-0.8,2.1-1.8,3.7-5,4.7c-1.7,0.6-3.1,0.1-4.7-0.2
		c-1.5-0.3-2.6-1.2-3-1.9c-0.1-0.2-0.4-0.3-0.3-0.4l-0.2-0.1c0,0,0,0,0,0c0.1,0.4,0.7,1.4,0.7,1.4v0c-0.4-0.1-0.7-0.2-1-0.3
		c0.8,1.3,3.3,2.2,4.5,2.4c1.8,0.4,4.4-0.3,6.1-1.1c1.2-0.5,3.1-2,3.9-4.2l0.2-0.4c0.5-1.3,0.6-2.6,0.8-4.8l0.2-2.1L107.9,61.2z"/>
	<path class="st0" d="M92.3,65.5c-0.3,0-1.7,0.3-2.2,0.4c-0.5,0.1-2.4,0.5-3.7,1.6c-1.2,1.1-2,2.3-2,3.9c0,1.1,0.4,2.1,1,3.6
		c0.3,0.8,0.6,1.7,0.6,1.7c0.7,1.2,0.5,2.1,0.7,3.1c0.3,1.7,1.4,2,1.8,2.1c1.6,0.4,3.1,0.9,4.6,0.3c1.1-0.4,2.3-1.3,3.8-2.7
		c1.4-1.3,2.5-2.3,6.9,1.3l0.8-0.7l-1.6-1.7l-0.6-0.7c-3.1-2.5-3.6-2.1-5.3-2l-1.6-0.2c-1.9-0.2-2.8,0.3-3.7,0.8
		c-0.4,0.2-1.8,0.7-2.1,0.7c-1.6,0.1-2.4-0.5-2.6-0.9c-0.1-0.2-0.2-0.4-0.4-0.7c-0.1-0.3-0.2-0.9-0.2-0.9c0-0.8,0.4-1.3,1.2-2.3
		c1.2-1.6,3.4-1.8,6.2-0.6l0.9,0.4l-0.7-2.1c0,0-0.2-1.5-0.2-1.5c0-1.5,0.6-1.6,0-2.3C93.5,65.7,92.7,65.5,92.3,65.5z M85.1,71.5
		c0-1.6,1-2.8,1.7-3.4c1.8-1.4,3.6-1.7,4.1-1.9c0,0,1.3-0.4,1.7-0.2c0.5,0.4,0.3,2.2,0.3,2.8c0,0-0.1,0.5,0.2,1
		c0.2,0.5,0.7,0.7,0.7,0.9c-3.9-1.3-6.5-0.3-7.4,0.9c-0.3,0.4-0.5,0.9-0.7,1.4C85.7,72.6,85.1,72,85.1,71.5z M96.3,76.3
		c1.5-0.1,3.8-0.2,5.4,1.9c-3.4-0.6-4.7,0.1-6.2,1.4c-1.4,1.3-2.1,1.3-3,1.7c-1.1,0.4-2.2,0.7-3.4,0.3c-1.2-0.5-1.7-1.5-1.8-1.9
		c-0.1-0.7,0.1-0.9-0.1-2c0.8,0.2,1.7,0.3,2.9,0.2c0.5,0,1-0.3,1.6-0.6c0.9-0.5,2-1.1,3.6-0.9L96.3,76.3z"/>
	<g>
		<g>
			<path class="st0" d="M41.5,86l2,0.7c0.1,0,0.1,0,0.2-0.2l0.1,0l-0.6,1.6l-0.1,0c0.1-0.2,0-0.2,0-0.3l-3-1.1l0-0.1
				c0.2,0,0.2,0,0.2-0.1l1.5-4.2c0-0.1,0-0.1-0.1-0.2l0-0.1l1.2,0.4l0,0.1c-0.1,0-0.2,0-0.2,0.1L41.5,86z"/>
		</g>
		<g>
			<path class="st0" d="M47.1,88L47.1,88c0-0.2,0-0.3-0.1-0.3l-1-0.6l-0.5,0.8l1.7,1c0.1,0,0.1,0,0.2-0.2l0.1,0l-0.9,1.4l-0.1,0
				c0.1-0.1,0.1-0.2,0-0.2L44,88.3l0.1-0.1c0.1,0.1,0.2,0,0.2-0.1l2.3-3.8c0-0.1,0.1-0.1-0.1-0.2l0.1-0.1l2.6,1.6
				c0.1,0,0.1,0,0.2-0.2l0.1,0l-0.9,1.4l-0.1,0c0.1-0.2,0.1-0.3,0-0.3l-1.7-1l-0.4,0.7l1,0.6c0.1,0.1,0.2,0,0.3-0.1l0.1,0L47.1,88z"
				/>
		</g>
		<g>
			<path class="st0" d="M48.2,91.2L48.2,91.2c0.2,0,0.3,0,0.3-0.1l2.5-2.6l-0.8-0.7c0,0-0.1,0-0.3,0.1l-0.1-0.1l1.2-1.2l0.1,0.1
				C51,86.9,51,86.9,51,87l2.2,2.1c0.1,0,0.1,0,0.3-0.1l0.1,0.1l-1.2,1.2l-0.1-0.1c0.1-0.2,0.2-0.2,0.1-0.3l-0.8-0.7l-2.5,2.6
				c-0.1,0.1-0.1,0.1,0,0.2l-0.1,0.1L48.2,91.2z"/>
		</g>
		<g>
			<path class="st0" d="M51.7,96.1l0.1,0c0.1,0.1,0.2,0.1,0.2,0.1l3.2-1.5l-0.4-1c0-0.1-0.1-0.1-0.3,0l0-0.1l1.5-0.7l0,0.1
				c-0.2,0.1-0.2,0.2-0.2,0.2l1.3,2.8c0,0.1,0.1,0.1,0.3,0l0,0.1l-1.5,0.7l0-0.1c0.2-0.1,0.2-0.1,0.2-0.2l-0.4-1l-3.2,1.5
				c-0.1,0-0.1,0.1-0.1,0.2l-0.1,0L51.7,96.1z"/>
		</g>
		<g>
			<path class="st0" d="M55.4,102.6c-0.1,0.1-0.1,0.1,0,0.2l-0.1,0.1l-0.7-1l0.1-0.1c0.1,0.1,0.2,0.1,0.2,0l1.4-1l-0.9-1.3l-1.4,1
				c-0.1,0.1-0.1,0.1,0,0.2l-0.1,0.1l-0.7-1l0.1-0.1c0.1,0.1,0.2,0.1,0.2,0l3.6-2.6c0.1,0,0.1-0.1,0-0.2l0.1-0.1l0.7,1L57.7,98
				c-0.1-0.1-0.2-0.1-0.2,0l-1.2,0.9l0.9,1.3l1.2-0.9c0.1,0,0.1-0.1,0-0.2l0.1-0.1l0.7,1l-0.1,0.1c-0.1-0.1-0.2-0.1-0.2,0
				L55.4,102.6z"/>
		</g>
		<g>
			<path class="st0" d="M59.7,104.1L59.7,104.1c0-0.2,0-0.3-0.1-0.3l-0.9-0.7l-0.5,0.7l1.6,1.2c0.1,0,0.1,0,0.3-0.2l0.1,0l-1,1.3
				l-0.1,0c0.1-0.1,0.1-0.2,0-0.2l-2.5-1.8l0.1-0.1c0.1,0.1,0.2,0,0.2,0l2.6-3.6c0.1-0.1,0.1-0.1,0-0.2l0.1-0.1l2.5,1.8
				c0.1,0,0.1,0,0.2-0.1l0.1,0l-1,1.3l-0.1,0c0.1-0.2,0.1-0.2,0.1-0.3l-1.6-1.2l-0.5,0.6l0.9,0.7c0.1,0.1,0.2,0,0.3-0.1l0.1,0
				L59.7,104.1z"/>
		</g>
		<g>
			<path class="st0" d="M61.9,106.9c0,0.1,0,0.1,0.1,0.2l0,0.1l-1.2-0.4l0-0.1c0.2,0,0.2,0,0.2-0.1l1.4-4.2c0-0.1,0-0.2-0.1-0.2
				l0-0.1l2.1,0.7c0.9,0.3,1.1,0.9,0.7,1.9c-0.3,0.8-0.8,1.2-1.3,1.2l0.2,1.7c0,0.1,0.1,0.2,0.1,0.2l0,0.1l-1.2-0.4l0-0.1
				c0.1,0,0.1,0,0.2-0.1c0-0.1-0.2-1.5-0.2-1.7l-0.6-0.2L61.9,106.9z M62.7,104.4l1,0.3c0.3,0.1,0.5-0.1,0.6-0.3
				c0.1-0.3,0.1-0.5-0.3-0.6l-1-0.3L62.7,104.4z"/>
		</g>
		<g>
			<path class="st0" d="M68.5,106.6L68.5,106.6c-0.1-0.1-0.1-0.2-0.2-0.2l-1.1-0.1l-0.1,0.9l2,0.1c0.1,0,0.1,0,0.1-0.3l0.1,0
				l-0.1,1.7l-0.1,0c0-0.2,0-0.2-0.1-0.2l-3.1-0.2l0-0.1c0.2,0,0.2-0.1,0.2-0.2l0.3-4.4c0-0.1,0-0.2-0.2-0.2l0-0.1l3.1,0.2
				c0.1,0,0.1,0,0.1-0.3l0.1,0l-0.1,1.7l-0.1,0c0-0.2,0-0.3-0.1-0.3l-2-0.1l-0.1,0.8l1.1,0.1c0.1,0,0.2-0.1,0.2-0.2h0.1L68.5,106.6z
				"/>
		</g>
		<g>
			<path class="st0" d="M71.8,103.3c0-0.1-0.1-0.1-0.2-0.1l0-0.1l2.2-0.7c0.6-0.2,1.2,0,1.5,0.9c0.2,0.5,0,1-0.3,1.2l0,0
				c0.4,0,0.8,0.3,1,1c0.2,0.7,0.1,1.5-0.8,1.7l-2.3,0.7l0-0.1c0.1-0.1,0.1-0.1,0.1-0.2L71.8,103.3z M73.2,104.6l0.8-0.2
				c0.5-0.2,0.6-0.3,0.5-0.6c-0.1-0.4-0.3-0.4-0.8-0.2l-0.8,0.2L73.2,104.6z M73.8,106.6l1-0.3c0.4-0.1,0.5-0.3,0.4-0.7
				c-0.1-0.4-0.3-0.5-0.7-0.4l-1,0.3L73.8,106.6z"/>
		</g>
		<g>
			<path class="st0" d="M79.3,103.5L79.3,103.5c-0.1-0.1-0.2-0.1-0.3-0.1l-1,0.5l0.4,0.8l1.8-0.9c0.1,0,0.1-0.1,0-0.3l0.1,0l0.8,1.5
				l-0.1,0c-0.1-0.1-0.1-0.2-0.2-0.1l-2.7,1.4l-0.1-0.1c0.1-0.1,0.1-0.2,0.1-0.2l-2-4c0-0.1-0.1-0.1-0.2-0.1l-0.1-0.1l2.7-1.4
				c0.1,0,0.1-0.1,0-0.3l0.1,0l0.8,1.5l-0.1,0c-0.1-0.2-0.2-0.2-0.2-0.2l-1.8,0.9l0.4,0.7l1-0.5c0.1-0.1,0.1-0.2,0.1-0.3l0.1,0
				L79.3,103.5z"/>
		</g>
		<g>
			<path class="st0" d="M77.7,87l2.1,0.5c0.1,0,0.1,0,0.2-0.2l0.1,0l-0.4,1.6l-0.1,0c0-0.2,0-0.3,0-0.3l-3.1-0.8l0-0.1
				c0.2,0,0.2,0,0.2-0.1l1.1-4.3c0-0.1,0-0.2-0.1-0.2l0-0.1l1.2,0.3l0,0.1c-0.2,0-0.2,0-0.2,0.1L77.7,87z"/>
		</g>
		<g>
			<path class="st0" d="M80.5,89.1l0-0.1c0.1,0,0.2,0,0.2-0.1l1.7-4.1c0-0.1,0-0.1-0.1-0.2l0-0.1l1.2,0.5l0,0.1
				c-0.2,0-0.2,0-0.2,0.1l-1.7,4.1c0,0.1,0,0.1,0.1,0.2l0,0.1L80.5,89.1z"/>
		</g>
		<g>
			<path class="st0" d="M86.7,89.3l-0.8-0.2c-0.1,0-0.1,0.1-0.1,0.2l-0.1,0l0.3-1.3l0.1,0c0,0.1,0,0.2,0,0.2l1.8,0.5l0,0.1
				c-0.1,0-0.1,0-0.1,0.1l-0.4,1.5c0,0.1,0,0.2,0,0.2l0,0l0,0.1C86.7,91,86,91,85.3,90.8c-1-0.3-1.7-1.3-1.3-3
				c0.4-1.7,1.6-2.2,2.6-2c0.4,0.1,0.6,0.2,0.9,0.5c0.2,0.1,0.3,0.3,0.4,0.4c0,0,0.1,0,0.1-0.1l0.1,0.1l-0.7,1.1l-0.1-0.1
				c0,0,0-0.1,0-0.1c0-0.2-0.5-0.6-1-0.7c-0.6-0.1-1.2,0.2-1.5,1.2c-0.3,1,0.2,1.6,0.8,1.7c0.3,0.1,0.6,0.1,0.9,0L86.7,89.3z"/>
		</g>
		<g>
			<path class="st0" d="M92.7,91.5c0,0.1,0,0.2,0.2,0.2l0,0.1l-1.3-0.1l0-0.1c0.2,0,0.2-0.1,0.2-0.2l0.1-1.8l-1.6-0.1l-0.1,1.8
				c0,0.1,0,0.2,0.2,0.2l0,0.1L89,91.6l0-0.1c0.2,0,0.2-0.1,0.2-0.2l0.3-4.4c0-0.1,0-0.2-0.2-0.2l0-0.1l1.3,0.1l0,0.1
				c-0.2,0-0.2,0.1-0.2,0.2l-0.1,1.5l1.6,0.1l0.1-1.5c0-0.1,0-0.2-0.2-0.2l0-0.1l1.3,0.1l0,0.1C93,87,93,87,93,87.1L92.7,91.5z"/>
		</g>
		<g>
			<path class="st0" d="M95.8,91.5l0-0.1c0.1,0,0.2-0.1,0.1-0.2l-0.6-3.5l-1.1,0.2c-0.1,0-0.1,0.1-0.1,0.3l-0.1,0l-0.3-1.7l0.1,0
				c0.1,0.2,0.1,0.3,0.2,0.2l3-0.5c0.1,0,0.1-0.1,0.1-0.3l0.1,0l0.3,1.7l-0.1,0c-0.1-0.2-0.1-0.3-0.2-0.2l-1,0.2l0.6,3.5
				c0,0.1,0,0.1,0.2,0.1l0,0.1L95.8,91.5z"/>
		</g>
	</g>
	<g>
		<path class="st0" d="M47.3,121.6l0.1-0.2c0.2,0.1,0.3,0,0.4-0.1l1.7-5c0-0.1,0-0.2-0.2-0.3l0.1-0.2l1.8,0.6l-0.1,0.2
			c-0.2-0.1-0.3,0-0.4,0.1l-1.7,5c0,0.1,0,0.2,0.2,0.3l-0.1,0.2L47.3,121.6z"/>
		<path class="st0" d="M52.2,116.9l3.9,0.9c1.5,0.3,2.3,1,2,2.3c-0.2,1-1,1.4-2,1.3l1,2.5c0.1,0.2,0.2,0.2,0.4,0.2l0,0.2l-2.1-0.5
			l0-0.2c0.1,0,0.3,0,0.3-0.1c0-0.1,0-0.2-0.1-0.4l-0.9-2.1l-1.6-0.4l-0.4,2c0,0.1,0,0.2,0.3,0.3l0,0.2l-2-0.4l0-0.2
			c0.2,0,0.3,0,0.4-0.1l1.2-5.2c0-0.1-0.1-0.2-0.3-0.3L52.2,116.9z M53.3,119.9l2,0.4c1.1,0.2,1.5,0,1.6-0.5
			c0.1-0.5-0.1-0.9-1.2-1.2l-2-0.4L53.3,119.9z"/>
		<path class="st0" d="M66,118.9l0,0.2c-0.3,0-0.4,0.3-0.5,0.4l-2.4,4.4c-0.2,0.3-0.3,0.5-0.3,0.6c0,0.1,0,0.1,0.1,0.2l0,0.2
			l-1.8-0.1l0-0.2c0.1,0,0.1-0.1,0.1-0.1c0-0.1-0.1-0.3-0.2-0.7l-1.7-4.7c-0.1-0.2-0.2-0.2-0.4-0.3l0-0.2l2.1,0.2l0,0.2
			c-0.1,0-0.2,0-0.2,0.2c0,0.2,0.1,0.4,0.3,0.8l1.2,3.3l1.7-3c0.2-0.4,0.4-0.7,0.5-0.8c0-0.1-0.1-0.2-0.3-0.2l0-0.2L66,118.9z"/>
		<path class="st0" d="M66.8,124.9l0-0.2c0.2,0,0.3-0.1,0.3-0.2l-0.1-5.3c0-0.1-0.1-0.2-0.3-0.2l0-0.2l1.9,0l0,0.2
			c-0.2,0-0.3,0.1-0.3,0.2l0.1,5.3c0,0.1,0.1,0.2,0.3,0.2l0,0.2L66.8,124.9z"/>
		<path class="st0" d="M70.8,124.9l0-0.2c0.1,0,0.2-0.1,0.2-0.2l-0.7-5.3c0-0.1-0.1-0.2-0.2-0.2l0-0.2l2-0.3l0,0.2
			c0,0-0.1,0-0.1,0.1c0,0.1,0.1,0.2,0.3,0.3l3.8,3l-0.5-3.7c0-0.1-0.1-0.2-0.3-0.2l0-0.2l1.7-0.2l0,0.2c-0.1,0-0.2,0.1-0.2,0.2
			l0.7,5.3c0,0.1,0.1,0.2,0.2,0.2l0,0.2l-1.9,0.2l0-0.2c0.1,0,0.1-0.1,0.1-0.1c0-0.1-0.1-0.1-0.2-0.2l-4-3.2l0.5,3.8
			c0,0.1,0.1,0.2,0.3,0.2l0,0.2L70.8,124.9z"/>
		<path class="st0" d="M84.1,117.2l-0.2,0.1c0-0.2-0.2-0.2-0.5-0.1l-3.6,1l0.4,1.4l2.2-0.6c0.3-0.1,0.5-0.2,0.4-0.5l0.2-0.1l0.5,1.8
			l-0.2,0.1c-0.1-0.3-0.3-0.4-0.6-0.3l-2.2,0.6l0.4,1.6l3.8-1.1c0.2-0.1,0.3-0.2,0.3-0.4l0.2-0.1l0.4,1.6l-0.2,0.1
			c-0.1-0.2-0.2-0.2-0.5-0.1l-5.2,1.5l-0.1-0.2c0.1,0,0.2-0.1,0.1-0.3l-1.4-5.1c0-0.1-0.2-0.2-0.3-0.1l-0.1-0.2l5.1-1.5
			c0.3-0.1,0.4-0.2,0.3-0.4l0.2-0.1L84.1,117.2z"/>
	</g>
</g>
</svg>
