<?xml version="1.0" encoding="utf-8"?>
<!-- Generator: Adobe Illustrator 25.2.1, SVG Export Plug-In . SVG Version: 6.00 Build 0)  -->
<svg version="1.1" id="Layer_1" xmlns="http://www.w3.org/2000/svg" xmlns:xlink="http://www.w3.org/1999/xlink" x="0px" y="0px"
	 viewBox="0 0 359.9 119.8" style="enable-background:new 0 0 359.9 119.8;" xml:space="preserve">
<style type="text/css">
	.st0{fill:#FFFFFF;}
</style>
<g id="uTodc4.tif">
	<g>
		<path class="st0" d="M9.7,29.9c0-5.9,0-11.4,0-16.9c0-1.3-0.2-2.6-0.4-3.9C8.8,5.9,6.6,4.4,3.7,3.9C2.8,3.7,1.9,3.6,1,3.5
			c-0.6-0.1-1-0.2-1-1s0.5-0.8,1-0.8c8.6,0,17.2,0,25.7,0c0.5,0,1.1-0.1,1.1,0.8c0,0.8-0.5,1-1.1,1.1c-1.1,0.2-2.1,0.4-3.2,0.6
			c-2.9,0.6-4.4,2.6-4.8,5.4c-0.2,1.4-0.3,2.8-0.3,4.2c0,10-0.1,20,0,30c0,3.5,0.5,7,1.5,10.4c2.2,7.6,7,12.3,15,13.4
			s14.9-1.3,19.5-8.3c2.2-3.4,3.2-7.3,3.7-11.3c1.5-10.7,1-21.4,0.4-32.2c-0.1-1.8-0.3-3.7-0.6-5.5c-0.4-2.8-2-4.6-4.6-5.6
			c-1.6-0.6-3.3-1-5-1.2c-0.6-0.1-1.2-0.1-1.2-1c0-1,0.7-0.8,1.3-0.8c7.8,0,15.6,0,23.5,0c0.6,0,1.2-0.2,1.2,0.8
			c0,0.9-0.5,0.9-1.1,1c-1.4,0.2-2.7,0.5-3.9,1c-2.5,1-3.9,2.9-4.5,5.5c-1.1,5.6-1.4,11.2-1.5,16.8c-0.2,6.2,0.2,12.4-0.4,18.6
			c-0.5,5.2-1.6,10.2-4.2,14.7C53.2,67.7,46.3,71.4,38,72.5c-4.1,0.5-8.2,0.1-12.2-1.1c-9.5-2.8-14.1-9.6-15.5-19.1
			C9.2,44.8,9.9,37.1,9.7,29.9z"/>
		<path class="st0" d="M107.8,72.7c-8.7,0-16.7-1.6-23.7-6.5C75,59.9,70.4,51,69.7,40.1c-0.8-10.8,2.2-20.4,9.8-28.3
			c5.7-6,12.9-9.4,21-10.9c9.4-1.8,18.6-0.6,27.7,1.7c0.8,0.2,1,0.6,1.1,1.3c0.5,4.6,1.1,9.2,1.6,13.7c0.1,0.5,0.6,1.3-0.6,1.5
			c-1,0.2-1.2-0.4-1.5-1.1c-1.7-4.6-4-8.8-8.1-11.8c-4.8-3.5-10.4-4.2-16.1-3.7C93,3.6,85.7,10.2,82.3,21c-3.9,12.1-3.1,24,2.8,35.3
			c7.2,13.9,21.8,16.2,32,11.9c4.1-1.7,7.1-4.9,9.7-8.4c1.6-2.2,3.1-4.6,4.4-7c0.4-0.7,0.8-0.8,1.5-0.6c1.1,0.3,0.4,0.9,0.3,1.4
			c-1.4,4.8-2.8,9.7-4.4,14.4c-0.4,1.1-0.9,1.7-2.2,2C120.1,71.5,113.9,72.7,107.8,72.7z"/>
		<path class="st0" d="M226.3,62.2c2.4-6.6,4.9-13,7.3-19.6c1.6-4.4,3.3-8.7,4.4-13.2c0.1-0.6,0.3-1.2,0.3-1.8
			c0.2-2.2-0.4-3-2.6-3.5c-0.7-0.2-1.4-0.3-2.1-0.4c-0.5-0.1-0.7-0.2-0.6-0.7c0-0.5,0.4-0.6,0.8-0.5c0.2,0,0.4,0,0.6,0
			c10.3,0,20.6,0,30.9,0c0.3,0,0.6,0,1,0s0.6,0.3,0.6,0.6s-0.1,0.5-0.4,0.6c-0.6,0.1-1.2,0.2-1.8,0.3c-2.9,0.5-4.1,1.9-4.3,4.8
			c-0.3,4.1-0.2,8.1-0.2,12.2c0,7.4-0.2,14.8,0.1,22.1c0.2,4.5,0.9,5.3,5.4,6.3c0.5,0.1,1.4-0.1,1.2,0.9c-0.1,0.8-0.9,0.5-1.3,0.5
			c-5.6,0-11.2,0-16.8,0c-0.5,0-1.2,0.3-1.3-0.6c-0.1-0.9,0.7-0.7,1.1-0.8c0.7-0.2,1.4-0.3,2.1-0.4c1.9-0.5,2.9-1.8,3.2-3.7
			c0.2-1.1,0.3-2.3,0.3-3.4c0-10.2,0-20.4,0-30.6c0-1.1-0.1-2.3-0.3-3.4c-0.4-2.9-3.6-4.6-6.7-3.8c-2.2,0.6-3.6,2.1-4.6,4
			c-2.2,3.9-3.9,8-5.5,12.1c-4,10.1-7.9,20.1-11.8,30.2c-0.2,0.6-0.2,1.5-1.2,1.5s-0.9-0.9-1.1-1.5c-5.1-13.4-10.4-26.7-15.8-40
			c-0.3-0.7-0.6-1.4-0.9-2.1c-1-2.4-2.7-4-5.4-4.4c-0.4-0.1-1.2,0.1-1.2-0.8c0.1-0.9,0.8-0.6,1.2-0.6c5.1,0,10.2,0,15.3,0
			c0.5,0,1.2-0.3,1.3,0.5c0.1,0.9-0.7,0.7-1.1,0.9c-4.6,1.2-4.7,1.3-3,5.8c4.1,10.4,8.2,20.7,12.3,31.1
			C225.6,61.3,225.7,61.8,226.3,62.2z"/>
		<path class="st0" d="M148.5,1.6c4.2,0,8.5,0,12.7,0c0.5,0,1.2-0.4,1.3,0.7c0.1,0.9-0.4,1.1-1.2,1.1c-0.4,0-0.9,0.1-1.3,0.2
			c-5.4,1.1-6.9,2.7-7,8.2c-0.3,15.3-0.1,30.5-0.1,45.8c0,1.9,0,3.8,0.3,5.7c0.4,2.8,1.9,4.7,4.7,5.3c1.2,0.3,2.3,0.5,3.5,0.7
			c0.7,0.1,0.9,0.3,0.9,1c0,0.8-0.4,0.9-1,0.9c-8.6,0-17.3,0-25.9,0c-0.6,0-0.9-0.1-0.9-0.8c0-0.6,0.1-1,0.8-1.1
			c1.1-0.1,2.2-0.3,3.3-0.6c3.3-0.8,4.6-2.4,5-5.8c0.3-2.3,0.3-4.5,0.3-6.8c0-14.1,0-28.1,0-42.2c0-1.5-0.1-3-0.4-4.5
			c-0.5-3.3-2.2-4.9-5.7-5.6c-0.8-0.2-1.7-0.3-2.6-0.4c-0.7-0.1-0.9-0.3-0.9-1c0-0.8,0.5-0.8,1.1-0.8C140.1,1.6,144.3,1.6,148.5,1.6
			z"/>
		<path class="st0" d="M176.5,22.5c3.8,0.2,8.5-0.3,13,0.5c5,0.9,8.9,3.3,10.1,8.6c1.3,5.6-0.6,10.1-5.1,13.6
			c-1.1,0.9-2.3,1.6-3.6,2.1c-0.7,0.3-0.7,0.6-0.4,1.2c4,6.8,8.3,13.5,13.7,19.4c1,1.1,2.2,1.9,3.7,2.3c0.4,0.1,0.9,0.1,0.7,0.8
			c-0.2,0.6-0.6,0.4-0.9,0.4c-6.1,0.1-11.2-1.7-14.6-7.3c-2.2-3.7-4.5-7.4-6.7-11.1c-1.9-3.2-4.8-4.5-8.4-3.6
			c-0.6,0.2-0.6,0.5-0.6,0.9c0.1,4.9-0.2,9.8,0.2,14.6c0.2,2.5,1.4,3.7,4.1,4.3c0.4,0.1,0.9,0.1,1.3,0.2s1.2-0.1,1.1,0.8
			s-0.8,0.5-1.3,0.5c-5.6,0-11.3,0-16.9,0c-0.5,0-1.2,0.3-1.3-0.6c-0.1-0.9,0.7-0.7,1.1-0.8c4.2-0.6,5.6-1.5,5.7-6.9
			c0.1-10.6,0-21.3,0-31.9c0-0.7,0-1.4-0.2-2.1c-0.5-3.2-1.3-4-4.5-4.6c-0.6-0.1-1.8,0.2-1.8-0.9c0.1-1.1,1.2-0.5,1.9-0.6
			C169.8,22.5,172.7,22.5,176.5,22.5z M177.3,36.3c0,3.3,0.1,6.6,0,9.9c0,1.3,0.4,1.7,1.7,1.6c1.8-0.1,3.6-0.1,5.4-0.3
			c3.8-0.3,6.4-2.3,8-5.8c0.7-1.6,1-3.2,1.1-4.9c0.3-5.9-1.9-10.9-8.3-12.4c-1.9-0.4-3.9-0.4-5.8-0.3c-1.6,0.1-2,0.8-2,2.3
			C177.3,29.7,177.3,33,177.3,36.3z"/>
		<path class="st0" d="M278.4,31.5c-0.4,0.3-0.3,0.7-0.3,1c0,8.4,0,16.7,0.1,25.1c0,2.3,0.3,4.6,0.7,7c0.4,2.8,2,4.1,5.4,4.8
			c0.7,0.2,2.1-0.3,2,0.9c-0.1,1.3-1.4,0.6-2.1,0.6c-4.8,0.1-9.6,0.1-14.3,0c-0.5,0-1.3,0.4-1.4-0.6s0.8-0.8,1.3-0.9
			c4-0.9,5.1-2.2,5.5-6.3c1.2-10.8,0.5-21.7,0.6-32.5c0-3.3-2.2-5.5-6.2-6.6c-0.7-0.2-1.9,0-1.8-0.9c0.1-1.2,1.3-0.6,2-0.6
			c2.4-0.1,4.9,0,7.3-0.1c1.1,0,1.8,0.3,2.5,1.1c9.8,11.8,19.6,23.5,29.3,35.3c0.3,0.4,0.7,0.8,1.1,1.2c0.5-0.3,0.3-0.8,0.3-1.2
			c0-8.2,0.2-16.4-0.3-24.6c-0.1-2.1-0.4-4.1-0.7-6.1c-0.4-2.7-2.5-3.6-4.8-4.2c-0.6-0.2-1.3-0.3-1.9-0.4c-0.4-0.1-0.7-0.2-0.7-0.7
			c0-0.6,0.4-0.6,0.8-0.6c1,0,2.1,0,3.1,0c4.3,0,8.6,0,12.9,0c0.4,0,1-0.3,1.2,0.5c0.2,0.9-0.6,0.7-1,0.9c-4.4,1.1-5.2,2.1-5.8,6.6
			c-0.4,3.4-0.6,6.9-0.6,10.4c-0.1,9.6,0,19.2,0,28.8c0,0.5,0.4,1.3-0.3,1.6c-0.8,0.3-1.3-0.3-1.7-0.9
			c-10.2-12.5-20.5-24.9-30.7-37.3C279.3,32.5,278.9,32,278.4,31.5z"/>
		<path class="st0" d="M180.6,85.2c-58.9,0-117.9,0-176.8,0c-0.5,0-1,0-1.5,0c-0.6,0-0.7-0.3-0.7-0.8s0.1-0.8,0.7-0.8
			c0.4,0,0.8,0,1.1,0c46.6,0,93.1,0,139.7,0c71.6,0,143.2,0.1,214.8,0.1c0.7,0,2-0.7,2,0.7c0,1.5-1.3,0.8-2,0.8
			C298.8,85.2,239.7,85.2,180.6,85.2z"/>
		<path class="st0" d="M337.5,70.9c-5.4,0-10.8,0-16.1,0c-0.5,0-1.2,0.3-1.3-0.5c-0.1-1,0.7-0.7,1.2-0.9c0.4-0.1,0.9-0.1,1.3-0.2
			c3.3-0.7,4.4-1.9,4.5-5.3c0.4-11.6,0.4-23.2,0-34.8c-0.1-3.4-1.2-4.5-4.6-5.2c-0.3-0.1-0.6-0.2-1-0.2s-0.7-0.1-0.7-0.7
			c0-0.5,0.3-0.6,0.8-0.6c0.2,0,0.4,0,0.7,0c9.8,0,19.6,0,29.3,0c1.3,0,1.6,0.4,1.6,1.6c0.1,2.8,0.4,5.5,0.6,8.3
			c0,0.5,0.3,1.1-0.6,1.2c-0.8,0.1-0.7-0.5-0.9-0.9c-2.6-7-4.5-8.3-12.1-8.3c-1.6,0-3.3,0.1-4.9,0s-2.1,0.6-2.1,2.1
			c0,4.5,0,9,0,13.5c0,1.5-0.7,3.5,0.3,4.4c0.8,0.7,2.8,0.2,4.3,0.2c1.9,0,3.9-0.1,5.8-0.2c2.3,0,3.6-1.1,4.3-3.3
			c0.2-0.7,0.5-1.3,0.6-2c0.1-0.6,0.3-0.9,0.9-0.8c0.7,0.1,0.5,0.6,0.5,1c0,4.3,0,8.6,0,12.9c0,0.1,0,0.1,0,0.2
			c0,0.3,0.1,0.8-0.5,0.8c-0.5,0-0.8-0.1-0.9-0.7c-0.1-0.7-0.4-1.4-0.6-2c-0.9-2.5-1.8-3.4-4.5-3.5c-3.1-0.1-6.2,0-9.3-0.1
			c-0.6,0-1,0.1-1,0.9c0.1,5.6-0.3,11.3,0.3,16.9c0.3,2.7,1.2,3.7,3.9,4.1c3.5,0.5,6.9,0.5,10.3-0.4c2.4-0.6,4.3-1.9,5.4-4
			c0.9-1.6,1.8-3.2,2.7-4.8c0.2-0.4,0.5-0.7,1-0.6c0.7,0.1,0.5,0.6,0.4,1c-0.7,3.4-1.5,6.8-2.2,10.1c-0.2,1-0.9,0.8-1.5,0.8
			C348.3,70.9,342.9,70.9,337.5,70.9z"/>
		<path class="st0" d="M237.8,98.1c1.9-0.3,3.4-0.5,4.5,1.2c0.9,1.4,2.2,2.7,3.3,4s2.2,2.7,3.6,4.2c0-2.8,0-5.4,0-7.9
			c0-1.1-1.3-0.9-2.2-1.6c1.9,0,3.5,0,5.1,0c-2.1,0.6-1.8,2.3-1.8,3.8c0,2.6,0,5.2,0,7.8c0,0.4,0.3,1.1-0.3,1.3
			c-0.5,0.1-0.8-0.5-1.1-0.8c-2.5-3-5-6-7.8-9.4c0.1,3.1-0.1,5.7,0.2,8.4c0.1,0.5,0.1,0.5,1.8,1.6c-0.3,0.5-0.9,0.3-1.3,0.3
			c-1.5,0.1-3,0.1-4.5,0.1c-1.4,0-2.5-0.5-3.3-1.7c-0.7-1.1-1.4-2.2-2-3.3c-0.4-0.7-1.1-1-1.8-0.8c-0.8,0.2-0.3,0.9-0.4,1.4
			c-0.1,0.4,0,0.8,0,1.1c-0.1,1.3,0,2.5,1.6,3c-1.7,0-3.4,0-5.1,0c2.2-0.7,1.6-2.6,1.6-4.1c0-1.8,0-3.6,0-5.4c0-1.3,0.4-2.9-1.9-3.1
			c2.7-0.1,5.2-0.5,7.7,0c1.2,0.3,1.9,1.2,2.1,2.4c0.2,1.4-0.2,2.6-1.3,3.3c-1.2,0.7-1,1.3-0.3,2.2c0.9,1.2,1.6,2.6,2.7,3.7
			c0.6,0.6,1.2,0.8,2.1,0.5c1-0.3,1.2-1,1.2-1.8c0-2.7,0-5.3,0.1-8C240.2,98.9,238.9,98.8,237.8,98.1z M229.7,101.6
			c0,0.4,0,0.8,0,1.1c0.1,0.6-0.4,1.5,0.3,1.7c0.8,0.3,1.8,0.1,2.6-0.4c1.2-0.9,1.6-3.2,0.6-4.4c-0.8-1-2-1.2-3.1-0.9
			c-0.9,0.3-0.2,1.3-0.4,2C229.6,101,229.7,101.3,229.7,101.6z"/>
		<path class="st0" d="M10,100.9c0-1.6,0-2.9,0-4.2c0-1.2-0.2-2.2-1.7-2.2c-0.4,0-0.7-0.1-0.6-0.5c0-0.3,0.4-0.4,0.6-0.4
			c1.9,0,3.8,0,5.7,0c0.3,0,0.7,0.1,0.7,0.5s-0.3,0.4-0.6,0.4c-1.4,0-1.6,0.9-1.6,2.1c0,2.9-0.1,5.8,0.1,8.6
			c0.2,3.1,1.9,4.7,4.7,4.7c2.6,0,4.3-1.7,4.7-4.6c0.4-3.1,0.3-6.2,0-9.2c-0.1-1.2-1-1.4-1.9-1.5c-0.3,0-0.7-0.1-0.6-0.5
			c0.1-0.3,0.4-0.3,0.6-0.3c1.7,0,3.4,0,5,0c0.3,0,0.7,0,0.7,0.5c0,0.4-0.3,0.4-0.6,0.4c-1.5,0.1-1.7,1-1.7,2.2
			c-0.1,2.6-0.1,5.2-0.3,7.8c-0.3,5-3.9,7.7-8.8,6.6c-2.4-0.5-3.8-2-4.3-4.3C9.9,104.7,10.1,102.6,10,100.9z"/>
		<path class="st0" d="M154.3,102.5c0-5.5,4.2-9.4,10.1-9.3c0.5,0,1.1,0.1,1.6,0.1c3.3,0.5,3.5,0.7,3.5,4.1c0,0.3,0.1,0.6-0.3,0.6
			c-0.3,0.1-0.4-0.1-0.6-0.4c-2.1-3.3-3.1-3.8-6.4-3.2c-2.7,0.5-4.4,2.3-5.1,5.4c-0.5,2.2-0.3,4.4,0.6,6.5c1,2.5,3,3.8,5.6,4
			c2.5,0.2,4.2-1,5.4-3.2c0.2-0.4,0.3-1.2,0.9-0.9c0.6,0.3,0,0.8,0,1.3c-0.3,2.6-1.7,3.6-4.3,3.7c-3.1,0.2-6.1-0.1-8.5-2.2
			C155.1,107.3,154.2,105,154.3,102.5z"/>
		<path class="st0" d="M31.9,110.9c-1.8,0.1-3.4,0.2-5.1-0.2c2.3-0.6,1.8-2.4,1.8-3.9c0.1-1.6,0-3.1,0-4.7s0.4-3.5-2.2-3.8
			c1.8-0.4,3.2-0.6,4.4,1.1c2,2.8,4.4,5.3,6.8,8.2c0.2-2.9,0.1-5.4,0-8c-0.1-1.2-1.4-0.7-2.1-1.6c1.8,0,3.4,0,5,0
			c-2.1,0.6-1.8,2.3-1.8,3.8c0,2.7,0,5.3,0,8c0,0.4,0.2,1-0.3,1.1s-0.7-0.4-1-0.7c-2.5-3-4.9-6-7.6-9c-0.1,2.7-0.4,5.4,0,8.1
			C30,110.4,31.2,109.9,31.9,110.9z"/>
		<path class="st0" d="M299.2,98c2.2,0,4.3,0,6.5,0c1.4,0,2.5,0.7,2.9,2.2s0.1,2.9-1.2,3.7c-1.2,0.7-1,1.3-0.3,2.2
			c1.2,1.6,2.1,3.5,4,4.6c-1.6,0.6-2.9,0.2-3.9-1.2c-0.7-1-1.3-2.1-2-3.2c-0.3-0.5-0.6-1-1.3-1.1c-0.7-0.1-1.3-0.1-1.2,0.9
			c0.1,0.5,0,1.1,0,1.6c-0.1,1.3,0,2.5,1.8,2.8c-1.8,0.5-3.6,0.3-5.5,0.1c2.3-0.5,1.9-2.2,1.9-3.7c0-1.9,0-3.8,0-5.7
			C301,99.9,301.1,98.5,299.2,98z M302.7,101.7c0,0.7,0,1.4,0,2.1c0,0.4-0.1,0.8,0.5,0.8c1.3,0.1,2.5-0.1,3.2-1.4
			c0.7-1.2,0.7-2.5-0.3-3.6c-0.8-0.9-1.9-1.1-3-0.8c-1,0.3-0.3,1.3-0.5,2C302.6,101,302.7,101.3,302.7,101.7z"/>
		<path class="st0" d="M84.7,110.9c-2.2,0.3-3.5-0.2-4.5-1.6c-0.7-1-1.3-2.1-2-3.2c-0.4-0.7-1-1.1-1.7-0.9c-0.9,0.2-0.3,1-0.5,1.5
			c-0.1,0.2,0,0.4,0,0.6c0,2.3,0,2.3,2,3.5c-2.1,0.2-3.9,0.2-5.8-0.2c2.5-0.4,1.9-2.2,1.9-3.7c0-1.9,0-3.8,0-5.7
			c0-1.3,0.3-2.8-1.8-3.2c2.6-0.1,5-0.5,7.4,0.1c1.2,0.3,2,1.1,2.1,2.4c0.2,1.4-0.1,2.7-1.4,3.4c-1,0.6-1,1.1-0.4,2
			C81.5,107.7,82.4,109.6,84.7,110.9z M80.1,101.5c0-1.2-0.4-2-1.4-2.5c-1.7-0.9-2.6-0.4-2.6,1.5c0,0.8,0,1.5,0,2.3
			c0,1.8,1,2.4,2.6,1.4C79.7,103.6,80.1,102.6,80.1,101.5z"/>
		<path class="st0" d="M344.2,98c-2.2,0.5-1.8,2.2-1.8,3.7c0,2.6,0,5.2,0,7.8c0,0.5,0.4,1.2-0.3,1.4c-0.6,0.2-0.9-0.6-1.2-1
			c-2.5-2.9-4.9-5.9-7.6-9.1c0,2.9,0,5.5,0,8.1c0,0.8,0.1,0.8,2.2,1.8c-1.9,0-3.5,0-5.1,0c2.3-0.9,1.7-2.9,1.8-4.6
			c0.1-1.5,0-2.9,0-4.4c0-1.6,0.1-3.3-2.2-3.6c1.6-0.3,3-0.7,4.2,0.9c2.2,2.9,4.6,5.6,7.1,8.5c0-2.7-0.1-5,0-7.4
			c0.1-1.5-1.2-1.5-2.5-2.2C341,98,342.6,98,344.2,98z"/>
		<path class="st0" d="M217.9,111.2c-3.8,0-6.5-2.8-6.4-6.6c0-4,2.9-6.9,6.8-6.9c3.7,0,6.5,2.9,6.5,6.7
			C224.7,108.4,221.9,111.2,217.9,111.2z M222.5,104.8c0.1-1.4-0.2-2.9-1-4.2c-0.9-1.5-2.2-2.3-3.9-2.2c-1.8,0.1-3,1.1-3.6,2.8
			c-0.6,1.7-0.6,3.5-0.1,5.2c0.8,2.6,2.7,4.2,4.9,3.9c2.3-0.3,3.7-2.3,3.7-5.1C222.5,105.2,222.5,105,222.5,104.8z"/>
		<path class="st0" d="M61.2,110.5c2.4-0.2,2-1.9,2-3.5c0-2,0-4,0-6c0-1.2,0.2-2.6-1.8-2.6c0.3-0.7,0.8-0.5,1.2-0.5c2,0,3.9,0,5.9,0
			s2.5,1,1.7,3c-1.6-2.3-1.6-2.3-4-2.3c-0.8,0-1.2,0.2-1.1,1.1c0.1,0.6,0,1.2,0,1.8c0,2.1,1,2.7,3,2.1c0.8-0.3,0.4-1.2,1.4-1.6
			c0.2,1.4,0.2,2.7,0,3.9c0,0.1-0.2,0.2-0.4,0.2c-0.3,0-0.3-0.3-0.4-0.4c-0.5-0.9-2.7-1.5-3.4-1.1c-0.3,0.2-0.2,0.5-0.2,0.7
			c0,0.5-0.1,1.1,0,1.6c0.2,1.1-0.8,2.7,1.1,3.1c2.3,0.5,3.5,0,4.5-2c0.1-0.2,0.3-0.3,0.4-0.5c0.6,2.4-0.2,3.4-2.4,3.4
			c-2,0-3.9,0-5.9,0C62.3,111,61.7,111.2,61.2,110.5z"/>
		<path class="st0" d="M353.1,102.1c0,1.3,0,2.6,0,4.2c-0.8-0.6-0.7-1.6-1.7-1.8c-2.3-0.3-2.7-0.1-2.7,2.2c0,0.1,0,0.1,0,0.2
			c0.2,1.1-0.5,2.8,1.2,3.1c2.6,0.3,3.9,0.2,4.5-2c0.1-0.2,0.1-0.4,0.4-0.4c0.6,2.2-0.1,3.3-2.3,3.3c-2.1,0-4.1,0-6.2,0
			c-0.4,0-1,0.2-1.5-0.5c2.7-0.3,2-2.3,2.1-3.9c0-1.8,0-3.7,0-5.5c0-1.2,0.2-2.6-2.3-2.6c1.3-0.8,2.1-0.5,2.9-0.5c1.5,0,2.9,0,4.4,0
			c2.4,0,2.7,0.5,1.9,3c-1.6-2.3-1.7-2.4-4.1-2.2c-0.1,0-0.1,0-0.2,0c-1.5,0-0.9,1.2-0.8,1.8c0.2,1.1-1,2.7,0.8,3.1
			C350.9,103.9,352.5,104.1,353.1,102.1z"/>
		<path class="st0" d="M294.1,93.6c0.9,0,1.8,0,2.8,0c0.3,0,0.6,0,0.6,0.4c0.1,0.5-0.3,0.5-0.6,0.5c-1.3,0-1.6,0.9-1.6,2
			c0,3.9,0,7.8,0,11.7c0,1.1,0.3,2,1.6,2c0.3,0,0.7,0,0.6,0.5c0,0.3-0.3,0.4-0.6,0.4c-1.9,0-3.8,0-5.7,0c-0.3,0-0.6-0.1-0.6-0.4
			c-0.1-0.5,0.3-0.5,0.6-0.5c1.4-0.1,1.7-1,1.7-2.1c0-3.8,0-7.6,0-11.4c0-1.2-0.3-2.2-1.8-2.2c-0.3,0-0.5-0.1-0.5-0.5
			c0-0.3,0.3-0.4,0.6-0.4C292.2,93.6,293.1,93.6,294.1,93.6z"/>
		<path class="st0" d="M271.9,110.8c-1.6,0-3.2,0-4.8,0c2.3-1.1,0.7-2.5,0.3-3.7c-0.5-2-2.3-1-3.4-1c-1.9-0.1-1.3,1.9-1.9,2.9
			c-0.7,1.2,0.9,1,1.4,1.8c-1.6,0-3,0-4.4,0c1.9-0.8,2.1-2.6,2.7-4.2c1.1-2.7,2.1-5.3,3.1-8c0.1-0.4,0.2-1,0.7-0.9
			c0.4,0,0.4,0.6,0.6,0.9c1.1,3.1,2.3,6.2,3.4,9.3c0.4,1.2,0.7,2.4,2.5,2.5C272,110.5,271.9,110.7,271.9,110.8z M265,100.7
			c-0.4,1.1-0.7,2-1.1,2.9c-0.6,1.3-0.2,1.6,1.1,1.6c1.5,0,1.6-0.4,1.1-1.6C265.7,102.7,265.4,101.8,265,100.7z"/>
		<path class="st0" d="M183.5,110.6c-1.7,0.4-3.3,0.4-5.1,0.2c2.3-1,0.8-2.3,0.5-3.5c-0.5-2.1-2.2-1-3.4-1.1
			c-1.9-0.2-1.3,1.7-1.9,2.7c-0.8,1.4,0.8,1.2,1.4,2c-1.6,0.4-3.1,0.2-4.6,0c1.8-0.7,2.1-2.2,2.6-3.7c1.1-2.8,2.2-5.6,3.3-8.4
			c0.1-0.3,0.1-0.8,0.6-0.9c0.6-0.1,0.6,0.6,0.7,0.9c1.1,3,2.3,6.1,3.4,9.1C181.5,108.9,181.7,110.3,183.5,110.6z M176.5,100.7
			c-0.5,1.5-0.9,2.7-1.3,3.9c-0.1,0.1-0.1,0.3-0.1,0.5c3.2,0.4,3.2,0.4,2.2-2.5C177,102,176.8,101.5,176.5,100.7z"/>
		<path class="st0" d="M209.1,102.2c0.4,1.4,0.4,2.7,0,4.2c-0.6-2.1-2.2-1.7-3.6-1.7c-0.3,0-0.7,0-0.7,0.4c-0.1,1.5-0.1,3,0.3,4.5
			c0.2,0.7,1.3,0.3,1.9,1.1c-2,0-3.8,0-5.6,0c2.3-0.9,1.5-2.9,1.6-4.5c0.1-1.8,0-3.6,0-5.4c0-1.2,0.1-2.5-2-2.5
			c0.8-0.7,1.4-0.5,1.9-0.5c1.7,0,3.5,0.1,5.2-0.1c1.8-0.2,2.2,0.6,2.1,2.1c0,0.3,0,0.6-0.1,1c-0.2-0.1-0.5,0-0.5-0.1
			c-1-2.1-1.9-2.8-4-2c-1.9,0.7-0.4,2.7-0.8,4.1c-0.2,0.7,0.2,1.1,1,1C207,103.8,208.6,104.4,209.1,102.2z"/>
		<path class="st0" d="M121,110.8c-2.1,0-4,0-6,0c0.5-0.9,1.8-0.3,2-1.5c0.2-1.5,0.5-3.1-0.2-4.5c-0.9-1.8-2.1-3.6-3-5.4
			c-0.4-0.7-1.1-0.8-2-1.4c2,0,3.6,0,5.2,0c-2,0.5-1.1,1.5-0.5,2.4c0.6,1.1,1.3,2.2,2,3.5c1-1.5,1.7-3,2.4-4.5
			c0.6-1.3-1.2-0.5-1.3-1.4c1.5,0,3,0,4.3,0c-2.7,2.4-4.8,5.2-5,9.1C118.8,109.4,118.9,109.4,121,110.8z"/>
		<path class="st0" d="M60.9,98.2c-1.4,0.4-1.9,1.5-2.4,2.7c-1.2,3-2.4,6-3.6,9c-0.2,0.4-0.1,1.1-0.8,1.1c-0.6,0-0.6-0.6-0.8-1.1
			c-1.2-3-2.3-5.9-3.5-8.9c-0.5-1.2-0.8-2.5-2.3-3c1.6,0,3.2,0,4.8,0c-1.9,0.6-1,1.7-0.6,2.7c0.9,2.4,1.8,4.7,2.9,7.4
			c1.2-3.1,2.2-5.9,3.2-8.7c0.5-1.3-1.2-0.6-1.4-1.5C57.9,97.9,59.3,97.9,60.9,98.2z"/>
		<path class="st0" d="M310,98.1c1.6,0,3.2,0,4.9,0c-1.7,0.6-1.2,1.6-0.8,2.7c0.9,2.3,1.8,4.7,2.9,7.5c1.2-3.1,2.1-5.8,3.2-8.5
			c0.5-1.2-0.9-0.9-1.4-1.6c1.6,0,3,0,4.4,0c-1.9,0.6-2.1,2.5-2.8,4c-1.1,2.6-2.1,5.3-3.2,8c-0.1,0.4-0.1,1-0.7,0.9
			c-0.6,0-0.6-0.6-0.7-0.9c-1.2-3.1-2.4-6.1-3.6-9.2C311.8,99.7,311.3,98.7,310,98.1z"/>
		<path class="st0" d="M109.1,110.8c-1.9,0-3.9,0-5.8,0c2.5-0.5,1.8-2.4,1.9-4c0-2.1,0.1-4.2,0-6.4c0-0.6,0.6-1.6-0.5-1.7
			c-1.1-0.2-2.3-0.2-3,1c-0.2,0.4-0.2,0.9-0.8,1.3c-0.5-1.1-0.1-2.1-0.1-3.1c0-0.4,0.2-0.4,0.7-0.3c3.2,0.5,6.3,0.5,9.5,0
			c0.6-0.1,0.7,0,0.7,0.4c0,0.9,0,1.9,0,2.8c-0.6,0.2-0.5-0.3-0.6-0.5c-0.6-1.4-2-2.1-3.4-1.6c-0.6,0.2-0.4,0.5-0.4,0.9
			c0,3,0.1,6.1,0,9.1c0,1.5,1.1,1.5,2.1,1.7C109.2,110.6,109.1,110.7,109.1,110.8z"/>
		<path class="st0" d="M85.1,107.2c0.5,0.7,0.9,1.4,1.4,2c0.8,1,1.8,1.5,3,1.1c0.9-0.3,1.4-0.9,1.6-1.9c0.2-1.3-0.4-2.2-1.4-2.9
			c-0.9-0.5-1.8-0.9-2.7-1.5c-1.4-0.9-2-2.1-1.6-3.7s1.5-2.5,3.1-2.7c0.2,0,0.3,0,0.5-0.1c2.8-0.2,3.3,0.3,3,3.2
			c-0.7,0-0.6-0.7-0.8-1c-0.5-1-1.4-1.6-2.5-1.5c-1,0.1-1.6,0.7-1.8,1.7c-0.2,1.2,0.3,2,1.3,2.6c0.8,0.4,1.6,0.8,2.3,1.2
			c1.9,1,2.6,2.4,2.2,4.3c-0.3,1.7-1.8,2.9-3.7,3.1c-0.4,0-0.8,0-1.1,0C85.4,111,84.7,110,85.1,107.2z"/>
		<path class="st0" d="M193.4,107.6c0.4,2.7-0.1,3.4-2.6,3.4c-2.3,0-4.5,0-6.9-0.2c2.5-0.8,1.7-2.7,1.8-4.3c0-1.8,0-3.6,0-5.4
			c0-1.3,0.2-2.7-1.7-3.1c1.8,0,3.6,0,5.4,0c-2.4,0.3-1.8,2.1-1.8,3.5c0,2.1,0,4.1,0,6.2c0,0.9-0.3,2.1,1,2.2c1.4,0.1,2.9,0.5,3.8-1
			C192.8,108.5,192.7,107.8,193.4,107.6z"/>
		<path class="st0" d="M145.5,101.8c-0.1,0.1-0.1,0.2-0.2,0.2c-2.3-0.1-2.3,1.6-2.5,3.2c-0.3,2.1-0.7,4.3-1.5,6.3
			c-0.5,1.3-1.1,2.5-2.5,3.1c-0.5,0.2-1,0.3-1.5-0.1c-0.2-0.2-0.2-0.4-0.1-0.7c0.3-0.6,0.8-0.6,1.2-0.4c1,0.3,1.2-0.5,1.4-1.1
			c0.8-2.9,1-5.9,1.5-8.9c0.2-1.3-0.9-0.7-1.3-1c0-0.1,0-0.3,0-0.3c1.8-0.2,1.9-1.7,2.3-2.9c0.6-1.6,1.7-2.6,3.3-3.1
			c0.4-0.1,0.9-0.2,1.3,0s1,0.3,0.7,1c-0.2,0.6-0.6,0.7-1.2,0.5c-1.9-0.5-2.1-0.4-2.6,1.5C143.4,101.2,143.4,101.2,145.5,101.8z"/>
		<path class="st0" d="M99.4,110.8c-1.7,0-3.5,0-5.2,0c2.3-0.8,1.7-2.8,1.7-4.4s0-3.2,0-4.9c0-1.4,0.3-3-1.8-3.5c1.7,0,3.5,0,5.2,0
			c-2.3,0.7-1.7,2.5-1.7,4.1c0,1.8,0,3.7,0,5.5c0,1.3-0.2,2.8,2,2.8C99.6,110.5,99.5,110.7,99.4,110.8z"/>
		<path class="st0" d="M329.3,110.7c-1.8,0.4-3.6,0.4-5.5,0c2.2-0.4,1.8-2,1.8-3.3c0-2.1,0-4.2,0-6.4c0-1.2,0.4-2.7-1.6-2.9
			c1.8,0,3.5,0,5.3,0c-2.3,0.4-1.7,2.2-1.7,3.7c0,2,0.1,4,0,6C327.4,109.2,327.6,110.3,329.3,110.7z"/>
		<path class="st0" d="M258.3,110.8c-1.7,0-3.4,0-5.1,0c2.2-0.6,1.6-2.3,1.6-3.7c0-1.9,0-3.8,0-5.7c0-2.2,0-2.2-1.9-3.4
			c1.9,0,3.7,0,5.4,0c-2.2,0.7-1.6,2.4-1.6,3.9c0,1.8,0,3.7,0,5.5C256.6,108.9,256.5,110.2,258.3,110.8z"/>
		<path class="st0" d="M194.6,98.1c1.7,0,3.4,0,5.2,0c-2,0.4-1.6,1.9-1.6,3.3c0,2,0,4,0,6c0,1.4-0.5,3,2.1,3.1
			c-0.1,0.1-0.3,0.3-0.4,0.4c-1.7,0-3.5,0-5.2,0c2.1-0.5,1.7-2.1,1.7-3.5c0-2,0-4,0-6C196.2,99.9,196.4,98.5,194.6,98.1z"/>
		<path class="st0" d="M46.9,98.1c-2.2,0.4-1.7,2.1-1.7,3.5c0,2.1,0,4.1,0,6.2c0,2,0,2,1.6,2.8c-0.9,0.5-3.2,0.6-5.5,0.1
			c2.6-0.7,1.9-2.7,2-4.3c0.1-1.8,0-3.6,0-5.4c0-1.2,0.2-2.6-1.7-2.9C43.4,98.1,45.1,98.1,46.9,98.1z"/>
		<path class="st0" d="M138.8,104.1c0,2.6-1.6,5-3.7,5.8c-2.2,0.9-3.7,0-4-2.3c-0.3-2.6,1.3-5.4,3.7-6.3
			C137.1,100.4,138.8,101.5,138.8,104.1z M132.9,106.4c0,0.7,0,1.2,0.2,1.8c0.5,1.3,1.6,1.5,2.5,0.4c1.2-1.5,1.6-3.3,1.4-5.2
			c-0.1-0.7-0.3-1.3-1.1-1.5c-0.7-0.2-1.2,0.2-1.7,0.8C133.3,103.8,132.9,105.1,132.9,106.4z"/>
		<path class="st0" d="M279.2,104.4c-0.5-1.8,0.8-1.4,1.8-1.6c1.8-0.3,1.5,0.9,1.6,1.9c0.2,1.7-0.8,1.5-1.9,1.7
			C279,106.6,279,105.7,279.2,104.4z"/>
	</g>
</g>
</svg>
