<?xml version="1.0" encoding="utf-8"?>
<!-- Generator: Adobe Illustrator 25.2.1, SVG Export Plug-In . SVG Version: 6.00 Build 0)  -->
<svg version="1.1" id="Layer_1" xmlns="http://www.w3.org/2000/svg" xmlns:xlink="http://www.w3.org/1999/xlink" x="0px" y="0px"
	 viewBox="0 0 331.1 82.7" style="enable-background:new 0 0 331.1 82.7;" xml:space="preserve">
<style type="text/css">
	.st0{fill:#FFFFFF;}
</style>
<g>
	<g>
		<path class="st0" d="M4.9,74.9c0,2,1.4,3.7,4.3,3.7c2.7,0,4.2-1.8,4.2-3.8V2.7h4.9v70.4c0,4.2-2.2,7.6-9.1,7.6S0,77.1,0,72.9V2.7
			h4.9C4.9,2.7,4.9,74.9,4.9,74.9z"/>
		<path class="st0" d="M46.7,55.2v17.6c0,4.3-2.2,7.8-9.1,7.8c-6.9,0-9.4-3.4-9.4-7.6V11.6c0-4.7,0.7-9.4,9.4-9.4
			c8.5,0,9.1,4.7,9.1,9.3v14.6h-4.9v-17c0-2.3-0.2-4.9-4.2-5c-3.8,0-4.5,2.6-4.5,5v65.8c0,2,1.8,3.8,4.5,3.8
			c2.8-0.1,4.2-1.7,4.2-3.7V55.2H46.7z"/>
		<path class="st0" d="M80.7,80.7c-8.8,0-9.4-4.7-9.4-9.4V55.2h4.8v18.5c0,2.5,0.8,5.1,4.5,5.1c4-0.1,4.3-2.8,4.3-5.1V56.9
			c0-2.6-0.5-4-1.2-6.5c-1-3.7-2.2-5.8-4.1-9.2L74.8,32c-1.6-3-2.2-4.9-2.8-8.2c-0.7-3.2-0.7-5.2-0.7-8.5v-3.7
			c0-4.7,0.7-9.3,9.2-9.3c8.8,0,9.3,4.7,9.3,9.4V26h-4.9V9.1c0-2.4-0.5-5-4.3-5c-4.1,0.1-4.5,2.7-4.5,5v4.6c0,0.2,0,0.3,0,0.5
			c0,3.3,0.1,5.4,0.8,8.8c0.7,3,1.3,4.8,2.8,7.8l4.6,8.8c1,2.1,2.7,5,3.7,8.3c1.1,3.5,1.8,5,1.8,9v14.7C89.8,76,89.3,80.6,80.7,80.7
			z"/>
		<path class="st0" d="M118.4,80.1h-4.8V40.3H105v39.8h-4.9V11.6c0-4.7,0.7-9.4,9.4-9.4c8.5,0,9,4.7,9,9.3L118.4,80.1L118.4,80.1z
			 M113.6,37.2V9.1c0-2.3-0.2-4.9-4.3-5c-3.7,0-4.4,2.6-4.4,5v28.2h8.7V37.2z"/>
		<path class="st0" d="M142.6,49.5V2.6h4.8v77.5h-4.8V65.3l-8.8-41.6v56.4H129V2.6h4.4L142.6,49.5z"/>
		<path class="st0" d="M174.8,5.5h-7.3v74.6h-4.9V5.5h-7V2.7h19.2L174.8,5.5L174.8,5.5z"/>
		<path class="st0" d="M201.5,80.1h-4.8V40.3h-8.6v39.8h-4.9V11.6c0-4.7,0.7-9.4,9.4-9.4c8.5,0,9,4.7,9,9.3v68.6H201.5z M196.7,37.2
			V9.1c0-2.3-0.2-4.9-4.3-5c-3.7,0-4.4,2.6-4.4,5v28.2h8.7V37.2z"/>
		<path class="st0" d="M245.4,55.2v17.6c0,4.3-2.2,7.8-9.1,7.8s-9.4-3.4-9.4-7.6V11.6c0-4.7,0.7-9.4,9.4-9.4c8.5,0,9.1,4.7,9.1,9.3
			v14.6h-4.9v-17c0-2.3-0.2-4.9-4.2-5c-3.8,0-4.5,2.6-4.5,5v65.8c0,2,1.7,3.8,4.5,3.8c2.8-0.1,4.2-1.7,4.2-3.7V55.2H245.4z"/>
		<path class="st0" d="M269.8,80.1V47.3c0-2.3-0.3-4.7-1.9-5.7c-1.5-1.1-2.6-1.4-4.5-1.4h-2.2v39.9h-4.9V2.8h8.2c0,0,0.2,0,0.5,0
			c1.3,0,4.9,0.2,7.2,1.9c2.4,1.7,2.4,4.1,2.4,6.8c0,0.2,0,0.5,0,0.6v20.1c0,1.5-0.2,2.5-1.2,3.7c-1.1,1.5-3.8,2.8-4.1,2.9
			c0.2,0.1,2.4,1.3,3.4,2.5c1.8,1.8,1.9,3.6,1.9,5.7c0,0.5,0,0.9,0,1.4v31.7C274.6,80.1,269.8,80.1,269.8,80.1z M267.8,5.6
			c-0.9-0.4-2.2-0.7-3.6-0.7h-3v33.2h2.3c2.1,0,4.2-0.9,5-2c0.8-0.8,1.2-3.3,1.2-5.4V10C269.8,7.8,269.5,6.3,267.8,5.6z"/>
		<path class="st0" d="M289.6,74.9c0,2,1.4,3.7,4.3,3.7c2.7,0,4.2-1.8,4.2-3.8V2.7h4.9v70.4c0,4.2-2.2,7.6-9.1,7.6s-9.2-3.6-9.2-7.8
			V2.7h4.9L289.6,74.9L289.6,74.9z"/>
		<path class="st0" d="M324.4,5.5h-10.6V2.6h16.6L318.9,77h12.2v3.2h-18.2L324.4,5.5z"/>
	</g>
</g>
</svg>
