<?xml version="1.0" encoding="utf-8"?>
<!-- Generator: Adobe Illustrator 19.2.1, SVG Export Plug-In . SVG Version: 6.00 Build 0)  -->
<svg version="1.1" id="Layer_1" xmlns="http://www.w3.org/2000/svg" xmlns:xlink="http://www.w3.org/1999/xlink" x="0px" y="0px"
	 viewBox="0 0 425.6 82.7" style="enable-background:new 0 0 425.6 82.7;" xml:space="preserve">
<style type="text/css">
	.st0{fill:#FFFFFF;}
	.st1{fill:#FFFFFF;enable-background:new    ;}
</style>
<g>
	<g>
		<path class="st0" d="M99.4,74.9c0,2,1.4,3.7,4.3,3.7c2.7,0,4.2-1.8,4.2-3.8V2.7h4.9v70.4c0,4.2-2.2,7.6-9.1,7.6
			c-6.9,0-9.2-3.6-9.2-7.8V2.7h4.9V74.9z"/>
		<path class="st0" d="M141.2,55.2v17.6c0,4.3-2.2,7.8-9.1,7.8c-6.9,0-9.4-3.4-9.4-7.6V11.6c0-4.7,0.7-9.4,9.4-9.4
			c8.5,0,9.1,4.7,9.1,9.3v14.6h-4.9V9.1c0-2.3-0.2-4.9-4.2-5c-3.8,0-4.5,2.6-4.5,5v65.8c0,2,1.8,3.8,4.5,3.8
			c2.8-0.1,4.2-1.7,4.2-3.7V55.2H141.2z"/>
		<path class="st0" d="M175.2,80.7c-8.8,0-9.4-4.7-9.4-9.4V55.2h4.8v18.5c0,2.5,0.8,5.1,4.5,5.1c4-0.1,4.3-2.8,4.3-5.1V56.9
			c0-2.6-0.5-4-1.2-6.5c-1-3.7-2.2-5.8-4.1-9.2l-4.8-9.2c-1.6-3-2.2-4.9-2.8-8.2c-0.7-3.2-0.7-5.2-0.7-8.5v-3.7
			c0-4.7,0.7-9.3,9.2-9.3c8.8,0,9.3,4.7,9.3,9.4v14.3h-4.9V9.1c0-2.4-0.5-5-4.3-5c-4.1,0.1-4.5,2.7-4.5,5v4.6c0,0.2,0,0.3,0,0.5
			c0,3.3,0.1,5.4,0.8,8.8c0.7,3,1.3,4.8,2.8,7.8l4.6,8.8c1,2.1,2.7,5,3.7,8.3c1.1,3.5,1.8,5,1.8,9v14.7
			C184.3,76,183.8,80.6,175.2,80.7z"/>
		<path class="st0" d="M212.9,80.1h-4.8V40.3h-8.6v39.8h-4.9V11.6c0-4.7,0.7-9.4,9.4-9.4c8.5,0,9,4.7,9,9.3V80.1z M208.1,37.2V9.1
			c0-2.3-0.2-4.9-4.3-5c-3.7,0-4.4,2.6-4.4,5v28.2H208.1z"/>
		<path class="st0" d="M237.1,49.5V2.6h4.8v77.5h-4.8V65.3l-8.8-41.6v56.4h-4.8V2.6h4.4L237.1,49.5z"/>
		<path class="st0" d="M269.3,5.5H262v74.6h-4.9V5.5h-7V2.7h19.2V5.5z"/>
		<path class="st0" d="M296,80.1h-4.8V40.3h-8.6v39.8h-4.9V11.6c0-4.7,0.7-9.4,9.4-9.4c8.5,0,9,4.7,9,9.3V80.1z M291.2,37.2V9.1
			c0-2.3-0.2-4.9-4.3-5c-3.7,0-4.4,2.6-4.4,5v28.2H291.2z"/>
		<path class="st0" d="M339.9,55.2v17.6c0,4.3-2.2,7.8-9.1,7.8c-6.9,0-9.4-3.4-9.4-7.6V11.6c0-4.7,0.7-9.4,9.4-9.4
			c8.5,0,9.1,4.7,9.1,9.3v14.6H335V9.1c0-2.3-0.2-4.9-4.2-5c-3.8,0-4.5,2.6-4.5,5v65.8c0,2,1.7,3.8,4.5,3.8c2.8-0.1,4.2-1.7,4.2-3.7
			V55.2H339.9z"/>
		<path class="st0" d="M364.3,80.1V47.3c0-2.3-0.3-4.7-1.9-5.7c-1.5-1.1-2.6-1.4-4.5-1.4h-2.2v39.9h-4.9V2.8h8.2c0,0,0.2,0,0.5,0
			c1.3,0,4.9,0.2,7.2,1.9c2.4,1.7,2.4,4.1,2.4,6.8c0,0.2,0,0.5,0,0.6v20.1c0,1.5-0.2,2.5-1.2,3.7c-1.1,1.5-3.8,2.8-4.1,2.9
			c0.2,0.1,2.4,1.3,3.4,2.5c1.8,1.8,1.9,3.6,1.9,5.7c0,0.5,0,0.9,0,1.4v31.7H364.3z M362.3,5.6c-0.9-0.4-2.2-0.7-3.6-0.7h-3v33.2
			h2.3c2.1,0,4.2-0.9,5-2c0.8-0.8,1.2-3.3,1.2-5.4V10C364.3,7.8,364,6.3,362.3,5.6z"/>
		<path class="st0" d="M384.1,74.9c0,2,1.4,3.7,4.3,3.7c2.7,0,4.2-1.8,4.2-3.8V2.7h4.9v70.4c0,4.2-2.2,7.6-9.1,7.6
			c-6.9,0-9.2-3.6-9.2-7.8V2.7h4.9V74.9z"/>
		<path class="st0" d="M418.9,5.5h-10.6V2.6h16.6l-11.5,74.4h12.2v3.2h-18.2L418.9,5.5z"/>
	</g>
	<g>
		<path class="st0" d="M69.1,42.5c0,0-0.6-0.7-1.8-1.9c0.1-0.5,0.1-1.1,0.2-1.9l0.1-1.3l-0.5,0.3c-0.2,0.1-0.7,0.7-1.3,1.3
			c-1.3-1.4-3-3.1-5-5.3c0-2.3,0-4.1,0-5.5c3.9,2.9,7.1,5.2,7.1,5.2c0.2,0.1,0.4-0.2,0.2-0.4C66.7,32,64,30,60.8,27.6
			c0-1.8,0-2.8,0-3.1c0-0.4,0-1.2-0.4-1c-0.7,0.5-4.1-0.1-4.2-0.1c-0.3,0.1-0.6,0.1-0.9,0.2c-3-2.2-6-4.4-8.7-6.4
			c-0.6-0.5-0.9-0.2-0.3,0.3c0.5,0.4,4.2,3.1,8.4,6.2C53.5,24,52.4,24,51.5,24c-1.5-1.6-3.1-3.2-4.9-5c-0.5-0.5-0.9-0.2-0.4,0.3
			c0.1,0.1,1.8,2,4.4,4.6c-0.8-0.1-1.6-0.2-2.4-0.3c-0.5-0.7-0.9-1.3-1.4-1.9c-0.8-1.1-0.9-0.4-0.4,0.3c0.2,0.4,0.6,0.9,1,1.5
			c-0.5,0-1,0-1.6,0c-0.1-0.2-0.2-0.4-0.2-0.6c-0.3-0.9-0.9-1.1-0.5,0.2c0,0.2,0.1,0.3,0.2,0.5c-0.3,0.1-0.7,0.2-1.2,0.4
			c-0.2-0.9-0.3-1.7-0.5-2.6c-0.2-0.9-0.6-0.8-0.5,0.1c0.1,0.9,0.3,1.8,0.4,2.7c-0.6,0.3-1.1,0.7-1.5,1.2c0-1.5,0-3-0.1-4.4
			c0-1.4-0.4-0.9-0.4,0c0,1,0,2.4,0,4c-0.4-0.5-1.1-0.9-1.7-1.2c0.1-0.8,0.2-1.6,0.4-2.4c0.1-0.9-0.3-1-0.5-0.1
			c-0.1,0.8-0.3,1.5-0.4,2.3c-0.5-0.2-1-0.3-1.2-0.3c0-0.1,0.1-0.2,0.1-0.4c0.4-1.4-0.2-1.1-0.5-0.2c-0.1,0.2-0.1,0.4-0.2,0.6
			c-0.6,0-1.1,0-1.6,0c0.4-0.6,0.8-1.2,1-1.5c0.5-0.7,0.4-1.4-0.4-0.3c-0.4,0.6-0.9,1.2-1.4,1.9c-0.8,0-1.5,0.1-2.2,0.1
			c2.4-2.5,4.1-4.3,4.1-4.4c0.5-0.5,0.1-0.8-0.4-0.3c-1.6,1.7-3.1,3.2-4.6,4.7C29.8,23.9,29,24,28.3,24c4.3-3.2,8.1-6,8.6-6.4
			c0.6-0.5,0.4-0.8-0.3-0.3c-2.7,2-6,4.4-9.1,6.7c-0.1,0-0.2,0-0.3,0c-0.2,0-0.3,0-0.6,0c-0.8,0-2.6,0-3.1,0c-0.2,0-0.5-0.1-0.6-0.2
			c-0.4,0-0.5,0.2-0.5,0.6c0,0.1,0,1.4,0,3.3c-3.1,2.3-5.8,4.3-7.2,5.3c-0.2,0.2,0,0.5,0.2,0.4c0,0,3.1-2.3,7-5.1c0,1.5,0,3.5,0,5.6
			c-5.3,5.6-8.1,8.6-8.2,8.6c-0.4,0.4,0,0.6,0.3,0.3c1.2-1.1,4.3-4.3,7.9-8.1c0,2.7,0,5.6,0,8.5c-2.9,4.7-5,8.1-5,8.2
			c-0.5,0.7-0.4,1.1,0.1,0.5c0.1-0.1,2.2-3.3,4.9-7.6c0,1.8,0,3.5,0,5.2c-0.7,0.1-1.7,0.3-2,0.7c-0.4,0.5-0.3,0.9-0.3,1.7
			c0,0.4-0.1,1.1-0.2,1.4c-0.2,0.6-0.7,0.9-1,1.3c-0.3,0.3-0.5,0.8-0.7,1.3c-0.3,0.8,0.2,1.9,0.6,2.8c0.2,0.4,0.8,1,1.3,1
			c1.9,0.3,2.1-1,2.4-1.7c0,0,0-0.1,0-0.1c0,1.2,0,2,0.1,2c0,0,1,0,2.4,0c-0.3,1-0.6,1.6-0.6,1.6c-0.3,1.2,0.2,0.8,0.4,0.3
			c0.2-0.7,0.5-1.3,0.7-2c1.3-0.1,2.9-0.1,4.5-0.2c0.3,0.5,1,1.3,1.3,1.8l0.3,0.6l0.2,0.4c0.2,0.4,0.5,0.8,0.7,1.2
			c-0.2,1.1-0.3,1.7-0.3,1.8c-0.4,1.7,0,1.8,0.4,0.2c0-0.1,0.1-0.6,0.3-1.5c0.2,0.3,0.4,0.6,0.6,0.9c0.5,0.7,1.6,1.4,4.1,2.5
			c1,0.4,2.3,0.7,3.9,0.8c0.1,1.3,0.4,0.9,0.4,0c2,0,4.2-0.3,6.3-1l0,0l0,0c1.2-0.5,2-1.2,2.5-1.8c0,0,0,0.1,0,0.1
			c0.4,1.5,0.8,1.4,0.4-0.2c0,0,0-0.1,0-0.2c0.3-0.4,0.4-0.7,0.5-0.7c0.1-0.3,1.2-2.7-0.1-4.4c0,0,0,0-0.1-0.1l0,0
			c0,0-0.1,0-0.1-0.1c-0.1-0.1-0.2-0.1-0.2-0.2c2.5,0.1,5.3,0.2,7.1,0.3c0.2,0.5,0.4,1,0.6,1.6c0.2,0.4,0.7,0.8,0.4-0.3
			c0,0-0.2-0.5-0.4-1.2c1.1,0,1.8,0.1,1.9,0c0-0.9,0-1.7,0-2.6c1.6-0.3,2.1-0.7,3.1-1.6c1.2-1.1,2-2.5,1.9-4
			c0.1,0.1,0.1,0.2,0.1,0.2c0.5,0.6,0.6,0.2,0.1-0.5c0,0-0.2-0.3-0.4-0.7c-0.2-0.8-0.7-1.5-1.3-2.1c-0.6-1-1.3-2.1-2.1-3.4
			c0.8-0.1,1.7-0.4,2.4-0.7c0.8-0.3,1.9-1.2,2.4-2.6l0.1-0.2c0.1-0.2,0.1-0.3,0.2-0.5c0.7,0.7,1.3,1.3,1.7,1.6
			C69.1,43.1,69.5,42.9,69.1,42.5z M65.4,39.4c-0.4,0.5-0.9,1-1.2,1.5c-0.1-0.5-0.3-1.5-0.4-2.2c-0.1-0.6-0.3-1-0.4-1.4
			C64.1,38,64.8,38.8,65.4,39.4z M60.8,34.6c0.6,0.6,1.1,1.1,1.6,1.7l0,0.2c0.2,1.9-0.2,3.4-0.5,4.3c-0.3,0.9-0.5,1.2-0.9,1.5
			c-0.1,0-0.2,0.1-0.3,0.1C60.8,39.5,60.8,36.9,60.8,34.6z M59.3,24.8c0.1-0.4,0.7-0.5,0.8,0.2c0.1,0.4,0.1,9.1,0,17.7
			c-0.3,0.1-0.5,0.1-0.8,0.1c0,0,0,0,0,0C59.3,34.1,59.3,25,59.3,24.8z M58.1,24.8c0-0.3,0.6-0.4,0.6,0.2c0,0.1,0,9-0.1,17.5
			c-0.1,0-0.2-0.1-0.3-0.1c0-0.1,0-0.3,0-0.3c0-0.9,0.4-1,0-1.4c-0.1-0.1-0.3-0.2-0.4-0.2C57.9,32.3,58,24.9,58.1,24.8z M56.5,24.4
			c0.2-0.5,0.6-0.1,0.6,0.1c0,0.2-0.1,7.9-0.1,15.9c-0.2,0-0.5,0.1-0.7,0.1C56.4,35.9,56.5,30.5,56.5,24.4z M56.4,40.8
			C56.4,40.8,56.5,40.8,56.4,40.8c0.1,0,0.9-0.3,1.2-0.1c0.3,0.2,0.2,1.3,0.2,1.7c0,0,0,0.2,0,0.4v0c0,0,0,0,0,0c0,0,0,0,0,0
			c0,0.1,0,0.2,0.1,0.2c0.2,0.3,0.4,0.4,0.4,0.6c-0.2-0.1-0.3-0.1-0.5-0.1c0,0,0,0,0,0v0c-0.2-0.1-0.5-0.1-0.7-0.2v0
			c-0.2,0-0.5-0.1-0.7-0.1v0c-0.2,0-0.4,0-0.6,0v0c-0.5,0-1,0.1-1.3,0.3c0,0,0,0,0,0c-0.1,0.1-0.3,0.2-0.4,0.2c0,0,0,0-0.1,0
			c-0.1,0.1-0.2,0.2-0.3,0.3c-0.2,0.3-0.3,0.6-0.4,0.9c-0.1-0.3-0.4-0.7-0.4-1c0-1,0.6-1.7,1.1-2.1c0.2-0.1,0.3-0.2,0.5-0.3
			c0,0,0.1-0.1,0.1-0.1c0.1-0.1,0.2-0.1,0.3-0.2c0.1,0,0.1-0.1,0.1-0.1c0.1-0.1,0.2-0.1,0.3-0.1c0,0,0.1,0,0.1,0
			C55.9,40.9,56.2,40.8,56.4,40.8z M58.4,44.2c0,0,0.1,0.1,0.1,0.1c0,0.8,0,1.5,0,2.3c-0.3,0-0.5,0.1-0.8,0.1c0-0.9,0-1.8,0-2.7
			c0.1,0,0.3,0.1,0.4,0.2L58.4,44.2z M57.1,43.7c0,1.1,0,2.2,0,3.3c0,0-0.1,0-0.1,0.1c-0.1,0.1-0.3,0.1-0.5,0.2c0-1.1,0-2.3,0-3.6
			C56.6,43.6,56.8,43.7,57.1,43.7z M55.8,43.6c0,1.3,0,2.6,0,3.8c-0.1,0-0.2,0-0.2,0.1c-1,0.1-1.5-0.3-1.6-0.6
			c-0.1-0.1-0.1-0.2-0.2-0.4c-0.1-0.2-0.1-0.6-0.1-0.6c0-0.5,0.3-0.8,0.7-1.4C54.7,44,55.2,43.7,55.8,43.6z M42.3,26.3
			c0.2-1.8,4.9-2.4,5.8-2.2c0.8,0.2,2.1,0.4,2.7,0.5c0,0,2.7,0.6,5.1-0.3c0,0.4,0,8.5,0,16.2c-0.5,0.1-1.4,0.4-2.2,1
			c-0.8,0.7-1.3,1.4-1.3,2.4c0,0.7,0.2,1.3,0.6,2.2c0.2,0.5,0.3,1.1,0.4,1.1c0.4,0.7,0.3,1.3,0.5,2c0.2,1,0.8,1.2,1.1,1.3
			c0.3,0.1,0.6,0.2,0.9,0.2c0,0.4,0,0.8,0,1.2c-0.1,0-0.1,0-0.2,0c-1.6-0.1-2.2-0.4-3.1-0.8l-1.1-0.6c-1.9-0.9-4.4-0.8-5.7-0.3
			c-0.7,0.3-1.1,0.5-1.4,1l-0.1,0.1l0,0.2c0.1,0.4,0.4,0.8,0.6,1.1c0.1,0.3,0.1,0.9,0.1,1.1c0,0.5-0.4,1-0.6,1.2l0,0
			c-0.4,0.3-0.6,0.8-0.7,1.6c-0.5,0.2-0.9,0.5-1.3,0.7C42.3,57.1,42.1,26.3,42.3,26.3z M47.2,57.5c0.1,0.2,0.2,0.4,0.4,0.5
			c0.2,0.2,0.3,0.3,0.5,0.5c0.2,0.2,0.4,0.3,0.7,0.4c0.1,0.1,0.2,0.1,0.3,0.2c0.2,0.1,0.3,0.2,0.5,0.3c-0.2,0-0.3,0-0.5,0l-0.8,0.1
			c-0.2,0-0.3,0-0.5,0l0,0c0,0,0,0,0,0c-0.5,0-0.8,0.1-1.4,0c0,0,0,0,0,0h0c-0.2,0-0.4-0.1-0.6-0.1c-0.4-0.1-0.7-0.3-0.9-0.5l0,0
			c0,0,0,0,0,0c-0.3-0.3-0.5-0.6-0.6-0.9c-0.1-0.2-0.1-0.3-0.1-0.5v0c0-0.2,0-0.3,0-0.5c0,0,0,0,0,0c0-0.3,0-0.5,0.1-0.7v0
			c0-0.2,0.1-0.3,0.2-0.4c0,0,0,0,0,0c0.1-0.1,0.2-0.2,0.3-0.3c0,0,0.1-0.1,0.1-0.1c0.2,0,0.3-0.1,0.5-0.1c0.1,0,0.2,0,0.4,0
			c0.1,0,0.1,0,0.2,0c0.2,0,0.4,0,0.6,0.1c0,0,0,0,0,0c0.3,0.1,0.5,0.1,0.8,0.2c0,0.1-0.1,0.2-0.1,0.3c-0.1,0.2-0.1,0.3-0.1,0.4
			c0,0.2-0.1,0.3-0.1,0.5C47,57,47.1,57.2,47.2,57.5z M47.5,56.6c0-0.3,0.1-0.5,0.2-0.9c0.1,0,0.2,0,0.3,0c0.6,0.2,1.3,0.4,1.9,0.6
			C49.1,56.4,48.2,56.5,47.5,56.6z M52.3,57.1c0.8,0.2,1.7,0.4,2.7,0.5c-2.1,0.1-4.7,0.2-6.8,0.3c-0.2-0.2-0.4-0.3-0.5-0.5
			C49.2,57.3,50.8,57.2,52.3,57.1z M48.3,60.1c0,0.3-0.1,0.6-0.3,0.8c-1.4,1.2-2.5,1.4-5.2,1c-0.3,0-0.5-0.1-0.8-0.1
			c0-0.5,0-1,0-1.6c0.7,0,1.5-0.2,2.2-0.7c0.1,0,0.3,0,0.6-0.1c0.3,0.2,0.6,0.3,1,0.4C47.1,60.1,47.3,60.1,48.3,60.1z M43.6,57.6
			C43.6,57.6,43.5,57.6,43.6,57.6L43,57.3c0.2-0.1,0.4-0.2,0.5-0.3c0,0,0,0,0,0C43.5,57.3,43.6,57.4,43.6,57.6z M41.9,57.6
			c1.3,0,2,1.3,1.9,1.4c-0.9,1-2.8,1.1-3.6,0C40,58.9,40.9,57.7,41.9,57.6z M40.1,58.2c0.3,0.1-0.2,0.2-0.2,0.2
			c-0.6-0.1-1.7-0.2-3.1-0.3c0,0,0-0.1-0.1-0.1c0-0.1,0-0.2-0.1-0.2C38.1,57.9,39.4,58,40.1,58.2z M36.4,57
			c-0.1-0.2-0.2-0.5-0.4-0.7c1.6,0.2,4.2,0.7,4.8,1.1c-0.3,0.2,0.1-0.1-0.4,0.3C39.9,57.5,38.4,57.2,36.4,57z M39,58.7
			c0.2,0,0.6,0,0.4,0.4c0,0-0.9-0.1-2.3-0.1c-0.1-0.1-0.2-0.2-0.2-0.4C38,58.6,38.7,58.7,39,58.7z M39.6,59.5
			c0.7,0.2,1.2,0.5,1.9,0.6c0,0.5,0,0.9,0,1.4c-0.5-0.2-1-0.4-1.5-0.7c0,0-0.6-0.3-1.5-0.7c-0.4-0.2-0.7-0.4-0.9-0.8
			C38.6,59.4,39.3,59.4,39.6,59.5z M27.4,24.7c0-0.2,0-0.3,0.4-0.3c5.1,0.1,13-1.8,13.8,1.8c0,0.1,0.2,23.6,0.1,30.8
			c-1.7-0.7-3-0.9-6-1.3l-0.5-0.7c-0.6-0.8-0.7-1.2-1.1-1.5l-1.1-1c-0.6-0.5-1.3-1.2-1.4-1.2c-1.6-1.1-3-1.6-4.2-1.9
			C27.5,34.8,27.3,26.4,27.4,24.7z M26.5,25.2c0-0.8,0.4-0.7,0.4-0.2c0,0.8,0,8.9-0.2,24.3c-0.2,0-0.4-0.1-0.6-0.1
			C26.3,40.4,26.5,26.3,26.5,25.2z M25,25c-0.1-0.4,0.4-0.6,0.4-0.1c0.1,0.2-0.1,14.9-0.2,24.4c-0.2,0-0.4,0-0.6,0.1
			C24.8,39.8,25,25.1,25,25z M23.4,24.8c0-0.5,0.8-0.3,0.8,0.3c-0.1,10.3-0.2,18.6-0.2,24.4l-0.2,0c0,0-0.2,0-0.4,0
			C23.4,39.3,23.4,25,23.4,24.8z M21.3,58.8c-0.4,0.3-0.8,0.5-1.3,0.4c-0.3,0-0.9-0.7-1.3-1.5c-0.1-0.3-0.1-0.7-0.1-1.3
			c0-0.2,0-0.3,0.1-0.4c0.1-0.2,0.2-0.4,0.3-0.5c0.2,0.3,0.5,0.5,0.9,0.7l0.7,0.5c0.4,0.3,1.1,0.5,1.6,0.6
			C22.1,57.7,21.8,58.4,21.3,58.8z M22.2,56.6c-0.1,0-0.7,0-1.4-0.3l-0.7-0.4c-0.4-0.5-0.5-0.7-0.5-0.9c0,0,0,0,0.1-0.1
			c0.4-0.3,1.9-0.3,2.9-0.2c0,0.6,0,1.2,0,1.8C22.4,56.6,22.2,56.6,22.2,56.6z M23.4,58.9c-0.1-0.2-0.1-1.8-0.1-2.1c0-0.6,0-1.3,0-2
			c0.2,0,0.4,0,0.6,0c0,2.3,0.1,3.6,0.2,3.7c0.1,0.1,2.5,0.1,5.3,0.1c0,0,0,0,0,0c0,0,0.1,0.2,0.2,0.2c0,0,0,0.1,0.1,0.2
			C26.4,59.1,23.4,59.1,23.4,58.9z M28.5,57.3c0.1,0.1,0.2,0.3,0.3,0.5c-2.3-0.1-4-0.2-4.1-0.3c0,0-0.1-1-0.1-2.5
			c0.2,0,0.4,0.1,0.6,0.2c0,1.2,0,2,0.1,2C25.5,57.2,26.8,57.2,28.5,57.3z M26,55.4c0.2,0.1,0.4,0.2,0.6,0.3c0,0,0,0,0,0
			c0.4,0.2,0.8,0.5,1.1,0.8c-1.1,0-1.8,0-1.8,0C26,56.5,26,56.1,26,55.4z M51.7,61.8c0,0.2,0,0.4-0.1,0.6c0,0,0,0.1,0,0.1
			c0,0.2-0.1,0.4-0.2,0.6c0,0,0,0,0,0c-0.1,0.2-0.1,0.4-0.2,0.6c0,0,0,0.1,0,0.1c-0.1,0.2-0.2,0.4-0.2,0.5h0
			c-0.1,0.2-0.2,0.4-0.3,0.5c-0.5,0.7-1.2,1.2-3,2c-0.5,0.2-1,0.3-1.5,0.4c-0.1,0-0.2,0-0.3,0.1c-0.4,0.1-0.8,0.2-1.2,0.2
			c-0.1,0-0.1,0-0.2,0c-0.4,0.1-0.9,0.1-1.3,0.1c0,0,0,0-0.1,0c-0.4,0-0.9,0-1.3,0c0,0,0,0,0,0c-0.4,0-0.8,0-1.2-0.1
			c-0.1,0-0.1,0-0.2,0c-0.2,0-0.4-0.1-0.6-0.1c-0.1,0-0.3-0.1-0.4-0.1c-0.1,0-0.3-0.1-0.4-0.1c-0.3-0.1-0.5-0.2-0.8-0.3
			c-2.4-1.1-4-1.8-4.7-2.8c-0.2-0.3-0.4-0.6-0.6-0.9c-0.1-0.2-0.3-0.4-0.4-0.6c-0.2-0.4-0.4-0.7-0.6-1.1l-0.2-0.4l-0.3-0.6
			c-0.2-0.4-0.4-0.8-0.7-1.2c-0.1-0.1-0.2-0.3-0.3-0.4c0-0.1-0.3-0.7-0.3-0.7l0,0L30,58.2c-0.1-0.2-0.2-0.3-0.3-0.5
			c-0.1-0.2-0.2-0.3-0.3-0.4c-0.2-0.3-0.4-0.5-0.5-0.7l0,0c0,0-0.1-0.1-0.2-0.2c-0.1-0.1-0.3-0.2-0.5-0.4c0,0,0,0,0,0
			c-0.2-0.2-0.5-0.3-0.7-0.5h0c-0.3-0.2-0.6-0.3-0.9-0.5c-0.2-0.1-0.4-0.2-0.5-0.2c-0.2-0.1-0.5-0.2-0.8-0.3
			c-0.2-0.1-0.4-0.1-0.6-0.2c-0.3-0.1-0.6-0.2-0.8-0.2c-0.2,0-0.4-0.1-0.6-0.1c-0.2,0-0.5-0.1-0.7,0c-0.1,0-0.1,0-0.2,0h0
			c-1.2,0-1.4-0.1-1.8-0.1c0,0,0,0,0,0c0,0-0.1,0-0.2,0c0,0,0,0-0.1,0c-0.1,0-0.2,0-0.3,0c0.1-0.1,0.1-0.3,0.2-0.5
			c0.2-0.4,0.1-1,0.1-1.5c0.1-0.6,0.3-1.3,0.5-1.6c0.1-0.1,0.2-0.2,0.3-0.2c0,0,0.1,0,0.1,0c0.1,0,0.2,0,0.3-0.1c0,0,0.1,0,0.1,0
			c0.1,0,0.3,0,0.4,0c0.2,0,0.3,0,0.5,0l0.5,0l0.1,0l0.4-0.1c0,0,0,0,0,0c0.4-0.1,0.9-0.2,1.4-0.3c0,0,0,0,0,0
			c0.3,0,0.5-0.1,0.8-0.1c0,0,0,0,0,0c0.4,0,0.8,0,1.2,0.1h0c0.2,0.1,0.5,0.1,0.7,0.2c0,0,0.1,0,0.1,0c0.2,0.1,0.5,0.2,0.8,0.3
			c0,0,0.1,0,0.1,0.1c0.3,0.1,0.6,0.3,0.9,0.5c0,0,0.1,0.1,0.1,0.1c0.3,0.2,0.6,0.4,1,0.7l0,0l0,0c0.1,0.1,0.5,0.4,0.9,0.7l1.5,1.1
			c0.3,0.2,0.9,1.1,1.4,1.8l0.4,0.6c0.3,0.5,0.6,1.1,0.8,1.7c0,0.1,0.1,0.2,0.1,0.2c0.1,0.2,0.2,0.4,0.2,0.5
			c0.1,0.1,0.1,0.3,0.2,0.4c0.1,0.1,0.2,0.3,0.3,0.4c0.1,0.1,0.2,0.3,0.3,0.4c0,0,0,0,0,0c0.1,0.1,0.2,0.2,0.3,0.3c0,0,0,0,0,0
			c0.1,0.1,0.2,0.2,0.3,0.2c0,0,0,0,0.1,0.1c0.1,0.1,0.2,0.2,0.4,0.2l0.8,0.5c0.3,0.2,0.7,0.4,1.1,0.6c0,0,0.1,0,0.1,0
			c0.4,0.2,0.8,0.3,1.2,0.4c0.2,0,0.4,0.1,0.6,0.1c0.1,0,0.1,0,0.2,0c2.9,0.4,5.3,0,6.3-1c0.3-0.4,0.5-0.8,0.5-1.3l0.2,0
			c0.9-0.1,1.3-0.1,1.8,0.3c0,0,0,0,0,0C51.3,60.9,51.7,61.3,51.7,61.8z M59.9,59.2c-0.2-0.1-5.6-0.2-9.9-0.3
			c-0.3-0.1-0.6-0.3-0.9-0.4c4.2,0,8.7,0.1,10.1,0c0-0.1,0-0.4,0-0.9l0.7-0.1c0,0,0,0,0,0C59.9,58.3,59.9,59,59.9,59.2z M64.2,49.5
			c0.4,0.5,0.7,1.1,0.8,1.8c0.2,1.4,0.2,2.6-1,3.7c-0.1,0.1-0.3,0.3-0.4,0.4c-0.1,0.1-0.2,0.1-0.2,0.2c0,0-0.1,0.1-0.1,0.1
			c-0.1,0.1-0.2,0.1-0.3,0.2c0,0-0.1,0.1-0.1,0.1c-0.1,0.1-0.2,0.1-0.3,0.2c0,0-0.1,0-0.1,0.1c-0.1,0.1-0.2,0.1-0.3,0.1
			c0,0-0.1,0-0.1,0.1c-0.1,0-0.2,0.1-0.3,0.1c0,0-0.1,0-0.1,0c-0.1,0-0.2,0.1-0.4,0.1c0,0-0.1,0-0.1,0c-0.1,0-0.3,0.1-0.5,0.1
			c0,0,0,0,0,0c-0.2,0-0.4,0.1-0.6,0.1l-0.8,0.1c0,0,0,0,0,0c-0.3,0-0.6,0.1-0.9,0.1h0c-0.4,0-0.8,0.1-1.1,0.1c0,0,0,0-0.1,0
			c-0.4,0-0.7,0-1.1,0c0,0-0.1,0-0.1,0c-0.4,0-0.7,0-1-0.1c0,0,0,0-0.1,0c-1.8-0.2-3.4-0.6-4.6-1.2c-0.3-0.1-0.6-0.3-0.9-0.4
			c-0.3-0.1-0.5-0.2-0.7-0.3l0,0c-0.6-0.2-1.2-0.4-1.8-0.6c0,0-0.1,0-0.1,0c-0.2,0-0.5-0.1-0.7-0.1c-0.1,0-0.1,0-0.2,0
			c-0.2,0-0.5,0-0.7,0c0.2-0.4,0.3-0.9,0.3-1.2c0-0.1,0-0.2,0-0.2c-0.1-0.3-0.2-0.6-0.3-0.9c-0.1-0.2-0.2-0.5-0.3-0.7
			c0.3-0.3,0.4-0.6,0.9-0.8c1-0.4,3.2-0.7,5,0.2l1.3,0.6c0.9,0.5,1.7,0.9,3.4,1c0.3,0,0.6,0,0.9,0.1c0.2,0,0.4,0,0.6,0
			c0.2,0,0.5,0,0.7,0c0.3,0,0.5,0,0.8,0c0.3,0,0.6,0,0.9,0c0.3,0,0.5,0,0.7-0.1c0.2,0,0.5-0.1,0.7-0.1c0.3-0.1,0.6-0.1,0.8-0.2
			c0,0,0.1,0,0.1,0c0.2-0.1,0.4-0.1,0.6-0.2C63.9,51.2,64.2,50.1,64.2,49.5z M56.4,50.9c0.2,0,0.4,0,0.6,0c0,0.4,0,0.8,0,1.2
			c-0.2,0-0.4,0-0.6,0C56.4,51.7,56.4,51.3,56.4,50.9z M57.7,52.1c0-0.5,0-0.9,0-1.4c0,0,0,0,0.1,0c0.2-0.1,0.5-0.2,0.7-0.4
			c0,0.6,0,1.2,0,1.8C58.2,52.1,57.9,52.1,57.7,52.1z M59.3,52.1c0-0.8,0-1.6,0-2.4c0.2-0.2,0.5-0.4,0.8-0.7c0,1,0,2.1,0,3
			C59.8,52.1,59.6,52.1,59.3,52.1z M63.5,49.3c0.1,0.4,0.2,1.7-1.4,2.2c-0.5,0.2-1,0.3-1.4,0.4c0-1.2,0-2.3,0-3.4
			c0.6-0.4,1.3-0.4,2.7,0.6C63.4,49.2,63.5,49.2,63.5,49.3z M63.2,48.2c-0.3-0.1-0.5-0.1-0.8-0.1c0,0-0.1,0-0.1,0
			c-0.2,0-0.4,0-0.5,0c0,0,0,0-0.1,0c-0.2,0-0.3,0-0.5,0c0,0,0,0,0,0c-0.2,0-0.3,0.1-0.5,0.1c-0.2,0.1-0.4,0.2-0.6,0.3
			c-0.2,0.2-0.5,0.3-0.7,0.5c0,0-0.1,0.1-0.1,0.1l0,0c-0.3,0.3-0.6,0.5-0.8,0.6c0,0,0,0,0,0c-0.2,0.1-0.5,0.2-0.7,0.3
			c0,0-0.1,0-0.1,0c-0.1,0-0.1,0-0.2,0.1c-0.2,0.1-0.3,0.1-0.5,0.2c0,0,0,0,0,0c-0.4,0.1-0.8,0.2-1.2,0.1c-0.1,0-0.3,0-0.4-0.1
			c-0.7-0.3-1.1-0.9-1.1-1.2c-0.1-0.5,0.1-0.5-0.1-1.2c0.2,0.1,0.5,0.1,0.7,0.1c0.3,0,0.6,0,0.9,0c0.1,0,0.1,0,0.2,0
			c0.1,0,0.2-0.1,0.4-0.1c0.2-0.1,0.4-0.2,0.6-0.3c0,0,0,0,0.1,0c0.3-0.2,0.6-0.3,1-0.4c0.2,0,0.3-0.1,0.5-0.1c0.2,0,0.4,0,0.7,0
			l0.7,0c0.4,0,0.9,0,1.3,0c0.1,0,0.1,0,0.2,0c0.1,0,0.1,0,0.2,0c0.1,0,0.2,0.1,0.3,0.1c0,0,0.1,0,0.1,0c0.1,0,0.3,0.1,0.4,0.2
			c0,0,0.1,0,0.1,0.1c0.1,0.1,0.2,0.1,0.3,0.2c0,0,0.1,0.1,0.1,0.1C63,47.9,63.1,48,63.2,48.2z M59.3,46.6c0-0.6,0-1.2,0-1.9
			c0.3,0.1,0.5,0.2,0.8,0.3c0,0.6,0,1.1,0,1.7L59.3,46.6z M62.8,47.4c-1.1-0.8-1.5-0.8-2.1-0.7c0-0.5,0-1,0-1.5
			c0.2,0,0.5,0.1,0.7,0.1C61.9,46,62.4,46.7,62.8,47.4z M67,39.2c-0.1,0.7-0.3,1.3-0.4,1.7c0,0.2-0.1,0.3-0.1,0.4l-0.1,0.2
			c-0.5,1.3-1.1,2.3-3.1,2.9c-0.3,0.1-0.5,0.1-0.7,0.2c-0.2,0-0.4,0-0.6,0c0,0,0,0,0,0c-0.3,0-0.5-0.1-0.8-0.1c0,0,0,0,0,0
			c-0.1,0-0.2,0-0.3-0.1c0,0,0,0,0,0c-0.1,0-0.3-0.1-0.4-0.1c-0.1,0-0.1,0-0.2-0.1h0c-0.8-0.2-1.5-0.7-1.7-1.1c0,0,0,0,0,0L58.3,43
			c0,0,0,0,0-0.1c0.2,0.1,0.6,0.1,1,0.1c0.3,0,0.5,0,0.8,0c0.2,0,0.4-0.1,0.6-0.2c0,0,0,0,0,0l0.1,0c0.6-0.2,1.4-0.5,1.7-1.7
			c0.2-0.6,0.2-2.4,0.3-3.4c0.6,1.2,0.9,3.5,0.9,3.8l0.1,0.7c0,0,0.2-0.2,0.5-0.6c0.6-0.8,1-1.4,1.3-1.8l0,0
			c0.1-0.2,0.2-0.3,0.3-0.4v0c0,0,0,0,0,0c0.1-0.2,0.3-0.3,0.4-0.5c0,0,0,0,0,0c0.1-0.1,0.3-0.3,0.5-0.4C67,38.7,67,39,67,39.2z
			 M28.9,56.7C28.9,56.7,28.9,56.7,28.9,56.7L28.9,56.7C28.9,56.7,28.9,56.7,28.9,56.7z"/>
		<g>
			<path class="st0" d="M21.8,22.8c-0.3,0.2-0.5-0.1-0.2-0.3c0.8-0.5,12.9-5.9,13.8-6.3c0.6-0.3,0.9,0.1,0.3,0.4
				C35.8,16.6,22.5,22.4,21.8,22.8z"/>
		</g>
		<g>
			<g>
				<path class="st0" d="M35.6,15.2c0,0,0.2,0.2,0,0.3c-0.3,0.1-4.2,0.3-4.4,0.3c-0.1,0-1.1,0.1-1.4,0.1c-0.7-0.1-0.2-0.2,0.1-0.3
					C31.1,15.4,35.2,15,35.6,15.2z"/>
			</g>
		</g>
		<g>
			<path class="st0" d="M61.3,22.8c0.3,0.2,0.5-0.1,0.2-0.3c-0.8-0.5-12.9-5.9-13.8-6.3c-0.6-0.3-0.9,0.1-0.3,0.4
				C47.3,16.5,60.5,22.4,61.3,22.8z"/>
		</g>
		<g>
			<g>
				<path class="st0" d="M47.9,15.2c0,0-0.2,0.2,0,0.2c0.3,0.1,4.1,0.2,4.3,0.2c0.1,0,1.1,0.1,1.4,0.1c0.7-0.1,0.2-0.2-0.1-0.3
					C53.1,15.4,48.4,14.9,47.9,15.2z"/>
			</g>
		</g>
		<path class="st0" d="M35.1,72.3l0,0.1c-0.1,0-0.2,0-0.3,0.2l-1,3.7c0,0.2,0,0.2,0.1,0.3l0,0.1l-1.5-0.4l0-0.1c0.2,0,0.3,0,0.3-0.2
			l0.8-2.8c-0.1,0-0.5,0-0.5,0.2l-0.1,0l0.3-1.1l0.1,0c0,0.1,0.1,0.1,0.2,0.2c0.2,0,0.3-0.1,0.4-0.2c0-0.1,0-0.2-0.1-0.2l0-0.1
			L35.1,72.3z"/>
		<path class="st0" d="M37.2,74.8c-0.4-0.2-0.7-0.6-0.7-1c0.1-0.6,0.8-1.1,2.1-1c1.4,0.1,2,0.7,2,1.3c0,0.4-0.4,0.8-0.9,0.9
			c0.6,0.2,0.9,0.7,0.8,1.2c-0.1,0.8-0.9,1.3-2.3,1.2c-1.4-0.1-2.2-0.8-2.1-1.5C36.2,75.3,36.6,74.9,37.2,74.8z M38.3,76.7
			c0.6,0.1,1.2-0.1,1.2-0.6c0-0.5-0.5-0.8-1.1-0.8c-0.6-0.1-1.2,0.1-1.2,0.6C37.2,76.3,37.7,76.6,38.3,76.7z M38.5,74.6
			c0.7,0.1,1-0.1,1-0.5c0-0.4-0.3-0.6-0.9-0.7c-0.7-0.1-1,0.1-1,0.5C37.6,74.3,37.8,74.5,38.5,74.6z"/>
		<path class="st0" d="M44.5,74L44.4,74c0-0.2-0.4-0.5-1-0.5c-0.8,0-1.3,0.7-1.2,1.5c0.3-0.3,0.8-0.6,1.3-0.6c1-0.1,1.8,0.4,1.9,1.5
			c0,0.7-0.7,1.5-1.9,1.6c-1.6,0.1-2.2-0.9-2.3-2c-0.1-1.4,0.6-2.6,2.3-2.6c0.7,0,1.3,0.2,1.5,0.2c0.1,0,0.1,0,0.1-0.1l0.1,0
			L44.5,74z M44.4,75.9c0-0.5-0.5-0.8-1.1-0.8c-0.6,0-1,0.4-1,0.9c0,0.5,0.5,0.8,1.1,0.8C44,76.8,44.4,76.4,44.4,75.9z"/>
		<path class="st0" d="M46.8,74.6c-0.5,0-0.9-0.3-1-0.7c-0.2-0.6,0.3-1.4,1.6-1.7c1.3-0.4,2.2-0.1,2.3,0.5c0.1,0.4-0.1,0.9-0.5,1.2
			c0.6,0,1.1,0.3,1.2,0.8c0.2,0.8-0.4,1.5-1.7,1.9c-1.4,0.4-2.3,0-2.5-0.7C46.1,75.4,46.3,74.9,46.8,74.6z M47.9,73.9
			c0.7-0.2,0.9-0.5,0.8-0.8c-0.1-0.3-0.5-0.5-1.1-0.3c-0.7,0.2-0.9,0.5-0.8,0.8C46.9,73.9,47.3,74.1,47.9,73.9z M48.5,75.9
			c0.6-0.2,1-0.6,0.9-1c-0.1-0.5-0.7-0.5-1.3-0.4c-0.6,0.2-1,0.5-0.9,1C47.3,76,47.9,76.1,48.5,75.9z"/>
		<path class="st0" d="M25.8,53l1.2,0.5c0,0,0.1,0,0.1-0.1l0,0l-0.4,1l0,0c0-0.1,0-0.2,0-0.2l-1.9-0.7l0-0.1c0.1,0,0.1,0,0.1-0.1
			l0.9-2.6c0,0,0-0.1-0.1-0.1l0-0.1l0.7,0.3l0,0.1c-0.1,0-0.1,0-0.1,0.1L25.8,53z"/>
		<path class="st0" d="M29.3,54.3L29.3,54.3c0-0.1,0-0.2-0.1-0.2l-0.6-0.4l-0.3,0.5l1.1,0.6c0,0,0.1,0,0.1-0.1l0,0l-0.5,0.9l0,0
			c0-0.1,0-0.1,0-0.1l-1.6-1l0-0.1c0.1,0,0.1,0,0.1,0L29,52c0,0,0-0.1,0-0.1l0-0.1l1.6,1c0,0,0.1,0,0.1-0.1l0,0l-0.5,0.9l0,0
			c0.1-0.1,0.1-0.2,0-0.2l-1.1-0.6L29,53.2l0.6,0.4c0.1,0,0.1,0,0.2-0.1l0,0L29.3,54.3z"/>
		<path class="st0" d="M30,56.2L30,56.2c0.1,0,0.2,0,0.2-0.1l1.5-1.6l-0.5-0.5c0,0-0.1,0-0.2,0.1l0,0l0.7-0.8l0,0
			c-0.1,0.1-0.1,0.1-0.1,0.2l1.4,1.3c0,0,0.1,0,0.2-0.1l0,0l-0.7,0.8l0,0c0.1-0.1,0.1-0.1,0.1-0.2L32.1,55l-1.5,1.6
			c0,0-0.1,0.1,0,0.2l-0.1,0.1L30,56.2z"/>
		<path class="st0" d="M32.1,59.3L32.1,59.3c0.1,0.1,0.2,0,0.2,0l2-0.9l-0.3-0.6c0,0-0.1,0-0.2,0l0,0l1-0.4l0,0
			c-0.1,0.1-0.1,0.1-0.1,0.1l0.8,1.7c0,0,0.1,0,0.2,0l0,0l-1,0.4l0,0c0.1-0.1,0.1-0.1,0.1-0.1l-0.3-0.6l-2,0.9c0,0-0.1,0.1-0.1,0.1
			l-0.1,0L32.1,59.3z"/>
		<path class="st0" d="M34.4,63.3c0,0-0.1,0.1,0,0.1l-0.1,0l-0.5-0.6l0.1,0c0.1,0.1,0.1,0.1,0.1,0l0.9-0.6l-0.6-0.8l-0.9,0.6
			c0,0-0.1,0.1,0,0.2l-0.1,0L33,61.6l0.1,0c0.1,0.1,0.1,0.1,0.2,0l2.2-1.6c0,0,0.1-0.1,0-0.1l0.1,0l0.5,0.6l-0.1,0
			c-0.1-0.1-0.1-0.1-0.2,0L35,61l0.6,0.8l0.8-0.6c0,0,0.1-0.1,0-0.1l0.1,0l0.5,0.6l-0.1,0c-0.1-0.1-0.1-0.1-0.1,0L34.4,63.3z"/>
		<path class="st0" d="M37.1,64.3L37.1,64.3c0-0.1,0-0.2-0.1-0.2l-0.6-0.4l-0.3,0.4l1,0.7c0,0,0.1,0,0.2-0.1l0,0l-0.6,0.8l0,0
			c0-0.1,0.1-0.1,0-0.1l-1.5-1.1l0-0.1c0.1,0,0.1,0,0.2,0L37,62c0,0,0-0.1,0-0.1l0-0.1l1.5,1.1c0,0,0.1,0,0.2-0.1l0,0l-0.6,0.8l0,0
			c0.1-0.1,0.1-0.2,0-0.2l-1-0.7l-0.3,0.4l0.6,0.4c0.1,0,0.1,0,0.2,0l0,0L37.1,64.3z"/>
		<path class="st0" d="M38.5,66c0,0,0,0.1,0.1,0.1l0,0.1l-0.8-0.2l0-0.1c0.1,0,0.1,0,0.1-0.1l0.9-2.6c0-0.1,0-0.1-0.1-0.1l0-0.1
			l1.3,0.4c0.5,0.2,0.7,0.5,0.5,1.2c-0.2,0.5-0.5,0.7-0.8,0.8l0.1,1.1c0,0.1,0,0.1,0.1,0.1l0,0.1l-0.8-0.2l0-0.1
			c0.1,0,0.1,0,0.1-0.1c0,0-0.1-1-0.1-1.1L38.8,65L38.5,66z M39,64.4l0.6,0.2c0.2,0.1,0.3-0.1,0.4-0.2c0.1-0.2,0-0.3-0.2-0.4
			l-0.6-0.2L39,64.4z"/>
		<path class="st0" d="M42.6,65.8L42.6,65.8c-0.1-0.1-0.1-0.1-0.2-0.2l-0.7,0l0,0.5l1.2,0.1c0,0,0.1,0,0.1-0.2h0l-0.1,1l0,0
			c0-0.1,0-0.1-0.1-0.1L41,66.8l0-0.1c0.1,0,0.1,0,0.1-0.1l0.2-2.7c0,0,0-0.1-0.1-0.1l0-0.1l1.9,0.1c0,0,0.1,0,0.1-0.2l0,0l-0.1,1
			l0,0c0-0.1,0-0.2-0.1-0.2l-1.2-0.1l0,0.5l0.7,0.1c0.1,0,0.1-0.1,0.1-0.1l0,0L42.6,65.8z"/>
		<path class="st0" d="M44.7,63.8c0,0,0-0.1-0.1-0.1l0-0.1l1.4-0.4c0.4-0.1,0.8,0,0.9,0.6c0.1,0.3,0,0.6-0.2,0.7l0,0
			c0.3,0,0.5,0.2,0.6,0.6c0.1,0.5,0,0.9-0.5,1.1l-1.4,0.4l0-0.1c0.1,0,0.1-0.1,0.1-0.1L44.7,63.8z M45.5,64.6l0.5-0.2
			c0.3-0.1,0.4-0.2,0.3-0.4c-0.1-0.2-0.2-0.2-0.5-0.1L45.3,64L45.5,64.6z M45.9,65.8l0.6-0.2c0.3-0.1,0.3-0.2,0.3-0.4
			c-0.1-0.2-0.2-0.3-0.5-0.2l-0.6,0.2L45.9,65.8z"/>
		<path class="st0" d="M49.3,63.9L49.3,63.9c-0.1,0-0.1-0.1-0.2,0l-0.6,0.3l0.2,0.5l1.1-0.6c0,0,0-0.1,0-0.2l0,0l0.5,0.9l0,0
			c-0.1-0.1-0.1-0.1-0.1-0.1l-1.7,0.9l0-0.1c0.1-0.1,0.1-0.1,0-0.1l-1.3-2.5c0,0-0.1-0.1-0.1,0l0-0.1l1.7-0.9c0,0,0-0.1,0-0.2l0,0
			l0.5,0.9l0,0c-0.1-0.1-0.1-0.1-0.1-0.1L48,63.1l0.2,0.4l0.6-0.3c0.1,0,0.1-0.1,0-0.2l0,0L49.3,63.9z"/>
		<path class="st0" d="M48.3,53.7l1.3,0.3c0,0,0.1,0,0.1-0.1l0,0l-0.2,1l0,0c0-0.1,0-0.2,0-0.2l-1.9-0.5l0-0.1c0.1,0,0.1,0,0.1-0.1
			l0.7-2.7c0-0.1,0-0.1-0.1-0.1l0-0.1l0.8,0.2l0,0.1c-0.1,0-0.1,0-0.1,0.1L48.3,53.7z"/>
		<path class="st0" d="M50,55L50,55c0.1,0,0.1-0.1,0.2-0.1l1-2.6c0-0.1,0-0.1-0.1-0.1l0-0.1l0.7,0.3l0,0.1c-0.1,0-0.1,0-0.1,0.1
			l-1,2.6c0,0,0,0.1,0.1,0.1l0,0.1L50,55z"/>
		<path class="st0" d="M53.9,55.1l-0.5-0.1c0,0-0.1,0-0.1,0.1l0,0l0.2-0.8l0,0c0,0.1,0,0.1,0,0.1l1.1,0.3l0,0.1c0,0-0.1,0-0.1,0.1
			l-0.3,0.9c0,0.1,0,0.1,0,0.1l0,0l0,0.1c-0.4,0.2-0.8,0.2-1.3,0.1c-0.6-0.2-1.1-0.8-0.8-1.9c0.3-1,1-1.4,1.6-1.2
			c0.2,0.1,0.3,0.1,0.6,0.3c0.1,0.1,0.2,0.2,0.2,0.2c0,0,0,0,0.1,0l0,0l-0.4,0.7l0,0c0,0,0,0,0-0.1c0-0.1-0.3-0.4-0.6-0.5
			c-0.4-0.1-0.8,0.1-0.9,0.7c-0.2,0.6,0.2,1,0.5,1.1c0.2,0.1,0.4,0.1,0.5,0L53.9,55.1z"/>
		<path class="st0" d="M57.6,56.5c0,0.1,0,0.1,0.1,0.1l0,0.1l-0.8-0.1l0-0.1c0.1,0,0.1,0,0.1-0.1l0.1-1.1l-1-0.1L56,56.4
			c0,0,0,0.1,0.1,0.1l0,0.1l-0.8-0.1l0-0.1c0.1,0,0.1-0.1,0.1-0.1l0.2-2.7c0-0.1,0-0.1-0.1-0.1l0-0.1l0.8,0.1l0,0.1
			c-0.1,0-0.1,0-0.1,0.1l-0.1,0.9l1,0.1l0.1-0.9c0-0.1,0-0.1-0.1-0.1l0-0.1l0.8,0.1l0,0.1c-0.1,0-0.1,0-0.1,0.1L57.6,56.5z"/>
		<path class="st0" d="M59.6,56.4L59.6,56.4c0.1-0.1,0.1-0.1,0.1-0.2l-0.3-2.2l-0.6,0.1c0,0-0.1,0,0,0.2l0,0l-0.2-1l0,0
			c0,0.1,0.1,0.2,0.1,0.2l1.9-0.3c0,0,0.1,0,0-0.2l0,0l0.2,1l0,0c0-0.1-0.1-0.2-0.1-0.2L59.8,54l0.3,2.2c0,0.1,0,0.1,0.1,0.1l0,0.1
			L59.6,56.4z"/>
		<path class="st0" d="M20.9,64L20.9,64c-0.2,0-0.3,0-0.4,0.1l-2.4,2.5l0.9,0.9c0.2,0.2,0.3,0.2,0.4,0.1l0.1,0.1l-0.8,0.8l-0.1-0.1
			c0.1-0.1,0-0.2-0.1-0.4l-2.6-2.5c-0.2-0.2-0.3-0.2-0.4-0.1l-0.1-0.1l0.8-0.8l0.1,0.1c-0.1,0.1-0.1,0.2,0.1,0.4l0.9,0.9l2.4-2.5
			c0.1-0.1,0.1-0.2,0-0.3l0.1-0.1L20.9,64z"/>
		<path class="st0" d="M15.4,61.2l1.4-1c0.1-0.1,0.1-0.2,0-0.4l0.1-0.1l0.9,1.3l-0.1,0.1c-0.1-0.2-0.2-0.2-0.3-0.1l-3.2,2.2
			c-0.1,0.1-0.1,0.2,0,0.4l-0.1,0.1l-0.9-1.3l0.1-0.1c0.1,0.2,0.2,0.2,0.3,0.1l1.2-0.8l-1.3-1.9l-1.2,0.8c-0.1,0.1-0.1,0.2,0,0.4
			l-0.1,0.1l-0.9-1.3l0.1-0.1c0.1,0.2,0.2,0.2,0.3,0.1l3.2-2.2c0.1-0.1,0.1-0.2,0-0.4l0.1-0.1l0.9,1.3l-0.1,0.1
			c-0.1-0.2-0.2-0.2-0.3-0.1l-1.4,1L15.4,61.2z"/>
		<path class="st0" d="M13.2,54.9l-1-2.2c-0.1-0.2-0.2-0.3-0.3-0.3l-0.1-0.1l0.9-0.4l0.1,0.1c-0.1,0.1-0.1,0.2,0,0.4l1.6,3.5l-0.1,0
			c-0.1-0.3-0.2-0.3-0.3-0.2l-3.5,1.6c-0.1,0.1-0.2,0.1-0.1,0.4l-0.1,0l-1.5-3.4c-0.1-0.2-0.2-0.3-0.3-0.3l-0.1-0.1l0.9-0.4l0.1,0.1
			c-0.1,0.1-0.1,0.2,0,0.4l0.9,2.1l1-0.5l-0.6-1.2c-0.1-0.2-0.2-0.3-0.3-0.3L10.5,54l0.9-0.4l0.1,0.1c-0.1,0.1-0.1,0.2,0,0.4
			l0.6,1.2L13.2,54.9z"/>
		<path class="st0" d="M6.3,43.3l0.1,0c0,0.2,0.1,0.2,0.2,0.2l2.6-0.1c0.6,0,1-0.4,0.9-1.2c0-0.8-0.4-1.2-1-1.2l-2.6,0.1
			c-0.1,0-0.2,0.1-0.2,0.3l-0.1,0L6.1,40l0.1,0c0,0.2,0.1,0.3,0.2,0.3L9,40.1c1,0,1.7,0.6,1.8,2.1c0.1,1.6-0.6,2.2-1.6,2.3l-2.5,0.1
			c-0.1,0-0.2,0.1-0.2,0.3l-0.1,0L6.3,43.3z"/>
		<path class="st0" d="M10.8,38.4l-0.1,0c0-0.2,0-0.3-0.2-0.3l-3.8-0.6c-0.1,0-0.2,0-0.3,0.2l-0.1,0l0.3-1.7l0.1,0
			c0,0.1,0,0.2,0,0.2c0.1,0,2.7-1.4,3.1-1.5l0,0l-2.7-0.4c-0.1,0-0.2,0-0.3,0.2l-0.1,0L7,33l0.1,0c0,0.2,0,0.2,0.2,0.3l3.8,0.6
			c0.2,0,0.2,0,0.3-0.2l0.1,0l-0.2,1.5l-0.1,0c0-0.1,0-0.2-0.1-0.2c-0.1,0-2.6,1.4-3.4,1.6l0,0l3,0.5c0.1,0,0.2,0,0.3-0.2l0.1,0
			L10.8,38.4z"/>
		<path class="st0" d="M12,32.3l-0.1,0c0.1-0.3,0-0.4-0.1-0.4l-3.7-1.2c-0.1,0-0.2,0-0.3,0.3l-0.1,0l0.5-1.7l0.1,0
			c-0.1,0.3,0,0.4,0.1,0.4l3.7,1.2c0.1,0,0.2,0,0.3-0.3l0.1,0L12,32.3z"/>
		<path class="st0" d="M13.6,28L13.5,28c0.1-0.1,0-0.3,0-0.3c-0.1,0-3-0.1-4.1-0.2c-0.2,0-0.3,0-0.4,0.1l-0.1-0.1l0.7-1.3l0.1,0.1
			c0,0.2,0,0.2,0,0.3c0.2,0.1,2.3,0.1,3.3,0.2l0,0c-0.8-0.8-2.2-2.4-2.3-2.5c0,0-0.1,0-0.2,0.2l-0.1-0.1l0.6-1.3l0.1,0.1
			c0,0.2,0,0.3,0.2,0.4c1,1.1,2.6,2.9,2.8,3c0.1,0,0.2,0,0.2-0.2l0.1,0.1L13.6,28z"/>
		<path class="st0" d="M16,22.6l1.5-1.9c0.1-0.2,0.2-0.3,0.1-0.4l0.1-0.1l0.8,0.6l-0.1,0.1c-0.1,0-0.2,0-0.3,0.2l-2.3,3.1l-0.1-0.1
			c0.2-0.2,0.1-0.3,0-0.4l-3.1-2.3c-0.1-0.1-0.2-0.1-0.4,0.2L12,21.5l2.2-3c0.1-0.2,0.2-0.3,0.1-0.4l0.1-0.1l0.8,0.6l-0.1,0.1
			c-0.1,0-0.2,0-0.3,0.2l-1.4,1.8l0.9,0.7l0.8-1.1c0.1-0.2,0.2-0.3,0.1-0.4l0.1-0.1l0.8,0.6l-0.1,0.1c-0.1,0-0.2,0-0.3,0.2L15,21.9
			L16,22.6z"/>
		<path class="st0" d="M19.3,19.6L19.3,19.6c0-0.2,0-0.3-0.1-0.4l-2.6-2.9c-0.1-0.1-0.2-0.1-0.3,0l-0.1-0.1l2-1.8
			c0.9-0.8,1.7-0.9,2.2-0.3c0.4,0.5,0.5,1.1,0,1.8l1.5,0.4c0.4,0.1,0.6,0.2,0.8,0.1l0.1,0.1l-1.2,1l-0.1-0.1
			c0.1-0.1,0.1-0.2,0.1-0.2c0,0-0.1-0.1-0.3-0.1l-1.6-0.4L19,17.4l1,1.1c0.1,0.1,0.2,0.1,0.3,0l0.1,0.1L19.3,19.6z M18.5,16.8
			l0.9-0.8c0.5-0.4,0.5-0.8,0.3-1.1c-0.3-0.3-0.6-0.3-1.1,0.2l-0.9,0.8L18.5,16.8z"/>
		<path class="st0" d="M23.7,14.3l0.2,0c0,0,0,0.1,0,0.1c0.2,0.3,1,0,1.5-0.3c0.8-0.5,1-0.9,0.8-1.2c-0.5-0.8-3,1.5-3.9,0.1
			c-0.4-0.6-0.1-1.4,1-2.2c0.5-0.3,0.9-0.4,1.2-0.5c0.3-0.1,0.5-0.1,0.6-0.1c0.1-0.1,0.1-0.1,0.2-0.2l0.1,0l-0.1,1.3l-0.2,0
			c0,0,0-0.1-0.1-0.1c-0.1-0.2-0.7-0.2-1.4,0.3c-0.5,0.3-0.6,0.6-0.4,0.9c0.5,0.8,3-1.5,3.9,0c0.4,0.6,0.1,1.6-1.3,2.5
			c-0.4,0.3-0.8,0.4-1.2,0.5c-0.3,0.1-0.5,0.1-0.7,0.2c-0.1,0-0.1,0.1-0.1,0.2l-0.1,0L23.7,14.3z"/>
		<path class="st0" d="M29,12.9l0-0.1c0.3-0.1,0.3-0.2,0.2-0.3l-1.4-3.6c-0.1-0.1-0.1-0.2-0.4-0.1l0-0.1L29,8.1l0,0.1
			c-0.3,0.1-0.3,0.2-0.2,0.3l1.4,3.6c0.1,0.1,0.1,0.2,0.4,0.1l0,0.1L29,12.9z"/>
		<path class="st0" d="M33.4,11.4l0-0.1c0.1-0.1,0.2-0.1,0.1-0.3l-0.8-3.4l-1.2,0.3C31.2,8,31.1,8,31.1,8.2l-0.1,0l-0.3-1.1l0.1,0
			c0.1,0.1,0.2,0.1,0.4,0.1l3.5-0.9c0.2-0.1,0.3-0.1,0.3-0.2l0.1,0l0.3,1l-0.1,0C35.2,7,35.2,7,34.9,7l-1.2,0.3l0.8,3.4
			c0,0.1,0.1,0.2,0.3,0.2l0,0.1L33.4,11.4z"/>
		<path class="st0" d="M40.5,10.3l-1.6,0.1l0-0.1c0.2,0,0.2-0.1,0.2-0.2L39,8.5l-1.8-2.2c-0.1-0.1-0.1-0.1-0.3-0.2l0-0.1l1.6-0.1
			l0,0.1c-0.2,0-0.2,0.1-0.2,0.1c0,0.1,0.8,1,1.2,1.5C39.8,7,40.5,6.1,40.5,6c0-0.1-0.1-0.1-0.3-0.1l0-0.1l1.6-0.1l0,0.1
			c-0.1,0-0.2,0.1-0.3,0.2l-1.5,2.4l0.1,1.5c0,0.1,0.1,0.2,0.3,0.2L40.5,10.3z"/>
		<path class="st0" d="M53,7.5c1.5,0.5,2.1,1.8,1.6,3c-0.4,1.2-1.6,1.9-3.2,1.4c-1.5-0.5-2.1-1.8-1.6-3C50.3,7.7,51.5,7,53,7.5z
			 M51.7,11.2c0.9,0.3,1.6-0.1,1.9-1c0.3-1,0-1.7-0.9-2c-0.9-0.3-1.6,0.1-1.9,1C50.5,10.2,50.8,10.9,51.7,11.2z"/>
		<path class="st0" d="M54.9,13.2l0.1-0.1c0.3,0.1,0.3,0.1,0.4,0l1.9-3.4c0.1-0.1,0-0.2-0.2-0.4l0.1-0.1l3.3,1.8
			c0.2,0.1,0.3,0.1,0.4,0l0.1,0.1l-0.5,0.9L60.2,12c0-0.1,0-0.2-0.2-0.3l-2-1.1l-0.5,1l1.3,0.7c0.2,0.1,0.3,0.1,0.4,0l0.1,0.1
			l-0.5,0.9l-0.1-0.1c0-0.1,0-0.2-0.2-0.3l-1.3-0.7l-0.8,1.4c-0.1,0.1,0,0.2,0.2,0.4l-0.1,0.1L54.9,13.2z"/>
		<path class="st0" d="M70,20.5l-1.2,0.1l0-0.1c0,0,0.1,0,0.1,0c0.2-0.2,0.1-0.8-0.2-1.2c-0.7-0.8-1.4-1-2.3-0.2
			c-0.7,0.6-0.8,1.5-0.2,2.2c0.4,0.5,1,0.7,1.2,0.5c0,0,0.1-0.1,0.1-0.1l0.1,0.1L67.3,23l-0.1,0c0-0.1,0-0.1,0-0.2
			c-0.2-0.2-0.8,0-1.7-1.1c-1-1.2-0.8-2.6,0.1-3.4c1.2-1,2.7-0.5,3.5,0.5c0.3,0.4,0.5,0.7,0.5,1c0.1,0.3,0.1,0.4,0.1,0.5
			C69.8,20.3,69.9,20.4,70,20.5L70,20.5z"/>
		<path class="st0" d="M67.3,23.9l0.1-0.1c0.1,0.1,0.2,0.1,0.3,0.1l4-0.4c0.2,0,0.2,0,0.3-0.1c0,0,0.1-0.1,0-0.3l0.1-0.1l0.9,1.5
			l-0.1,0.1c-0.1-0.1-0.2-0.2-0.2-0.1c0,0-0.1,0.1-0.2,0.3L69.9,28c-0.1,0.1-0.1,0.2-0.1,0.3l-0.1,0.1L69,27.1l0.1-0.1
			c0.1,0.1,0.1,0.1,0.2,0.1c0,0,0.1-0.1,0.1-0.1l0.5-0.7L69,24.7l-0.8,0.1c-0.1,0-0.1,0-0.2,0c-0.1,0-0.1,0.1,0,0.3L68,25.2
			L67.3,23.9z M70.4,25.8l1.2-1.5l0,0l-1.9,0.3L70.4,25.8z"/>
		<path class="st0" d="M74.2,28.1c0.1,0,0.2-0.1,0.1-0.4l0.1,0l0.6,1.6l-0.1,0c-0.1-0.3-0.2-0.3-0.3-0.3l-3.3,1.1l0.8,2.2
			c0.1,0.2,0.1,0.3,0.3,0.3l0,0.1l-1,0.4l0-0.1c0.1-0.1,0.1-0.2,0-0.4l-1.2-3.5l0.1,0c0.1,0.2,0.2,0.3,0.3,0.2L74.2,28.1z"/>
		<path class="st0" d="M71.6,34.2l0.1,0c0.1,0.3,0.1,0.3,0.3,0.3l3.8-0.7c0.1,0,0.2-0.1,0.2-0.4l0.1,0l0.3,1.7l-0.1,0
			c-0.1-0.3-0.1-0.3-0.3-0.3l-3.8,0.7c-0.1,0-0.2,0.1-0.2,0.4l-0.1,0L71.6,34.2z"/>
		<path class="st0" d="M72.2,37.2l0.1,0c0,0.3,0.1,0.3,0.2,0.3l3.8-0.3c0.1,0,0.2-0.1,0.2-0.4l0.1,0l0.3,3.7c0,0.2,0,0.3,0.2,0.3
			l0,0.1l-1,0.1l0-0.1c0.1,0,0.1-0.1,0.1-0.3l-0.2-2.3L75,38.4l0.1,1.4c0,0.2,0.1,0.3,0.2,0.3l0,0.1l-1,0.1l0-0.1
			c0.1,0,0.1-0.1,0.1-0.4l-0.1-1.4l-1.6,0.1c-0.1,0-0.2,0.1-0.2,0.4l-0.1,0L72.2,37.2z"/>
		<path class="st0" d="M76.8,45.4c-0.2,1.6-1.3,2.4-2.6,2.2c-1.3-0.2-2.2-1.2-2-2.8c0.2-1.6,1.3-2.4,2.6-2.2
			C76.1,42.8,77,43.8,76.8,45.4z M72.9,45c-0.1,0.9,0.4,1.5,1.4,1.7c1,0.1,1.7-0.3,1.8-1.3c0.1-0.9-0.4-1.5-1.4-1.7
			C73.6,43.5,73,44,72.9,45z"/>
		<path class="st0" d="M71.6,48.8l0.1,0c0,0.2,0,0.2,0.1,0.3l3.6,1.3c0.1,0,0.2,0,0.3-0.2l0.1,0L75,52.7c-0.4,1.1-1.1,1.6-1.8,1.4
			c-0.6-0.2-1-0.7-0.8-1.6l-1.5,0.4c-0.4,0.1-0.6,0.1-0.7,0.3l-0.1,0l0.5-1.5l0.1,0c0,0.1,0,0.2,0,0.2c0,0,0.1,0,0.3,0l1.6-0.4
			l0.3-0.9l-1.5-0.5c-0.1,0-0.2,0-0.3,0.2l-0.1,0L71.6,48.8z M73.6,50.9L73.2,52c-0.2,0.6-0.1,0.9,0.3,1.1c0.4,0.1,0.7-0.1,0.9-0.7
			l0.4-1.2L73.6,50.9z"/>
		<path class="st0" d="M69.4,54.6l0.1,0.1c-0.1,0.2-0.1,0.2,0.1,0.3l3.3,1.9c0.1,0.1,0.2,0.1,0.3-0.1l0.1,0.1l-0.9,1.5l-0.1-0.1
			c0.1-0.1,0.1-0.2,0-0.2c-0.1-0.1-3.1,0.4-3.4,0.3l0,0l2.4,1.4c0.1,0.1,0.2,0.1,0.3-0.1l0.1,0.1L71,61l-0.1-0.1
			c0.1-0.2,0-0.2-0.1-0.3l-3.3-1.9c-0.1-0.1-0.2-0.1-0.3,0.1l-0.1-0.1l0.8-1.3l0.1,0.1c0,0.1-0.1,0.2,0,0.2c0.1,0.1,2.9-0.4,3.7-0.3
			l0,0l-2.6-1.5c-0.1-0.1-0.2-0.1-0.3,0.1l-0.1-0.1L69.4,54.6z"/>
		<path class="st0" d="M66.1,59.9L66.1,59.9c-0.1,0.3-0.1,0.4,0,0.5l3,2.4c0.1,0.1,0.2,0.1,0.4-0.1l0.1,0.1l-1.1,1.4L68.4,64
			c0.2-0.3,0.2-0.3,0.1-0.4l-3-2.4c-0.1-0.1-0.2-0.1-0.4,0.1L65,61.2L66.1,59.9z"/>
		<path class="st0" d="M64.3,62.1L64.3,62.1c0,0.2,0,0.3,0.1,0.4l1.4,3.8c0.1,0.2,0.1,0.2,0.1,0.3c0,0,0.1,0,0.2-0.1l0.1,0.1
			l-1.3,1.2l-0.1-0.1c0.1-0.1,0.1-0.2,0.1-0.3c0,0-0.1-0.1-0.3-0.2L61,65.6c-0.2-0.1-0.2-0.1-0.3,0l-0.1-0.1l1.1-1l0.1,0.1
			c-0.1,0.1-0.1,0.2-0.1,0.2c0,0,0.1,0.1,0.1,0.1l0.8,0.3L64,64l-0.3-0.7c0-0.1-0.1-0.1-0.1-0.1c-0.1-0.1-0.1-0.1-0.3,0L63.3,63
			L64.3,62.1z M63.2,65.5l1.8,0.9l0,0l-0.7-1.8L63.2,65.5z"/>
		<circle class="st0" cx="9.4" cy="48.2" r="0.7"/>
		<path class="st0" d="M22.5,67.9c-0.4,0-0.7,0.3-0.7,0.7c0,0.4,0.3,0.7,0.7,0.7c0.4,0,0.7-0.3,0.7-0.7
			C23.2,68.2,22.9,67.9,22.5,67.9z"/>
		<circle class="st0" cx="31.1" cy="73.5" r="0.7"/>
		<circle class="st0" cx="51.9" cy="73.2" r="0.7"/>
		<circle class="st0" cx="59.2" cy="68.9" r="0.7"/>
		<circle class="st1" cx="62.9" cy="15.7" r="0.7"/>
		<circle class="st0" cx="46.2" cy="8.3" r="0.7"/>
		<g>
			<path class="st0" d="M32.5,51.8c0.1,0,0.8,0,0.9,0c0.1,0,0.8,0.1,1.2,0.1c0.1,0,0.2,0.4,0.1,0.4c-1-0.1-0.7,0-1.6-0.1
				C32.1,52.1,32.5,51.8,32.5,51.8z"/>
			<path class="st0" d="M36.2,52c0.3,0,3.1,0.4,3.3,0.5c0,0,0.1,0.1,0.1,0.2c-0.2,0.3-0.7-0.2-2.7-0.3c-0.4-0.1-1,0-1-0.3
				C35.9,52.1,36.1,52,36.2,52z"/>
		</g>
		<g>
			<g>
				<path class="st0" d="M30.4,29.4c-0.1,0.1-0.1,0.5-0.2,0.6c0,0.1-0.4,0-0.4-0.1c0,0,0.1-0.7,0.2-0.9c-0.1,0,0.8,0.1,0.8,0
					c0-0.1-0.2-0.9-0.2-0.9c-0.1,0.1-0.2,0.9-0.2,0.9l-0.3,0c0,0,0.3-1.6,0.5-1.7c0.1,0,0.2-0.1,0.3,0c0.1,0.2,0.7,2.3,0.7,2.5
					c-0.1,0.1-0.5,0.2-0.5,0c0,0,0-0.4-0.2-0.6C30.9,29.4,30.5,29.3,30.4,29.4z"/>
			</g>
		</g>
		<g>
			<path class="st0" d="M32.5,35.5c-0.1,0.3-0.7,0.1-1.1,0.1c-1.1,0-2.2,0.1-2.2-0.1c-0.1-0.5,1.3-0.3,1.8-0.3
				C31.7,35.3,32.7,35.1,32.5,35.5z"/>
			<path class="st0" d="M34.1,35.5c-0.1,0.2-0.4,0.2-0.8,0.2c-0.1,0-0.2,0-0.2-0.1c0-0.3,0.4-0.3,0.9-0.3
				C34.1,35.3,34.2,35.4,34.1,35.5z"/>
			<path class="st0" d="M36.2,35.6c-0.1,0.1-1.2,0.2-1.3-0.1c-0.1-0.3,0.5-0.3,1-0.3C36.4,35.3,36.3,35.5,36.2,35.6z"/>
			<path class="st0" d="M40.1,36.4c-0.1,0.2-1.4-0.5-2-0.6c-0.4-0.1-0.8,0-1.1,0c-0.2,0-0.1-0.3,0.1-0.4
				C37.8,35.1,40.3,36.1,40.1,36.4z"/>
		</g>
		<g>
			<path class="st0" d="M31.8,37.5c-0.1,0.3-0.7,0.1-1.1,0.1c-1,0-1.5,0-1.5-0.3c0-0.3,0.6-0.1,1.1-0.1C31,37.3,32,37.1,31.8,37.5z"
				/>
			<path class="st0" d="M34.6,37.5c-0.1,0.3-0.7,0.1-1.1,0.1c-1,0-1.1,0-1.1-0.2c0-0.2,0.1-0.3,0.6-0.3
				C33.7,37.3,34.7,37.1,34.6,37.5z"/>
			<path class="st0" d="M36.4,37.6c-0.1,0.2-0.5,0.1-0.9,0.1c-0.1,0-0.2,0-0.3-0.1c0-0.3,0.4-0.3,1-0.3
				C36.4,37.3,36.5,37.5,36.4,37.6z"/>
			<path class="st0" d="M40.1,38.4c-0.1,0.3-0.7-0.3-1.2-0.4c-0.4-0.1-1.4-0.2-1.7-0.2c-0.2,0-0.2-0.3,0-0.3
				C38.4,37.3,40.2,38.1,40.1,38.4z"/>
		</g>
		<g>
			<path class="st0" d="M40.3,40.4c0,0.5-0.9-0.1-1.5-0.2c-0.5-0.1-1.2-0.1-1.9-0.1c-0.3,0-0.2-0.4,0-0.4
				C37.5,39.7,40.3,40.1,40.3,40.4z"/>
			<path class="st0" d="M36,39.9c-0.1,0.2-0.6,0.1-1,0.1c-0.1,0-0.2-0.1-0.3-0.2c0-0.3,0.2-0.3,0.8-0.3C36,39.5,36.1,39.8,36,39.9z"
				/>
			<path class="st0" d="M32.2,39.8c-0.1,0.2-0.8,0.1-1.2,0c-1-0.2-1.9,0.3-1.9-0.1c0-0.3,1-0.2,1.5-0.2
				C31.3,39.5,32.4,39.4,32.2,39.8z"/>
			<path class="st0" d="M34.1,39.8c-0.1,0.2-0.4,0.2-0.8,0.2c-0.1,0-0.2,0-0.3-0.1c0-0.3,0.4-0.3,0.9-0.3
				C34,39.6,34.1,39.7,34.1,39.8z"/>
		</g>
		<g>
			<path class="st0" d="M35.1,26.8c0,0.3-0.7,0.1-1.2,0.2c-1.1,0.1-1.1,0.2-1.1,0C32.9,26.5,35,26.4,35.1,26.8z"/>
			<path class="st0" d="M35.6,27c-0.1,0-0.1-0.1,0-0.3c0.4-0.3,1.1,0,1.2,0.1c0.1,0.2-0.1,0.3-0.2,0.3C36.5,27.1,35.8,27.1,35.6,27z
				"/>
			<path class="st0" d="M39.9,28c-0.1,0.1-0.9-0.4-1.3-0.6c-0.6-0.2-1.3-0.2-1.3-0.5C37.4,26.3,40.5,27.5,39.9,28z"/>
		</g>
		<g>
			<path class="st0" d="M34.8,31.3c-0.1,0.1-0.6,0-1.1,0c-0.5,0-0.8,0.1-0.9-0.2c0-0.3,0.5-0.2,1-0.2C34.4,31,35,30.9,34.8,31.3z"/>
			<path class="st0" d="M35.3,31.4c-0.2,0-0.2-0.2,0-0.3c0.5-0.1,1.1,0,1.3,0c0.2,0.1,0.1,0.3,0,0.3C35.5,31.4,35.6,31.4,35.3,31.4z
				"/>
			<path class="st0" d="M39.9,32.3c-0.1,0.1-0.6-0.2-1.1-0.3c-0.5-0.1-0.6-0.2-0.7-0.2c-0.2-0.1-0.1-0.3,0-0.4
				C38.2,31.4,40.4,31.9,39.9,32.3z"/>
			<path class="st0" d="M37.7,31.4c-0.1,0.4-0.4,0.2-0.5,0.2c-0.1,0-0.1-0.2-0.1-0.3C37.2,31.1,37.7,31.3,37.7,31.4z"/>
		</g>
		<g>
			<path class="st0" d="M33.5,29.2c0.1,0.3-0.4,0.3-0.6,0.3c-0.1,0-0.1-0.2-0.1-0.3C33,29.1,33.4,29.1,33.5,29.2z"/>
			<path class="st0" d="M34.4,29.4c-0.1,0-0.1-0.2,0-0.3c0.5-0.2,1.7-0.1,1.8,0c0.3,0.2,0.1,0.4,0,0.4
				C35.4,29.3,34.5,29.5,34.4,29.4z"/>
			<path class="st0" d="M38.9,29.9c-0.1,0.1-1-0.2-1.4-0.2c-0.5,0-0.7-0.1-0.8-0.2c0-0.3,0.7-0.3,1.3-0.1
				C38.7,29.4,39.2,29.6,38.9,29.9z"/>
			<path class="st0" d="M40,30.1c-0.1,0.4-0.4,0.2-0.5,0.1c-0.1,0-0.2-0.2-0.1-0.3C39.5,29.8,40.1,30,40,30.1z"/>
		</g>
		<g>
			<path class="st0" d="M29.4,33c0.6-0.1,1.1,0.6,0.2,0.5c-0.3,0-0.4-0.1-0.4-0.2C29.2,33.1,29.2,33,29.4,33z"/>
			<path class="st0" d="M34,33.3c-0.1,0.3-1.4,0.2-1.9,0.2c-1.1,0-1.4,0-1.6-0.2c0-0.3,0.6-0.3,1.1-0.3C32.2,33,34.2,32.8,34,33.3z"
				/>
			<path class="st0" d="M36.2,33.4c-0.1,0.1-0.2,0-0.6,0.1c-0.5,0-0.8,0-0.8-0.2c0-0.3,0.5-0.3,1-0.3C36.3,33.1,36.3,33.3,36.2,33.4
				z"/>
			<path class="st0" d="M38.9,33.9c-0.3,0.3-0.5-0.2-1-0.2c-0.4-0.1-0.9,0-1.2-0.1c-0.2-0.1-0.1-0.4,0.1-0.4
				C38,33.1,39.2,33.6,38.9,33.9z"/>
			<path class="st0" d="M39.9,34.3c0,0.3-0.3,0.3-0.5,0.1c-0.1,0-0.2-0.2-0.1-0.3C39.4,34,39.8,34.1,39.9,34.3z"/>
		</g>
		<g>
			<path class="st0" d="M39.8,42.5c-0.1,0.3-1.1-0.2-1.8-0.2c-0.5,0-0.7,0-0.8,0c-0.2,0-0.2-0.4,0-0.4C38,41.8,40,42.1,39.8,42.5z"
				/>
			<path class="st0" d="M35.2,42c-0.1,0.2-0.4,0.1-0.8,0.1c-0.1,0-0.7,0.2-0.9,0c-0.1-0.3,0.7-0.4,1-0.3
				C35.1,41.7,35.3,41.9,35.2,42z"/>
			<path class="st0" d="M32.4,42c-0.1,0.2-1.6,0-2,0c-0.8,0-1.3,0.3-1.3-0.2c0.1-0.3,1.5-0.1,1.7-0.1C31.7,41.7,32.6,41.7,32.4,42z"
				/>
			<path class="st0" d="M36.6,41.9c0.1,0.3-0.4,0.4-0.6,0.3c-0.1,0-0.1-0.2-0.1-0.3C36.1,41.7,36.5,41.8,36.6,41.9z"/>
		</g>
		<g>
			<path class="st0" d="M44.8,26.9c0.6,0,0.7,0.1,0.6,0.4c-0.1,0.1-0.8,0.1-1,0.1c-0.7,0-1.1,0.5-1.3,0.4c-0.3-0.1-0.1-0.3,0.2-0.5
				C43.6,27.1,44.1,26.9,44.8,26.9z"/>
			<path class="st0" d="M46.4,26.8c0,0,0.9,0,1,0.1c0.2,0.1,0.2,0.3,0.1,0.4c-0.1,0.1-1.2-0.1-1.3-0.1c-0.1,0-0.1-0.1-0.1-0.2
				C46.1,26.9,46.1,26.8,46.4,26.8z"/>
			<path class="st0" d="M54,27c0.3,0,0.3,0.5,0.1,0.5c-0.9,0.1-1.1,0.1-1.1,0C52.8,26.9,54,27,54,27z"/>
			<path class="st0" d="M50.8,27.2c0,0,1,0,1.3,0.1c0.1,0,0.2,0.2,0.1,0.4c-0.1,0.1-1.4,0.2-1.5-0.3C50.6,27.3,50.6,27.2,50.8,27.2z
				"/>
			<path class="st0" d="M48.5,27.1c0,0,0.9,0.1,1.1,0.1c0.1,0,0.3,0.2,0.2,0.3c-0.1,0.1-1.4,0.2-1.5-0.3
				C48.4,27.2,48.3,27.1,48.5,27.1z"/>
		</g>
		<g>
			<path class="st0" d="M46.2,29.3c0.1-0.3,0.9-0.2,1.1-0.1c0,0,0,0.1-0.1,0.2C46.8,29.6,46.2,29.4,46.2,29.3z"/>
			<path class="st0" d="M48.4,29.4c0.2-0.2,1.2,0,0.9,0.4c-0.1,0-0.7,0.2-1,0C48.3,29.7,48.2,29.6,48.4,29.4z"/>
			<path class="st0" d="M51.6,29.5c0.3,0.4-0.8,0.4-0.9,0.4c-0.1,0-0.4-0.1-0.4-0.2C50.2,29.3,51.4,29.2,51.6,29.5z"/>
			<path class="st0" d="M54.1,29.3c0.2,0.5-0.8,0.5-0.9,0.5c-0.1,0-0.4,0-0.5-0.2C52.7,29.3,54,29,54.1,29.3z"/>
			<path class="st0" d="M44.8,28.8c0.2,0,0.7,0,0.8,0.3c-0.2,0.3-1.2,0.3-1.4,0.3c-0.9,0.1-1.1,0.5-1.3,0.4
				c-0.3-0.1-0.1-0.3,0.2-0.5C43.4,29.2,44.2,28.9,44.8,28.8z"/>
		</g>
		<g>
			<path class="st0" d="M49.1,31.4c0,0.2-0.1,0.3-0.1,0.3c-0.1,0.1-1,0.1-1.1-0.2c0-0.1,0-0.3,0.3-0.2C48.4,31.3,49,31,49.1,31.4z"
				/>
			<path class="st0" d="M50,31.3c0.1,0,1.6,0,1.2,0.4c-0.1,0.1-0.2,0.1-0.3,0.1c-0.4,0-1-0.1-1.1-0.1c-0.1-0.1-0.1-0.2,0-0.3
				C49.8,31.3,49.9,31.3,50,31.3z"/>
			<path class="st0" d="M52.1,31.3c1.1,0.2,1.9-0.1,2.1,0.1c0.1,0.3,0,0.3,0,0.3c-0.2,0.1-2.3,0.2-2.4-0.2
				C51.7,31.4,52,31.3,52.1,31.3z"/>
			<path class="st0" d="M47.1,31.2c0.2,0.4-0.6,0.3-0.6,0.3c-0.1,0-0.3-0.1-0.3-0.2C46.1,31,46.9,30.9,47.1,31.2z"/>
			<path class="st0" d="M44.5,30.9c0.2,0,0.6-0.1,0.7,0.2c-0.2,0.4-0.7,0.2-1.4,0.3c-0.9,0.1-0.9,0.4-1.1,0.2
				c-0.2-0.2,0-0.3,0.3-0.5C43.4,31.1,43.9,31,44.5,30.9z"/>
		</g>
		<g>
			<path class="st0" d="M45.7,33.2c0.1,0,0.4,0,0.5,0.2c0.1,0.1,0.1,0.2,0,0.3c-1.1,0.1-1-0.1-1-0.1C45.2,33.2,45.6,33.1,45.7,33.2z
				"/>
			<path class="st0" d="M54.1,33.4c0.5,0.2-0.3,0.5-0.9,0.4c-0.1,0-0.1-0.1-0.2-0.1C53,33.3,53.9,33.3,54.1,33.4z"/>
			<path class="st0" d="M48,33.2c0.3,0.1,0.3,0.4,0,0.5c-0.1,0-1.1,0.2-1.1-0.1C46.9,33,47.9,33.2,48,33.2z"/>
			<path class="st0" d="M52.7,33.5c0.1,0.3-0.2,0.3-0.5,0.3c-0.4,0-1.5,0.1-1.4-0.2c0-0.2,0.5-0.1,0.6-0.2
				C51.7,33.3,52.6,33.3,52.7,33.5z"/>
			<path class="st0" d="M50,33.7c-0.1,0.2-1.2,0.1-1-0.2C49,33.3,50.1,33.2,50,33.7z"/>
			<path class="st0" d="M43.9,33c0.2,0,0.7,0,0.8,0.3c-0.3,0.3-0.7,0.1-1.4,0.2c-0.6,0.1-0.8,0.3-0.8-0.1C42.6,33.2,43.3,33,43.9,33
				z"/>
		</g>
		<g>
			<path class="st0" d="M45.5,35.3c0,0,0.9-0.1,1.1,0c0.1,0,0.2,0.2,0.1,0.4c-0.1,0.1-1.4,0.2-1.4-0.2
				C45.4,35.5,45.3,35.4,45.5,35.3z"/>
			<path class="st0" d="M47.7,35.5c0.3-0.1,1.3,0.2,0.9,0.5c-0.1,0.1-0.8,0-1-0.2C47.5,35.8,47.4,35.6,47.7,35.5z"/>
			<path class="st0" d="M49.6,35.5c0.2-0.1,1.1,0.1,0.7,0.4c-0.1,0.1-0.6,0.1-0.8,0C49.5,35.9,49.4,35.6,49.6,35.5z"/>
			<path class="st0" d="M52.1,35.7c-0.3,0-0.7,0.1-0.8,0.3c0,0.2,0.2,0.2,0.9,0.1c0.3,0,1.3,0.1,1.5,0.1c0.2-0.1,0.3-0.3,0.2-0.3
				C53.4,35.9,52.9,35.6,52.1,35.7z"/>
			<path class="st0" d="M44,35.3c0.2,0,0.7-0.1,0.7,0.3c-0.2,0.3-0.6,0.2-1.3,0.4c-0.6,0.1-0.8,0.2-0.8-0.1
				C42.6,35.6,43.4,35.3,44,35.3z"/>
		</g>
		<g>
			<g>
				<path class="st0" d="M45.8,37.9c0,0,0.5,0,0.5,0c0.3,0,0.2,0.3,0.1,0.4c0,0.1-0.4,0.1-0.7,0.1c-0.1,0-0.4-0.1-0.4-0.3
					C45.3,37.9,45.6,37.9,45.8,37.9z"/>
			</g>
			<g>
				<path class="st0" d="M47.5,37.9c0.1,0,1.5,0,1.1,0.4c-0.1,0.1-0.2,0.1-0.3,0.1c-0.4,0-1,0-1.1-0.1c-0.1,0-0.1-0.1,0-0.2
					C47.3,38,47.4,37.9,47.5,37.9z"/>
			</g>
			<path class="st0" d="M49.6,38c0.3-0.1,1.1,0.3,0.8,0.5c-0.1,0-0.7,0-0.9-0.2C49.4,38.3,49.4,38.1,49.6,38z"/>
			<path class="st0" d="M51.6,38.2c0.1,0,1.6,0,1.2,0.4c-0.1,0.1-0.2,0.2-0.3,0.1c-0.4,0-1-0.1-1.1-0.1c-0.1-0.1-0.1-0.2,0-0.3
				C51.3,38.2,51.4,38.2,51.6,38.2z"/>
			<path class="st0" d="M43.9,37.8c0.3,0,0.8-0.1,0.8,0.2c-0.2,0.3-0.5,0.2-1.2,0.3c-0.6,0.1-0.8,0.2-0.8-0.1
				C42.8,38,43.3,37.8,43.9,37.8z"/>
			<path class="st0" d="M53.5,38.3c0.2-0.1,1.1,0.1,0.7,0.4c-0.1,0.1-0.6,0.1-0.8,0C53.4,38.6,53.2,38.4,53.5,38.3z"/>
		</g>
		<g>
			<g>
				<path class="st0" d="M48.4,40.3c0.1,0,1.5,0,1.1,0.4c-0.1,0.1-0.2,0.1-0.3,0.1c-0.4,0-1,0-1.1-0.1c-0.1,0-0.1-0.1,0-0.2
					C48.2,40.4,48.3,40.3,48.4,40.3z"/>
			</g>
			<g>
				<path class="st0" d="M50.7,40.5c0.4-0.1,1.2,0.1,1.1,0.4c0,0.3-0.3,0-0.5,0.1c-0.3,0-1.3,0.1-1.1-0.3
					C50.2,40.6,50.6,40.6,50.7,40.5z"/>
			</g>
			<path class="st0" d="M52.4,41c0,0.3,1.1,0.6,1.1,0.2C53.4,41,52.5,40.5,52.4,41z"/>
			<g>
				<path class="st0" d="M47.3,40.3c0,0-0.7-0.2-1.1-0.1c-0.1,0-0.2,0.2-0.1,0.3c0.1,0.1,1.3,0.3,1.3-0.1
					C47.3,40.5,47.4,40.3,47.3,40.3z"/>
			</g>
			<path class="st0" d="M44.4,40.1c0.2,0,1.2,0,1.2,0.4c-0.1,0.3-0.9,0-1.9,0.1c-0.6,0.1-0.8,0.2-0.8-0.1
				C43,40.3,43.8,40.1,44.4,40.1z"/>
		</g>
		<g>
			<path class="st0" d="M46.7,42.4c0.3-0.1,1.4,0.1,1,0.5c-0.1,0.1-0.9,0-1.1-0.1C46.5,42.7,46.4,42.5,46.7,42.4z"/>
			<g>
				<path class="st0" d="M48.9,42.7c0.2-0.1,1.1,0.1,0.7,0.4c-0.1,0.1-0.7,0-0.9-0.2C48.7,42.9,48.6,42.7,48.9,42.7z"/>
			</g>
			<g>
				<path class="st0" d="M51.6,43.1c0.2,0.4-0.7,0.3-0.8,0.3c-0.1,0-0.3-0.1-0.3-0.2C50.5,42.8,51.4,42.8,51.6,43.1z"/>
			</g>
			<path class="st0" d="M52.2,43.4c0,0.3,0.6,0.4,0.6,0C52.8,43.3,52.3,42.8,52.2,43.4z"/>
			<path class="st0" d="M43.1,42.5c0.1,0,2.6-0.4,2.5,0.1c0,0.1,0.1,0.2-1.3,0.2c-0.3,0-1.3,0.2-1.4,0.1
				C42.8,42.9,42.7,42.7,43.1,42.5z"/>
		</g>
		<g>
			<path class="st0" d="M45.9,46.6c0,0,0.9-0.1,1.1,0.1c0.1,0.1,0.2,0.2,0.1,0.4c-0.1,0.1-1.4,0.1-1.4-0.3
				C45.8,46.8,45.7,46.6,45.9,46.6z"/>
			<g>
				<path class="st0" d="M48.4,46.9c0.1,0,1.5,0.1,1.1,0.4c-0.1,0.1-0.2,0.1-0.3,0.1c-0.4,0-1-0.1-1-0.2c-0.1,0,0-0.1,0-0.2
					C48.2,46.9,48.3,46.9,48.4,46.9z"/>
			</g>
			<path class="st0" d="M50.9,47.6c-0.4-0.1-1-0.2-0.9-0.5c0.1-0.2,0.5,0,0.6,0C51.5,47.1,51.6,47.7,50.9,47.6z"/>
			<path class="st0" d="M52.9,47.8c-0.4,0-1-0.1-0.9-0.4c0.1-0.2,0.4,0,0.5-0.1C53.5,47,53.6,47.8,52.9,47.8z"/>
			<path class="st0" d="M44.8,46.7c0.1,0.3-0.3,0.2-1,0.2c-0.6,0-1.1,0.5-1.3,0.2c-0.1-0.1,0.1-0.3,0.4-0.4
				C43.3,46.5,44.8,46.4,44.8,46.7z"/>
		</g>
		<g>
			<g>
				<path class="st0" d="M46.3,44.4c0.1,0,1.1,0,0.8,0.4c0,0.1-0.1,0.1-0.2,0.1c-0.3,0-0.7,0-0.8-0.1c0,0,0-0.1,0-0.2
					C46.2,44.5,46.3,44.5,46.3,44.4z"/>
			</g>
			<path class="st0" d="M48,44.6c0.3-0.1,1.7,0.1,1.3,0.6c-0.1,0-1.2-0.1-1.4-0.3C47.8,44.9,47.7,44.7,48,44.6z"/>
			<path class="st0" d="M51.1,45c0.2,0,1.3,0.2,1.3,0.5c0,0.1-0.4,0.1-0.6,0c-0.6-0.1-0.9-0.2-1.4-0.2c-0.2,0-0.2-0.2-0.1-0.3
				C50.4,44.9,51,45,51.1,45z"/>
			<path class="st0" d="M45.3,44.7c0,0.4-0.5,0.2-1.2,0.2c-0.6,0-1.1,0.5-1.3,0.1c-0.1-0.1,0.1-0.3,0.4-0.4
				C43.6,44.4,45.2,44.4,45.3,44.7z"/>
		</g>
		<g>
			<path class="st0" d="M52.1,49c0.1,0,1.6,0.1,1.2,0.5c-0.1,0.1-0.2,0.1-0.3,0.1c-0.4,0-1-0.1-1.1-0.2c-0.1-0.1,0-0.2,0-0.3
				C51.9,49.1,52,49.1,52.1,49z"/>
			<path class="st0" d="M51.1,49.3c-0.1,0.2-1.2,0.1-1-0.3C50.1,48.9,51.2,48.8,51.1,49.3z"/>
			<g>
				<path class="st0" d="M48.3,48.7c0.1,0,1.5,0.1,1.1,0.4c-0.1,0-0.2,0.1-0.3,0.1c-0.4,0-1-0.1-1-0.2c-0.1,0,0-0.1,0-0.2
					C48.1,48.7,48.2,48.7,48.3,48.7z"/>
			</g>
			<path class="st0" d="M47,48.6c0.2,0.4-0.6,0.3-0.7,0.3c-0.1,0-0.3-0.1-0.3-0.2C46,48.3,46.8,48.3,47,48.6z"/>
			<path class="st0" d="M44.1,48.4c0.2,0,0.7-0.2,0.7,0.2c-0.2,0.3-0.6,0.2-1.3,0.4c-0.6,0.1-0.8,0.2-0.8-0.1
				C42.7,48.7,43.5,48.4,44.1,48.4z"/>
		</g>
		<path class="st0" d="M43,50.7c0,0,0.8-0.2,1.1-0.1c0.1,0,0.2,0.1,0.1,0.3c-0.3,0-1.1,0.1-1.3,0.2C43,51,42.9,50.7,43,50.7z"/>
		<g>
			<path class="st0" d="M33.9,43.9c0.4-0.1,1.3,0.4,0.3,0.5c-0.1,0-0.6,0-0.7,0C33.1,44,33.8,44,33.9,43.9z"/>
			<path class="st0" d="M32.7,44.2c0,0.2-1.1,0.2-1.9,0.2c-1-0.1-1.6,0-1.6-0.3c0.1-0.4,1-0.1,1.5-0.1C31.4,44,32.8,43.7,32.7,44.2z
				"/>
			<path class="st0" d="M38.6,44.5c-0.1,0.4-1.5-0.1-2.2-0.1c-0.5,0-0.9,0-1,0c-0.2,0-0.2-0.4,0-0.4C35.9,43.9,38.6,44.3,38.6,44.5z
				"/>
			<path class="st0" d="M39.9,45.3c-0.1,0.2-0.3,0-0.7-0.1c-0.1,0-0.3-0.1-0.2-0.3c0.2-0.2,0.5,0,0.6,0C39.9,45.1,40,45.2,39.9,45.3
				z"/>
		</g>
		<g>
			<path class="st0" d="M37.3,48.8c0,0.3-1.6-0.2-2.2-0.2c-0.5,0-1.3,0-1.3,0c-0.2,0-0.3-0.4,0-0.4C34.4,48.1,37.3,48.3,37.3,48.8z"
				/>
			<path class="st0" d="M32.8,48.4c0,0.2-1,0.1-1.9,0.1c-1.6,0-1.7-0.1-1.6-0.3c0.1-0.4,1-0.2,1.5-0.3C31.5,48,32.8,48,32.8,48.4z"
				/>
			<path class="st0" d="M40,49.6c-0.1,0.2-0.7-0.2-1.1-0.2c-0.1,0-0.6-0.1-0.6-0.3c0-0.3,0.4-0.3,0.9-0.1
				C39.7,49.1,40.1,49.4,40,49.6z"/>
		</g>
		<g>
			<path class="st0" d="M38.5,46.8c-0.1,0.5-0.7-0.1-2.2-0.1c-0.5,0-0.9,0-1,0c-0.2,0-0.2-0.4,0-0.4C36.1,46.1,38.6,46.4,38.5,46.8z
				"/>
			<path class="st0" d="M34,46c0.4-0.1,1.3,0.4,0.3,0.5c-0.1,0-0.6,0-0.7,0C33.2,46.1,33.9,46.1,34,46z"/>
			<path class="st0" d="M32.7,46.2c0,0.4-1.7,0.1-2.1,0.1c-1-0.1-1.4,0.1-1.4-0.3c0.1-0.4,1-0.1,1.5-0.1
				C31.4,45.9,32.7,45.7,32.7,46.2z"/>
			<path class="st0" d="M39.5,47c0.4,0.1,1,1,0,0.5c-0.1,0-0.6-0.3-0.6-0.4C38.8,46.8,39.4,47,39.5,47z"/>
		</g>
		<g>
			<path class="st0" d="M39.8,54.6c0.1,0,0.3,0,0.1,0.3c-0.1,0.2-2.8-0.3-3-0.3c-0.3,0-0.3-0.1-0.2-0.3c0.1-0.2,0.3-0.1,0.3-0.1
				C37.1,54.1,39.7,54.5,39.8,54.6z"/>
			<path class="st0" d="M35.8,54.3c-0.1,0.1-1.3,0.2-1.2-0.1c0-0.3,0.3-0.2,0.8-0.2C35.9,54,35.9,54.1,35.8,54.3z"/>
		</g>
		<path class="st0" d="M44.3,54.2c0.2,0,0.4-0.2,0.4,0.2c-0.1,0.2-0.4,0.1-1.1,0.3c-0.6,0.1-0.8,0.3-0.7-0.1
			C42.9,54.5,43.7,54.3,44.3,54.2z"/>
		<path class="st0" d="M44.3,52.3c0.2,0,0.5-0.1,0.5,0.3c-0.1,0.2-0.5,0.1-1.2,0.2c-0.6,0.1-0.7,0.3-0.7,0
			C42.9,52.5,43.7,52.3,44.3,52.3z"/>
		<g>
			<g>
				<path class="st0" d="M29.3,27.1c0,0,0,0.2,0,0.5c0,0.3,0,0.7,0,1.1l0,1.9c0,0,0,0,0.1,0c0-0.1-0.1-1.9-0.1-1.9
					c0-0.4,0-0.8,0-1.1C29.3,27.3,29.3,27.1,29.3,27.1L29.3,27.1c0.6-0.1,2.2-0.3,2.5-0.1C32,27,32,27.5,32,28.2
					c0,1-0.1,2.2-0.1,2.3c0,0.1-0.6,0.2-1.2,0.2c0.6,0,1.1-0.1,1.2-0.2c0-0.1,0.1-1.3,0.1-2.3c0-0.6,0-1.2-0.2-1.2
					C31.5,26.8,29.9,27,29.3,27.1z M29.3,27.1L29.3,27.1L29.3,27.1z M29.4,30.6c0.2,0,0.8,0,1.3,0C30.2,30.7,29.6,30.7,29.4,30.6
					C29.4,30.6,29.4,30.6,29.4,30.6z"/>
			</g>
			<g>
				<path class="st0" d="M29.3,26.9c-0.2,0-0.2,0.1-0.2,1.7l0,0l0,1l0,1c0,0.3,0.4,0.3,0.8,0.2l0.5,0c0,0,0.6,0,0.6,0
					c1,0,1.2,0,1.3-0.2l0-0.6l-0.1-1.3c0-1.8-0.1-1.9-0.3-1.9C31.5,26.5,29.7,26.8,29.3,26.9z M31.8,27.2
					C31.8,27.2,31.8,27.2,31.8,27.2c0,0.1,0,0.4,0,1c0,0.2,0,0.3,0,0.5l0.1,1.3c0,0,0,0.2,0,0.3c-0.2,0-0.9,0-0.9,0l-0.6,0l-0.6,0.1
					c0,0-0.3,0-0.4,0c0,0,0-0.5,0-0.7c0-0.1,0-1.2,0-1.2l0,0c0,0,0-1.1,0-1.3C30.2,27.2,31.5,27,31.8,27.2z"/>
			</g>
		</g>
		<path class="st0" d="M79.4,39.2c-0.3-2-0.4-3.8-0.4-5.2c0-1.4-0.1-2.5-0.4-3.1l0,0l-3-7.5l0,0c-0.6-2.2-5.9-8.4-6.2-8.7
			c-0.6-1-4.2-3.7-5.2-4.2c0,0-4-2.7-4-2.7c-1.6-1.2-4.2-2.2-6.4-2.9l-2.5-0.9c-3.2-1.1-8.1-1.2-8.8-1.2c-0.3,0-1.5,0-1.8,0
			c-0.7,0-5.6,0.1-8.6,1.2l-1.9,0.7c-2.4,0.7-4.5,1.3-6.2,2.5c0,0-4.4,3.1-4.6,3.2c-1,0.5-5.7,3.9-6.2,4.8l0,0c-0.2,0.3-5,6-5.7,8.2
			l0,0L4.6,31l0,0c-0.3,0.6-0.3,1.9-0.3,3.3c0,1.4-0.2,2.9-0.5,4.9c-0.3,1.6-0.1,3,0.1,4.8c0.2,1.7,0.3,3.8,0.6,5.3
			c0.3,1.3,0.6,2.4,0.7,3.2c0.4,2.1,1.5,4.7,2,5.5c0.4,0.5,1.1,1.6,1.1,1.6c0.6,0.9,1.4,1.9,1.8,2.6c0.5,0.7,0.6,1.2,1,1.8
			c0.5,0.9,1,1.7,1.5,2.4c0.5,0.7,1.1,1.4,1.8,2c0.2,0.2,1.8,1.3,2.6,1.8c0.9,0.6,1.3,0.8,1.4,1l0.6,0.6c1.6,1.6,2.8,2.9,3.9,3.5
			c0.4,0.2,1.4,0.5,1.8,0.5c0.3,0,0.6-0.1,0.9-0.2c0.4-0.2,0.7-0.7,0.9-1.4c0-0.1,0.2-0.6,0.5-1.1c0.3,0.1,0.8,0.5,1.1,0.8l-0.2,0.8
			c-0.2,0.6-0.1,1.3,0.4,1.8c1.7,2.2,8.2,3.1,13.8,2.9c5.8,0.2,13-1.5,14-3.7c0.2-0.4,0.1-0.9-0.2-1.2c-0.1-0.1-0.2-0.2-0.3-0.3
			c0-0.1,0.1-0.1,0.2-0.2c0.3-0.1,0.6,0,0.7,0c0,0,0,0,0,0c0.2,0.4,0.5,0.9,0.8,1.4c0.1,0.2,0.3,0.3,0.5,0.4
			c1.7,0.3,7.1-4.5,7.1-4.5c0.2-0.2,1.2-1,2.1-1.7c0.8-0.5,1.5-1,1.7-1.1c1.5-1.2,2.6-2.6,3.6-4.3c0.7-1.3,1.5-2.7,2.8-4.4l0.1-0.1
			c1.2-1.6,2.7-4.7,3-6.9c0.1-0.8,0.3-1.9,0.6-3.2C79.2,46.2,80,42.4,79.4,39.2z M28.2,73.1c-0.3-0.2-0.6-0.5-1.1-0.6
			c1.2-2.7,1.7-4,1.8-4.6c0,0,0-0.1,0-0.1c0,0,0-0.1,0-0.1v0c0-0.1,0-0.1,0-0.1L28.7,67c-0.1-0.2-0.5-0.7-0.5-1.1
			c0-0.6,0.2-0.5,0.4-0.4c0.2,0,1.3,0.3,2.1,0.6c0.6,0.3,1,0.8,1.2,1.1c0.1,0.1,0.1,0.3-0.1,0.5c-0.2,0.1-0.2,0.2-0.6,0.3
			c-0.3,0.1-0.9,0.6-1,0.7c-0.7,0.3-1.1,1.4-1.8,3.4c0,0,0,0.1,0,0.1c-0.1,0.2-0.1,0.4-0.2,0.7C28.2,72.9,28.2,73,28.2,73.1z
			 M27.6,66.5c-0.4-0.2-0.8-0.4-1.3-0.8c-0.8-0.6-2.7-2.1-3.5-2.6c-0.6-0.3-0.6-0.7-1.3-1.4c-0.6-0.6-1.2-1.3-1.7-1.7
			c-0.7-0.5-1.9-2.4-2.4-3.1c-1.4-2.3-3.7-6.8-4.2-11.2c-0.1-0.6-0.1-2-0.1-3.3c0-1.1,0-2.1-0.1-2.5c0.1-0.9,0.3-3.3,0.5-4
			c0.2-0.5,0.3-1.4,0.5-2.2c0.2-0.7,0.3-1.7,0.5-2c0,0,0.6-1.9,1.1-2.6c0,0,2-3.8,2-3.8c0,0,1.1-2.2,1.8-3l0.8-0.8
			c0.8-0.9,1.7-1.8,2.5-2.5c1.3-1,3.3-2.4,5.2-3.2l2.5-1.2c0.9-0.4,1.3-0.7,2.1-0.9c0,0,5-1.6,8.3-1.8c-0.3,0.7-0.5,1.4-0.6,1.7
			c0,0-0.8,0.2-1.8,0.2c-0.6,0-2.3,0.3-2.3,0.3c1.2,1.8,2.2,2.9,2.7,3.4c0,0-0.6,3.5-0.6,3.9c0.1,0,1.9-1,2.5-1.3
			c0.6-0.3,1.3-0.6,1.4-0.5c0,0,1.7,0.7,2.1,1c0.9,0.6,1.6,0.9,1.8,1v0c0,0-0.9-3.7-0.9-3.9c0,0,0.5-0.5,0.8-0.8
			c0.5-0.6,1-1,1.3-1.4c0.3-0.4,0.9-1.1,1-1.1c0,0-4-0.5-4.2-0.6c0,0-0.4-0.9-0.7-1.6c0.8,0.1,1.3,0.1,2.2,0.3l0,0
			c2.4,0.4,5.1,1.4,6.2,1.8c0,0,1,0.4,1.1,0.4c0,0,1.7,0.7,1.7,0.7c1.1,0.6,2.1,1.2,2.5,1.5c0,0,0.6,0.4,0.6,0.4
			c1.2,0.9,3.9,2.6,4.3,3.3l0.7,0.9c0.4,0.5,0.6,1.2,0.8,1.7c0.4,0.9,1.3,2,2.1,3c0.6,0.7,1.1,1.4,1.5,2c0,0,1.1,1.5,1.3,2.9
			c0.3,1.8,0.7,4.5,1,5.3c1.3,4.3,0.9,6.6,0.4,8.8c-0.2,0.7-0.5,1.7-0.6,2.3C69,48,68.8,49,68.3,50c-0.2,0.4-0.6,1.3-0.7,1.8
			c-0.3,0.8-0.5,1.6-1,2.3c-0.2,0.2-0.5,0.8-1,1.5c-1.1,1.8-2.8,4.4-4.2,6.2c-0.5,0.6-1.7,1.6-2.7,2.4c-0.6,0.5-1.2,0.9-1.4,1.2
			c-0.4,0.4-1.2,1-1.9,1.5c0-0.1,0-0.1,0-0.2c0-0.1,0-0.2,0-0.3c-0.1-0.2-0.3-0.5-0.7-0.7c-0.5-0.1-1.1,0.1-1.8,0.4
			c-0.5,0.2-1.1,0.5-1.9,1.2c-0.3,0.3-0.8,0.8-0.6,1.1c0.1,0.3,0.4,0.5,0.7,0.7c-1.7,0.5-3.4,1-4,1.1c-0.4,0.1-1.8,0.5-2.7,0.6
			c-1,0.2-2,0.3-2.5,0.4c-2.1,0-5.1-0.7-5.7-1l0,0l0,0c-1.4-0.5-3.4-1.2-4.6-1.6c0,0,0.1,0,0.1,0c0.5-0.2,0.8-0.5,0.9-0.9
			c0.1-0.2,0-0.6-0.3-1c-0.4-0.4-1-0.9-1.5-1.2c-0.2-0.1-1.5-0.6-2-0.6c-0.4,0-0.7,0-0.8,0.1l0,0c-0.2,0.1-0.3,0.4-0.3,0.6
			C27.4,65.9,27.5,66.2,27.6,66.5z M41.8,15.6c-0.4-0.3-1.4-2-1.4-2c0.1-0.2,1.4-3.1,1.4-3.1c0.1,0.5,0.1,1.5,0.1,2.5
			C41.8,14.1,41.7,15.2,41.8,15.6z M36.8,14.5c0.4,0.1,1.7,0.5,1.7,0.5c0.9,0.4,1.8,0.7,2.8,1c-0.1,0.3-0.5,0.9-0.5,0.9
			s-2.2,3.3-2.3,3.6c0,0,0.6-3.4,0.6-3.5C39.1,16.8,37.7,15.6,36.8,14.5z M45.8,15.5c0,0.1-0.8,1.1-0.8,1.1c-0.2,0-2.6-0.5-2.8-0.7
			c0,0,1-1.8,1.4-2l3.5,0.4c-0.3,0.1-1.3,0.4-2.2,0.7c-1,0.4-2,0.8-2,0.8S45.5,15.6,45.8,15.5z M45,20.5c-0.3-0.1-2.6-1.4-2.6-1.4
			c-0.1-0.1-0.4-2.6-0.4-3.1L45,20.5z M55.2,75.3c-0.6,1.4-6.6,3.7-12.6,3.5C36.2,79,30.1,78,28.7,76.3c-0.2-0.3-0.3-0.9-0.3-1.2
			c0-0.1,0-0.2,0.1-0.4l0.3-1l0,0l0-0.1l0,0c0.6-2,1.2-4.2,1.7-4.3c0.5,0,0.5-0.3,2.9,0.6c0.9,0.5,5.6,1.8,6.6,1.9
			c0.7,0.1,3.4,0,4.4-0.2c0.9-0.2,1.6-0.4,1.9-0.4c0.8-0.1,5.3-1.4,6.1-1.7c0,0,0,0,0,0c0,0,0,0,0.1,0h0c0.2,0.2,0.3,0.7,0.5,1.2
			c0,0.1,0.1,0.3,0.1,0.4c0.1,0.3,0.2,0.6,0.3,0.9c0,0.1,0.1,0.2,0.1,0.2c0.1,0.2,0.2,0.5,0.3,0.7c0,0.1,0.1,0.2,0.2,0.3
			c0.1,0.2,0.2,0.4,0.3,0.6c0.1,0.1,0.1,0.2,0.2,0.3c0,0.1,0.1,0.2,0.1,0.2l0.6,0.8C55.2,75.2,55.2,75.3,55.2,75.3z M55.3,73.3
			L55.3,73.3c-0.1,0.1-0.3,0.1-0.3,0.2c-0.2-0.4-0.4-0.8-0.6-1.3c0-0.1,0-0.1-0.1-0.2c-0.1-0.2-0.1-0.4-0.2-0.5
			c0-0.1-0.1-0.3-0.1-0.4c0-0.1-0.1-0.2-0.1-0.3c-0.3-1.1-0.6-1.9-1.1-2.1c0,0,0,0,0,0c-0.1,0-0.1,0-0.2,0c0,0-0.1,0-0.1,0l0,0
			c-0.7,0-1.4-0.3-1.5-0.5c0,0,0-0.3,0.1-0.4c0.7-0.6,1-1,1.5-1.2c0.3-0.1,1.1-0.5,1.9-0.3c0.2,0,0.2,0.3,0.2,0.3c0,0,0,0.1,0,0.1
			c0,0.3-0.3,0.8-0.5,1.1c-0.4,0.3-0.6,0.7-0.6,1.1c0,0.6,0.5,1.3,1.1,2.4c0.3,0.5,0.7,1.2,1.2,1.9C55.7,73.2,55.5,73.2,55.3,73.3z
			 M77.8,49.1c-0.3,1.3-0.5,2.4-0.6,3.3c-0.3,3.1-1.4,4.6-2.8,6.5l-0.1,0.1c-1.3,1.7-2.1,3.2-2.8,4.5c-1,1.7-1.7,3-3.1,4.1
			c-0.2,0.1-0.9,0.6-1.6,1.1c-1.4,0.9-2.3,1.5-2.5,1.7c-1.4,1.3-5.8,4.6-6.5,4.3c-1-1.9-1.8-3.2-2.4-4.1c-0.7-1.1-1-1.6-1-2
			c0-0.2,0.1-0.4,0.3-0.5c0.2-0.1,2-1.5,2.8-2.3c0.2-0.2,1.2-0.8,1.8-1.3c1.1-0.9,2.9-2.9,3.4-3.5c1.5-1.8,2.3-3.2,3.4-5
			c0.4-0.7,1.2-1.9,1.3-2.1c0.5-0.7,0.7-1.3,1-2.1c0.1-0.5,0.5-1,0.6-1.4c0.5-1.1,0.7-2.4,0.8-3.2c0.1-0.6,0-0.9,0.2-1.6
			c0.3-1.2,0.7-3,0.7-4.8c0-1.4-0.2-2.6-0.8-4.6c-0.2-0.8-0.7-3.5-1-5.3c-0.2-1.5-1.3-3.5-1.3-3.6c-0.4-0.6-1.1-1.3-1.7-2
			c-0.8-1-1.5-2.1-1.9-2.9c-0.2-0.6-0.7-1.2-1.2-1.8L62.2,20c-0.5-0.8-2.3-2.1-4.2-3.4l-0.6-0.4c-0.5-0.4-1.6-1-2.9-1.7L53,13.7l0,0
			l-1.1-0.4c-1.2-0.4-4.1-1.4-5.2-1.6l0,0c-1.2-0.2-2.2-0.4-3.7-0.5c-0.1-0.2-0.1-0.4-0.2-0.5c-0.1-0.3-0.5-1.1-0.7-1.5
			c-0.3,0.2-0.7,1.1-1.1,2c-3.4,0.2-8,1.5-8.3,1.6c-0.8,0.2-1.3,0.5-2.2,1l-3.6,1.8c-2.4,1.1-3.6,2.2-4.2,2.7
			c-0.9,0.7-1.5,1.2-2.4,2.1l-0.8,0.8c-0.9,0.9-2.4,3.9-2.4,4c0,0-1.4,2.3-1.4,2.3c-0.5,0.8-1.8,4.4-1.9,4.5c-0.1,0.4-0.3,1-0.5,1.8
			c-0.2,0.7-0.5,1.5-0.5,1.9c-0.2,2.8-0.4,4.1-0.4,4.4l0,0l0,0c0,0.4-0.2,1.4-0.1,2.3c0.1,1.4,0,2.8,0.1,3.4c0.3,2.6,1.8,7,3.3,9.4
			c0.1,0.1,1.1,2.4,3.8,5.5c0.4,0.5,1.4,1.3,2,1.9c0.7,0.8,1,1.1,1.6,1.5c0.8,0.5,1.6,1.1,2.4,1.6c0.9,0.6,1.8,1.3,2.7,1.8
			c0,0,0,0,0,0c0,0,0,0,0,0c0,0,0,0,0,0c0,0.1,0,0.2-0.1,0.3c0,0,0,0.1,0,0.1c0,0.1-0.1,0.3-0.1,0.4c0,0,0,0.1,0,0.1
			c-0.1,0.2-0.1,0.3-0.2,0.5c0,0,0,0.1,0,0.1c-0.1,0.2-0.1,0.4-0.2,0.6c0,0.1,0,0.1-0.1,0.2c-0.1,0.2-0.2,0.4-0.2,0.6
			c0,0.1-0.1,0.2-0.1,0.3c-0.1,0.1-0.1,0.3-0.2,0.4c0,0.1-0.1,0.2-0.1,0.3c0,0.1-0.1,0.2-0.1,0.3c-0.1,0.3-0.2,0.6-0.3,0.8
			c0,0,0,0.1,0,0.1l0,0.1l0,0c-0.4,0.9-0.5,1.1-0.5,1.3c-0.1,0.4-0.3,0.7-0.5,0.9c-0.3,0.2-0.6,0.3-1.3,0.1
			c-0.9-0.3-1.6-1.1-2.4-1.9c-0.7-0.7-1.4-1.4-1.9-1.9l-1-0.8c-0.2-0.2-0.8-0.6-2.1-1.5c-0.3-0.2-0.6-0.4-0.9-0.6
			c-0.3-0.2-1.1-1-1.2-1.1c-1.4-1.1-1.7-1.9-2.6-3.6C11,62.3,9.9,60.4,9.6,60l-0.8-1.1c-1.4-1.9-2.5-3.4-2.8-6.5
			c-0.1-0.9-0.4-1.6-0.7-2.9c-0.1-0.6-0.2-1.6-0.3-2.3c-0.5-2.6-0.9-5.4-0.5-7.9c0.3-2.1,0.3-3.4,0.3-4.8c0-1.3,0.1-2.3,0.3-2.8
			l0.1-0.4l2.7-7l0,0c0.3-1,2.4-4.5,3.3-5.7c0.8-1.2,3-3.5,3-3.5l0,0l0,0c0.4-0.7,4-3.2,5.1-3.7l0,0L24.1,8c1.5-1.1,4.5-2,6.6-2.7
			l1.5-0.5c3-1,7.4-1.4,8-1.4c0.3,0,1.6,0,1.9,0c0.6,0,5.9,0.3,8.9,1.4l1.9,0.4C55,5.9,57.6,6.9,59.1,8c0,0,5,3.3,5,3.3l0,0
			c-0.6-0.3,4.2,2.4,5.2,4.1l0,0l0,0c0.1,0.1,5.4,6.7,5.9,8.8l0,0l2.6,6.6l0,0c0.3,0.5,0.3,1.9,0.4,3.2c0,1.4,0.3,3.3,0.6,5.4
			C79.4,42.5,78.4,46.1,77.8,49.1z"/>
		<g>
			<path class="st0" d="M39.7,50.9c-0.1,0.3-1.5-0.3-2.2-0.3c-0.5,0-1.7-0.1-1.8-0.1c-0.2,0-0.4-0.3-0.1-0.4
				C36.3,50,39.8,50.5,39.7,50.9z"/>
			<path class="st0" d="M32.6,50.2c0,0.3,0,0-1.5,0c-1.6,0-1.7,0-1.6-0.2c0.1-0.4,1-0.1,1.5-0.2C31.8,49.9,32.7,49.8,32.6,50.2z"/>
			<path class="st0" d="M33.6,50.2c0.1-0.1,1.1-0.2,1,0.1c0,0.3-0.1,0.2-0.6,0.2C33.4,50.4,33.5,50.3,33.6,50.2z"/>
		</g>
		<g>
			<path class="st0" d="M41.6,1.5c-0.4,0-0.8-0.4-0.7-0.8c0-0.4,0.3-0.8,0.8-0.8c0.4,0,0.8,0.4,0.8,0.8C42.4,1.2,42.1,1.5,41.6,1.5z
				"/>
			<path class="st0" d="M38.9,1.6c-0.4,0-0.8-0.3-0.8-0.7c0-0.4,0.3-0.8,0.7-0.8c0.4,0,0.8,0.3,0.8,0.7C39.7,1.2,39.4,1.6,38.9,1.6z
				"/>
			<path class="st0" d="M36.2,1.9c-0.4,0.1-0.8-0.2-0.8-0.7c-0.1-0.4,0.2-0.8,0.7-0.9c0.4-0.1,0.8,0.2,0.9,0.7
				C36.9,1.4,36.6,1.8,36.2,1.9z"/>
			<path class="st0" d="M33.5,2.3c-0.4,0.1-0.8-0.2-0.9-0.6c-0.1-0.4,0.2-0.8,0.6-0.9C33.6,0.7,34,1,34.1,1.4
				C34.2,1.8,33.9,2.2,33.5,2.3z"/>
			<path class="st0" d="M30.8,2.9C30.4,3,30,2.8,29.9,2.4C29.8,2,30,1.6,30.4,1.5c0.4-0.1,0.8,0.1,0.9,0.5
				C31.5,2.4,31.2,2.8,30.8,2.9z"/>
			<path class="st0" d="M28.2,3.8c-0.4,0.1-0.8-0.1-1-0.5c-0.1-0.4,0.1-0.8,0.5-1c0.4-0.1,0.8,0.1,1,0.5C28.8,3.2,28.6,3.6,28.2,3.8
				z"/>
			<path class="st0" d="M25.6,4.7c-0.4,0.2-0.8,0-1-0.4c-0.2-0.4,0-0.8,0.4-1c0.4-0.2,0.8,0,1,0.4C26.2,4.1,26,4.6,25.6,4.7z"/>
			<path class="st0" d="M23.1,5.9c-0.4,0.2-0.8,0-1-0.3c-0.2-0.4-0.1-0.8,0.3-1c0.4-0.2,0.8,0,1,0.3C23.7,5.3,23.5,5.7,23.1,5.9z"/>
			<path class="st0" d="M20.8,7.3c-0.4,0.2-0.8,0.1-1-0.3c-0.2-0.4-0.1-0.8,0.3-1c0.4-0.2,0.8-0.1,1,0.3C21.2,6.6,21.1,7,20.8,7.3z"
				/>
			<path class="st0" d="M18.5,8.8c-0.3,0.2-0.8,0.2-1.1-0.2c-0.2-0.3-0.2-0.8,0.2-1.1c0.4-0.2,0.8-0.2,1.1,0.2
				C18.9,8.1,18.8,8.5,18.5,8.8z"/>
			<path class="st0" d="M16.3,10.4c-0.3,0.3-0.8,0.2-1.1-0.1C14.9,10,15,9.5,15.3,9.3C15.6,9,16.1,9,16.4,9.4
				C16.6,9.7,16.6,10.2,16.3,10.4z"/>
			<path class="st0" d="M14.2,12.2c-0.3,0.3-0.8,0.3-1.1,0c-0.3-0.3-0.3-0.8,0-1.1c0.3-0.3,0.8-0.3,1.1,0
				C14.5,11.5,14.5,11.9,14.2,12.2z"/>
			<path class="st0" d="M12.2,14.2c-0.3,0.3-0.8,0.3-1.1,0c-0.3-0.3-0.3-0.8,0-1.1c0.3-0.3,0.8-0.3,1.1,0
				C12.5,13.4,12.5,13.9,12.2,14.2z"/>
			<path class="st0" d="M10.4,16.3c-0.3,0.3-0.7,0.4-1.1,0.1C9,16.1,9,15.6,9.3,15.3c0.3-0.3,0.7-0.4,1.1-0.1
				C10.7,15.4,10.7,15.9,10.4,16.3z"/>
			<path class="st0" d="M8.8,18.4c-0.2,0.3-0.7,0.4-1.1,0.2c-0.3-0.2-0.4-0.7-0.2-1.1c0.2-0.4,0.7-0.4,1.1-0.2
				C9,17.6,9,18.1,8.8,18.4z"/>
			<path class="st0" d="M7.3,20.7c-0.2,0.4-0.7,0.5-1,0.3c-0.4-0.2-0.5-0.7-0.3-1c0.2-0.4,0.7-0.5,1.1-0.3
				C7.4,19.9,7.5,20.4,7.3,20.7z"/>
			<path class="st0" d="M5.9,23.1c-0.2,0.4-0.6,0.5-1,0.3c-0.4-0.2-0.5-0.6-0.3-1c0.2-0.4,0.7-0.5,1-0.3C6,22.3,6.1,22.7,5.9,23.1z"
				/>
			<path class="st0" d="M4.8,25.6c-0.2,0.4-0.6,0.6-1,0.4c-0.4-0.2-0.6-0.6-0.4-1c0.2-0.4,0.6-0.6,1-0.4C4.8,24.8,4.9,25.2,4.8,25.6
				z"/>
			<path class="st0" d="M3.8,28.2c-0.1,0.4-0.6,0.6-1,0.5c-0.4-0.1-0.6-0.6-0.5-1c0.1-0.4,0.6-0.6,1-0.5C3.7,27.3,3.9,27.8,3.8,28.2
				z"/>
			<path class="st0" d="M2.9,30.8c-0.1,0.4-0.5,0.6-0.9,0.5c-0.4-0.1-0.7-0.5-0.5-0.9C1.6,30,2,29.7,2.4,29.8
				C2.8,30,3.1,30.4,2.9,30.8z"/>
			<path class="st0" d="M2.3,33.5c-0.1,0.4-0.5,0.7-0.9,0.6C1,34,0.7,33.6,0.8,33.2c0.1-0.4,0.5-0.7,0.9-0.6
				C2.1,32.6,2.4,33,2.3,33.5z"/>
			<path class="st0" d="M1.9,36.2c-0.1,0.4-0.4,0.7-0.9,0.7c-0.4-0.1-0.7-0.4-0.7-0.9c0.1-0.4,0.4-0.7,0.9-0.7
				C1.6,35.4,1.9,35.7,1.9,36.2z"/>
			<path class="st0" d="M1.6,38.9c0,0.4-0.4,0.7-0.8,0.7c-0.4,0-0.7-0.4-0.7-0.8c0-0.4,0.4-0.7,0.8-0.7C1.3,38.1,1.6,38.5,1.6,38.9z
				"/>
			<path class="st0" d="M1.5,41.6c0,0.4-0.3,0.8-0.7,0.8c-0.4,0-0.8-0.3-0.8-0.7c0-0.4,0.3-0.8,0.8-0.8C1.2,40.9,1.5,41.2,1.5,41.6z
				"/>
			<path class="st0" d="M1.6,44.4c0,0.4-0.3,0.8-0.7,0.8c-0.4,0-0.8-0.3-0.8-0.7c0-0.4,0.3-0.8,0.7-0.8C1.2,43.7,1.6,44,1.6,44.4z"
				/>
			<path class="st0" d="M1.9,47.1C2,47.6,1.7,47.9,1.3,48c-0.4,0.1-0.8-0.2-0.9-0.6c-0.1-0.4,0.2-0.8,0.6-0.9
				C1.5,46.4,1.9,46.7,1.9,47.1z"/>
			<path class="st0" d="M2.4,49.8c0.1,0.4-0.2,0.8-0.6,0.9c-0.4,0.1-0.8-0.2-0.9-0.6c-0.1-0.4,0.2-0.8,0.6-0.9
				C1.9,49.1,2.3,49.4,2.4,49.8z"/>
			<path class="st0" d="M3.1,52.5c0.1,0.4-0.1,0.8-0.5,0.9c-0.4,0.1-0.8-0.1-0.9-0.5c-0.1-0.4,0.1-0.8,0.5-1
				C2.6,51.8,3,52.1,3.1,52.5z"/>
			<path class="st0" d="M4,55.1c0.1,0.4-0.1,0.8-0.5,1c-0.4,0.1-0.8,0-1-0.5c-0.1-0.4,0.1-0.8,0.5-1C3.4,54.5,3.8,54.7,4,55.1z"/>
			<path class="st0" d="M5,57.6c0.2,0.4,0,0.8-0.4,1c-0.4,0.2-0.8,0-1-0.4c-0.2-0.4,0-0.8,0.4-1C4.4,57.1,4.8,57.2,5,57.6z"/>
			<path class="st0" d="M6.2,60.1c0.2,0.4,0.1,0.8-0.3,1c-0.4,0.2-0.8,0.1-1-0.3c-0.2-0.4-0.1-0.8,0.3-1C5.5,59.6,6,59.7,6.2,60.1z"
				/>
			<path class="st0" d="M7.6,62.5c0.2,0.4,0.1,0.8-0.2,1c-0.4,0.2-0.8,0.1-1.1-0.2c-0.2-0.4-0.1-0.8,0.2-1.1
				C6.9,62,7.4,62.1,7.6,62.5z"/>
			<path class="st0" d="M9.1,64.7c0.3,0.3,0.2,0.8-0.2,1.1c-0.3,0.2-0.8,0.2-1.1-0.2c-0.3-0.3-0.2-0.8,0.2-1.1
				C8.4,64.3,8.9,64.4,9.1,64.7z"/>
			<path class="st0" d="M10.8,66.9c0.3,0.3,0.2,0.8-0.1,1.1c-0.3,0.3-0.8,0.2-1.1-0.1c-0.3-0.3-0.2-0.8,0.1-1.1
				C10,66.5,10.5,66.6,10.8,66.9z"/>
			<path class="st0" d="M12.6,69c0.3,0.3,0.3,0.8,0,1.1c-0.3,0.3-0.8,0.3-1.1,0c-0.3-0.3-0.3-0.8,0-1.1C11.9,68.6,12.3,68.7,12.6,69
				z"/>
			<path class="st0" d="M14.6,70.9c0.3,0.3,0.3,0.8,0.1,1.1c-0.3,0.3-0.8,0.3-1.1,0.1c-0.3-0.3-0.3-0.8-0.1-1.1
				C13.8,70.6,14.3,70.6,14.6,70.9z"/>
			<path class="st0" d="M16.7,72.7c0.3,0.3,0.4,0.7,0.1,1.1c-0.3,0.3-0.7,0.4-1.1,0.1c-0.3-0.3-0.4-0.7-0.1-1.1
				C15.9,72.4,16.4,72.4,16.7,72.7z"/>
			<path class="st0" d="M18.9,74.3c0.4,0.2,0.4,0.7,0.2,1.1c-0.2,0.3-0.7,0.4-1.1,0.2c-0.4-0.2-0.4-0.7-0.2-1.1
				C18.1,74.1,18.6,74,18.9,74.3z"/>
			<path class="st0" d="M21.2,75.8c0.4,0.2,0.5,0.7,0.3,1c-0.2,0.4-0.7,0.5-1,0.3c-0.4-0.2-0.5-0.7-0.3-1
				C20.4,75.7,20.9,75.5,21.2,75.8z"/>
			<path class="st0" d="M23.6,77.1c0.4,0.2,0.5,0.6,0.3,1c-0.2,0.4-0.6,0.5-1,0.3c-0.4-0.2-0.5-0.6-0.3-1
				C22.8,77,23.3,76.9,23.6,77.1z"/>
			<path class="st0" d="M26.1,78.2c0.4,0.2,0.6,0.6,0.4,1c-0.2,0.4-0.6,0.6-1,0.4c-0.4-0.2-0.6-0.6-0.4-1
				C25.3,78.2,25.7,78,26.1,78.2z"/>
			<path class="st0" d="M28.7,79.2c0.4,0.1,0.6,0.6,0.5,1c-0.1,0.4-0.6,0.6-1,0.5c-0.4-0.1-0.6-0.6-0.5-1
				C27.9,79.2,28.3,79,28.7,79.2z"/>
			<path class="st0" d="M31.3,79.9c0.4,0.1,0.7,0.5,0.5,0.9c-0.1,0.4-0.5,0.7-0.9,0.5c-0.4-0.1-0.7-0.5-0.5-0.9
				C30.5,80.1,30.9,79.8,31.3,79.9z"/>
			<path class="st0" d="M34,80.5c0.4,0.1,0.7,0.5,0.6,0.9c-0.1,0.4-0.5,0.7-0.9,0.6c-0.4-0.1-0.7-0.5-0.6-0.9
				C33.2,80.7,33.6,80.5,34,80.5z"/>
			<path class="st0" d="M36.7,80.9c0.4,0,0.7,0.4,0.7,0.8c0,0.4-0.4,0.7-0.8,0.7c-0.4,0-0.7-0.4-0.7-0.8
				C35.9,81.2,36.3,80.9,36.7,80.9z"/>
			<path class="st0" d="M39.5,81.2c0.4,0,0.7,0.4,0.7,0.8c0,0.4-0.4,0.7-0.8,0.7c-0.4,0-0.7-0.4-0.7-0.8
				C38.7,81.5,39,81.1,39.5,81.2z"/>
			<path class="st0" d="M42.2,81.2c0.4,0,0.8,0.3,0.8,0.7c0,0.4-0.3,0.8-0.7,0.8c-0.4,0-0.8-0.3-0.8-0.7
				C41.5,81.6,41.8,81.2,42.2,81.2z"/>
			<path class="st0" d="M45,81c0.4,0,0.8,0.3,0.8,0.7c0,0.4-0.3,0.8-0.7,0.8c-0.4,0-0.8-0.3-0.8-0.7C44.2,81.5,44.5,81.1,45,81z"/>
			<path class="st0" d="M47.7,80.7c0.4-0.1,0.8,0.2,0.9,0.6c0.1,0.4-0.2,0.8-0.6,0.9c-0.4,0.1-0.8-0.2-0.9-0.6
				C47,81.2,47.3,80.8,47.7,80.7z"/>
			<path class="st0" d="M50.4,80.2c0.4-0.1,0.8,0.2,0.9,0.6c0.1,0.4-0.2,0.8-0.6,0.9c-0.4,0.1-0.8-0.2-0.9-0.6
				C49.7,80.7,50,80.3,50.4,80.2z"/>
			<path class="st0" d="M53,79.5c0.4-0.1,0.8,0.1,0.9,0.5c0.1,0.4-0.1,0.8-0.5,1c-0.4,0.1-0.8-0.1-1-0.5C52.4,80,52.6,79.6,53,79.5z
				"/>
			<path class="st0" d="M55.6,78.6c0.4-0.2,0.8,0,1,0.4c0.2,0.4,0,0.8-0.4,1c-0.4,0.2-0.8,0-1-0.4C55,79.2,55.2,78.7,55.6,78.6z"/>
			<path class="st0" d="M58.1,77.5c0.4-0.2,0.8,0,1,0.4c0.2,0.4,0,0.8-0.4,1c-0.4,0.2-0.8,0-1-0.4C57.6,78.1,57.8,77.7,58.1,77.5z"
				/>
			<path class="st0" d="M60.6,76.3c0.4-0.2,0.8-0.1,1,0.3c0.2,0.4,0.1,0.8-0.3,1c-0.4,0.2-0.8,0.1-1-0.3
				C60.1,76.9,60.2,76.5,60.6,76.3z"/>
			<path class="st0" d="M63,74.9c0.4-0.2,0.8-0.1,1,0.2c0.2,0.4,0.1,0.8-0.2,1.1c-0.4,0.2-0.8,0.1-1.1-0.2
				C62.5,75.6,62.6,75.1,63,74.9z"/>
			<path class="st0" d="M65.2,73.3c0.3-0.3,0.8-0.2,1.1,0.2c0.3,0.3,0.2,0.8-0.1,1.1c-0.3,0.3-0.8,0.2-1.1-0.2
				C64.8,74,64.9,73.5,65.2,73.3z"/>
			<path class="st0" d="M67.4,71.6c0.3-0.3,0.8-0.2,1.1,0.1c0.3,0.3,0.2,0.8-0.1,1.1C68,73,67.5,73,67.3,72.6
				C67,72.3,67,71.9,67.4,71.6z"/>
			<path class="st0" d="M69.4,69.7c0.3-0.3,0.8-0.3,1.1,0c0.3,0.3,0.3,0.8,0,1.1c-0.3,0.3-0.8,0.3-1.1,0
				C69.1,70.5,69.1,70,69.4,69.7z"/>
			<path class="st0" d="M71.3,67.7c0.3-0.3,0.8-0.3,1.1-0.1c0.3,0.3,0.4,0.8,0.1,1.1c-0.3,0.3-0.8,0.3-1.1,0.1
				C71,68.5,71,68,71.3,67.7z"/>
			<path class="st0" d="M73,65.6c0.3-0.3,0.7-0.4,1.1-0.1c0.3,0.3,0.4,0.7,0.1,1.1c-0.3,0.3-0.7,0.4-1.1,0.1
				C72.8,66.4,72.7,65.9,73,65.6z"/>
			<path class="st0" d="M74.6,63.3c0.2-0.4,0.7-0.4,1.1-0.2c0.3,0.2,0.5,0.7,0.2,1.1c-0.2,0.4-0.7,0.4-1.1,0.2
				C74.5,64.2,74.4,63.7,74.6,63.3z"/>
			<path class="st0" d="M76,61c0.2-0.4,0.7-0.5,1-0.3c0.4,0.2,0.5,0.7,0.3,1c-0.2,0.4-0.7,0.5-1,0.3C76,61.8,75.8,61.4,76,61z"/>
			<path class="st0" d="M77.3,58.6c0.2-0.4,0.6-0.5,1-0.4c0.4,0.2,0.5,0.6,0.4,1c-0.2,0.4-0.6,0.5-1,0.4
				C77.3,59.4,77.1,59,77.3,58.6z"/>
			<path class="st0" d="M78.4,56.1c0.2-0.4,0.6-0.6,1-0.4c0.4,0.2,0.6,0.6,0.4,1c-0.2,0.4-0.6,0.6-1,0.4
				C78.4,56.9,78.3,56.5,78.4,56.1z"/>
			<path class="st0" d="M79.3,53.5c0.1-0.4,0.5-0.6,1-0.5c0.4,0.1,0.6,0.5,0.5,1c-0.1,0.4-0.6,0.6-1,0.5
				C79.4,54.3,79.2,53.9,79.3,53.5z"/>
			<path class="st0" d="M80.1,50.8c0.1-0.4,0.5-0.7,0.9-0.6c0.4,0.1,0.7,0.5,0.6,0.9c-0.1,0.4-0.5,0.7-0.9,0.6
				C80.2,51.6,80,51.2,80.1,50.8z"/>
			<path class="st0" d="M80.6,48.1c0.1-0.4,0.5-0.7,0.9-0.6c0.4,0.1,0.7,0.5,0.6,0.9c-0.1,0.4-0.5,0.7-0.9,0.6
				C80.8,49,80.6,48.6,80.6,48.1z"/>
			<path class="st0" d="M81,45.4c0-0.4,0.4-0.7,0.8-0.7c0.4,0,0.7,0.4,0.7,0.8c0,0.4-0.4,0.7-0.8,0.7C81.3,46.2,81,45.8,81,45.4z"/>
			<path class="st0" d="M81.2,42.7c0-0.4,0.4-0.7,0.8-0.7c0.4,0,0.8,0.4,0.7,0.8c0,0.4-0.4,0.8-0.8,0.7
				C81.5,43.5,81.2,43.1,81.2,42.7z"/>
			<path class="st0" d="M81.2,39.9c0-0.4,0.3-0.8,0.7-0.8c0.4,0,0.8,0.3,0.8,0.7c0,0.4-0.3,0.8-0.7,0.8
				C81.5,40.7,81.2,40.4,81.2,39.9z"/>
			<path class="st0" d="M81,37.2c0-0.4,0.3-0.8,0.7-0.8c0.4,0,0.8,0.2,0.8,0.7c0,0.4-0.3,0.8-0.7,0.8C81.4,37.9,81,37.6,81,37.2z"/>
			<path class="st0" d="M80.6,34.5c-0.1-0.4,0.2-0.8,0.6-0.9c0.4-0.1,0.8,0.2,0.9,0.6c0.1,0.4-0.2,0.8-0.6,0.9
				C81.1,35.2,80.7,34.9,80.6,34.5z"/>
			<path class="st0" d="M80.1,31.8c-0.1-0.4,0.1-0.8,0.6-0.9c0.4-0.1,0.8,0.1,0.9,0.6c0.1,0.4-0.1,0.8-0.6,0.9
				C80.6,32.5,80.2,32.2,80.1,31.8z"/>
			<path class="st0" d="M79.3,29.1c-0.1-0.4,0.1-0.8,0.5-1c0.4-0.1,0.8,0.1,1,0.5c0.1,0.4-0.1,0.8-0.5,1
				C79.9,29.8,79.4,29.5,79.3,29.1z"/>
			<path class="st0" d="M78.4,26.6c-0.2-0.4,0-0.8,0.4-1c0.4-0.2,0.8,0,1,0.4c0.2,0.4,0,0.8-0.4,1C79,27.1,78.5,27,78.4,26.6z"/>
			<path class="st0" d="M77.3,24c-0.2-0.4,0-0.8,0.4-1c0.4-0.2,0.8,0,1,0.3c0.2,0.4,0,0.8-0.4,1C77.9,24.6,77.4,24.4,77.3,24z"/>
			<path class="st0" d="M76,21.6c-0.2-0.4-0.1-0.8,0.3-1c0.4-0.2,0.8-0.1,1,0.3c0.2,0.4,0.1,0.8-0.3,1C76.7,22.1,76.2,22,76,21.6z"
				/>
			<path class="st0" d="M74.5,19.3c-0.2-0.4-0.1-0.8,0.2-1.1c0.4-0.2,0.8-0.1,1.1,0.2c0.2,0.4,0.1,0.8-0.2,1.1
				C75.2,19.7,74.8,19.6,74.5,19.3z"/>
			<path class="st0" d="M72.9,17.1c-0.3-0.3-0.2-0.8,0.1-1.1c0.3-0.3,0.8-0.2,1.1,0.1c0.3,0.3,0.2,0.8-0.1,1.1
				C73.7,17.5,73.2,17.4,72.9,17.1z"/>
			<path class="st0" d="M71.2,14.9c-0.3-0.3-0.3-0.8,0.1-1.1c0.3-0.3,0.8-0.3,1.1,0.1c0.3,0.3,0.2,0.8-0.1,1.1
				C71.9,15.3,71.5,15.3,71.2,14.9z"/>
			<path class="st0" d="M69.3,12.9c-0.3-0.3-0.3-0.8,0-1.1c0.3-0.3,0.8-0.3,1.1,0c0.3,0.3,0.3,0.8,0,1.1
				C70.1,13.2,69.6,13.2,69.3,12.9z"/>
			<path class="st0" d="M67.3,11.1c-0.3-0.3-0.4-0.7-0.1-1.1c0.3-0.3,0.7-0.4,1.1-0.1c0.3,0.3,0.4,0.8,0.1,1.1
				C68.1,11.3,67.6,11.4,67.3,11.1z"/>
			<path class="st0" d="M65.1,9.4c-0.3-0.3-0.4-0.7-0.2-1.1C65.2,8,65.7,7.9,66,8.1c0.3,0.3,0.4,0.7,0.2,1.1
				C65.9,9.6,65.5,9.6,65.1,9.4z"/>
			<path class="st0" d="M62.9,7.8c-0.4-0.2-0.5-0.7-0.2-1c0.2-0.4,0.7-0.5,1.1-0.2c0.4,0.2,0.5,0.7,0.2,1.1
				C63.7,7.9,63.2,8,62.9,7.8z"/>
			<path class="st0" d="M60.5,6.4c-0.4-0.2-0.5-0.7-0.3-1c0.2-0.4,0.7-0.5,1-0.3c0.4,0.2,0.5,0.7,0.3,1C61.3,6.5,60.9,6.6,60.5,6.4z
				"/>
			<path class="st0" d="M58,5.2c-0.4-0.2-0.5-0.6-0.4-1c0.2-0.4,0.6-0.6,1-0.4c0.4,0.2,0.6,0.6,0.4,1C58.9,5.2,58.4,5.3,58,5.2z"/>
			<path class="st0" d="M55.5,4.1c-0.4-0.1-0.6-0.6-0.4-1c0.2-0.4,0.6-0.6,1-0.4c0.4,0.2,0.6,0.6,0.4,1C56.4,4.1,55.9,4.3,55.5,4.1z
				"/>
			<path class="st0" d="M52.9,3.2c-0.4-0.1-0.6-0.5-0.5-0.9c0.1-0.4,0.5-0.6,0.9-0.5c0.4,0.1,0.6,0.5,0.5,1
				C53.8,3.1,53.3,3.3,52.9,3.2z"/>
			<path class="st0" d="M50.3,2.5c-0.4-0.1-0.7-0.5-0.6-0.9c0.1-0.4,0.5-0.7,0.9-0.6C51,1.1,51.3,1.5,51.2,2
				C51.1,2.4,50.7,2.6,50.3,2.5z"/>
			<path class="st0" d="M47.6,2c-0.4-0.1-0.7-0.5-0.6-0.9c0.1-0.4,0.4-0.7,0.9-0.6c0.4,0.1,0.7,0.5,0.6,0.9C48.4,1.8,48,2.1,47.6,2z
				"/>
			<path class="st0" d="M44.8,1.7c-0.4,0-0.7-0.4-0.7-0.8c0-0.4,0.4-0.7,0.8-0.7c0.4,0,0.7,0.4,0.7,0.8C45.6,1.4,45.3,1.7,44.8,1.7z
				"/>
		</g>
	</g>
</g>
</svg>
