<?xml version="1.0" encoding="utf-8"?>
<!-- Generator: Adobe Illustrator 22.0.0, SVG Export Plug-In . SVG Version: 6.00 Build 0)  -->
<svg version="1.1" id="Layer_1" xmlns="http://www.w3.org/2000/svg" xmlns:xlink="http://www.w3.org/1999/xlink" x="0px" y="0px"
	 viewBox="0 0 351.7 160.5" style="enable-background:new 0 0 351.7 160.5;" xml:space="preserve">
<style type="text/css">
	.st0{fill:#CED493;}
	.st1{fill:#A8B533;}
	.st2{fill:#231F20;}
</style>
<g>
	<g>
		<path class="st0" d="M88.7,80.1c0,4.7-3.8,8.6-8.6,8.6c-4.7,0-8.6-3.8-8.6-8.6c0-4.7,3.8-8.6,8.6-8.6
			C84.9,71.6,88.7,75.4,88.7,80.1"/>
		<path class="st0" d="M74.9,5c-0.2-4.3,1.4-5.1,5.2-5c3.7,0,5.4,0.8,5.2,5.1l-3.6,52.3c-0.1,1.2-0.7,3.8-1.7,3.8
			c-1,0-1.6-2.6-1.7-3.8L74.9,5z"/>
		<path class="st1" d="M129.6,23.4c2.9-3.2,4.6-2.6,7.3,0.1c2.6,2.7,3.3,4.4,0.1,7.2L97.4,65.1c-0.9,0.7-3.1,2.2-3.9,1.5
			c-0.7-0.7,0.7-2.9,1.5-3.9L129.6,23.4z"/>
		<path class="st1" d="M155.2,74.9c4.3-0.2,5.1,1.4,5,5.2c0,3.7-0.8,5.4-5.1,5.2L103,81.8c-1.2-0.1-3.8-0.7-3.8-1.7
			c0-1,2.6-1.6,3.8-1.7L155.2,74.9z"/>
		<path class="st1" d="M136.9,129.6c3.2,2.8,2.6,4.6-0.1,7.3c-2.7,2.6-4.4,3.3-7.2,0.1L95.1,97.4c-0.7-0.9-2.2-3.1-1.5-3.9
			c0.7-0.7,2.9,0.7,3.9,1.5L136.9,129.6z"/>
		<path class="st1" d="M85.3,155.2c0.2,4.3-1.4,5.1-5.2,5.1c-3.7,0-5.4-0.8-5.2-5.1l3.6-52.3c0.1-1.2,0.7-3.8,1.7-3.8
			c1.1,0,1.6,2.6,1.7,3.8L85.3,155.2z"/>
		<path class="st1" d="M30.7,136.9c-2.9,3.2-4.6,2.6-7.3-0.1c-2.6-2.7-3.3-4.4-0.1-7.2l39.5-34.4c0.9-0.7,3.1-2.2,3.9-1.5
			c0.7,0.7-0.7,2.9-1.5,3.9L30.7,136.9z"/>
		<path class="st1" d="M5,85.3c-4.3,0.2-5.1-1.4-5-5.2c0-3.8,0.8-5.4,5.1-5.2l52.3,3.6c1.2,0.1,3.8,0.7,3.8,1.7c0,1-2.6,1.6-3.8,1.7
			L5,85.3z"/>
		<path class="st1" d="M23.4,30.7c-3.2-2.8-2.6-4.6,0.1-7.2c2.7-2.6,4.4-3.3,7.2-0.1l34.4,39.5c0.7,0.9,2.2,3.1,1.5,3.8
			c-0.7,0.7-2.9-0.7-3.9-1.5L23.4,30.7z"/>
		<path class="st1" d="M89.6,56.1c-0.5,1.6-0.7,3.3-1.2,4.9c-0.5,1.5-0.8,1.9-2.2,1.5c-2.4-0.8,0.3-9.2,0.7-10.4
			c3.4-10.7,18.6-21.3,21.6-30.7c1.7-5.3-0.9-11.2-6.5-13c-4.8-1.5-6.8,1.4-8.6,0.8C93,9.1,92.8,8.5,92.9,8
			c0.7-2.3,5.9-5.7,15.3-2.7c7.7,2.5,12.1,10.7,9.7,18.3C113.8,36.6,95,39.2,89.6,56.1"/>
		<path class="st1" d="M103.8,69.8c-1.5,0.8-2.8,1.9-4.3,2.7c-1.4,0.7-1.9,0.8-2.6-0.5c-1.1-2.2,6.7-6.2,7.9-6.8
			c10-5.2,28.2-1.9,37-6.4c4.9-2.6,7.3-8.6,4.6-13.7c-2.3-4.5-5.8-3.9-6.6-5.5c-0.2-0.5,0-1,0.5-1.3c2.2-1.1,8.2,0.1,12.8,8.9
			c3.7,7.1,1,16.1-6.1,19.8C134.7,73.1,119.6,61.6,103.8,69.8"/>
		<path class="st1" d="M104.2,89.6c-1.6-0.5-3.3-0.7-4.9-1.2c-1.5-0.5-1.9-0.8-1.5-2.2c0.8-2.4,9.2,0.3,10.4,0.7
			c10.7,3.4,21.3,18.6,30.7,21.6c5.3,1.7,11.2-0.9,12.9-6.5c1.5-4.8-1.4-6.8-0.8-8.6c0.2-0.5,0.8-0.7,1.3-0.5
			c2.3,0.7,5.7,5.9,2.7,15.3c-2.5,7.7-10.7,12.1-18.3,9.6C123.7,113.7,121.1,95,104.2,89.6"/>
		<path class="st1" d="M90.5,103.8c-0.8-1.5-1.9-2.8-2.7-4.3c-0.7-1.4-0.8-1.9,0.5-2.6c2.2-1.1,6.2,6.7,6.8,7.9
			c5.2,10,1.9,28.2,6.4,37c2.6,5,8.6,7.3,13.7,4.6c4.5-2.3,3.9-5.8,5.5-6.6c0.5-0.2,1,0,1.3,0.5c1.1,2.2-0.1,8.2-8.9,12.8
			c-7.1,3.7-16.1,1-19.8-6.1C87.2,134.7,98.6,119.6,90.5,103.8"/>
		<path class="st1" d="M70.7,104.2c0.5-1.6,0.7-3.3,1.2-4.9c0.5-1.5,0.8-1.9,2.2-1.5c2.4,0.8-0.3,9.2-0.7,10.4
			c-3.4,10.7-18.6,21.3-21.6,30.7c-1.7,5.3,0.9,11.2,6.5,12.9c4.8,1.5,6.8-1.3,8.6-0.8c0.5,0.2,0.7,0.8,0.5,1.3
			c-0.7,2.3-5.9,5.7-15.3,2.7c-7.7-2.5-12.1-10.7-9.6-18.3C46.5,123.7,65.3,121.1,70.7,104.2"/>
		<path class="st1" d="M56.5,90.5c1.5-0.8,2.8-1.9,4.3-2.7c1.4-0.7,1.9-0.8,2.6,0.5c1.1,2.2-6.7,6.2-7.9,6.8
			c-10,5.2-28.2,1.9-37,6.4c-4.9,2.6-7.3,8.6-4.6,13.7c2.3,4.5,5.8,3.9,6.6,5.5c0.2,0.5,0,1.1-0.5,1.3c-2.2,1.1-8.2-0.1-12.8-8.9
			c-3.7-7.1-1-16.1,6.1-19.8C25.6,87.2,40.7,98.6,56.5,90.5"/>
		<path class="st1" d="M56.1,70.7c1.6,0.5,3.3,0.7,4.9,1.2c1.5,0.5,1.9,0.8,1.5,2.2c-0.8,2.4-9.2-0.3-10.4-0.7
			C41.4,70,30.8,54.8,21.4,51.8c-5.3-1.7-11.2,0.9-12.9,6.5c-1.5,4.8,1.4,6.8,0.8,8.6c-0.2,0.5-0.8,0.7-1.3,0.5
			C5.7,66.6,2.3,61.4,5.3,52c2.5-7.7,10.7-12.1,18.3-9.7C36.6,46.5,39.2,65.3,56.1,70.7"/>
		<path class="st1" d="M69.8,56.5c0.8,1.5,1.9,2.8,2.7,4.3c0.7,1.4,0.8,1.9-0.5,2.6c-2.2,1.1-6.2-6.7-6.8-7.9
			c-5.2-10-1.9-28.2-6.4-37c-2.6-4.9-8.6-7.3-13.7-4.6c-4.5,2.3-3.9,5.8-5.5,6.6c-0.5,0.2-1-0.1-1.3-0.5c-1.1-2.2,0.1-8.2,8.9-12.8
			c7.1-3.7,16.1-1,19.8,6.1C73.1,25.6,61.6,40.7,69.8,56.5"/>
	</g>
	<g>
		<path class="st2" d="M181.5,19.4h5l7.2,11.7h0V19.4h3.7v16.8h-4.9l-7.3-12h0v12h-3.7V19.4z"/>
		<path class="st2" d="M207.1,19.4h3.1l7.3,16.8h-4.2l-1.5-3.6h-6.5l-1.4,3.6h-4.1L207.1,19.4z M208.5,24.3l-2,5.2h4.1L208.5,24.3z"
			/>
		<path class="st2" d="M220.8,22.7H216v-3.3h13.3v3.3h-4.8v13.6h-3.7V22.7z"/>
		<path class="st2" d="M231.8,19.4h3.7v16.8h-3.7V19.4z"/>
		<path class="st2" d="M247.6,19c5.3,0,9.1,3.4,9.1,8.8s-3.8,8.8-9.1,8.8c-5.3,0-9.1-3.4-9.1-8.8S242.4,19,247.6,19z M247.6,33.2
			c3.2,0,5.2-2.3,5.2-5.4s-2.1-5.4-5.2-5.4c-3.2,0-5.2,2.3-5.2,5.4S244.5,33.2,247.6,33.2z"/>
		<path class="st2" d="M259.8,19.4h5l7.2,11.7h0V19.4h3.7v16.8h-4.9l-7.4-12h0v12h-3.7V19.4z"/>
		<path class="st2" d="M285.3,19.4h3.1l7.3,16.8h-4.2l-1.5-3.6h-6.5l-1.4,3.6h-4.1L285.3,19.4z M286.8,24.3l-2,5.2h4.1L286.8,24.3z"
			/>
		<path class="st2" d="M298.2,19.4h3.7v13.4h6.9v3.4h-10.6V19.4z"/>
	</g>
	<g>
		<path class="st2" d="M181.7,53.7h11.4v3.4h-7.7v3.1h7.3v3.4h-7.3v3.4h8.2v3.4h-11.9V53.7z"/>
		<path class="st2" d="M197.1,53.7h5l7.2,11.7h0V53.7h3.7v16.8h-4.9l-7.4-12h0v12h-3.7V53.7z"/>
		<path class="st2" d="M217.1,53.7h5.6c5.4,0,10,2.3,10,8.5c0,5.4-4.4,8.4-9.5,8.4h-6.1V53.7z M220.8,67.2h1.9c3.4,0,6-1.3,6-5.1
			c0-3.3-2.6-4.9-5.8-4.9h-2.2V67.2z"/>
		<path class="st2" d="M243.9,53.3c5.3,0,9.1,3.4,9.1,8.8s-3.8,8.8-9.1,8.8c-5.3,0-9.1-3.4-9.1-8.8S238.7,53.3,243.9,53.3z
			 M243.9,67.6c3.2,0,5.2-2.3,5.2-5.4c0-3.1-2.1-5.4-5.2-5.4c-3.2,0-5.2,2.3-5.2,5.4C238.7,65.3,240.8,67.6,243.9,67.6z"/>
		<path class="st2" d="M254.4,53.7h4l2.7,10.8h0l3.5-10.8h3.4l3.5,11.1h0l2.8-11.1h3.8l-4.9,16.8H270l-3.7-11.7h0l-3.7,11.7h-3.2
			L254.4,53.7z"/>
		<path class="st2" d="M280.5,53.7h5.6l3.9,11h0l3.9-11h5.6v16.8h-3.7V57.7h0l-4.4,12.9h-2.8l-4.3-12.9h0v12.9h-3.7V53.7z"/>
		<path class="st2" d="M303.7,53.7h11.4v3.4h-7.7v3.1h7.3v3.4h-7.3v3.4h8.2v3.4h-11.9V53.7z"/>
		<path class="st2" d="M319.1,53.7h5l7.2,11.7h0V53.7h3.7v16.8h-4.9l-7.3-12h0v12h-3.7V53.7z"/>
		<path class="st2" d="M342.3,57h-4.8v-3.3h13.3V57H346v13.6h-3.7V57z"/>
	</g>
	<g>
		<path class="st2" d="M181.7,88.1H193v3.4h-7.6v3.4h7v3.4h-7v6.6h-3.7V88.1z"/>
		<path class="st2" d="M204.4,87.6c5.3,0,9.1,3.4,9.1,8.9c0,5.4-3.8,8.8-9.1,8.8c-5.3,0-9.1-3.4-9.1-8.8
			C195.3,91.1,199.2,87.6,204.4,87.6z M204.4,101.9c3.2,0,5.2-2.3,5.2-5.4c0-3.1-2.1-5.4-5.2-5.4c-3.2,0-5.2,2.3-5.2,5.4
			C199.2,99.6,201.3,101.9,204.4,101.9z"/>
		<path class="st2" d="M216.6,88.1h6.5c3.4,0,6.4,1.2,6.4,5.1c0,2.4-1.3,4.2-3.6,4.6l4.3,7.1h-4.4l-3.5-6.7h-1.8v6.7h-3.7V88.1z
			 M220.3,95h2.2c1.4,0,3.1,0,3.1-1.9c0-1.7-1.5-2-2.9-2h-2.4V95z"/>
		<path class="st2" d="M243.5,91.4h-4.8v-3.3H252v3.3h-4.8v13.6h-3.7V91.4z"/>
		<path class="st2" d="M254.5,88.1h3.7v6.3h7.2v-6.3h3.7v16.8h-3.7v-7.3h-7.2v7.3h-3.7V88.1z"/>
		<path class="st2" d="M273.3,88.1h11.4v3.4H277v3.1h7.3v3.4H277v3.4h8.2v3.4h-11.9V88.1z"/>
	</g>
	<g>
		<path class="st2" d="M181.5,122.4h3.7v6.3h7.2v-6.3h3.7v16.8h-3.7V132h-7.2v7.3h-3.7V122.4z"/>
		<path class="st2" d="M214.4,132.8c0,4-2.4,6.9-7.1,6.9c-4.7,0-7.1-2.9-7.1-6.9v-10.3h3.7v10.2c0,2.1,1.4,3.6,3.4,3.6
			c2,0,3.4-1.6,3.4-3.6v-10.2h3.7V132.8z"/>
		<path class="st2" d="M218.4,122.4h5.6l3.9,11h0l3.9-11h5.6v16.8h-3.7v-12.9h0l-4.4,12.9h-2.8l-4.3-12.9h0v12.9h-3.7V122.4z"/>
		<path class="st2" d="M247,122.4h3.1l7.3,16.8h-4.2l-1.5-3.6h-6.5l-1.4,3.6h-4.1L247,122.4z M248.4,127.3l-2,5.2h4.1L248.4,127.3z"
			/>
		<path class="st2" d="M259.6,122.4h5l7.2,11.7h0v-11.7h3.7v16.8h-4.9l-7.3-12h0v12h-3.7V122.4z"/>
		<path class="st2" d="M279.6,122.4h3.7v16.8h-3.7V122.4z"/>
		<path class="st2" d="M290.5,125.7h-4.8v-3.3H299v3.3h-4.8v13.6h-3.7V125.7z"/>
		<path class="st2" d="M301.4,122.4h3.7v16.8h-3.7V122.4z"/>
		<path class="st2" d="M309.3,122.4h11.4v3.4H313v3.1h7.3v3.4H313v3.4h8.2v3.4h-11.9V122.4z"/>
		<path class="st2" d="M333,126.5c-0.6-0.8-1.8-1.1-2.7-1.1c-1,0-2.5,0.5-2.5,1.7c0,3.1,7.8,1.1,7.8,7c0,3.8-3,5.5-6.5,5.5
			c-2.2,0-4.1-0.6-5.7-2.1l2.6-2.9c0.8,1,2,1.6,3.2,1.6c1.2,0,2.6-0.6,2.6-1.8c0-3.1-7.9-1.4-7.9-7c0-3.6,3.1-5.5,6.4-5.5
			c1.9,0,3.7,0.5,5.2,1.8L333,126.5z"/>
	</g>
</g>
</svg>
