<?xml version="1.0" encoding="utf-8"?>
<!-- Generator: Adobe Illustrator 24.1.2, SVG Export Plug-In . SVG Version: 6.00 Build 0)  -->
<svg version="1.1" id="Layer_1" xmlns="http://www.w3.org/2000/svg" xmlns:xlink="http://www.w3.org/1999/xlink" x="0px" y="0px"
	 viewBox="0 0 100 100" style="enable-background:new 0 0 100 100;" xml:space="preserve">
<style type="text/css">
	.st0{fill:#FFFFFF;}
</style>
<g>
	<path class="st0" d="M50,0.4c13.7,0,26,5.6,35,14.5c9,9,14.5,21.4,14.5,35c0,13.7-5.5,26-14.5,35c-9,8.9-21.3,14.5-35,14.5
		s-26-5.6-35-14.5c-9-9-14.5-21.4-14.5-35c0-13.7,5.5-26.1,14.5-35S36.3,0.4,50,0.4L50,0.4z M82.3,17.7C74,9.4,62.6,4.3,50,4.3
		S26,9.4,17.7,17.7C9.5,25.9,4.4,37.3,4.4,50c0,12.6,5.1,24,13.4,32.3s19.7,13.4,32.3,13.4s24-5.1,32.3-13.4S95.8,62.6,95.8,50
		C95.7,37.3,90.6,25.9,82.3,17.7L82.3,17.7z"/>
	<g>
		<path class="st0" d="M50.6,33.4c3.3,0,6.3,0.8,9.1,2.1v-1.2c0-3.2-1.6-6-4-7.8v-1.7c0-1.4,1.1-2.6,2.6-2.6v-3.7
			c-3.4,0-6.2,2.8-6.2,6.2v0.1c-0.6-0.1-1.3-0.2-2-0.2s-1.4,0.1-2,0.2v-0.1c0-3.4-2.8-6.2-6.2-6.2v3.7c1.4,0,2.6,1.1,2.6,2.6v1.7
			c-2.4,1.8-4,4.6-4,7.8v1.2c2.7-1.4,5.8-2.1,9.1-2.1H50.6z"/>
		<path class="st0" d="M50.6,81.1c3.3,0,6.4-1,9-2.6c-4.1-0.8-7.5-3.3-9.5-6.8c-2,3.5-5.4,6-9.5,6.8c2.6,1.7,5.7,2.6,9,2.6
			L50.6,81.1z"/>
		<path class="st0" d="M35.6,44.5l-3.4-2.8h-5.1v3.7h3.7l3,2.5c-0.7,1.9-1.1,3.9-1.1,6v3.9h-7.3l-3,3l2.6,2.6l2-2h5.8v3
			c0,2.1,0.4,4.1,1.1,5.9l-4.5,3.8v5.5h3.7v-3.8l2.6-2.2c0.3,0.5,0.7,1,1.1,1.4h1.2c5.7,0,10.3-4.6,10.3-10.3V37.1
			C42.9,37.5,38.4,40.3,35.6,44.5L35.6,44.5z M42.3,63h-3.7v-3.7h3.7V63z M44.2,55.1h-3.7v-3.7h3.7V55.1z"/>
		<path class="st0" d="M74.6,57.7h-7.3v-3.9c0-2.1-0.4-4.2-1.1-6l3-2.5h3.7v-3.7h-5l-3.4,2.8c-2.8-4.1-7.4-7-12.6-7.4v27.6
			c0,5.7,4.6,10.3,10.3,10.3h1.3c0.4-0.5,0.7-0.9,1.1-1.4l2.6,2.2v3.8h3.7v-5.5l-4.5-3.8c0.7-1.8,1.1-3.9,1.1-5.9v-3h5.8l2,2
			l2.6-2.6L74.6,57.7z M55.8,51.5h3.7v3.7h-3.7V51.5z M61.4,63h-3.7v-3.7h3.7V63z"/>
	</g>
</g>
</svg>
