<?xml version="1.0" encoding="utf-8"?>
<!-- Generator: Adobe Illustrator 19.2.1, SVG Export Plug-In . SVG Version: 6.00 Build 0)  -->
<svg version="1.1" id="Layer_1" xmlns="http://www.w3.org/2000/svg" xmlns:xlink="http://www.w3.org/1999/xlink" x="0px" y="0px"
	 viewBox="0 0 174.3 75.4" style="enable-background:new 0 0 174.3 75.4;" xml:space="preserve">
<style type="text/css">
	.st0{fill:#DDDDDD;}
</style>
<g id="XMLID_107_">
	<g id="XMLID_304_">
		<g id="XMLID_305_">
			<g id="XMLID_441_">
				<g id="XMLID_563_">
					<path id="XMLID_564_" class="st0" d="M20.6,43.9C-0.8,34,1.8,11.9,1.8,1.7h37.8C39.5,12,41.9,34,20.6,43.9z M1.8,0L0.1,1.7
						c0,1.2,0,2.8-0.1,3.5c-0.1,12.2,0.7,30.9,20.3,40c10.4-4.9,18.3-13.2,20.3-26c1.2-7.4,0.4-14.5,0.4-19.2H1.8z"/>
				</g>
				<g id="XMLID_552_">
					<path id="XMLID_104_" class="st0" d="M12.5,27.1c-1.5,1.7-3,3.2-3.5,3.8c-0.1,0.1-0.1,0.2-0.1,0.3c0.1,0.1,0.2,0.2,0.3,0.2
						s0.1,0.1,0.3-0.1c0.1-0.1,1.8-1.7,3.6-3.5c0,0-0.2-0.1-0.3-0.2C12.7,27.3,12.5,27.1,12.5,27.1z"/>
					<g id="XMLID_560_">
						<path id="XMLID_103_" class="st0" d="M13.5,26.6c0.3,0.3,1,0.8,1,0.8l-0.3,0.3c-0.1,0.1-0.7-0.1-1.1-0.6
							c-0.4-0.4-0.8-0.9-0.7-1l0.3-0.3C12.8,25.9,13,26.3,13.5,26.6z"/>
					</g>
					<g id="XMLID_553_">
						<g id="XMLID_557_">
							<g id="XMLID_558_">
								<path id="XMLID_102_" class="st0" d="M30.7,30.8c0.3-0.3,0.3-0.6,0.3-0.6l0.3,0.1c0.1,0.1,0,0.6-0.3,0.8
									c-0.3,0.3-0.8,0.4-0.9,0.3l-0.1-0.4C30.1,31.1,30.4,31.1,30.7,30.8z"/>
							</g>
						</g>
						<g id="XMLID_554_">
							<g id="XMLID_555_">
								<path id="XMLID_101_" class="st0" d="M30.2,30.2c0.2-0.2,0.2-0.4,0.2-0.4l0.2,0.1c0.1,0.1,0,0.3-0.2,0.6
									c-0.2,0.2-0.6,0.3-0.7,0.2v-0.1C29.7,30.5,30,30.4,30.2,30.2z"/>
							</g>
						</g>
					</g>
				</g>
				<g id="XMLID_550_">
					<path id="XMLID_100_" class="st0" d="M31.3,13l-0.4,0.3c-0.6,0.2-1.8-0.8-2.8-1.7c-0.7-0.6-2-2-1.5-2.7l0.2-0.2
						c-0.1-0.1-0.2-0.1-0.3-0.2c-0.1-0.1-0.2-0.1-0.4-0.1c-0.1,0-0.3,0.1-0.3,0.2c0,0.2,0.1,0.7,0.3,1c0.2,0.4,1,1.7,2.7,2.9
						c0.8,0.6,1.7,1,2.2,1.2c0.1,0,0.6,0.1,0.7,0c0.2-0.2,0-0.4-0.1-0.8C31.4,13.2,31.3,13,31.3,13z"/>
				</g>
				<path id="XMLID_99_" class="st0" d="M30.5,9.2"/>
				<path id="XMLID_98_" class="st0" d="M29.6,8.8"/>
				<path id="XMLID_543_" class="st0" d="M14.2,6.9c0,0.1,0,0.2,0,0.4c0,0.4,0.3,3.8,2.3,6.1c1.7,2.1,6.6,8,7.4,9
					c0.8,0.9,5.6,6.6,6.3,7.3l0.1,0.1c0,0-0.1,0.1-0.2,0.2c-0.1,0.1-0.3,0.1-0.3,0.1L29.6,30c-0.2-0.2-8.6-8.6-9.5-9.5
					c-0.8-0.8-5.2-5-7-6.2c-1.5-1-2.2-1.5-4-1.7c0,0-1.2,0-1.3-0.1v-0.1c0.8-0.3,2.4-1.2,3.6-2.5c1.8-1.8,2.4-3,2.5-3.1
					C14,6.9,14.2,6.7,14.2,6.9z M15.4,14c-1.8-1.8-2.4-2.1-3.2-2.5c-0.4-0.2-0.8-0.3-1-0.2c-0.3,0.1-0.9,0.3-1.2,0.7
					c-0.2,0.2-0.2,0.3-0.1,0.3c0.1,0.1,1,0.2,1.9,0.7c1.4,0.8,4.1,2.7,9.9,8.6c3,3.1,7.6,7.8,7.6,7.8l0.1-0.1c0,0-6.7-7.6-12-13.3
					C16.6,15.3,15.9,14.6,15.4,14z"/>
				<path id="XMLID_95_" class="st0" d="M31.2,12.9"/>
				<path id="XMLID_539_" class="st0" d="M10.1,10.4c-0.8,0.7-1.8,1.2-2.5,1.5c-0.6,0.2-1.3,0-0.8-1.1c0.1-0.3,0.4-0.7,0.8-1.1
					c1-1.3,2.9-3,4.6-4c0.6-0.3,1-0.4,1.2-0.4c0.4,0,0.4,0.4,0.3,0.8C13.6,6.9,12.3,8.6,10.1,10.4z M10.6,9.4
					c0.2-0.2,0.9-0.9,1.4-1.5c0.7-0.8,1-1.4,1-1.4s0.1-0.2,0.1-0.3C13.2,6,13,6,12.9,5.9c-0.1-0.1-1.5,0.7-2.2,1.2
					c-0.1,0.1-0.2,0.3-0.3,0.7C10.4,8,10.9,8.5,10.6,9.4C10.5,9.4,10.6,9.4,10.6,9.4z"/>
				<path id="XMLID_92_" class="st0" d="M14.2,7.1"/>
				<g id="XMLID_535_">
					<path id="XMLID_91_" class="st0" d="M19.9,21c-0.3,0.3-5.9,5.6-5.9,5.6c0.1,0.1,0.3,0.2,0.3,0.2s5.1-4.9,5.4-5.2
						c0.1-0.1,0.3-0.3,0.4-0.3L19.9,21z"/>
					<path id="XMLID_90_" class="st0" d="M30.3,14.5c0.1,0,0.1,0,0.2,0c0.1,0,0.2,0,0.2,0s0.1-0.1,0-0.1c-0.2,0-0.8-0.1-1.2-0.4
						c-0.3,0.1-0.9,0.2-1.4,0.6c-0.8,0.3-2.5,1.4-6.1,4.6l0.3,0.3c1.2-1.1,2.9-2.5,3.8-3.1c1.5-1,2.8-1.5,3.5-1.7
						C29.6,14.6,30,14.5,30.3,14.5z"/>
				</g>
				<g id="XMLID_532_">
					<path id="XMLID_89_" class="st0" d="M26.8,11.9c-1-1-1.3-1.8-1.4-2.3l0,0c0,0,0,0-0.1,0c0,0,0,0,0,0.1c-0.1,1,0,1.4-0.4,2.5
						c-0.3,0.9-1,2-1.9,3.1c-0.6,0.6-1.4,1.5-2.2,2.5l0.6,0.7c0.1-0.1,0.2-0.2,0.4-0.4c2.8-2.9,5.1-4.6,5.9-5.3
						C27.3,12.5,27.1,12.2,26.8,11.9z"/>
					<path id="XMLID_88_" class="st0" d="M18.8,20c-1.1,1.3-2.3,2.5-2.7,3c-0.3,0.3-2.8,3-2.8,3s0.1,0.1,0.1,0.2
						c0.1,0.1,0.2,0.2,0.2,0.2s5.2-5.4,5.6-5.7L18.8,20z"/>
				</g>
				<path id="XMLID_87_" class="st0" d="M27.7,8.4V8.3c-0.2-0.1-0.4-0.1-0.6,0c-0.3,0.3,0.4,1.7,1.7,2.9c1.3,1.2,2.7,1.9,3,1.4
					c0.1-0.1,0.1-0.4-0.1-0.8C29.8,12,27.7,9.5,27.7,8.4z"/>
				<path id="XMLID_528_" class="st0" d="M33.5,8.8c-0.2,0.2-0.4,0.7-0.7,0.9c0.2-0.2,0.3-0.7,0.1-1.8c-0.1-0.8-0.2-1.1-0.3-1.3
					c-0.1-0.1-0.1-0.1-0.2,0c-0.1,0.1-0.3,0.6-0.3,0.6c0,0.1,0,0-0.3-1.1c-0.2-0.8-0.3-1.2-0.3-1.5c0-0.1,0-0.2,0-0.3s0-0.1-0.3,0
					C31,4.2,30,5,29.5,6c-0.2,0.6-0.2,1.1-0.3,0.8c0-0.6,0-0.6-0.1-0.6c-0.3,0.1-1.4,0.7-1.4,2.2c0,1.3,2.4,4.1,4.4,3.4
					c0,0,1.5-0.3,1.5-1.7C33.7,8.7,33.5,8.8,33.5,8.8z M33.1,10.5c-0.1,0.1-0.3,0.4-0.8,0.7c-0.4,0.2-1.1,0.2-1.4,0.1
					c-1.4-0.4-2.3-2-2.3-2c-1.2-1.9,0.4-2.7,0.6-2.7c0,0-0.1,0.7-0.1,1c0.1,0.3,0.3,0.7,0.3,0.9c0.1,0.4,0,0.7-0.1,0.9
					c0,0.1,0.1,0,0.1,0s0,0,0.1-0.1c0.2-0.1,0.4-0.4,0.3-0.7c-0.1-0.6-0.6-1-0.1-2.1c0.3-0.8,1-1.4,1.1-1.4C30.8,5,31,4.9,31,5
					c0,0.1,0.1,0.7,0.2,1c0.1,0.3,0.4,1.1,0.3,2c-0.1,1-1.7,2.1-1.9,2.1c-0.1,0-0.2,0.1-0.2,0.1c-0.1,0.1,0,0.1,0.1,0.1
					s0.8-0.1,1.3-0.6c0.4-0.3,0.9-0.8,1-1.1c0.3-0.6,0.4-1.2,0.4-1.3c0-0.1,0.1-0.1,0.1,0c0,0.1,0.1,0.4,0.2,0.7
					c0,0.1,0.1,0.4,0.1,0.9c0,0.8-0.2,1.1-0.7,1.4c-0.2,0.2-0.6,0.2-0.8,0.3h-0.1c0,0-0.1,0,0,0.1h0.1c0.2,0.1,0.8,0.1,1.1-0.1
					c0.1-0.1,0.3-0.2,0.7-0.6c0.1-0.1,0.2-0.3,0.2-0.2C33.2,9.9,33.2,10.3,33.1,10.5z"/>
			</g>
			<g id="XMLID_306_">
				<g id="XMLID_307_">
					<path id="XMLID_409_" class="st0" d="M122.1,2.2c6.5,0,10.6,6,10.6,12c0,6.2-3.9,10.1-8.8,10.1c-6.6,0-10.6-6-10.6-12.2
						C113.3,6.9,116.5,2.2,122.1,2.2z M122.6,25.3c7.4,0,12.6-4.9,12.6-12.4c0-7-5.2-11.8-12-11.8c-6.9,0-12.3,5.1-12.3,12
						C110.9,20.2,115.3,25.3,122.6,25.3z"/>
					<path id="XMLID_314_" class="st0" d="M141.9,4c0-1.2,0.7-1.2,1.9-1.2c3.2,0,6.2,1.3,6.2,5.3s-3.1,4.6-4.5,4.6
						c-1.5,0-3.5,0.1-3.5-0.4V4z M148.3,12.9c2.3-0.9,4.1-3.1,4.1-5.6c0-6.3-7.2-5.6-7.7-5.6c-1.7,0-3.5,0.1-5.4,0.1
						c-1.7,0-1.5-0.1-2.1-0.1c-0.4,0-0.7,0.2-0.7,0.4c0,1.1,2.8-0.2,2.8,2.9v16.5c0,2.4-2.3,2-2.3,2.9c0,0.2,0.1,0.3,0.3,0.3
						c1.2,0,2.4-0.1,3.6-0.1c2.7,0,3.4,0.1,3.8,0.1c0.2,0,0.6,0.1,0.6-0.2c0-1.1-3.4-0.1-3.4-2.9v-6.9c0-0.3-0.2-0.9,0.9-0.9
						c3.6,0,3.2-0.1,4.3,1.8l3.6,5.6c1.2,1.9,2.5,3.5,4.9,3.5c0.3,0,2.9,0,2.9-0.4c0-0.8-2.3,0.4-4.6-3.2L148.3,12.9z"/>
					<path id="XMLID_312_" class="st0" d="M157.8,3.8c-0.9-1.4-2.4-1-2.4-1.5c0-0.2,0.2-0.4,0.4-0.4c0.9,0,1.4,0.1,3.6,0.1
						c1.1,0,2-0.1,2.3-0.1c0.2,0,0.7,0,0.7,0.3c0,0.6-1.5,0.6-1.5,1.5c0,0.6,0.4,1,0.6,1.3l3.9,6.3c0.2,0.4,0.4,0.6,0.7,0.6
						c0.1,0,0.3-0.2,0.7-0.7l3.3-5.4c0.2-0.3,0.7-0.9,0.7-1.8c0-1.5-2.4-0.9-2.4-1.7c0-0.4,0.3-0.4,0.7-0.4c0.8,0,1.5,0.1,2.3,0.1
						c0.9,0,1.9-0.1,2.8-0.1c0.2,0,0.3,0.2,0.3,0.4c0,0.3-0.6,0.4-0.8,0.7c-0.9,0.6-1.3,1.4-1.8,2.2l-4.5,7.1
						c-0.6,0.8-0.8,1-0.8,1.4v8c0,2.9,2.7,1.9,2.7,2.9c0,0.3-0.3,0.3-0.8,0.3s-2.3-0.1-3.5-0.1c-1.4,0-2.7,0.1-2.9,0.1
						c-0.3,0-0.4,0-0.4-0.4c0-0.9,2.5-0.1,2.5-2.3v-7.8c0-0.7-0.4-1.2-0.8-1.7L157.8,3.8z"/>
					<path id="XMLID_310_" class="st0" d="M107.1,21.7c0.1,2.8,2.5,1.5,2.5,2.7c0,0.3-0.4,0.3-0.8,0.3c-0.7,0-1.8-0.1-3.1-0.1
						c-1,0-2,0.1-2.8,0.1c-0.3,0-0.3-0.1-0.3-0.3c0-1,2.1-0.2,2-2.7l-0.9-12.6c0-0.8-0.1-1.2-0.3-1.2c-0.2,0-0.6,0.3-0.9,1
						l-6.7,13.7c-0.2,0.3-0.7,1.7-1,1.7s-0.6-0.7-0.7-1L87.3,8.7c-0.1-0.2-0.2-0.3-0.4-0.3c-0.1,0-0.2,0.1-0.2,0.4l-1,11.4
						c-0.1,4.3,2.9,2.9,2.9,4.1c0,0.3-0.3,0.3-0.8,0.3c-0.4,0-1.9-0.1-2.9-0.1c-1.7,0-2.2,0.1-2.9,0.1c-0.2,0-0.3-0.1-0.3-0.4
						c0-1.1,2.1,0.2,2.3-3.2c0.4-5.3,0.8-8.7,0.8-12.2c0-7.6-2.5-5.9-2.5-7c0-0.3,0.2-0.3,0.6-0.3c0.6,0,1.2,0.1,1.8,0.1
						s1.1-0.1,1.8-0.1c0.4,0,0.6,0.6,0.7,0.9l7.7,16.5c0.3,0.7,0.4,1,0.7,1c0.1,0,0.4-0.7,1-1.8l7.7-15.5c0.2-0.3,0.4-1.1,0.9-1.1
						c0.3,0,1.3,0.1,1.5,0.1c0.8,0,1-0.1,1.5-0.1c0.2,0,0.3,0.2,0.3,0.4c0,1-2.5-0.3-2.4,3.5L107.1,21.7z"/>
					<path id="XMLID_308_" class="st0" d="M67.8,11.2c0,1.1-0.1,1.1,1.2,1.1h3.5c3.3,0,2.5-2.7,3.3-2.7c0.2,0,0.3,0.3,0.3,0.7
						c0,1.1,0,2.2,0,3.3c0,0.9,0,1.7,0,2.5c0,0.3-0.1,0.4-0.3,0.4c-1,0,0.1-2.9-2.7-2.9h-4.8c-0.7,0-0.6,0.6-0.6,1v6
						c0,1.9-0.2,2.7,2.4,2.7c7.5,0,8.6-3.3,9-3.3c0.2,0,0.2,0.3,0.2,0.4c0,1.2-0.9,2.3-1.7,3.2c-1,1.2-1.8,1.1-3.2,1.1
						c-2.4,0-4.9-0.2-7.4-0.1c-1.3,0-2.7,0.1-4,0.1c-0.3,0-0.4-0.1-0.4-0.3c0.1-0.4,0.4-0.3,1.4-0.9c0.9-0.4,0.9-1.3,0.9-2.9V5.9
						c0-1.4,0-3-1.8-3.3c-0.2-0.1-1-0.1-1-0.6c0-0.2,0.2-0.4,1.1-0.4c6.1,0,7.7,0.1,9.2,0.1c0.7,0,3.6-0.1,4.6-0.1
						c0.2,0,0.3,0.3,0.3,0.7c0,3.6-0.4,3.9-0.7,3.9c-0.8,0-0.2-1.5-0.8-2.3c-0.9-1.1-4.2-0.9-5.5-0.9c-3.1,0-3.1-0.1-3.1,2.1v6.2
						H67.8z"/>
				</g>
			</g>
		</g>
	</g>
	<g id="XMLID_277_">
		<path id="XMLID_302_" class="st0" d="M67,41.6c0,0.9-0.1,1.4,1,1.4c3.8,0,3.5-2,4.1-2c0.1,0,0.2,0,0.2,0.3c0,1.2-0.9,2.4-2.1,2.4
			c-2.3,0-3.1-0.1-3.9-0.1c-0.4,0-1.1,0.1-1.9,0.1c-0.2,0-0.3-0.1-0.3-0.1c0-0.7,1.1,0.1,1.1-1.8v-7.2c0-1.3-1.7-0.9-1.7-1.4
			c0-0.1,0.1-0.2,0.4-0.2c0.6,0,1.4,0.1,2.1,0.1c1.3,0,1.4-0.1,1.7-0.1c0.3,0,0.4,0,0.4,0.2c0,0.6-1.1,0-1.1,1.2L67,41.6L67,41.6z"
			/>
		<path id="XMLID_300_" class="st0" d="M77.2,41.9c0,1.9,1.7,1.2,1.7,1.7c0,0.1-0.1,0.2-0.4,0.2c-0.6,0-1.1-0.1-2.3-0.1
			c-0.7,0.1-1.3,0.1-1.7,0.1c-0.1,0-0.2-0.1-0.2-0.2c0-0.6,1.1-0.1,1.1-1.5v-7.2c0-1.3-1.7-1-1.7-1.4c0-0.2,0.3-0.2,0.6-0.2
			c0.6,0,1.2,0.1,1.7,0.1c0.6,0,1.1-0.1,2-0.1c0.4,0,0.6,0,0.6,0.2c0,0.6-1.1,0-1.1,1.4v7.1H77.2z"/>
		<path id="XMLID_296_" class="st0" d="M82.6,35.4c0-2.1-1.5-1.2-1.5-2c0-0.2,0.2-0.2,0.2-0.2c0.1,0,0.2,0.1,0.9,0.1
			c1.3,0,2.5-0.1,3.9-0.1c3.6,0,3.8,2.2,3.8,2.5c0,1-0.6,1.8-1.7,2.1l0,0c1.9,0.4,2.4,1.3,2.4,2.7c0,2-1.4,3.3-3.9,3.3
			c-2.2,0-3-0.1-3.8-0.1c-0.3,0-0.8,0.1-1.1,0.1c-0.3,0-0.6,0-0.6-0.2c0-0.6,1.3-0.1,1.3-1.5C82.6,42,82.6,35.4,82.6,35.4z
			 M84.4,36.9c0,0.8,0.1,0.8,1,0.9h0.9c1.1,0,1.5-0.6,1.5-1.7c0-1.4-1.1-2.3-2.4-2.3c-1,0-1.1,0.6-1.1,1.4L84.4,36.9L84.4,36.9z
			 M84.4,41.3c0,1.4,0.4,1.9,1.9,1.9c1.4,0,2.2-1,2.2-2.4c0-0.9-0.4-2.2-3.2-2.2c-0.9,0-0.9,0.3-0.9,1.2
			C84.4,39.8,84.4,41.3,84.4,41.3z"/>
		<path id="XMLID_293_" class="st0" d="M93.8,35c0-1.7-1.7-1.1-1.7-1.7c0-0.1,0.1-0.2,0.3-0.2c0.7,0,0.8,0.1,1.8,0.1s2-0.1,3.1-0.1
			c3.3,0,3.6,2.1,3.6,2.9c0,1-0.4,1.5-0.9,1.9c-0.4,0.3-0.9,0.4-0.9,0.7c0,0.1,1.2,2.3,2.2,4.2c0.1,0.2,0.4,0.2,0.6,0.2
			s0.3-0.1,0.4-0.1s0.2,0.1,0.2,0.2c0,0.4-1,0.8-1.5,0.8c-1.2,0-1.7-1-2.1-1.9l-1.2-2.4c-0.3-0.7-0.6-0.8-1.2-0.8
			c-0.8,0-0.7,0.1-0.7,0.7v2.7c0,1.7,1.5,1,1.5,1.5c0,0.1-0.1,0.2-0.4,0.2c-0.7-0.1-1-0.1-1.7-0.1c-0.8,0-1.5,0-2.3,0
			c-0.1,0-0.4,0-0.4-0.2c0-0.4,1.2,0,1.2-1.9V35z M95.6,37.7c0,0.3,0.6,0.3,1,0.3c2.3,0,2.4-0.9,2.4-1.8c0-1.4-0.9-2.5-2.3-2.5
			c-0.6,0-1,0-1,0.9L95.6,37.7L95.6,37.7z"/>
		<path id="XMLID_290_" class="st0" d="M107,40.1c-0.2,0-0.6,0.1-0.9,1.1c-0.1,0.3-0.3,0.8-0.3,1.2c0,1.1,1.7,0.9,1.7,1.2
			s-0.4,0.2-0.8,0.2c-0.4,0-0.9-0.1-1.4-0.1c-0.4,0-0.9,0.1-1.3,0.1c-0.2,0-0.4,0-0.4-0.1c0-0.3,0.8-0.2,1.1-1.1l4.1-9.2
			c0.1-0.2,0.2-0.6,0.3-0.6c0.1,0,0.1,0,0.3,0.4l4.1,9.2c0.4,1.1,1.3,0.4,1.3,1c0,0.2-0.1,0.2-0.6,0.2c-0.6,0-1-0.1-2-0.1
			c-0.7,0-1.2,0.1-1.7,0.1c-0.2,0-0.4,0-0.4-0.2c0-0.4,1.1-0.2,1.1-1.2c0-0.3-0.1-0.6-0.2-1c-0.4-1.2-0.6-1.3-1-1.3L107,40.1
			L107,40.1z M109.5,39.2c0.2,0,0.4,0,0.4-0.1c0-0.2-0.1-0.3-0.1-0.6l-1.2-2.8c-0.1-0.1,0-0.1-0.1-0.1c0,0-0.1,0-0.2,0.2l-1.1,2.7
			c-0.1,0.2-0.1,0.3-0.1,0.6c0,0.1,0.2,0.1,0.4,0.1C107.5,39.2,109.5,39.2,109.5,39.2z"/>
		<path id="XMLID_287_" class="st0" d="M117.4,35c0-1.7-1.7-1.1-1.7-1.7c0-0.1,0.1-0.2,0.3-0.2c0.7,0,0.8,0.1,1.8,0.1s2-0.1,3.1-0.1
			c3.3,0,3.6,2.1,3.6,2.9c0,1-0.4,1.5-0.9,1.9s-0.9,0.4-0.9,0.7c0,0.1,1.3,2.3,2.3,4.2c0.1,0.2,0.4,0.2,0.6,0.2s0.3-0.1,0.4-0.1
			s0.2,0.1,0.2,0.2c0,0.4-1,0.8-1.5,0.8c-1.2,0-1.7-1-2.1-1.9l-1.2-2.4c-0.3-0.7-0.7-0.8-1.3-0.8c-0.8,0-0.7,0.1-0.7,0.7v2.7
			c0,1.7,1.5,1,1.5,1.5c0,0.1-0.1,0.2-0.4,0.2c-0.2,0-0.7-0.1-1.3-0.1c-0.8,0-1.5,0.1-2.3,0.1c-0.2,0-0.4,0-0.4-0.2
			c0-0.4,1.2,0,1.2-1.9V35H117.4z M119.3,37.7c0,0.3,0.6,0.3,1,0.3c2.3,0,2.4-0.9,2.4-1.8c0-1.4-0.9-2.5-2.3-2.5c-0.6,0-1,0-1,0.9
			L119.3,37.7L119.3,37.7z"/>
		<path id="XMLID_285_" class="st0" d="M131.3,41.9c0,1.9,1.7,1.2,1.7,1.7c0,0.1-0.1,0.2-0.4,0.2c-0.6,0-1.1-0.1-2.3-0.1
			c-0.7,0-1.3,0.1-1.7,0.1c-0.1,0-0.2-0.1-0.2-0.2c0-0.6,1.1-0.1,1.1-1.5v-7.2c0-1.3-1.7-1-1.7-1.4c0-0.2,0.3-0.2,0.6-0.2
			c0.6,0,1.2,0.1,1.7,0.1c0.6,0,1.1-0.1,2-0.1c0.4,0,0.6,0,0.6,0.2c0,0.6-1.1,0-1.1,1.4v7.1H131.3z"/>
		<path id="XMLID_283_" class="st0" d="M138.5,37c0,0.7,0,0.8,0.7,0.8h1c1.3,0,1.3-1.4,1.7-1.4c0.1,0,0.2,0,0.3,0.3l0.1,2.7
			c0,0.2,0.1,0.8-0.2,0.8c-0.4,0-0.1-1.5-1.7-1.5h-1.1c-0.7,0-0.7,0.2-0.7,1.1v1.9c0,0.9-0.1,1.4,1,1.4c3.8,0,3.5-2,4.1-2
			c0.1,0,0.1,0,0.1,0.3c0,1.2-0.9,2.4-2.1,2.4c-2.3,0-3.2-0.1-4-0.1c-0.4,0-1.1,0.1-1.9,0.1c-0.2,0-0.3-0.1-0.3-0.1
			c0-0.7,1.1,0.1,1.1-1.8v-7.1c0-1.3-1.7-0.9-1.7-1.4c0-0.1,0.1-0.2,0.3-0.2c0.7,0,1.7,0.1,4,0.1c1.1,0,2.1-0.1,3.4-0.1
			c0.2,0,0.3,0.1,0.3,0.3l0.1,1.5c0,0.2,0.1,0.7-0.2,0.7c-0.7,0,0.4-1.8-2.4-1.8c-1.9,0-1.9,0-1.9,1.1v2H138.5z"/>
		<path id="XMLID_281_" class="st0" d="M146.3,40.7c0-0.2-0.2-0.7,0.2-0.7c0.2,0,0.2,0.1,0.3,0.3c0.4,1.4,1.4,2.8,3.1,2.8
			c1.2,0,2.1-0.8,2.1-1.9c0-1.3-1-1.4-3.4-2.5c-1.3-0.6-2.2-1.2-2.2-2.8c0-1.8,1.2-3,3-3c1.2,0,1.9,0.6,2.3,0.6
			c0.2,0,0.6-0.2,0.8-0.2s0.2,0.2,0.2,0.6l0.1,2c0,0.3,0,0.6-0.3,0.6c-0.3,0-0.6-2.8-3.2-2.8c-1,0-1.7,0.6-1.7,1.5s0.9,1.2,2.9,2.1
			c1.7,0.7,2.7,1.3,2.7,3.3c0,2-1.4,3.3-3.3,3.3c-0.9,0-1.7-0.3-2.5-0.6c-0.3-0.1-0.3-0.2-0.4-0.6L146.3,40.7z"/>
		<path id="XMLID_278_" class="st0" d="M162,36.8c0-0.3-0.3-0.6-0.3-1.4c0-1.4,1.1-2.3,2.5-2.3c1,0,1.9,0.6,2.1,0.6s0.2-0.2,0.4-0.2
			c0.1,0,0.1,0.1,0.1,0.3c0,0.8,0.1,1.5,0.2,2.3c0,0.1,0,0.2-0.2,0.2c-0.1,0-0.2-0.1-0.3-0.3c-0.3-1.2-1.2-2.3-2.5-2.3
			c-0.7,0-1.1,0.4-1.1,1.1c0,2.1,5,6.4,5.4,6.4c0.1,0,0.6-0.7,0.6-1.5c0-1.9-1.8-1.1-1.8-1.7c0-0.1,0.1-0.2,0.3-0.2s0.6,0.1,1.5,0.1
			c0.8,0,1-0.1,1.2-0.1c0.1,0,0.2,0,0.2,0.2c0,0.3-0.6,0.1-0.6,0.7c-0.3,2.2-0.9,2.9-0.9,3c0,0.6,1.7,1.4,2,1.4
			c0.6,0,0.6-0.1,0.8-0.1c0.1,0,0.2,0,0.2,0.2s-0.8,1-1.9,1c-0.9,0-2-0.8-2.4-1.2c-0.9,0.8-2.5,1.2-3.8,1.2c-3.4,0-4.5-2.3-4.5-3.6
			C159.7,37.6,162,36.9,162,36.8z M167.3,42.4c0-0.3-3.5-2.4-4.8-4.6c-0.1-0.2-0.3-0.4-0.4-0.4c-0.3,0-1.1,0.4-1.1,1.5
			c0,1.7,2.1,4.1,4.4,4.1C166.1,43,167.3,42.7,167.3,42.4z"/>
	</g>
	<g id="XMLID_215_">
		<path id="XMLID_275_" class="st0" d="M66.9,59c0,1.7,1.5,1,1.5,1.4c0,0.1-0.1,0.2-0.4,0.2c-0.6,0-1,0-2.1,0c-0.6,0-1.2,0-1.5,0
			c-0.1,0-0.1-0.1-0.1-0.1c0-0.4,1-0.1,1-1.4v-6.5c0-1.2-1.5-0.9-1.5-1.3c0-0.2,0.3-0.2,0.4-0.2c0.6,0,1.1,0,1.5,0c0.4,0,1,0,1.8,0
			c0.4,0,0.4,0,0.4,0.2c0,0.4-1,0-1,1.2V59z"/>
		<path id="XMLID_273_" class="st0" d="M71.3,53.7c0-2.7-1.5-1.8-1.5-2.3c0-0.1,0.1-0.2,0.2-0.2c0.2,0,0.6,0,0.8,0
			c0.3,0,0.7,0,1.4,0c0.4,0,0.2,0.1,0.6,0.3l5.4,6c0.2,0.2,0.3,0.3,0.4,0.3s0.1-0.1,0.1-0.6v-4.5c0-1.2-1.7-1-1.7-1.4
			c0-0.1,0-0.2,0.2-0.2s0.7,0,1.5,0c0.9,0,1.3,0,1.4,0c0.2,0,0.2,0.1,0.2,0.2c0,0.4-1.1,0.1-1.1,1.5v7.5c0,0.3,0,0.4-0.1,0.4
			c-0.2,0-0.2-0.1-0.3-0.2l-6.5-7.1c-0.1-0.1-0.2-0.2-0.2-0.2c-0.1,0-0.1,0.1-0.1,0.2v4.6c0,2.7,1.8,1.7,1.8,2.3
			c0,0.2-0.3,0.2-0.6,0.2c-0.7,0-1.1,0-1.5,0c-0.4,0-0.8,0-1.2,0c-0.1,0-0.4,0.1-0.4-0.1c0-0.6,1.3-0.3,1.3-1.7L71.3,53.7L71.3,53.7
			z"/>
		<path id="XMLID_271_" class="st0" d="M85,54.6c0,0.6,0,0.7,0.6,0.7h0.9c1.2,0,1.2-1.2,1.4-1.2c0.1,0,0.2,0,0.2,0.3l0.1,2.4
			c0,0.2,0.1,0.7-0.2,0.7c-0.4,0-0.1-1.4-1.4-1.4h-1c-0.7,0-0.6,0.1-0.6,1v2c0,1.5,1.5,1.2,1.5,1.5c0,0.2-0.3,0.2-0.7,0.2
			c-0.6,0-1,0-1.7,0c-0.4,0-1,0-1.8,0c-0.2,0-0.2-0.1-0.2-0.1c0-0.7,1,0.1,1-1.5v-6.5c0-1.2-1.5-0.8-1.5-1.3c0-0.1,0.1-0.2,0.3-0.2
			c0.6,0,1.5,0,3.6,0c1,0,1.9,0,3.1,0c0.2,0,0.2,0.1,0.2,0.2v1.3c0,0.2,0.1,0.7-0.2,0.7c-0.7,0,0.4-1.5-2.2-1.5c-1.7,0-1.7,0-1.7,1
			L85,54.6L85,54.6z"/>
		<path id="XMLID_268_" class="st0" d="M95.6,51c2.7,0,4.6,1.8,4.6,4.6c0,1.9-0.8,5.2-5.2,5.2c-2.8,0-4.5-1.9-4.5-4.5
			C90.5,53.2,92.4,51,95.6,51z M95.5,60.1c2.3,0,3.1-1.9,3.1-4.1c0-3-1.7-4.5-3.4-4.5c-2.3,0-3,1.9-3,3.9
			C92.2,57.4,93.1,60.2,95.5,60.1z"/>
		<path id="XMLID_257_" class="st0" d="M103,52.8c0-1.5-1.4-1-1.4-1.5c0-0.1,0.1-0.2,0.3-0.2c0.7,0,0.8,0,1.5,0c0.9,0,1.9,0,2.8,0
			c3,0,3.2,1.9,3.2,2.5c0,0.9-0.4,1.3-0.8,1.7c-0.4,0.3-0.8,0.4-0.8,0.6s1.1,2,2.1,3.8c0.1,0.2,0.3,0.2,0.4,0.2s0.2-0.1,0.4-0.1
			c0.1,0,0.2,0.1,0.2,0.2c0,0.4-0.9,0.7-1.4,0.7c-1.1,0-1.5-0.9-1.9-1.7l-1.1-2.1c-0.3-0.6-0.6-0.7-1.2-0.7c-0.7,0-0.7,0.1-0.7,0.6
			V59c0,1.4,1.3,0.9,1.3,1.3c0,0.1-0.1,0.2-0.4,0.2c-0.2,0-0.6,0-1.2,0c-0.8,0-1.4,0-2.1,0c-0.1,0-0.4,0-0.4-0.2
			c0-0.4,1.1,0,1.1-1.7C103,58.7,103,52.8,103,52.8z M104.7,55.2c0,0.3,0.6,0.3,0.9,0.3c2.1,0,2.1-0.8,2.1-1.5
			c0-1.3-0.8-2.3-2.1-2.3c-0.6,0-0.9,0-0.9,0.8V55.2z"/>
		<path id="XMLID_255_" class="st0" d="M114.2,58.4c-0.1,2.3,1.4,1.5,1.4,2.1c0,0,0,0.2-0.3,0.2c-0.4,0-0.8,0-1.4,0
			c-0.7,0-1.1,0-1.3,0s-0.2-0.1-0.2-0.2c0-0.4,1.1-0.1,1.2-1.5l0.2-5.4c0.1-2.2-1.3-1.5-1.3-2.2c0-0.1,0.1-0.2,0.1-0.2
			c0.2,0,0.3,0,0.8,0c0.3,0,0.8,0,1.2,0c0.1,0,0.3,0,0.4,0.4l3,6.5c0,0.1,0.1,0.2,0.2,0.2s0.2-0.2,0.2-0.3l3.1-6.5
			c0-0.1,0.1-0.2,0.3-0.2c0.3,0,0.6,0,0.8,0s0.6,0,0.9,0s0.4,0,0.4,0.1c0,0.4-1.3,0-1.3,1.5l0.2,6c0.1,1.8,1.3,1.2,1.3,1.7
			c0,0.2-0.2,0.2-0.7,0.2s-0.8,0-1.2,0c-0.9,0-1.2,0-1.5,0s-0.7,0-0.7-0.2c0-0.4,1.1,0,1-1.5l-0.2-4.1c0-0.4,0-0.7-0.1-0.7
			c0,0-0.2,0.2-0.4,0.7l-2.5,5.3c-0.1,0.2-0.1,0.3-0.3,0.3c-0.2,0-0.2-0.2-0.3-0.3l-2.7-5.9c0-0.1-0.1-0.2-0.1-0.2
			c-0.1,0-0.1,0.2-0.1,0.3L114.2,58.4z"/>
		<path id="XMLID_248_" class="st0" d="M128.3,57.4c-0.2,0-0.6,0-0.8,1c-0.1,0.2-0.3,0.8-0.3,1.1c0,1,1.4,0.8,1.4,1.1
			c0,0.3-0.4,0.2-0.7,0.2c-0.4,0-0.9,0-1.3,0c-0.4,0-0.8,0-1.2,0c-0.2,0-0.4,0-0.4-0.1c0-0.3,0.7-0.2,1-1l3.6-8.2
			c0.1-0.2,0.1-0.4,0.3-0.4c0.1,0,0.1,0,0.3,0.4l3.6,8.3c0.4,1,1.2,0.4,1.2,0.9c0,0.2-0.1,0.2-0.4,0.2c-0.4,0-0.9,0-1.8,0
			c-0.6,0-1.1,0-1.4,0c-0.2,0-0.4,0-0.4-0.1c0-0.4,1-0.2,1-1.1c0-0.3-0.1-0.6-0.2-0.9c-0.4-1.1-0.6-1.2-0.9-1.2h-2.7L128.3,57.4
			L128.3,57.4z M130.6,56.6c0.2,0,0.4,0,0.4-0.1c0-0.2-0.1-0.3-0.1-0.6l-1.1-2.4c-0.1-0.1,0-0.1-0.1-0.1c0,0-0.1,0-0.1,0.1l-1.2,2.4
			c-0.1,0.1-0.1,0.3-0.1,0.6c0,0.1,0.2,0.1,0.4,0.1H130.6z"/>
		<path id="XMLID_241_" class="st0" d="M138.8,52.6c0-0.7-0.1-0.8-0.7-0.8h-1.1c-1.5,0-1.1,1.8-1.8,1.8c-0.3,0-0.2-0.3-0.2-0.4
			l0.2-1.8c0-0.1,0-0.3,0.2-0.3c1.2,0,2.1,0,4.1,0c2,0,2.5,0,3.8,0c0.2,0,0.2,0.2,0.2,0.3l0.3,1.2c0,0.1,0.2,0.7-0.2,0.7
			c-0.6,0-0.1-1.5-1.7-1.4h-1c-0.6,0-0.4,0.1-0.4,0.8v6.1c0,1.7,1.8,1.3,1.8,1.7c0,0.3-0.2,0.3-0.7,0.3c-0.6,0-1,0-1.9,0
			s-1.3,0-1.9,0c-0.2,0-0.4,0-0.4-0.3c0-0.6,1.5,0.1,1.5-1.4v-6.3H138.8z"/>
		<path id="XMLID_237_" class="st0" d="M148.3,59c0,1.7,1.5,1,1.5,1.4c0,0.1-0.1,0.2-0.4,0.2c-0.6,0-1,0-2.1,0c-0.6,0-1.2,0-1.5,0
			c-0.1,0-0.1-0.1-0.1-0.1c0-0.4,1-0.1,1-1.4v-6.5c0-1.2-1.5-0.9-1.5-1.3c0-0.2,0.3-0.2,0.4-0.2c0.6,0,1.1,0,1.5,0s1,0,1.8,0
			c0.4,0,0.4,0,0.4,0.2c0,0.4-1,0-1,1.2V59z"/>
		<path id="XMLID_232_" class="st0" d="M156.1,51c2.7,0,4.6,1.8,4.6,4.6c0,1.9-0.8,5.2-5.2,5.2c-2.8,0-4.5-1.9-4.5-4.5
			C151,53.2,152.7,51,156.1,51z M156,60.1c2.3,0,3.1-1.9,3.1-4.1c0-3-1.7-4.5-3.4-4.5c-2.3,0-3,1.9-3,3.9
			C152.6,57.4,153.5,60.2,156,60.1z"/>
		<path id="XMLID_229_" class="st0" d="M163.2,53.7c0-2.7-1.5-1.8-1.5-2.3c0-0.1,0.1-0.2,0.2-0.2c0.2,0,0.6,0,0.8,0
			c0.3,0,0.7,0,1.4,0c0.4,0,0.2,0.1,0.6,0.3l5.4,6c0.2,0.2,0.3,0.3,0.4,0.3s0.1-0.1,0.1-0.6v-4.5c0-1.2-1.7-1-1.7-1.4
			c0-0.1,0-0.2,0.2-0.2s0.7,0,1.5,0c0.9,0,1.3,0,1.4,0c0.2,0,0.2,0.1,0.2,0.2c0,0.4-1.1,0.1-1.1,1.5v7.5c0,0.3,0,0.4-0.1,0.4
			c-0.2,0-0.2-0.1-0.3-0.2l-6.5-7.1c-0.1-0.1-0.2-0.2-0.2-0.2c-0.1,0-0.1,0.1-0.1,0.2v4.6c0,2.7,1.8,1.7,1.8,2.3
			c0,0.2-0.3,0.2-0.6,0.2c-0.7,0-1.1,0-1.5,0s-0.8,0-1.2,0c-0.1,0-0.4,0.1-0.4-0.1c0-0.6,1.3-0.3,1.3-1.7L163.2,53.7L163.2,53.7z"/>
	</g>
	<g id="XMLID_108_">
		<path id="XMLID_209_" class="st0" d="M65.5,69.1c0-0.6-0.1-0.6-0.6-0.6h-0.6c-1.2,0-0.9,1.4-1.3,1.4c-0.2,0-0.1-0.2-0.1-0.3
			l0.2-1.4c0-0.1,0-0.2,0.2-0.2c1,0,1.3,0,2.9,0c1.5,0,2.2,0,3.2,0c0.1,0,0.1,0.1,0.2,0.2l0.1,1c0,0.1,0.1,0.6-0.1,0.6
			c-0.4,0-0.1-1.2-1.3-1.1h-0.9c-0.4,0-0.6,0-0.6,0.6v4.8c0,1.3,1.3,1,1.3,1.3c0,0.2-0.2,0.2-0.6,0.2c-0.4,0-0.8,0-1.4,0
			s-1.1,0-1.4,0c-0.2,0-0.3,0-0.3-0.2c0-0.4,1.2,0.1,1.2-1.2v-5H65.5z"/>
		<path id="XMLID_207_" class="st0" d="M76.2,70.6c0,0.4,0,0.6,0.4,0.6h0.7c0.9,0,1-1,1.1-1s0.2,0,0.2,0.2l0.1,1.9
			c0,0.1,0.1,0.6-0.2,0.6c-0.3,0,0-1.1-1.1-1.1h-0.8c-0.4,0-0.4,0.1-0.4,0.8v1.3c0,0.7,0,1,0.8,1c2.7,0,2.4-1.4,2.9-1.4
			c0,0,0.1,0,0.1,0.2c0,0.8-0.7,1.7-1.4,1.7c-1.7,0-2.2,0-2.8,0c-0.3,0-0.8,0-1.3,0c-0.1,0-0.2,0-0.2-0.1c0-0.4,0.8,0.1,0.8-1.2
			v-4.8c0-1-1.2-0.7-1.2-1c0-0.1,0.1-0.2,0.2-0.2c0.4,0,1.2,0,2.8,0c0.8,0,1.4,0,2.4,0c0.1,0,0.2,0.1,0.2,0.2v1
			c0,0.1,0.1,0.4-0.2,0.4c-0.4,0,0.3-1.2-1.7-1.2c-1.3,0-1.3,0-1.3,0.8C76.2,69.2,76.2,70.6,76.2,70.6z"/>
		<path id="XMLID_205_" class="st0" d="M90.9,70.2c0,0.1,0,0.3-0.1,0.3c-0.2,0-0.2-0.2-0.3-0.3c-0.6-1-1.4-1.9-2.7-1.9
			c-1.5,0-2.4,1.4-2.4,2.9c0,1.4,0.9,3.5,2.9,3.5c1.7,0,2.3-1.4,2.7-1.4c0,0,0.1,0,0.1,0.1c0,0.4-1.1,2-3.4,2
			c-3.1,0-3.5-2.7-3.5-3.5c0-1.8,1.1-4.1,3.8-4.1c1.3,0,2.1,0.7,2.4,0.7c0.2,0,0.2-0.3,0.3-0.3c0,0,0.1,0,0.1,0.1L90.9,70.2z"/>
		<path id="XMLID_165_" class="st0" d="M102.7,73.9c0,1.3,1.1,1,1.1,1.3c0,0.1-0.1,0.1-0.2,0.1c-0.3,0-1,0-1.4,0c-0.3,0-0.8,0-1.3,0
			c-0.1,0-0.2,0-0.2-0.1c0-0.3,0.8-0.1,0.8-1.1v-1.9c0-0.4,0-0.6-0.4-0.6H98c-0.4,0-0.6,0.1-0.6,0.6v1.7c0,1.3,1.3,0.9,1.3,1.3
			c0,0.1,0,0.1-0.3,0.1c-0.4,0-0.8,0-1.5,0c-0.4,0-0.9,0-1.4,0c-0.1,0-0.2,0-0.2-0.1c0-0.4,0.9,0,0.9-1.3v-4.8
			c0-1.1-1.2-0.7-1.2-1.1c0-0.1,0.3-0.2,0.6-0.2c0.3,0,0.7,0,1.2,0c0.7,0,1.1,0,1.3,0c0.1,0,0.2,0,0.2,0.1c0,0.3-0.8,0-0.8,1v1.7
			c0,0.3,0,0.4,0.2,0.4h3.1c0.3,0,0.3-0.2,0.3-0.4v-1.4c0-1.2-1.2-0.8-1.2-1.1c0-0.2,0.1-0.2,0.2-0.2c0.4,0,0.7,0,1.3,0
			c0.6,0,1,0,1.4,0c0.2,0,0.2,0,0.2,0.1c0,0.4-0.8,0-0.8,1v5H102.7z"/>
		<path id="XMLID_162_" class="st0" d="M109.2,70c0-2-1.2-1.3-1.2-1.9c0-0.1,0-0.2,0.2-0.2s0.4,0,0.6,0c0.2,0,0.6,0,1.1,0
			c0.3,0,0.2,0.1,0.4,0.2l4.2,4.6c0.1,0.1,0.2,0.2,0.3,0.2c0.1,0,0.1-0.1,0.1-0.4v-3.3c0-1-1.3-0.8-1.3-1.1c0-0.1,0-0.2,0.2-0.2
			c0.2,0,0.4,0,1.2,0c0.7,0,1,0,1.1,0c0.2,0,0.2,0.1,0.2,0.1c0,0.3-0.9,0.1-0.9,1.2v6c0,0.2,0,0.3-0.1,0.3s-0.2-0.1-0.2-0.1
			l-5.1-5.5c-0.1-0.1-0.1-0.1-0.2-0.1s-0.1,0.1-0.1,0.2v3.5c0,2,1.3,1.3,1.3,1.8c0,0.1-0.2,0.1-0.4,0.1c-0.6,0-0.9,0-1.2,0
			c-0.3,0-0.7,0-0.9,0c-0.1,0-0.3,0-0.3-0.1c0-0.4,1-0.2,1-1.3V70z"/>
		<path id="XMLID_124_" class="st0" d="M124.5,67.9c2.1,0,3.6,1.3,3.6,3.5c0,1.4-0.7,4.1-4,4.1c-2.1,0-3.5-1.4-3.5-3.5
			C120.6,69.6,122,67.9,124.5,67.9z M124.5,75c1.8,0,2.4-1.4,2.4-3.2c0-2.3-1.3-3.5-2.7-3.5c-1.8,0-2.3,1.4-2.3,3
			C121.9,72.8,122.6,75,124.5,75z"/>
		<path id="XMLID_118_" class="st0" d="M134.7,73.8c0,0.7,0,1,0.8,1c2.7,0,2.4-1.4,2.9-1.4c0,0,0.1,0,0.1,0.2c0,0.8-0.7,1.7-1.4,1.7
			c-1.7,0-2.2,0-2.8,0c-0.3,0-0.8,0-1.3,0c-0.1,0-0.2,0-0.2-0.1c0-0.4,0.8,0.1,0.8-1.2v-5c0-0.9-1.2-0.7-1.2-1
			c0-0.1,0.1-0.2,0.3-0.2c0.4,0,1,0,1.4,0c0.9,0,1,0,1.2,0c0.2,0,0.2,0,0.2,0.1c0,0.4-0.8,0-0.8,0.8L134.7,73.8L134.7,73.8z"/>
		<path id="XMLID_113_" class="st0" d="M146.2,67.9c2.1,0,3.6,1.3,3.6,3.5c0,1.4-0.7,4.1-4,4.1c-2.1,0-3.5-1.4-3.5-3.5
			C142.4,69.6,143.8,67.9,146.2,67.9z M146.2,75c1.8,0,2.4-1.4,2.4-3.2c0-2.3-1.3-3.5-2.7-3.5c-1.8,0-2.3,1.4-2.3,3
			C143.7,72.8,144.3,75,146.2,75z"/>
		<path id="XMLID_111_" class="st0" d="M161.1,70.4c0,0.1-0.1,0.2-0.2,0.2c-0.2,0-0.2-2.3-3-2.3c-1,0-2.4,0.7-2.4,3.3
			c0,1.4,0.8,3.3,2.4,3.3c1.9,0,1.9-0.9,1.9-1.5c0-1.7-1.2-0.9-1.2-1.3c0-0.3,0.3-0.2,0.6-0.2c0.6,0,1,0,1.4,0c0.4,0,0.8,0,1.1,0
			c0,0,0.1,0,0.1,0.1c0,0.4-0.8-0.1-0.8,1.2c0,0.4,0,0.8,0,0.9c0,0.2,0,0.2-0.1,0.2c-1,0.6-2.2,1-3.3,1c-3.1,0-3.5-2.7-3.5-3.5
			c0-1.8,1.1-4.1,3.8-4.1c1.4,0,2.3,0.7,2.7,0.7c0.2,0,0.2-0.3,0.4-0.3c0.1,0,0.1,0.2,0.1,0.4v2C161,70.4,161.1,70.4,161.1,70.4z"/>
		<path id="XMLID_109_" class="st0" d="M166.8,68.9c-0.4-0.8-1.1-0.4-1.1-0.9c0-0.1,0.1-0.1,0.3-0.1s0.4,0,1,0c0.4,0,0.9,0,1.5,0
			c0.1,0,0.2,0.1,0.2,0.1c0,0.2-0.6,0.1-0.6,0.6c0,0.1,0,0.2,0.1,0.4l1,2c0.2,0.3,0.2,0.4,0.3,0.4c0.1,0,0.1-0.1,0.2-0.3l1-1.8
			c0.2-0.3,0.2-0.6,0.2-0.6c0-0.7-1-0.4-1-0.8c0-0.1,0.1-0.1,0.2-0.1s0.3,0,0.9,0c0.8,0,0.9,0,1.2,0c0.1,0,0.2,0,0.2,0.1
			c0,0.3-0.4,0.1-1.1,1.2l-1.4,2.7c-0.1,0.2-0.1,0.3-0.1,0.7V74c0,1.3,1.3,0.6,1.3,1.1c0,0.1-0.1,0.1-0.3,0.1c-0.1,0-0.2,0-1.5,0
			c-1,0-1.2,0-1.5,0c-0.2,0-0.3,0-0.3-0.1c0-0.4,1.1,0.1,1.1-1.2v-1.3c0-0.3,0-0.4-0.2-0.7L166.8,68.9z"/>
	</g>
</g>
</svg>
