<?xml version="1.0" encoding="utf-8"?>
<!-- Generator: Adobe Illustrator 19.2.1, SVG Export Plug-In . SVG Version: 6.00 Build 0)  -->
<svg version="1.1" id="Layer_1" xmlns="http://www.w3.org/2000/svg" xmlns:xlink="http://www.w3.org/1999/xlink" x="0px" y="0px"
	 viewBox="0 0 174.3 75.3" style="enable-background:new 0 0 174.3 75.3;" xml:space="preserve">
<style type="text/css">
	.st0{fill:#FFFFFF;}
</style>
<g id="XMLID_107_">
	<g id="XMLID_304_">
		<g id="XMLID_305_">
			<g id="XMLID_441_">
				<g id="XMLID_563_">
					<path id="XMLID_564_" class="st0" d="M20.5,43.8C-0.8,34,1.8,11.9,1.8,1.7h37.8C39.4,12,41.9,34,20.5,43.8z M1.8,0L0.1,1.7
						c0,1.2,0,2.8-0.1,3.5c-0.1,12.1,0.7,30.9,20.3,40C30.7,40.3,38.6,32,40.6,19.2c1.2-7.4,0.4-14.5,0.4-19.2H1.8z"/>
				</g>
				<g id="XMLID_552_">
					<path id="XMLID_104_" class="st0" d="M12.5,27c-1.5,1.7-3,3.2-3.5,3.8c-0.1,0.1-0.1,0.2-0.1,0.3c0.1,0.1,0.2,0.2,0.3,0.2
						s0.1,0.1,0.3-0.1c0.1-0.1,1.8-1.7,3.6-3.5c0,0-0.2-0.1-0.3-0.2C12.7,27.3,12.5,27,12.5,27z"/>
					<g id="XMLID_560_">
						<path id="XMLID_103_" class="st0" d="M13.5,26.6c0.3,0.3,1,0.8,1,0.8l-0.3,0.3c-0.1,0.1-0.7-0.1-1.1-0.6
							c-0.4-0.4-0.8-0.9-0.7-1l0.3-0.3C12.8,25.8,13,26.3,13.5,26.6z"/>
					</g>
					<g id="XMLID_553_">
						<g id="XMLID_557_">
							<g id="XMLID_558_">
								<path id="XMLID_102_" class="st0" d="M30.7,30.8c0.3-0.3,0.3-0.6,0.3-0.6l0.3,0.1c0.1,0.1,0,0.6-0.3,0.8
									c-0.3,0.3-0.8,0.4-0.9,0.3L30,31C30,31,30.4,31,30.7,30.8z"/>
							</g>
						</g>
						<g id="XMLID_554_">
							<g id="XMLID_555_">
								<path id="XMLID_101_" class="st0" d="M30.1,30.1c0.2-0.2,0.2-0.4,0.2-0.4l0.2,0.1c0.1,0.1,0,0.3-0.2,0.6
									c-0.2,0.2-0.6,0.3-0.7,0.2v-0.1C29.7,30.5,29.9,30.4,30.1,30.1z"/>
							</g>
						</g>
					</g>
				</g>
				<g id="XMLID_550_">
					<path id="XMLID_100_" class="st0" d="M31.3,13l-0.4,0.3c-0.6,0.2-1.8-0.8-2.8-1.7c-0.7-0.6-2-2-1.5-2.6l0.2-0.2
						c-0.1-0.1-0.2-0.1-0.3-0.2c-0.1-0.1-0.2-0.1-0.4-0.1c-0.1,0-0.3,0.1-0.3,0.2c0,0.2,0.1,0.7,0.3,1c0.2,0.4,1,1.7,2.6,2.9
						c0.8,0.6,1.7,1,2.2,1.2c0.1,0,0.6,0.1,0.7,0c0.2-0.2,0-0.4-0.1-0.8C31.4,13.1,31.3,13,31.3,13z"/>
				</g>
				<path id="XMLID_99_" class="st0" d="M30.5,9.2"/>
				<path id="XMLID_98_" class="st0" d="M29.6,8.8"/>
				<path id="XMLID_543_" class="st0" d="M14.1,6.8c0,0.1,0,0.2,0,0.4c0,0.4,0.3,3.8,2.3,6.1c1.7,2.1,6.6,7.9,7.4,8.9
					c0.8,0.9,5.6,6.6,6.3,7.3l0.1,0.1c0,0-0.1,0.1-0.2,0.2C29.9,30,29.7,30,29.7,30l-0.1-0.1c-0.2-0.2-8.6-8.6-9.5-9.5
					c-0.8-0.8-5.2-5-7-6.2c-1.5-1-2.2-1.5-4-1.7c0,0-1.2,0-1.3-0.1v-0.1c0.8-0.3,2.4-1.2,3.6-2.5c1.8-1.8,2.4-3,2.5-3.1
					C14,6.8,14.1,6.7,14.1,6.8z M15.4,14c-1.8-1.8-2.4-2.1-3.2-2.5c-0.4-0.2-0.8-0.3-1-0.2c-0.3,0.1-0.9,0.3-1.2,0.7
					c-0.2,0.2-0.2,0.3-0.1,0.3c0.1,0.1,1,0.2,1.9,0.7c1.4,0.8,4.1,2.6,9.9,8.6c3,3.1,7.6,7.8,7.6,7.8l0.1-0.1c0,0-6.7-7.6-12-13.2
					C16.6,15.2,15.9,14.6,15.4,14z"/>
				<path id="XMLID_95_" class="st0" d="M31.1,12.9"/>
				<path id="XMLID_539_" class="st0" d="M10.1,10.4c-0.8,0.7-1.8,1.2-2.5,1.5c-0.6,0.2-1.3,0-0.8-1.1c0.1-0.3,0.4-0.7,0.8-1.1
					c1-1.3,2.9-3,4.6-4c0.6-0.3,1-0.4,1.2-0.4c0.4,0,0.4,0.4,0.3,0.8C13.6,6.8,12.3,8.6,10.1,10.4z M10.6,9.4
					c0.2-0.2,0.9-0.9,1.4-1.5c0.7-0.8,1-1.4,1-1.4s0.1-0.2,0.1-0.3S13,6,12.9,5.9c-0.1-0.1-1.5,0.7-2.2,1.2
					c-0.1,0.1-0.2,0.3-0.3,0.7C10.4,7.9,10.9,8.5,10.6,9.4C10.5,9.4,10.6,9.4,10.6,9.4z"/>
				<path id="XMLID_92_" class="st0" d="M14.1,7.1"/>
				<g id="XMLID_535_">
					<path id="XMLID_91_" class="st0" d="M19.9,21c-0.3,0.3-5.9,5.6-5.9,5.6c0.1,0.1,0.3,0.2,0.3,0.2s5.1-4.9,5.4-5.2
						c0.1-0.1,0.3-0.3,0.4-0.3L19.9,21z"/>
					<path id="XMLID_90_" class="st0" d="M30.3,14.5c0.1,0,0.1,0,0.2,0c0.1,0,0.2,0,0.2,0s0.1-0.1,0-0.1c-0.2,0-0.8-0.1-1.2-0.4
						c-0.3,0.1-0.9,0.2-1.4,0.6c-0.8,0.3-2.5,1.4-6.1,4.6l0.3,0.3c1.2-1.1,2.9-2.5,3.8-3.1c1.5-1,2.8-1.5,3.5-1.7
						C29.6,14.6,29.9,14.5,30.3,14.5z"/>
				</g>
				<g id="XMLID_532_">
					<path id="XMLID_89_" class="st0" d="M26.7,11.9c-1-1-1.3-1.8-1.4-2.3l0,0c0,0,0,0-0.1,0c0,0,0,0,0,0.1c-0.1,1,0,1.4-0.4,2.5
						c-0.3,0.9-1,2-1.9,3.1c-0.6,0.6-1.4,1.5-2.2,2.5l0.6,0.7c0.1-0.1,0.2-0.2,0.4-0.4c2.8-2.9,5.1-4.6,5.9-5.3
						C27.3,12.5,27.1,12.1,26.7,11.9z"/>
					<path id="XMLID_88_" class="st0" d="M18.8,20c-1.1,1.3-2.3,2.5-2.6,3c-0.3,0.3-2.8,3-2.8,3s0.1,0.1,0.1,0.2
						c0.1,0.1,0.2,0.2,0.2,0.2s5.2-5.4,5.6-5.7L18.8,20z"/>
				</g>
				<path id="XMLID_87_" class="st0" d="M27.7,8.4V8.3c-0.2-0.1-0.4-0.1-0.6,0c-0.3,0.3,0.4,1.7,1.7,2.9c1.3,1.2,2.6,1.9,3,1.4
					c0.1-0.1,0.1-0.4-0.1-0.8C29.8,12,27.7,9.5,27.7,8.4z"/>
				<path id="XMLID_528_" class="st0" d="M33.5,8.8c-0.2,0.2-0.4,0.7-0.7,0.9c0.2-0.2,0.3-0.7,0.1-1.8c-0.1-0.8-0.2-1.1-0.3-1.3
					c-0.1-0.1-0.1-0.1-0.2,0C32.2,6.7,32,7.2,32,7.2c0,0.1,0,0-0.3-1.1c-0.2-0.8-0.3-1.2-0.3-1.5c0-0.1,0-0.2,0-0.3
					c0-0.1,0-0.1-0.3,0c-0.1,0-1.1,0.8-1.5,1.8c-0.2,0.6-0.2,1.1-0.3,0.8c0-0.6,0-0.6-0.1-0.6c-0.3,0.1-1.4,0.7-1.4,2.2
					c0,1.3,2.4,4.1,4.4,3.4c0,0,1.5-0.3,1.5-1.7C33.7,8.7,33.5,8.8,33.5,8.8z M33,10.5c-0.1,0.1-0.3,0.4-0.8,0.7
					c-0.4,0.2-1.1,0.2-1.4,0.1c-1.4-0.4-2.3-2-2.3-2c-1.2-1.9,0.4-2.6,0.6-2.6c0,0-0.1,0.7-0.1,1c0.1,0.3,0.3,0.7,0.3,0.9
					c0.1,0.4,0,0.7-0.1,0.9c0,0.1,0.1,0,0.1,0s0,0,0.1-0.1c0.2-0.1,0.4-0.4,0.3-0.7c-0.1-0.6-0.6-1-0.1-2.1c0.3-0.8,1-1.4,1.1-1.4
					C30.8,5,30.9,4.9,30.9,5c0,0.1,0.1,0.7,0.2,1c0.1,0.3,0.4,1.1,0.3,2c-0.1,1-1.7,2.1-1.9,2.1c-0.1,0-0.2,0.1-0.2,0.1
					c-0.1,0.1,0,0.1,0.1,0.1c0.1,0,0.8-0.1,1.3-0.6c0.4-0.3,0.9-0.8,1-1.1c0.3-0.6,0.4-1.2,0.4-1.3c0-0.1,0.1-0.1,0.1,0
					c0,0.1,0.1,0.4,0.2,0.7c0,0.1,0.1,0.4,0.1,0.9c0,0.8-0.2,1.1-0.7,1.4c-0.2,0.2-0.6,0.2-0.8,0.3h-0.1c0,0-0.1,0,0,0.1h0.1
					c0.2,0.1,0.8,0.1,1.1-0.1c0.1-0.1,0.3-0.2,0.7-0.6c0.1-0.1,0.2-0.3,0.2-0.2C33.1,9.9,33.1,10.3,33,10.5z"/>
			</g>
			<g id="XMLID_306_">
				<g id="XMLID_307_">
					<path id="XMLID_409_" class="st0" d="M122,2.2c6.5,0,10.6,6,10.6,12c0,6.2-3.9,10-8.8,10c-6.6,0-10.6-6-10.6-12.1
						C113.2,6.8,116.4,2.2,122,2.2z M122.4,25.3c7.4,0,12.6-4.9,12.6-12.4c0-7-5.2-11.8-12-11.8s-12.3,5.1-12.3,12
						C110.7,20.2,115.2,25.3,122.4,25.3z"/>
					<path id="XMLID_314_" class="st0" d="M141.8,4c0-1.2,0.7-1.2,1.9-1.2c3.2,0,6.2,1.3,6.2,5.3s-3.1,4.6-4.5,4.6
						c-1.5,0-3.5,0.1-3.5-0.4V4z M148.2,12.9c2.3-0.9,4.1-3.1,4.1-5.6c0-6.3-7.2-5.6-7.7-5.6c-1.7,0-3.5,0.1-5.4,0.1
						c-1.7,0-1.5-0.1-2.1-0.1c-0.4,0-0.7,0.2-0.7,0.4c0,1.1,2.8-0.2,2.8,2.9v16.5c0,2.4-2.3,2-2.3,2.9c0,0.2,0.1,0.3,0.3,0.3
						c1.2,0,2.4-0.1,3.6-0.1c2.6,0,3.4,0.1,3.8,0.1c0.2,0,0.6,0.1,0.6-0.2c0-1.1-3.4-0.1-3.4-2.9v-6.8c0-0.3-0.2-0.9,0.9-0.9
						c3.6,0,3.2-0.1,4.3,1.8l3.6,5.6c1.2,1.9,2.5,3.5,4.9,3.5c0.3,0,2.9,0,2.9-0.4c0-0.8-2.3,0.4-4.6-3.2L148.2,12.9z"/>
					<path id="XMLID_312_" class="st0" d="M157.7,3.8c-0.9-1.4-2.4-1-2.4-1.5c0-0.2,0.2-0.4,0.4-0.4c0.9,0,1.4,0.1,3.6,0.1
						c1.1,0,2-0.1,2.3-0.1c0.2,0,0.7,0,0.7,0.3c0,0.6-1.5,0.6-1.5,1.5c0,0.6,0.4,1,0.6,1.3l3.9,6.3c0.2,0.4,0.4,0.6,0.7,0.6
						c0.1,0,0.3-0.2,0.7-0.7l3.3-5.4c0.2-0.3,0.7-0.9,0.7-1.8c0-1.5-2.4-0.9-2.4-1.7c0-0.4,0.3-0.4,0.7-0.4c0.8,0,1.5,0.1,2.3,0.1
						c0.9,0,1.9-0.1,2.8-0.1c0.2,0,0.3,0.2,0.3,0.4c0,0.3-0.6,0.4-0.8,0.7c-0.9,0.6-1.3,1.4-1.8,2.2l-4.5,7.1
						c-0.6,0.8-0.8,1-0.8,1.4v7.9c0,2.9,2.6,1.9,2.6,2.9c0,0.3-0.3,0.3-0.8,0.3s-2.3-0.1-3.5-0.1c-1.4,0-2.6,0.1-2.9,0.1
						c-0.3,0-0.4,0-0.4-0.4c0-0.9,2.5-0.1,2.5-2.3v-7.8c0-0.7-0.4-1.2-0.8-1.7L157.7,3.8z"/>
					<path id="XMLID_310_" class="st0" d="M107,21.6c0.1,2.8,2.5,1.5,2.5,2.6c0,0.3-0.4,0.3-0.8,0.3c-0.7,0-1.8-0.1-3.1-0.1
						c-1,0-2,0.1-2.8,0.1c-0.3,0-0.3-0.1-0.3-0.3c0-1,2.1-0.2,2-2.6l-0.9-12.6c0-0.8-0.1-1.2-0.3-1.2c-0.2,0-0.6,0.3-0.9,1
						l-6.7,13.7c-0.2,0.3-0.7,1.7-1,1.7s-0.6-0.7-0.7-1L87.2,8.7c-0.1-0.2-0.2-0.3-0.4-0.3c-0.1,0-0.2,0.1-0.2,0.4l-1,11.4
						c-0.1,4.3,2.9,2.9,2.9,4.1c0,0.3-0.3,0.3-0.8,0.3c-0.4,0-1.9-0.1-2.9-0.1c-1.7,0-2.2,0.1-2.9,0.1c-0.2,0-0.3-0.1-0.3-0.4
						c0-1.1,2.1,0.2,2.3-3.2c0.4-5.3,0.8-8.7,0.8-12.1c0-7.6-2.5-5.9-2.5-7c0-0.3,0.2-0.3,0.6-0.3c0.6,0,1.2,0.1,1.8,0.1
						c0.6,0,1.1-0.1,1.8-0.1c0.4,0,0.6,0.6,0.7,0.9l7.7,16.5c0.3,0.7,0.4,1,0.7,1c0.1,0,0.4-0.7,1-1.8L104,2.6
						c0.2-0.3,0.4-1.1,0.9-1.1c0.3,0,1.3,0.1,1.5,0.1c0.8,0,1-0.1,1.5-0.1c0.2,0,0.3,0.2,0.3,0.4c0,1-2.5-0.3-2.4,3.5L107,21.6z"/>
					<path id="XMLID_308_" class="st0" d="M67.7,11.2c0,1.1-0.1,1.1,1.2,1.1h3.5c3.3,0,2.5-2.6,3.3-2.6c0.2,0,0.3,0.3,0.3,0.7
						c0,1.1,0,2.2,0,3.3c0,0.9,0,1.7,0,2.5c0,0.3-0.1,0.4-0.3,0.4c-1,0,0.1-2.9-2.6-2.9h-4.7c-0.7,0-0.6,0.6-0.6,1v6
						c0,1.9-0.2,2.6,2.4,2.6c7.5,0,8.6-3.3,8.9-3.3c0.2,0,0.2,0.3,0.2,0.4c0,1.2-0.9,2.3-1.7,3.2c-1,1.2-1.8,1.1-3.2,1.1
						c-2.4,0-4.9-0.2-7.4-0.1c-1.3,0-2.6,0.1-4,0.1c-0.3,0-0.4-0.1-0.4-0.3c0.1-0.4,0.4-0.3,1.4-0.9c0.9-0.4,0.9-1.3,0.9-2.9V5.9
						c0-1.4,0-3-1.8-3.3c-0.2-0.1-1-0.1-1-0.6c0-0.2,0.2-0.4,1.1-0.4c6.1,0,7.7,0.1,9.2,0.1c0.7,0,3.6-0.1,4.6-0.1
						c0.2,0,0.3,0.3,0.3,0.7c0,3.6-0.4,3.9-0.7,3.9c-0.8,0-0.2-1.5-0.8-2.3c-0.9-1.1-4.2-0.9-5.5-0.9c-3.1,0-3.1-0.1-3.1,2.1v6.2
						H67.7z"/>
				</g>
			</g>
		</g>
	</g>
	<g id="XMLID_277_">
		<path id="XMLID_302_" class="st0" d="M66.9,41.5c0,0.9-0.1,1.4,1,1.4c3.8,0,3.5-2,4.1-2c0.1,0,0.2,0,0.2,0.3
			c0,1.2-0.9,2.4-2.1,2.4c-2.3,0-3.1-0.1-3.9-0.1c-0.4,0-1.1,0.1-1.9,0.1c-0.2,0-0.3-0.1-0.3-0.1c0-0.7,1.1,0.1,1.1-1.8v-7.2
			c0-1.3-1.7-0.9-1.7-1.4c0-0.1,0.1-0.2,0.4-0.2c0.6,0,1.4,0.1,2.1,0.1c1.3,0,1.4-0.1,1.7-0.1c0.3,0,0.4,0,0.4,0.2
			c0,0.6-1.1,0-1.1,1.2L66.9,41.5L66.9,41.5z"/>
		<path id="XMLID_300_" class="st0" d="M77.1,41.8c0,1.9,1.7,1.2,1.7,1.7c0,0.1-0.1,0.2-0.4,0.2c-0.6,0-1.1-0.1-2.3-0.1
			c-0.7,0.1-1.3,0.1-1.7,0.1c-0.1,0-0.2-0.1-0.2-0.2c0-0.6,1.1-0.1,1.1-1.5v-7.2c0-1.3-1.7-1-1.7-1.4c0-0.2,0.3-0.2,0.6-0.2
			c0.6,0,1.2,0.1,1.7,0.1c0.6,0,1.1-0.1,2-0.1c0.4,0,0.6,0,0.6,0.2c0,0.6-1.1,0-1.1,1.4v7.1H77.1z"/>
		<path id="XMLID_296_" class="st0" d="M82.5,35.3c0-2.1-1.5-1.2-1.5-2c0-0.2,0.2-0.2,0.2-0.2c0.1,0,0.2,0.1,0.9,0.1
			c1.3,0,2.5-0.1,3.9-0.1c3.6,0,3.8,2.2,3.8,2.5c0,1-0.6,1.8-1.7,2.1l0,0c1.9,0.4,2.4,1.3,2.4,2.6c0,2-1.4,3.3-3.9,3.3
			c-2.2,0-3-0.1-3.8-0.1c-0.3,0-0.8,0.1-1.1,0.1c-0.3,0-0.6,0-0.6-0.2c0-0.6,1.3-0.1,1.3-1.5C82.5,42,82.5,35.3,82.5,35.3z
			 M84.4,36.9c0,0.8,0.1,0.8,1,0.9h0.9c1.1,0,1.5-0.6,1.5-1.7c0-1.4-1.1-2.3-2.4-2.3c-1,0-1.1,0.6-1.1,1.4L84.4,36.9L84.4,36.9z
			 M84.4,41.3c0,1.4,0.4,1.9,1.9,1.9c1.4,0,2.2-1,2.2-2.4c0-0.9-0.4-2.2-3.2-2.2c-0.9,0-0.9,0.3-0.9,1.2
			C84.4,39.7,84.4,41.3,84.4,41.3z"/>
		<path id="XMLID_293_" class="st0" d="M93.7,35c0-1.7-1.7-1.1-1.7-1.7c0-0.1,0.1-0.2,0.3-0.2c0.7,0,0.8,0.1,1.8,0.1
			c1,0,2-0.1,3.1-0.1c3.3,0,3.6,2.1,3.6,2.9c0,1-0.4,1.5-0.9,1.9c-0.4,0.3-0.9,0.4-0.9,0.7c0,0.1,1.2,2.3,2.2,4.2
			c0.1,0.2,0.4,0.2,0.6,0.2c0.1,0,0.3-0.1,0.4-0.1s0.2,0.1,0.2,0.2c0,0.4-1,0.8-1.5,0.8c-1.2,0-1.7-1-2.1-1.9l-1.2-2.4
			c-0.3-0.7-0.6-0.8-1.2-0.8c-0.8,0-0.7,0.1-0.7,0.7v2.6c0,1.7,1.5,1,1.5,1.5c0,0.1-0.1,0.2-0.4,0.2c-0.7-0.1-1-0.1-1.7-0.1
			c-0.8,0-1.5,0-2.3,0c-0.1,0-0.4,0-0.4-0.2c0-0.4,1.2,0,1.2-1.9V35z M95.5,37.6c0,0.3,0.6,0.3,1,0.3c2.3,0,2.4-0.9,2.4-1.8
			c0-1.4-0.9-2.5-2.3-2.5c-0.6,0-1,0-1,0.9L95.5,37.6L95.5,37.6z"/>
		<path id="XMLID_290_" class="st0" d="M106.9,40.1c-0.2,0-0.6,0.1-0.9,1.1c-0.1,0.3-0.3,0.8-0.3,1.2c0,1.1,1.7,0.9,1.7,1.2
			s-0.4,0.2-0.8,0.2c-0.4,0-0.9-0.1-1.4-0.1c-0.4,0-0.9,0.1-1.3,0.1c-0.2,0-0.4,0-0.4-0.1c0-0.3,0.8-0.2,1.1-1.1l4.1-9.2
			c0.1-0.2,0.2-0.6,0.3-0.6c0.1,0,0.1,0,0.3,0.4l4.1,9.2c0.4,1.1,1.3,0.4,1.3,1c0,0.2-0.1,0.2-0.6,0.2c-0.6,0-1-0.1-2-0.1
			c-0.7,0-1.2,0.1-1.7,0.1c-0.2,0-0.4,0-0.4-0.2c0-0.4,1.1-0.2,1.1-1.2c0-0.3-0.1-0.6-0.2-1c-0.4-1.2-0.6-1.3-1-1.3L106.9,40.1
			L106.9,40.1z M109.4,39.2c0.2,0,0.4,0,0.4-0.1c0-0.2-0.1-0.3-0.1-0.6l-1.2-2.8c-0.1-0.1,0-0.1-0.1-0.1c0,0-0.1,0-0.2,0.2l-1.1,2.6
			c-0.1,0.2-0.1,0.3-0.1,0.6c0,0.1,0.2,0.1,0.4,0.1C107.4,39.2,109.4,39.2,109.4,39.2z"/>
		<path id="XMLID_287_" class="st0" d="M117.3,35c0-1.7-1.7-1.1-1.7-1.7c0-0.1,0.1-0.2,0.3-0.2c0.7,0,0.8,0.1,1.8,0.1s2-0.1,3.1-0.1
			c3.3,0,3.6,2.1,3.6,2.9c0,1-0.4,1.5-0.9,1.9c-0.4,0.3-0.9,0.4-0.9,0.7c0,0.1,1.3,2.3,2.3,4.2c0.1,0.2,0.4,0.2,0.6,0.2
			c0.1,0,0.3-0.1,0.4-0.1s0.2,0.1,0.2,0.2c0,0.4-1,0.8-1.5,0.8c-1.2,0-1.7-1-2.1-1.9l-1.2-2.4c-0.3-0.7-0.7-0.8-1.3-0.8
			c-0.8,0-0.7,0.1-0.7,0.7v2.6c0,1.7,1.5,1,1.5,1.5c0,0.1-0.1,0.2-0.4,0.2c-0.2,0-0.7-0.1-1.3-0.1c-0.8,0-1.5,0.1-2.3,0.1
			c-0.2,0-0.4,0-0.4-0.2c0-0.4,1.2,0,1.2-1.9V35H117.3z M119.1,37.6c0,0.3,0.6,0.3,1,0.3c2.3,0,2.4-0.9,2.4-1.8
			c0-1.4-0.9-2.5-2.3-2.5c-0.6,0-1,0-1,0.9L119.1,37.6L119.1,37.6z"/>
		<path id="XMLID_285_" class="st0" d="M131.2,41.8c0,1.9,1.7,1.2,1.7,1.7c0,0.1-0.1,0.2-0.4,0.2c-0.6,0-1.1-0.1-2.3-0.1
			c-0.7,0-1.3,0.1-1.7,0.1c-0.1,0-0.2-0.1-0.2-0.2c0-0.6,1.1-0.1,1.1-1.5v-7.2c0-1.3-1.7-1-1.7-1.4c0-0.2,0.3-0.2,0.6-0.2
			c0.6,0,1.2,0.1,1.7,0.1c0.6,0,1.1-0.1,2-0.1c0.4,0,0.6,0,0.6,0.2c0,0.6-1.1,0-1.1,1.4v7.1H131.2z"/>
		<path id="XMLID_283_" class="st0" d="M138.3,37c0,0.7,0,0.8,0.7,0.8h1c1.3,0,1.3-1.4,1.7-1.4c0.1,0,0.2,0,0.3,0.3l0.1,2.6
			c0,0.2,0.1,0.8-0.2,0.8c-0.4,0-0.1-1.5-1.7-1.5h-1.1c-0.7,0-0.7,0.2-0.7,1.1v1.9c0,0.9-0.1,1.4,1,1.4c3.8,0,3.5-2,4.1-2
			c0.1,0,0.1,0,0.1,0.3c0,1.2-0.9,2.4-2.1,2.4c-2.3,0-3.2-0.1-4-0.1c-0.4,0-1.1,0.1-1.9,0.1c-0.2,0-0.3-0.1-0.3-0.1
			c0-0.7,1.1,0.1,1.1-1.8v-7.1c0-1.3-1.7-0.9-1.7-1.4c0-0.1,0.1-0.2,0.3-0.2c0.7,0,1.7,0.1,4,0.1c1.1,0,2.1-0.1,3.4-0.1
			c0.2,0,0.3,0.1,0.3,0.3L143,35c0,0.2,0.1,0.7-0.2,0.7c-0.7,0,0.4-1.8-2.4-1.8c-1.9,0-1.9,0-1.9,1.1v2H138.3z"/>
		<path id="XMLID_281_" class="st0" d="M146.2,40.6c0-0.2-0.2-0.7,0.2-0.7c0.2,0,0.2,0.1,0.3,0.3c0.4,1.4,1.4,2.8,3.1,2.8
			c1.2,0,2.1-0.8,2.1-1.9c0-1.3-1-1.4-3.4-2.5c-1.3-0.6-2.2-1.2-2.2-2.8c0-1.8,1.2-3,3-3c1.2,0,1.9,0.6,2.3,0.6
			c0.2,0,0.6-0.2,0.8-0.2s0.2,0.2,0.2,0.6l0.1,2c0,0.3,0,0.6-0.3,0.6s-0.6-2.8-3.2-2.8c-1,0-1.7,0.6-1.7,1.5s0.9,1.2,2.9,2.1
			c1.7,0.7,2.6,1.3,2.6,3.3c0,2-1.4,3.3-3.3,3.3c-0.9,0-1.7-0.3-2.5-0.6c-0.3-0.1-0.3-0.2-0.4-0.6L146.2,40.6z"/>
		<path id="XMLID_278_" class="st0" d="M161.9,36.8c0-0.3-0.3-0.6-0.3-1.4c0-1.4,1.1-2.3,2.5-2.3c1,0,1.9,0.6,2.1,0.6
			s0.2-0.2,0.4-0.2c0.1,0,0.1,0.1,0.1,0.3c0,0.8,0.1,1.5,0.2,2.3c0,0.1,0,0.2-0.2,0.2c-0.1,0-0.2-0.1-0.3-0.3
			c-0.3-1.2-1.2-2.3-2.5-2.3c-0.7,0-1.1,0.4-1.1,1.1c0,2.1,5,6.4,5.4,6.4c0.1,0,0.6-0.7,0.6-1.5c0-1.9-1.8-1.1-1.8-1.7
			c0-0.1,0.1-0.2,0.3-0.2s0.6,0.1,1.5,0.1c0.8,0,1-0.1,1.2-0.1c0.1,0,0.2,0,0.2,0.2c0,0.3-0.6,0.1-0.6,0.7c-0.3,2.2-0.9,2.9-0.9,3
			c0,0.6,1.7,1.4,2,1.4c0.6,0,0.6-0.1,0.8-0.1c0.1,0,0.2,0,0.2,0.2c0,0.2-0.8,1-1.9,1c-0.9,0-2-0.8-2.4-1.2
			c-0.9,0.8-2.5,1.2-3.8,1.2c-3.4,0-4.5-2.3-4.5-3.6C159.5,37.5,161.9,36.9,161.9,36.8z M167.2,42.4c0-0.3-3.5-2.4-4.7-4.6
			c-0.1-0.2-0.3-0.4-0.4-0.4c-0.3,0-1.1,0.4-1.1,1.5c0,1.7,2.1,4.1,4.4,4.1C165.9,42.9,167.2,42.6,167.2,42.4z"/>
	</g>
	<g id="XMLID_215_">
		<path id="XMLID_275_" class="st0" d="M66.8,59c0,1.7,1.5,1,1.5,1.4c0,0.1-0.1,0.2-0.4,0.2c-0.6,0-1,0-2.1,0c-0.6,0-1.2,0-1.5,0
			c-0.1,0-0.1-0.1-0.1-0.1c0-0.4,1-0.1,1-1.4v-6.5c0-1.2-1.5-0.9-1.5-1.3c0-0.2,0.3-0.2,0.4-0.2c0.6,0,1.1,0,1.5,0c0.4,0,1,0,1.8,0
			c0.4,0,0.4,0,0.4,0.2c0,0.4-1,0-1,1.2V59z"/>
		<path id="XMLID_273_" class="st0" d="M71.2,53.7c0-2.6-1.5-1.8-1.5-2.3c0-0.1,0.1-0.2,0.2-0.2c0.2,0,0.6,0,0.8,0
			c0.3,0,0.7,0,1.4,0c0.4,0,0.2,0.1,0.6,0.3l5.4,6c0.2,0.2,0.3,0.3,0.4,0.3s0.1-0.1,0.1-0.6v-4.5c0-1.2-1.7-1-1.7-1.4
			c0-0.1,0-0.2,0.2-0.2c0.2,0,0.7,0,1.5,0c0.9,0,1.3,0,1.4,0c0.2,0,0.2,0.1,0.2,0.2c0,0.4-1.1,0.1-1.1,1.5v7.5c0,0.3,0,0.4-0.1,0.4
			c-0.2,0-0.2-0.1-0.3-0.2l-6.5-7.1c-0.1-0.1-0.2-0.2-0.2-0.2c-0.1,0-0.1,0.1-0.1,0.2v4.6c0,2.6,1.8,1.7,1.8,2.3
			c0,0.2-0.3,0.2-0.6,0.2c-0.7,0-1.1,0-1.5,0c-0.4,0-0.8,0-1.2,0c-0.1,0-0.4,0.1-0.4-0.1c0-0.6,1.3-0.3,1.3-1.7L71.2,53.7L71.2,53.7
			z"/>
		<path id="XMLID_271_" class="st0" d="M84.9,54.5c0,0.6,0,0.7,0.6,0.7h0.9c1.2,0,1.2-1.2,1.4-1.2c0.1,0,0.2,0,0.2,0.3l0.1,2.4
			c0,0.2,0.1,0.7-0.2,0.7c-0.4,0-0.1-1.4-1.4-1.4h-1c-0.7,0-0.6,0.1-0.6,1v2c0,1.5,1.5,1.2,1.5,1.5c0,0.2-0.3,0.2-0.7,0.2
			c-0.6,0-1,0-1.7,0c-0.4,0-1,0-1.8,0c-0.2,0-0.2-0.1-0.2-0.1c0-0.7,1,0.1,1-1.5v-6.5c0-1.2-1.5-0.8-1.5-1.3c0-0.1,0.1-0.2,0.3-0.2
			c0.6,0,1.5,0,3.6,0c1,0,1.9,0,3.1,0c0.2,0,0.2,0.1,0.2,0.2v1.3c0,0.2,0.1,0.7-0.2,0.7c-0.7,0,0.4-1.5-2.2-1.5c-1.7,0-1.7,0-1.7,1
			L84.9,54.5L84.9,54.5z"/>
		<path id="XMLID_268_" class="st0" d="M95.5,50.9c2.6,0,4.6,1.8,4.6,4.6c0,1.9-0.8,5.2-5.2,5.2c-2.8,0-4.5-1.9-4.5-4.5
			C90.4,53.1,92.3,50.9,95.5,50.9z M95.4,60.1c2.3,0,3.1-1.9,3.1-4.1c0-3-1.7-4.5-3.4-4.5c-2.3,0-3,1.9-3,3.9
			C92.1,57.3,93,60.2,95.4,60.1z"/>
		<path id="XMLID_257_" class="st0" d="M102.9,52.8c0-1.5-1.4-1-1.4-1.5c0-0.1,0.1-0.2,0.3-0.2c0.7,0,0.8,0,1.5,0c0.9,0,1.9,0,2.8,0
			c3,0,3.2,1.9,3.2,2.5c0,0.9-0.4,1.3-0.8,1.7c-0.4,0.3-0.8,0.4-0.8,0.6c0,0.1,1.1,2,2.1,3.8c0.1,0.2,0.3,0.2,0.4,0.2
			s0.2-0.1,0.4-0.1c0.1,0,0.2,0.1,0.2,0.2c0,0.4-0.9,0.7-1.4,0.7c-1.1,0-1.5-0.9-1.9-1.7l-1.1-2.1c-0.3-0.6-0.6-0.7-1.2-0.7
			s-0.7,0.1-0.7,0.6V59c0,1.4,1.3,0.9,1.3,1.3c0,0.1-0.1,0.2-0.4,0.2c-0.2,0-0.6,0-1.2,0c-0.8,0-1.4,0-2.1,0c-0.1,0-0.4,0-0.4-0.2
			c0-0.4,1.1,0,1.1-1.7C102.9,58.6,102.9,52.8,102.9,52.8z M104.6,55.1c0,0.3,0.6,0.3,0.9,0.3c2.1,0,2.1-0.8,2.1-1.5
			c0-1.3-0.8-2.3-2.1-2.3c-0.6,0-0.9,0-0.9,0.8V55.1z"/>
		<path id="XMLID_255_" class="st0" d="M114.1,58.3c-0.1,2.3,1.4,1.5,1.4,2.1c0,0,0,0.2-0.3,0.2c-0.4,0-0.8,0-1.4,0
			c-0.7,0-1.1,0-1.3,0c-0.2,0-0.2-0.1-0.2-0.2c0-0.4,1.1-0.1,1.2-1.5l0.2-5.4c0.1-2.2-1.3-1.5-1.3-2.2c0-0.1,0.1-0.2,0.1-0.2
			c0.2,0,0.3,0,0.8,0c0.3,0,0.8,0,1.2,0c0.1,0,0.3,0,0.4,0.4l3,6.5c0,0.1,0.1,0.2,0.2,0.2c0.1,0,0.2-0.2,0.2-0.3l3.1-6.5
			c0-0.1,0.1-0.2,0.3-0.2c0.3,0,0.6,0,0.8,0c0.2,0,0.6,0,0.9,0c0.3,0,0.4,0,0.4,0.1c0,0.4-1.3,0-1.3,1.5l0.2,6
			c0.1,1.8,1.3,1.2,1.3,1.7c0,0.2-0.2,0.2-0.7,0.2c-0.4,0-0.8,0-1.2,0c-0.9,0-1.2,0-1.5,0c-0.3,0-0.7,0-0.7-0.2c0-0.4,1.1,0,1-1.5
			l-0.2-4.1c0-0.4,0-0.7-0.1-0.7c0,0-0.2,0.2-0.4,0.7l-2.5,5.3c-0.1,0.2-0.1,0.3-0.3,0.3s-0.2-0.2-0.3-0.3l-2.6-5.9
			c0-0.1-0.1-0.2-0.1-0.2c-0.1,0-0.1,0.2-0.1,0.3L114.1,58.3z"/>
		<path id="XMLID_248_" class="st0" d="M128.2,57.3c-0.2,0-0.6,0-0.8,1c-0.1,0.2-0.3,0.8-0.3,1.1c0,1,1.4,0.8,1.4,1.1
			c0,0.3-0.4,0.2-0.7,0.2c-0.4,0-0.9,0-1.3,0s-0.8,0-1.2,0c-0.2,0-0.4,0-0.4-0.1c0-0.3,0.7-0.2,1-1l3.6-8.2c0.1-0.2,0.1-0.4,0.3-0.4
			c0.1,0,0.1,0,0.3,0.4l3.6,8.3c0.4,1,1.2,0.4,1.2,0.9c0,0.2-0.1,0.2-0.4,0.2c-0.4,0-0.9,0-1.8,0c-0.6,0-1.1,0-1.4,0
			c-0.2,0-0.4,0-0.4-0.1c0-0.4,1-0.2,1-1.1c0-0.3-0.1-0.6-0.2-0.9c-0.4-1.1-0.6-1.2-0.9-1.2h-2.6L128.2,57.3L128.2,57.3z
			 M130.5,56.5c0.2,0,0.4,0,0.4-0.1c0-0.2-0.1-0.3-0.1-0.6l-1.1-2.4c-0.1-0.1,0-0.1-0.1-0.1c0,0-0.1,0-0.1,0.1l-1.2,2.4
			c-0.1,0.1-0.1,0.3-0.1,0.6c0,0.1,0.2,0.1,0.4,0.1H130.5z"/>
		<path id="XMLID_241_" class="st0" d="M138.7,52.6c0-0.7-0.1-0.8-0.7-0.8h-1.1c-1.5,0-1.1,1.8-1.8,1.8c-0.3,0-0.2-0.3-0.2-0.4
			l0.2-1.8c0-0.1,0-0.3,0.2-0.3c1.2,0,2.1,0,4.1,0c2,0,2.5,0,3.8,0c0.2,0,0.2,0.2,0.2,0.3l0.3,1.2c0,0.1,0.2,0.7-0.2,0.7
			c-0.6,0-0.1-1.5-1.7-1.4h-1c-0.6,0-0.4,0.1-0.4,0.8v6.1c0,1.7,1.8,1.3,1.8,1.7c0,0.3-0.2,0.3-0.7,0.3c-0.6,0-1,0-1.9,0
			c-0.9,0-1.3,0-1.9,0c-0.2,0-0.4,0-0.4-0.3c0-0.6,1.5,0.1,1.5-1.4v-6.3H138.7z"/>
		<path id="XMLID_237_" class="st0" d="M148.2,59c0,1.7,1.5,1,1.5,1.4c0,0.1-0.1,0.2-0.4,0.2c-0.6,0-1,0-2.1,0c-0.6,0-1.2,0-1.5,0
			c-0.1,0-0.1-0.1-0.1-0.1c0-0.4,1-0.1,1-1.4v-6.5c0-1.2-1.5-0.9-1.5-1.3c0-0.2,0.3-0.2,0.4-0.2c0.6,0,1.1,0,1.5,0c0.4,0,1,0,1.8,0
			c0.4,0,0.4,0,0.4,0.2c0,0.4-1,0-1,1.2V59z"/>
		<path id="XMLID_232_" class="st0" d="M155.9,50.9c2.6,0,4.6,1.8,4.6,4.6c0,1.9-0.8,5.2-5.2,5.2c-2.8,0-4.5-1.9-4.5-4.5
			C150.8,53.1,152.6,50.9,155.9,50.9z M155.8,60.1c2.3,0,3.1-1.9,3.1-4.1c0-3-1.7-4.5-3.4-4.5c-2.3,0-3,1.9-3,3.9
			C152.5,57.3,153.4,60.2,155.8,60.1z"/>
		<path id="XMLID_229_" class="st0" d="M163.1,53.7c0-2.6-1.5-1.8-1.5-2.3c0-0.1,0.1-0.2,0.2-0.2c0.2,0,0.6,0,0.8,0
			c0.3,0,0.7,0,1.4,0c0.4,0,0.2,0.1,0.6,0.3l5.4,6c0.2,0.2,0.3,0.3,0.4,0.3c0.1,0,0.1-0.1,0.1-0.6v-4.5c0-1.2-1.7-1-1.7-1.4
			c0-0.1,0-0.2,0.2-0.2s0.7,0,1.5,0c0.9,0,1.3,0,1.4,0c0.2,0,0.2,0.1,0.2,0.2c0,0.4-1.1,0.1-1.1,1.5v7.5c0,0.3,0,0.4-0.1,0.4
			c-0.2,0-0.2-0.1-0.3-0.2l-6.5-7.1c-0.1-0.1-0.2-0.2-0.2-0.2c-0.1,0-0.1,0.1-0.1,0.2v4.6c0,2.6,1.8,1.7,1.8,2.3
			c0,0.2-0.3,0.2-0.6,0.2c-0.7,0-1.1,0-1.5,0c-0.4,0-0.8,0-1.2,0c-0.1,0-0.4,0.1-0.4-0.1c0-0.6,1.3-0.3,1.3-1.7L163.1,53.7
			L163.1,53.7z"/>
	</g>
	<g id="XMLID_108_">
		<path id="XMLID_209_" class="st0" d="M65.5,69c0-0.6-0.1-0.6-0.6-0.6h-0.6c-1.2,0-0.9,1.4-1.3,1.4c-0.2,0-0.1-0.2-0.1-0.3l0.2-1.4
			c0-0.1,0-0.2,0.2-0.2c1,0,1.3,0,2.9,0s2.2,0,3.2,0c0.1,0,0.1,0.1,0.2,0.2l0.1,1c0,0.1,0.1,0.6-0.1,0.6c-0.4,0-0.1-1.2-1.3-1.1
			h-0.9c-0.4,0-0.6,0-0.6,0.6v4.7c0,1.3,1.3,1,1.3,1.3c0,0.2-0.2,0.2-0.6,0.2c-0.4,0-0.8,0-1.4,0c-0.7,0-1.1,0-1.4,0
			c-0.2,0-0.3,0-0.3-0.2c0-0.4,1.2,0.1,1.2-1.2v-5H65.5z"/>
		<path id="XMLID_207_" class="st0" d="M76.1,70.5c0,0.4,0,0.6,0.4,0.6h0.7c0.9,0,1-1,1.1-1s0.2,0,0.2,0.2l0.1,1.9
			c0,0.1,0.1,0.6-0.2,0.6c-0.3,0,0-1.1-1.1-1.1h-0.8c-0.4,0-0.4,0.1-0.4,0.8v1.3c0,0.7,0,1,0.8,1c2.6,0,2.4-1.4,2.9-1.4
			c0,0,0.1,0,0.1,0.2c0,0.8-0.7,1.7-1.4,1.7c-1.7,0-2.2,0-2.8,0c-0.3,0-0.8,0-1.3,0c-0.1,0-0.2,0-0.2-0.1c0-0.4,0.8,0.1,0.8-1.2
			v-4.7c0-1-1.2-0.7-1.2-1c0-0.1,0.1-0.2,0.2-0.2c0.4,0,1.2,0,2.8,0c0.8,0,1.4,0,2.4,0c0.1,0,0.2,0.1,0.2,0.2v1
			c0,0.1,0.1,0.4-0.2,0.4c-0.4,0,0.3-1.2-1.7-1.2c-1.3,0-1.3,0-1.3,0.8C76.1,69.1,76.1,70.5,76.1,70.5z"/>
		<path id="XMLID_205_" class="st0" d="M90.8,70.1c0,0.1,0,0.3-0.1,0.3c-0.2,0-0.2-0.2-0.3-0.3c-0.6-1-1.4-1.9-2.6-1.9
			c-1.5,0-2.4,1.4-2.4,2.9c0,1.4,0.9,3.5,2.9,3.5c1.7,0,2.3-1.4,2.6-1.4c0,0,0.1,0,0.1,0.1c0,0.4-1.1,2-3.4,2
			c-3.1,0-3.5-2.6-3.5-3.5c0-1.8,1.1-4.1,3.8-4.1c1.3,0,2.1,0.7,2.4,0.7c0.2,0,0.2-0.3,0.3-0.3c0,0,0.1,0,0.1,0.1L90.8,70.1z"/>
		<path id="XMLID_165_" class="st0" d="M102.6,73.9c0,1.3,1.1,1,1.1,1.3c0,0.1-0.1,0.1-0.2,0.1c-0.3,0-1,0-1.4,0c-0.3,0-0.8,0-1.3,0
			c-0.1,0-0.2,0-0.2-0.1c0-0.3,0.8-0.1,0.8-1.1v-1.9c0-0.4,0-0.6-0.4-0.6h-2.9c-0.4,0-0.6,0.1-0.6,0.6v1.7c0,1.3,1.3,0.9,1.3,1.3
			c0,0.1,0,0.1-0.3,0.1c-0.4,0-0.8,0-1.5,0c-0.4,0-0.9,0-1.4,0c-0.1,0-0.2,0-0.2-0.1c0-0.4,0.9,0,0.9-1.3v-4.7
			c0-1.1-1.2-0.7-1.2-1.1c0-0.1,0.3-0.2,0.6-0.2c0.3,0,0.7,0,1.2,0c0.7,0,1.1,0,1.3,0c0.1,0,0.2,0,0.2,0.1c0,0.3-0.8,0-0.8,1v1.7
			c0,0.3,0,0.4,0.2,0.4h3.1c0.3,0,0.3-0.2,0.3-0.4v-1.4c0-1.2-1.2-0.8-1.2-1.1c0-0.2,0.1-0.2,0.2-0.2c0.4,0,0.7,0,1.3,0
			c0.6,0,1,0,1.4,0c0.2,0,0.2,0,0.2,0.1c0,0.4-0.8,0-0.8,1v5H102.6z"/>
		<path id="XMLID_162_" class="st0" d="M109.1,69.9c0-2-1.2-1.3-1.2-1.9c0-0.1,0-0.2,0.2-0.2s0.4,0,0.6,0c0.2,0,0.6,0,1.1,0
			c0.3,0,0.2,0.1,0.4,0.2l4.2,4.6c0.1,0.1,0.2,0.2,0.3,0.2c0.1,0,0.1-0.1,0.1-0.4v-3.3c0-1-1.3-0.8-1.3-1.1c0-0.1,0-0.2,0.2-0.2
			c0.2,0,0.4,0,1.2,0c0.7,0,1,0,1.1,0c0.2,0,0.2,0.1,0.2,0.1c0,0.3-0.9,0.1-0.9,1.2v6c0,0.2,0,0.3-0.1,0.3c-0.1,0-0.2-0.1-0.2-0.1
			l-5.1-5.5c-0.1-0.1-0.1-0.1-0.2-0.1s-0.1,0.1-0.1,0.2v3.5c0,2,1.3,1.3,1.3,1.8c0,0.1-0.2,0.1-0.4,0.1c-0.6,0-0.9,0-1.2,0
			s-0.7,0-0.9,0c-0.1,0-0.3,0-0.3-0.1c0-0.4,1-0.2,1-1.3V69.9z"/>
		<path id="XMLID_124_" class="st0" d="M124.3,67.8c2.1,0,3.6,1.3,3.6,3.5c0,1.4-0.7,4.1-4,4.1c-2.1,0-3.5-1.4-3.5-3.5
			C120.5,69.6,121.9,67.8,124.3,67.8z M124.3,75c1.8,0,2.4-1.4,2.4-3.2c0-2.3-1.3-3.5-2.6-3.5c-1.8,0-2.3,1.4-2.3,3
			C121.8,72.8,122.4,75,124.3,75z"/>
		<path id="XMLID_118_" class="st0" d="M134.6,73.8c0,0.7,0,1,0.8,1c2.6,0,2.4-1.4,2.9-1.4c0,0,0.1,0,0.1,0.2c0,0.8-0.7,1.7-1.4,1.7
			c-1.7,0-2.2,0-2.8,0c-0.3,0-0.8,0-1.3,0c-0.1,0-0.2,0-0.2-0.1c0-0.4,0.8,0.1,0.8-1.2v-5c0-0.9-1.2-0.7-1.2-1
			c0-0.1,0.1-0.2,0.3-0.2c0.4,0,1,0,1.4,0c0.9,0,1,0,1.2,0c0.2,0,0.2,0,0.2,0.1c0,0.4-0.8,0-0.8,0.8L134.6,73.8L134.6,73.8z"/>
		<path id="XMLID_113_" class="st0" d="M146.1,67.8c2.1,0,3.6,1.3,3.6,3.5c0,1.4-0.7,4.1-4,4.1c-2.1,0-3.5-1.4-3.5-3.5
			C142.2,69.6,143.6,67.8,146.1,67.8z M146.1,75c1.8,0,2.4-1.4,2.4-3.2c0-2.3-1.3-3.5-2.6-3.5c-1.8,0-2.3,1.4-2.3,3
			C143.5,72.8,144.2,75,146.1,75z"/>
		<path id="XMLID_111_" class="st0" d="M161,70.3c0,0.1-0.1,0.2-0.2,0.2c-0.2,0-0.2-2.3-3-2.3c-1,0-2.4,0.7-2.4,3.3
			c0,1.4,0.8,3.3,2.4,3.3c1.9,0,1.9-0.9,1.9-1.5c0-1.7-1.2-0.9-1.2-1.3c0-0.3,0.3-0.2,0.6-0.2c0.6,0,1,0,1.4,0c0.4,0,0.8,0,1.1,0
			c0,0,0.1,0,0.1,0.1c0,0.4-0.8-0.1-0.8,1.2c0,0.4,0,0.8,0,0.9c0,0.2,0,0.2-0.1,0.2c-1,0.6-2.2,1-3.3,1c-3.1,0-3.5-2.6-3.5-3.5
			c0-1.8,1.1-4.1,3.8-4.1c1.4,0,2.3,0.7,2.6,0.7c0.2,0,0.2-0.3,0.4-0.3c0.1,0,0.1,0.2,0.1,0.4v2C160.9,70.3,161,70.3,161,70.3z"/>
		<path id="XMLID_109_" class="st0" d="M166.6,68.8c-0.4-0.8-1.1-0.4-1.1-0.9c0-0.1,0.1-0.1,0.3-0.1s0.4,0,1,0c0.4,0,0.9,0,1.5,0
			c0.1,0,0.2,0.1,0.2,0.1c0,0.2-0.6,0.1-0.6,0.6c0,0.1,0,0.2,0.1,0.4l1,2c0.2,0.3,0.2,0.4,0.3,0.4s0.1-0.1,0.2-0.3l1-1.8
			c0.2-0.3,0.2-0.6,0.2-0.6c0-0.7-1-0.4-1-0.8c0-0.1,0.1-0.1,0.2-0.1c0.1,0,0.3,0,0.9,0c0.8,0,0.9,0,1.2,0c0.1,0,0.2,0,0.2,0.1
			c0,0.3-0.4,0.1-1.1,1.2l-1.4,2.6c-0.1,0.2-0.1,0.3-0.1,0.7V74c0,1.3,1.3,0.6,1.3,1.1c0,0.1-0.1,0.1-0.3,0.1c-0.1,0-0.2,0-1.5,0
			c-1,0-1.2,0-1.5,0c-0.2,0-0.3,0-0.3-0.1c0-0.4,1.1,0.1,1.1-1.2v-1.3c0-0.3,0-0.4-0.2-0.7L166.6,68.8z"/>
	</g>
</g>
</svg>
