<?xml version="1.0" encoding="utf-8"?>
<!-- Generator: Adobe Illustrator 24.1.0, SVG Export Plug-In . SVG Version: 6.00 Build 0)  -->
<svg version="1.1" id="Layer_1" xmlns="http://www.w3.org/2000/svg" xmlns:xlink="http://www.w3.org/1999/xlink" x="0px" y="0px"
	 viewBox="0 0 100 100" style="enable-background:new 0 0 100 100;" xml:space="preserve">
<style type="text/css">
	.st0{fill:#FFFFFF;}
</style>
<path class="st0" d="M49.9,0.9c13.7,0,26,5.6,35,14.5c9,9,14.5,21.4,14.5,35c0,13.7-5.5,26-14.5,35c-9,8.9-21.3,14.5-35,14.5
	s-26-5.6-35-14.5c-9-9-14.5-21.4-14.5-35c0-13.7,5.5-26.1,14.5-35S36.2,0.9,49.9,0.9L49.9,0.9z M82.2,18.2
	C73.9,9.9,62.5,4.8,49.9,4.8s-24,5.1-32.3,13.4C9.4,26.4,4.3,37.8,4.3,50.5c0,12.6,5.1,24,13.4,32.3S37.4,96.2,50,96.2
	s24-5.1,32.3-13.4s13.4-19.7,13.4-32.3C95.6,37.8,90.5,26.4,82.2,18.2L82.2,18.2z"/>
<g>
	<g>
		<g>
			<path class="st0" d="M72.6,72.7c2.9,0,5.2-2.3,5.2-5.2V52.7c0-0.5-0.3-1-0.8-1.2c-0.5-0.2-1.1-0.1-1.4,0.3l-8.1,8.1
				c-0.5,0.5-1.2,0.9-2,1.1L59,62.2c-1.3,0.3-2.6-0.2-3.5-1.1c-0.9-0.9-1.3-2.3-1.1-3.5l1.2-5.8H34.7c-0.7,0-1.3-0.6-1.3-1.3
				c0-0.7,0.6-1.3,1.3-1.3h21.9c0-0.1,0.1-0.1,0.1-0.2l5.1-5.1H34.7c-0.7,0-1.3-0.6-1.3-1.3c0-0.7,0.6-1.3,1.3-1.3h28.7
				c0.3,0,0.5,0.1,0.7,0.3l8.5-8.5c0.7-0.7,1.6-1.3,2.6-1.7c0.5-0.2,0.8-0.6,0.8-1.1c0.1-0.5-0.2-1-0.6-1.2
				c-0.9-0.6-1.9-0.9-2.9-0.9h-47c-2.9,0-5.2,2.3-5.2,5.2v39.2 M50.4,59.6H34.7c-0.7,0-1.3-0.6-1.3-1.3c0-0.7,0.6-1.3,1.3-1.3h15.7
				c0.7,0,1.3,0.6,1.3,1.3C51.7,59.1,51.1,59.6,50.4,59.6z"/>
			<path class="st0" d="M78,33.5c-1.3,0-2.6,0.5-3.5,1.5L58.6,50.9c-0.2,0.2-0.3,0.4-0.4,0.7L57,58.1c-0.1,0.4,0,0.9,0.4,1.2
				c0.2,0.2,0.6,0.4,0.9,0.4c0.1,0,0.2,0,0.3,0l6.5-1.3c0.3-0.1,0.5-0.2,0.7-0.4l15.9-15.9c0,0,0,0,0,0c0.9-0.9,1.5-2.2,1.5-3.5
				C83,35.8,80.8,33.5,78,33.5z M76,44l-3.4-3.4l1.8-1.8l3.4,3.4L76,44z"/>
		</g>
	</g>
</g>
</svg>
