<?xml version="1.0" encoding="utf-8"?>
<!-- Generator: Adobe Illustrator 22.0.0, SVG Export Plug-In . SVG Version: 6.00 Build 0)  -->
<svg version="1.1" id="Layer_1" xmlns="http://www.w3.org/2000/svg" xmlns:xlink="http://www.w3.org/1999/xlink" x="0px" y="0px"
	 viewBox="0 0 749.5 749.5" style="enable-background:new 0 0 749.5 749.5;" xml:space="preserve">
<style type="text/css">
	.st0{opacity:0.9;fill:#FFFFFF;enable-background:new    ;}
	.st1{fill:#008CA8;}
</style>
<circle class="st0" cx="374.7" cy="374.7" r="374.7"/>
<g>
	<path class="st1" d="M600.3,269.2c-26.8-28.4-58.5-42.7-88-39.8c-4.6-19.1-12-44.1-29.2-65.3c-24-29.7-61.2-44.8-110.7-44.8
		c-35,0-64,7.5-86.3,22.4c-3.4,2.3-4.4,6.9-2.1,10.4c2.3,3.4,6.9,4.4,10.4,2.1c19.9-13.2,46.1-19.9,78-19.9
		c45.3,0,77.7,12.8,99.1,39.2c17.8,22.1,23.9,48.8,28.3,68.3c2.3,10.2,4,17.7,6.9,22.5c5.6,9.3,1.9,15.8-0.9,17.9
		c-2,1.5-3.1,1.1-3.7,0.6c-0.1-0.1-0.2-0.1-0.2-0.2l-0.1-0.1c-18.9-19.3-56.7-42.4-129.3-42.4s-110.4,23.1-129.3,42.4l-0.1,0.1
		c-0.1,0.1-0.2,0.1-0.2,0.2c-0.6,0.5-1.8,1-3.8-0.6c-2.7-2.1-6.4-8.5-0.9-17.9c2.9-4.9,4.6-12.3,6.9-22.5
		c4.6-20.2,10.8-47.8,29.9-70.2c2.7-3.1,2.3-7.9-0.8-10.5c-3.1-2.7-7.9-2.3-10.6,0.8c-21.5,25.2-28.5,56.2-33.1,76.6
		c-1.8,7.9-3.5,15.3-5.2,18.2c-9.1,15.3-4.6,30.4,4.6,37.4c3.2,2.5,6.9,3.8,10.5,4.1v21c-6.2,4.8-10.2,12.3-10.2,20.7v24.9
		c0,14.4,11.7,26.1,26.1,26.1h9.6c0.1,0.6,0.2,1.2,0.3,1.7c7.5,48.7,16.6,59.9,22.8,64.1c11.7,7.9,21.2,4.5,26.9,2.5
		c1.2-0.4,2.9-1,3.7-1.1c0.4,0.4,1.6,1.7,3.3,5.8c0.4,1.1,0.9,2.1,1.4,3.1L287,481c-3.9,1.4-5.8,5.8-4.4,9.6c1.1,3,4,4.9,7,4.9
		c0.9,0,1.8-0.2,2.6-0.5l34.6-12.9c4.6,21,23.3,36.8,45.7,36.8c12.5,0,24.2-4.9,33-13.7c6.4-6.4,10.7-14.4,12.6-23.1l50.7,19
		c10.3,3.9,18.5,11.5,23.2,21H252.8c3.1-6.3,7.8-11.8,13.6-16c3.4-2.4,4.2-7.1,1.8-10.4c-2.4-3.4-7.1-4.2-10.4-1.8
		c-11.6,8.2-19.6,20.2-22.8,33.7c0,0.2-0.1,0.3-0.1,0.5c-1,4.2-1.4,8.5-1.4,12.8v77.9c0,6.3,5.1,11.4,11.4,11.4H500
		c6.3,0,11.4-5.1,11.4-11.4v-77.9c0-4.3-0.5-8.5-1.4-12.6c-0.1-0.4-0.1-0.7-0.2-1c-4.5-18.2-17.7-33.6-35.7-40.3l-53.4-20
		c0.5-1,1-2,1.4-3.1c1.7-4.1,2.9-5.5,3.3-5.8c0.8,0.1,2.5,0.7,3.7,1.1c5.7,2,15.2,5.3,26.9-2.5c6.2-4.2,15.3-15.3,22.8-64.1
		c0.1-0.6,0.2-1.2,0.3-1.8h9.6c11.8,0,21.9-7.9,25-18.8c13.2,6.3,28.2,10.5,44.9,12.4c0.3,0,0.7,0.1,1,0.1c2.6,0,5.1-1.2,6.8-3.4
		c6.2-7.8,5.1-33.6-2.2-54.2c-1.4-3.9-5.7-5.9-9.6-4.5c-3.9,1.4-5.9,5.7-4.5,9.6c5.6,15.7,5.8,30.3,5,37
		c-15.3-2.3-28.8-6.7-40.4-13.2v-15.9c0-8.4-4-15.9-10.2-20.7v-11.7c8.8,3.4,17.8,4.8,26.5,4.8c31,0,59.1-17.9,68.1-29.1
		C605.1,275.8,601.9,271,600.3,269.2z M296.8,593.2H448v22.1H296.8V593.2z M463,615.3v-40c0-4.1-3.4-7.5-7.5-7.5s-7.5,3.4-7.5,7.5v3
		H296.8v-3c0-4.1-3.3-7.5-7.5-7.5c-4.1,0-7.5,3.4-7.5,7.5v40h-33.4v-22.1h11c4.1,0,7.5-3.4,7.5-7.5s-3.3-7.5-7.5-7.5h-11v-37.3
		c0-1.3,0.1-2.6,0.2-3.9h247.7c0.1,1.3,0.2,2.6,0.2,3.9v37.4h-11c-4.1,0-7.5,3.4-7.5,7.5s3.4,7.5,7.5,7.5h11v22L463,615.3L463,615.3
		z M423.7,408.1c-6.2,4.3-12.5,3.5-25,1.5c-7.5-1.2-16-2.6-26.2-2.6c-10.3,0-18.8,1.4-26.2,2.6c-12.5,2.1-18.8,2.9-25-1.5
		c-12.2-8.5-31.8-37.7-45.9-68.2c-0.3-3.7-0.5-7.5-0.5-11.2c0-0.9,0-1.9,0-2.8c4.4,0.9,9.3,1.3,13.9,1.5l0.7,3.9
		c3.3,18.7,19.6,31.9,38,31.9c28.8,0,45.5-23.2,41.5-45.9l-0.4-2.3c29.3-8.5,59.8-20.9,90.8-37c6.1,13.5,9.7,28.2,10.6,43.5
		c0,0.2,0,0.4,0,0.7c0.1,2.2,0.2,4.4,0.2,6.6c0,3.7-0.2,7.5-0.5,11.2C455.5,370.4,435.9,399.6,423.7,408.1z M301.9,315.6
		c-0.4-2,1-4,3-4.3l42.6-7.5c0.2,0,0.4-0.1,0.7-0.1c1.8,0,3.4,1.3,3.7,3.1c1.2,6.8-0.7-3.7,2.3,13c2.3,12.8-6.3,25.1-19.2,27.4
		c-1.1,0.2-3.5,0.6-3.4,0.6c-12.8,2.3-25.1-6.3-27.4-19.2c0-0.1-1.8-10.2-1.8-10.3L301.9,315.6z M448.2,266.8
		c-28.3,14.4-56.1,25.6-82.8,33.4c-3.3-7.9-11.7-12.7-20.5-11.1l-42.6,7.5c-8.1,1.4-14.1,8-15.3,15.7c-4.9-0.3-8.5-0.9-11-1.5
		c2.1-14.7,6.8-28.7,13.8-41.4c22.5-9.4,50.6-14.4,82.6-14.4C401.2,255.1,426.9,259.1,448.2,266.8z M255.3,291.4
		c3.8-3.7,8.1-7.2,12.8-10.4c-3.8,10.5-6.4,21.5-7.6,32.8h-4.4c-0.3,0-0.6,0-0.9,0L255.3,291.4L255.3,291.4z M256.2,375.9
		c-6.1,0-11.1-5-11.1-11.1v-24.9c0-4.3,2.4-8,5.9-9.8c0.1-0.1,0.2-0.1,0.4-0.2c1.5-0.7,3.1-1.1,4.8-1.1h3.6c0,4.6,0.2,9.1,0.7,13.6
		c0.1,1.1,1,15.3,3.3,33.4h-7.6L256.2,375.9L256.2,375.9z M372.4,503.9c-11.8,0-22-6.4-27.5-15.9c10.5,5.3,21.4,6.2,27.5,6.2
		s17.1-0.9,27.5-6.2c-1.4,2.4-3.1,4.6-5.1,6.6C388.9,500.6,380.9,503.9,372.4,503.9z M447.6,444.3c-5.5,3.7-8.7,2.5-13.6,0.8
		c-8.6-3-18.4-4.7-25.8,13.1c-3.2,7.8-12.2,20.9-35.8,20.9s-32.5-13.1-35.8-20.9c-4.9-11.8-10.8-15-16.7-15c-3.1,0-6.2,0.9-9.1,1.9
		c-4.9,1.7-8.1,2.8-13.6-0.8c-1.5-1-9.4-8.3-16.4-53.9c-0.4-2.6-0.8-5.2-1.1-7.8c0-0.2,0-0.4-0.1-0.6c-0.1-0.9-0.3-1.9-0.4-2.8
		c10.7,17.7,22.8,33.8,33.3,41.1c11.5,8,23.4,6.1,36,4c6.9-1.1,14.8-2.4,23.8-2.4c9.1,0,16.9,1.3,23.8,2.4c12.6,2.1,24.6,4,36-4
		c10.5-7.3,22.6-23.4,33.3-41.1c-0.1,0.9-0.2,1.9-0.4,2.8c0,0.2-0.1,0.4-0.1,0.6c-0.4,2.5-0.7,5.1-1.1,7.7
		C457,435.9,449.1,443.2,447.6,444.3z M488.7,375.9h-7.6c2.2-18.1,3.2-32.3,3.3-33.4c0.4-4.5,0.7-9.1,0.7-13.6h3.6
		c1.7,0,3.3,0.4,4.8,1.1c0.1,0.1,0.2,0.1,0.4,0.2c3.5,1.9,5.9,5.6,5.9,9.8v20.1c0,0.1,0,0.2,0,0.2v4.6
		C499.8,370.9,494.8,375.9,488.7,375.9z M488.7,313.8h-4.4c-1.2-11.3-3.7-22.3-7.6-32.8c4.7,3.2,9,6.7,12.8,10.4v4
		c0,0.1,0,0.1,0,0.2v18.2C489.3,313.8,489,313.8,488.7,313.8z M550.4,294.7c-13.1,3.6-25.4,3.6-36.6,0.2c0.4-0.3,0.8-0.5,1.2-0.8
		c9.2-7.1,13.7-22.2,4.6-37.4c-1.3-2.2-2.6-6.9-3.9-12.5c22.8-1.3,48.2,10.1,70,31.6C580.6,280.8,567.7,290,550.4,294.7z"/>
	<path class="st1" d="M421.8,334.9c-4.1,0-7.5-3.3-7.5-7.5v-2c0-4.1,3.4-7.5,7.5-7.5s7.5,3.4,7.5,7.5v2
		C429.2,331.6,425.9,334.9,421.8,334.9z"/>
	<path class="st1" d="M372.5,370.3c14.2,0,27,7.2,34.4,19.3c2.2,3.5,1,8.1-2.5,10.3c-3.5,2.2-8.1,1-10.3-2.5
		c-4.6-7.6-12.7-12.2-21.7-12.2c-8.9,0-17,4.5-21.6,12.2c-2.1,3.5-6.8,4.7-10.3,2.5s-4.7-6.8-2.5-10.3
		C345.4,377.5,358.3,370.3,372.5,370.3z"/>
</g>
</svg>
