<?xml version="1.0" encoding="utf-8"?>
<!-- Generator: Adobe Illustrator 22.0.0, SVG Export Plug-In . SVG Version: 6.00 Build 0)  -->
<svg version="1.1" id="Layer_1" xmlns="http://www.w3.org/2000/svg" xmlns:xlink="http://www.w3.org/1999/xlink" x="0px" y="0px"
	 viewBox="0 0 512 512" style="enable-background:new 0 0 512 512;" xml:space="preserve">
<style type="text/css">
	.st0{fill:#008CA8;}
</style>
<path class="st0" d="M256,421c91,0,165-74,165-165S347,91,256,91S91,165,91,256S165,421,256,421z M172.2,193.4l47.6,47.6h-67.3
	C155.1,223.3,161.9,207.1,172.2,193.4z M339.8,318.6L292.2,271h67.3C356.9,288.7,350.1,304.9,339.8,318.6z M241,359.5
	c-17.7-2.6-33.9-9.4-47.6-19.7l47.6-47.6V359.5z M271,292.2l47.6,47.6c-13.7,10.3-29.9,17.1-47.6,19.7V292.2z M359.5,241h-67.3
	l47.6-47.6C350.1,207.1,356.9,223.3,359.5,241z M271,219.8v-67.3c17.7,2.6,33.9,9.4,47.6,19.7L271,219.8z M241,219.8l-47.6-47.6
	c13.7-10.3,29.9-17.1,47.6-19.7V219.8z M219.8,271l-47.6,47.6c-10.3-13.7-17.1-29.9-19.7-47.6H219.8z"/>
<path class="st0" d="M413.3,370.8c-11.9,16.2-26.2,30.5-42.4,42.4l23.1,23.1c11.7,11.7,30.7,11.7,42.4,0c11.7-11.7,11.7-30.7,0-42.4
	L413.3,370.8z"/>
<path class="st0" d="M482,226h-33.6c1.5,9.8,2.6,19.8,2.6,30c0,10.2-1,20.2-2.6,30H482c16.6,0,30-13.4,30-30S498.6,226,482,226z"/>
<path class="st0" d="M393.9,75.7l-23.1,23.1c16.2,11.9,30.5,26.2,42.4,42.4l23.1-23.1c11.7-11.7,11.7-30.7,0-42.4
	S405.6,64,393.9,75.7z"/>
<path class="st0" d="M226,30v33.6c9.8-1.5,19.8-2.6,30-2.6c10.2,0,20.2,1,30,2.6V30c0-16.6-13.4-30-30-30S226,13.4,226,30z"/>
<path class="st0" d="M98.7,141.2c11.9-16.2,26.2-30.5,42.4-42.4L118,75.7C106.4,64,87.4,64,75.7,75.7s-11.7,30.7,0,42.4L98.7,141.2z
	"/>
<path class="st0" d="M30,226c-16.6,0-30,13.4-30,30s13.4,30,30,30h33.6c-1.5-9.8-2.6-19.8-2.6-30s1-20.2,2.6-30H30z"/>
<path class="st0" d="M98.7,370.8l-23.1,23.1c-11.7,11.7-11.7,30.7,0,42.4c11.7,11.7,30.7,11.7,42.4,0l23.1-23.1
	C124.9,401.4,110.6,387.1,98.7,370.8z"/>
<path class="st0" d="M226,448.4V482c0,16.6,13.4,30,30,30s30-13.4,30-30v-33.6c-9.8,1.5-19.8,2.6-30,2.6S235.8,450,226,448.4z"/>
</svg>
