<svg xmlns="http://www.w3.org/2000/svg" viewBox="0 0 2580.37 656.44"><defs><style>.a,.b{fill:#fff;}.b{font-size:288.5px;font-family:IM_FELL_Double_Pica_SC, IM FELL Double Pica SC;}.c{letter-spacing:-0.01em;}.d{letter-spacing:0.01em;}.e{letter-spacing:-0.03em;}.f{letter-spacing:0em;}.g{letter-spacing:-0.08em;}.h{letter-spacing:-0.08em;}.i{letter-spacing:-0.02em;}.j{letter-spacing:-0.01em;}</style></defs><path class="a" d="M875.05,239.89c-8.75,5.85-18.91,4.58-28.35,6.77-13,3-26.05,11.17-37-3.88-.25-.35-.93-.39-1.8-.72,3.63-2.12,7.38-5.19,2.89-8.56-8.56-6.43-13.54-16.74-24.49-20.82-5-1.88-9-7-9.58-13.81-.43-5.18-1.58-11.14-6.67-14-8.12-4.59-9.88-11.73-9.87-20.13,0-5.95-.6-12.46-4.86-16.48-5.13-4.83-7.19-10.38-10.19-16.42-6.93-13.94-11.63-29.14-20.75-42-1.79-2.52-4.11-5.25-2.06-9.54,3.85,4.48,4.18,10.58,9,13.65,2.19,1.39,3.73,3.06,5.07-1.06,2.87-8.81,5.05-17.32.11-26.25-1.51-2.72-2.21-4.42-5.74-3.37-4.87,1.44-11,2-14.49-.7-7.15-5.51-12.8-1.77-18.72.86-2.91,1.28-5.15,3.64-8.78,2.23-13.51-5.25-28.22-6.28-41.69-11.73-2.83-1.14-5.36-1.7-7.77-4.54-5.5-6.47-12.66-3.75-19.1-.72-5.4,2.53-8.59,6.39-5.89,12.86,1.69,4-.62,6.72-3.57,8.83-3.21,2.29-6.43,2.2-9.41-.72A23.57,23.57,0,0,0,587,63c-6.78-.65-12.08-2.23-13.27-10-.36-2.34-2.75-2.06-4.24-3-8-5-17.61-2.25-26-5.9-3.57-1.55-4.77-5.17-8.66-6.14-7.19-1.78-7.44-3.89-1.62-9,3-2.59,6.68-6.75,4.21-9.27-5.8-5.9-3.74-10.38,1.11-15.64-3.5-1.19-5.71,4.08-7.83-.66s-5.89-3.78-9.35-1.83c-3.09,1.75-6.26,3.75-9.77,2.88-12.07-3-24,.83-36,1-16,.19-32,5-44.84,16.2a7,7,0,0,1-5.21,1.62,70.24,70.24,0,0,0-19.73-1c-2.24.16-3.95-1.3-5.51-2.86-5.28-5.28-7.38-5-9.05,2-2.22,9.36-7,15.62-16.3,19-8.41,3.09-17,17.94-14.56,26.24s-1.81,12.84-6.77,17.1c-5.12,4.4-9.74,10.06-17.6,10.19-3,.06-4.25,2.79-5.15,5.48-1.38,4.13-3.15,8-7.6,9.8a6.44,6.44,0,0,0-3.78,4.91c-2.86,13.6-13,23.25-19,35.13-2.24,4.42-2.92,8.45,1.12,12.08,2,1.83,4.86,3.89,3.65,6.56-2.19,4.83,0,8.75,1.17,13a16.4,16.4,0,0,1-.65,11.8c-3.32,6.82-1.12,15.89-8.54,21-.74.51-.74,1.2-.07,1.87,4.53,4.52,5,9.88,3.83,15.89a6,6,0,0,0-.06,1.89H301c8.16-.31,16.8-1,24.39.16,7,1.06,14.25-4.07,20.62,1.25,6.12-3.21,12.69.54,19.16-1.32,3.27-.94,7.61.54,11.51.07.73-.09,1.51.29,2.25.25,8-.38,8-.4,7.88,8.3-1.59,4.06-.63,9.13-.41,14.09.11,2.41-.73,2.62-2.32,2.74-4.08.31-8.3,1.32-12.21.63-9.88-1.75-19.54-.43-29.36.29-4.17.3-8.74-.32-13.09-.77a13.07,13.07,0,0,0-2.11.1,17.09,17.09,0,0,1,4.63,11.07c.1,2.44,2.55,6.6,6.15,8.53a163.21,163.21,0,0,1,27.5,19c6.34,5.3,13.2,7.87,22,3.59a44,44,0,0,1,35.07-1.77c3.24,1.19,5.55.17,8.34-.78,7-2.38,13.69-5.45,20.63-7.91-1.32-.55-2.64-1.13-4-1.71-5-2.22-5.83-7.61-6.94-12a54.9,54.9,0,0,0-1.83-6.71c-2.17-5.15.57-5.15,3.89-4.62,5.29.85,10.48-.29,15.71-.3,4.11,0,7.89,2.5,12.32,1,1.13-.39,5.26-3.15,5.84,1.69,1.47-.39,1.74-2.25,4-2.17,7.28.26,14.57-.27,21.86-.25,13.8,0,27.59.21,41.38.39,2.05,0,5-1,5,3.09.33-3.84,2.62-3.66,5.13-3.1,2.8.62,1.76,2.24,1.95,4.39.64,7.47-2.42,14.91-.25,22.22,1.29,4.35-.54,5.67-4.23,5.58-7-.16-14.14-1.41-21-.67-8.67.93-17.25.6-25.88.45l-9-3.36c-.5-1.06-.67-.1-1,.14a13.74,13.74,0,0,1-5.42,2.27c2.32,6.79,6.61,8.12,13.1,6.75,3.12-.66,6.34-.81,9.51-1.25,7.3-1,16.52,6.72,15.65,14-1,8.78-1.44,18.27-5.23,25.9-4.24,8.52-.9,14.27,3.89,18.85,11.52,11,21.14,22.95,26.11,38.31,1.55,4.78,6,10.65,4.56,14a13.19,13.19,0,0,0-1.25,5.36c14.25,0,28.51,0,42.76-.1,2.61,0,4.09.63,4.52,3.79.28-3.37,1.55-4.34,4.52-3.8,3.25.59,2.16,2.12,2.4,4.55.75,7.5-2.47,14.9-.25,22.26,1.26,4.21-.6,5.57-4.32,5.48-8.71-.22-17.63-1.87-26-.46-7.44,1.25-14.83.26-22.16.83-1.18.09-2.42.16-3.69.21a22.85,22.85,0,0,0-3.57,7.37c-1.83,6.09-4.16,12.33-5.25,18.29-1.54,8.44-2.68,17.6,3.74,26a62.67,62.67,0,0,1,5.77,9.35c.54.05,1,.12,1.22.15,7.48,1,14.92-.4,22.1,0,12.08.77,24.12-1,36.1.55,4.87.61,10-2.2,14.66,1.18,1,.74.67-.81,1.31-1.06,4.27-1.69,7.68.27,7.52,4.76-.11,3,.44,5.94-1.06,9.13-.75,1.58.82,5.25,1.18,8,.39,3-.31,3.41-3.21,3.14-4.56-.42-9.09-.19-13.67-1.39-6-1.57-11.61,2.63-17.78,2.13a174.27,174.27,0,0,0-21.93-.27c-4.14.18-8.93.61-13.3-.47a3.57,3.57,0,0,1,0,.66c-1.48,12.23,3.41,23.53,5,35.3a31,31,0,0,0,10.56,19.25,18.29,18.29,0,0,1,5,8.08,86.35,86.35,0,0,0,9.78,21c1.84,2.77,3.56,7.05,1.65,9-5.75,5.94.17,10.06,1.65,14.48s6.65,6.5,10.47,9.13c2.8,1.93,4.68-2.47,6.94-2.48,7.74-.05,14.17-5.22,22.18-4.59,17.22,1.35,33.43-1.66,45.72-15.2,8.37-9.23,18.57-17,23.1-29.42a14.28,14.28,0,0,1,5.12-6c8.64-6.18,10.2-16.17,8.56-24.42-1.54-7.77,1.72-9.37,6.47-11.69,3.11-1.52,6.47-2.52,9.67-3.87,4.28-1.8,6-4.61,6.5-9.74,1-10.28-1.75-19.43-5.58-28.51-1-2.47-1.65-5.3.27-6.59,11.78-7.9,19.06-21.5,33.87-25.72,8.9-2.53,17.82-14.9,16.41-21.64-2.21-10.52-2.24-21-1.76-31.66.09-2.06-.37-3.72-2-4.93-6.67-4.91-7.33-12-7.88-19.55-.34-4.71,2.71-10.79-3.77-14.17-1.47-.77-1.13-2.93-.77-4.49,2.26-10,6.64-20.65,13.09-26.65,10.21-9.49,17.87-21.05,28.22-30.34,7.87-7.06,17.61-10.95,25.18-18.37,14.09-13.82,21.43-31.74,31.34-48.12,4.57-7.56,6.16-15.6,6.81-24.19C879.2,239.78,877.14,238.5,875.05,239.89Zm-393-41c-4.53-.63-9.13,0-13.78-1.23-2.66-.71-6.06-1.18-9.26,1.11-2,1.4-5.55.55-9.2.76-4.38-1.25-9.64,0-14.92-1.78-3.2-1.09-7.52,1.33-10.84.41-4.37-1.22-9.52,1.78-12.85-1.75-2.48-2.63-5-.54-7.35-1.68-7-3.46-9.48-10.15-12.08-16.68-.54-1.36-.86-3.8,1.18-4.57,1.6-.6,2.06.95,2.08,2.36,0,.55.39,1.29.79.83,5.87-6.75,13.37-1.84,20-2.64,10.39-1.25,21-.77,31.43-.81,6.66,0,13.63-.32,20.44.69,4.63.68,9.46.09,14.18-.15,2.63-.12,3.18.62,2.78,3.27-.56,3.7,1.26,7.75-1.78,11.08,3.26,2,1.14,5.18,1.78,7.76C485.15,197.86,485.56,199.41,482,198.91ZM649.16,370.73c-5.21,1.66-10.55-2.79-16.25-.7-8.92,3.27-18.12.38-27.16,1-3.36.21-6.87.48-9.85-.65-4.31-1.65-8.91,2-12.89-1.31-3-2.49-7.1-1.8-10.37-3.87-6.4-4-7.22-10.59-8.55-17-.3-1.44.95-2.76,1.24-2.27,2.62,4.38,5.18.09,7.6,0,4-.17,8,1.27,11.49.66,3.94-.69,8.62-1.35,11.81-1,6.48.72,12.79.08,19.13,0,9.42-.15,18.81,1.38,28.34,0,1.93-.29,5.52.59,8.19.35,4.23-.37,5.26,1.34,4.62,5-.53,3,1,6.12-1.4,9-1.49,1.82,1.54,3.22,1.63,5.67C657,371.93,654.07,371.87,649.16,370.73Z"/><path class="a" d="M255.3,268.58c0-5,2.43-4.84,5.18-4.24s1.76,2.24,1.95,4.39c.64,7.48-2.43,14.91-.26,22.22,1.3,4.35-.53,5.67-4.22,5.59-7-.16-14.14-1.42-21-.68-8.67.93-17.25.6-25.88.45L202,293c-.5-1.05-.66-.09-1,.14-6.22,4.37-13.15,1.92-19.76,1.85-9.66-.09-18.47-3.79-27.13-7.61-5-2.22-5.83-7.62-6.93-12a52.68,52.68,0,0,0-1.84-6.71c-2.16-5.15.57-5.16,3.89-4.63,5.29.85,10.48-.28,15.72-.3,4.1,0,7.88,2.5,12.32,1,1.13-.38,5.25-3.15,5.84,1.7,1.47-.4,1.74-2.25,4-2.17,7.27.25,14.57-.27,21.86-.25,13.79,0,27.59.21,41.38.39C252.52,264.39,255.79,263.23,255.3,268.58Z"/><path class="a" d="M309.18,420.91c.27-3.37,1.55-4.34,4.52-3.8,3.24.6,2.16,2.13,2.4,4.56.74,7.49-2.47,14.89-.26,22.25,1.27,4.21-.6,5.58-4.32,5.48-8.7-.22-17.63-1.87-26-.45-7.45,1.25-14.84.26-22.16.83a67.2,67.2,0,0,1-16.13-.46,49.18,49.18,0,0,0-16.44-.54c-2.28.36-6.81-.67-8.57-2.06-3.78-3-8.44-2.89-12.44-5-6.27-3.27-7.93-8.46-8.84-13.69-.46-2.67-2.68-3.73-2.9-6.47-.34-4.49,1.18-5.43,4.92-4.77,5.27.94,10.49-.24,15.73-.27,4.1,0,7.9,2.33,12.32,1,1.21-.36,5.25-3.11,5.85,1.7,1.06-1.69,2.52-2.14,4.56-2.09,6.75.17,13.5.06,20.26.05,14.34,0,28.68,0,43-.1C307.27,417.1,308.74,417.75,309.18,420.91Z"/><path class="a" d="M355.55,368.67c-5.22,1.66-10.56-2.79-16.26-.7-8.91,3.28-18.11.39-27.15,1-3.37.21-6.88.48-9.85-.66-4.31-1.65-8.92,2-12.9-1.31-3-2.48-7.1-1.79-10.36-3.86-6.4-4.06-7.22-10.6-8.56-17.05-.3-1.45.95-2.77,1.25-2.27,2.61,4.37,5.17.08,7.6,0,3.95-.17,8,1.27,11.49.67,3.94-.69,8.61-1.36,11.8-1,6.49.72,12.8.07,19.13,0,9.43-.16,18.82,1.37,28.35-.05,1.93-.29,5.52.59,8.19.36,4.22-.37,5.25,1.34,4.61,5-.52,3,1,6.13-1.4,9-1.48,1.82,1.55,3.21,1.63,5.67C363.35,369.88,360.46,369.82,355.55,368.67Z"/><path class="a" d="M156.18,197.49c-4.37-1.25-9.63,0-14.92-1.78-3.19-1.08-7.51,1.34-10.84.41-4.36-1.22-9.51,1.79-12.85-1.75-2.47-2.63-5-.53-7.34-1.68-7-3.45-9.48-10.14-12.08-16.68-.54-1.35-.87-3.79,1.18-4.56,1.6-.6,2.06.94,2.07,2.35,0,.55.39,1.29.8.83,5.87-6.75,13.37-1.83,20-2.63,10.38-1.25,21-.77,31.43-.82,6.65,0,13.62-.31,20.44.69,4.62.68,9.45.09,14.18-.14,2.63-.13,3.18.61,2.77,3.26-.56,3.7,1.27,7.76-1.77,11.08,3.26,2,1.14,5.19,1.77,7.77.49,2,.91,3.51-2.62,3-4.53-.63-9.12,0-13.78-1.24-2.65-.71-6-1.17-9.26,1.11C163.41,198.13,159.84,197.28,156.18,197.49Z"/><path class="a" d="M93.18,240.2c-1.59,4.05-.62,9.13-.4,14.08.11,2.42-.73,2.62-2.33,2.75-4.07.31-8.29,1.32-12.2.63-9.89-1.76-19.55-.43-29.36.28-4.18.31-8.74-.31-13.1-.77-2.13-.22-5.64,1.48-6.12-2.8a1.06,1.06,0,0,0-.88-.22c-8.36,5-15.12,0-21.68-3.93C1.76,247,.75,240.65.05,235.16c-.63-4.89,5.09-3.59,7.33-3.68,8.15-.3,16.8-1,24.38.17,7,1,14.26-4.08,20.62,1.24,6.13-3.21,12.69.55,19.17-1.32,3.26-.94,7.61.54,11.5.07.73-.09,1.51.29,2.26.25C93.27,231.51,93.27,231.5,93.18,240.2Z"/><path class="a" d="M254.13,515c.62-4.88,6.22-4,7.41-3.8,7.48,1,14.91-.4,22.1.06,12.07.76,24.11-.95,36.09.54,4.87.61,10-2.2,14.66,1.19,1,.74.68-.81,1.31-1.06,4.28-1.69,7.69.26,7.52,4.76-.11,3,.45,5.94-1.06,9.12-.74,1.59.82,5.25,1.19,8,.39,3-.31,3.41-3.22,3.14-4.56-.41-9.08-.19-13.67-1.39-6-1.57-11.6,2.63-17.77,2.14a176.18,176.18,0,0,0-21.93-.28c-5.47.25-12.07.92-17.33-2-4.55-2.54-10.48-2.83-13.73-7.24a36.56,36.56,0,0,1-5.54-12.74c-.37-1.47-.26-3.58,1.42-4C254.07,510.88,253.06,513.81,254.13,515Z"/><text class="b" transform="translate(982.33 456.05)"><tspan class="c">S</tspan><tspan class="d" x="158.9" y="0">l</tspan><tspan class="e" x="302.03" y="0">a</tspan><tspan class="f" x="422.33" y="0">v</tspan><tspan class="g" x="549.25" y="0">e</tspan><tspan class="h" x="657.16" y="0">V</tspan><tspan class="i" x="838.04" y="0">o</tspan><tspan x="976.65" y="0">y</tspan><tspan class="j" x="1094.28" y="0">a</tspan><tspan x="1220.5" y="0">ges</tspan></text><path class="a" d="M866.27,472.83c1.67,11.42-1.66,20.83-4.17,30.06-4.71,17.35-10.74,34.36-16.41,51.45-1.6,4.83-13.18,11.38-18.05,10.68-7.22-1-13.16-8-13.46-15.87,0-1.32.9-3.09.32-3.9-7.07-9.92-2.65-18.18,3.58-26.19,3.52-4.53,3.36-9.2,1.45-14.38-2.52-6.89-4.06-13.59.63-20.79,2-3,3.87-4.93,6.83-6,10.56-3.69,22-6.23,24.09-20,6.6-1.49,8.11-6.52,9.43-12.27.64-2.79,2.86-1.06,4.15.5,6.58,7.94,6.44,18,7.75,27.29C873.2,479.1,869.27,475.37,866.27,472.83Z"/></svg>