<?xml version="1.0" encoding="utf-8"?>
<!-- Generator: Adobe Illustrator 25.2.1, SVG Export Plug-In . SVG Version: 6.00 Build 0)  -->
<svg version="1.1" id="Layer_1" xmlns="http://www.w3.org/2000/svg" xmlns:xlink="http://www.w3.org/1999/xlink" x="0px" y="0px"
	 viewBox="0 0 2580.4 656.4" style="enable-background:new 0 0 2580.4 656.4;" xml:space="preserve">
<style type="text/css">
	.st0{fill:#020202;}
	.st1{enable-background:new    ;}
</style>
<path class="st0" d="M875,239.9c-8.8,5.9-18.9,4.6-28.3,6.8c-13,3-26,11.2-37-3.9c-0.2-0.4-0.9-0.4-1.8-0.7c3.6-2.1,7.4-5.2,2.9-8.6
	c-8.6-6.4-13.5-16.7-24.5-20.8c-5-1.9-9-7-9.6-13.8c-0.4-5.2-1.6-11.1-6.7-14c-8.1-4.6-9.9-11.7-9.9-20.1c0-5.9-0.6-12.5-4.9-16.5
	c-5.1-4.8-7.2-10.4-10.2-16.4c-6.9-13.9-11.6-29.1-20.8-42c-1.8-2.5-4.1-5.2-2.1-9.5c3.8,4.5,4.2,10.6,9,13.7
	c2.2,1.4,3.7,3.1,5.1-1.1c2.9-8.8,5-17.3,0.1-26.2c-1.5-2.7-2.2-4.4-5.7-3.4c-4.9,1.4-11,2-14.5-0.7c-7.2-5.5-12.8-1.8-18.7,0.9
	c-2.9,1.3-5.2,3.6-8.8,2.2c-13.5-5.2-28.2-6.3-41.7-11.7c-2.8-1.1-5.4-1.7-7.8-4.5c-5.5-6.5-12.7-3.8-19.1-0.7
	c-5.4,2.5-8.6,6.4-5.9,12.9c1.7,4-0.6,6.7-3.6,8.8c-3.2,2.3-6.4,2.2-9.4-0.7c-3.9-3.8-8.9-6.1-14.3-6.6c-6.8-0.7-12.1-2.2-13.3-10
	c-0.4-2.3-2.8-2.1-4.2-3c-8-5-17.6-2.2-26-5.9c-3.6-1.5-4.8-5.2-8.7-6.1c-7.2-1.8-7.4-3.9-1.6-9c3-2.6,6.7-6.8,4.2-9.3
	c-5.8-5.9-3.7-10.4,1.1-15.6c-3.5-1.2-5.7,4.1-7.8-0.7s-5.9-3.8-9.3-1.8c-3.1,1.7-6.3,3.8-9.8,2.9c-12.1-3-24,0.8-36,1
	c-16,0.2-32,5-44.8,16.2c-1.4,1.2-3.3,1.8-5.2,1.6c-6.5-1.3-13.1-1.6-19.7-1c-2.2,0.2-4-1.3-5.5-2.9c-5.3-5.3-7.4-5-9,2
	c-2.2,9.4-7,15.6-16.3,19c-8.4,3.1-17,17.9-14.6,26.2s-1.8,12.8-6.8,17.1c-5.1,4.4-9.7,10.1-17.6,10.2c-3,0.1-4.2,2.8-5.1,5.5
	c-1.4,4.1-3.1,8-7.6,9.8c-2,0.9-3.4,2.7-3.8,4.9c-2.9,13.6-13,23.2-19,35.1c-2.2,4.4-2.9,8.4,1.1,12.1c2,1.8,4.9,3.9,3.6,6.6
	c-2.2,4.8,0,8.8,1.2,13c1.3,3.9,1,8.1-0.6,11.8c-3.3,6.8-1.1,15.9-8.5,21c-0.7,0.5-0.7,1.2-0.1,1.9c4.5,4.5,5,9.9,3.8,15.9
	c-0.1,0.6-0.1,1.3-0.1,1.9h0.1c8.2-0.3,16.8-1,24.4,0.2c7,1.1,14.2-4.1,20.6,1.2c6.1-3.2,12.7,0.5,19.2-1.3
	c3.3-0.9,7.6,0.5,11.5,0.1c0.7-0.1,1.5,0.3,2.2,0.2c8-0.4,8-0.4,7.9,8.3c-1.6,4.1-0.6,9.1-0.4,14.1c0.1,2.4-0.7,2.6-2.3,2.7
	c-4.1,0.3-8.3,1.3-12.2,0.6c-9.9-1.8-19.5-0.4-29.4,0.3c-4.2,0.3-8.7-0.3-13.1-0.8c-0.7,0-1.4,0-2.1,0.1c2.8,3,4.5,6.9,4.6,11.1
	c0.1,2.4,2.5,6.6,6.1,8.5c9.8,5.4,19,11.7,27.5,19c6.3,5.3,13.2,7.9,22,3.6c10.9-5.4,23.6-6.1,35.1-1.8c3.2,1.2,5.5,0.2,8.3-0.8
	c7-2.4,13.7-5.5,20.6-7.9c-1.3-0.5-2.6-1.1-4-1.7c-5-2.2-5.8-7.6-6.9-12c-0.5-2.3-1.1-4.5-1.8-6.7c-2.2-5.1,0.6-5.1,3.9-4.6
	c5.3,0.9,10.5-0.3,15.7-0.3c4.1,0,7.9,2.5,12.3,1c1.1-0.4,5.3-3.1,5.8,1.7c1.5-0.4,1.7-2.2,4-2.2c7.3,0.3,14.6-0.3,21.9-0.2
	c13.8,0,27.6,0.2,41.4,0.4c2,0,5-1,5,3.1c0.3-3.8,2.6-3.7,5.1-3.1c2.8,0.6,1.8,2.2,2,4.4c0.6,7.5-2.4,14.9-0.2,22.2
	c1.3,4.4-0.5,5.7-4.2,5.6c-7-0.2-14.1-1.4-21-0.7c-8.7,0.9-17.2,0.6-25.9,0.5l-9-3.4c-0.5-1.1-0.7-0.1-1,0.1
	c-1.6,1.1-3.5,1.9-5.4,2.3c2.3,6.8,6.6,8.1,13.1,6.8c3.1-0.7,6.3-0.8,9.5-1.2c7.3-1,16.5,6.7,15.7,14c-1,8.8-1.4,18.3-5.2,25.9
	c-4.2,8.5-0.9,14.3,3.9,18.9c11.5,11,21.1,23,26.1,38.3c1.5,4.8,6,10.6,4.6,14c-0.8,1.7-1.2,3.5-1.2,5.4c14.2,0,28.5,0,42.8-0.1
	c2.6,0,4.1,0.6,4.5,3.8c0.3-3.4,1.5-4.3,4.5-3.8c3.2,0.6,2.2,2.1,2.4,4.5c0.8,7.5-2.5,14.9-0.2,22.3c1.3,4.2-0.6,5.6-4.3,5.5
	c-8.7-0.2-17.6-1.9-26-0.5c-7.4,1.2-14.8,0.3-22.2,0.8c-1.2,0.1-2.4,0.2-3.7,0.2c-1.6,2.2-2.8,4.7-3.6,7.4
	c-1.8,6.1-4.2,12.3-5.2,18.3c-1.5,8.4-2.7,17.6,3.7,26c2.2,2.9,4.1,6.1,5.8,9.3c0.5,0,1,0.1,1.2,0.2c7.5,1,14.9-0.4,22.1,0
	c12.1,0.8,24.1-1,36.1,0.5c4.9,0.6,10-2.2,14.7,1.2c1,0.7,0.7-0.8,1.3-1.1c4.3-1.7,7.7,0.3,7.5,4.8c-0.1,3,0.4,5.9-1.1,9.1
	c-0.8,1.6,0.8,5.2,1.2,8c0.4,3-0.3,3.4-3.2,3.1c-4.6-0.4-9.1-0.2-13.7-1.4c-6-1.6-11.6,2.6-17.8,2.1c-7.3-0.6-14.6-0.6-21.9-0.3
	c-4.1,0.2-8.9,0.6-13.3-0.5c0,0.2,0,0.4,0,0.7c-1.5,12.2,3.4,23.5,5,35.3c1.1,7.5,4.8,14.3,10.6,19.2c2.3,2.2,4.1,5,5,8.1
	c2.3,7.4,5.6,14.5,9.8,21c1.8,2.8,3.6,7,1.7,9c-5.8,5.9,0.2,10.1,1.7,14.5s6.7,6.5,10.5,9.1c2.8,1.9,4.7-2.5,6.9-2.5
	c7.7,0,14.2-5.2,22.2-4.6c17.2,1.3,33.4-1.7,45.7-15.2c8.4-9.2,18.6-17,23.1-29.4c1.1-2.4,2.9-4.5,5.1-6c8.6-6.2,10.2-16.2,8.6-24.4
	c-1.5-7.8,1.7-9.4,6.5-11.7c3.1-1.5,6.5-2.5,9.7-3.9c4.3-1.8,6-4.6,6.5-9.7c1-10.3-1.8-19.4-5.6-28.5c-1-2.5-1.7-5.3,0.3-6.6
	c11.8-7.9,19.1-21.5,33.9-25.7c8.9-2.5,17.8-14.9,16.4-21.6c-2.2-10.5-2.2-21-1.8-31.7c0.1-2.1-0.4-3.7-2-4.9
	c-6.7-4.9-7.3-12-7.9-19.5c-0.3-4.7,2.7-10.8-3.8-14.2c-1.5-0.8-1.1-2.9-0.8-4.5c2.3-10,6.6-20.6,13.1-26.6
	c10.2-9.5,17.9-21,28.2-30.3c7.9-7.1,17.6-11,25.2-18.4c14.1-13.8,21.4-31.7,31.3-48.1c4.6-7.6,6.2-15.6,6.8-24.2
	C879.2,239.8,877.1,238.5,875,239.9z M482,198.9c-4.5-0.6-9.1,0-13.8-1.2c-2.7-0.7-6.1-1.2-9.3,1.1c-2,1.4-5.5,0.6-9.2,0.8
	c-4.4-1.2-9.6,0-14.9-1.8c-3.2-1.1-7.5,1.3-10.8,0.4c-4.4-1.2-9.5,1.8-12.9-1.8c-2.5-2.6-5-0.5-7.4-1.7c-7-3.5-9.5-10.1-12.1-16.7
	c-0.5-1.4-0.9-3.8,1.2-4.6c1.6-0.6,2.1,0.9,2.1,2.4c0,0.6,0.4,1.3,0.8,0.8c5.9-6.8,13.4-1.8,20-2.6c10.4-1.2,21-0.8,31.4-0.8
	c6.7,0,13.6-0.3,20.4,0.7c4.6,0.7,9.5,0.1,14.2-0.1c2.6-0.1,3.2,0.6,2.8,3.3c-0.6,3.7,1.3,7.8-1.8,11.1c3.3,2,1.1,5.2,1.8,7.8
	C485.1,197.9,485.6,199.4,482,198.9L482,198.9z M649.2,370.7c-5.2,1.7-10.5-2.8-16.2-0.7c-8.9,3.3-18.1,0.4-27.2,1
	c-3.4,0.2-6.9,0.5-9.8-0.6c-4.3-1.6-8.9,2-12.9-1.3c-3-2.5-7.1-1.8-10.4-3.9c-6.4-4-7.2-10.6-8.5-17c-0.3-1.4,1-2.8,1.2-2.3
	c2.6,4.4,5.2,0.1,7.6,0c4-0.2,8,1.3,11.5,0.7c3.9-0.7,8.6-1.4,11.8-1c6.5,0.7,12.8,0.1,19.1,0c9.4-0.1,18.8,1.4,28.3,0
	c1.9-0.3,5.5,0.6,8.2,0.4c4.2-0.4,5.3,1.3,4.6,5c-0.5,3,1,6.1-1.4,9c-1.5,1.8,1.5,3.2,1.6,5.7C657,371.9,654.1,371.9,649.2,370.7z"
	/>
<path class="st0" d="M255.3,268.6c0-5,2.4-4.8,5.2-4.2s1.8,2.2,2,4.4c0.6,7.5-2.4,14.9-0.3,22.2c1.3,4.4-0.5,5.7-4.2,5.6
	c-7-0.2-14.1-1.4-21-0.7c-8.7,0.9-17.2,0.6-25.9,0.5L202,293c-0.5-1-0.7-0.1-1,0.1c-6.2,4.4-13.1,1.9-19.8,1.9
	c-9.7-0.1-18.5-3.8-27.1-7.6c-5-2.2-5.8-7.6-6.9-12c-0.5-2.3-1.1-4.5-1.8-6.7c-2.2-5.1,0.6-5.2,3.9-4.6c5.3,0.9,10.5-0.3,15.7-0.3
	c4.1,0,7.9,2.5,12.3,1c1.1-0.4,5.2-3.1,5.8,1.7c1.5-0.4,1.7-2.2,4-2.2c7.3,0.2,14.6-0.3,21.9-0.2c13.8,0,27.6,0.2,41.4,0.4
	C252.5,264.4,255.8,263.2,255.3,268.6z"/>
<path class="st0" d="M309.2,420.9c0.3-3.4,1.5-4.3,4.5-3.8c3.2,0.6,2.2,2.1,2.4,4.6c0.7,7.5-2.5,14.9-0.3,22.2
	c1.3,4.2-0.6,5.6-4.3,5.5c-8.7-0.2-17.6-1.9-26-0.5c-7.5,1.2-14.8,0.3-22.2,0.8c-5.4,0.5-10.8,0.3-16.1-0.5
	c-5.4-1.1-11-1.3-16.4-0.5c-2.3,0.4-6.8-0.7-8.6-2.1c-3.8-3-8.4-2.9-12.4-5c-6.3-3.3-7.9-8.5-8.8-13.7c-0.5-2.7-2.7-3.7-2.9-6.5
	c-0.3-4.5,1.2-5.4,4.9-4.8c5.3,0.9,10.5-0.2,15.7-0.3c4.1,0,7.9,2.3,12.3,1c1.2-0.4,5.2-3.1,5.9,1.7c1.1-1.7,2.5-2.1,4.6-2.1
	c6.8,0.2,13.5,0.1,20.3,0c14.3,0,28.7,0,43-0.1C307.3,417.1,308.7,417.8,309.2,420.9z"/>
<path class="st0" d="M355.5,368.7c-5.2,1.7-10.6-2.8-16.3-0.7c-8.9,3.3-18.1,0.4-27.1,1c-3.4,0.2-6.9,0.5-9.9-0.7
	c-4.3-1.6-8.9,2-12.9-1.3c-3-2.5-7.1-1.8-10.4-3.9c-6.4-4.1-7.2-10.6-8.6-17c-0.3-1.5,1-2.8,1.2-2.3c2.6,4.4,5.2,0.1,7.6,0
	c4-0.2,8,1.3,11.5,0.7c3.9-0.7,8.6-1.4,11.8-1c6.5,0.7,12.8,0.1,19.1,0c9.4-0.2,18.8,1.4,28.4,0c1.9-0.3,5.5,0.6,8.2,0.4
	c4.2-0.4,5.2,1.3,4.6,5c-0.5,3,1,6.1-1.4,9c-1.5,1.8,1.5,3.2,1.6,5.7C363.4,369.9,360.5,369.8,355.5,368.7z"/>
<path class="st0" d="M156.2,197.5c-4.4-1.2-9.6,0-14.9-1.8c-3.2-1.1-7.5,1.3-10.8,0.4c-4.4-1.2-9.5,1.8-12.8-1.8
	c-2.5-2.6-5-0.5-7.3-1.7c-7-3.4-9.5-10.1-12.1-16.7c-0.5-1.4-0.9-3.8,1.2-4.6c1.6-0.6,2.1,0.9,2.1,2.4c0,0.6,0.4,1.3,0.8,0.8
	c5.9-6.8,13.4-1.8,20-2.6c10.4-1.2,21-0.8,31.4-0.8c6.6,0,13.6-0.3,20.4,0.7c4.6,0.7,9.4,0.1,14.2-0.1c2.6-0.1,3.2,0.6,2.8,3.3
	c-0.6,3.7,1.3,7.8-1.8,11.1c3.3,2,1.1,5.2,1.8,7.8c0.5,2,0.9,3.5-2.6,3c-4.5-0.6-9.1,0-13.8-1.2c-2.6-0.7-6-1.2-9.3,1.1
	C163.4,198.1,159.8,197.3,156.2,197.5z"/>
<path class="st0" d="M93.2,240.2c-1.6,4.1-0.6,9.1-0.4,14.1c0.1,2.4-0.7,2.6-2.3,2.8c-4.1,0.3-8.3,1.3-12.2,0.6
	c-9.9-1.8-19.5-0.4-29.4,0.3c-4.2,0.3-8.7-0.3-13.1-0.8c-2.1-0.2-5.6,1.5-6.1-2.8c-0.2-0.2-0.6-0.3-0.9-0.2c-8.4,5-15.1,0-21.7-3.9
	c-5.4-3.2-6.4-9.6-7.1-15.1c-0.6-4.9,5.1-3.6,7.3-3.7c8.1-0.3,16.8-1,24.4,0.2c7,1,14.3-4.1,20.6,1.2c6.1-3.2,12.7,0.6,19.2-1.3
	c3.3-0.9,7.6,0.5,11.5,0.1c0.7-0.1,1.5,0.3,2.3,0.2C93.3,231.5,93.3,231.5,93.2,240.2z"/>
<path class="st0" d="M254.1,515c0.6-4.9,6.2-4,7.4-3.8c7.5,1,14.9-0.4,22.1,0.1c12.1,0.8,24.1-1,36.1,0.5c4.9,0.6,10-2.2,14.7,1.2
	c1,0.7,0.7-0.8,1.3-1.1c4.3-1.7,7.7,0.3,7.5,4.8c-0.1,3,0.5,5.9-1.1,9.1c-0.7,1.6,0.8,5.2,1.2,8c0.4,3-0.3,3.4-3.2,3.1
	c-4.6-0.4-9.1-0.2-13.7-1.4c-6-1.6-11.6,2.6-17.8,2.1c-7.3-0.5-14.6-0.6-21.9-0.3c-5.5,0.2-12.1,0.9-17.3-2
	c-4.5-2.5-10.5-2.8-13.7-7.2c-2.6-3.9-4.5-8.2-5.5-12.7c-0.4-1.5-0.3-3.6,1.4-4C254.1,510.9,253.1,513.8,254.1,515z"/>
<g class="st1">
	<path class="st0" d="M1034,454.6c-2.4-0.6-5.1-1.2-8.1-2s-5.6-1.5-8-2.3c-0.2,0-0.6-0.3-1.3-0.8c-0.7-0.6-1.1-0.9-1.1-1.1
		c-2.3-1.1-4.3-2-6.3-2.7c-1.9-0.7-3.6-1.4-5.1-2.3s-2.6-2.1-3.4-3.7c-0.8-1.6-1.2-3.9-1.2-7V432c0-0.2,0.3-0.8,0.8-1.8
		c0.6-1,0.8-1.6,0.8-1.8c0.5-2,0.7-4.1,0.6-6.4c0-2.3,0.1-4.6,0.4-6.8c0-0.1,0.2-0.5,0.5-1.2s0.5-1.1,0.5-1.3c0-0.1,0-0.4,0.1-0.8
		c0-0.5,0.1-1,0.2-1.5c0.1-0.6,0.2-1.1,0.3-1.6s0.2-0.9,0.3-1.2c0-0.2,0-0.6,0.1-1.3c0-0.7,0.1-1.4,0.2-2.2c0.1-0.8,0.2-1.5,0.3-2.2
		s0.1-1.1,0.1-1.3c0-0.1,0-0.4,0.1-1s0.2-1.1,0.4-1.7c0.1-0.6,0.3-1.1,0.4-1.6c0.1-0.5,0.1-0.8,0.1-0.9c0-0.2,0-0.6,0.1-1.3
		c0.1-0.7,0.2-1.4,0.3-2.2c0.1-0.8,0.2-1.5,0.3-2.3c0.1-0.7,0.2-1.2,0.3-1.5c0-0.3,0.1-0.7,0.2-1.3c0.1-0.6,0.3-1.2,0.6-1.8
		c0.2-0.6,0.5-1.1,0.8-1.5c0.3-0.5,0.7-0.7,1.2-0.7c0.8,0,1.4,0.7,2,2.1s1.1,3.1,1.5,5s0.8,3.8,1.1,5.7c0.3,1.9,0.5,3.2,0.7,4.1
		c0.1,0.6,0.2,1.6,0.4,3.1c0.1,1.5,0.3,3.1,0.4,4.8c0.1,1.7,0.3,3.3,0.4,4.7c0.1,1.5,0.2,2.5,0.2,3c0.2,0.2,0.4,0.5,0.6,0.8
		c0.2,0.4,0.4,0.7,0.4,0.8c0.8,1.6,1.3,3.1,1.7,4.5s1,2.9,1.8,4.5c0.1,0.3,0.3,0.7,0.6,1.3c0.3,0.6,0.7,1.2,1.1,1.8
		c0.4,0.6,0.7,1.2,1.1,1.8c0.3,0.6,0.6,1,0.8,1.3c0.2,0.1,0.5,0.4,1,0.8c0.5,0.5,0.7,0.8,0.7,1c0.1,0.1,0.3,0.4,0.5,0.9
		s0.5,1.1,0.8,1.7s0.6,1.2,0.8,1.7c0.3,0.5,0.4,0.8,0.4,0.9c0.8,1.2,2,2.3,3.4,3.2c1.4,0.9,2.9,1.8,4.5,2.5s3.2,1.4,4.8,2
		c1.6,0.6,3.1,1.2,4.4,1.8c0.2,0.2,0.6,0.6,1.2,1.1c0.6,0.6,1,0.8,1.2,0.8h1.4h3.8c0.4,0,1.3,0.1,2.7,0.4c1.5,0.2,2.4,0.4,2.7,0.4
		h3.9c3.5,0,6.6-0.4,9.2-1.3c2.7-0.8,5.5-1.9,8.5-3.1c0.7-0.2,1.6-0.4,2.7-0.6c1.2-0.2,2.1-0.6,2.7-1.2c0.2-0.1,0.6-0.4,1.3-1.1
		c0.7-0.6,1.4-1.3,2.1-2c0.8-0.8,1.5-1.5,2.2-2.3s1.2-1.3,1.5-1.5c0.4-0.4,0.9-0.9,1.5-1.7c0.7-0.8,1.3-1.5,2-2.3s1.2-1.4,1.8-2
		c0.5-0.6,0.8-1,0.9-1.1s0.2-0.4,0.4-0.9c0.1-0.5,0.3-1.1,0.5-1.7s0.4-1.2,0.5-1.7s0.3-0.8,0.4-0.9c0.5-1.2,0.9-2.2,1.3-2.9
		c0.4-0.7,0.8-1.4,1.1-2.1c0.3-0.7,0.6-1.5,0.8-2.3c0.2-0.8,0.3-2,0.3-3.4c0-3-0.1-5.9-0.2-8.7c-0.1-2.8-0.3-5.7-0.5-8.7
		c-0.4-1.9-1.1-3.5-2.3-4.8c-1.1-1.3-2.2-2.6-3.2-3.9c-0.1-0.2-0.4-0.7-1.1-1.4c-0.6-0.8-1.3-1.6-2-2.5s-1.4-1.8-2-2.6
		c-0.6-0.8-1-1.3-1.1-1.5c-0.7-0.8-1.2-1.4-1.8-1.8c-0.5-0.3-1-0.6-1.5-0.8c-0.5-0.2-1.1-0.4-1.7-0.6s-1.3-0.6-2.2-1.1
		c-0.9-0.8-1.9-1.7-2.7-2.8c-0.9-1.1-2-1.9-3.2-2.4c-0.2-0.1-0.5-0.2-1.1-0.3c-0.5-0.1-1.1-0.2-1.7-0.3c-0.6-0.1-1.2-0.2-1.7-0.3
		c-0.5-0.1-0.8-0.1-0.9-0.1c-0.5-0.2-1.2-0.5-2.3-0.8c-1.1-0.4-1.8-0.7-2-0.8c-0.2-0.2-0.7-0.6-1.6-1.1c-0.9-0.6-1.8-1.1-2.8-1.8
		c-1-0.6-1.9-1.2-2.8-1.7s-1.5-0.8-1.8-0.9c-2.4-1-5.2-1.8-8.2-2.3c-3.1-0.5-5.8-1.2-8.2-2.1c-2.4-0.8-4.8-1.8-7-3.1
		c-2.2-1.3-4.3-2.7-6.3-4.1c-2.3-1.3-4.4-2.7-6.6-4.2c-2.1-1.5-4.3-2.9-6.7-4.2c0-0.2-0.1-0.4-0.4-0.6c-0.2-0.2-0.4-0.4-0.6-0.4
		c-4.3-6.6-7.9-13.3-10.7-20.2s-4.2-14.4-4.2-22.6V297c0-0.9,0-1.9,0.1-2.7c0.1-0.9,0.4-1.9,0.8-2.9c0.1-0.1,0.3-0.4,0.5-0.9
		s0.5-1.1,0.8-1.7s0.6-1.2,0.8-1.7c0.3-0.5,0.4-0.8,0.4-0.9s0-0.4,0.1-0.9s0.2-1.1,0.3-1.7s0.2-1.2,0.3-1.7s0.2-0.8,0.3-0.9
		c0.2-0.5,0.4-1.1,0.7-1.8c0.3-0.8,0.6-1.5,1-2.4c0.4-0.8,0.8-1.7,1.3-2.5s1-1.5,1.5-2c0.1-0.2,0.4-0.6,1.1-1.2c0.6-0.6,1.3-1.3,2-2
		s1.3-1.3,1.9-1.9s0.9-0.9,1-1.1c0.2,0,0.4-0.2,0.6-0.6c0.2-0.4,0.4-0.8,0.4-1.2c1.1-2.6,2.6-4.7,4.5-6.1c1.9-1.5,4.1-3,6.8-4.6
		c0.2,0.2,0.4,0.3,0.7,0.3c0.2,0,0.3-0.1,0.3-0.3c0.1,0,0.3-0.1,0.6-0.4c0.3-0.2,0.7-0.5,1.1-0.8s1-0.7,1.8-1.2h0.7h2
		c0.2,0,0.8-0.1,1.8-0.4c1-0.3,2.1-0.6,3.3-0.9c1.2-0.3,2.3-0.6,3.4-0.8s1.8-0.4,2-0.4h2h4.9c0.3-0.1,0.9-0.2,2-0.3
		c1-0.1,2.1-0.2,3.3-0.3c1.2-0.1,2.3-0.2,3.4-0.3s1.8-0.1,2-0.1h0.7h0.1c0.2,0,0.5,0.2,0.8,0.5c0.4,0.3,0.7,0.5,0.8,0.5h3.8h1.7
		c1.2,0.1,2.7,0.5,4.4,1.3c1.7,0.8,3.5,1.7,5.3,2.7s3.5,2,5.2,3s3.1,1.8,4.2,2.4c0.2,0.2,0.6,0.4,1.3,0.6c0.7,0.2,1.1,0.4,1.2,0.4
		c0.8,0.5,1.6,1.1,2.4,1.9s1.5,1.6,2.3,2.3c0.8,0.8,1.6,1.4,2.5,2s1.9,0.8,3,0.8c1.3,0,2.3-0.4,2.9-1.3c0.6-0.8,1.1-1.8,1.4-3
		c0.3-1.1,0.6-2.3,0.8-3.5c0.2-1.2,0.5-2.1,0.8-2.9c0-0.3,0.2-0.7,0.6-1.1c0.4-0.5,0.8-1,1.3-1.5c0.5-0.6,0.9-1.1,1.3-1.5
		c0.4-0.5,0.7-0.8,0.8-1c0.2-0.2,0.4-0.3,0.7-0.3h0.3c1.3,0,2.2,0.7,2.7,2s0.8,2.5,0.8,3.5v1.5c0,0.3-0.1,0.8-0.2,1.5
		s-0.3,1.5-0.5,2.3s-0.4,1.5-0.6,2.3c-0.2,0.7-0.3,1.1-0.4,1.2c-1.4,10.6-2.1,21.4-2.1,32.4c0,1.7,0,3.4,0.1,5s0.1,3.3,0.1,5
		c-0.2,0.6-0.4,1.2-0.6,2s-0.6,1.6-1,2.3c-0.4,0.8-0.9,1.4-1.5,1.9s-1.2,0.8-1.8,0.8c-1.1,0-2-0.2-2.6-0.7s-1.1-1.1-1.4-1.8
		c-0.3-0.7-0.6-1.5-0.8-2.3c-0.2-0.8-0.4-1.6-0.7-2.3c-1-3-2.1-6.3-3.1-10s-2.1-6.9-3.1-9.7c-0.5-1.1-1.2-2.4-2.3-3.9
		c-1.1-1.5-2.3-3-3.7-4.6c-1.4-1.5-2.7-3-4-4.4s-2.4-2.6-3.2-3.6c-0.9-1.2-1.8-2.7-2.7-4.3c-0.8-1.6-1.9-2.8-3.2-3.6
		c-1-0.6-2.3-1.1-3.7-1.8c-1.4-0.6-2.9-1.2-4.4-1.8c-1.5-0.6-3-1-4.4-1.4c-1.5-0.4-2.7-0.6-3.9-0.6c-2.3,0-4.6,0.4-6.9,1.3
		s-4.6,1.7-7,2.3c-0.1,0-0.4,0-0.8,0.1s-0.9,0.2-1.5,0.3c-0.6,0.1-1.1,0.2-1.5,0.3c-0.5,0.1-0.8,0.1-1.1,0.1h-3.5
		c-0.1,0.1-0.3,0.3-0.7,0.6c-0.4,0.3-0.8,0.6-1.3,1s-1,0.8-1.5,1.1c-0.5,0.4-0.8,0.7-1,1c-2.5,2.3-4.6,4.4-6.2,6.3
		c-1.6,2-2.8,4-3.7,6.1c-0.9,2.1-1.5,4.4-1.9,7c-0.4,2.5-0.6,5.5-0.6,8.9c0,0.8,0,1.8,0.1,3.1c0.1,1.3,0.2,2.7,0.4,4.2
		s0.4,2.8,0.8,4c0.3,1.2,0.8,2.1,1.3,2.7l11.6,11.1c0.3,0.2,0.7,0.4,1.1,0.7c0.5,0.3,1,0.6,1.5,0.8c0.6,0.3,1.1,0.5,1.5,0.7
		c0.5,0.2,0.8,0.3,1,0.4c0.1,0.1,0.4,0.3,0.9,0.7c0.5,0.4,1.1,0.8,1.7,1.1c0.6,0.4,1.2,0.7,1.7,1.1c0.5,0.3,0.8,0.5,0.9,0.6
		c1.9,1.2,3.9,2.2,6.1,2.9c2.2,0.7,4.2,1.6,6.2,2.6c0.3,0.1,0.8,0.3,1.6,0.6c0.8,0.3,1.6,0.7,2.5,1.1c0.8,0.4,1.7,0.7,2.5,1.1
		c0.8,0.3,1.3,0.6,1.6,0.8c0.1,0,0.5,0.2,1.1,0.6c0.7,0.4,1.4,0.8,2.2,1.2c0.8,0.4,1.5,0.8,2.3,1.1c0.7,0.3,1.2,0.5,1.5,0.6
		c0.1,0,0.4,0,1,0.1c0.6,0,1.2,0.1,1.8,0.2c0.7,0.1,1.3,0.2,1.9,0.4c0.6,0.1,1,0.3,1.2,0.4c0.2,0,0.6,0.2,1.3,0.7
		c0.7,0.5,1.1,0.8,1.2,0.8c0.4,0.2,1,0.5,1.9,0.9s1.8,0.9,2.7,1.3c0.9,0.5,1.8,0.9,2.7,1.3c0.8,0.4,1.4,0.7,1.7,0.9
		c4.8,2.3,9.2,5.3,13.3,9.2c4.1,3.9,7.6,8.2,10.6,13.1s5.3,10,7,15.4s2.5,10.8,2.5,16.1v1.5c-0.1,0.9-0.2,2.2-0.4,3.9
		c-0.1,1.6-0.3,3.3-0.5,5s-0.4,3.2-0.6,4.5s-0.3,2.1-0.4,2.3c-0.4,2.1-0.9,4-1.7,5.7c-0.8,1.7-1.7,3.4-2.7,5
		c-1.1,1.6-2.2,3.2-3.4,4.8c-1.2,1.6-2.4,3.2-3.6,4.9c0,0.1-0.1,0.3-0.3,0.6c-0.2,0.3-0.4,0.7-0.6,1.1s-0.4,0.8-0.6,1.1
		c-0.2,0.4-0.4,0.6-0.4,0.7c-0.7,1.2-1.7,2.2-3.2,2.8c-1.5,0.7-2.7,1.4-3.7,2.1c-0.1,0.2-0.4,0.5-0.8,1s-0.9,1-1.3,1.5
		c-0.5,0.5-0.9,1-1.3,1.4s-0.7,0.6-0.8,0.6c-1.7,1.1-3.3,2-4.9,2.7s-3.2,1.2-4.9,1.7c-1.7,0.5-3.4,0.9-5.1,1.3s-3.6,0.9-5.6,1.5
		c-1.9,0.6-3.5,1.1-5,1.7s-3.2,0.8-5.3,0.8h-2.8c-1.2-0.1-3.4-0.3-6.5-0.6c-3.1-0.3-6.4-0.7-9.8-1.1s-6.7-0.7-9.7-1.1
		C1037.4,455.1,1035.2,454.8,1034,454.6z"/>
</g>
<g class="st1">
	<path class="st0" d="M1211.7,455.6l-28.2,0.4h-2.5c-0.7,0-1.8,0-3.5,0.1c-1.7,0-3.5,0.1-5.4,0.1s-3.7,0-5.4,0.1
		c-1.7,0-2.9,0.1-3.5,0.1c-0.2,0-0.6,0-1.2-0.1c-0.6,0-1.3-0.1-2-0.2c-0.8-0.1-1.5-0.2-2.2-0.3c-0.7-0.1-1.2-0.1-1.5-0.1
		c-0.8-0.3-1.6-0.8-2.4-1.4c-0.8-0.7-1.1-1.4-1.1-2.3c0-1.7,0.6-2.8,1.8-3.2c1.2-0.5,2.6-0.8,4.2-1.1c1.5-0.3,3.1-0.7,4.6-1.2
		s2.7-1.6,3.3-3.3c0.1-0.2,0.1-0.7,0.1-1.4c0-0.8,0-1.5-0.1-2.3c0-0.8-0.1-1.3-0.1-1.5c0.1-1.2,0.3-3.4,0.5-6.4
		c0.2-3.1,0.5-6.3,0.8-9.8s0.5-6.8,0.8-9.9c0.2-3.1,0.4-5.3,0.5-6.6c0.1-0.1,0.3-0.4,0.5-0.8c0.2-0.5,0.4-1,0.6-1.5
		c0.2-0.6,0.4-1.1,0.5-1.6s0.3-0.9,0.4-1.2v-0.3c0-1.6-0.3-3.1-1-4.4s-1-3.1-1-5.4c0-7.1,0.3-14.1,1-21s1-13.8,1-20.8
		c0-2.8-0.4-5-1.3-6.5s-2-2.6-3.5-3.3c-1.4-0.7-2.9-1.1-4.4-1.3c-1.5-0.1-3-0.3-4.4-0.5s-2.6-0.5-3.5-1.1c-0.9-0.5-1.3-1.4-1.3-2.7
		c0-1.2,0.4-2.3,1.1-3.3s1.7-1.5,2.9-1.5h2.1c0.3,0,1.1,0,2.3,0.1c1.3,0.1,2.7,0.2,4.2,0.4c1.5,0.1,2.9,0.3,4.2,0.4
		c1.3,0.1,2.2,0.1,2.5,0.1h42.1c1,0.4,2,1,3,1.8s1.5,1.7,1.5,2.7c0,0.6-0.1,1.1-0.2,1.5c-0.1,0.5-0.4,1.1-0.9,2
		c-0.3,0.1-0.8,0.2-1.4,0.4c-0.7,0.1-1.3,0.3-2,0.5s-1.4,0.4-2,0.5c-0.7,0.1-1.1,0.3-1.4,0.4c-0.3,0-0.9,0-1.8,0.1
		c-0.9,0-2,0.1-3,0.2c-1.1,0.1-2.1,0.2-3,0.3c-0.9,0.1-1.5,0.2-1.8,0.3c-0.8,0.2-1.5,0.6-1.9,1.3c-0.4,0.7-0.7,1.5-0.9,2.5
		c-0.2,0.9-0.3,1.9-0.4,2.8c0,0.9-0.1,1.7-0.1,2.3c-0.4,3-0.7,5.8-0.9,8.3c-0.2,2.5-0.4,5.1-0.4,7.7c0,1.2,0,2.4,0.1,3.6
		s0.1,2.5,0.1,4c-0.5,0.5-0.8,0.9-0.9,1.3s-0.2,0.9-0.2,1.5c0,0.4,0.1,0.8,0.2,1.1c0.1,0.4,0.4,0.8,0.9,1.4V407
		c-0.2,0.5-0.4,1.2-0.6,2.3c-0.2,1.1-0.4,1.8-0.4,2.2c0,0.5,0,1.5-0.1,3s-0.2,3.2-0.3,4.9c-0.1,1.7-0.2,3.4-0.3,4.9
		c-0.1,1.5-0.1,2.4-0.1,2.8c-0.1,0.2-0.2,0.6-0.3,1.2c-0.1,0.6-0.2,1.3-0.2,2s-0.1,1.4-0.1,2s-0.1,1-0.1,1.2v0.6v0.1
		c0,0.4,0.1,1,0.2,2c0.1,0.9,0.3,1.9,0.5,3c0.2,1,0.4,2,0.6,2.9s0.3,1.5,0.3,1.9c0.5,1,1.2,1.7,2.3,2c1,0.3,2,0.5,3,0.7
		c0.4,0.1,0.9,0.2,1.7,0.4c0.8,0.1,1.5,0.3,2.2,0.4s1.4,0.2,2,0.2s1.1,0.1,1.3,0.1h20.8c0.4,0.2,1,0.4,1.9,0.6s1.9,0.5,2.9,0.8
		s2,0.5,2.9,0.7s1.5,0.3,1.9,0.4h1.3h0.7c0.2,0,0.7-0.5,1.5-1.4s1.4-1.6,1.8-2.1c0.6-0.6,1.3-1.4,2.3-2.4s1.9-2.1,2.9-3.1
		c0.9-1,1.8-1.9,2.5-2.7c0.8-0.8,1.2-1.3,1.3-1.5c0.2-0.2,0.5-0.8,0.8-1.7c0.4-0.9,0.7-1.5,0.8-1.7c0.2-0.2,0.6-0.6,1.3-1.3
		c0.7-0.7,1.1-1.2,1.3-1.5c0.2-0.1,0.5-0.4,0.8-1c0.4-0.6,0.8-1.2,1.1-1.9c0.4-0.7,0.7-1.4,1-2s0.5-1,0.6-1.2
		c0.2-0.3,0.5-0.8,1.1-1.5c0.5-0.8,1.1-1.5,1.6-2.4c0.6-0.8,1.1-1.6,1.5-2.4c0.5-0.8,0.8-1.3,1-1.5s0.4-0.5,0.8-0.8
		c0.3-0.4,0.7-0.8,1.1-1.3s0.7-0.9,1.1-1.3c0.3-0.4,0.5-0.8,0.6-1.1c0.4-0.2,0.9-0.6,1.5-1.3c0.6-0.7,1-1.1,1.1-1.2h0.6
		c1,0,1.7,0.7,2,2c0.3,1.4,0.4,2.7,0.4,4v2.7v3.5c-0.2,0.3-0.4,1-0.6,2.1s-0.5,2.3-0.8,3.7c-0.3,1.3-0.6,2.5-0.9,3.7
		s-0.5,1.8-0.6,2.1c0,0.2,0,0.7-0.1,1.5c0,0.8-0.1,1.6-0.2,2.5s-0.2,1.7-0.2,2.5s-0.1,1.2-0.2,1.3c0,0.1-0.1,0.4-0.3,0.8
		c-0.2,0.4-0.4,0.9-0.6,1.4s-0.4,1-0.6,1.5s-0.3,0.8-0.3,0.8v4.2c-0.2,2.8-1.2,4.9-3.2,6.1c-1.9,1.3-4.2,1.9-6.8,1.9h-3.1
		c-0.3,0-1,0-2.3-0.1c-1.2-0.1-2.5-0.2-3.9-0.4c-1.4-0.1-2.7-0.3-4-0.4s-2-0.1-2.3-0.1h-17.5c-0.5,0-1.3,0-2.4-0.1s-2.3-0.2-3.7-0.3
		c-1.3-0.1-2.6-0.2-3.7-0.3c-1.2-0.1-2-0.1-2.3-0.1c-0.2,0-0.6-0.1-1.3-0.3C1212.3,455.9,1211.9,455.7,1211.7,455.6z"/>
</g>
<g class="st1">
	<path class="st0" d="M1281.1,452c0-1.7,0.4-3,1.3-3.8s1.9-1.5,3-2c1.2-0.5,2.4-0.9,3.7-1.3c1.3-0.3,2.5-0.9,3.5-1.6
		c0.4-0.2,0.9-0.5,1.6-1.1c0.7-0.5,1.4-1.1,2.2-1.6c0.8-0.6,1.4-1.1,2-1.5s0.8-0.7,0.8-0.8c0.3-0.2,0.6-0.6,1.1-1.3
		c0.4-0.7,0.7-1.1,0.9-1.3c0-0.2,0.1-0.6,0.4-1.1c0.3-0.6,0.6-1.1,0.8-1.7c0.3-0.6,0.6-1.1,0.8-1.6c0.3-0.5,0.4-0.9,0.4-1.1
		c0.8-1,1.5-2.1,2.4-3.1c0.8-1,1.5-2.1,2.1-3.1c1.7-3.2,3.1-6.5,4.1-10s2.3-6.9,3.9-10.1c0.1-0.2,0.3-0.7,0.7-1.6
		c0.4-0.9,0.8-1.8,1.3-2.8s1-1.9,1.4-2.7c0.4-0.8,0.7-1.4,0.9-1.5c0-0.1,0-0.4,0.1-0.8s0.2-0.9,0.3-1.4c0.1-0.5,0.2-1,0.3-1.4
		c0.1-0.4,0.1-0.7,0.1-0.9c0-0.2,0.1-0.5,0.4-1.1c0.2-0.5,0.5-1.1,0.8-1.6c0.3-0.6,0.6-1.1,0.9-1.6s0.5-0.9,0.6-1.1V383v-1.3
		c0-0.1,0.1-0.4,0.4-1.1c0.2-0.6,0.4-1,0.5-1.2c0-0.2,0.3-0.5,0.8-1c0.6-0.5,0.9-0.7,1.1-0.7c0.9-1.7,1.6-3.3,2.1-4.8
		s0.9-2.9,1.4-4.3s1.1-2.7,2-3.9c0.8-1.3,2.2-2.5,3.9-3.7c0-0.3,0-0.7,0.1-1.3c0.1-0.6,0.1-1.1,0.1-1.6c0-1.4-0.4-2.7-1.1-3.9
		c-0.7-1.2-1.1-2.6-1.1-4.2v-0.3c0-0.6,0.1-1.4,0.4-2.5c0.2-1.1,0.4-2.3,0.6-3.4s0.4-2.1,0.6-3s0.3-1.5,0.3-1.8
		c0.2-0.2,0.4-0.7,0.5-1.6s0.5-1.5,1.2-1.9c0.4-0.1,1.3-0.4,2.7-0.8c1.4-0.4,2.3-0.7,2.8-0.9c0.9-0.8,1.9-1.6,2.7-2.7
		c0.9-1,1.8-2,2.7-2.9c0.9-0.9,1.9-1.7,3-2.3c1.1-0.7,2.5-1,4.1-1h1.5c1.4,1.7,2.5,3.4,3.2,5.1s1.2,3.5,1.6,5.4s0.7,3.8,0.9,5.7
		c0.2,1.9,0.5,3.9,0.9,6c0.3,0.1,0.7,0.6,1.2,1.5s0.8,1.5,0.8,1.7c0.8,2.1,1.2,4.2,1.5,6.3c0.2,2.1,0.6,4.1,1.1,6
		c0.8,3,1.6,6,2.5,8.9s1.9,5.9,3,8.9c0.9,3.1,1.8,5.9,2.7,8.4c0.8,2.5,1.7,5.6,2.5,9.2c0.3,1,0.5,2.2,0.8,3.5c0.2,1.3,0.5,2.7,0.8,4
		c0.3,1.4,0.6,2.7,0.8,3.9c0.3,1.3,0.7,2.3,1.1,3.2c0,0.4,0.4,1,1.2,1.9c0.8,0.9,1.3,1.4,1.5,1.6c0,0.2,0.1,0.5,0.2,1.1
		c0.1,0.5,0.3,1.1,0.6,1.7c0.2,0.6,0.4,1.2,0.6,1.7s0.3,0.9,0.4,1.1c0,0.1,0.1,0.4,0.4,0.9c0.2,0.5,0.5,1.1,0.8,1.6
		c0.3,0.6,0.6,1.1,0.8,1.7c0.2,0.6,0.4,0.9,0.4,1c0.4,1.1,0.8,2.4,1.1,3.8c0.4,1.4,0.7,2.8,1.1,4.3c0.3,1.5,0.7,2.9,1.2,4.2
		c0.5,1.4,1.1,2.5,1.8,3.5c0.6,0.8,1.3,1.5,2.3,2.3c0.9,0.8,1.8,1.6,2.7,2.5c0.8,0.9,1.6,1.8,2.2,2.8s0.9,2,0.9,3.2v0.7
		c0,0.4,0,0.8-0.1,1.1c-0.1,0.4-0.4,0.6-0.8,0.7c-0.2,0.1-0.5,0.2-1,0.3c-0.5,0.1-1,0.2-1.5,0.3c-0.6,0.1-1.1,0.2-1.5,0.3
		c-0.5,0.1-0.8,0.1-1.1,0.1h-13.7h-13.5c-0.4,0-1.2-0.1-2.6-0.3c-1.4-0.2-2.8-0.4-4.4-0.6s-3.1-0.4-4.4-0.6
		c-1.4-0.2-2.2-0.4-2.5-0.4h-2.1c0-2.3,0.8-4.1,2.3-5.3c1.5-1.2,3.2-2.3,5-3.2s3.5-2.1,5.1-3.4s2.3-3.2,2.3-5.7
		c0-0.2-0.1-0.7-0.3-1.4c-0.1-0.4-0.1-0.8-0.1-1.1c0-0.1-0.1-0.6-0.3-1.4c-0.2-0.8-0.4-1.8-0.7-2.8c-0.3-1-0.6-2.1-0.8-3.1
		c-0.3-1-0.6-1.8-0.8-2.4c-0.5-1.5-0.9-3-1.3-4.4s-1-2.7-1.8-3.8c-0.8-1.1-1.7-2.1-2.9-2.8c-1.2-0.8-2.7-1.3-4.4-1.5h-9.7h-9.7
		c-0.5,0.1-1.2,0.2-2.1,0.4c-0.9,0.1-1.9,0.3-2.9,0.4s-1.9,0.2-2.7,0.2c-0.8,0-1.4,0.1-1.7,0.1c-1.6,0.4-3.1,1-4.4,1.8
		s-2.2,2-2.7,3.6c-0.3,0.7-0.6,1.6-0.8,2.8c-0.3,1.2-0.6,2.4-0.8,3.7c-0.3,1.2-0.5,2.3-0.7,3.2c-0.2,0.9-0.3,1.5-0.3,1.7
		s-0.1,1-0.2,2.3c-0.1,1.4-0.2,2.4-0.2,3.2c0,0.1,0,0.4,0.1,0.8c0,0.5,0.1,1,0.1,1.5c0,0.6,0.1,1.1,0.1,1.6s0.1,0.9,0.1,1.1
		c0.7,0.8,1.7,1.5,3.1,2.4c1.4,0.8,2.8,1.7,4.2,2.6c1.4,0.9,2.7,1.8,3.8,2.7c1.1,0.9,1.8,1.8,2,2.7c0.1,0.9-0.2,1.7-0.8,2.4
		c-0.6,0.7-1.4,1.2-2.3,1.7s-1.8,0.8-2.8,1.1c-1,0.2-1.8,0.4-2.5,0.4c-1,0-2-0.2-2.8-0.5s-1.8-0.5-2.8-0.5h-1
		c-0.2,0-0.6,0.2-1.3,0.5c-0.7,0.3-1.2,0.5-1.3,0.5h-8c-0.1,0-0.5,0.1-1.3,0.4c-0.8,0.2-1.2,0.4-1.3,0.4h-1h-1
		c-0.1,0-0.6-0.1-1.5-0.4c-0.9-0.2-1.4-0.4-1.5-0.4h-10.7C1282.6,456.4,1281.1,454.8,1281.1,452z M1327.5,394.8v0.4
		c0.1,0.1,0.2,0.2,0.2,0.4c0,0.2,0.2,0.4,0.4,0.6c0.1,0.3,0.2,0.5,0.4,0.7c0.6,0.5,1.4,1.2,2.5,2c1.1,0.9,1.8,1.4,2,1.5h1.8h5.2
		c0.2,0,0.5,0.2,0.8,0.5c0.4,0.3,0.7,0.5,0.8,0.5h4.8c0.6,0,1.4,0,2.6-0.1c1.2,0,2.3-0.2,3.5-0.4c1.1-0.2,2.1-0.5,3-1.1
		c0.9-0.5,1.3-1.2,1.3-2v-1c-0.1-0.1-0.2-0.4-0.4-0.8c-0.2-0.4-0.4-0.9-0.6-1.3c-0.2-0.5-0.4-0.9-0.6-1.4s-0.3-0.8-0.3-1
		c-0.8-2.4-1.7-4.8-2.6-7c-0.9-2.3-1.8-4.5-2.6-6.6c-0.5-1.2-0.8-2.3-1.1-3.4c-0.2-1-0.7-2.1-1.5-3.1c-0.2-0.1-0.5-0.4-1-0.8
		s-1-0.9-1.5-1.4s-1-1-1.4-1.3c-0.4-0.4-0.6-0.6-0.6-0.7c-0.7-0.6-1.1-1.2-1.3-1.8c-0.2-0.7-0.8-1-1.8-1h-0.4
		c-0.8,3-1.9,5.8-3.4,8.5c-1.5,2.6-2.8,5.3-3.8,8c0,0.5-0.1,1.3-0.4,2.5c-0.2,1.2-0.4,1.9-0.6,2c-0.1,0.5-0.3,1.1-0.7,1.8
		c-0.4,0.7-0.8,1.5-1.2,2.3c-0.4,0.8-0.8,1.6-1.1,2.4C1327.6,393.4,1327.5,394.1,1327.5,394.8z"/>
</g>
<g class="st1">
	<path class="st0" d="M1439.3,390.7c-0.1-0.1-0.3-0.4-0.5-0.8s-0.4-0.7-0.6-0.8c0-0.1-0.3-0.4-0.8-1c-0.3-0.3-0.6-0.5-0.8-0.7
		c-1-2.3-1.8-4.6-2.3-7.1s-1.2-4.9-1.9-7.1c-0.4-1-1-2.8-1.8-5.3s-1.7-5.1-2.7-8c-0.9-2.8-1.8-5.5-2.7-8c-0.8-2.5-1.5-4.2-1.8-5.3
		c-1.3-2.3-2.7-4.2-4.2-5.8c-1.5-1.6-3.3-3.2-5.5-4.9c-0.3-0.3-0.5-0.6-0.7-0.8c-0.6-0.6-0.9-0.8-1-0.8c-0.6-0.1-1.4-0.1-2.5-0.1
		s-2.2,0-3.2-0.1c-1.1-0.1-2-0.4-2.8-0.9s-1.2-1.3-1.2-2.4v-0.7c0.8-0.8,1.7-1.4,2.5-1.5c0.8-0.2,1.7-0.3,2.7-0.3
		c0.8,0,1.5,0,2.2,0.1c0.7,0,1.3,0.1,1.9,0.1c0.8,0,1.5-0.1,2.1-0.2c0.7-0.1,1.4-0.4,2.1-0.9h13.1l1.8,1.1h32.4
		c0.8,0,1.4,0.3,1.6,0.8s0.4,1.1,0.4,1.6c0,1-0.3,1.9-0.8,2.5c-0.6,0.6-1.2,1.3-2,2c-0.9,0.8-2.1,1.4-3.5,1.7
		c-1.4,0.3-2.7,0.6-3.9,0.9c-1.3,0.3-2.4,0.9-3.3,1.7c-0.9,0.8-1.4,2.1-1.4,4v0.4c1,5.4,2.6,10.6,4.6,15.6c2.1,5.1,4,10.1,5.8,15.2
		c0.6,1.6,1,3.4,1.3,5.3s0.7,3.7,1.2,5.3c0.5,1.9,1.1,3.7,1.9,5.4c0.8,1.7,1.6,3.4,2.3,5c0.3,0.2,0.5,0.6,0.7,1.3
		c0.2,0.7,0.3,1.2,0.3,1.5c1,3.3,2.2,6.6,3.6,9.8c1.4,3.2,2.8,6.5,4.4,9.6l0.7,0.7h0.7h0.3c0.2,0,0.4-0.1,0.5-0.4
		c0.1-0.2,0.3-0.4,0.5-0.4c0.9-2,1.9-4.2,3-6.6c1-2.4,2-4.9,3-7.4c0.9-2.5,1.8-5,2.6-7.5c0.8-2.5,1.5-4.8,2-6.8
		c0.1-0.2,0.2-0.8,0.4-1.7c0.1-0.9,0.3-1.9,0.5-3s0.4-2.1,0.5-3.1s0.3-1.6,0.4-1.9c0-0.3,0.1-0.7,0.4-1.3c0.2-0.6,0.4-0.9,0.4-1.1
		c1.9-3.7,3.4-7.3,4.6-10.9s2.3-7.4,3.4-11.3c0.8-2.4,1.6-4.8,2.5-7c0.9-2.3,1.3-4.8,1.3-7.6c0-1.4-0.9-2.4-2.7-2.9
		c-1.8-0.5-3.9-1-6.1-1.4s-4.3-1-6.1-1.8c-1.8-0.8-2.7-2.1-2.7-3.9c0.1-0.2,0.2-0.4,0.3-0.7c0.1-0.4,0.2-0.7,0.4-0.8
		c0.2-0.3,0.5-0.8,1-1.4c0.5-0.7,0.8-1.2,1-1.5h5.6c2.6,0,5.2,0.2,7.7,0.6s5,0.6,7.5,0.6c2.8,0,5.5-0.2,8.2-0.6
		c2.6-0.4,5.3-0.6,8-0.6c0.7,0,1.5,0.1,2.5,0.2s1.9,0.4,2.8,0.7c0.9,0.3,1.7,0.8,2.3,1.4c0.7,0.6,1,1.3,1,2.2c0,1.3-0.8,2.4-2.5,3.3
		c-1.6,0.9-3.5,1.7-5.7,2.5s-4.2,1.6-6.3,2.3c-2,0.8-3.4,1.6-4,2.5c-1,1.4-1.9,3-2.5,4.8c-0.7,1.8-1.2,3.6-1.7,5.5s-0.9,3.8-1.3,5.6
		c-0.4,1.9-0.9,3.7-1.3,5.4c-1.6,5.1-3.5,10.1-5.6,14.9c-2.2,4.9-4.1,9.9-5.9,14.9c-2.7,7.6-5.8,15.1-9.2,22.4s-6.5,14.8-9.3,22.5
		c-0.2,0.3-0.5,1.1-0.9,2.3c-0.4,1.3-0.9,2.6-1.3,4.1c-0.5,1.5-0.9,2.8-1.3,4.2c-0.4,1.3-0.6,2.1-0.6,2.4c-0.8,1.9-1.9,3.7-3.4,5.4
		c-1.5,1.7-3.4,2.6-5.6,2.6c-1.7,0-2.9-0.4-3.5-1.1c-0.7-0.7-1.5-1.8-2.4-3.3c-0.8-1.2-1.3-2.2-1.4-2.8c-0.1-0.7-0.3-1.8-0.7-3.4
		c-2.6-9.9-5.6-19.4-8.9-28.7C1445.3,410.1,1442.2,400.5,1439.3,390.7z"/>
</g>
<g class="st1">
	<path class="st0" d="M1581,455.1h-0.7c-0.3,0-1,0.1-2,0.4c-1.1,0.2-1.9,0.4-2.3,0.6h-32.5c-0.2-0.3-0.4-0.6-0.7-1
		c-0.6-0.8-0.9-1.3-1-1.5v-0.8c0-1.2,0.5-2.2,1.5-2.8c1-0.7,2.1-1.1,3.5-1.4c1.3-0.3,2.7-0.5,4.1-0.6s2.5-0.3,3.2-0.6
		c0.7-0.4,1.4-0.9,2.3-1.6s1.5-1.3,1.9-1.9c0.1-0.3,0.2-0.8,0.4-1.6c0.1-0.8,0.3-1.6,0.4-2.5c0.1-0.8,0.2-1.6,0.2-2.4
		s0.1-1.3,0.1-1.5c0.2-1.9,0.6-3.8,1.1-5.7c0.6-1.9,0.8-3.8,0.8-5.7v-16.8c0-0.1,0-0.4,0.1-0.8c0.1-0.5,0.2-0.9,0.2-1.4
		s0.1-0.9,0.2-1.3s0.1-0.7,0.1-0.8v-0.7v-0.1c0-0.5-0.1-1.3-0.3-2.4c-0.2-1.1-0.3-1.9-0.4-2.4l-0.6-33.4l-0.1-2.5v-22.1
		c0-0.2-0.3-0.7-0.8-1.5c-0.6-0.8-1-1.5-1.4-2c-0.8-1.1-2-2-3.8-2.6s-3.6-1.1-5.5-1.6s-3.5-1-5-1.7s-2.2-1.6-2.2-2.8
		c0-0.8,0.3-1.5,0.8-2s1.1-0.8,1.8-1.1c0.7-0.2,1.5-0.4,2.3-0.4s1.5-0.1,2.1-0.1h1.7c0.4,0,1.1,0,2.3,0.1c1.1,0,2.3,0.1,3.5,0.2
		s2.3,0.2,3.4,0.2s1.9,0.1,2.3,0.2l0.8,1h0.7h0.3c0.2-0.2,0.6-0.4,1.3-0.6c0.7-0.2,1.1-0.4,1.3-0.4h16.8c0.4,0,1.1-0.1,2.3-0.2
		s1.8-0.3,2-0.5h39c0.2,0.2,0.6,0.4,1.3,0.5c0.7,0.1,1.1,0.2,1.4,0.2h9.7c1.9,0.2,3.3,0.8,4.4,2c1,1.1,1.9,2.6,2.7,4.4v10.4
		c0,0.2,0.2,0.8,0.5,1.8s0.5,1.6,0.5,1.7v1.3c0,0.4-0.1,1.1-0.2,2.1s-0.4,2.1-0.6,3.2c-0.3,1.1-0.6,2-1.1,2.9
		c-0.4,0.8-0.9,1.3-1.5,1.3h-0.1c-1.6-1.2-2.8-2.3-3.7-3.4c-0.8-1-1.7-2.3-2.5-3.7c-0.2-0.4-0.5-1-0.9-1.8s-0.8-1.5-1.1-1.8
		c-0.5-1.2-1.2-2.6-2.1-4c-0.9-1.5-2-2.8-3.2-4s-2.6-2.2-4.1-3s-3-1.2-4.5-1.2h-30.3c-0.5-0.5-0.9-0.8-1.2-0.8
		c-0.3-0.1-0.8-0.1-1.3-0.1h-1c-0.4,0.2-1,0.5-1.9,0.9s-1.4,0.8-1.6,1.1c-0.1,0-0.2,0.2-0.2,0.6s-0.1,0.9-0.1,1.4s-0.1,1-0.1,1.4
		s-0.1,0.7-0.2,0.8c0,0.2-0.1,0.5-0.4,0.9c-0.2,0.4-0.4,0.7-0.6,0.9c0,0.9,0,2.5-0.1,4.8s-0.2,4.6-0.3,7.1c-0.1,2.5-0.2,4.9-0.3,7.1
		c-0.1,2.3-0.2,3.8-0.3,4.6v3.1v2.1c0.1,0.6,0.2,1.5,0.3,2.7c0.1,1.2,0.2,2.5,0.3,3.8c0.1,1.3,0.2,2.5,0.3,3.7
		c0.1,1.1,0.1,1.9,0.1,2.4c0.4,0.3,1,0.6,1.8,0.9s1.7,0.6,2.6,0.9s1.8,0.5,2.6,0.6c0.8,0.1,1.5,0.2,2,0.2h1.7
		c2.3-0.2,4.7-0.3,7.1-0.4s4.6-0.5,6.6-1.1c2-0.7,3.8-1.7,5.4-3.2s2.6-3.8,3.2-6.8c0-0.3,0-0.8,0.1-1.7c0.1-0.8,0.2-1.7,0.3-2.7
		c0.1-0.9,0.2-1.8,0.3-2.7c0.1-0.8,0.1-1.5,0.1-1.8c0.4-0.8,1.2-1.5,2.4-2.3c1.2-0.8,2.3-1.2,3.1-1.2c1.4,0,2.4,0.5,3.1,1.6
		s1,2.2,1,3.5c0,1,0,2-0.1,2.8c0,0.8-0.3,1.8-0.6,2.8V399c0.4,0.8,0.6,1.5,0.6,2.3s0.1,1.5,0.1,2.3v3.8v2.5c0,1.4-0.3,2.6-0.8,3.7
		c-0.5,1-1.7,1.5-3.6,1.5c-1.5,0-2.7-0.5-3.5-1.6s-1.5-2.5-2-4.2s-0.8-3.5-1.1-5.4c-0.3-1.9-0.6-3.7-1.1-5.4c-0.4-1.7-1-3.1-1.7-4.2
		s-1.8-1.6-3.2-1.6h-1.5c-0.2,0.1-0.7,0.2-1.5,0.3c-0.8,0.1-1.7,0.2-2.6,0.3c-0.9,0.1-1.8,0.2-2.5,0.3c-0.8,0.1-1.2,0.1-1.3,0.1
		h-2.8h-7c-1.8,0.4-3.2,1.1-4.2,2c-1,1-1.8,2.2-2.4,3.5c-0.6,1.4-0.9,2.8-1.1,4.4c-0.1,1.6-0.2,3.2-0.2,4.9v4.9c0,0.6,0,1.1-0.1,1.7
		s-0.1,1.1-0.1,1.5c0,0.2-0.1,0.8-0.4,1.7c-0.3,0.9-0.4,1.5-0.4,1.7v9v2.8c0,2.2,0.1,4.2,0.3,6.1c0.2,1.9,0.7,3.9,1.5,6.1
		c2.3,1.3,4.4,2,6.6,2.1c2.1,0.1,4.3,0.2,6.7,0.4c0.4,0,1.2,0.1,2.5,0.3c1.3,0.2,2.7,0.4,4.2,0.7c1.5,0.3,2.9,0.5,4.2,0.7
		c1.3,0.2,2.2,0.3,2.5,0.3h7.7c0,0.1,0.3,0.4,0.8,0.8s0.9,0.7,1.2,0.8h0.3h0.4c0.3-0.1,0.6-0.2,0.8-0.4c0.2-0.1,0.4-0.2,0.6-0.3
		c0.2-0.1,0.3-0.1,0.4-0.1c0.2,0,0.5,0.3,0.8,0.8c0.4,0.5,0.7,0.9,0.8,1.1h0.4h0.6c0-0.2,0.1-0.5,0.3-1.1c0.2-0.5,0.4-0.8,0.7-0.8
		h0.7c5.6-3.3,10.4-7.4,14.2-12.3c3.8-4.9,7.6-9.9,11.3-15.1l0.4-0.1c0.1,0,0.2,0,0.2,0.1c0,0,0.1,0.1,0.2,0.1h0.1
		c0.1,0,0.4,0.2,0.8,0.7s0.7,0.8,0.8,1v3.1v3.1c0,0.6-0.1,1.6-0.3,3.1c-0.2,1.5-0.4,3.1-0.5,4.8c-0.1,1.7-0.3,3.3-0.5,4.8
		s-0.3,2.5-0.3,3.1c-0.6,0.8-0.9,1.5-1.1,2.4c-0.1,0.8-0.3,1.7-0.4,2.5s-0.3,1.5-0.6,2.3c-0.2,0.7-0.7,1.3-1.5,1.9
		c-0.6,0-1.6,0-3.2,0.1c-1.5,0-3.2,0.1-4.9,0.2c-1.7,0.1-3.3,0.2-4.8,0.3c-1.5,0.1-2.5,0.1-3.1,0.1c-0.1,0-0.4,0.1-0.9,0.3
		c-0.5,0.2-1.1,0.4-1.7,0.7c-0.6,0.3-1.2,0.5-1.7,0.7s-0.8,0.3-0.9,0.3c-0.2,0-0.8-0.2-1.8-0.5s-1.6-0.5-1.7-0.5h-0.6
		c-2.2,0-4.4,0.2-6.6,0.5c-2.3,0.3-4.6,0.5-7,0.5c-4.8,0-9.6-0.3-14.3-1C1590.6,455.4,1585.8,455.1,1581,455.1z"/>
</g>
<g class="st1">
	<path class="st0" d="M1726.4,433.4c-0.4-1-1-2.9-1.9-5.6s-1.9-5.6-2.9-8.7s-2-6-3-8.7c-0.9-2.7-1.6-4.6-2-5.6c0-0.2,0-0.5-0.1-0.9
		c0-0.4-0.1-0.9-0.2-1.3c-0.1-0.5-0.2-0.9-0.2-1.3s-0.1-0.7-0.2-0.8c-0.2-0.3-0.5-1-1.1-2c-0.5-1.1-1.1-2.2-1.7-3.4
		c-0.6-1.2-1.2-2.3-1.7-3.2c-0.5-1-0.9-1.6-1.1-1.8c0-0.3-0.1-0.8-0.3-1.5c-0.2-0.7-0.4-1.5-0.6-2.3s-0.4-1.5-0.5-2.2
		s-0.3-1.1-0.4-1.3c-1.5-4.4-3.1-8.8-4.9-13.2c-1.7-4.4-3.3-8.8-4.7-13.3c0-0.1,0-0.4-0.1-0.9s-0.2-1.1-0.3-1.7
		c-0.1-0.6-0.2-1.2-0.3-1.7c-0.1-0.5-0.2-0.8-0.3-0.9c-1-5.7-2.8-11.6-5.2-17.7c-2.4-6.1-4.7-11.9-6.9-17.5c-0.2,0-0.4-0.5-0.5-1.4
		s-0.2-1.6-0.2-2.1c-0.9-3.8-2-7.1-3.2-10.1s-2.5-6.6-3.9-10.7c-0.9-2.5-1.8-5.4-2.6-8.7c-0.8-3.3-1.8-6.4-3-9.4s-2.8-5.6-4.8-7.7
		c-2-2.2-4.6-3.5-8-3.9c-0.3,0-0.9,0-1.8-0.1s-2-0.2-3-0.4c-1.1-0.1-2.1-0.3-3-0.4s-1.5-0.1-1.8-0.1c-1.3-0.1-2.7-0.6-4.1-1.5
		s-2.1-2.1-2.1-3.7c0-2.4,0.8-4.1,2.5-4.9c1.6-0.8,3.6-1.2,5.8-1.2h1.4c0.1,0,0.3,0,0.6,0.1c0.3,0.1,0.7,0.2,1.1,0.2
		s0.8,0.1,1.1,0.2c0.4,0.1,0.6,0.1,0.7,0.1h10.4c0.2,0,0.6,0.1,1.3,0.4s1.1,0.4,1.3,0.4h2.8h3.2c0.3,0,1,0,2.2-0.1s2.4-0.2,3.7-0.3
		c1.3-0.1,2.5-0.2,3.7-0.3s1.9-0.1,2.2-0.1h28.6c1.9-0.4,3.5-0.6,4.9-0.6s3-0.1,4.9-0.1c0.9,0,1.9,0,3,0.1c1.1,0,2.1,0.2,3.1,0.6
		c1,0.3,1.8,0.8,2.5,1.5s1,1.7,1,3c0,1.1-0.2,2-0.7,2.6s-1.1,1.1-1.9,1.4s-1.7,0.6-2.6,0.7s-1.8,0.3-2.7,0.5c-3,0.9-5.9,1.7-8.7,2.3
		c-2.8,0.6-5.8,1-9.1,1.2c-1.3,0.8-2.2,1.9-2.7,3.4s-0.8,3.1-0.8,4.6c0,1,0.2,2.1,0.6,3.2s0.9,2.2,1.5,3.2c0.6,1.1,1.1,2.2,1.5,3.3
		c0.5,1.1,0.8,2.3,0.8,3.5v1.1v3.1c0.2,0.2,0.7,0.6,1.4,1.3c0.8,0.7,1.1,1.2,1.1,1.3c0.2,0,0.4,0.3,0.6,0.8s0.4,0.9,0.4,1.1
		c0.1,0.3,0.3,0.9,0.6,1.8c0.3,0.9,0.6,1.9,0.8,2.9c0.3,1,0.5,2,0.8,3c0.2,0.9,0.4,1.6,0.5,2.1c0.2,0.4,0.5,1.3,0.8,2.8
		c0.4,1.5,0.8,3.1,1.1,4.9c0.4,1.7,0.7,3.4,1,4.9s0.5,2.4,0.6,2.8c0,0.3,0.2,0.8,0.6,1.5s0.8,1.5,1.2,2.3c0.4,0.8,0.8,1.5,1.1,2.3
		c0.3,0.7,0.5,1.1,0.6,1.2c0.4,1,0.8,2.2,1.3,3.6s1,2.8,1.5,4.2c0.5,1.5,0.9,2.9,1.2,4.4c0.3,1.5,0.5,2.7,0.5,3.9
		c0,0.2,0,0.4-0.1,0.8c-0.1,0.3-0.1,0.6-0.1,0.9c1,1.7,1.8,3.2,2.4,4.6s1.1,2.7,1.5,4.1s0.8,2.7,1.1,4.2c0.3,1.4,0.7,3,1.2,4.6
		c0.2,0.5,0.6,1.6,1.2,3.4s1.3,3.7,2,5.8s1.3,4.1,1.9,5.9s0.9,2.9,1.1,3.3c0.1,0.3,0.3,1,0.6,2.1c0.3,1.1,0.6,2.3,0.8,3.6
		c0.3,1.3,0.5,2.5,0.8,3.6c0.2,1.1,0.4,1.8,0.6,2.1c0.6,1.6,1.4,3.1,2.5,4.4c1.1,1.4,1.7,2.9,1.7,4.7c0,0.8,0.4,2.4,1.3,4.6
		c0.9,2.3,1.9,5.2,3.2,8.9c0.7,2,1.1,3.4,1.3,4.4c0.2,0.9,0.4,2.4,0.4,4.4c0,2.6-0.4,5.1-1.2,7.5c-0.8,2.3-1.6,4.8-2.5,7.5
		c0,0.5-0.2,1.4-0.5,2.7c-0.3,1.3-0.7,2.7-1.1,4.2s-0.7,2.8-1.1,4.1c-0.3,1.3-0.5,2-0.6,2.3c-0.3,0.9-0.6,2.1-1.1,3.5
		c-0.4,1.4-0.9,2.7-1.5,4s-1.4,2.4-2.3,3.3s-2,1.4-3.2,1.4c-1.1,0-2-0.4-2.6-1.3s-1.1-1.9-1.4-3s-0.6-2.3-0.7-3.5s-0.3-2-0.5-2.6
		c0-0.1-0.1-0.3-0.2-0.7c-0.1-0.4-0.3-0.8-0.6-1.1c-0.2-0.4-0.5-0.7-0.7-1.1c-0.2-0.3-0.4-0.5-0.5-0.6c0-0.3-0.2-1-0.6-2.1
		s-0.9-2.3-1.3-3.7c-0.5-1.3-0.9-2.5-1.4-3.7c-0.5-1.1-0.8-1.8-0.8-2.1c-0.2-0.2-0.5-0.7-1-1.6
		C1726.8,434.4,1726.5,433.7,1726.4,433.4z M1796.8,277.4c0-0.9-0.1-2.1-0.2-3.5s-0.4-2.7-0.7-4.1c-0.3-1.4-0.8-2.6-1.5-3.7
		s-1.6-1.8-2.7-2c-3.6-0.8-7-1.5-10.4-1.9c-3.3-0.4-6.6-1-9.9-1.8c-1.2-0.3-2.3-0.5-3.3-0.7s-1.8-0.5-2.5-0.9s-1.2-1-1.6-1.8
		s-0.6-1.8-0.6-3.2c0-1.1,0.2-2,0.7-2.7s1.1-1.1,1.8-1.4c0.8-0.3,1.6-0.4,2.5-0.5c0.9,0,1.8-0.1,2.7-0.1c2.5,0,4.9,0.1,7.2,0.4
		c2.3,0.2,4.6,0.4,7,0.4c7,0,14-0.1,20.9-0.4c6.9-0.2,13.9-0.4,20.9-0.4h11.7c0.4,0,1,0,1.9,0.1c0.9,0,1.9,0.1,3,0.2
		c1.1,0.1,2.1,0.2,3,0.2s1.5,0.1,1.9,0.2c0.8,0.2,1.5,0.6,2.3,1.3s1.2,1.4,1.2,2.2c0,1-0.4,1.9-1.1,2.5c-0.7,0.6-1.5,1.3-2.5,2
		c-0.8,0.8-1.9,1.2-3.1,1.5c-1.2,0.2-2.5,0.4-3.8,0.4c-1.2,0-2.4,0-3.7-0.1c-1.2,0-2.4-0.1-3.7-0.1h-1.7c-3.1,0.5-6.1,1.6-9.1,3.3
		c-3,1.7-5.5,3.8-7.7,6.3c-1.4,2-2.7,4.3-4,7s-2.5,5.4-3.6,8.3s-2.1,5.7-3,8.4c-0.9,2.7-1.7,5.1-2.5,7.2c-1.6,5.1-3.5,10.1-5.6,14.9
		c-2.1,4.9-4,9.9-5.6,14.9c-0.9,2.6-1.8,5.3-2.6,8c-0.8,2.7-1.7,5.3-2.7,7.7c-0.2,0.3-0.4,0.8-0.7,1.5c-0.3,0.7-0.6,1.4-1,2.2
		c-0.4,0.8-0.7,1.4-1.1,2c-0.3,0.6-0.6,1-0.8,1.2c-0.1,0.1-0.3,0.3-0.6,0.7c-0.3,0.4-0.6,0.8-0.9,1.1c-0.3,0.4-0.6,0.7-0.8,1.1
		c-0.2,0.3-0.4,0.5-0.4,0.6c-0.1,0.1-0.2,0.4-0.3,0.8c-0.1,0.5-0.2,1-0.3,1.5c-0.1,0.5-0.2,1-0.3,1.4c-0.1,0.4-0.1,0.7-0.1,0.8
		c0,0.1-0.1,0.4-0.4,1.1c-0.3,0.6-0.6,1.3-0.9,2s-0.6,1.4-0.8,2c-0.2,0.6-0.4,1-0.4,1.2c-0.1,0.1-0.2,0.4-0.3,0.9
		c-0.1,0.5-0.2,1.1-0.2,1.6c0,0.6-0.1,1.1-0.1,1.7s-0.1,0.9-0.1,1c-0.7,2.3-1.5,4.3-2.7,6.3c-1.1,1.9-2.1,3.9-2.8,6
		c-1.4,3.9-2.7,7.4-3.9,10.6c-1.2,3.2-2.8,6.8-4.9,10.6l-0.6,0.3l-0.3,0.3l-0.1,0.1v-0.7c0-3,0.2-5.7,0.6-8.1s0.9-4.7,1.5-6.9
		c0.6-2.2,1.3-4.4,2-6.6c0.8-2.2,1.4-4.7,2-7.4c0.6-3.5,1.2-6.9,2-10.2c0.8-3.3,1.6-6.7,2.5-10.2c0-0.1,0.1-0.3,0.2-0.7
		c0.1-0.4,0.3-0.8,0.4-1.3s0.3-0.9,0.5-1.3s0.4-0.7,0.6-0.9c0-0.3,0.3-0.8,0.8-1.4c0.5-0.7,0.9-1.1,1.1-1.3c0-0.2,0.1-0.7,0.4-1.6
		c0.2-0.9,0.4-1.5,0.6-1.9c0-0.3,0.1-0.8,0.2-1.7c0.1-0.8,0.3-1.8,0.5-2.8s0.4-2,0.6-2.8s0.3-1.4,0.4-1.7c0-0.1,0.2-0.7,0.6-1.8
		c0.4-1.1,0.7-1.9,0.9-2.5c0-0.1,0.1-0.3,0.3-0.6c0.2-0.3,0.4-0.7,0.6-1.1s0.4-0.8,0.6-1.1c0.2-0.4,0.3-0.6,0.4-0.7
		c0-0.3,0-0.8,0.1-1.7c0-0.8,0.1-1.8,0.2-2.7c0.1-1,0.2-1.9,0.3-2.7c0.1-0.8,0.2-1.4,0.4-1.5c0-0.2,0.2-0.6,0.5-1.3
		c0.3-0.7,0.7-1.4,1.1-2.2c0.4-0.8,0.7-1.5,1.1-2.3c0.3-0.7,0.5-1.2,0.6-1.5c0.2-0.5,0.5-1.2,1-2.3c0.5-1.1,0.8-1.8,1-2.2
		c0.1-1,0.2-1.8,0.3-2.4c0.1-0.6,0.2-1.1,0.3-1.6c0.1-0.5,0.2-0.8,0.3-0.9c0.1-0.4,0.4-1.4,0.8-3c0.5-1.6,1-3.3,1.6-5
		s1.2-3.4,1.7-4.9s0.9-2.5,1.1-2.9c0-0.1,0-0.4,0.1-1c0-0.6,0.1-1.1,0.2-1.8c0.1-0.6,0.2-1.2,0.4-1.7c0.1-0.5,0.3-0.8,0.4-0.8
		c0.2-1.1,0.7-2,1.4-2.7C1796.5,279.2,1796.8,278.4,1796.8,277.4z"/>
</g>
<g class="st1">
	<path class="st0" d="M1830.9,393.4c0-1.7,0.2-3.8,0.6-6.5c0.4-2.6,0.9-5.3,1.5-8.1c0.7-2.8,1.4-5.4,2.3-8c0.9-2.5,1.8-4.6,2.7-6.3
		c1-1.9,2.2-3.5,3.6-4.9s2.8-3,4.4-4.9c0.9-1,1.6-2.3,2.1-3.8s1.2-2.8,2.1-3.8c0.4-0.5,1-1.1,1.9-2s1.5-1.5,1.9-1.8
		c0.2-0.1,0.6-0.2,1.2-0.4c0.6-0.2,1-0.3,1.2-0.3c2.3-1.2,4.3-2.7,5.8-4.4c1.5-1.7,3.5-3.3,5.7-4.6c3.9-2.2,8.3-3.6,13.1-4.2
		c4.8-0.7,9.4-1,13.9-1c1.1,0,2.2,0.4,3.1,1.1s2,1.2,3.2,1.6c0.2,0.1,0.6,0.2,1.3,0.3c0.7,0.1,1.4,0.2,2.2,0.2
		c0.8,0,1.5,0.1,2.3,0.2c0.7,0.1,1.1,0.2,1.3,0.3c0.2,0,0.6,0.1,1.3,0.4c0.7,0.2,1.1,0.4,1.4,0.5c0.2,0.1,0.6,0.3,1.3,0.6
		c0.7,0.3,1.4,0.7,2.1,1.1c0.8,0.4,1.5,0.8,2.2,1.2c0.7,0.4,1.2,0.6,1.5,0.7c1.2,0.5,2.7,0.9,4.4,1.3c1.7,0.4,3.2,1.1,4.3,1.9
		c0.2,0.1,0.5,0.4,0.9,0.8c0.4,0.5,0.9,1,1.4,1.5s1,1,1.4,1.4s0.7,0.7,0.8,0.8c0.1,0.1,0.4,0.3,0.8,0.5s0.9,0.5,1.3,0.8
		c0.5,0.3,0.9,0.6,1.4,0.9s0.8,0.5,1,0.6c2.8,2.3,5.2,5.1,7.3,8.5c2,3.4,3.7,7,4.9,10.9c1.3,3.9,2.2,7.8,2.8,11.8
		c0.6,4,0.9,7.7,0.9,11.2v3.9c-0.2,0.9-0.3,2.2-0.4,3.9c-0.1,1.6-0.2,3.3-0.3,4.9c-0.1,1.6-0.2,3-0.2,4.2s-0.1,1.9-0.1,2
		c-0.1,0.3-0.3,1-0.6,2.2c-0.3,1.2-0.7,2.5-1.2,3.9s-1,2.8-1.5,4.2c-0.5,1.4-0.9,2.4-1.2,3c-0.1,0.2-0.3,0.5-0.5,1.1
		c-0.2,0.5-0.5,1.1-0.8,1.7s-0.6,1.2-0.8,1.7c-0.3,0.5-0.4,0.9-0.4,1.1s-0.2,0.6-0.5,1.3c-0.3,0.7-0.5,1.1-0.5,1.4
		c-0.3,0.4-0.8,1.1-1.7,2c-0.8,1-1.7,2-2.7,3.2c-0.9,1.1-1.8,2.2-2.7,3.2c-0.8,1-1.4,1.7-1.7,2.1c-0.3,0.2-0.8,0.5-1.4,1
		c-0.7,0.5-1.1,0.7-1.3,0.7c-0.3,0.5-0.7,0.7-1.1,0.7c-0.3,0.4-0.8,0.9-1.6,1.5c-0.8,0.7-1.6,1.3-2.5,2c-0.8,0.7-1.6,1.3-2.3,1.8
		c-0.7,0.6-1.1,0.9-1.2,1c-1,0.7-1.9,1-2.6,1.1c-0.7,0-1.7,0.3-2.9,0.6c-0.1,0.1-0.3,0.2-0.7,0.4c-0.4,0.2-0.8,0.4-1.1,0.6
		c-0.4,0.2-0.7,0.4-1.1,0.5c-0.3,0.1-0.5,0.2-0.6,0.2s-0.4,0.1-1,0.2s-1.2,0.3-1.9,0.4c-0.7,0.1-1.4,0.2-2,0.4
		c-0.6,0.1-1,0.2-1.2,0.2c-0.4,0-1.1,0.2-2.3,0.7c-1.1,0.5-1.8,0.8-2.1,1h-8.2h-6.2c-2.2,0-4.3,0-6.3-0.1c-2.1,0-4-0.3-5.9-0.6
		c-0.1,0-0.3-0.1-0.7-0.3c-0.4-0.2-0.8-0.4-1.3-0.7c-0.5-0.3-1-0.5-1.3-0.8c-0.4-0.2-0.6-0.4-0.7-0.4s-0.4,0-0.8-0.1
		c-0.5,0-1-0.1-1.5-0.2s-1-0.2-1.4-0.3c-0.4-0.1-0.7-0.1-0.8-0.1c-0.2,0-0.7-0.3-1.4-0.8c-0.8-0.6-1.2-0.8-1.4-0.8
		c-0.2-0.2-0.7-0.5-1.6-0.8c-0.9-0.4-1.5-0.7-1.9-0.8c-2.2-1-4.3-2.4-6.5-4s-4.3-3.5-6.2-5.6c-1.9-2.1-3.7-4.2-5.3-6.5
		c-1.6-2.3-2.9-4.6-3.8-6.9c-0.2-0.4-0.4-1.2-0.6-2.4c-0.2-1.2-0.4-1.9-0.4-2.1c-0.1-0.1-0.4-0.5-0.8-1.3c-0.5-0.8-0.8-1.3-1-1.5
		c-0.8-1.6-1.6-3.5-2.4-5.6s-1.4-4.3-2-6.6s-1-4.5-1.3-6.7C1831.1,397.1,1830.9,395.1,1830.9,393.4z M1856.6,396.9v8.3
		c0,0.8,0.2,1.9,0.6,3.5s0.8,3.3,1.3,5s0.9,3.4,1.4,4.9s0.9,2.5,1.3,3.1c0.1,0.3,0.4,0.8,0.9,1.6c0.5,0.8,1.1,1.6,1.7,2.5
		s1.2,1.7,1.7,2.5s0.8,1.3,0.9,1.5s0.3,0.6,0.6,1.3c0.3,0.7,0.7,1.4,1.1,2.2c0.4,0.8,0.7,1.5,1.1,2.2c0.3,0.7,0.6,1.2,0.8,1.3
		c0,0.1,0.2,0.3,0.6,0.7c0.4,0.4,0.8,0.8,1.2,1.1c0.4,0.4,0.8,0.7,1.1,1.1c0.3,0.3,0.5,0.5,0.6,0.6c0.8,0.8,1.6,2,2.5,3.6
		c0.9,1.5,1.9,2.7,3,3.3c0.1,0.2,0.6,0.4,1.6,0.6s1.6,0.4,1.9,0.5c1.9,0.8,3.7,1.3,5.4,1.8c1.7,0.4,3.7,0.6,5.8,0.6
		c1.7,0,3.1-0.2,4.3-0.6c1.2-0.4,2.3-1,3.2-1.8c1-0.8,2-1.6,3-2.6s2.2-2,3.6-3s2.4-2.2,3-3.6s1.4-2.7,2.3-4c0.8-1.4,1.8-2.8,2.9-4.1
		c1.1-1.3,2.1-2.6,3-3.9c0.4-0.6,0.6-1,0.8-1.4c0.1-0.4,0.2-0.7,0.3-1.1c0-0.3,0.1-0.7,0.1-1.2s0.2-1.1,0.5-1.8
		c0.1,0,0.3-0.3,0.6-0.9c0.3-0.6,0.7-1.3,1.1-2.2c0.4-0.8,0.8-1.7,1.1-2.5c0.4-0.8,0.7-1.5,1-2.1c0.1-0.2,0.2-0.4,0.3-0.7
		c0.1-0.2,0.2-0.4,0.3-0.6c0.1-0.2,0.1-0.3,0.1-0.4c0.2-0.6,0.4-1.4,0.6-2.5s0.4-2.3,0.6-3.4s0.4-2.1,0.5-3s0.2-1.4,0.2-1.6v-9.3
		c0-4.9-0.2-9.9-0.7-14.9c-0.5-5.1-1.6-10-3.5-14.7c-1.6-3.6-3.3-6.9-5-10.1c-1.7-3.1-4.3-5.9-7.5-8.4c-0.2-0.1-0.8-0.4-1.8-0.9
		s-2.1-1.1-3.3-1.7c-1.2-0.6-2.3-1.2-3.3-1.7s-1.7-0.8-2-0.9c-0.1-0.1-0.4-0.3-0.8-0.6c-0.4-0.3-0.9-0.6-1.4-0.8
		c-0.5-0.3-1-0.5-1.5-0.8c-0.5-0.2-0.8-0.4-0.8-0.4c0-0.2-0.3-0.3-0.8-0.3s-0.9,0-1.1,0c-3.7,0-7,0.8-10.1,2.3s-5.8,3.5-8.2,6
		c-2.4,2.4-4.6,5.2-6.6,8.2c-1.9,3.1-3.6,6.1-5,9.2c-2.4,5.4-4.2,11-5.4,17C1857.1,385,1856.6,391,1856.6,396.9z"/>
</g>
<g class="st1">
	<path class="st0" d="M2013.6,455.1c-3.2,0-6.5,0.2-9.9,0.5s-6.7,0.5-10,0.5h-7.2c-0.5-0.2-0.7-0.5-0.8-1c0-0.5-0.1-0.9-0.1-1.4v-1
		c0-1.6,0.3-2.8,1-3.6c0.7-0.8,1.5-1.4,2.6-1.9s2.2-0.9,3.5-1.2c1.2-0.3,2.4-0.8,3.5-1.3c0.3-0.2,0.8-0.5,1.4-0.9
		c0.7-0.4,1.3-0.9,1.9-1.3c0.6-0.5,1.2-0.9,1.8-1.3c0.6-0.4,0.9-0.7,1.1-0.9c0.1,0,0.2,0,0.2-0.1s0.2-0.2,0.4-0.3l0.4-0.4l1.6-16.6
		l1-1.8v-13.9c-0.8-0.9-1.3-2-1.6-3.2c-0.3-1.2-0.6-2.4-0.7-3.7c-0.1-1.3-0.3-2.6-0.4-3.9s-0.4-2.6-0.8-3.8
		c-0.2-0.2-0.3-0.4-0.4-0.7c-0.2-0.2-0.3-0.4-0.4-0.6c0-0.2-0.1-0.4-0.2-0.6c-0.1-0.4-0.4-1.1-0.8-2.3c-0.4-1.2-0.7-1.9-0.9-2
		c0-0.1-0.1-0.8-0.4-2c-0.2-1.2-0.4-2.1-0.5-2.5c-0.5-0.8-0.9-1.5-1.2-2c-0.3-0.5-0.6-0.9-0.9-1.3s-0.5-0.7-0.6-0.9
		c-1.6-2.7-2.8-5.4-3.7-8.2c-0.8-2.7-1.6-5.6-2.4-8.6c-0.2-0.2-0.3-0.4-0.4-0.7c-0.2-0.2-0.3-0.4-0.4-0.6c0-0.2-0.1-0.3-0.2-0.4
		c-1-1.8-2-3.7-2.9-5.8c-0.9-2.1-1.8-4.2-2.8-6.3c-1-2.1-2.1-4.1-3.2-6c-1.2-1.9-2.6-3.5-4.3-4.9c-1.2-1-2.4-1.8-3.7-2.3
		c-1.2-0.5-2.4-1-3.7-1.5c-1.2-0.5-2.4-1.1-3.5-1.8s-2.2-1.8-3.1-3.2v-1c0-0.9,0.5-1.8,1.5-2.5s1.9-1.1,2.7-1.1h1
		c1.9,0.5,3.9,0.9,6,1.2c2.1,0.3,4.2,0.5,6.3,0.5c1,0,1.9-0.1,2.7-0.4c0.8-0.2,1.7-0.4,2.7-0.4h0.7c0.2,0,0.7,0,1.6,0.1
		s1.8,0.2,2.8,0.2s1.9,0.1,2.7,0.2c0.8,0.1,1.4,0.1,1.5,0.1h18.7c1.3,0.4,2.4,0.9,3.2,1.5c0.8,0.7,1.2,1.6,1.2,3c0,1.1-0.3,2-1,2.7
		s-1.5,1.3-2.4,1.7c-0.9,0.4-1.9,0.8-3,1c-1,0.2-1.9,0.5-2.5,0.8v8c0.9,0.4,1.7,1.3,2.2,2.9c0.5,1.5,0.9,3.3,1.3,5.1
		c0.3,1.9,0.6,3.7,0.8,5.5c0.2,1.8,0.5,3.1,0.9,3.9c1.3,2.4,2.6,4.5,3.7,6.3c1.2,1.7,2.3,3.7,3.3,6c0.4,0.7,0.7,1,1,1.1
		s0.7,0.1,1.1,0.1c0.1,0,0.2,0,0.3-0.1c0.1,0,0.2,0,0.2-0.1c0,0,0.1-0.1,0.2-0.1c2-1,3.6-2.2,4.9-3.6s2.4-2.8,3.4-4.4
		c0.9-1.5,1.8-3.2,2.5-5c0.8-1.8,1.5-3.6,2.4-5.5c0.6-1.1,1.1-2,1.8-2.7c0.6-0.7,1.2-1.4,1.8-2.1c0.6-0.7,1.1-1.5,1.6-2.3
		s0.8-2,1-3.5V341v-3.5c-0.8-0.5-1.9-1-3.3-1.5c-1.5-0.5-3-1.1-4.5-1.8s-2.9-1.5-4-2.4s-1.7-1.9-1.7-3c0-0.9,0.3-1.7,0.9-2.3
		c0.6-0.6,1.4-1.1,2.3-1.4s1.8-0.5,2.7-0.6c0.9-0.1,1.7-0.1,2.4-0.1h1c0.1,0,0.6,0.1,1.5,0.4c0.9,0.2,1.6,0.4,2,0.6h9
		c3.2,0,6.3-0.2,9.3-0.5s6.1-0.5,9.3-0.5c0.8,0,1.7,0.1,2.9,0.2s2.3,0.4,3.4,0.8c1.1,0.4,2,0.9,2.8,1.5s1.2,1.4,1.2,2.3
		c0,1.1-0.4,2.2-1.2,3.2s-1.6,1.9-2.5,2.7c-0.6-0.2-1.1-0.3-1.7-0.3c-0.6,0-1.1,0-1.6,0c-2.6,0-4.9,0.5-6.9,1.5s-4.2,2.3-6.6,3.8
		c-0.2,0.3-0.5,0.6-0.8,1.1c-0.4,0.4-0.7,0.7-0.8,0.9c-2.2,2.7-4.2,5.5-6.1,8.3c-1.9,2.8-3.7,5.6-5.5,8.5c-1.4,2.2-2.9,4.3-4.4,6.4
		s-2.9,4.2-4.3,6.3c-1.4,2.1-2.6,4.3-3.7,6.5s-2,4.6-2.5,7.1v27.6c0,1.7-0.1,3.2-0.4,4.6c-0.2,1.4-0.5,2.7-0.8,3.9
		c-0.3,1.3-0.5,2.6-0.7,3.9s-0.3,2.7-0.3,4.2c0,0.6,0,1.4,0,2.5s0.1,1.8,0.3,2c0,0.2,0.1,0.6,0.2,1.3c0.1,0.7,0.3,1.3,0.5,2
		s0.4,1.4,0.6,2.1s0.4,1.2,0.6,1.6c0.7,2.1,1.6,3.6,2.7,4.5s2.4,1.5,3.8,1.8s2.8,0.4,4.2,0.4s2.7,0.1,3.8,0.4
		c1.1,0.2,2.1,0.7,2.8,1.4c0.8,0.7,1.1,1.9,1.1,3.6c0,2-0.5,3.2-1.6,3.7c-1,0.5-2.3,0.8-3.8,0.8h-4.1c-4.6,0-9.2-0.4-13.7-1.3
		C2022.7,455.5,2018.1,455.1,2013.6,455.1z"/>
</g>
<g class="st1">
	<path class="st0" d="M2073.4,452c0-1.7,0.4-3,1.3-3.8c0.8-0.8,1.9-1.5,3-2c1.2-0.5,2.4-0.9,3.7-1.3c1.3-0.3,2.5-0.9,3.5-1.6
		c0.4-0.2,0.9-0.5,1.6-1.1c0.7-0.5,1.4-1.1,2.2-1.6c0.8-0.6,1.4-1.1,2-1.5s0.8-0.7,0.8-0.8c0.3-0.2,0.6-0.6,1.1-1.3
		c0.4-0.7,0.7-1.1,0.9-1.3c0-0.2,0.1-0.6,0.4-1.1c0.3-0.6,0.6-1.1,0.8-1.7c0.3-0.6,0.6-1.1,0.8-1.6c0.3-0.5,0.4-0.9,0.4-1.1
		c0.8-1,1.5-2.1,2.4-3.1c0.8-1,1.5-2.1,2.1-3.1c1.7-3.2,3.1-6.5,4.1-10s2.3-6.9,3.9-10.1c0.1-0.2,0.3-0.7,0.7-1.6s0.8-1.8,1.3-2.8
		s1-1.9,1.4-2.7c0.4-0.8,0.7-1.4,0.9-1.5c0-0.1,0-0.4,0.1-0.8s0.2-0.9,0.3-1.4s0.2-1,0.3-1.4s0.1-0.7,0.1-0.9c0-0.2,0.1-0.5,0.4-1.1
		c0.2-0.5,0.5-1.1,0.8-1.6c0.3-0.6,0.6-1.1,0.9-1.6c0.3-0.5,0.5-0.9,0.6-1.1V383v-1.3c0-0.1,0.1-0.4,0.4-1.1c0.2-0.6,0.4-1,0.5-1.2
		c0-0.2,0.3-0.5,0.8-1c0.6-0.5,0.9-0.7,1.1-0.7c0.9-1.7,1.6-3.3,2.1-4.8s0.9-2.9,1.4-4.3s1.1-2.7,2-3.9c0.8-1.3,2.2-2.5,3.9-3.7
		c0-0.3,0-0.7,0.1-1.3c0.1-0.6,0.1-1.1,0.1-1.6c0-1.4-0.4-2.7-1.1-3.9c-0.7-1.2-1.1-2.6-1.1-4.2v-0.3c0-0.6,0.1-1.4,0.4-2.5
		c0.2-1.1,0.4-2.3,0.6-3.4c0.2-1.1,0.4-2.1,0.6-3c0.2-0.9,0.3-1.5,0.3-1.8c0.2-0.2,0.4-0.7,0.5-1.6s0.5-1.5,1.2-1.9
		c0.4-0.1,1.3-0.4,2.7-0.8s2.3-0.7,2.8-0.9c0.9-0.8,1.9-1.6,2.7-2.7c0.9-1,1.8-2,2.7-2.9s1.9-1.7,3-2.3c1.1-0.7,2.5-1,4.1-1h1.5
		c1.4,1.7,2.5,3.4,3.2,5.1s1.2,3.5,1.6,5.4c0.4,1.9,0.7,3.8,0.9,5.7c0.2,1.9,0.5,3.9,0.9,6c0.3,0.1,0.7,0.6,1.2,1.5s0.8,1.5,0.8,1.7
		c0.8,2.1,1.2,4.2,1.5,6.3c0.2,2.1,0.6,4.1,1.1,6c0.8,3,1.6,6,2.5,8.9s1.9,5.9,3,8.9c0.9,3.1,1.8,5.9,2.7,8.4
		c0.8,2.5,1.7,5.6,2.5,9.2c0.3,1,0.5,2.2,0.8,3.5c0.2,1.3,0.5,2.7,0.8,4c0.3,1.4,0.6,2.7,0.8,3.9c0.3,1.3,0.7,2.3,1.1,3.2
		c0,0.4,0.4,1,1.2,1.9s1.3,1.4,1.5,1.6c0,0.2,0.1,0.5,0.2,1.1c0.1,0.5,0.3,1.1,0.6,1.7c0.2,0.6,0.4,1.2,0.6,1.7
		c0.2,0.5,0.3,0.9,0.4,1.1c0,0.1,0.1,0.4,0.4,0.9c0.2,0.5,0.5,1.1,0.8,1.6c0.3,0.6,0.6,1.1,0.8,1.7s0.4,0.9,0.4,1
		c0.4,1.1,0.8,2.4,1.1,3.8c0.4,1.4,0.7,2.8,1.1,4.3c0.3,1.5,0.7,2.9,1.2,4.2c0.5,1.4,1.1,2.5,1.8,3.5c0.6,0.8,1.3,1.5,2.3,2.3
		c0.9,0.8,1.8,1.6,2.7,2.5c0.8,0.9,1.6,1.8,2.2,2.8c0.6,1,0.9,2,0.9,3.2v0.7c0,0.4,0,0.8-0.1,1.1c-0.1,0.4-0.4,0.6-0.8,0.7
		c-0.2,0.1-0.5,0.2-1,0.3c-0.5,0.1-1,0.2-1.5,0.3c-0.6,0.1-1.1,0.2-1.5,0.3c-0.5,0.1-0.8,0.1-1.1,0.1h-13.7h-13.5
		c-0.4,0-1.2-0.1-2.6-0.3c-1.4-0.2-2.8-0.4-4.4-0.6c-1.6-0.2-3.1-0.4-4.4-0.6c-1.4-0.2-2.2-0.4-2.5-0.4h-2.1c0-2.3,0.8-4.1,2.3-5.3
		c1.5-1.2,3.2-2.3,5-3.2s3.5-2.1,5.1-3.4s2.3-3.2,2.3-5.7c0-0.2-0.1-0.7-0.3-1.4c-0.1-0.4-0.1-0.8-0.1-1.1c0-0.1-0.1-0.6-0.3-1.4
		s-0.4-1.8-0.7-2.8s-0.6-2.1-0.8-3.1c-0.3-1-0.6-1.8-0.8-2.4c-0.5-1.5-0.9-3-1.3-4.4c-0.4-1.4-1-2.7-1.8-3.8
		c-0.8-1.1-1.7-2.1-2.9-2.8c-1.2-0.8-2.7-1.3-4.4-1.5h-9.7h-9.7c-0.5,0.1-1.2,0.2-2.1,0.4c-0.9,0.1-1.9,0.3-2.9,0.4
		s-1.9,0.2-2.7,0.2s-1.4,0.1-1.7,0.1c-1.6,0.4-3.1,1-4.4,1.8c-1.3,0.8-2.2,2-2.7,3.6c-0.3,0.7-0.6,1.6-0.8,2.8
		c-0.3,1.2-0.6,2.4-0.8,3.7c-0.3,1.2-0.5,2.3-0.7,3.2c-0.2,0.9-0.3,1.5-0.3,1.7s-0.1,1-0.2,2.3c-0.1,1.4-0.2,2.4-0.2,3.2
		c0,0.1,0,0.4,0.1,0.8c0,0.5,0.1,1,0.1,1.5c0,0.6,0.1,1.1,0.1,1.6s0.1,0.9,0.1,1.1c0.7,0.8,1.7,1.5,3.1,2.4c1.4,0.8,2.8,1.7,4.2,2.6
		s2.7,1.8,3.8,2.7c1.1,0.9,1.8,1.8,2,2.7c0.1,0.9-0.2,1.7-0.8,2.4c-0.6,0.7-1.4,1.2-2.3,1.7c-0.9,0.5-1.8,0.8-2.8,1.1
		c-1,0.2-1.8,0.4-2.5,0.4c-1,0-2-0.2-2.8-0.5s-1.8-0.5-2.8-0.5h-1c-0.2,0-0.6,0.2-1.3,0.5s-1.2,0.5-1.3,0.5h-8
		c-0.1,0-0.5,0.1-1.3,0.4c-0.8,0.2-1.2,0.4-1.3,0.4h-1h-1c-0.1,0-0.6-0.1-1.5-0.4c-0.9-0.2-1.4-0.4-1.5-0.4h-10.7
		C2074.9,456.4,2073.4,454.8,2073.4,452z M2119.7,394.8v0.4c0.1,0.1,0.2,0.2,0.2,0.4c0,0.2,0.2,0.4,0.4,0.6c0.1,0.3,0.2,0.5,0.4,0.7
		c0.6,0.5,1.4,1.2,2.5,2c1.1,0.9,1.8,1.4,2,1.5h1.8h5.2c0.2,0,0.5,0.2,0.8,0.5c0.4,0.3,0.7,0.5,0.8,0.5h4.8c0.6,0,1.4,0,2.6-0.1
		c1.2,0,2.3-0.2,3.5-0.4c1.1-0.2,2.1-0.5,3-1.1c0.9-0.5,1.3-1.2,1.3-2v-1c-0.1-0.1-0.2-0.4-0.4-0.8s-0.4-0.9-0.6-1.3
		c-0.2-0.5-0.4-0.9-0.6-1.4c-0.2-0.5-0.3-0.8-0.3-1c-0.8-2.4-1.7-4.8-2.6-7c-0.9-2.3-1.8-4.5-2.6-6.6c-0.5-1.2-0.8-2.3-1.1-3.4
		c-0.2-1-0.7-2.1-1.5-3.1c-0.2-0.1-0.5-0.4-1-0.8s-1-0.9-1.5-1.4s-1-1-1.4-1.3c-0.4-0.4-0.6-0.6-0.6-0.7c-0.7-0.6-1.1-1.2-1.3-1.8
		c-0.2-0.7-0.8-1-1.8-1h-0.4c-0.8,3-1.9,5.8-3.4,8.5c-1.5,2.6-2.8,5.3-3.8,8c0,0.5-0.1,1.3-0.4,2.5c-0.2,1.2-0.4,1.9-0.6,2
		c-0.1,0.5-0.3,1.1-0.7,1.8c-0.4,0.7-0.8,1.5-1.2,2.3s-0.8,1.6-1.1,2.4C2119.9,393.4,2119.7,394.1,2119.7,394.8z"/>
</g>
<g class="st1">
	<path class="st0" d="M2214.4,398.7c0-0.8,0.1-1.4,0.4-2c0.3-0.6,0.4-1.2,0.4-2s-0.1-1.5-0.4-2.1c-0.3-0.7-0.4-1.5-0.4-2.4v-2.4
		c0-0.6,0.1-1.3,0.3-2.3s0.4-1.9,0.5-2.8s0.3-1.7,0.5-2.4c0.2-0.7,0.3-1.1,0.3-1.2l2-1.7c0-0.4,0.1-1.1,0.2-2.1
		c0.1-1,0.3-2.1,0.5-3.2s0.4-2.2,0.6-3.2c0.2-1,0.3-1.7,0.4-2c0.2-0.4,0.5-0.9,0.9-1.7c0.4-0.8,0.9-1.5,1.3-2.3
		c0.5-0.8,0.9-1.5,1.3-2.3c0.4-0.7,0.7-1.2,0.9-1.6c0.1-0.2,0.2-0.8,0.4-1.8s0.3-1.6,0.3-1.8c1.4-3.3,3.3-5.9,5.7-8
		c2.4-2,4.9-4.1,7.5-6.3c0.1-0.1,0.5-0.5,1.2-1.3s1.1-1.2,1.3-1.3c3.3-2.3,6.5-3.8,9.5-4.7c3.1-0.9,6.4-1.7,9.9-2.5
		c2.8-0.6,5.5-1.1,8.1-1.7s5.2-0.8,8-0.8c3.9,0,7.5,0.1,10.8,0.2c3.2,0.1,7,0.4,11.2,0.8c0.3,0,0.7,0.1,1.3,0.4s1.1,0.4,1.6,0.4
		c1.2,0.4,2.5,0.8,3.8,1.4s2.6,1.1,3.9,1.7c1.3,0.6,2.7,1.1,4.1,1.5c1.4,0.4,2.8,0.6,4.2,0.6c1.2,0,2.4,0,3.5-0.1
		c1.1,0,2.1-0.3,3.2-0.8c0.9-0.3,1.6-0.8,1.9-1.5c0.3-0.8,1.1-1.1,2.3-1.1c0.5,0,0.9,0.2,1.2,0.6s0.6,0.9,0.8,1.5s0.4,1.2,0.6,1.8
		c0.1,0.6,0.2,1,0.2,1.3v29.2c0,0.4,0,1-0.1,1.8c0,0.8-0.2,1.6-0.4,2.3c-0.2,0.8-0.6,1.4-1.1,2s-1.1,0.9-2,0.9c-0.6,0-1.2-0.4-2-1.1
		c-0.8-0.8-1.3-1.2-1.5-1.4c-1.8-3-3.1-5.7-4.1-8.1c-0.9-2.4-2.2-5-3.8-7.8l-0.7-0.7c-0.2-0.2-0.4-0.4-0.6-0.6
		c-0.2-0.2-0.4-0.4-0.5-0.6c-0.4-0.3-0.9-0.8-1.6-1.4c-0.7-0.7-1.4-1.3-2.2-1.9s-1.4-1.2-2-1.8c-0.6-0.6-1-0.9-1.1-1.1
		c-2.4-2.1-5.1-3.5-8.1-4.3s-5.8-1.8-8.7-2.9h-7c-3.1,0-5.9,0.2-8.5,0.6s-5.1,1.1-7.5,2s-4.8,2-7.1,3.4s-4.8,2.9-7.3,4.7
		c-1.3,1-2.1,2.3-2.5,3.7c-0.3,1.5-0.9,2.9-1.8,4.3c-1.9,2.8-3.6,5.9-5.2,9.2c-1.6,3.3-3,6.8-4.2,10.4s-2.1,7.2-2.8,10.8
		c-0.7,3.6-1.1,7.1-1.1,10.4c0,4.3,0.6,8.8,1.9,13.3c1.3,4.6,3,8.7,5.3,12.3c0.1,0.1,0.2,0.2,0.4,0.3c0.3,0.3,0.4,0.5,0.4,0.6
		c0.2,0.3,0.4,0.7,0.8,1.1c0.3,0.5,0.7,1,1.1,1.5c0.4,0.6,0.7,1.1,1,1.5c0.3,0.5,0.5,0.8,0.6,1c0.2,0.2,0.4,0.6,0.6,1.3
		c0.2,0.7,0.4,1.2,0.4,1.3c0.2,0,0.5,0.2,1,0.6s0.9,0.8,1.4,1.2c0.5,0.4,0.9,0.8,1.3,1.1c0.4,0.3,0.6,0.5,0.6,0.6
		c1.7,1.5,3.5,3,5.3,4.4c1.8,1.5,3.8,2.8,5.8,3.9c2,1.2,4.1,2.1,6.3,2.8c2.2,0.7,4.5,1.1,7,1.1c4.4,0,8.1-0.6,11.2-1.8
		c3.1-1.2,6.3-3.3,9.7-6.2c0.2-0.1,0.6-0.4,1.3-0.8s1.1-0.7,1.3-0.9c0-0.1,0.1-0.7,0.3-1.7s0.4-1.6,0.7-1.8c0-0.1,0.1-0.4,0.2-0.8
		c0.1-0.4,0.3-0.7,0.5-0.9v-28l-1.7-3.7c-1.2,0-2.5-0.1-3.9-0.2s-2.6-0.4-3.8-0.8s-2.2-1-3-1.8s-1.2-1.9-1.2-3.2
		c0-0.4,0-0.8,0.1-1.3c0-0.5,0.2-0.8,0.4-0.8l5.2-1.7h10.8h16.3c0.5,0,1.2,0,2.1,0.1c0.9,0.1,1.9,0.2,2.7,0.3
		c0.9,0.1,1.7,0.2,2.5,0.2s1.2,0.1,1.4,0.1c0.2,0.1,0.5,0.3,1.1,0.5c0.5,0.2,1.1,0.5,1.6,0.8c0.6,0.3,1.1,0.6,1.6,0.9
		s0.9,0.6,1.2,0.8c0.2,0,0.4,0.2,0.5,0.6s0.2,0.7,0.2,0.9c0,0.8-0.4,1.4-1.3,1.7c-0.9,0.3-1.9,0.5-3.1,0.6c-1.2,0.1-2.3,0.3-3.5,0.6
		c-1.2,0.2-2,0.8-2.5,1.6c-0.2,0.8-0.3,1.5-0.4,2.1c-0.3,1.1-0.4,2.2-0.4,3.1c-0.1,0.5-0.2,1.2-0.3,2.2s-0.2,2-0.3,3s-0.2,2-0.3,2.8
		s-0.1,1.4-0.1,1.7v7.3v7.6c0.3,0.2,0.6,0.5,1.1,1.1c0.4,0.5,0.9,1.1,1.3,1.6c0.5,0.6,0.9,1.1,1.3,1.6c0.4,0.5,0.7,0.9,0.8,1.2v1.4
		c0,1.9-0.4,3.4-1.1,4.4c-0.7,1.1-1.6,2-2.7,2.7c-1.1,0.7-2.3,1.2-3.7,1.6s-2.7,0.8-4,1.1c-0.2,0-0.5,0.1-1,0.2s-0.9,0.3-1.4,0.5
		s-0.9,0.4-1.3,0.6c-0.4,0.2-0.7,0.3-0.8,0.4c-3,1-6,1.9-8.9,2.5c-3,0.7-5.8,1.6-8.5,3h-28.6c-0.2-0.3-0.8-0.5-1.7-0.7
		s-1.6-0.3-2-0.3c-4.2-0.8-8.5-2-13-3.4c-4.4-1.4-8.5-3.2-12.3-5.4c-1.7-0.9-3.2-2.1-4.6-3.5c-1.4-1.4-2.7-2.9-3.9-4.6
		c-1.2-1.6-2.4-3.3-3.5-4.9s-2.1-3.2-3.2-4.7c-0.8-1.2-1.4-2.3-1.9-3.3s-0.9-1.9-1.3-2.8c-0.3-0.9-0.7-1.8-1-2.8s-0.7-2.1-1.1-3.5
		l-0.1-0.1c-0.1-0.1-0.2-0.1-0.2-0.1s-0.1,0-0.2-0.1c-0.2-0.1-0.3-0.2-0.4-0.3c-0.4-0.6-0.7-1.6-0.8-3.2c-0.2-1.6-0.3-3.3-0.4-5.2
		c-0.1-1.9-0.2-3.7-0.2-5.4C2214.4,400.9,2214.4,399.6,2214.4,398.7z"/>
	<path class="st0" d="M2395.5,455.1h-0.7c-0.3,0-1,0.1-2,0.4c-1.1,0.2-1.9,0.4-2.3,0.6H2358c-0.2-0.3-0.4-0.6-0.7-1
		c-0.6-0.8-0.9-1.3-1-1.5v-0.8c0-1.2,0.5-2.2,1.5-2.8c1-0.7,2.1-1.1,3.5-1.4c1.3-0.3,2.7-0.5,4.1-0.6c1.4-0.1,2.5-0.3,3.2-0.6
		c0.7-0.4,1.4-0.9,2.3-1.6c0.9-0.7,1.5-1.3,1.9-1.9c0.1-0.3,0.2-0.8,0.4-1.6c0.1-0.8,0.3-1.6,0.4-2.5c0.1-0.8,0.2-1.6,0.2-2.4
		s0.1-1.3,0.1-1.5c0.2-1.9,0.6-3.8,1.1-5.7c0.6-1.9,0.8-3.8,0.8-5.7v-16.8c0-0.1,0-0.4,0.1-0.8c0.1-0.5,0.2-0.9,0.2-1.4
		s0.1-0.9,0.2-1.3c0.1-0.4,0.1-0.7,0.1-0.8v-0.7v-0.1c0-0.5-0.1-1.3-0.3-2.4s-0.3-1.9-0.4-2.4l-0.6-33.4l-0.1-2.5v-22.1
		c0-0.2-0.3-0.7-0.8-1.5c-0.6-0.8-1-1.5-1.4-2c-0.8-1.1-2-2-3.8-2.6s-3.6-1.1-5.5-1.6s-3.5-1-5-1.7s-2.2-1.6-2.2-2.8
		c0-0.8,0.3-1.5,0.8-2s1.1-0.8,1.8-1.1c0.7-0.2,1.5-0.4,2.3-0.4s1.5-0.1,2.1-0.1h1.7c0.4,0,1.1,0,2.3,0.1c1.1,0,2.3,0.1,3.5,0.2
		s2.3,0.2,3.4,0.2c1.1,0,1.9,0.1,2.3,0.2l0.8,1h0.7h0.3c0.2-0.2,0.6-0.4,1.3-0.6s1.1-0.4,1.3-0.4h16.8c0.4,0,1.1-0.1,2.3-0.2
		s1.8-0.3,2-0.5h39c0.2,0.2,0.6,0.4,1.3,0.5s1.1,0.2,1.4,0.2h9.7c1.9,0.2,3.3,0.8,4.4,2c1,1.1,1.9,2.6,2.7,4.4v10.4
		c0,0.2,0.2,0.8,0.5,1.8s0.5,1.6,0.5,1.7v1.3c0,0.4-0.1,1.1-0.2,2.1c-0.1,1-0.4,2.1-0.6,3.2c-0.3,1.1-0.6,2-1.1,2.9
		c-0.4,0.8-0.9,1.3-1.5,1.3h-0.1c-1.6-1.2-2.8-2.3-3.7-3.4c-0.8-1-1.7-2.3-2.5-3.7c-0.2-0.4-0.5-1-0.9-1.8s-0.8-1.5-1.1-1.8
		c-0.5-1.2-1.2-2.6-2.1-4c-0.9-1.5-2-2.8-3.2-4s-2.6-2.2-4.1-3s-3-1.2-4.5-1.2h-30.3c-0.5-0.5-0.9-0.8-1.2-0.8
		c-0.3-0.1-0.8-0.1-1.3-0.1h-1c-0.4,0.2-1,0.5-1.9,0.9s-1.4,0.8-1.6,1.1c-0.1,0-0.2,0.2-0.2,0.6s-0.1,0.9-0.1,1.4s-0.1,1-0.1,1.4
		s-0.1,0.7-0.2,0.8c0,0.2-0.1,0.5-0.4,0.9c-0.2,0.4-0.4,0.7-0.6,0.9c0,0.9,0,2.5-0.1,4.8s-0.2,4.6-0.3,7.1s-0.2,4.9-0.3,7.1
		c-0.1,2.3-0.2,3.8-0.3,4.6v3.1v2.1c0.1,0.6,0.2,1.5,0.3,2.7s0.2,2.5,0.3,3.8s0.2,2.5,0.3,3.7c0.1,1.1,0.1,1.9,0.1,2.4
		c0.4,0.3,1,0.6,1.8,0.9s1.7,0.6,2.6,0.9c0.9,0.3,1.8,0.5,2.6,0.6s1.5,0.2,2,0.2h1.7c2.3-0.2,4.7-0.3,7.1-0.4
		c2.4-0.1,4.6-0.5,6.6-1.1c2-0.7,3.8-1.7,5.4-3.2c1.6-1.5,2.6-3.8,3.2-6.8c0-0.3,0-0.8,0.1-1.7c0.1-0.8,0.2-1.7,0.3-2.7
		c0.1-0.9,0.2-1.8,0.3-2.7c0.1-0.8,0.1-1.5,0.1-1.8c0.4-0.8,1.2-1.5,2.4-2.3s2.3-1.2,3.1-1.2c1.4,0,2.4,0.5,3.1,1.6
		c0.7,1.1,1,2.2,1,3.5c0,1,0,2-0.1,2.8c0,0.8-0.3,1.8-0.6,2.8V399c0.4,0.8,0.6,1.5,0.6,2.3s0.1,1.5,0.1,2.3v3.8v2.5
		c0,1.4-0.3,2.6-0.8,3.7c-0.5,1-1.7,1.5-3.6,1.5c-1.5,0-2.7-0.5-3.5-1.6s-1.5-2.5-2-4.2s-0.8-3.5-1.1-5.4s-0.6-3.7-1.1-5.4
		c-0.4-1.7-1-3.1-1.7-4.2s-1.8-1.6-3.2-1.6h-1.5c-0.2,0.1-0.7,0.2-1.5,0.3c-0.8,0.1-1.7,0.2-2.6,0.3c-0.9,0.1-1.8,0.2-2.5,0.3
		c-0.8,0.1-1.2,0.1-1.3,0.1h-2.8h-7c-1.8,0.4-3.2,1.1-4.2,2c-1,1-1.8,2.2-2.4,3.5c-0.6,1.4-0.9,2.8-1.1,4.4
		c-0.1,1.6-0.2,3.2-0.2,4.9v4.9c0,0.6,0,1.1-0.1,1.7s-0.1,1.1-0.1,1.5c0,0.2-0.1,0.8-0.4,1.7c-0.3,0.9-0.4,1.5-0.4,1.7v9v2.8
		c0,2.2,0.1,4.2,0.3,6.1s0.7,3.9,1.5,6.1c2.3,1.3,4.4,2,6.6,2.1c2.1,0.1,4.3,0.2,6.7,0.4c0.4,0,1.2,0.1,2.5,0.3
		c1.3,0.2,2.7,0.4,4.2,0.7c1.5,0.3,2.9,0.5,4.2,0.7s2.2,0.3,2.5,0.3h7.7c0,0.1,0.3,0.4,0.8,0.8s0.9,0.7,1.2,0.8h0.3h0.4
		c0.3-0.1,0.6-0.2,0.8-0.4c0.2-0.1,0.4-0.2,0.6-0.3c0.2-0.1,0.3-0.1,0.4-0.1c0.2,0,0.5,0.3,0.8,0.8c0.4,0.5,0.7,0.9,0.8,1.1h0.4h0.6
		c0-0.2,0.1-0.5,0.3-1.1c0.2-0.5,0.4-0.8,0.7-0.8h0.7c5.6-3.3,10.4-7.4,14.2-12.3s7.6-9.9,11.3-15.1l0.4-0.1c0.1,0,0.2,0,0.2,0.1
		c0,0,0.1,0.1,0.2,0.1h0.1c0.1,0,0.4,0.2,0.8,0.7c0.4,0.5,0.7,0.8,0.8,1v3.1v3.1c0,0.6-0.1,1.6-0.3,3.1s-0.4,3.1-0.5,4.8
		c-0.1,1.7-0.3,3.3-0.5,4.8s-0.3,2.5-0.3,3.1c-0.6,0.8-0.9,1.5-1.1,2.4c-0.1,0.8-0.3,1.7-0.4,2.5c-0.1,0.8-0.3,1.5-0.6,2.3
		c-0.2,0.7-0.7,1.3-1.5,1.9c-0.6,0-1.6,0-3.2,0.1c-1.5,0-3.2,0.1-4.9,0.2s-3.3,0.2-4.8,0.3c-1.5,0.1-2.5,0.1-3.1,0.1
		c-0.1,0-0.4,0.1-0.9,0.3c-0.5,0.2-1.1,0.4-1.7,0.7c-0.6,0.3-1.2,0.5-1.7,0.7s-0.8,0.3-0.9,0.3c-0.2,0-0.8-0.2-1.8-0.5
		s-1.6-0.5-1.7-0.5h-0.6c-2.2,0-4.4,0.2-6.6,0.5c-2.3,0.3-4.6,0.5-7,0.5c-4.8,0-9.6-0.3-14.3-1
		C2405.1,455.4,2400.3,455.1,2395.5,455.1z"/>
	<path class="st0" d="M2489.6,431v-0.3c0-0.5,0-1.1,0.1-2c0.1-0.8,0.2-1.7,0.3-2.5s0.2-1.6,0.3-2.3c0.1-0.7,0.1-1.1,0.1-1.2
		c0.1-0.7,0.2-1.5,0.4-2.5s0.4-2,0.8-3c0.3-1,0.8-1.8,1.4-2.5c0.6-0.7,1.3-1.1,2.2-1.1c0.6,0,1,0,1.3,0.1s0.7,0.5,1.1,1.1
		c0.4,1,0.6,2.1,0.8,3.3c0.1,1.2,0.4,2.3,0.9,3.5c0,0.2,0.1,0.5,0.4,0.9c0.2,0.4,0.4,0.8,0.5,1.1c1,2,2.1,4.2,3.2,6.7
		c1.1,2.5,2.3,4.9,3.7,7.3c1.4,2.3,2.9,4.5,4.6,6.4c1.7,1.9,3.8,3.3,6.1,4c0.1,0.2,0.6,0.3,1.5,0.3c0.8,0,1.8,0,2.7-0.1
		c1-0.1,1.6-0.1,1.8-0.1s0.7,0.2,1.6,0.5c0.9,0.3,1.5,0.5,1.9,0.5h1h0.7c2.9-0.6,5.6-1.4,8-2.4s4.4-2.3,6.1-3.9
		c1.7-1.6,3-3.5,3.9-5.8s1.4-5,1.4-8.2v-4.2c-0.2-0.4-0.5-1.1-0.8-2.2c-0.4-1.1-0.8-2.2-1.3-3.5c-0.5-1.2-0.9-2.3-1.3-3.4
		c-0.4-1-0.8-1.7-1.1-2.1c-0.8-1.5-1.9-2.8-3.1-3.9c-1.2-1.1-2.5-2-3.9-2.8s-2.8-1.5-4.3-2.2s-2.9-1.3-4.3-1.8
		c-0.4,0-0.8-0.1-1.1-0.4c-0.3-0.1-0.5-0.2-0.7-0.4c-0.2-0.2-0.6-0.5-1.3-1s-1.2-0.7-1.3-0.7c-0.4,0-1.2-0.1-2.4-0.4
		c-1.2-0.2-1.9-0.4-2.1-0.6c-0.4-0.2-1-0.5-1.8-0.8c-0.8-0.4-1.7-0.8-2.6-1.3c-0.9-0.5-1.8-0.9-2.6-1.3s-1.4-0.8-1.8-1.1
		c-0.6-0.4-1.4-0.9-2.4-1.5c-1-0.7-2.1-1.3-3.1-2s-1.9-1.2-2.7-1.7s-1.2-0.7-1.3-0.7c-1.4-1-2.7-2.6-3.8-4.6s-2-3.7-2.5-5.1
		c-0.2-0.6-0.4-1.2-0.7-2s-0.6-1.5-0.8-2.3c-0.3-0.8-0.5-1.4-0.8-1.9c-0.2-0.5-0.4-0.8-0.4-0.9v-15.6c0-0.2,0.1-0.6,0.4-1.3
		c0.2-0.7,0.4-1.2,0.6-1.5c0.4-0.7,0.9-1.6,1.5-3c0.6-1.3,1.2-2.6,1.9-3.9s1.2-2.5,1.8-3.5c0.5-1,0.9-1.6,1.1-1.8
		c0.7-1.1,1.4-2,2.3-2.7c0.9-0.7,1.8-1.3,2.8-1.8c1-0.6,1.9-1.1,2.8-1.8c0.9-0.6,1.7-1.4,2.3-2.3c0.4-0.1,1-0.2,2-0.4
		c0.9-0.2,1.9-0.4,3-0.6c1-0.2,2-0.4,2.9-0.6s1.5-0.3,1.9-0.3c0.2,0,0.6-0.2,1.3-0.5s1.1-0.5,1.3-0.5h4.5c0.2-0.1,0.4-0.2,0.7-0.3
		c0.2-0.1,0.4-0.2,0.6-0.3c0.2-0.1,0.4-0.1,0.6-0.1h1.4c3,0,5.5,0.3,7.5,0.8c2,0.6,4.2,1.5,6.7,2.7c0.2,0,0.6,0.1,1.3,0.2
		s1.1,0.3,1.3,0.5c0.6,0.3,1.1,0.7,1.5,1.1c0.5,0.5,0.9,1,1.4,1.5s0.9,1,1.4,1.3c0.5,0.4,1,0.6,1.7,0.6s1.3-0.2,1.8-0.6
		c0.6-0.4,1.1-0.8,1.6-1.3s1-1,1.5-1.3c0.5-0.4,1.1-0.6,1.9-0.6c2.3,0,3.8,1.2,4.5,3.5v5.1v4.6c-0.2,3.1-0.4,6.3-0.6,9.6
		c-0.2,3.3-0.9,6.5-2.1,9.5c-0.2,0.7-0.4,1-0.7,1.1s-0.7,0.1-1.1,0.1c-0.8,0-1.9-0.7-3.1-2c-1.2-1.4-2.4-3-3.5-4.8s-2.1-3.7-3-5.6
		c-0.8-1.9-1.4-3.4-1.5-4.5v-1.5c-0.3-1.7-0.8-3.1-1.7-4.2c-0.8-1.1-1.8-2-3-2.7c-1.1-0.8-2.4-1.4-3.7-2c-1.4-0.6-2.7-1.2-4.2-1.8
		c-0.2,0-0.7-0.3-1.6-0.8c-0.9-0.6-1.5-0.9-1.9-1c-0.3,0.2-0.6,0.3-1,0.4c-0.3,0.1-0.6,0.2-0.9,0.3c-0.3,0.1-0.6,0.1-0.8,0.1
		c-2.6,1.3-5.1,2.5-7.3,3.5c-2.3,1-4.2,2.3-5.8,3.8s-2.9,3.4-3.9,5.6c-0.9,2.2-1.4,5-1.4,8.5c0,2.3,0.5,4.3,1.5,5.8s2.3,2.9,3.9,3.9
		c1.6,1.1,3.3,2.1,5.2,3s3.7,1.8,5.4,2.7c1.9,1.2,3.7,2.4,5.5,3.6s3.7,2,5.6,2.6c1,0.3,2.2,0.6,3.5,1s2.6,0.8,3.9,1.3
		c1.3,0.5,2.6,1,3.8,1.5c1.2,0.6,2.2,1.1,3,1.7c5.1,3.7,9,8.1,11.8,13.4s4.2,11,4.2,17.3c0,3.6-0.6,7.2-1.8,10.8
		c-1.2,3.6-2.8,7.1-4.6,10.4c-4.8,6.5-10.8,11.1-17.9,13.9c-7.1,2.8-14.7,4.2-22.5,4.2h-1.4c-0.2,0-0.6-0.2-1.3-0.5
		s-1.1-0.5-1.2-0.5c-0.5-0.1-1.2-0.3-2.3-0.6c-1-0.3-2.1-0.6-3.1-0.8c-1-0.3-2-0.5-2.9-0.8c-0.9-0.2-1.5-0.4-1.8-0.4
		c-2.2-0.7-4.3-1.3-6.3-1.9s-4-1.7-5.8-3.3c-0.2-0.2-0.6-0.5-1.1-0.8c-0.6-0.4-1.1-0.8-1.7-1.3c-0.6-0.5-1.1-1-1.5-1.5
		c-0.5-0.5-0.8-1.1-0.8-1.6c0-0.1,0-0.6-0.1-1.4s-0.2-1.8-0.3-3c-0.1-1.1-0.2-2.3-0.3-3.5s-0.1-2.1-0.1-2.9L2489.6,431L2489.6,431z"
		/>
</g>
<path class="st0" d="M866.3,472.8c1.7,11.4-1.7,20.8-4.2,30.1c-4.7,17.4-10.7,34.4-16.4,51.4c-1.6,4.8-13.2,11.4-18,10.7
	c-7.2-1-13.2-8-13.5-15.9c0-1.3,0.9-3.1,0.3-3.9c-7.1-9.9-2.7-18.2,3.6-26.2c3.5-4.5,3.4-9.2,1.5-14.4c-2.5-6.9-4.1-13.6,0.6-20.8
	c2-3,3.9-4.9,6.8-6c10.6-3.7,22-6.2,24.1-20c6.6-1.5,8.1-6.5,9.4-12.3c0.6-2.8,2.9-1.1,4.2,0.5c6.6,7.9,6.4,18,7.8,27.3
	C873.2,479.1,869.3,475.4,866.3,472.8z"/>
</svg>
