<?xml version="1.0" encoding="utf-8"?>
<!-- Generator: Adobe Illustrator 25.2.0, SVG Export Plug-In . SVG Version: 6.00 Build 0)  -->
<svg version="1.1" id="Layer_1" xmlns="http://www.w3.org/2000/svg" xmlns:xlink="http://www.w3.org/1999/xlink" x="0px" y="0px"
	 viewBox="0 0 900 700" style="enable-background:new 0 0 900 700;" xml:space="preserve">
<style type="text/css">
	.continent{fill:black;}
	.boat{fill:black;}
	.madagascar{fill:black;}
	.maskboat{fill:black;stroke:black;stroke-width:3}
	.st1{enable-background:new    ;}
</style>

<!-- THE FILLED SHAPES: BOATS IN ATLANTIC, CONTINENT OF AFRICA, LOGO LETTERS OFF TO THE RIGHT -->

<path class="continent" id="continent" d="
	M875,239.9
	c-8.8,5.9-18.9,4.6-28.3,6.8
	c-13,3-26,11.2-37-3.9
	c-0.2-0.4-0.9-0.4-1.8-0.7
	c3.6-2.1,7.4-5.2,2.9-8.6
	c-8.6-6.4-13.5-16.7-24.5-20.8
	c-5-1.9-9-7-9.6-13.8
	c-0.4-5.2-1.6-11.1-6.7-14
	c-8.1-4.6-9.9-11.7-9.9-20.1
	c0-5.9-0.6-12.5-4.9-16.5
	c-5.1-4.8-7.2-10.4-10.2-16.4
	c-6.9-13.9-11.6-29.1-20.8-42
	c-1.8-2.5-4.1-5.2-2.1-9.5
	c3.8,4.5,4.2,10.6,9,13.7
	c2.2,1.4,3.7,3.1,5.1-1.1
	c2.9-8.8,5-17.3,0.1-26.2
	c-1.5-2.7-2.2-4.4-5.7-3.4
	c-4.9,1.4-11,2-14.5-0.7
	c-7.2-5.5-12.8-1.8-18.7,0.9
	c-2.9,1.3-5.2,3.6-8.8,2.2
	c-13.5-5.2-28.2-6.3-41.7-11.7
	c-2.8-1.1-5.4-1.7-7.8-4.5
	c-5.5-6.5-12.7-3.8-19.1-0.7
	c-5.4,2.5-8.6,6.4-5.9,12.9
	c1.7,4-0.6,6.7-3.6,8.8
	c-3.2,2.3-6.4,2.2-9.4-0.7
	c-3.9-3.8-8.9-6.1-14.3-6.6
	c-6.8-0.7-12.1-2.2-13.3-10
	c-0.4-2.3-2.8-2.1-4.2-3
	c-8-5-17.6-2.2-26-5.9
	c-3.6-1.5-4.8-5.2-8.7-6.1
	c-7.2-1.8-7.4-3.9-1.6-9
	c3-2.6,6.7-6.8,4.2-9.3
	c-5.8-5.9-3.7-10.4,1.1-15.6
	c-3.5-1.2-5.7,4.1-7.8-0.7
	
	s-5.9-3.8-6.8,17.1
	c-3.1,1.7-6.3,3.8-9.8,2.9
	c-12.1-3-24,0.8-36,1
	c-16,0.2-32,5-44.8,16.2
	c-1.4,1.2-3.3,1.8-5.2,1.6
	c-6.5-1.3-13.1-1.6-19.7-1
	c-2.2,0.2-4-1.3-5.5-2.9
	c-5.3-5.3-7.4-5-9,2
	c-2.2,9.4-7,15.6-16.3,19
	c-8.4,3.1-17,17.9-14.6,26.2
	s-1.8,12.8-6.8,17.1
	
	c-5.1,4.4-9.7,10.1-17.6,10.2
	c-3,0.1-4.2,2.8-5.1,5.5
	c-1.4,4.1-3.1,8-7.6,9.8
	c-2,0.9-3.4,2.7-3.8,4.9
	c-2.9,13.6-13,23.2-19,35.1
	c-2.2,4.4-2.9,8.4,1.1,12.1
	c2,1.8,4.9,3.9,3.6,6.6
	c-2.2,4.8,0,8.8,1.2,13
	c1.3,3.9,1,8.1-0.6,11.8
	c-3.3,6.8-1.1,15.9-8.5,21
	c-0.7,0.5-0.7,1.2-0.1,1.9
	c4.5,4.5,5,9.9,3.8,15.9
	c-0.1,0.6-0.1,1.3-0.1,1.9h0.1
	c8.2-0.3,16.8-1,24.4,0.2
	c7,1.1,14.2-4.1,20.6,1.2
	c6.1-3.2,12.7,0.5,19.2-1.3
	c3.3-0.9,7.6,0.5,11.5,0.1
	c0.7-0.1,1.5,0.3,2.2,0.2
	c8-0.4,8-0.4,7.9,8.3
	c-1.6,4.1-0.6,9.1-0.4,14.1
	c0.1,2.4-0.7,2.6-2.3,2.7
	c-4.1,0.3-8.3,1.3-12.2,0.6
	c-9.9-1.8-19.5-0.4-29.4,0.3
	c-4.2,0.3-8.7-0.3-13.1-0.8
	c-0.7,0-1.4,0-2.1,0.1
	c2.8,3,4.5,6.9,4.6,11.1
	c0.1,2.4,2.5,6.6,6.1,8.5
	c9.8,5.4,19,11.7,27.5,19
	c6.3,5.3,13.2,7.9,22,3.6
	c10.9-5.4,23.6-6.1,35.1-1.8
	c3.2,1.2,5.5,0.2,8.3-0.8
	c7-2.4,13.7-5.5,20.6-7.9
	c-1.3-0.5-2.6-1.1-4-1.7
	c-5-2.2-5.8-7.6-6.9-12
	c-0.5-2.3-1.1-4.5-1.8-6.7
	c-2.2-5.1,0.6-5.1,3.9-4.6
	c5.3,0.9,10.5-0.3,15.7-0.3
	c4.1,0,7.9,2.5,12.3,1
	c1.1-0.4,5.3-3.1,5.8,1.7
	c1.5-0.4,1.7-2.2,4-2.2
	c7.3,0.3,14.6-0.3,21.9-0.2
	c13.8,0,27.6,0.2,41.4,0.4
	c2,0,5-1,5,3.1
	c0.3-3.8,2.6-3.7,5.1-3.1
	c2.8,0.6,1.8,2.2,2,4.4
	c0.6,7.5-2.4,14.9-0.2,22.2
	c1.3,4.4-0.5,5.7-4.2,5.6
	c-7-0.2-14.1-1.4-21-0.7
	c-8.7,0.9-17.2,0.6-25.9,0.5
	l-9-3.4
	c-0.5-1.1-0.7-0.1-1,0.1
	c-1.6,1.1-3.5,1.9-5.4,2.3
	c2.3,6.8,6.6,8.1,13.1,6.8
	c3.1-0.7,6.3-0.8,9.5-1.2
	c7.3-1,16.5,6.7,15.7,14
	c-1,8.8-1.4,18.3-5.2,25.9
	c-4.2,8.5-0.9,14.3,3.9,18.9
	c11.5,11,21.1,23,26.1,38.3
	c1.5,4.8,6,10.6,4.6,14
	c-0.8,1.7-1.2,3.5-1.2,5.4
	c14.2,0,28.5,0,42.8-0.1
	c2.6,0,4.1,0.6,4.5,3.8
	c0.3-3.4,1.5-4.3,4.5-3.8
	c3.2,0.6,2.2,2.1,2.4,4.5
	c0.8,7.5-2.5,14.9-0.2,22.3
	c1.3,4.2-0.6,5.6-4.3,5.5
	c-8.7-0.2-17.6-1.9-26-0.5
	c-7.4,1.2-14.8,0.3-22.2,0.8
	c-1.2,0.1-2.4,0.2-3.7,0.2
	c-1.6,2.2-2.8,4.7-3.6,7.4
	c-1.8,6.1-4.2,12.3-5.2,18.3
	c-1.5,8.4-2.7,17.6,3.7,26
	c2.2,2.9,4.1,6.1,5.8,9.3
	c0.5,0,1,0.1,1.2,0.2
	c7.5,1,14.9-0.4,22.1,0
	c12.1,0.8,24.1-1,36.1,0.5
	c4.9,0.6,10-2.2,14.7,1.2
	c1,0.7,0.7-0.8,1.3-1.1
	c4.3-1.7,7.7,0.3,7.5,4.8
	c-0.1,3,0.4,5.9-1.1,9.1
	c-0.8,1.6,0.8,5.2,1.2,8
	c0.4,3-0.3,3.4-3.2,3.1
	c-4.6-0.4-9.1-0.2-13.7-1.4
	c-6-1.6-11.6,2.6-17.8,2.1
	c-7.3-0.6-14.6-0.6-21.9-0.3
	c-4.1,0.2-8.9,0.6-13.3-0.5
	c0,0.2,0,0.4,0,0.7
	c-1.5,12.2,3.4,23.5,5,35.3
	c1.1,7.5,4.8,14.3,10.6,19.2
	c2.3,2.2,4.1,5,5,8.1
	c2.3,7.4,5.6,14.5,9.8,21
	c1.8,2.8,3.6,7,1.7,9
	c-5.8,5.9,0.2,10.1,1.7,14.5
	s6.7,6.5,10.5,9.1
	c2.8,1.9,4.7-2.5,6.9-2.5
	c7.7,0,14.2-5.2,22.2-4.6
	c17.2,1.3,33.4-1.7,45.7-15.2
	c8.4-9.2,18.6-17,23.1-29.4
	c1.1-2.4,2.9-4.5,5.1-6
	c8.6-6.2,10.2-16.2,8.6-24.4
	c-1.5-7.8,1.7-9.4,6.5-11.7
	c3.1-1.5,6.5-2.5,9.7-3.9
	c4.3-1.8,6-4.6,6.5-9.7
	c1-10.3-1.8-19.4-5.6-28.5
	c-1-2.5-1.7-5.3,0.3-6.6
	c11.8-7.9,19.1-21.5,33.9-25.7
	c8.9-2.5,17.8-14.9,16.4-21.6
	c-2.2-10.5-2.2-21-1.8-31.7
	c0.1-2.1-0.4-3.7-2-4.9
	c-6.7-4.9-7.3-12-7.9-19.5
	c-0.3-4.7,2.7-10.8-3.8-14.2
	c-1.5-0.8-1.1-2.9-0.8-4.5
	c2.3-10,6.6-20.6,13.1-26.6
	c10.2-9.5,17.9-21,28.2-30.3
	c7.9-7.1,17.6-11,25.2-18.4
	c14.1-13.8,21.4-31.7,31.3-48.1
	c4.6-7.6,6.2-15.6,6.8-24.2z


	M649.2,370.7c-5.2,1.7-10.5-2.8-16.2-0.7c-8.9,3.3-18.1,0.4-27.2,1
	c-3.4,0.2-6.9,0.5-9.8-0.6c-4.3-1.6-8.9,2-12.9-1.3c-3-2.5-7.1-1.8-10.4-3.9c-6.4-4-7.2-10.6-8.5-17c-0.3-1.4,1-2.8,1.2-2.3
	c2.6,4.4,5.2,0.1,7.6,0c4-0.2,8,1.3,11.5,0.7c3.9-0.7,8.6-1.4,11.8-1c6.5,0.7,12.8,0.1,19.1,0c9.4-0.1,18.8,1.4,28.3,0
	c1.9-0.3,5.5,0.6,8.2,0.4c4.2-0.4,5.3,1.3,4.6,5c-0.5,3,1,6.1-1.4,9c-1.5,1.8,1.5,3.2,1.6,5.7C657,371.9,654.1,371.9,649.2,370.7z"
	/>
	
	
<!--

17 - illustration starts on the horn of africa and works counterclockwise around the form

76 - beginning of the first boat carveout




this bit didn't appear to be doing anything.

	M482,198.9c-4.5-0.6-9.1,0-13.8-1.2c-2.7-0.7-6.1-1.2-9.3,1.1c-2,1.4-5.5,0.6-9.2,0.8
	c-4.4-1.2-9.6,0-14.9-1.8c-3.2-1.1-7.5,1.3-10.8,0.4c-4.4-1.2-9.5,1.8-12.9-1.8c-2.5-2.6-5-0.5-7.4-1.7c-7-3.5-9.5-10.1-12.1-16.7
	c-0.5-1.4-0.9-3.8,1.2-4.6c1.6-0.6,2.1,0.9,2.1,2.4c0,0.6,0.4,1.3,0.8,0.8c5.9-6.8,13.4-1.8,20-2.6c10.4-1.2,21-0.8,31.4-0.8
	c6.7,0,13.6-0.3,20.4,0.7c4.6,0.7,9.5,0.1,14.2-0.1c2.6-0.1,3.2,0.6,2.8,3.3c-0.6,3.7,1.3,7.8-1.8,11.1c3.3,2,1.1,5.2,1.8,7.8
	C485.1,197.9,485.6,199.4,482,198.9L482,198.9z


 -->

<!-- BOATS NAMES ARE ENUMERATIONS STARTING FROM THE TOP OF THE VIEWBOX -->


<path class="boat" id="boat1" d="M156.2,197.5c-4.4-1.2-9.6,0-14.9-1.8c-3.2-1.1-7.5,1.3-10.8,0.4c-4.4-1.2-9.5,1.8-12.8-1.8
	c-2.5-2.6-5-0.5-7.3-1.7c-7-3.4-9.5-10.1-12.1-16.7c-0.5-1.4-0.9-3.8,1.2-4.6c1.6-0.6,2.1,0.9,2.1,2.4c0,0.6,0.4,1.3,0.8,0.8
	c5.9-6.8,13.4-1.8,20-2.6c10.4-1.2,21-0.8,31.4-0.8c6.6,0,13.6-0.3,20.4,0.7c4.6,0.7,9.4,0.1,14.2-0.1c2.6-0.1,3.2,0.6,2.8,3.3
	c-0.6,3.7,1.3,7.8-1.8,11.1c3.3,2,1.1,5.2,1.8,7.8c0.5,2,0.9,3.5-2.6,3c-4.5-0.6-9.1,0-13.8-1.2c-2.6-0.7-6-1.2-9.3,1.1
	C163.4,198.1,159.8,197.3,156.2,197.5z"/>


<path class="boat" id="boat2" d="M93.2,240.2c-1.6,4.1-0.6,9.1-0.4,14.1c0.1,2.4-0.7,2.6-2.3,2.8c-4.1,0.3-8.3,1.3-12.2,0.6
	c-9.9-1.8-19.5-0.4-29.4,0.3c-4.2,0.3-8.7-0.3-13.1-0.8c-2.1-0.2-5.6,1.5-6.1-2.8c-0.2-0.2-0.6-0.3-0.9-0.2c-8.4,5-15.1,0-21.7-3.9
	c-5.4-3.2-6.4-9.6-7.1-15.1c-0.6-4.9,5.1-3.6,7.3-3.7c8.1-0.3,16.8-1,24.4,0.2c7,1,14.3-4.1,20.6,1.2c6.1-3.2,12.7,0.6,19.2-1.3
	c3.3-0.9,7.6,0.5,11.5,0.1c0.7-0.1,1.5,0.3,2.3,0.2C93.3,231.5,93.3,231.5,93.2,240.2z"/>

<path class="boat" id="boat3" d="M255.3,268.6c0-5,2.4-4.8,5.2-4.2s1.8,2.2,2,4.4c0.6,7.5-2.4,14.9-0.3,22.2c1.3,4.4-0.5,5.7-4.2,5.6
	c-7-0.2-14.1-1.4-21-0.7c-8.7,0.9-17.2,0.6-25.9,0.5L202,293c-0.5-1-0.7-0.1-1,0.1c-6.2,4.4-13.1,1.9-19.8,1.9
	c-9.7-0.1-18.5-3.8-27.1-7.6c-5-2.2-5.8-7.6-6.9-12c-0.5-2.3-1.1-4.5-1.8-6.7c-2.2-5.1,0.6-5.2,3.9-4.6c5.3,0.9,10.5-0.3,15.7-0.3
	c4.1,0,7.9,2.5,12.3,1c1.1-0.4,5.2-3.1,5.8,1.7c1.5-0.4,1.7-2.2,4-2.2c7.3,0.2,14.6-0.3,21.9-0.2c13.8,0,27.6,0.2,41.4,0.4
	C252.5,264.4,255.8,263.2,255.3,268.6z"/>
	
		
<path class="boat" id="boat4" d="M355.5,368.7c-5.2,1.7-10.6-2.8-16.3-0.7c-8.9,3.3-18.1,0.4-27.1,1c-3.4,0.2-6.9,0.5-9.9-0.7
	c-4.3-1.6-8.9,2-12.9-1.3c-3-2.5-7.1-1.8-10.4-3.9c-6.4-4.1-7.2-10.6-8.6-17c-0.3-1.5,1-2.8,1.2-2.3c2.6,4.4,5.2,0.1,7.6,0
	c4-0.2,8,1.3,11.5,0.7c3.9-0.7,8.6-1.4,11.8-1c6.5,0.7,12.8,0.1,19.1,0c9.4-0.2,18.8,1.4,28.4,0c1.9-0.3,5.5,0.6,8.2,0.4
	c4.2-0.4,5.2,1.3,4.6,5c-0.5,3,1,6.1-1.4,9c-1.5,1.8,1.5,3.2,1.6,5.7C363.4,369.9,360.5,369.8,355.5,368.7z"/>

<path class="boat" id="boat5" d="M309.2,420.9c0.3-3.4,1.5-4.3,4.5-3.8c3.2,0.6,2.2,2.1,2.4,4.6c0.7,7.5-2.5,14.9-0.3,22.2
	c1.3,4.2-0.6,5.6-4.3,5.5c-8.7-0.2-17.6-1.9-26-0.5c-7.5,1.2-14.8,0.3-22.2,0.8c-5.4,0.5-10.8,0.3-16.1-0.5
	c-5.4-1.1-11-1.3-16.4-0.5c-2.3,0.4-6.8-0.7-8.6-2.1c-3.8-3-8.4-2.9-12.4-5c-6.3-3.3-7.9-8.5-8.8-13.7c-0.5-2.7-2.7-3.7-2.9-6.5
	c-0.3-4.5,1.2-5.4,4.9-4.8c5.3,0.9,10.5-0.2,15.7-0.3c4.1,0,7.9,2.3,12.3,1c1.2-0.4,5.2-3.1,5.9,1.7c1.1-1.7,2.5-2.1,4.6-2.1
	c6.8,0.2,13.5,0.1,20.3,0c14.3,0,28.7,0,43-0.1C307.3,417.1,308.7,417.8,309.2,420.9z"/>
	
<path class="boat" id="boat6" d="M254.1,515c0.6-4.9,6.2-4,7.4-3.8c7.5,1,14.9-0.4,22.1,0.1c12.1,0.8,24.1-1,36.1,0.5c4.9,0.6,10-2.2,14.7,1.2
	c1,0.7,0.7-0.8,1.3-1.1c4.3-1.7,7.7,0.3,7.5,4.8c-0.1,3,0.5,5.9-1.1,9.1c-0.7,1.6,0.8,5.2,1.2,8c0.4,3-0.3,3.4-3.2,3.1
	c-4.6-0.4-9.1-0.2-13.7-1.4c-6-1.6-11.6,2.6-17.8,2.1c-7.3-0.5-14.6-0.6-21.9-0.3c-5.5,0.2-12.1,0.9-17.3-2
	c-4.5-2.5-10.5-2.8-13.7-7.2c-2.6-3.9-4.5-8.2-5.5-12.7c-0.4-1.5-0.3-3.6,1.4-4C254.1,510.9,253.1,513.8,254.1,515z"/>


	
<path class="maskboat" id="boat2" d="M93.2,240.2c-1.6,4.1-0.6,9.1-0.4,14.1c0.1,2.4-0.7,2.6-2.3,2.8c-4.1,0.3-8.3,1.3-12.2,0.6
	c-9.9-1.8-19.5-0.4-29.4,0.3c-4.2,0.3-8.7-0.3-13.1-0.8c-2.1-0.2-5.6,1.5-6.1-2.8c-0.2-0.2-0.6-0.3-0.9-0.2c-8.4,5-15.1,0-21.7-3.9
	c-5.4-3.2-6.4-9.6-7.1-15.1c-0.6-4.9,5.1-3.6,7.3-3.7c8.1-0.3,16.8-1,24.4,0.2c7,1,14.3-4.1,20.6,1.2c6.1-3.2,12.7,0.6,19.2-1.3
	c3.3-0.9,7.6,0.5,11.5,0.1c0.7-0.1,1.5,0.3,2.3,0.2C93.3,231.5,93.3,231.5,93.2,240.2z"
	transform="translate(300,20)">
	
	<animate 
			attributeName="fill-opacity"
			values="0;1;1;1;1;1;0;0;0;0;0"
			dur="4s"
			repeatCount="indefinite"
	/>
		<animate 
			attributeName="stroke-opacity"
			values="0;1;1;1;1;1;0;0;0;0;0"
			dur="4s"
			repeatCount="indefinite"
	/>
	</path>

<path class="maskboat" id="maskboat3" d="M255.3,268.6c0-5,2.4-4.8,5.2-4.2s1.8,2.2,2,4.4c0.6,7.5-2.4,14.9-0.3,22.2c1.3,4.4-0.5,5.7-4.2,5.6
	c-7-0.2-14.1-1.4-21-0.7c-8.7,0.9-17.2,0.6-25.9,0.5L202,293c-0.5-1-0.7-0.1-1,0.1c-6.2,4.4-13.1,1.9-19.8,1.9
	c-9.7-0.1-18.5-3.8-27.1-7.6c-5-2.2-5.8-7.6-6.9-12c-0.5-2.3-1.1-4.5-1.8-6.7c-2.2-5.1,0.6-5.2,3.9-4.6c5.3,0.9,10.5-0.3,15.7-0.3
	c4.1,0,7.9,2.5,12.3,1c1.1-0.4,5.2-3.1,5.8,1.7c1.5-0.4,1.7-2.2,4-2.2c7.3,0.2,14.6-0.3,21.9-0.2c13.8,0,27.6,0.2,41.4,0.4
	c-2.80000000000001,-4.20000000000005,0.5,7.89999999999998,0,0z" transform="translate(296,21)">
	
	<animate 
		attributeName="fill-opacity"
		values="0;0;1;1;1;1;1;0;0;0;0"
		dur="4s"
		repeatCount="indefinite"
	/>
	
		<animate 
			attributeName="stroke-opacity"
			values="0;0;1;1;1;1;1;0;0;0;0"
			dur="4s"
			repeatCount="indefinite"
	/>
	
	</path>

<path class="maskboat" id="maskboat4" d="M355.5,368.7c-5.2,1.7-10.6-2.8-16.3-0.7c-8.9,3.3-18.1,0.4-27.1,1c-3.4,0.2-6.9,0.5-9.9-0.7
	c-4.3-1.6-8.9,2-12.9-1.3c-3-2.5-7.1-1.8-10.4-3.9c-6.4-4.1-7.2-10.6-8.6-17c-0.3-1.5,1-2.8,1.2-2.3c2.6,4.4,5.2,0.1,7.6,0
	c4-0.2,8,1.3,11.5,0.7c3.9-0.7,8.6-1.4,11.8-1c6.5,0.7,12.8,0.1,19.1,0c9.4-0.2,18.8,1.4,28.4,0c1.9-0.3,5.5,0.6,8.2,0.4
	c4.2-0.4,5.2,1.3,4.6,5c-0.5,3,1,6.1-1.4,9c-1.5,1.8,1.5,3.2,1.6,5.7C363.4,369.9,360.5,369.8,355.5,368.7z"
	transform="translate(294,2)">

	<animate 
		attributeName="fill-opacity"
		values="0;0;0;1;1;1;1;1;0;0;0"
		dur="4s"
		repeatCount="indefinite"
	/>
	<animate 
		attributeName="stroke-opacity"
		values="0;0;0;1;1;1;1;1;0;0;0"
		dur="4s"
		repeatCount="indefinite"
	/>
</path>

<path class="maskboat" id="maskboat5" d="M309.2,420.9c0.3-3.4,1.5-4.3,4.5-3.8c3.2,0.6,2.2,2.1,2.4,4.6c0.7,7.5-2.5,14.9-0.3,22.2
	c1.3,4.2-0.6,5.6-4.3,5.5c-8.7-0.2-17.6-1.9-26-0.5c-7.5,1.2-14.8,0.3-22.2,0.8c-5.4,0.5-10.8,0.3-16.1-0.5
	c-5.4-1.1-11-1.3-16.4-0.5c-2.3,0.4-6.8-0.7-8.6-2.1c-3.8-3-8.4-2.9-12.4-5c-6.3-3.3-7.9-8.5-8.8-13.7c-0.5-2.7-2.7-3.7-2.9-6.5
	c-0.3-4.5,1.2-5.4,4.9-4.8c5.3,0.9,10.5-0.2,15.7-0.3c4.1,0,7.9,2.3,12.3,1c1.2-0.4,5.2-3.1,5.9,1.7c1.1-1.7,2.5-2.1,4.6-2.1
	c6.8,0.2,13.5,0.1,20.3,0c14.3,0,28.7,0,43-0.1c-1.89999999999998,-3.79999999999995,-0.5,-3.09999999999997,0,0z"
	transform="translate(298,20)">

	<animate 
		attributeName="fill-opacity"
		values="0;0;0;0;1;1;1;1;1;0;0"
		dur="4s"
		repeatCount="indefinite"
	/>
	<animate 
		attributeName="stroke-opacity"
		values="0;0;0;0;1;1;1;1;1;0;0"
		dur="4s"
		repeatCount="indefinite"
	/>

</path>




<path class="maskboat" id="maskboat6" d="M254.1,515c0.6-4.9,6.2-4,7.4-3.8c7.5,1,14.9-0.4,22.1,0.1c12.1,0.8,24.1-1,36.1,0.5c4.9,0.6,10-2.2,14.7,1.2
	c1,0.7,0.7-0.8,1.3-1.1c4.3-1.7,7.7,0.3,7.5,4.8c-0.1,3,0.5,5.9-1.1,9.1c-0.7,1.6,0.8,5.2,1.2,8c0.4,3-0.3,3.4-3.2,3.1
	c-4.6-0.4-9.1-0.2-13.7-1.4c-6-1.6-11.6,2.6-17.8,2.1c-7.3-0.5-14.6-0.6-21.9-0.3c-5.5,0.2-12.1,0.9-17.3-2
	c-4.5-2.5-10.5-2.8-13.7-7.2c-2.6-3.9-4.5-8.2-5.5-12.7c-0.4-1.5-0.3-3.6,1.4-4C254.1,510.9,253.1,513.8,254.1,515z"
	transform="translate(296,20)">

	<animate 
		attributeName="fill-opacity"
		values="0;0;0;0;0;1;1;1;1;1;0"
		dur="4s"
		repeatCount="indefinite"
	/>
	<animate 
		attributeName="stroke-opacity"
		values="0;0;0;0;0;1;1;1;1;1;0"
		dur="4s"
		repeatCount="indefinite"
	/>
</path>


<path class="madagascar" id="madagascar" d="M866.3,472.8c1.7,11.4-1.7,20.8-4.2,30.1c-4.7,17.4-10.7,34.4-16.4,51.4c-1.6,4.8-13.2,11.4-18,10.7
	c-7.2-1-13.2-8-13.5-15.9c0-1.3,0.9-3.1,0.3-3.9c-7.1-9.9-2.7-18.2,3.6-26.2c3.5-4.5,3.4-9.2,1.5-14.4c-2.5-6.9-4.1-13.6,0.6-20.8
	c2-3,3.9-4.9,6.8-6c10.6-3.7,22-6.2,24.1-20c6.6-1.5,8.1-6.5,9.4-12.3c0.6-2.8,2.9-1.1,4.2,0.5c6.6,7.9,6.4,18,7.8,27.3
	C873.2,479.1,869.3,475.4,866.3,472.8z"/>








</svg>

