<?xml version="1.0" encoding="utf-8"?>
<!-- Generator: Adobe Illustrator 19.2.1, SVG Export Plug-In . SVG Version: 6.00 Build 0)  -->
<svg version="1.1" id="Layer_1" xmlns="http://www.w3.org/2000/svg" xmlns:xlink="http://www.w3.org/1999/xlink" x="0px" y="0px"
	 viewBox="0 0 1614 317" style="enable-background:new 0 0 1614 317;" xml:space="preserve">
<style type="text/css">
	.st0{fill:#FFFFFF;}
	.st1{fill:none;}
</style>
<g>
	<g>
		<path class="st0" d="M1155.4,139.5c0-14.7,4.1-18.3,17.7-18.5v-12.3h-75.6v12.3c13.6,0.3,17.5,3.9,17.5,18.5v117.8
			c0,14.7-3.9,18.3-17.5,18.3v11.8h75.6v-11.8c-13.6,0-17.7-3.6-17.7-18.3v-52h61.2v52c0,14.7-4.1,18.3-17.7,18.3v11.8h75.6v-11.8
			c-13.6,0-17.8-3.6-17.8-18.3V139.5c0-14.7,4.2-18.3,17.8-18.5v-12.3h-75.6v12.3c13.6,0.3,17.7,3.9,17.7,18.5V186h-61.2V139.5z"/>
		<path class="st0" d="M1409.8,248.5v-94.7h-6.2l-47.3,9v11.3c12.6,0.5,15.4,3.1,15.4,21.9v60c-7.7,6.4-14.4,9.5-23.2,9.5
			c-11.8,0-16.5-7-16.5-20.9v-90.8h-6.2l-47.3,9v11.3c12.6,0.5,15.2,3.1,15.2,21.9v57.7c0,25.4,14.7,36.5,36.8,36.5
			c19.6,0,33.2-8.5,43.2-20.8c0.8,9.8,4.4,17,6.9,20.8h3.9l41.1-9.3v-10.5C1412.6,269.4,1409.8,267.3,1409.8,248.5"/>
		<path class="st0" d="M1489.8,257.5V124c0-11.8-1.8-20.8-4.7-25.5h-3.8l-46.5,6.9v11.3c13.4,0.5,17,3.1,17,21.9v119.1
			c0,14.7-2.8,17.8-15.9,18v11.6h69.9v-11.6C1492.4,275.6,1489.8,272.2,1489.8,257.5"/>
		<path class="st0" d="M1570,257.5V124c0-11.8-1.8-20.8-4.6-25.5h-3.9l-46.5,6.9v11.3c13.4,0.5,16.9,3.1,16.9,21.9v119.1
			c0,14.7-2.8,17.8-15.9,18v11.6h70v-11.6C1572.6,275.6,1570,272.2,1570,257.5"/>
	</g>
	<g>
		<path class="st0" d="M705.1,118.5c0,0-1.7,12.4-1.8,12.4c0,0,0.9-0.1-42.3,0h-42.7c0,0-1.6-12.4-1.7-12.4H661H705.1 M712.6,70.1
			c0,0-2.4-13.4-12-9.8c0,0-10.5,4.6-3.2,20.1c0,0,1.5-5,5.9-4.5c0,0,8.6,1,4.4,11.8c0,0-3.3,7.6-10,5.9c0,0-9.7-0.9-9.7-15.1
			c0,0-6.6,12.6-14.3,11.5c0,0-9.5,0.9-9.3-10.2c0,0,0.6-8.1,7.6-9.4c0,0,8.3-0.9,6.8,7c0,0,19-16.1,1.6-25.9c0,0-7.5-3.4-14,4
			c0,0,3.4-3.9,3.6-9.2c0,0,3.1-9.6-8.9-16.2v0c0,0,0,0,0,0c0,0,0,0,0,0v0c-12,6.6-8.9,16.2-8.9,16.2c0.2,5.3,3.6,9.2,3.6,9.2
			c-6.5-7.5-14-4-14-4c-17.4,9.8,1.6,25.9,1.6,25.9c-1.5-7.9,6.8-7,6.8-7c7,1.3,7.7,9.4,7.7,9.4c0.1,11.1-9.4,10.2-9.4,10.2
			c-7.6,1.1-14.2-11.5-14.2-11.5c0,14.2-9.7,15.1-9.7,15.1c-6.7,1.8-10-5.9-10-5.9c-4.2-10.8,4.4-11.8,4.4-11.8
			c4.5-0.5,5.9,4.5,5.9,4.5c7.4-15.5-3.2-20.1-3.2-20.1c-9.6-3.5-12,9.8-12,9.8c-6.1-16-18.6-11.8-18.6-11.8
			c18.6,25.2,24.9,49,24.9,49h90.5c0,0,6.4-23.8,25-49C731.2,58.3,718.8,54.2,712.6,70.1z M616,141.3H661v12.5H616
			c0,0-6.2,0-6.2-6.3C609.7,147.6,609.7,141.3,616,141.3z M712.4,147.6c0,6.2-6.3,6.3-6.3,6.3h-45.1v-12.5h45.1
			C712.4,141.3,712.4,147.6,712.4,147.6z"/>
		<path class="st0" d="M296.5,119.3c-9.4,0.1-9.4-13.4,0-13.4l61.8,0c9.5,0,9.5,13.5,0,13.4C358.3,119.3,296.5,119.3,296.5,119.3
			 M306.7,141.5c0,0,41.4,0,41.4,0c9.4,0.1,9.4-13.4,0-13.4h-41.4C297.3,128.1,297.3,141.5,306.7,141.5 M316.8,163.6h21.1
			c9.4,0,9.4-13.4,0-13.4h-21.1C307.4,150.2,307.4,163.7,316.8,163.6 M292.2,97.1c0,0-9.6-8.1-1.6-27.1c0,0,7.3,10.7,19.8,12.7
			c0,0,5.3-20.2,18.8-22.8c0,0-4.8,12.5,8.1,23.2c0,0,11.2-15.9,25.4-15.7c0,0-7.8,8.1-3.3,15.5c0,0,4.2,8.7-0.8,14.2
			c0,0,8.9,0,15.4-5.6c0,0,9.7-5.6,5.1-26.6c0,0-2.3-14.3,20.2-19.5c0,0-25.8-11-51.9,7.3c0,0-12.5-18.4,13.1-33.3
			c0,0-43-3.7-61.8,37.5c0,0-15.8-7.8-5.4-27.5c0,0-29.4,10.7-26.7,45.4C266.5,74.9,267.2,97.1,292.2,97.1"/>
		<path class="st0" d="M526.8,86.9c0,0-4.2-2.8-1.9-7.6c0,0,1.5-5.4-1.7-9.5c0,0-3.9-4.6-8.6-1.4l-0.3,0.4c0-0.1,2.3-5.9-3.8-8.5
			c0,0-3.9-2.2-10.4,2.1c0,0-3.9,3.1-7.9-0.5c0,0-4.7-3.2-9.5-1.4c0,0-5.6,2.3-4.1,7.8l0.2,0.3c-0.6-0.5-5.1-3.6-9.1,1.1
			c0,0-3.4,3-1.2,10.5c0,0,1.7,4.7-2.9,7.2c0,0-4.5,3.5-4.2,8.7c0,0,0.5,6,6.1,6.2l0.5-0.2c-0.2,0.1-5.3,3.5-1.9,9.1
			c0,0,1.9,4.1,9.7,4.4c0,0,5-0.2,6.1,5c0,0,1.9,5.4,6.9,6.7c0,0,5.8,1.4,7.8-3.9V123c0,0,1.6,6.2,8.1,4.6c0,0,4.5-0.5,7.1-7.8
			c0,0,1.4-4.8,6.7-4.1c0,0,5.7-0.2,8.5-4.5c0,0,3.2-5.2-1.4-8.7l-0.5-0.2c0,0,6.3,0.4,6.9-6.2C532,96.2,532.9,91.7,526.8,86.9z
			 M514.2,98.9c0,0-3.4,12.2-17.7,12.8v-0.1c0,0-12.6,0.5-17.7-12.9l0,0c0,0-4.4-11.9,6.8-20.8l0,0.1c0,0,9.9-7.8,21.9,0l0,0
			c0,0,10.5,7,6.7,20.8l8.2,2.7L514.2,98.9z M488,93.2c0-4.9,3.9-8.8,8.8-8.8c4.9,0,8.8,4,8.8,8.8c0,4.9-4,8.8-8.8,8.8
			C491.9,102,488,98.1,488,93.2 M565.1,84.4c0,0-3.5-11-14.4-8.7c0,0,9.8-5.4,6.4-15.4c0,0-4.8-13.7-19.1-10.5c0,0-5.8,0.7-8.5-1.7
			l-2.1,2.8l2.1-2.9c0,0-3.1-1.7-4.2-7.6c0,0-1.3-14.5-15.9-14.9c0,0-11.5,0-12.7,11c0,0-2.1-11-12.7-10.9c0,0-14.5,0.4-15.9,15
			c0,0-1.2,5.7-4.2,7.5l0,0c0,0-2.6,2.4-8.5,1.6c0,0-14.2-3.3-19.2,10.5c0,0-3.6,10.9,6.5,15.5c0,0-11.1-1.4-14.3,8.7
			c0,0-4.2,13.9,9.3,19.7c0,0,5.1,2.9,5.9,6.3l0,0c0,0,1.5,3.2-1.1,8.6c0,0-7.5,12.5,4,21.4c0,0,9.3,6.8,16.8-1.4
			c0,0-4.8,10.1,3.8,16.3c0,0,12,8.2,21.7-2.7c0,0,4.3-3.9,7.8-3.6l0-7.2v7.3c0,0,3.5-0.4,7.8,3.7c0,0,9.6,11,21.6,2.7
			c0,0,9.3-6.7,3.8-16.4c0,0,8.2,7.7,16.7,1.4c0,0,11.5-8.9,4.1-21.5c0,0-2.4-5.3-1.1-8.6l-3.9-1.3l4,1.3c0,0,0.7-3.5,5.9-6.3
			C555.8,104.1,569.2,98.4,565.1,84.4z M546.5,98.2c0,0-1.5,8.1-10.2,7.8l-0.2,0c0,0,0.1,0,0.1,0.1c0,0,0,0-0.1,0l0.1,0
			c0.7,0.5,7,5.2,3.6,12.4c0,0-3.9,8.4-14.2,6.3c0,0-6.2-1.4-7.8,5.7c0,0-1.2,10.5-10.4,11.6c0,0-8.3,1.1-10.5-7.3v-0.1
			c0,0,0,0,0,0.1c0,0,0,0,0,0v0c-0.1,0.4-2.6,8.3-10.7,7.3c0,0-9.2-1.1-10.4-11.6c0,0-0.6-6.3-7.8-5.7c0,0-10.3,2.1-14.2-6.3
			c0,0-3.6-7.5,3.7-12.3l0.1,0c0,0,0,0-0.1,0c0,0,0,0,0,0l-0.1,0c-0.4,0-8.7,0.1-10.3-7.9c0,0-1.8-9.1,7.8-13.5c0,0,5.8-2.5,3-9.2
			c0,0-5.2-9.2,1.6-15.5c0,0,6-5.7,12.8-0.3l0.1,0.1c0,0,0-0.1,0-0.1c0,0,0,0,0,0l0,0c-0.2-0.5-2.7-8.3,4.3-12.2
			c0,0,8.1-4.6,15.2,3.2c0,0,4.2,4.8,9.7,0c0,0,7.1-7.8,15.2-3.2c0,0,7.3,3.9,4.2,12.1l-0.1,0.1c0,0,0,0,0,0c0,0,0,0,0,0l0,0
			c0.4-0.3,7-5.2,13,0.4c0,0,6.8,6.3,1.6,15.4c0,0-3.3,5.5,3,9.3C538.7,84.7,548.3,89,546.5,98.2z"/>
		<path class="st0" d="M956.6,47.1c-2.4-11.3-10-12.2-13.1-12.1c0,0-0.1,4,0,4c3.4,0,4.3,2.8,4.3,4c-0.2,4.1-4,4.1-4,4.1
			c-2.4,0-4.1-1.9-4.1-4c0-2.4,1.8-3.9,3.8-4.1c0.1,0,0-4,0-4c-10-0.2-9.7,8.1-9.7,8.1c-2.4,2-7.1,3.7-7.1,3.7
			c-1.6,1.3-1.7,3.8-1.7,3.8c-0.1,1.4,0.1,1.9,0.1,1.8c9.1-3.8,11.1-1.8,11.1-1.8l1.6,1.3c2.2,3,2.9,9.6,2.9,9.6
			c-1.8,12.7-12.6,13-10.8,31.2c1.2,29.6,41.2,37.3,41.2,37.3c2.2,4.5-2.8,14.4-2.8,14.4c-0.6,1.5-1.9,1.5-6.9,0.7
			c-2.5-0.5-4.2-1-4.2-1c-8.2-2.8-5.2,6-5.2,6c0,0,30.1,0,30.1,0c2.2-8.1-3.2-5.7-3.2-5.7c-5.4,2.8-5-0.2-5-0.2
			c1.6-9,5.8-14.6,5.8-14.6C909.7,87.5,956,74.7,956,74.7s-31.8,15.8,39.3,54.4c17.8,10.8,18.3,11.2,24.1,14.1c4.1,2.6,5,1.1,5,1.1
			c0.6-1.4-1.3-3.3-1.3-3.3l-16.6-20.6c21.8,13.9,31.5,21.2,31.5,21.2c10.2,4.4,25.5-9.5,5.7-18C961.2,79,956.6,47.1,956.6,47.1"/>
		<path class="st0" d="M874.7,65.4c0,0-14.4-4-24.9,11.2c0,0-8.5,10.7-9.9,33.3h-8.8c0,0,0.6-14.4,4.4-28.2c0,0,2.2-8.7,4.9-23.2
			c0,0,2.6-12.5-1.3-21.9c0,0-4.9-14.6-14.1-14c-9.1-0.6-14,14-14,14c-3.9,9.4-1.3,21.9-1.3,21.9c2.7,14.6,4.9,23.2,4.9,23.2
			c3.8,13.8,4.5,28.2,4.5,28.2h-8.8c-1.4-22.6-9.9-33.3-9.9-33.3c-10.5-15.2-25-11.2-25-11.2c-18.3,4.1-17.8,22.2-17.8,22.2
			c-0.3,15.7,9.2,21,9.2,21c8.4,5.2,17.1,3.6,17.1,3.6c-2.8-3-4.5-5.5-4.5-5.5c-3.4-7.4,3-10.8,3-10.8c6.2-3.4,11.7,2.2,11.7,2.2
			c4.9,4.8,6.2,11.9,6.2,11.9h-6.7c-6,0-5.9,7.1-5.9,7.1c-0.1,7.1,5.9,7.1,5.9,7.1h6.6c-0.8,7-7.2,6.5-7.2,6.5
			c-6.4-0.1-10.7-8.7-10.7-8.7c-4.5,5-2.9,11.4-3,11.4c2.3,11.4,13.9,11.1,13.9,11.1c16.7,0.1,17.4-20.3,17.4-20.3h8.5
			c-1.8,22.7-12.6,26.6-12.6,26.6c4.6,11.5,18.6,10.7,18.6,10.7s14,0.7,18.6-10.7c0,0-10.8-3.9-12.6-26.6h8.5
			c0,0,0.7,20.3,17.4,20.3c0,0,11.6,0.3,13.8-11.1c0,0,1.5-6.4-3-11.4c0,0-4.3,8.6-10.7,8.7c0,0-6.5,0.5-7.3-6.5h6.5c0,0,6,0,6-7.1
			c0,0,0.1-7.1-6-7.1h-6.7c0,0,1.3-7.1,6.2-11.9c0,0,5.4-5.6,11.7-2.2c0,0,6.3,3.4,3,10.8c0,0-1.7,2.6-4.5,5.5c0,0,8.8,1.6,17.2-3.6
			c0,0,9.5-5.3,9.2-21C892.5,87.5,893,69.5,874.7,65.4z"/>
	</g>
	<g>
		<path class="st0" d="M1013.6,249.6h6.3c9.1,0,10.7,0.8,11,9.3h8.2v-27h-8.2c-0.3,8.8-2,9.3-11.2,9.3h-6.2V210h14.4
			c10.2,0,12,1.6,15.8,14.4h9l-1.7-23.6h-68.5v6.6c9.5,0.2,11.4,2.3,11.4,11.3v51c0,9-1.9,11.2-11.4,11.4v6.3h44.5v-6.3
			c-10.4-0.2-13.4-1.9-13.4-11.4V249.6z"/>
		<path class="st0" d="M933.6,198.9c-24.9,0-41.5,15.5-41.5,45.8c0,28.4,15.6,44.5,41.5,44.5c25.9,0,41.5-16.1,41.5-44.5
			C975.1,214.4,958.7,198.9,933.6,198.9z M933.6,280.6c-13.1,0-20-10.3-20-37c0-23.2,5.5-34.9,20-34.9c14.7,0,20.5,11.7,20.5,34.6
			C954.1,270.3,947.5,280.6,933.6,280.6z"/>
	</g>
	<g>
		<path class="st0" d="M806.2,256v13.7c0,9-1.9,11.2-11.8,11.4v6.3h43.4v-6.3c-10-0.2-11.8-2.4-11.8-11.4V256l21.1-39
			c4-7.1,5.7-9,11.8-9.8v-6.4h-30v6.4c6.2,0.2,8.4,1.6,8.4,4c0,1.2-0.6,2.8-1.6,4.7l-14.4,29h-0.8L805.3,216c-0.8-1.4-1.4-3-1.4-4.6
			c0-2.7,2.8-4.1,9-4.3v-6.4h-39.9v6.4c5.8,0.8,7.7,2.9,11.8,10.1L806.2,256z"/>
		<path class="st0" d="M714.7,269.7c0,9-1.9,11.2-11.9,11.4v6.3h43.6v-6.3c-9.9-0.2-11.9-2.4-11.9-11.4v-60h6.5
			c9.5,0,11.6,4.3,14.4,17.9h9.3l-1.4-26.8h-78.6l-0.8,26.8h9.3c2.2-13.3,3.7-17.9,14.2-17.9h7.3V269.7z"/>
		<path class="st0" d="M664.1,218.7c0-9,1.9-11.2,11.2-11.3v-6.6h-42.3v6.6c9.5,0.1,11.3,2.3,11.3,11.3v51c0,9-1.9,11.2-11.3,11.4
			v6.3h42.3v-6.3c-9.3-0.2-11.2-2.4-11.2-11.4V218.7z"/>
		<path class="st0" d="M585.8,289.2c22.3,0,35.4-9.9,35.4-27.9c0-14.1-9.1-22.3-24.9-25.9l-11.7-2.7c-8.8-2.1-11.7-5.8-11.7-12.6
			c0-7.9,5.2-12.5,14.3-12.5c9.6,0,14.5,4.9,16,14.4h13.2V205c-4.6-2.5-14.2-6-27.9-6c-17.8,0-32.5,9-32.5,27
			c0,14.4,8.7,21.9,22.2,24.9l11.9,2.7c8.8,2.1,13.7,5.2,13.7,13.8c0,9.8-7.2,13.9-16.7,13.9c-12,0-16.9-5-18.1-16.9h-13.4V282
			C559.9,284.7,568.6,289.2,585.8,289.2"/>
		<path class="st0" d="M536.7,273.3c-3.3-5.7-5.2-9.5-7.4-12.8c-4.4-6.6-10.9-10.3-17.8-11.7v-0.6c15.6-0.5,27.4-6.3,27.4-22.7
			c0-19.7-14.4-24.8-34.4-24.8H461v6.6c9.5,0.2,11.3,2.3,11.3,11.3v51c0,9-1.9,11.2-11.3,11.4v6.3h43.4v-6.3
			c-9.3-0.2-12.3-1.9-12.3-11.4v-19.6c8.8,0.2,12.5,3.6,18.5,14.5c3.3,6.3,7,13.7,10.9,22.7h27.1v-6.5
			C541.5,280.7,539.7,278.7,536.7,273.3z M501.4,241.6h-9.3V210h7.4c14.5,0,19.3,4.4,19.3,15.5C518.8,237.8,514.2,241.6,501.4,241.6
			z"/>
		<path class="st0" d="M377.2,287.4h71.8v-26.7h-9.3c-1.3,15.3-4.9,17.7-16.1,17.7h-15.3v-31.1h5.2c9.2,0,10.7,0.8,11.1,8.8h8.4
			v-25.8h-8.4c-0.4,8.2-2,8.7-11.2,8.7h-5.1V210h14.4c10.3,0,12,1.6,15.8,14.4h9l-1.7-23.6h-68.5v6.6c9.5,0.2,11.3,2.3,11.3,11.3v51
			c0,9-1.9,11.2-11.3,11.4V287.4z"/>
		<path class="st0" d="M333.1,288.1l24.9-70.6c2.9-8.1,4.9-9.6,11.2-10.4v-6.4h-31.6v6.4c7.1,0.2,9.6,1.7,9.6,4.9
			c0,1.3-0.3,2.7-0.9,4.4l-13,39.8c-2.1,6-3.2,12.3-3.6,14.7h-0.6c-0.5-2.5-1.8-9.3-3.7-14.9l-13.3-39.6c-1.9-6-1.4-9,8.5-9.3v-6.4
			h-39.4v6.4c5.8,0.8,7.7,2.5,10.7,10.4l25.9,70.6H333.1z"/>
		<path class="st0" d="M262,218.7c0-9,1.9-11.2,11.2-11.3v-6.6h-42.3v6.6c9.5,0.1,11.4,2.3,11.4,11.3v51c0,9-1.9,11.2-11.4,11.4v6.3
			h42.3v-6.3c-9.3-0.2-11.2-2.4-11.2-11.4V218.7z"/>
		<path class="st0" d="M140.8,269.7c0,9-1.9,11.2-11.4,11.4v6.3h34.1v-6.3c-9.3-0.2-11.2-2.4-11.2-11.4v-23.1c0-11.2-1-22.9-1.6-27
			h0.8c1.3,3,4.9,11.4,13.1,23.2l30.4,44.5h14.7v-68.7c0-9,1.9-11.2,11.2-11.3v-6.6h-34.1v6.6c9.5,0.1,11.3,2.3,11.3,11.3v15.7
			c0,12.9,1.1,23.8,1.6,28.3h-1c-1.6-4.4-5.5-12.2-10.4-19.6l-28-42.3h-31.1v6.6c9.5,0.1,11.4,2.3,11.4,11.3V269.7z"/>
		<path class="st0" d="M74.1,289.2c26.2,0,38.5-12.5,38.5-37.4v-55.4c0-9,2-11.5,10.9-11.7v-6.6H88.6v6.6
			c9.8,0.2,12.2,2.6,12.2,11.7v55.3c0,19.1-7.4,26.2-22.9,26.2c-17.2,0-23.4-7.6-23.4-27v-54.5c0-9,2.2-11.5,12.2-11.7v-6.6H22.9
			v6.6c9,0.2,11.3,2.6,11.3,11.7v56.4C34.1,277.6,46.7,289.2,74.1,289.2"/>
	</g>
</g>
<rect x="266.9" y="260" class="st1" width="323.7" height="88.4"/>
</svg>
